%TF.GenerationSoftware,KiCad,Pcbnew,7.0.9*%
%TF.CreationDate,2024-04-22T21:03:58-07:00*%
%TF.ProjectId,AVcarrierBoard,41566361-7272-4696-9572-426f6172642e,rev?*%
%TF.SameCoordinates,Original*%
%TF.FileFunction,Drillmap*%
%TF.FilePolarity,Positive*%
%FSLAX45Y45*%
G04 Gerber Fmt 4.5, Leading zero omitted, Abs format (unit mm)*
G04 Created by KiCad (PCBNEW 7.0.9) date 2024-04-22 21:03:58*
%MOMM*%
%LPD*%
G01*
G04 APERTURE LIST*
%ADD10C,0.200000*%
%ADD11C,0.127000*%
%ADD12C,0.238760*%
%ADD13C,0.239000*%
%ADD14C,0.299999*%
%ADD15C,0.306832*%
%ADD16C,0.318000*%
%ADD17C,0.320000*%
%ADD18C,0.330200*%
%ADD19C,0.345000*%
G04 APERTURE END LIST*
D10*
X2276500Y-6557000D02*
X27636500Y-6557000D01*
X27636500Y-12457000D01*
X2276500Y-12457000D01*
X2276500Y-6557000D01*
D11*
X15272742Y-9276500D02*
X15399742Y-9403500D01*
X15399742Y-9276500D02*
X15272742Y-9403500D01*
X15285162Y-7241960D02*
X15412162Y-7368960D01*
X15412162Y-7241960D02*
X15285162Y-7368960D01*
X15287700Y-8245260D02*
X15414700Y-8372260D01*
X15414700Y-8245260D02*
X15287700Y-8372260D01*
X16172740Y-9276500D02*
X16299740Y-9403500D01*
X16299740Y-9276500D02*
X16172740Y-9403500D01*
X16185160Y-7241960D02*
X16312160Y-7368960D01*
X16312160Y-7241960D02*
X16185160Y-7368960D01*
X16187698Y-8245260D02*
X16314698Y-8372260D01*
X16314698Y-8245260D02*
X16187698Y-8372260D01*
D12*
X18671920Y-9000000D02*
G75*
G03*
X18671920Y-9000000I-119380J0D01*
G01*
D13*
X25714000Y-10775000D02*
X25714000Y-11014000D01*
X25594500Y-10894500D02*
X25833500Y-10894500D01*
D14*
X4022747Y-7409111D02*
X4022747Y-7196977D01*
X3810613Y-7196977D01*
X3810613Y-7409111D01*
X4022747Y-7409111D01*
X4022747Y-9189107D02*
X4022747Y-8976973D01*
X3810613Y-8976973D01*
X3810613Y-9189107D01*
X4022747Y-9189107D01*
D15*
X16567330Y-10641076D02*
X16720746Y-10487660D01*
X16567330Y-10334244D01*
X16413914Y-10487660D01*
X16567330Y-10641076D01*
X19461660Y-11936476D02*
X19615076Y-11783060D01*
X19461660Y-11629644D01*
X19308244Y-11783060D01*
X19461660Y-11936476D01*
D16*
X12962000Y-7733000D02*
X13280000Y-8051000D01*
X13280000Y-7733000D02*
X12962000Y-8051000D01*
X13280000Y-7892000D02*
G75*
G03*
X13280000Y-7892000I-159000J0D01*
G01*
D17*
X2684800Y-6911360D02*
X3004800Y-7231360D01*
X3004800Y-6911360D02*
X2684800Y-7231360D01*
X2844800Y-6911360D02*
X2844800Y-7231360D01*
X2684800Y-7071360D02*
X3004800Y-7071360D01*
X2740680Y-11783080D02*
X3060680Y-12103080D01*
X3060680Y-11783080D02*
X2740680Y-12103080D01*
X2900680Y-11783080D02*
X2900680Y-12103080D01*
X2740680Y-11943080D02*
X3060680Y-11943080D01*
X4645750Y-9690375D02*
X4965750Y-10010375D01*
X4965750Y-9690375D02*
X4645750Y-10010375D01*
X4805750Y-9690375D02*
X4805750Y-10010375D01*
X4645750Y-9850375D02*
X4965750Y-9850375D01*
X4645750Y-11722375D02*
X4965750Y-12042375D01*
X4965750Y-11722375D02*
X4645750Y-12042375D01*
X4805750Y-11722375D02*
X4805750Y-12042375D01*
X4645750Y-11882375D02*
X4965750Y-11882375D01*
X10445750Y-9690375D02*
X10765750Y-10010375D01*
X10765750Y-9690375D02*
X10445750Y-10010375D01*
X10605750Y-9690375D02*
X10605750Y-10010375D01*
X10445750Y-9850375D02*
X10765750Y-9850375D01*
X10445750Y-11722375D02*
X10765750Y-12042375D01*
X10765750Y-11722375D02*
X10445750Y-12042375D01*
X10605750Y-11722375D02*
X10605750Y-12042375D01*
X10445750Y-11882375D02*
X10765750Y-11882375D01*
X16940000Y-9140000D02*
X17260000Y-9460000D01*
X17260000Y-9140000D02*
X16940000Y-9460000D01*
X17100000Y-9140000D02*
X17100000Y-9460000D01*
X16940000Y-9300000D02*
X17260000Y-9300000D01*
X26799560Y-11783080D02*
X27119560Y-12103080D01*
X27119560Y-11783080D02*
X26799560Y-12103080D01*
X26959560Y-11783080D02*
X26959560Y-12103080D01*
X26799560Y-11943080D02*
X27119560Y-11943080D01*
X26824960Y-6911360D02*
X27144960Y-7231360D01*
X27144960Y-6911360D02*
X26824960Y-7231360D01*
X26984960Y-6911360D02*
X26984960Y-7231360D01*
X26824960Y-7071360D02*
X27144960Y-7071360D01*
X26925200Y-7807500D02*
X27245200Y-8127500D01*
X27245200Y-7807500D02*
X26925200Y-8127500D01*
X27085200Y-7807500D02*
X27085200Y-8127500D01*
X26925200Y-7967500D02*
X27245200Y-7967500D01*
D18*
X6096580Y-8810500D02*
X6426780Y-9140700D01*
X6426780Y-8810500D02*
X6096580Y-9140700D01*
X6378424Y-9092344D02*
X6378424Y-8858856D01*
X6144936Y-8858856D01*
X6144936Y-9092344D01*
X6378424Y-9092344D01*
X8636580Y-7540500D02*
X8966780Y-7870700D01*
X8966780Y-7540500D02*
X8636580Y-7870700D01*
X8918424Y-7822344D02*
X8918424Y-7588856D01*
X8684936Y-7588856D01*
X8684936Y-7822344D01*
X8918424Y-7822344D01*
D19*
X19199500Y-10722000D02*
X19544500Y-11067000D01*
X19544500Y-10722000D02*
X19199500Y-11067000D01*
X19372000Y-11067000D02*
X19544500Y-10894500D01*
X19372000Y-10722000D01*
X19199500Y-10894500D01*
X19372000Y-11067000D01*
X24719500Y-7221000D02*
X25064500Y-7566000D01*
X25064500Y-7221000D02*
X24719500Y-7566000D01*
X24892000Y-7566000D02*
X25064500Y-7393500D01*
X24892000Y-7221000D01*
X24719500Y-7393500D01*
X24892000Y-7566000D01*
D10*
X2527277Y-12778484D02*
X2527277Y-12578484D01*
X2527277Y-12578484D02*
X2574896Y-12578484D01*
X2574896Y-12578484D02*
X2603467Y-12588008D01*
X2603467Y-12588008D02*
X2622515Y-12607055D01*
X2622515Y-12607055D02*
X2632039Y-12626103D01*
X2632039Y-12626103D02*
X2641563Y-12664198D01*
X2641563Y-12664198D02*
X2641563Y-12692769D01*
X2641563Y-12692769D02*
X2632039Y-12730865D01*
X2632039Y-12730865D02*
X2622515Y-12749912D01*
X2622515Y-12749912D02*
X2603467Y-12768960D01*
X2603467Y-12768960D02*
X2574896Y-12778484D01*
X2574896Y-12778484D02*
X2527277Y-12778484D01*
X2727277Y-12778484D02*
X2727277Y-12645150D01*
X2727277Y-12683246D02*
X2736801Y-12664198D01*
X2736801Y-12664198D02*
X2746324Y-12654674D01*
X2746324Y-12654674D02*
X2765372Y-12645150D01*
X2765372Y-12645150D02*
X2784420Y-12645150D01*
X2851086Y-12778484D02*
X2851086Y-12645150D01*
X2851086Y-12578484D02*
X2841562Y-12588008D01*
X2841562Y-12588008D02*
X2851086Y-12597531D01*
X2851086Y-12597531D02*
X2860610Y-12588008D01*
X2860610Y-12588008D02*
X2851086Y-12578484D01*
X2851086Y-12578484D02*
X2851086Y-12597531D01*
X2974896Y-12778484D02*
X2955848Y-12768960D01*
X2955848Y-12768960D02*
X2946324Y-12749912D01*
X2946324Y-12749912D02*
X2946324Y-12578484D01*
X3079658Y-12778484D02*
X3060610Y-12768960D01*
X3060610Y-12768960D02*
X3051086Y-12749912D01*
X3051086Y-12749912D02*
X3051086Y-12578484D01*
X3308229Y-12778484D02*
X3308229Y-12578484D01*
X3308229Y-12578484D02*
X3374896Y-12721341D01*
X3374896Y-12721341D02*
X3441562Y-12578484D01*
X3441562Y-12578484D02*
X3441562Y-12778484D01*
X3622515Y-12778484D02*
X3622515Y-12673722D01*
X3622515Y-12673722D02*
X3612991Y-12654674D01*
X3612991Y-12654674D02*
X3593943Y-12645150D01*
X3593943Y-12645150D02*
X3555848Y-12645150D01*
X3555848Y-12645150D02*
X3536801Y-12654674D01*
X3622515Y-12768960D02*
X3603467Y-12778484D01*
X3603467Y-12778484D02*
X3555848Y-12778484D01*
X3555848Y-12778484D02*
X3536801Y-12768960D01*
X3536801Y-12768960D02*
X3527277Y-12749912D01*
X3527277Y-12749912D02*
X3527277Y-12730865D01*
X3527277Y-12730865D02*
X3536801Y-12711817D01*
X3536801Y-12711817D02*
X3555848Y-12702293D01*
X3555848Y-12702293D02*
X3603467Y-12702293D01*
X3603467Y-12702293D02*
X3622515Y-12692769D01*
X3717753Y-12645150D02*
X3717753Y-12845150D01*
X3717753Y-12654674D02*
X3736801Y-12645150D01*
X3736801Y-12645150D02*
X3774896Y-12645150D01*
X3774896Y-12645150D02*
X3793943Y-12654674D01*
X3793943Y-12654674D02*
X3803467Y-12664198D01*
X3803467Y-12664198D02*
X3812991Y-12683246D01*
X3812991Y-12683246D02*
X3812991Y-12740388D01*
X3812991Y-12740388D02*
X3803467Y-12759436D01*
X3803467Y-12759436D02*
X3793943Y-12768960D01*
X3793943Y-12768960D02*
X3774896Y-12778484D01*
X3774896Y-12778484D02*
X3736801Y-12778484D01*
X3736801Y-12778484D02*
X3717753Y-12768960D01*
X3898705Y-12759436D02*
X3908229Y-12768960D01*
X3908229Y-12768960D02*
X3898705Y-12778484D01*
X3898705Y-12778484D02*
X3889182Y-12768960D01*
X3889182Y-12768960D02*
X3898705Y-12759436D01*
X3898705Y-12759436D02*
X3898705Y-12778484D01*
X3898705Y-12654674D02*
X3908229Y-12664198D01*
X3908229Y-12664198D02*
X3898705Y-12673722D01*
X3898705Y-12673722D02*
X3889182Y-12664198D01*
X3889182Y-12664198D02*
X3898705Y-12654674D01*
X3898705Y-12654674D02*
X3898705Y-12673722D01*
D11*
X2139500Y-13043500D02*
X2266500Y-13170500D01*
X2266500Y-13043500D02*
X2139500Y-13170500D01*
D10*
X2632039Y-13198484D02*
X2517753Y-13198484D01*
X2574896Y-13198484D02*
X2574896Y-12998484D01*
X2574896Y-12998484D02*
X2555848Y-13027055D01*
X2555848Y-13027055D02*
X2536801Y-13046103D01*
X2536801Y-13046103D02*
X2517753Y-13055627D01*
X2717753Y-13179436D02*
X2727277Y-13188960D01*
X2727277Y-13188960D02*
X2717753Y-13198484D01*
X2717753Y-13198484D02*
X2708229Y-13188960D01*
X2708229Y-13188960D02*
X2717753Y-13179436D01*
X2717753Y-13179436D02*
X2717753Y-13198484D01*
X2803467Y-13017531D02*
X2812991Y-13008008D01*
X2812991Y-13008008D02*
X2832039Y-12998484D01*
X2832039Y-12998484D02*
X2879658Y-12998484D01*
X2879658Y-12998484D02*
X2898705Y-13008008D01*
X2898705Y-13008008D02*
X2908229Y-13017531D01*
X2908229Y-13017531D02*
X2917753Y-13036579D01*
X2917753Y-13036579D02*
X2917753Y-13055627D01*
X2917753Y-13055627D02*
X2908229Y-13084198D01*
X2908229Y-13084198D02*
X2793944Y-13198484D01*
X2793944Y-13198484D02*
X2917753Y-13198484D01*
X2984420Y-12998484D02*
X3117753Y-12998484D01*
X3117753Y-12998484D02*
X3032039Y-13198484D01*
X3232039Y-12998484D02*
X3251086Y-12998484D01*
X3251086Y-12998484D02*
X3270134Y-13008008D01*
X3270134Y-13008008D02*
X3279658Y-13017531D01*
X3279658Y-13017531D02*
X3289182Y-13036579D01*
X3289182Y-13036579D02*
X3298705Y-13074674D01*
X3298705Y-13074674D02*
X3298705Y-13122293D01*
X3298705Y-13122293D02*
X3289182Y-13160388D01*
X3289182Y-13160388D02*
X3279658Y-13179436D01*
X3279658Y-13179436D02*
X3270134Y-13188960D01*
X3270134Y-13188960D02*
X3251086Y-13198484D01*
X3251086Y-13198484D02*
X3232039Y-13198484D01*
X3232039Y-13198484D02*
X3212991Y-13188960D01*
X3212991Y-13188960D02*
X3203467Y-13179436D01*
X3203467Y-13179436D02*
X3193943Y-13160388D01*
X3193943Y-13160388D02*
X3184420Y-13122293D01*
X3184420Y-13122293D02*
X3184420Y-13074674D01*
X3184420Y-13074674D02*
X3193943Y-13036579D01*
X3193943Y-13036579D02*
X3203467Y-13017531D01*
X3203467Y-13017531D02*
X3212991Y-13008008D01*
X3212991Y-13008008D02*
X3232039Y-12998484D01*
X3384420Y-13198484D02*
X3384420Y-13065150D01*
X3384420Y-13084198D02*
X3393943Y-13074674D01*
X3393943Y-13074674D02*
X3412991Y-13065150D01*
X3412991Y-13065150D02*
X3441563Y-13065150D01*
X3441563Y-13065150D02*
X3460610Y-13074674D01*
X3460610Y-13074674D02*
X3470134Y-13093722D01*
X3470134Y-13093722D02*
X3470134Y-13198484D01*
X3470134Y-13093722D02*
X3479658Y-13074674D01*
X3479658Y-13074674D02*
X3498705Y-13065150D01*
X3498705Y-13065150D02*
X3527277Y-13065150D01*
X3527277Y-13065150D02*
X3546324Y-13074674D01*
X3546324Y-13074674D02*
X3555848Y-13093722D01*
X3555848Y-13093722D02*
X3555848Y-13198484D01*
X3651086Y-13198484D02*
X3651086Y-13065150D01*
X3651086Y-13084198D02*
X3660610Y-13074674D01*
X3660610Y-13074674D02*
X3679658Y-13065150D01*
X3679658Y-13065150D02*
X3708229Y-13065150D01*
X3708229Y-13065150D02*
X3727277Y-13074674D01*
X3727277Y-13074674D02*
X3736801Y-13093722D01*
X3736801Y-13093722D02*
X3736801Y-13198484D01*
X3736801Y-13093722D02*
X3746324Y-13074674D01*
X3746324Y-13074674D02*
X3765372Y-13065150D01*
X3765372Y-13065150D02*
X3793943Y-13065150D01*
X3793943Y-13065150D02*
X3812991Y-13074674D01*
X3812991Y-13074674D02*
X3822515Y-13093722D01*
X3822515Y-13093722D02*
X3822515Y-13198484D01*
X4212991Y-12988960D02*
X4041563Y-13246103D01*
X4470134Y-12998484D02*
X4489182Y-12998484D01*
X4489182Y-12998484D02*
X4508229Y-13008008D01*
X4508229Y-13008008D02*
X4517753Y-13017531D01*
X4517753Y-13017531D02*
X4527277Y-13036579D01*
X4527277Y-13036579D02*
X4536801Y-13074674D01*
X4536801Y-13074674D02*
X4536801Y-13122293D01*
X4536801Y-13122293D02*
X4527277Y-13160388D01*
X4527277Y-13160388D02*
X4517753Y-13179436D01*
X4517753Y-13179436D02*
X4508229Y-13188960D01*
X4508229Y-13188960D02*
X4489182Y-13198484D01*
X4489182Y-13198484D02*
X4470134Y-13198484D01*
X4470134Y-13198484D02*
X4451087Y-13188960D01*
X4451087Y-13188960D02*
X4441563Y-13179436D01*
X4441563Y-13179436D02*
X4432039Y-13160388D01*
X4432039Y-13160388D02*
X4422515Y-13122293D01*
X4422515Y-13122293D02*
X4422515Y-13074674D01*
X4422515Y-13074674D02*
X4432039Y-13036579D01*
X4432039Y-13036579D02*
X4441563Y-13017531D01*
X4441563Y-13017531D02*
X4451087Y-13008008D01*
X4451087Y-13008008D02*
X4470134Y-12998484D01*
X4622515Y-13179436D02*
X4632039Y-13188960D01*
X4632039Y-13188960D02*
X4622515Y-13198484D01*
X4622515Y-13198484D02*
X4612991Y-13188960D01*
X4612991Y-13188960D02*
X4622515Y-13179436D01*
X4622515Y-13179436D02*
X4622515Y-13198484D01*
X4755848Y-12998484D02*
X4774896Y-12998484D01*
X4774896Y-12998484D02*
X4793944Y-13008008D01*
X4793944Y-13008008D02*
X4803468Y-13017531D01*
X4803468Y-13017531D02*
X4812991Y-13036579D01*
X4812991Y-13036579D02*
X4822515Y-13074674D01*
X4822515Y-13074674D02*
X4822515Y-13122293D01*
X4822515Y-13122293D02*
X4812991Y-13160388D01*
X4812991Y-13160388D02*
X4803468Y-13179436D01*
X4803468Y-13179436D02*
X4793944Y-13188960D01*
X4793944Y-13188960D02*
X4774896Y-13198484D01*
X4774896Y-13198484D02*
X4755848Y-13198484D01*
X4755848Y-13198484D02*
X4736801Y-13188960D01*
X4736801Y-13188960D02*
X4727277Y-13179436D01*
X4727277Y-13179436D02*
X4717753Y-13160388D01*
X4717753Y-13160388D02*
X4708229Y-13122293D01*
X4708229Y-13122293D02*
X4708229Y-13074674D01*
X4708229Y-13074674D02*
X4717753Y-13036579D01*
X4717753Y-13036579D02*
X4727277Y-13017531D01*
X4727277Y-13017531D02*
X4736801Y-13008008D01*
X4736801Y-13008008D02*
X4755848Y-12998484D01*
X5003468Y-12998484D02*
X4908229Y-12998484D01*
X4908229Y-12998484D02*
X4898706Y-13093722D01*
X4898706Y-13093722D02*
X4908229Y-13084198D01*
X4908229Y-13084198D02*
X4927277Y-13074674D01*
X4927277Y-13074674D02*
X4974896Y-13074674D01*
X4974896Y-13074674D02*
X4993944Y-13084198D01*
X4993944Y-13084198D02*
X5003468Y-13093722D01*
X5003468Y-13093722D02*
X5012991Y-13112769D01*
X5012991Y-13112769D02*
X5012991Y-13160388D01*
X5012991Y-13160388D02*
X5003468Y-13179436D01*
X5003468Y-13179436D02*
X4993944Y-13188960D01*
X4993944Y-13188960D02*
X4974896Y-13198484D01*
X4974896Y-13198484D02*
X4927277Y-13198484D01*
X4927277Y-13198484D02*
X4908229Y-13188960D01*
X4908229Y-13188960D02*
X4898706Y-13179436D01*
X5136801Y-12998484D02*
X5155849Y-12998484D01*
X5155849Y-12998484D02*
X5174896Y-13008008D01*
X5174896Y-13008008D02*
X5184420Y-13017531D01*
X5184420Y-13017531D02*
X5193944Y-13036579D01*
X5193944Y-13036579D02*
X5203468Y-13074674D01*
X5203468Y-13074674D02*
X5203468Y-13122293D01*
X5203468Y-13122293D02*
X5193944Y-13160388D01*
X5193944Y-13160388D02*
X5184420Y-13179436D01*
X5184420Y-13179436D02*
X5174896Y-13188960D01*
X5174896Y-13188960D02*
X5155849Y-13198484D01*
X5155849Y-13198484D02*
X5136801Y-13198484D01*
X5136801Y-13198484D02*
X5117753Y-13188960D01*
X5117753Y-13188960D02*
X5108229Y-13179436D01*
X5108229Y-13179436D02*
X5098706Y-13160388D01*
X5098706Y-13160388D02*
X5089182Y-13122293D01*
X5089182Y-13122293D02*
X5089182Y-13074674D01*
X5089182Y-13074674D02*
X5098706Y-13036579D01*
X5098706Y-13036579D02*
X5108229Y-13017531D01*
X5108229Y-13017531D02*
X5117753Y-13008008D01*
X5117753Y-13008008D02*
X5136801Y-12998484D01*
X5327277Y-12998484D02*
X5346325Y-12998484D01*
X5346325Y-12998484D02*
X5365372Y-13008008D01*
X5365372Y-13008008D02*
X5374896Y-13017531D01*
X5374896Y-13017531D02*
X5384420Y-13036579D01*
X5384420Y-13036579D02*
X5393944Y-13074674D01*
X5393944Y-13074674D02*
X5393944Y-13122293D01*
X5393944Y-13122293D02*
X5384420Y-13160388D01*
X5384420Y-13160388D02*
X5374896Y-13179436D01*
X5374896Y-13179436D02*
X5365372Y-13188960D01*
X5365372Y-13188960D02*
X5346325Y-13198484D01*
X5346325Y-13198484D02*
X5327277Y-13198484D01*
X5327277Y-13198484D02*
X5308229Y-13188960D01*
X5308229Y-13188960D02*
X5298706Y-13179436D01*
X5298706Y-13179436D02*
X5289182Y-13160388D01*
X5289182Y-13160388D02*
X5279658Y-13122293D01*
X5279658Y-13122293D02*
X5279658Y-13074674D01*
X5279658Y-13074674D02*
X5289182Y-13036579D01*
X5289182Y-13036579D02*
X5298706Y-13017531D01*
X5298706Y-13017531D02*
X5308229Y-13008008D01*
X5308229Y-13008008D02*
X5327277Y-12998484D01*
X5470134Y-12998484D02*
X5470134Y-13036579D01*
X5546325Y-12998484D02*
X5546325Y-13036579D01*
X5841563Y-13274674D02*
X5832039Y-13265150D01*
X5832039Y-13265150D02*
X5812991Y-13236579D01*
X5812991Y-13236579D02*
X5803468Y-13217531D01*
X5803468Y-13217531D02*
X5793944Y-13188960D01*
X5793944Y-13188960D02*
X5784420Y-13141341D01*
X5784420Y-13141341D02*
X5784420Y-13103246D01*
X5784420Y-13103246D02*
X5793944Y-13055627D01*
X5793944Y-13055627D02*
X5803468Y-13027055D01*
X5803468Y-13027055D02*
X5812991Y-13008008D01*
X5812991Y-13008008D02*
X5832039Y-12979436D01*
X5832039Y-12979436D02*
X5841563Y-12969912D01*
X6003468Y-12998484D02*
X5965372Y-12998484D01*
X5965372Y-12998484D02*
X5946325Y-13008008D01*
X5946325Y-13008008D02*
X5936801Y-13017531D01*
X5936801Y-13017531D02*
X5917753Y-13046103D01*
X5917753Y-13046103D02*
X5908229Y-13084198D01*
X5908229Y-13084198D02*
X5908229Y-13160388D01*
X5908229Y-13160388D02*
X5917753Y-13179436D01*
X5917753Y-13179436D02*
X5927277Y-13188960D01*
X5927277Y-13188960D02*
X5946325Y-13198484D01*
X5946325Y-13198484D02*
X5984420Y-13198484D01*
X5984420Y-13198484D02*
X6003468Y-13188960D01*
X6003468Y-13188960D02*
X6012991Y-13179436D01*
X6012991Y-13179436D02*
X6022515Y-13160388D01*
X6022515Y-13160388D02*
X6022515Y-13112769D01*
X6022515Y-13112769D02*
X6012991Y-13093722D01*
X6012991Y-13093722D02*
X6003468Y-13084198D01*
X6003468Y-13084198D02*
X5984420Y-13074674D01*
X5984420Y-13074674D02*
X5946325Y-13074674D01*
X5946325Y-13074674D02*
X5927277Y-13084198D01*
X5927277Y-13084198D02*
X5917753Y-13093722D01*
X5917753Y-13093722D02*
X5908229Y-13112769D01*
X6260610Y-13198484D02*
X6260610Y-12998484D01*
X6346325Y-13198484D02*
X6346325Y-13093722D01*
X6346325Y-13093722D02*
X6336801Y-13074674D01*
X6336801Y-13074674D02*
X6317753Y-13065150D01*
X6317753Y-13065150D02*
X6289182Y-13065150D01*
X6289182Y-13065150D02*
X6270134Y-13074674D01*
X6270134Y-13074674D02*
X6260610Y-13084198D01*
X6470134Y-13198484D02*
X6451087Y-13188960D01*
X6451087Y-13188960D02*
X6441563Y-13179436D01*
X6441563Y-13179436D02*
X6432039Y-13160388D01*
X6432039Y-13160388D02*
X6432039Y-13103246D01*
X6432039Y-13103246D02*
X6441563Y-13084198D01*
X6441563Y-13084198D02*
X6451087Y-13074674D01*
X6451087Y-13074674D02*
X6470134Y-13065150D01*
X6470134Y-13065150D02*
X6498706Y-13065150D01*
X6498706Y-13065150D02*
X6517753Y-13074674D01*
X6517753Y-13074674D02*
X6527277Y-13084198D01*
X6527277Y-13084198D02*
X6536801Y-13103246D01*
X6536801Y-13103246D02*
X6536801Y-13160388D01*
X6536801Y-13160388D02*
X6527277Y-13179436D01*
X6527277Y-13179436D02*
X6517753Y-13188960D01*
X6517753Y-13188960D02*
X6498706Y-13198484D01*
X6498706Y-13198484D02*
X6470134Y-13198484D01*
X6651087Y-13198484D02*
X6632039Y-13188960D01*
X6632039Y-13188960D02*
X6622515Y-13169912D01*
X6622515Y-13169912D02*
X6622515Y-12998484D01*
X6803468Y-13188960D02*
X6784420Y-13198484D01*
X6784420Y-13198484D02*
X6746325Y-13198484D01*
X6746325Y-13198484D02*
X6727277Y-13188960D01*
X6727277Y-13188960D02*
X6717753Y-13169912D01*
X6717753Y-13169912D02*
X6717753Y-13093722D01*
X6717753Y-13093722D02*
X6727277Y-13074674D01*
X6727277Y-13074674D02*
X6746325Y-13065150D01*
X6746325Y-13065150D02*
X6784420Y-13065150D01*
X6784420Y-13065150D02*
X6803468Y-13074674D01*
X6803468Y-13074674D02*
X6812991Y-13093722D01*
X6812991Y-13093722D02*
X6812991Y-13112769D01*
X6812991Y-13112769D02*
X6717753Y-13131817D01*
X6889182Y-13188960D02*
X6908230Y-13198484D01*
X6908230Y-13198484D02*
X6946325Y-13198484D01*
X6946325Y-13198484D02*
X6965372Y-13188960D01*
X6965372Y-13188960D02*
X6974896Y-13169912D01*
X6974896Y-13169912D02*
X6974896Y-13160388D01*
X6974896Y-13160388D02*
X6965372Y-13141341D01*
X6965372Y-13141341D02*
X6946325Y-13131817D01*
X6946325Y-13131817D02*
X6917753Y-13131817D01*
X6917753Y-13131817D02*
X6898706Y-13122293D01*
X6898706Y-13122293D02*
X6889182Y-13103246D01*
X6889182Y-13103246D02*
X6889182Y-13093722D01*
X6889182Y-13093722D02*
X6898706Y-13074674D01*
X6898706Y-13074674D02*
X6917753Y-13065150D01*
X6917753Y-13065150D02*
X6946325Y-13065150D01*
X6946325Y-13065150D02*
X6965372Y-13074674D01*
X7041563Y-13274674D02*
X7051087Y-13265150D01*
X7051087Y-13265150D02*
X7070134Y-13236579D01*
X7070134Y-13236579D02*
X7079658Y-13217531D01*
X7079658Y-13217531D02*
X7089182Y-13188960D01*
X7089182Y-13188960D02*
X7098706Y-13141341D01*
X7098706Y-13141341D02*
X7098706Y-13103246D01*
X7098706Y-13103246D02*
X7089182Y-13055627D01*
X7089182Y-13055627D02*
X7079658Y-13027055D01*
X7079658Y-13027055D02*
X7070134Y-13008008D01*
X7070134Y-13008008D02*
X7051087Y-12979436D01*
X7051087Y-12979436D02*
X7041563Y-12969912D01*
X7403468Y-13274674D02*
X7393944Y-13265150D01*
X7393944Y-13265150D02*
X7374896Y-13236579D01*
X7374896Y-13236579D02*
X7365372Y-13217531D01*
X7365372Y-13217531D02*
X7355849Y-13188960D01*
X7355849Y-13188960D02*
X7346325Y-13141341D01*
X7346325Y-13141341D02*
X7346325Y-13103246D01*
X7346325Y-13103246D02*
X7355849Y-13055627D01*
X7355849Y-13055627D02*
X7365372Y-13027055D01*
X7365372Y-13027055D02*
X7374896Y-13008008D01*
X7374896Y-13008008D02*
X7393944Y-12979436D01*
X7393944Y-12979436D02*
X7403468Y-12969912D01*
X7479658Y-13065150D02*
X7479658Y-13198484D01*
X7479658Y-13084198D02*
X7489182Y-13074674D01*
X7489182Y-13074674D02*
X7508230Y-13065150D01*
X7508230Y-13065150D02*
X7536801Y-13065150D01*
X7536801Y-13065150D02*
X7555849Y-13074674D01*
X7555849Y-13074674D02*
X7565372Y-13093722D01*
X7565372Y-13093722D02*
X7565372Y-13198484D01*
X7689182Y-13198484D02*
X7670134Y-13188960D01*
X7670134Y-13188960D02*
X7660611Y-13179436D01*
X7660611Y-13179436D02*
X7651087Y-13160388D01*
X7651087Y-13160388D02*
X7651087Y-13103246D01*
X7651087Y-13103246D02*
X7660611Y-13084198D01*
X7660611Y-13084198D02*
X7670134Y-13074674D01*
X7670134Y-13074674D02*
X7689182Y-13065150D01*
X7689182Y-13065150D02*
X7717753Y-13065150D01*
X7717753Y-13065150D02*
X7736801Y-13074674D01*
X7736801Y-13074674D02*
X7746325Y-13084198D01*
X7746325Y-13084198D02*
X7755849Y-13103246D01*
X7755849Y-13103246D02*
X7755849Y-13160388D01*
X7755849Y-13160388D02*
X7746325Y-13179436D01*
X7746325Y-13179436D02*
X7736801Y-13188960D01*
X7736801Y-13188960D02*
X7717753Y-13198484D01*
X7717753Y-13198484D02*
X7689182Y-13198484D01*
X7812992Y-13065150D02*
X7889182Y-13065150D01*
X7841563Y-12998484D02*
X7841563Y-13169912D01*
X7841563Y-13169912D02*
X7851087Y-13188960D01*
X7851087Y-13188960D02*
X7870134Y-13198484D01*
X7870134Y-13198484D02*
X7889182Y-13198484D01*
X8108230Y-13065150D02*
X8108230Y-13265150D01*
X8108230Y-13074674D02*
X8127277Y-13065150D01*
X8127277Y-13065150D02*
X8165373Y-13065150D01*
X8165373Y-13065150D02*
X8184420Y-13074674D01*
X8184420Y-13074674D02*
X8193944Y-13084198D01*
X8193944Y-13084198D02*
X8203468Y-13103246D01*
X8203468Y-13103246D02*
X8203468Y-13160388D01*
X8203468Y-13160388D02*
X8193944Y-13179436D01*
X8193944Y-13179436D02*
X8184420Y-13188960D01*
X8184420Y-13188960D02*
X8165373Y-13198484D01*
X8165373Y-13198484D02*
X8127277Y-13198484D01*
X8127277Y-13198484D02*
X8108230Y-13188960D01*
X8317753Y-13198484D02*
X8298706Y-13188960D01*
X8298706Y-13188960D02*
X8289182Y-13169912D01*
X8289182Y-13169912D02*
X8289182Y-12998484D01*
X8479658Y-13198484D02*
X8479658Y-13093722D01*
X8479658Y-13093722D02*
X8470135Y-13074674D01*
X8470135Y-13074674D02*
X8451087Y-13065150D01*
X8451087Y-13065150D02*
X8412992Y-13065150D01*
X8412992Y-13065150D02*
X8393944Y-13074674D01*
X8479658Y-13188960D02*
X8460611Y-13198484D01*
X8460611Y-13198484D02*
X8412992Y-13198484D01*
X8412992Y-13198484D02*
X8393944Y-13188960D01*
X8393944Y-13188960D02*
X8384420Y-13169912D01*
X8384420Y-13169912D02*
X8384420Y-13150865D01*
X8384420Y-13150865D02*
X8393944Y-13131817D01*
X8393944Y-13131817D02*
X8412992Y-13122293D01*
X8412992Y-13122293D02*
X8460611Y-13122293D01*
X8460611Y-13122293D02*
X8479658Y-13112769D01*
X8546325Y-13065150D02*
X8622515Y-13065150D01*
X8574896Y-12998484D02*
X8574896Y-13169912D01*
X8574896Y-13169912D02*
X8584420Y-13188960D01*
X8584420Y-13188960D02*
X8603468Y-13198484D01*
X8603468Y-13198484D02*
X8622515Y-13198484D01*
X8765373Y-13188960D02*
X8746325Y-13198484D01*
X8746325Y-13198484D02*
X8708230Y-13198484D01*
X8708230Y-13198484D02*
X8689182Y-13188960D01*
X8689182Y-13188960D02*
X8679658Y-13169912D01*
X8679658Y-13169912D02*
X8679658Y-13093722D01*
X8679658Y-13093722D02*
X8689182Y-13074674D01*
X8689182Y-13074674D02*
X8708230Y-13065150D01*
X8708230Y-13065150D02*
X8746325Y-13065150D01*
X8746325Y-13065150D02*
X8765373Y-13074674D01*
X8765373Y-13074674D02*
X8774896Y-13093722D01*
X8774896Y-13093722D02*
X8774896Y-13112769D01*
X8774896Y-13112769D02*
X8679658Y-13131817D01*
X8946325Y-13198484D02*
X8946325Y-12998484D01*
X8946325Y-13188960D02*
X8927277Y-13198484D01*
X8927277Y-13198484D02*
X8889182Y-13198484D01*
X8889182Y-13198484D02*
X8870135Y-13188960D01*
X8870135Y-13188960D02*
X8860611Y-13179436D01*
X8860611Y-13179436D02*
X8851087Y-13160388D01*
X8851087Y-13160388D02*
X8851087Y-13103246D01*
X8851087Y-13103246D02*
X8860611Y-13084198D01*
X8860611Y-13084198D02*
X8870135Y-13074674D01*
X8870135Y-13074674D02*
X8889182Y-13065150D01*
X8889182Y-13065150D02*
X8927277Y-13065150D01*
X8927277Y-13065150D02*
X8946325Y-13074674D01*
X9022516Y-13274674D02*
X9032039Y-13265150D01*
X9032039Y-13265150D02*
X9051087Y-13236579D01*
X9051087Y-13236579D02*
X9060611Y-13217531D01*
X9060611Y-13217531D02*
X9070135Y-13188960D01*
X9070135Y-13188960D02*
X9079658Y-13141341D01*
X9079658Y-13141341D02*
X9079658Y-13103246D01*
X9079658Y-13103246D02*
X9070135Y-13055627D01*
X9070135Y-13055627D02*
X9060611Y-13027055D01*
X9060611Y-13027055D02*
X9051087Y-13008008D01*
X9051087Y-13008008D02*
X9032039Y-12979436D01*
X9032039Y-12979436D02*
X9022516Y-12969912D01*
X2266500Y-13371000D02*
G75*
G03*
X2266500Y-13371000I-100000J0D01*
G01*
X2517753Y-13281531D02*
X2527277Y-13272008D01*
X2527277Y-13272008D02*
X2546324Y-13262484D01*
X2546324Y-13262484D02*
X2593944Y-13262484D01*
X2593944Y-13262484D02*
X2612991Y-13272008D01*
X2612991Y-13272008D02*
X2622515Y-13281531D01*
X2622515Y-13281531D02*
X2632039Y-13300579D01*
X2632039Y-13300579D02*
X2632039Y-13319627D01*
X2632039Y-13319627D02*
X2622515Y-13348198D01*
X2622515Y-13348198D02*
X2508229Y-13462484D01*
X2508229Y-13462484D02*
X2632039Y-13462484D01*
X2717753Y-13443436D02*
X2727277Y-13452960D01*
X2727277Y-13452960D02*
X2717753Y-13462484D01*
X2717753Y-13462484D02*
X2708229Y-13452960D01*
X2708229Y-13452960D02*
X2717753Y-13443436D01*
X2717753Y-13443436D02*
X2717753Y-13462484D01*
X2793944Y-13262484D02*
X2917753Y-13262484D01*
X2917753Y-13262484D02*
X2851086Y-13338674D01*
X2851086Y-13338674D02*
X2879658Y-13338674D01*
X2879658Y-13338674D02*
X2898705Y-13348198D01*
X2898705Y-13348198D02*
X2908229Y-13357722D01*
X2908229Y-13357722D02*
X2917753Y-13376769D01*
X2917753Y-13376769D02*
X2917753Y-13424388D01*
X2917753Y-13424388D02*
X2908229Y-13443436D01*
X2908229Y-13443436D02*
X2898705Y-13452960D01*
X2898705Y-13452960D02*
X2879658Y-13462484D01*
X2879658Y-13462484D02*
X2822515Y-13462484D01*
X2822515Y-13462484D02*
X2803467Y-13452960D01*
X2803467Y-13452960D02*
X2793944Y-13443436D01*
X3032039Y-13348198D02*
X3012991Y-13338674D01*
X3012991Y-13338674D02*
X3003467Y-13329150D01*
X3003467Y-13329150D02*
X2993943Y-13310103D01*
X2993943Y-13310103D02*
X2993943Y-13300579D01*
X2993943Y-13300579D02*
X3003467Y-13281531D01*
X3003467Y-13281531D02*
X3012991Y-13272008D01*
X3012991Y-13272008D02*
X3032039Y-13262484D01*
X3032039Y-13262484D02*
X3070134Y-13262484D01*
X3070134Y-13262484D02*
X3089182Y-13272008D01*
X3089182Y-13272008D02*
X3098705Y-13281531D01*
X3098705Y-13281531D02*
X3108229Y-13300579D01*
X3108229Y-13300579D02*
X3108229Y-13310103D01*
X3108229Y-13310103D02*
X3098705Y-13329150D01*
X3098705Y-13329150D02*
X3089182Y-13338674D01*
X3089182Y-13338674D02*
X3070134Y-13348198D01*
X3070134Y-13348198D02*
X3032039Y-13348198D01*
X3032039Y-13348198D02*
X3012991Y-13357722D01*
X3012991Y-13357722D02*
X3003467Y-13367246D01*
X3003467Y-13367246D02*
X2993943Y-13386293D01*
X2993943Y-13386293D02*
X2993943Y-13424388D01*
X2993943Y-13424388D02*
X3003467Y-13443436D01*
X3003467Y-13443436D02*
X3012991Y-13452960D01*
X3012991Y-13452960D02*
X3032039Y-13462484D01*
X3032039Y-13462484D02*
X3070134Y-13462484D01*
X3070134Y-13462484D02*
X3089182Y-13452960D01*
X3089182Y-13452960D02*
X3098705Y-13443436D01*
X3098705Y-13443436D02*
X3108229Y-13424388D01*
X3108229Y-13424388D02*
X3108229Y-13386293D01*
X3108229Y-13386293D02*
X3098705Y-13367246D01*
X3098705Y-13367246D02*
X3089182Y-13357722D01*
X3089182Y-13357722D02*
X3070134Y-13348198D01*
X3222515Y-13348198D02*
X3203467Y-13338674D01*
X3203467Y-13338674D02*
X3193943Y-13329150D01*
X3193943Y-13329150D02*
X3184420Y-13310103D01*
X3184420Y-13310103D02*
X3184420Y-13300579D01*
X3184420Y-13300579D02*
X3193943Y-13281531D01*
X3193943Y-13281531D02*
X3203467Y-13272008D01*
X3203467Y-13272008D02*
X3222515Y-13262484D01*
X3222515Y-13262484D02*
X3260610Y-13262484D01*
X3260610Y-13262484D02*
X3279658Y-13272008D01*
X3279658Y-13272008D02*
X3289182Y-13281531D01*
X3289182Y-13281531D02*
X3298705Y-13300579D01*
X3298705Y-13300579D02*
X3298705Y-13310103D01*
X3298705Y-13310103D02*
X3289182Y-13329150D01*
X3289182Y-13329150D02*
X3279658Y-13338674D01*
X3279658Y-13338674D02*
X3260610Y-13348198D01*
X3260610Y-13348198D02*
X3222515Y-13348198D01*
X3222515Y-13348198D02*
X3203467Y-13357722D01*
X3203467Y-13357722D02*
X3193943Y-13367246D01*
X3193943Y-13367246D02*
X3184420Y-13386293D01*
X3184420Y-13386293D02*
X3184420Y-13424388D01*
X3184420Y-13424388D02*
X3193943Y-13443436D01*
X3193943Y-13443436D02*
X3203467Y-13452960D01*
X3203467Y-13452960D02*
X3222515Y-13462484D01*
X3222515Y-13462484D02*
X3260610Y-13462484D01*
X3260610Y-13462484D02*
X3279658Y-13452960D01*
X3279658Y-13452960D02*
X3289182Y-13443436D01*
X3289182Y-13443436D02*
X3298705Y-13424388D01*
X3298705Y-13424388D02*
X3298705Y-13386293D01*
X3298705Y-13386293D02*
X3289182Y-13367246D01*
X3289182Y-13367246D02*
X3279658Y-13357722D01*
X3279658Y-13357722D02*
X3260610Y-13348198D01*
X3384420Y-13462484D02*
X3384420Y-13329150D01*
X3384420Y-13348198D02*
X3393943Y-13338674D01*
X3393943Y-13338674D02*
X3412991Y-13329150D01*
X3412991Y-13329150D02*
X3441563Y-13329150D01*
X3441563Y-13329150D02*
X3460610Y-13338674D01*
X3460610Y-13338674D02*
X3470134Y-13357722D01*
X3470134Y-13357722D02*
X3470134Y-13462484D01*
X3470134Y-13357722D02*
X3479658Y-13338674D01*
X3479658Y-13338674D02*
X3498705Y-13329150D01*
X3498705Y-13329150D02*
X3527277Y-13329150D01*
X3527277Y-13329150D02*
X3546324Y-13338674D01*
X3546324Y-13338674D02*
X3555848Y-13357722D01*
X3555848Y-13357722D02*
X3555848Y-13462484D01*
X3651086Y-13462484D02*
X3651086Y-13329150D01*
X3651086Y-13348198D02*
X3660610Y-13338674D01*
X3660610Y-13338674D02*
X3679658Y-13329150D01*
X3679658Y-13329150D02*
X3708229Y-13329150D01*
X3708229Y-13329150D02*
X3727277Y-13338674D01*
X3727277Y-13338674D02*
X3736801Y-13357722D01*
X3736801Y-13357722D02*
X3736801Y-13462484D01*
X3736801Y-13357722D02*
X3746324Y-13338674D01*
X3746324Y-13338674D02*
X3765372Y-13329150D01*
X3765372Y-13329150D02*
X3793943Y-13329150D01*
X3793943Y-13329150D02*
X3812991Y-13338674D01*
X3812991Y-13338674D02*
X3822515Y-13357722D01*
X3822515Y-13357722D02*
X3822515Y-13462484D01*
X4212991Y-13252960D02*
X4041563Y-13510103D01*
X4470134Y-13262484D02*
X4489182Y-13262484D01*
X4489182Y-13262484D02*
X4508229Y-13272008D01*
X4508229Y-13272008D02*
X4517753Y-13281531D01*
X4517753Y-13281531D02*
X4527277Y-13300579D01*
X4527277Y-13300579D02*
X4536801Y-13338674D01*
X4536801Y-13338674D02*
X4536801Y-13386293D01*
X4536801Y-13386293D02*
X4527277Y-13424388D01*
X4527277Y-13424388D02*
X4517753Y-13443436D01*
X4517753Y-13443436D02*
X4508229Y-13452960D01*
X4508229Y-13452960D02*
X4489182Y-13462484D01*
X4489182Y-13462484D02*
X4470134Y-13462484D01*
X4470134Y-13462484D02*
X4451087Y-13452960D01*
X4451087Y-13452960D02*
X4441563Y-13443436D01*
X4441563Y-13443436D02*
X4432039Y-13424388D01*
X4432039Y-13424388D02*
X4422515Y-13386293D01*
X4422515Y-13386293D02*
X4422515Y-13338674D01*
X4422515Y-13338674D02*
X4432039Y-13300579D01*
X4432039Y-13300579D02*
X4441563Y-13281531D01*
X4441563Y-13281531D02*
X4451087Y-13272008D01*
X4451087Y-13272008D02*
X4470134Y-13262484D01*
X4622515Y-13443436D02*
X4632039Y-13452960D01*
X4632039Y-13452960D02*
X4622515Y-13462484D01*
X4622515Y-13462484D02*
X4612991Y-13452960D01*
X4612991Y-13452960D02*
X4622515Y-13443436D01*
X4622515Y-13443436D02*
X4622515Y-13462484D01*
X4755848Y-13262484D02*
X4774896Y-13262484D01*
X4774896Y-13262484D02*
X4793944Y-13272008D01*
X4793944Y-13272008D02*
X4803468Y-13281531D01*
X4803468Y-13281531D02*
X4812991Y-13300579D01*
X4812991Y-13300579D02*
X4822515Y-13338674D01*
X4822515Y-13338674D02*
X4822515Y-13386293D01*
X4822515Y-13386293D02*
X4812991Y-13424388D01*
X4812991Y-13424388D02*
X4803468Y-13443436D01*
X4803468Y-13443436D02*
X4793944Y-13452960D01*
X4793944Y-13452960D02*
X4774896Y-13462484D01*
X4774896Y-13462484D02*
X4755848Y-13462484D01*
X4755848Y-13462484D02*
X4736801Y-13452960D01*
X4736801Y-13452960D02*
X4727277Y-13443436D01*
X4727277Y-13443436D02*
X4717753Y-13424388D01*
X4717753Y-13424388D02*
X4708229Y-13386293D01*
X4708229Y-13386293D02*
X4708229Y-13338674D01*
X4708229Y-13338674D02*
X4717753Y-13300579D01*
X4717753Y-13300579D02*
X4727277Y-13281531D01*
X4727277Y-13281531D02*
X4736801Y-13272008D01*
X4736801Y-13272008D02*
X4755848Y-13262484D01*
X4917753Y-13462484D02*
X4955848Y-13462484D01*
X4955848Y-13462484D02*
X4974896Y-13452960D01*
X4974896Y-13452960D02*
X4984420Y-13443436D01*
X4984420Y-13443436D02*
X5003468Y-13414865D01*
X5003468Y-13414865D02*
X5012991Y-13376769D01*
X5012991Y-13376769D02*
X5012991Y-13300579D01*
X5012991Y-13300579D02*
X5003468Y-13281531D01*
X5003468Y-13281531D02*
X4993944Y-13272008D01*
X4993944Y-13272008D02*
X4974896Y-13262484D01*
X4974896Y-13262484D02*
X4936801Y-13262484D01*
X4936801Y-13262484D02*
X4917753Y-13272008D01*
X4917753Y-13272008D02*
X4908229Y-13281531D01*
X4908229Y-13281531D02*
X4898706Y-13300579D01*
X4898706Y-13300579D02*
X4898706Y-13348198D01*
X4898706Y-13348198D02*
X4908229Y-13367246D01*
X4908229Y-13367246D02*
X4917753Y-13376769D01*
X4917753Y-13376769D02*
X4936801Y-13386293D01*
X4936801Y-13386293D02*
X4974896Y-13386293D01*
X4974896Y-13386293D02*
X4993944Y-13376769D01*
X4993944Y-13376769D02*
X5003468Y-13367246D01*
X5003468Y-13367246D02*
X5012991Y-13348198D01*
X5184420Y-13329150D02*
X5184420Y-13462484D01*
X5136801Y-13252960D02*
X5089182Y-13395817D01*
X5089182Y-13395817D02*
X5212991Y-13395817D01*
X5327277Y-13262484D02*
X5346325Y-13262484D01*
X5346325Y-13262484D02*
X5365372Y-13272008D01*
X5365372Y-13272008D02*
X5374896Y-13281531D01*
X5374896Y-13281531D02*
X5384420Y-13300579D01*
X5384420Y-13300579D02*
X5393944Y-13338674D01*
X5393944Y-13338674D02*
X5393944Y-13386293D01*
X5393944Y-13386293D02*
X5384420Y-13424388D01*
X5384420Y-13424388D02*
X5374896Y-13443436D01*
X5374896Y-13443436D02*
X5365372Y-13452960D01*
X5365372Y-13452960D02*
X5346325Y-13462484D01*
X5346325Y-13462484D02*
X5327277Y-13462484D01*
X5327277Y-13462484D02*
X5308229Y-13452960D01*
X5308229Y-13452960D02*
X5298706Y-13443436D01*
X5298706Y-13443436D02*
X5289182Y-13424388D01*
X5289182Y-13424388D02*
X5279658Y-13386293D01*
X5279658Y-13386293D02*
X5279658Y-13338674D01*
X5279658Y-13338674D02*
X5289182Y-13300579D01*
X5289182Y-13300579D02*
X5298706Y-13281531D01*
X5298706Y-13281531D02*
X5308229Y-13272008D01*
X5308229Y-13272008D02*
X5327277Y-13262484D01*
X5470134Y-13262484D02*
X5470134Y-13300579D01*
X5546325Y-13262484D02*
X5546325Y-13300579D01*
X5841563Y-13538674D02*
X5832039Y-13529150D01*
X5832039Y-13529150D02*
X5812991Y-13500579D01*
X5812991Y-13500579D02*
X5803468Y-13481531D01*
X5803468Y-13481531D02*
X5793944Y-13452960D01*
X5793944Y-13452960D02*
X5784420Y-13405341D01*
X5784420Y-13405341D02*
X5784420Y-13367246D01*
X5784420Y-13367246D02*
X5793944Y-13319627D01*
X5793944Y-13319627D02*
X5803468Y-13291055D01*
X5803468Y-13291055D02*
X5812991Y-13272008D01*
X5812991Y-13272008D02*
X5832039Y-13243436D01*
X5832039Y-13243436D02*
X5841563Y-13233912D01*
X6022515Y-13462484D02*
X5908229Y-13462484D01*
X5965372Y-13462484D02*
X5965372Y-13262484D01*
X5965372Y-13262484D02*
X5946325Y-13291055D01*
X5946325Y-13291055D02*
X5927277Y-13310103D01*
X5927277Y-13310103D02*
X5908229Y-13319627D01*
X6260610Y-13462484D02*
X6260610Y-13262484D01*
X6346325Y-13462484D02*
X6346325Y-13357722D01*
X6346325Y-13357722D02*
X6336801Y-13338674D01*
X6336801Y-13338674D02*
X6317753Y-13329150D01*
X6317753Y-13329150D02*
X6289182Y-13329150D01*
X6289182Y-13329150D02*
X6270134Y-13338674D01*
X6270134Y-13338674D02*
X6260610Y-13348198D01*
X6470134Y-13462484D02*
X6451087Y-13452960D01*
X6451087Y-13452960D02*
X6441563Y-13443436D01*
X6441563Y-13443436D02*
X6432039Y-13424388D01*
X6432039Y-13424388D02*
X6432039Y-13367246D01*
X6432039Y-13367246D02*
X6441563Y-13348198D01*
X6441563Y-13348198D02*
X6451087Y-13338674D01*
X6451087Y-13338674D02*
X6470134Y-13329150D01*
X6470134Y-13329150D02*
X6498706Y-13329150D01*
X6498706Y-13329150D02*
X6517753Y-13338674D01*
X6517753Y-13338674D02*
X6527277Y-13348198D01*
X6527277Y-13348198D02*
X6536801Y-13367246D01*
X6536801Y-13367246D02*
X6536801Y-13424388D01*
X6536801Y-13424388D02*
X6527277Y-13443436D01*
X6527277Y-13443436D02*
X6517753Y-13452960D01*
X6517753Y-13452960D02*
X6498706Y-13462484D01*
X6498706Y-13462484D02*
X6470134Y-13462484D01*
X6651087Y-13462484D02*
X6632039Y-13452960D01*
X6632039Y-13452960D02*
X6622515Y-13433912D01*
X6622515Y-13433912D02*
X6622515Y-13262484D01*
X6803468Y-13452960D02*
X6784420Y-13462484D01*
X6784420Y-13462484D02*
X6746325Y-13462484D01*
X6746325Y-13462484D02*
X6727277Y-13452960D01*
X6727277Y-13452960D02*
X6717753Y-13433912D01*
X6717753Y-13433912D02*
X6717753Y-13357722D01*
X6717753Y-13357722D02*
X6727277Y-13338674D01*
X6727277Y-13338674D02*
X6746325Y-13329150D01*
X6746325Y-13329150D02*
X6784420Y-13329150D01*
X6784420Y-13329150D02*
X6803468Y-13338674D01*
X6803468Y-13338674D02*
X6812991Y-13357722D01*
X6812991Y-13357722D02*
X6812991Y-13376769D01*
X6812991Y-13376769D02*
X6717753Y-13395817D01*
X6879658Y-13538674D02*
X6889182Y-13529150D01*
X6889182Y-13529150D02*
X6908230Y-13500579D01*
X6908230Y-13500579D02*
X6917753Y-13481531D01*
X6917753Y-13481531D02*
X6927277Y-13452960D01*
X6927277Y-13452960D02*
X6936801Y-13405341D01*
X6936801Y-13405341D02*
X6936801Y-13367246D01*
X6936801Y-13367246D02*
X6927277Y-13319627D01*
X6927277Y-13319627D02*
X6917753Y-13291055D01*
X6917753Y-13291055D02*
X6908230Y-13272008D01*
X6908230Y-13272008D02*
X6889182Y-13243436D01*
X6889182Y-13243436D02*
X6879658Y-13233912D01*
X7241563Y-13538674D02*
X7232039Y-13529150D01*
X7232039Y-13529150D02*
X7212991Y-13500579D01*
X7212991Y-13500579D02*
X7203468Y-13481531D01*
X7203468Y-13481531D02*
X7193944Y-13452960D01*
X7193944Y-13452960D02*
X7184420Y-13405341D01*
X7184420Y-13405341D02*
X7184420Y-13367246D01*
X7184420Y-13367246D02*
X7193944Y-13319627D01*
X7193944Y-13319627D02*
X7203468Y-13291055D01*
X7203468Y-13291055D02*
X7212991Y-13272008D01*
X7212991Y-13272008D02*
X7232039Y-13243436D01*
X7232039Y-13243436D02*
X7241563Y-13233912D01*
X7317753Y-13329150D02*
X7317753Y-13462484D01*
X7317753Y-13348198D02*
X7327277Y-13338674D01*
X7327277Y-13338674D02*
X7346325Y-13329150D01*
X7346325Y-13329150D02*
X7374896Y-13329150D01*
X7374896Y-13329150D02*
X7393944Y-13338674D01*
X7393944Y-13338674D02*
X7403468Y-13357722D01*
X7403468Y-13357722D02*
X7403468Y-13462484D01*
X7527277Y-13462484D02*
X7508230Y-13452960D01*
X7508230Y-13452960D02*
X7498706Y-13443436D01*
X7498706Y-13443436D02*
X7489182Y-13424388D01*
X7489182Y-13424388D02*
X7489182Y-13367246D01*
X7489182Y-13367246D02*
X7498706Y-13348198D01*
X7498706Y-13348198D02*
X7508230Y-13338674D01*
X7508230Y-13338674D02*
X7527277Y-13329150D01*
X7527277Y-13329150D02*
X7555849Y-13329150D01*
X7555849Y-13329150D02*
X7574896Y-13338674D01*
X7574896Y-13338674D02*
X7584420Y-13348198D01*
X7584420Y-13348198D02*
X7593944Y-13367246D01*
X7593944Y-13367246D02*
X7593944Y-13424388D01*
X7593944Y-13424388D02*
X7584420Y-13443436D01*
X7584420Y-13443436D02*
X7574896Y-13452960D01*
X7574896Y-13452960D02*
X7555849Y-13462484D01*
X7555849Y-13462484D02*
X7527277Y-13462484D01*
X7651087Y-13329150D02*
X7727277Y-13329150D01*
X7679658Y-13262484D02*
X7679658Y-13433912D01*
X7679658Y-13433912D02*
X7689182Y-13452960D01*
X7689182Y-13452960D02*
X7708230Y-13462484D01*
X7708230Y-13462484D02*
X7727277Y-13462484D01*
X7946325Y-13329150D02*
X7946325Y-13529150D01*
X7946325Y-13338674D02*
X7965372Y-13329150D01*
X7965372Y-13329150D02*
X8003468Y-13329150D01*
X8003468Y-13329150D02*
X8022515Y-13338674D01*
X8022515Y-13338674D02*
X8032039Y-13348198D01*
X8032039Y-13348198D02*
X8041563Y-13367246D01*
X8041563Y-13367246D02*
X8041563Y-13424388D01*
X8041563Y-13424388D02*
X8032039Y-13443436D01*
X8032039Y-13443436D02*
X8022515Y-13452960D01*
X8022515Y-13452960D02*
X8003468Y-13462484D01*
X8003468Y-13462484D02*
X7965372Y-13462484D01*
X7965372Y-13462484D02*
X7946325Y-13452960D01*
X8155849Y-13462484D02*
X8136801Y-13452960D01*
X8136801Y-13452960D02*
X8127277Y-13433912D01*
X8127277Y-13433912D02*
X8127277Y-13262484D01*
X8317753Y-13462484D02*
X8317753Y-13357722D01*
X8317753Y-13357722D02*
X8308230Y-13338674D01*
X8308230Y-13338674D02*
X8289182Y-13329150D01*
X8289182Y-13329150D02*
X8251087Y-13329150D01*
X8251087Y-13329150D02*
X8232039Y-13338674D01*
X8317753Y-13452960D02*
X8298706Y-13462484D01*
X8298706Y-13462484D02*
X8251087Y-13462484D01*
X8251087Y-13462484D02*
X8232039Y-13452960D01*
X8232039Y-13452960D02*
X8222515Y-13433912D01*
X8222515Y-13433912D02*
X8222515Y-13414865D01*
X8222515Y-13414865D02*
X8232039Y-13395817D01*
X8232039Y-13395817D02*
X8251087Y-13386293D01*
X8251087Y-13386293D02*
X8298706Y-13386293D01*
X8298706Y-13386293D02*
X8317753Y-13376769D01*
X8384420Y-13329150D02*
X8460611Y-13329150D01*
X8412992Y-13262484D02*
X8412992Y-13433912D01*
X8412992Y-13433912D02*
X8422515Y-13452960D01*
X8422515Y-13452960D02*
X8441563Y-13462484D01*
X8441563Y-13462484D02*
X8460611Y-13462484D01*
X8603468Y-13452960D02*
X8584420Y-13462484D01*
X8584420Y-13462484D02*
X8546325Y-13462484D01*
X8546325Y-13462484D02*
X8527277Y-13452960D01*
X8527277Y-13452960D02*
X8517754Y-13433912D01*
X8517754Y-13433912D02*
X8517754Y-13357722D01*
X8517754Y-13357722D02*
X8527277Y-13338674D01*
X8527277Y-13338674D02*
X8546325Y-13329150D01*
X8546325Y-13329150D02*
X8584420Y-13329150D01*
X8584420Y-13329150D02*
X8603468Y-13338674D01*
X8603468Y-13338674D02*
X8612992Y-13357722D01*
X8612992Y-13357722D02*
X8612992Y-13376769D01*
X8612992Y-13376769D02*
X8517754Y-13395817D01*
X8784420Y-13462484D02*
X8784420Y-13262484D01*
X8784420Y-13452960D02*
X8765373Y-13462484D01*
X8765373Y-13462484D02*
X8727277Y-13462484D01*
X8727277Y-13462484D02*
X8708230Y-13452960D01*
X8708230Y-13452960D02*
X8698706Y-13443436D01*
X8698706Y-13443436D02*
X8689182Y-13424388D01*
X8689182Y-13424388D02*
X8689182Y-13367246D01*
X8689182Y-13367246D02*
X8698706Y-13348198D01*
X8698706Y-13348198D02*
X8708230Y-13338674D01*
X8708230Y-13338674D02*
X8727277Y-13329150D01*
X8727277Y-13329150D02*
X8765373Y-13329150D01*
X8765373Y-13329150D02*
X8784420Y-13338674D01*
X8860611Y-13538674D02*
X8870135Y-13529150D01*
X8870135Y-13529150D02*
X8889182Y-13500579D01*
X8889182Y-13500579D02*
X8898706Y-13481531D01*
X8898706Y-13481531D02*
X8908230Y-13452960D01*
X8908230Y-13452960D02*
X8917754Y-13405341D01*
X8917754Y-13405341D02*
X8917754Y-13367246D01*
X8917754Y-13367246D02*
X8908230Y-13319627D01*
X8908230Y-13319627D02*
X8898706Y-13291055D01*
X8898706Y-13291055D02*
X8889182Y-13272008D01*
X8889182Y-13272008D02*
X8870135Y-13243436D01*
X8870135Y-13243436D02*
X8860611Y-13233912D01*
X2166500Y-13591000D02*
X2166500Y-13791000D01*
X2066500Y-13691000D02*
X2266500Y-13691000D01*
X2517753Y-13601531D02*
X2527277Y-13592008D01*
X2527277Y-13592008D02*
X2546324Y-13582484D01*
X2546324Y-13582484D02*
X2593944Y-13582484D01*
X2593944Y-13582484D02*
X2612991Y-13592008D01*
X2612991Y-13592008D02*
X2622515Y-13601531D01*
X2622515Y-13601531D02*
X2632039Y-13620579D01*
X2632039Y-13620579D02*
X2632039Y-13639627D01*
X2632039Y-13639627D02*
X2622515Y-13668198D01*
X2622515Y-13668198D02*
X2508229Y-13782484D01*
X2508229Y-13782484D02*
X2632039Y-13782484D01*
X2717753Y-13763436D02*
X2727277Y-13772960D01*
X2727277Y-13772960D02*
X2717753Y-13782484D01*
X2717753Y-13782484D02*
X2708229Y-13772960D01*
X2708229Y-13772960D02*
X2717753Y-13763436D01*
X2717753Y-13763436D02*
X2717753Y-13782484D01*
X2793944Y-13582484D02*
X2917753Y-13582484D01*
X2917753Y-13582484D02*
X2851086Y-13658674D01*
X2851086Y-13658674D02*
X2879658Y-13658674D01*
X2879658Y-13658674D02*
X2898705Y-13668198D01*
X2898705Y-13668198D02*
X2908229Y-13677722D01*
X2908229Y-13677722D02*
X2917753Y-13696769D01*
X2917753Y-13696769D02*
X2917753Y-13744388D01*
X2917753Y-13744388D02*
X2908229Y-13763436D01*
X2908229Y-13763436D02*
X2898705Y-13772960D01*
X2898705Y-13772960D02*
X2879658Y-13782484D01*
X2879658Y-13782484D02*
X2822515Y-13782484D01*
X2822515Y-13782484D02*
X2803467Y-13772960D01*
X2803467Y-13772960D02*
X2793944Y-13763436D01*
X3012991Y-13782484D02*
X3051086Y-13782484D01*
X3051086Y-13782484D02*
X3070134Y-13772960D01*
X3070134Y-13772960D02*
X3079658Y-13763436D01*
X3079658Y-13763436D02*
X3098705Y-13734865D01*
X3098705Y-13734865D02*
X3108229Y-13696769D01*
X3108229Y-13696769D02*
X3108229Y-13620579D01*
X3108229Y-13620579D02*
X3098705Y-13601531D01*
X3098705Y-13601531D02*
X3089182Y-13592008D01*
X3089182Y-13592008D02*
X3070134Y-13582484D01*
X3070134Y-13582484D02*
X3032039Y-13582484D01*
X3032039Y-13582484D02*
X3012991Y-13592008D01*
X3012991Y-13592008D02*
X3003467Y-13601531D01*
X3003467Y-13601531D02*
X2993943Y-13620579D01*
X2993943Y-13620579D02*
X2993943Y-13668198D01*
X2993943Y-13668198D02*
X3003467Y-13687246D01*
X3003467Y-13687246D02*
X3012991Y-13696769D01*
X3012991Y-13696769D02*
X3032039Y-13706293D01*
X3032039Y-13706293D02*
X3070134Y-13706293D01*
X3070134Y-13706293D02*
X3089182Y-13696769D01*
X3089182Y-13696769D02*
X3098705Y-13687246D01*
X3098705Y-13687246D02*
X3108229Y-13668198D01*
X3232039Y-13582484D02*
X3251086Y-13582484D01*
X3251086Y-13582484D02*
X3270134Y-13592008D01*
X3270134Y-13592008D02*
X3279658Y-13601531D01*
X3279658Y-13601531D02*
X3289182Y-13620579D01*
X3289182Y-13620579D02*
X3298705Y-13658674D01*
X3298705Y-13658674D02*
X3298705Y-13706293D01*
X3298705Y-13706293D02*
X3289182Y-13744388D01*
X3289182Y-13744388D02*
X3279658Y-13763436D01*
X3279658Y-13763436D02*
X3270134Y-13772960D01*
X3270134Y-13772960D02*
X3251086Y-13782484D01*
X3251086Y-13782484D02*
X3232039Y-13782484D01*
X3232039Y-13782484D02*
X3212991Y-13772960D01*
X3212991Y-13772960D02*
X3203467Y-13763436D01*
X3203467Y-13763436D02*
X3193943Y-13744388D01*
X3193943Y-13744388D02*
X3184420Y-13706293D01*
X3184420Y-13706293D02*
X3184420Y-13658674D01*
X3184420Y-13658674D02*
X3193943Y-13620579D01*
X3193943Y-13620579D02*
X3203467Y-13601531D01*
X3203467Y-13601531D02*
X3212991Y-13592008D01*
X3212991Y-13592008D02*
X3232039Y-13582484D01*
X3384420Y-13782484D02*
X3384420Y-13649150D01*
X3384420Y-13668198D02*
X3393943Y-13658674D01*
X3393943Y-13658674D02*
X3412991Y-13649150D01*
X3412991Y-13649150D02*
X3441563Y-13649150D01*
X3441563Y-13649150D02*
X3460610Y-13658674D01*
X3460610Y-13658674D02*
X3470134Y-13677722D01*
X3470134Y-13677722D02*
X3470134Y-13782484D01*
X3470134Y-13677722D02*
X3479658Y-13658674D01*
X3479658Y-13658674D02*
X3498705Y-13649150D01*
X3498705Y-13649150D02*
X3527277Y-13649150D01*
X3527277Y-13649150D02*
X3546324Y-13658674D01*
X3546324Y-13658674D02*
X3555848Y-13677722D01*
X3555848Y-13677722D02*
X3555848Y-13782484D01*
X3651086Y-13782484D02*
X3651086Y-13649150D01*
X3651086Y-13668198D02*
X3660610Y-13658674D01*
X3660610Y-13658674D02*
X3679658Y-13649150D01*
X3679658Y-13649150D02*
X3708229Y-13649150D01*
X3708229Y-13649150D02*
X3727277Y-13658674D01*
X3727277Y-13658674D02*
X3736801Y-13677722D01*
X3736801Y-13677722D02*
X3736801Y-13782484D01*
X3736801Y-13677722D02*
X3746324Y-13658674D01*
X3746324Y-13658674D02*
X3765372Y-13649150D01*
X3765372Y-13649150D02*
X3793943Y-13649150D01*
X3793943Y-13649150D02*
X3812991Y-13658674D01*
X3812991Y-13658674D02*
X3822515Y-13677722D01*
X3822515Y-13677722D02*
X3822515Y-13782484D01*
X4212991Y-13572960D02*
X4041563Y-13830103D01*
X4470134Y-13582484D02*
X4489182Y-13582484D01*
X4489182Y-13582484D02*
X4508229Y-13592008D01*
X4508229Y-13592008D02*
X4517753Y-13601531D01*
X4517753Y-13601531D02*
X4527277Y-13620579D01*
X4527277Y-13620579D02*
X4536801Y-13658674D01*
X4536801Y-13658674D02*
X4536801Y-13706293D01*
X4536801Y-13706293D02*
X4527277Y-13744388D01*
X4527277Y-13744388D02*
X4517753Y-13763436D01*
X4517753Y-13763436D02*
X4508229Y-13772960D01*
X4508229Y-13772960D02*
X4489182Y-13782484D01*
X4489182Y-13782484D02*
X4470134Y-13782484D01*
X4470134Y-13782484D02*
X4451087Y-13772960D01*
X4451087Y-13772960D02*
X4441563Y-13763436D01*
X4441563Y-13763436D02*
X4432039Y-13744388D01*
X4432039Y-13744388D02*
X4422515Y-13706293D01*
X4422515Y-13706293D02*
X4422515Y-13658674D01*
X4422515Y-13658674D02*
X4432039Y-13620579D01*
X4432039Y-13620579D02*
X4441563Y-13601531D01*
X4441563Y-13601531D02*
X4451087Y-13592008D01*
X4451087Y-13592008D02*
X4470134Y-13582484D01*
X4622515Y-13763436D02*
X4632039Y-13772960D01*
X4632039Y-13772960D02*
X4622515Y-13782484D01*
X4622515Y-13782484D02*
X4612991Y-13772960D01*
X4612991Y-13772960D02*
X4622515Y-13763436D01*
X4622515Y-13763436D02*
X4622515Y-13782484D01*
X4755848Y-13582484D02*
X4774896Y-13582484D01*
X4774896Y-13582484D02*
X4793944Y-13592008D01*
X4793944Y-13592008D02*
X4803468Y-13601531D01*
X4803468Y-13601531D02*
X4812991Y-13620579D01*
X4812991Y-13620579D02*
X4822515Y-13658674D01*
X4822515Y-13658674D02*
X4822515Y-13706293D01*
X4822515Y-13706293D02*
X4812991Y-13744388D01*
X4812991Y-13744388D02*
X4803468Y-13763436D01*
X4803468Y-13763436D02*
X4793944Y-13772960D01*
X4793944Y-13772960D02*
X4774896Y-13782484D01*
X4774896Y-13782484D02*
X4755848Y-13782484D01*
X4755848Y-13782484D02*
X4736801Y-13772960D01*
X4736801Y-13772960D02*
X4727277Y-13763436D01*
X4727277Y-13763436D02*
X4717753Y-13744388D01*
X4717753Y-13744388D02*
X4708229Y-13706293D01*
X4708229Y-13706293D02*
X4708229Y-13658674D01*
X4708229Y-13658674D02*
X4717753Y-13620579D01*
X4717753Y-13620579D02*
X4727277Y-13601531D01*
X4727277Y-13601531D02*
X4736801Y-13592008D01*
X4736801Y-13592008D02*
X4755848Y-13582484D01*
X4917753Y-13782484D02*
X4955848Y-13782484D01*
X4955848Y-13782484D02*
X4974896Y-13772960D01*
X4974896Y-13772960D02*
X4984420Y-13763436D01*
X4984420Y-13763436D02*
X5003468Y-13734865D01*
X5003468Y-13734865D02*
X5012991Y-13696769D01*
X5012991Y-13696769D02*
X5012991Y-13620579D01*
X5012991Y-13620579D02*
X5003468Y-13601531D01*
X5003468Y-13601531D02*
X4993944Y-13592008D01*
X4993944Y-13592008D02*
X4974896Y-13582484D01*
X4974896Y-13582484D02*
X4936801Y-13582484D01*
X4936801Y-13582484D02*
X4917753Y-13592008D01*
X4917753Y-13592008D02*
X4908229Y-13601531D01*
X4908229Y-13601531D02*
X4898706Y-13620579D01*
X4898706Y-13620579D02*
X4898706Y-13668198D01*
X4898706Y-13668198D02*
X4908229Y-13687246D01*
X4908229Y-13687246D02*
X4917753Y-13696769D01*
X4917753Y-13696769D02*
X4936801Y-13706293D01*
X4936801Y-13706293D02*
X4974896Y-13706293D01*
X4974896Y-13706293D02*
X4993944Y-13696769D01*
X4993944Y-13696769D02*
X5003468Y-13687246D01*
X5003468Y-13687246D02*
X5012991Y-13668198D01*
X5184420Y-13649150D02*
X5184420Y-13782484D01*
X5136801Y-13572960D02*
X5089182Y-13715817D01*
X5089182Y-13715817D02*
X5212991Y-13715817D01*
X5393944Y-13782484D02*
X5279658Y-13782484D01*
X5336801Y-13782484D02*
X5336801Y-13582484D01*
X5336801Y-13582484D02*
X5317753Y-13611055D01*
X5317753Y-13611055D02*
X5298706Y-13630103D01*
X5298706Y-13630103D02*
X5279658Y-13639627D01*
X5470134Y-13582484D02*
X5470134Y-13620579D01*
X5546325Y-13582484D02*
X5546325Y-13620579D01*
X5841563Y-13858674D02*
X5832039Y-13849150D01*
X5832039Y-13849150D02*
X5812991Y-13820579D01*
X5812991Y-13820579D02*
X5803468Y-13801531D01*
X5803468Y-13801531D02*
X5793944Y-13772960D01*
X5793944Y-13772960D02*
X5784420Y-13725341D01*
X5784420Y-13725341D02*
X5784420Y-13687246D01*
X5784420Y-13687246D02*
X5793944Y-13639627D01*
X5793944Y-13639627D02*
X5803468Y-13611055D01*
X5803468Y-13611055D02*
X5812991Y-13592008D01*
X5812991Y-13592008D02*
X5832039Y-13563436D01*
X5832039Y-13563436D02*
X5841563Y-13553912D01*
X6022515Y-13782484D02*
X5908229Y-13782484D01*
X5965372Y-13782484D02*
X5965372Y-13582484D01*
X5965372Y-13582484D02*
X5946325Y-13611055D01*
X5946325Y-13611055D02*
X5927277Y-13630103D01*
X5927277Y-13630103D02*
X5908229Y-13639627D01*
X6260610Y-13782484D02*
X6260610Y-13582484D01*
X6346325Y-13782484D02*
X6346325Y-13677722D01*
X6346325Y-13677722D02*
X6336801Y-13658674D01*
X6336801Y-13658674D02*
X6317753Y-13649150D01*
X6317753Y-13649150D02*
X6289182Y-13649150D01*
X6289182Y-13649150D02*
X6270134Y-13658674D01*
X6270134Y-13658674D02*
X6260610Y-13668198D01*
X6470134Y-13782484D02*
X6451087Y-13772960D01*
X6451087Y-13772960D02*
X6441563Y-13763436D01*
X6441563Y-13763436D02*
X6432039Y-13744388D01*
X6432039Y-13744388D02*
X6432039Y-13687246D01*
X6432039Y-13687246D02*
X6441563Y-13668198D01*
X6441563Y-13668198D02*
X6451087Y-13658674D01*
X6451087Y-13658674D02*
X6470134Y-13649150D01*
X6470134Y-13649150D02*
X6498706Y-13649150D01*
X6498706Y-13649150D02*
X6517753Y-13658674D01*
X6517753Y-13658674D02*
X6527277Y-13668198D01*
X6527277Y-13668198D02*
X6536801Y-13687246D01*
X6536801Y-13687246D02*
X6536801Y-13744388D01*
X6536801Y-13744388D02*
X6527277Y-13763436D01*
X6527277Y-13763436D02*
X6517753Y-13772960D01*
X6517753Y-13772960D02*
X6498706Y-13782484D01*
X6498706Y-13782484D02*
X6470134Y-13782484D01*
X6651087Y-13782484D02*
X6632039Y-13772960D01*
X6632039Y-13772960D02*
X6622515Y-13753912D01*
X6622515Y-13753912D02*
X6622515Y-13582484D01*
X6803468Y-13772960D02*
X6784420Y-13782484D01*
X6784420Y-13782484D02*
X6746325Y-13782484D01*
X6746325Y-13782484D02*
X6727277Y-13772960D01*
X6727277Y-13772960D02*
X6717753Y-13753912D01*
X6717753Y-13753912D02*
X6717753Y-13677722D01*
X6717753Y-13677722D02*
X6727277Y-13658674D01*
X6727277Y-13658674D02*
X6746325Y-13649150D01*
X6746325Y-13649150D02*
X6784420Y-13649150D01*
X6784420Y-13649150D02*
X6803468Y-13658674D01*
X6803468Y-13658674D02*
X6812991Y-13677722D01*
X6812991Y-13677722D02*
X6812991Y-13696769D01*
X6812991Y-13696769D02*
X6717753Y-13715817D01*
X6879658Y-13858674D02*
X6889182Y-13849150D01*
X6889182Y-13849150D02*
X6908230Y-13820579D01*
X6908230Y-13820579D02*
X6917753Y-13801531D01*
X6917753Y-13801531D02*
X6927277Y-13772960D01*
X6927277Y-13772960D02*
X6936801Y-13725341D01*
X6936801Y-13725341D02*
X6936801Y-13687246D01*
X6936801Y-13687246D02*
X6927277Y-13639627D01*
X6927277Y-13639627D02*
X6917753Y-13611055D01*
X6917753Y-13611055D02*
X6908230Y-13592008D01*
X6908230Y-13592008D02*
X6889182Y-13563436D01*
X6889182Y-13563436D02*
X6879658Y-13553912D01*
X7241563Y-13858674D02*
X7232039Y-13849150D01*
X7232039Y-13849150D02*
X7212991Y-13820579D01*
X7212991Y-13820579D02*
X7203468Y-13801531D01*
X7203468Y-13801531D02*
X7193944Y-13772960D01*
X7193944Y-13772960D02*
X7184420Y-13725341D01*
X7184420Y-13725341D02*
X7184420Y-13687246D01*
X7184420Y-13687246D02*
X7193944Y-13639627D01*
X7193944Y-13639627D02*
X7203468Y-13611055D01*
X7203468Y-13611055D02*
X7212991Y-13592008D01*
X7212991Y-13592008D02*
X7232039Y-13563436D01*
X7232039Y-13563436D02*
X7241563Y-13553912D01*
X7317753Y-13649150D02*
X7317753Y-13782484D01*
X7317753Y-13668198D02*
X7327277Y-13658674D01*
X7327277Y-13658674D02*
X7346325Y-13649150D01*
X7346325Y-13649150D02*
X7374896Y-13649150D01*
X7374896Y-13649150D02*
X7393944Y-13658674D01*
X7393944Y-13658674D02*
X7403468Y-13677722D01*
X7403468Y-13677722D02*
X7403468Y-13782484D01*
X7527277Y-13782484D02*
X7508230Y-13772960D01*
X7508230Y-13772960D02*
X7498706Y-13763436D01*
X7498706Y-13763436D02*
X7489182Y-13744388D01*
X7489182Y-13744388D02*
X7489182Y-13687246D01*
X7489182Y-13687246D02*
X7498706Y-13668198D01*
X7498706Y-13668198D02*
X7508230Y-13658674D01*
X7508230Y-13658674D02*
X7527277Y-13649150D01*
X7527277Y-13649150D02*
X7555849Y-13649150D01*
X7555849Y-13649150D02*
X7574896Y-13658674D01*
X7574896Y-13658674D02*
X7584420Y-13668198D01*
X7584420Y-13668198D02*
X7593944Y-13687246D01*
X7593944Y-13687246D02*
X7593944Y-13744388D01*
X7593944Y-13744388D02*
X7584420Y-13763436D01*
X7584420Y-13763436D02*
X7574896Y-13772960D01*
X7574896Y-13772960D02*
X7555849Y-13782484D01*
X7555849Y-13782484D02*
X7527277Y-13782484D01*
X7651087Y-13649150D02*
X7727277Y-13649150D01*
X7679658Y-13582484D02*
X7679658Y-13753912D01*
X7679658Y-13753912D02*
X7689182Y-13772960D01*
X7689182Y-13772960D02*
X7708230Y-13782484D01*
X7708230Y-13782484D02*
X7727277Y-13782484D01*
X7946325Y-13649150D02*
X7946325Y-13849150D01*
X7946325Y-13658674D02*
X7965372Y-13649150D01*
X7965372Y-13649150D02*
X8003468Y-13649150D01*
X8003468Y-13649150D02*
X8022515Y-13658674D01*
X8022515Y-13658674D02*
X8032039Y-13668198D01*
X8032039Y-13668198D02*
X8041563Y-13687246D01*
X8041563Y-13687246D02*
X8041563Y-13744388D01*
X8041563Y-13744388D02*
X8032039Y-13763436D01*
X8032039Y-13763436D02*
X8022515Y-13772960D01*
X8022515Y-13772960D02*
X8003468Y-13782484D01*
X8003468Y-13782484D02*
X7965372Y-13782484D01*
X7965372Y-13782484D02*
X7946325Y-13772960D01*
X8155849Y-13782484D02*
X8136801Y-13772960D01*
X8136801Y-13772960D02*
X8127277Y-13753912D01*
X8127277Y-13753912D02*
X8127277Y-13582484D01*
X8317753Y-13782484D02*
X8317753Y-13677722D01*
X8317753Y-13677722D02*
X8308230Y-13658674D01*
X8308230Y-13658674D02*
X8289182Y-13649150D01*
X8289182Y-13649150D02*
X8251087Y-13649150D01*
X8251087Y-13649150D02*
X8232039Y-13658674D01*
X8317753Y-13772960D02*
X8298706Y-13782484D01*
X8298706Y-13782484D02*
X8251087Y-13782484D01*
X8251087Y-13782484D02*
X8232039Y-13772960D01*
X8232039Y-13772960D02*
X8222515Y-13753912D01*
X8222515Y-13753912D02*
X8222515Y-13734865D01*
X8222515Y-13734865D02*
X8232039Y-13715817D01*
X8232039Y-13715817D02*
X8251087Y-13706293D01*
X8251087Y-13706293D02*
X8298706Y-13706293D01*
X8298706Y-13706293D02*
X8317753Y-13696769D01*
X8384420Y-13649150D02*
X8460611Y-13649150D01*
X8412992Y-13582484D02*
X8412992Y-13753912D01*
X8412992Y-13753912D02*
X8422515Y-13772960D01*
X8422515Y-13772960D02*
X8441563Y-13782484D01*
X8441563Y-13782484D02*
X8460611Y-13782484D01*
X8603468Y-13772960D02*
X8584420Y-13782484D01*
X8584420Y-13782484D02*
X8546325Y-13782484D01*
X8546325Y-13782484D02*
X8527277Y-13772960D01*
X8527277Y-13772960D02*
X8517754Y-13753912D01*
X8517754Y-13753912D02*
X8517754Y-13677722D01*
X8517754Y-13677722D02*
X8527277Y-13658674D01*
X8527277Y-13658674D02*
X8546325Y-13649150D01*
X8546325Y-13649150D02*
X8584420Y-13649150D01*
X8584420Y-13649150D02*
X8603468Y-13658674D01*
X8603468Y-13658674D02*
X8612992Y-13677722D01*
X8612992Y-13677722D02*
X8612992Y-13696769D01*
X8612992Y-13696769D02*
X8517754Y-13715817D01*
X8784420Y-13782484D02*
X8784420Y-13582484D01*
X8784420Y-13772960D02*
X8765373Y-13782484D01*
X8765373Y-13782484D02*
X8727277Y-13782484D01*
X8727277Y-13782484D02*
X8708230Y-13772960D01*
X8708230Y-13772960D02*
X8698706Y-13763436D01*
X8698706Y-13763436D02*
X8689182Y-13744388D01*
X8689182Y-13744388D02*
X8689182Y-13687246D01*
X8689182Y-13687246D02*
X8698706Y-13668198D01*
X8698706Y-13668198D02*
X8708230Y-13658674D01*
X8708230Y-13658674D02*
X8727277Y-13649150D01*
X8727277Y-13649150D02*
X8765373Y-13649150D01*
X8765373Y-13649150D02*
X8784420Y-13658674D01*
X8860611Y-13858674D02*
X8870135Y-13849150D01*
X8870135Y-13849150D02*
X8889182Y-13820579D01*
X8889182Y-13820579D02*
X8898706Y-13801531D01*
X8898706Y-13801531D02*
X8908230Y-13772960D01*
X8908230Y-13772960D02*
X8917754Y-13725341D01*
X8917754Y-13725341D02*
X8917754Y-13687246D01*
X8917754Y-13687246D02*
X8908230Y-13639627D01*
X8908230Y-13639627D02*
X8898706Y-13611055D01*
X8898706Y-13611055D02*
X8889182Y-13592008D01*
X8889182Y-13592008D02*
X8870135Y-13563436D01*
X8870135Y-13563436D02*
X8860611Y-13553912D01*
X2237211Y-14081711D02*
X2237211Y-13940289D01*
X2095789Y-13940289D01*
X2095789Y-14081711D01*
X2237211Y-14081711D01*
X2508229Y-13902484D02*
X2632039Y-13902484D01*
X2632039Y-13902484D02*
X2565372Y-13978674D01*
X2565372Y-13978674D02*
X2593944Y-13978674D01*
X2593944Y-13978674D02*
X2612991Y-13988198D01*
X2612991Y-13988198D02*
X2622515Y-13997722D01*
X2622515Y-13997722D02*
X2632039Y-14016769D01*
X2632039Y-14016769D02*
X2632039Y-14064388D01*
X2632039Y-14064388D02*
X2622515Y-14083436D01*
X2622515Y-14083436D02*
X2612991Y-14092960D01*
X2612991Y-14092960D02*
X2593944Y-14102484D01*
X2593944Y-14102484D02*
X2536801Y-14102484D01*
X2536801Y-14102484D02*
X2517753Y-14092960D01*
X2517753Y-14092960D02*
X2508229Y-14083436D01*
X2717753Y-14083436D02*
X2727277Y-14092960D01*
X2727277Y-14092960D02*
X2717753Y-14102484D01*
X2717753Y-14102484D02*
X2708229Y-14092960D01*
X2708229Y-14092960D02*
X2717753Y-14083436D01*
X2717753Y-14083436D02*
X2717753Y-14102484D01*
X2851086Y-13902484D02*
X2870134Y-13902484D01*
X2870134Y-13902484D02*
X2889182Y-13912008D01*
X2889182Y-13912008D02*
X2898705Y-13921531D01*
X2898705Y-13921531D02*
X2908229Y-13940579D01*
X2908229Y-13940579D02*
X2917753Y-13978674D01*
X2917753Y-13978674D02*
X2917753Y-14026293D01*
X2917753Y-14026293D02*
X2908229Y-14064388D01*
X2908229Y-14064388D02*
X2898705Y-14083436D01*
X2898705Y-14083436D02*
X2889182Y-14092960D01*
X2889182Y-14092960D02*
X2870134Y-14102484D01*
X2870134Y-14102484D02*
X2851086Y-14102484D01*
X2851086Y-14102484D02*
X2832039Y-14092960D01*
X2832039Y-14092960D02*
X2822515Y-14083436D01*
X2822515Y-14083436D02*
X2812991Y-14064388D01*
X2812991Y-14064388D02*
X2803467Y-14026293D01*
X2803467Y-14026293D02*
X2803467Y-13978674D01*
X2803467Y-13978674D02*
X2812991Y-13940579D01*
X2812991Y-13940579D02*
X2822515Y-13921531D01*
X2822515Y-13921531D02*
X2832039Y-13912008D01*
X2832039Y-13912008D02*
X2851086Y-13902484D01*
X3041562Y-13902484D02*
X3060610Y-13902484D01*
X3060610Y-13902484D02*
X3079658Y-13912008D01*
X3079658Y-13912008D02*
X3089182Y-13921531D01*
X3089182Y-13921531D02*
X3098705Y-13940579D01*
X3098705Y-13940579D02*
X3108229Y-13978674D01*
X3108229Y-13978674D02*
X3108229Y-14026293D01*
X3108229Y-14026293D02*
X3098705Y-14064388D01*
X3098705Y-14064388D02*
X3089182Y-14083436D01*
X3089182Y-14083436D02*
X3079658Y-14092960D01*
X3079658Y-14092960D02*
X3060610Y-14102484D01*
X3060610Y-14102484D02*
X3041562Y-14102484D01*
X3041562Y-14102484D02*
X3022515Y-14092960D01*
X3022515Y-14092960D02*
X3012991Y-14083436D01*
X3012991Y-14083436D02*
X3003467Y-14064388D01*
X3003467Y-14064388D02*
X2993943Y-14026293D01*
X2993943Y-14026293D02*
X2993943Y-13978674D01*
X2993943Y-13978674D02*
X3003467Y-13940579D01*
X3003467Y-13940579D02*
X3012991Y-13921531D01*
X3012991Y-13921531D02*
X3022515Y-13912008D01*
X3022515Y-13912008D02*
X3041562Y-13902484D01*
X3232039Y-13902484D02*
X3251086Y-13902484D01*
X3251086Y-13902484D02*
X3270134Y-13912008D01*
X3270134Y-13912008D02*
X3279658Y-13921531D01*
X3279658Y-13921531D02*
X3289182Y-13940579D01*
X3289182Y-13940579D02*
X3298705Y-13978674D01*
X3298705Y-13978674D02*
X3298705Y-14026293D01*
X3298705Y-14026293D02*
X3289182Y-14064388D01*
X3289182Y-14064388D02*
X3279658Y-14083436D01*
X3279658Y-14083436D02*
X3270134Y-14092960D01*
X3270134Y-14092960D02*
X3251086Y-14102484D01*
X3251086Y-14102484D02*
X3232039Y-14102484D01*
X3232039Y-14102484D02*
X3212991Y-14092960D01*
X3212991Y-14092960D02*
X3203467Y-14083436D01*
X3203467Y-14083436D02*
X3193943Y-14064388D01*
X3193943Y-14064388D02*
X3184420Y-14026293D01*
X3184420Y-14026293D02*
X3184420Y-13978674D01*
X3184420Y-13978674D02*
X3193943Y-13940579D01*
X3193943Y-13940579D02*
X3203467Y-13921531D01*
X3203467Y-13921531D02*
X3212991Y-13912008D01*
X3212991Y-13912008D02*
X3232039Y-13902484D01*
X3384420Y-14102484D02*
X3384420Y-13969150D01*
X3384420Y-13988198D02*
X3393943Y-13978674D01*
X3393943Y-13978674D02*
X3412991Y-13969150D01*
X3412991Y-13969150D02*
X3441563Y-13969150D01*
X3441563Y-13969150D02*
X3460610Y-13978674D01*
X3460610Y-13978674D02*
X3470134Y-13997722D01*
X3470134Y-13997722D02*
X3470134Y-14102484D01*
X3470134Y-13997722D02*
X3479658Y-13978674D01*
X3479658Y-13978674D02*
X3498705Y-13969150D01*
X3498705Y-13969150D02*
X3527277Y-13969150D01*
X3527277Y-13969150D02*
X3546324Y-13978674D01*
X3546324Y-13978674D02*
X3555848Y-13997722D01*
X3555848Y-13997722D02*
X3555848Y-14102484D01*
X3651086Y-14102484D02*
X3651086Y-13969150D01*
X3651086Y-13988198D02*
X3660610Y-13978674D01*
X3660610Y-13978674D02*
X3679658Y-13969150D01*
X3679658Y-13969150D02*
X3708229Y-13969150D01*
X3708229Y-13969150D02*
X3727277Y-13978674D01*
X3727277Y-13978674D02*
X3736801Y-13997722D01*
X3736801Y-13997722D02*
X3736801Y-14102484D01*
X3736801Y-13997722D02*
X3746324Y-13978674D01*
X3746324Y-13978674D02*
X3765372Y-13969150D01*
X3765372Y-13969150D02*
X3793943Y-13969150D01*
X3793943Y-13969150D02*
X3812991Y-13978674D01*
X3812991Y-13978674D02*
X3822515Y-13997722D01*
X3822515Y-13997722D02*
X3822515Y-14102484D01*
X4212991Y-13892960D02*
X4041563Y-14150103D01*
X4470134Y-13902484D02*
X4489182Y-13902484D01*
X4489182Y-13902484D02*
X4508229Y-13912008D01*
X4508229Y-13912008D02*
X4517753Y-13921531D01*
X4517753Y-13921531D02*
X4527277Y-13940579D01*
X4527277Y-13940579D02*
X4536801Y-13978674D01*
X4536801Y-13978674D02*
X4536801Y-14026293D01*
X4536801Y-14026293D02*
X4527277Y-14064388D01*
X4527277Y-14064388D02*
X4517753Y-14083436D01*
X4517753Y-14083436D02*
X4508229Y-14092960D01*
X4508229Y-14092960D02*
X4489182Y-14102484D01*
X4489182Y-14102484D02*
X4470134Y-14102484D01*
X4470134Y-14102484D02*
X4451087Y-14092960D01*
X4451087Y-14092960D02*
X4441563Y-14083436D01*
X4441563Y-14083436D02*
X4432039Y-14064388D01*
X4432039Y-14064388D02*
X4422515Y-14026293D01*
X4422515Y-14026293D02*
X4422515Y-13978674D01*
X4422515Y-13978674D02*
X4432039Y-13940579D01*
X4432039Y-13940579D02*
X4441563Y-13921531D01*
X4441563Y-13921531D02*
X4451087Y-13912008D01*
X4451087Y-13912008D02*
X4470134Y-13902484D01*
X4622515Y-14083436D02*
X4632039Y-14092960D01*
X4632039Y-14092960D02*
X4622515Y-14102484D01*
X4622515Y-14102484D02*
X4612991Y-14092960D01*
X4612991Y-14092960D02*
X4622515Y-14083436D01*
X4622515Y-14083436D02*
X4622515Y-14102484D01*
X4822515Y-14102484D02*
X4708229Y-14102484D01*
X4765372Y-14102484D02*
X4765372Y-13902484D01*
X4765372Y-13902484D02*
X4746325Y-13931055D01*
X4746325Y-13931055D02*
X4727277Y-13950103D01*
X4727277Y-13950103D02*
X4708229Y-13959627D01*
X5012991Y-14102484D02*
X4898706Y-14102484D01*
X4955848Y-14102484D02*
X4955848Y-13902484D01*
X4955848Y-13902484D02*
X4936801Y-13931055D01*
X4936801Y-13931055D02*
X4917753Y-13950103D01*
X4917753Y-13950103D02*
X4898706Y-13959627D01*
X5127277Y-13988198D02*
X5108229Y-13978674D01*
X5108229Y-13978674D02*
X5098706Y-13969150D01*
X5098706Y-13969150D02*
X5089182Y-13950103D01*
X5089182Y-13950103D02*
X5089182Y-13940579D01*
X5089182Y-13940579D02*
X5098706Y-13921531D01*
X5098706Y-13921531D02*
X5108229Y-13912008D01*
X5108229Y-13912008D02*
X5127277Y-13902484D01*
X5127277Y-13902484D02*
X5165372Y-13902484D01*
X5165372Y-13902484D02*
X5184420Y-13912008D01*
X5184420Y-13912008D02*
X5193944Y-13921531D01*
X5193944Y-13921531D02*
X5203468Y-13940579D01*
X5203468Y-13940579D02*
X5203468Y-13950103D01*
X5203468Y-13950103D02*
X5193944Y-13969150D01*
X5193944Y-13969150D02*
X5184420Y-13978674D01*
X5184420Y-13978674D02*
X5165372Y-13988198D01*
X5165372Y-13988198D02*
X5127277Y-13988198D01*
X5127277Y-13988198D02*
X5108229Y-13997722D01*
X5108229Y-13997722D02*
X5098706Y-14007246D01*
X5098706Y-14007246D02*
X5089182Y-14026293D01*
X5089182Y-14026293D02*
X5089182Y-14064388D01*
X5089182Y-14064388D02*
X5098706Y-14083436D01*
X5098706Y-14083436D02*
X5108229Y-14092960D01*
X5108229Y-14092960D02*
X5127277Y-14102484D01*
X5127277Y-14102484D02*
X5165372Y-14102484D01*
X5165372Y-14102484D02*
X5184420Y-14092960D01*
X5184420Y-14092960D02*
X5193944Y-14083436D01*
X5193944Y-14083436D02*
X5203468Y-14064388D01*
X5203468Y-14064388D02*
X5203468Y-14026293D01*
X5203468Y-14026293D02*
X5193944Y-14007246D01*
X5193944Y-14007246D02*
X5184420Y-13997722D01*
X5184420Y-13997722D02*
X5165372Y-13988198D01*
X5393944Y-14102484D02*
X5279658Y-14102484D01*
X5336801Y-14102484D02*
X5336801Y-13902484D01*
X5336801Y-13902484D02*
X5317753Y-13931055D01*
X5317753Y-13931055D02*
X5298706Y-13950103D01*
X5298706Y-13950103D02*
X5279658Y-13959627D01*
X5470134Y-13902484D02*
X5470134Y-13940579D01*
X5546325Y-13902484D02*
X5546325Y-13940579D01*
X5841563Y-14178674D02*
X5832039Y-14169150D01*
X5832039Y-14169150D02*
X5812991Y-14140579D01*
X5812991Y-14140579D02*
X5803468Y-14121531D01*
X5803468Y-14121531D02*
X5793944Y-14092960D01*
X5793944Y-14092960D02*
X5784420Y-14045341D01*
X5784420Y-14045341D02*
X5784420Y-14007246D01*
X5784420Y-14007246D02*
X5793944Y-13959627D01*
X5793944Y-13959627D02*
X5803468Y-13931055D01*
X5803468Y-13931055D02*
X5812991Y-13912008D01*
X5812991Y-13912008D02*
X5832039Y-13883436D01*
X5832039Y-13883436D02*
X5841563Y-13873912D01*
X5908229Y-13921531D02*
X5917753Y-13912008D01*
X5917753Y-13912008D02*
X5936801Y-13902484D01*
X5936801Y-13902484D02*
X5984420Y-13902484D01*
X5984420Y-13902484D02*
X6003468Y-13912008D01*
X6003468Y-13912008D02*
X6012991Y-13921531D01*
X6012991Y-13921531D02*
X6022515Y-13940579D01*
X6022515Y-13940579D02*
X6022515Y-13959627D01*
X6022515Y-13959627D02*
X6012991Y-13988198D01*
X6012991Y-13988198D02*
X5898706Y-14102484D01*
X5898706Y-14102484D02*
X6022515Y-14102484D01*
X6260610Y-14102484D02*
X6260610Y-13902484D01*
X6346325Y-14102484D02*
X6346325Y-13997722D01*
X6346325Y-13997722D02*
X6336801Y-13978674D01*
X6336801Y-13978674D02*
X6317753Y-13969150D01*
X6317753Y-13969150D02*
X6289182Y-13969150D01*
X6289182Y-13969150D02*
X6270134Y-13978674D01*
X6270134Y-13978674D02*
X6260610Y-13988198D01*
X6470134Y-14102484D02*
X6451087Y-14092960D01*
X6451087Y-14092960D02*
X6441563Y-14083436D01*
X6441563Y-14083436D02*
X6432039Y-14064388D01*
X6432039Y-14064388D02*
X6432039Y-14007246D01*
X6432039Y-14007246D02*
X6441563Y-13988198D01*
X6441563Y-13988198D02*
X6451087Y-13978674D01*
X6451087Y-13978674D02*
X6470134Y-13969150D01*
X6470134Y-13969150D02*
X6498706Y-13969150D01*
X6498706Y-13969150D02*
X6517753Y-13978674D01*
X6517753Y-13978674D02*
X6527277Y-13988198D01*
X6527277Y-13988198D02*
X6536801Y-14007246D01*
X6536801Y-14007246D02*
X6536801Y-14064388D01*
X6536801Y-14064388D02*
X6527277Y-14083436D01*
X6527277Y-14083436D02*
X6517753Y-14092960D01*
X6517753Y-14092960D02*
X6498706Y-14102484D01*
X6498706Y-14102484D02*
X6470134Y-14102484D01*
X6651087Y-14102484D02*
X6632039Y-14092960D01*
X6632039Y-14092960D02*
X6622515Y-14073912D01*
X6622515Y-14073912D02*
X6622515Y-13902484D01*
X6803468Y-14092960D02*
X6784420Y-14102484D01*
X6784420Y-14102484D02*
X6746325Y-14102484D01*
X6746325Y-14102484D02*
X6727277Y-14092960D01*
X6727277Y-14092960D02*
X6717753Y-14073912D01*
X6717753Y-14073912D02*
X6717753Y-13997722D01*
X6717753Y-13997722D02*
X6727277Y-13978674D01*
X6727277Y-13978674D02*
X6746325Y-13969150D01*
X6746325Y-13969150D02*
X6784420Y-13969150D01*
X6784420Y-13969150D02*
X6803468Y-13978674D01*
X6803468Y-13978674D02*
X6812991Y-13997722D01*
X6812991Y-13997722D02*
X6812991Y-14016769D01*
X6812991Y-14016769D02*
X6717753Y-14035817D01*
X6889182Y-14092960D02*
X6908230Y-14102484D01*
X6908230Y-14102484D02*
X6946325Y-14102484D01*
X6946325Y-14102484D02*
X6965372Y-14092960D01*
X6965372Y-14092960D02*
X6974896Y-14073912D01*
X6974896Y-14073912D02*
X6974896Y-14064388D01*
X6974896Y-14064388D02*
X6965372Y-14045341D01*
X6965372Y-14045341D02*
X6946325Y-14035817D01*
X6946325Y-14035817D02*
X6917753Y-14035817D01*
X6917753Y-14035817D02*
X6898706Y-14026293D01*
X6898706Y-14026293D02*
X6889182Y-14007246D01*
X6889182Y-14007246D02*
X6889182Y-13997722D01*
X6889182Y-13997722D02*
X6898706Y-13978674D01*
X6898706Y-13978674D02*
X6917753Y-13969150D01*
X6917753Y-13969150D02*
X6946325Y-13969150D01*
X6946325Y-13969150D02*
X6965372Y-13978674D01*
X7041563Y-14178674D02*
X7051087Y-14169150D01*
X7051087Y-14169150D02*
X7070134Y-14140579D01*
X7070134Y-14140579D02*
X7079658Y-14121531D01*
X7079658Y-14121531D02*
X7089182Y-14092960D01*
X7089182Y-14092960D02*
X7098706Y-14045341D01*
X7098706Y-14045341D02*
X7098706Y-14007246D01*
X7098706Y-14007246D02*
X7089182Y-13959627D01*
X7089182Y-13959627D02*
X7079658Y-13931055D01*
X7079658Y-13931055D02*
X7070134Y-13912008D01*
X7070134Y-13912008D02*
X7051087Y-13883436D01*
X7051087Y-13883436D02*
X7041563Y-13873912D01*
X7403468Y-14178674D02*
X7393944Y-14169150D01*
X7393944Y-14169150D02*
X7374896Y-14140579D01*
X7374896Y-14140579D02*
X7365372Y-14121531D01*
X7365372Y-14121531D02*
X7355849Y-14092960D01*
X7355849Y-14092960D02*
X7346325Y-14045341D01*
X7346325Y-14045341D02*
X7346325Y-14007246D01*
X7346325Y-14007246D02*
X7355849Y-13959627D01*
X7355849Y-13959627D02*
X7365372Y-13931055D01*
X7365372Y-13931055D02*
X7374896Y-13912008D01*
X7374896Y-13912008D02*
X7393944Y-13883436D01*
X7393944Y-13883436D02*
X7403468Y-13873912D01*
X7479658Y-13969150D02*
X7479658Y-14102484D01*
X7479658Y-13988198D02*
X7489182Y-13978674D01*
X7489182Y-13978674D02*
X7508230Y-13969150D01*
X7508230Y-13969150D02*
X7536801Y-13969150D01*
X7536801Y-13969150D02*
X7555849Y-13978674D01*
X7555849Y-13978674D02*
X7565372Y-13997722D01*
X7565372Y-13997722D02*
X7565372Y-14102484D01*
X7689182Y-14102484D02*
X7670134Y-14092960D01*
X7670134Y-14092960D02*
X7660611Y-14083436D01*
X7660611Y-14083436D02*
X7651087Y-14064388D01*
X7651087Y-14064388D02*
X7651087Y-14007246D01*
X7651087Y-14007246D02*
X7660611Y-13988198D01*
X7660611Y-13988198D02*
X7670134Y-13978674D01*
X7670134Y-13978674D02*
X7689182Y-13969150D01*
X7689182Y-13969150D02*
X7717753Y-13969150D01*
X7717753Y-13969150D02*
X7736801Y-13978674D01*
X7736801Y-13978674D02*
X7746325Y-13988198D01*
X7746325Y-13988198D02*
X7755849Y-14007246D01*
X7755849Y-14007246D02*
X7755849Y-14064388D01*
X7755849Y-14064388D02*
X7746325Y-14083436D01*
X7746325Y-14083436D02*
X7736801Y-14092960D01*
X7736801Y-14092960D02*
X7717753Y-14102484D01*
X7717753Y-14102484D02*
X7689182Y-14102484D01*
X7812992Y-13969150D02*
X7889182Y-13969150D01*
X7841563Y-13902484D02*
X7841563Y-14073912D01*
X7841563Y-14073912D02*
X7851087Y-14092960D01*
X7851087Y-14092960D02*
X7870134Y-14102484D01*
X7870134Y-14102484D02*
X7889182Y-14102484D01*
X8108230Y-13969150D02*
X8108230Y-14169150D01*
X8108230Y-13978674D02*
X8127277Y-13969150D01*
X8127277Y-13969150D02*
X8165373Y-13969150D01*
X8165373Y-13969150D02*
X8184420Y-13978674D01*
X8184420Y-13978674D02*
X8193944Y-13988198D01*
X8193944Y-13988198D02*
X8203468Y-14007246D01*
X8203468Y-14007246D02*
X8203468Y-14064388D01*
X8203468Y-14064388D02*
X8193944Y-14083436D01*
X8193944Y-14083436D02*
X8184420Y-14092960D01*
X8184420Y-14092960D02*
X8165373Y-14102484D01*
X8165373Y-14102484D02*
X8127277Y-14102484D01*
X8127277Y-14102484D02*
X8108230Y-14092960D01*
X8317753Y-14102484D02*
X8298706Y-14092960D01*
X8298706Y-14092960D02*
X8289182Y-14073912D01*
X8289182Y-14073912D02*
X8289182Y-13902484D01*
X8479658Y-14102484D02*
X8479658Y-13997722D01*
X8479658Y-13997722D02*
X8470135Y-13978674D01*
X8470135Y-13978674D02*
X8451087Y-13969150D01*
X8451087Y-13969150D02*
X8412992Y-13969150D01*
X8412992Y-13969150D02*
X8393944Y-13978674D01*
X8479658Y-14092960D02*
X8460611Y-14102484D01*
X8460611Y-14102484D02*
X8412992Y-14102484D01*
X8412992Y-14102484D02*
X8393944Y-14092960D01*
X8393944Y-14092960D02*
X8384420Y-14073912D01*
X8384420Y-14073912D02*
X8384420Y-14054865D01*
X8384420Y-14054865D02*
X8393944Y-14035817D01*
X8393944Y-14035817D02*
X8412992Y-14026293D01*
X8412992Y-14026293D02*
X8460611Y-14026293D01*
X8460611Y-14026293D02*
X8479658Y-14016769D01*
X8546325Y-13969150D02*
X8622515Y-13969150D01*
X8574896Y-13902484D02*
X8574896Y-14073912D01*
X8574896Y-14073912D02*
X8584420Y-14092960D01*
X8584420Y-14092960D02*
X8603468Y-14102484D01*
X8603468Y-14102484D02*
X8622515Y-14102484D01*
X8765373Y-14092960D02*
X8746325Y-14102484D01*
X8746325Y-14102484D02*
X8708230Y-14102484D01*
X8708230Y-14102484D02*
X8689182Y-14092960D01*
X8689182Y-14092960D02*
X8679658Y-14073912D01*
X8679658Y-14073912D02*
X8679658Y-13997722D01*
X8679658Y-13997722D02*
X8689182Y-13978674D01*
X8689182Y-13978674D02*
X8708230Y-13969150D01*
X8708230Y-13969150D02*
X8746325Y-13969150D01*
X8746325Y-13969150D02*
X8765373Y-13978674D01*
X8765373Y-13978674D02*
X8774896Y-13997722D01*
X8774896Y-13997722D02*
X8774896Y-14016769D01*
X8774896Y-14016769D02*
X8679658Y-14035817D01*
X8946325Y-14102484D02*
X8946325Y-13902484D01*
X8946325Y-14092960D02*
X8927277Y-14102484D01*
X8927277Y-14102484D02*
X8889182Y-14102484D01*
X8889182Y-14102484D02*
X8870135Y-14092960D01*
X8870135Y-14092960D02*
X8860611Y-14083436D01*
X8860611Y-14083436D02*
X8851087Y-14064388D01*
X8851087Y-14064388D02*
X8851087Y-14007246D01*
X8851087Y-14007246D02*
X8860611Y-13988198D01*
X8860611Y-13988198D02*
X8870135Y-13978674D01*
X8870135Y-13978674D02*
X8889182Y-13969150D01*
X8889182Y-13969150D02*
X8927277Y-13969150D01*
X8927277Y-13969150D02*
X8946325Y-13978674D01*
X9022516Y-14178674D02*
X9032039Y-14169150D01*
X9032039Y-14169150D02*
X9051087Y-14140579D01*
X9051087Y-14140579D02*
X9060611Y-14121531D01*
X9060611Y-14121531D02*
X9070135Y-14092960D01*
X9070135Y-14092960D02*
X9079658Y-14045341D01*
X9079658Y-14045341D02*
X9079658Y-14007246D01*
X9079658Y-14007246D02*
X9070135Y-13959627D01*
X9070135Y-13959627D02*
X9060611Y-13931055D01*
X9060611Y-13931055D02*
X9051087Y-13912008D01*
X9051087Y-13912008D02*
X9032039Y-13883436D01*
X9032039Y-13883436D02*
X9022516Y-13873912D01*
X2166500Y-14431000D02*
X2266500Y-14331000D01*
X2166500Y-14231000D01*
X2066500Y-14331000D01*
X2166500Y-14431000D01*
X2508229Y-14222484D02*
X2632039Y-14222484D01*
X2632039Y-14222484D02*
X2565372Y-14298674D01*
X2565372Y-14298674D02*
X2593944Y-14298674D01*
X2593944Y-14298674D02*
X2612991Y-14308198D01*
X2612991Y-14308198D02*
X2622515Y-14317722D01*
X2622515Y-14317722D02*
X2632039Y-14336769D01*
X2632039Y-14336769D02*
X2632039Y-14384388D01*
X2632039Y-14384388D02*
X2622515Y-14403436D01*
X2622515Y-14403436D02*
X2612991Y-14412960D01*
X2612991Y-14412960D02*
X2593944Y-14422484D01*
X2593944Y-14422484D02*
X2536801Y-14422484D01*
X2536801Y-14422484D02*
X2517753Y-14412960D01*
X2517753Y-14412960D02*
X2508229Y-14403436D01*
X2717753Y-14403436D02*
X2727277Y-14412960D01*
X2727277Y-14412960D02*
X2717753Y-14422484D01*
X2717753Y-14422484D02*
X2708229Y-14412960D01*
X2708229Y-14412960D02*
X2717753Y-14403436D01*
X2717753Y-14403436D02*
X2717753Y-14422484D01*
X2851086Y-14222484D02*
X2870134Y-14222484D01*
X2870134Y-14222484D02*
X2889182Y-14232008D01*
X2889182Y-14232008D02*
X2898705Y-14241531D01*
X2898705Y-14241531D02*
X2908229Y-14260579D01*
X2908229Y-14260579D02*
X2917753Y-14298674D01*
X2917753Y-14298674D02*
X2917753Y-14346293D01*
X2917753Y-14346293D02*
X2908229Y-14384388D01*
X2908229Y-14384388D02*
X2898705Y-14403436D01*
X2898705Y-14403436D02*
X2889182Y-14412960D01*
X2889182Y-14412960D02*
X2870134Y-14422484D01*
X2870134Y-14422484D02*
X2851086Y-14422484D01*
X2851086Y-14422484D02*
X2832039Y-14412960D01*
X2832039Y-14412960D02*
X2822515Y-14403436D01*
X2822515Y-14403436D02*
X2812991Y-14384388D01*
X2812991Y-14384388D02*
X2803467Y-14346293D01*
X2803467Y-14346293D02*
X2803467Y-14298674D01*
X2803467Y-14298674D02*
X2812991Y-14260579D01*
X2812991Y-14260579D02*
X2822515Y-14241531D01*
X2822515Y-14241531D02*
X2832039Y-14232008D01*
X2832039Y-14232008D02*
X2851086Y-14222484D01*
X3089182Y-14222484D02*
X3051086Y-14222484D01*
X3051086Y-14222484D02*
X3032039Y-14232008D01*
X3032039Y-14232008D02*
X3022515Y-14241531D01*
X3022515Y-14241531D02*
X3003467Y-14270103D01*
X3003467Y-14270103D02*
X2993943Y-14308198D01*
X2993943Y-14308198D02*
X2993943Y-14384388D01*
X2993943Y-14384388D02*
X3003467Y-14403436D01*
X3003467Y-14403436D02*
X3012991Y-14412960D01*
X3012991Y-14412960D02*
X3032039Y-14422484D01*
X3032039Y-14422484D02*
X3070134Y-14422484D01*
X3070134Y-14422484D02*
X3089182Y-14412960D01*
X3089182Y-14412960D02*
X3098705Y-14403436D01*
X3098705Y-14403436D02*
X3108229Y-14384388D01*
X3108229Y-14384388D02*
X3108229Y-14336769D01*
X3108229Y-14336769D02*
X3098705Y-14317722D01*
X3098705Y-14317722D02*
X3089182Y-14308198D01*
X3089182Y-14308198D02*
X3070134Y-14298674D01*
X3070134Y-14298674D02*
X3032039Y-14298674D01*
X3032039Y-14298674D02*
X3012991Y-14308198D01*
X3012991Y-14308198D02*
X3003467Y-14317722D01*
X3003467Y-14317722D02*
X2993943Y-14336769D01*
X3222515Y-14308198D02*
X3203467Y-14298674D01*
X3203467Y-14298674D02*
X3193943Y-14289150D01*
X3193943Y-14289150D02*
X3184420Y-14270103D01*
X3184420Y-14270103D02*
X3184420Y-14260579D01*
X3184420Y-14260579D02*
X3193943Y-14241531D01*
X3193943Y-14241531D02*
X3203467Y-14232008D01*
X3203467Y-14232008D02*
X3222515Y-14222484D01*
X3222515Y-14222484D02*
X3260610Y-14222484D01*
X3260610Y-14222484D02*
X3279658Y-14232008D01*
X3279658Y-14232008D02*
X3289182Y-14241531D01*
X3289182Y-14241531D02*
X3298705Y-14260579D01*
X3298705Y-14260579D02*
X3298705Y-14270103D01*
X3298705Y-14270103D02*
X3289182Y-14289150D01*
X3289182Y-14289150D02*
X3279658Y-14298674D01*
X3279658Y-14298674D02*
X3260610Y-14308198D01*
X3260610Y-14308198D02*
X3222515Y-14308198D01*
X3222515Y-14308198D02*
X3203467Y-14317722D01*
X3203467Y-14317722D02*
X3193943Y-14327246D01*
X3193943Y-14327246D02*
X3184420Y-14346293D01*
X3184420Y-14346293D02*
X3184420Y-14384388D01*
X3184420Y-14384388D02*
X3193943Y-14403436D01*
X3193943Y-14403436D02*
X3203467Y-14412960D01*
X3203467Y-14412960D02*
X3222515Y-14422484D01*
X3222515Y-14422484D02*
X3260610Y-14422484D01*
X3260610Y-14422484D02*
X3279658Y-14412960D01*
X3279658Y-14412960D02*
X3289182Y-14403436D01*
X3289182Y-14403436D02*
X3298705Y-14384388D01*
X3298705Y-14384388D02*
X3298705Y-14346293D01*
X3298705Y-14346293D02*
X3289182Y-14327246D01*
X3289182Y-14327246D02*
X3279658Y-14317722D01*
X3279658Y-14317722D02*
X3260610Y-14308198D01*
X3384420Y-14422484D02*
X3384420Y-14289150D01*
X3384420Y-14308198D02*
X3393943Y-14298674D01*
X3393943Y-14298674D02*
X3412991Y-14289150D01*
X3412991Y-14289150D02*
X3441563Y-14289150D01*
X3441563Y-14289150D02*
X3460610Y-14298674D01*
X3460610Y-14298674D02*
X3470134Y-14317722D01*
X3470134Y-14317722D02*
X3470134Y-14422484D01*
X3470134Y-14317722D02*
X3479658Y-14298674D01*
X3479658Y-14298674D02*
X3498705Y-14289150D01*
X3498705Y-14289150D02*
X3527277Y-14289150D01*
X3527277Y-14289150D02*
X3546324Y-14298674D01*
X3546324Y-14298674D02*
X3555848Y-14317722D01*
X3555848Y-14317722D02*
X3555848Y-14422484D01*
X3651086Y-14422484D02*
X3651086Y-14289150D01*
X3651086Y-14308198D02*
X3660610Y-14298674D01*
X3660610Y-14298674D02*
X3679658Y-14289150D01*
X3679658Y-14289150D02*
X3708229Y-14289150D01*
X3708229Y-14289150D02*
X3727277Y-14298674D01*
X3727277Y-14298674D02*
X3736801Y-14317722D01*
X3736801Y-14317722D02*
X3736801Y-14422484D01*
X3736801Y-14317722D02*
X3746324Y-14298674D01*
X3746324Y-14298674D02*
X3765372Y-14289150D01*
X3765372Y-14289150D02*
X3793943Y-14289150D01*
X3793943Y-14289150D02*
X3812991Y-14298674D01*
X3812991Y-14298674D02*
X3822515Y-14317722D01*
X3822515Y-14317722D02*
X3822515Y-14422484D01*
X4212991Y-14212960D02*
X4041563Y-14470103D01*
X4470134Y-14222484D02*
X4489182Y-14222484D01*
X4489182Y-14222484D02*
X4508229Y-14232008D01*
X4508229Y-14232008D02*
X4517753Y-14241531D01*
X4517753Y-14241531D02*
X4527277Y-14260579D01*
X4527277Y-14260579D02*
X4536801Y-14298674D01*
X4536801Y-14298674D02*
X4536801Y-14346293D01*
X4536801Y-14346293D02*
X4527277Y-14384388D01*
X4527277Y-14384388D02*
X4517753Y-14403436D01*
X4517753Y-14403436D02*
X4508229Y-14412960D01*
X4508229Y-14412960D02*
X4489182Y-14422484D01*
X4489182Y-14422484D02*
X4470134Y-14422484D01*
X4470134Y-14422484D02*
X4451087Y-14412960D01*
X4451087Y-14412960D02*
X4441563Y-14403436D01*
X4441563Y-14403436D02*
X4432039Y-14384388D01*
X4432039Y-14384388D02*
X4422515Y-14346293D01*
X4422515Y-14346293D02*
X4422515Y-14298674D01*
X4422515Y-14298674D02*
X4432039Y-14260579D01*
X4432039Y-14260579D02*
X4441563Y-14241531D01*
X4441563Y-14241531D02*
X4451087Y-14232008D01*
X4451087Y-14232008D02*
X4470134Y-14222484D01*
X4622515Y-14403436D02*
X4632039Y-14412960D01*
X4632039Y-14412960D02*
X4622515Y-14422484D01*
X4622515Y-14422484D02*
X4612991Y-14412960D01*
X4612991Y-14412960D02*
X4622515Y-14403436D01*
X4622515Y-14403436D02*
X4622515Y-14422484D01*
X4822515Y-14422484D02*
X4708229Y-14422484D01*
X4765372Y-14422484D02*
X4765372Y-14222484D01*
X4765372Y-14222484D02*
X4746325Y-14251055D01*
X4746325Y-14251055D02*
X4727277Y-14270103D01*
X4727277Y-14270103D02*
X4708229Y-14279627D01*
X4898706Y-14241531D02*
X4908229Y-14232008D01*
X4908229Y-14232008D02*
X4927277Y-14222484D01*
X4927277Y-14222484D02*
X4974896Y-14222484D01*
X4974896Y-14222484D02*
X4993944Y-14232008D01*
X4993944Y-14232008D02*
X5003468Y-14241531D01*
X5003468Y-14241531D02*
X5012991Y-14260579D01*
X5012991Y-14260579D02*
X5012991Y-14279627D01*
X5012991Y-14279627D02*
X5003468Y-14308198D01*
X5003468Y-14308198D02*
X4889182Y-14422484D01*
X4889182Y-14422484D02*
X5012991Y-14422484D01*
X5136801Y-14222484D02*
X5155849Y-14222484D01*
X5155849Y-14222484D02*
X5174896Y-14232008D01*
X5174896Y-14232008D02*
X5184420Y-14241531D01*
X5184420Y-14241531D02*
X5193944Y-14260579D01*
X5193944Y-14260579D02*
X5203468Y-14298674D01*
X5203468Y-14298674D02*
X5203468Y-14346293D01*
X5203468Y-14346293D02*
X5193944Y-14384388D01*
X5193944Y-14384388D02*
X5184420Y-14403436D01*
X5184420Y-14403436D02*
X5174896Y-14412960D01*
X5174896Y-14412960D02*
X5155849Y-14422484D01*
X5155849Y-14422484D02*
X5136801Y-14422484D01*
X5136801Y-14422484D02*
X5117753Y-14412960D01*
X5117753Y-14412960D02*
X5108229Y-14403436D01*
X5108229Y-14403436D02*
X5098706Y-14384388D01*
X5098706Y-14384388D02*
X5089182Y-14346293D01*
X5089182Y-14346293D02*
X5089182Y-14298674D01*
X5089182Y-14298674D02*
X5098706Y-14260579D01*
X5098706Y-14260579D02*
X5108229Y-14241531D01*
X5108229Y-14241531D02*
X5117753Y-14232008D01*
X5117753Y-14232008D02*
X5136801Y-14222484D01*
X5317753Y-14308198D02*
X5298706Y-14298674D01*
X5298706Y-14298674D02*
X5289182Y-14289150D01*
X5289182Y-14289150D02*
X5279658Y-14270103D01*
X5279658Y-14270103D02*
X5279658Y-14260579D01*
X5279658Y-14260579D02*
X5289182Y-14241531D01*
X5289182Y-14241531D02*
X5298706Y-14232008D01*
X5298706Y-14232008D02*
X5317753Y-14222484D01*
X5317753Y-14222484D02*
X5355849Y-14222484D01*
X5355849Y-14222484D02*
X5374896Y-14232008D01*
X5374896Y-14232008D02*
X5384420Y-14241531D01*
X5384420Y-14241531D02*
X5393944Y-14260579D01*
X5393944Y-14260579D02*
X5393944Y-14270103D01*
X5393944Y-14270103D02*
X5384420Y-14289150D01*
X5384420Y-14289150D02*
X5374896Y-14298674D01*
X5374896Y-14298674D02*
X5355849Y-14308198D01*
X5355849Y-14308198D02*
X5317753Y-14308198D01*
X5317753Y-14308198D02*
X5298706Y-14317722D01*
X5298706Y-14317722D02*
X5289182Y-14327246D01*
X5289182Y-14327246D02*
X5279658Y-14346293D01*
X5279658Y-14346293D02*
X5279658Y-14384388D01*
X5279658Y-14384388D02*
X5289182Y-14403436D01*
X5289182Y-14403436D02*
X5298706Y-14412960D01*
X5298706Y-14412960D02*
X5317753Y-14422484D01*
X5317753Y-14422484D02*
X5355849Y-14422484D01*
X5355849Y-14422484D02*
X5374896Y-14412960D01*
X5374896Y-14412960D02*
X5384420Y-14403436D01*
X5384420Y-14403436D02*
X5393944Y-14384388D01*
X5393944Y-14384388D02*
X5393944Y-14346293D01*
X5393944Y-14346293D02*
X5384420Y-14327246D01*
X5384420Y-14327246D02*
X5374896Y-14317722D01*
X5374896Y-14317722D02*
X5355849Y-14308198D01*
X5470134Y-14222484D02*
X5470134Y-14260579D01*
X5546325Y-14222484D02*
X5546325Y-14260579D01*
X5841563Y-14498674D02*
X5832039Y-14489150D01*
X5832039Y-14489150D02*
X5812991Y-14460579D01*
X5812991Y-14460579D02*
X5803468Y-14441531D01*
X5803468Y-14441531D02*
X5793944Y-14412960D01*
X5793944Y-14412960D02*
X5784420Y-14365341D01*
X5784420Y-14365341D02*
X5784420Y-14327246D01*
X5784420Y-14327246D02*
X5793944Y-14279627D01*
X5793944Y-14279627D02*
X5803468Y-14251055D01*
X5803468Y-14251055D02*
X5812991Y-14232008D01*
X5812991Y-14232008D02*
X5832039Y-14203436D01*
X5832039Y-14203436D02*
X5841563Y-14193912D01*
X5908229Y-14241531D02*
X5917753Y-14232008D01*
X5917753Y-14232008D02*
X5936801Y-14222484D01*
X5936801Y-14222484D02*
X5984420Y-14222484D01*
X5984420Y-14222484D02*
X6003468Y-14232008D01*
X6003468Y-14232008D02*
X6012991Y-14241531D01*
X6012991Y-14241531D02*
X6022515Y-14260579D01*
X6022515Y-14260579D02*
X6022515Y-14279627D01*
X6022515Y-14279627D02*
X6012991Y-14308198D01*
X6012991Y-14308198D02*
X5898706Y-14422484D01*
X5898706Y-14422484D02*
X6022515Y-14422484D01*
X6260610Y-14422484D02*
X6260610Y-14222484D01*
X6346325Y-14422484D02*
X6346325Y-14317722D01*
X6346325Y-14317722D02*
X6336801Y-14298674D01*
X6336801Y-14298674D02*
X6317753Y-14289150D01*
X6317753Y-14289150D02*
X6289182Y-14289150D01*
X6289182Y-14289150D02*
X6270134Y-14298674D01*
X6270134Y-14298674D02*
X6260610Y-14308198D01*
X6470134Y-14422484D02*
X6451087Y-14412960D01*
X6451087Y-14412960D02*
X6441563Y-14403436D01*
X6441563Y-14403436D02*
X6432039Y-14384388D01*
X6432039Y-14384388D02*
X6432039Y-14327246D01*
X6432039Y-14327246D02*
X6441563Y-14308198D01*
X6441563Y-14308198D02*
X6451087Y-14298674D01*
X6451087Y-14298674D02*
X6470134Y-14289150D01*
X6470134Y-14289150D02*
X6498706Y-14289150D01*
X6498706Y-14289150D02*
X6517753Y-14298674D01*
X6517753Y-14298674D02*
X6527277Y-14308198D01*
X6527277Y-14308198D02*
X6536801Y-14327246D01*
X6536801Y-14327246D02*
X6536801Y-14384388D01*
X6536801Y-14384388D02*
X6527277Y-14403436D01*
X6527277Y-14403436D02*
X6517753Y-14412960D01*
X6517753Y-14412960D02*
X6498706Y-14422484D01*
X6498706Y-14422484D02*
X6470134Y-14422484D01*
X6651087Y-14422484D02*
X6632039Y-14412960D01*
X6632039Y-14412960D02*
X6622515Y-14393912D01*
X6622515Y-14393912D02*
X6622515Y-14222484D01*
X6803468Y-14412960D02*
X6784420Y-14422484D01*
X6784420Y-14422484D02*
X6746325Y-14422484D01*
X6746325Y-14422484D02*
X6727277Y-14412960D01*
X6727277Y-14412960D02*
X6717753Y-14393912D01*
X6717753Y-14393912D02*
X6717753Y-14317722D01*
X6717753Y-14317722D02*
X6727277Y-14298674D01*
X6727277Y-14298674D02*
X6746325Y-14289150D01*
X6746325Y-14289150D02*
X6784420Y-14289150D01*
X6784420Y-14289150D02*
X6803468Y-14298674D01*
X6803468Y-14298674D02*
X6812991Y-14317722D01*
X6812991Y-14317722D02*
X6812991Y-14336769D01*
X6812991Y-14336769D02*
X6717753Y-14355817D01*
X6889182Y-14412960D02*
X6908230Y-14422484D01*
X6908230Y-14422484D02*
X6946325Y-14422484D01*
X6946325Y-14422484D02*
X6965372Y-14412960D01*
X6965372Y-14412960D02*
X6974896Y-14393912D01*
X6974896Y-14393912D02*
X6974896Y-14384388D01*
X6974896Y-14384388D02*
X6965372Y-14365341D01*
X6965372Y-14365341D02*
X6946325Y-14355817D01*
X6946325Y-14355817D02*
X6917753Y-14355817D01*
X6917753Y-14355817D02*
X6898706Y-14346293D01*
X6898706Y-14346293D02*
X6889182Y-14327246D01*
X6889182Y-14327246D02*
X6889182Y-14317722D01*
X6889182Y-14317722D02*
X6898706Y-14298674D01*
X6898706Y-14298674D02*
X6917753Y-14289150D01*
X6917753Y-14289150D02*
X6946325Y-14289150D01*
X6946325Y-14289150D02*
X6965372Y-14298674D01*
X7041563Y-14498674D02*
X7051087Y-14489150D01*
X7051087Y-14489150D02*
X7070134Y-14460579D01*
X7070134Y-14460579D02*
X7079658Y-14441531D01*
X7079658Y-14441531D02*
X7089182Y-14412960D01*
X7089182Y-14412960D02*
X7098706Y-14365341D01*
X7098706Y-14365341D02*
X7098706Y-14327246D01*
X7098706Y-14327246D02*
X7089182Y-14279627D01*
X7089182Y-14279627D02*
X7079658Y-14251055D01*
X7079658Y-14251055D02*
X7070134Y-14232008D01*
X7070134Y-14232008D02*
X7051087Y-14203436D01*
X7051087Y-14203436D02*
X7041563Y-14193912D01*
X7403468Y-14498674D02*
X7393944Y-14489150D01*
X7393944Y-14489150D02*
X7374896Y-14460579D01*
X7374896Y-14460579D02*
X7365372Y-14441531D01*
X7365372Y-14441531D02*
X7355849Y-14412960D01*
X7355849Y-14412960D02*
X7346325Y-14365341D01*
X7346325Y-14365341D02*
X7346325Y-14327246D01*
X7346325Y-14327246D02*
X7355849Y-14279627D01*
X7355849Y-14279627D02*
X7365372Y-14251055D01*
X7365372Y-14251055D02*
X7374896Y-14232008D01*
X7374896Y-14232008D02*
X7393944Y-14203436D01*
X7393944Y-14203436D02*
X7403468Y-14193912D01*
X7479658Y-14289150D02*
X7479658Y-14422484D01*
X7479658Y-14308198D02*
X7489182Y-14298674D01*
X7489182Y-14298674D02*
X7508230Y-14289150D01*
X7508230Y-14289150D02*
X7536801Y-14289150D01*
X7536801Y-14289150D02*
X7555849Y-14298674D01*
X7555849Y-14298674D02*
X7565372Y-14317722D01*
X7565372Y-14317722D02*
X7565372Y-14422484D01*
X7689182Y-14422484D02*
X7670134Y-14412960D01*
X7670134Y-14412960D02*
X7660611Y-14403436D01*
X7660611Y-14403436D02*
X7651087Y-14384388D01*
X7651087Y-14384388D02*
X7651087Y-14327246D01*
X7651087Y-14327246D02*
X7660611Y-14308198D01*
X7660611Y-14308198D02*
X7670134Y-14298674D01*
X7670134Y-14298674D02*
X7689182Y-14289150D01*
X7689182Y-14289150D02*
X7717753Y-14289150D01*
X7717753Y-14289150D02*
X7736801Y-14298674D01*
X7736801Y-14298674D02*
X7746325Y-14308198D01*
X7746325Y-14308198D02*
X7755849Y-14327246D01*
X7755849Y-14327246D02*
X7755849Y-14384388D01*
X7755849Y-14384388D02*
X7746325Y-14403436D01*
X7746325Y-14403436D02*
X7736801Y-14412960D01*
X7736801Y-14412960D02*
X7717753Y-14422484D01*
X7717753Y-14422484D02*
X7689182Y-14422484D01*
X7812992Y-14289150D02*
X7889182Y-14289150D01*
X7841563Y-14222484D02*
X7841563Y-14393912D01*
X7841563Y-14393912D02*
X7851087Y-14412960D01*
X7851087Y-14412960D02*
X7870134Y-14422484D01*
X7870134Y-14422484D02*
X7889182Y-14422484D01*
X8108230Y-14289150D02*
X8108230Y-14489150D01*
X8108230Y-14298674D02*
X8127277Y-14289150D01*
X8127277Y-14289150D02*
X8165373Y-14289150D01*
X8165373Y-14289150D02*
X8184420Y-14298674D01*
X8184420Y-14298674D02*
X8193944Y-14308198D01*
X8193944Y-14308198D02*
X8203468Y-14327246D01*
X8203468Y-14327246D02*
X8203468Y-14384388D01*
X8203468Y-14384388D02*
X8193944Y-14403436D01*
X8193944Y-14403436D02*
X8184420Y-14412960D01*
X8184420Y-14412960D02*
X8165373Y-14422484D01*
X8165373Y-14422484D02*
X8127277Y-14422484D01*
X8127277Y-14422484D02*
X8108230Y-14412960D01*
X8317753Y-14422484D02*
X8298706Y-14412960D01*
X8298706Y-14412960D02*
X8289182Y-14393912D01*
X8289182Y-14393912D02*
X8289182Y-14222484D01*
X8479658Y-14422484D02*
X8479658Y-14317722D01*
X8479658Y-14317722D02*
X8470135Y-14298674D01*
X8470135Y-14298674D02*
X8451087Y-14289150D01*
X8451087Y-14289150D02*
X8412992Y-14289150D01*
X8412992Y-14289150D02*
X8393944Y-14298674D01*
X8479658Y-14412960D02*
X8460611Y-14422484D01*
X8460611Y-14422484D02*
X8412992Y-14422484D01*
X8412992Y-14422484D02*
X8393944Y-14412960D01*
X8393944Y-14412960D02*
X8384420Y-14393912D01*
X8384420Y-14393912D02*
X8384420Y-14374865D01*
X8384420Y-14374865D02*
X8393944Y-14355817D01*
X8393944Y-14355817D02*
X8412992Y-14346293D01*
X8412992Y-14346293D02*
X8460611Y-14346293D01*
X8460611Y-14346293D02*
X8479658Y-14336769D01*
X8546325Y-14289150D02*
X8622515Y-14289150D01*
X8574896Y-14222484D02*
X8574896Y-14393912D01*
X8574896Y-14393912D02*
X8584420Y-14412960D01*
X8584420Y-14412960D02*
X8603468Y-14422484D01*
X8603468Y-14422484D02*
X8622515Y-14422484D01*
X8765373Y-14412960D02*
X8746325Y-14422484D01*
X8746325Y-14422484D02*
X8708230Y-14422484D01*
X8708230Y-14422484D02*
X8689182Y-14412960D01*
X8689182Y-14412960D02*
X8679658Y-14393912D01*
X8679658Y-14393912D02*
X8679658Y-14317722D01*
X8679658Y-14317722D02*
X8689182Y-14298674D01*
X8689182Y-14298674D02*
X8708230Y-14289150D01*
X8708230Y-14289150D02*
X8746325Y-14289150D01*
X8746325Y-14289150D02*
X8765373Y-14298674D01*
X8765373Y-14298674D02*
X8774896Y-14317722D01*
X8774896Y-14317722D02*
X8774896Y-14336769D01*
X8774896Y-14336769D02*
X8679658Y-14355817D01*
X8946325Y-14422484D02*
X8946325Y-14222484D01*
X8946325Y-14412960D02*
X8927277Y-14422484D01*
X8927277Y-14422484D02*
X8889182Y-14422484D01*
X8889182Y-14422484D02*
X8870135Y-14412960D01*
X8870135Y-14412960D02*
X8860611Y-14403436D01*
X8860611Y-14403436D02*
X8851087Y-14384388D01*
X8851087Y-14384388D02*
X8851087Y-14327246D01*
X8851087Y-14327246D02*
X8860611Y-14308198D01*
X8860611Y-14308198D02*
X8870135Y-14298674D01*
X8870135Y-14298674D02*
X8889182Y-14289150D01*
X8889182Y-14289150D02*
X8927277Y-14289150D01*
X8927277Y-14289150D02*
X8946325Y-14298674D01*
X9022516Y-14498674D02*
X9032039Y-14489150D01*
X9032039Y-14489150D02*
X9051087Y-14460579D01*
X9051087Y-14460579D02*
X9060611Y-14441531D01*
X9060611Y-14441531D02*
X9070135Y-14412960D01*
X9070135Y-14412960D02*
X9079658Y-14365341D01*
X9079658Y-14365341D02*
X9079658Y-14327246D01*
X9079658Y-14327246D02*
X9070135Y-14279627D01*
X9070135Y-14279627D02*
X9060611Y-14251055D01*
X9060611Y-14251055D02*
X9051087Y-14232008D01*
X9051087Y-14232008D02*
X9032039Y-14203436D01*
X9032039Y-14203436D02*
X9022516Y-14193912D01*
X2066500Y-14551000D02*
X2266500Y-14751000D01*
X2266500Y-14551000D02*
X2066500Y-14751000D01*
X2266500Y-14651000D02*
G75*
G03*
X2266500Y-14651000I-100000J0D01*
G01*
X2508229Y-14542484D02*
X2632039Y-14542484D01*
X2632039Y-14542484D02*
X2565372Y-14618674D01*
X2565372Y-14618674D02*
X2593944Y-14618674D01*
X2593944Y-14618674D02*
X2612991Y-14628198D01*
X2612991Y-14628198D02*
X2622515Y-14637722D01*
X2622515Y-14637722D02*
X2632039Y-14656769D01*
X2632039Y-14656769D02*
X2632039Y-14704388D01*
X2632039Y-14704388D02*
X2622515Y-14723436D01*
X2622515Y-14723436D02*
X2612991Y-14732960D01*
X2612991Y-14732960D02*
X2593944Y-14742484D01*
X2593944Y-14742484D02*
X2536801Y-14742484D01*
X2536801Y-14742484D02*
X2517753Y-14732960D01*
X2517753Y-14732960D02*
X2508229Y-14723436D01*
X2717753Y-14723436D02*
X2727277Y-14732960D01*
X2727277Y-14732960D02*
X2717753Y-14742484D01*
X2717753Y-14742484D02*
X2708229Y-14732960D01*
X2708229Y-14732960D02*
X2717753Y-14723436D01*
X2717753Y-14723436D02*
X2717753Y-14742484D01*
X2917753Y-14742484D02*
X2803467Y-14742484D01*
X2860610Y-14742484D02*
X2860610Y-14542484D01*
X2860610Y-14542484D02*
X2841562Y-14571055D01*
X2841562Y-14571055D02*
X2822515Y-14590103D01*
X2822515Y-14590103D02*
X2803467Y-14599627D01*
X3032039Y-14628198D02*
X3012991Y-14618674D01*
X3012991Y-14618674D02*
X3003467Y-14609150D01*
X3003467Y-14609150D02*
X2993943Y-14590103D01*
X2993943Y-14590103D02*
X2993943Y-14580579D01*
X2993943Y-14580579D02*
X3003467Y-14561531D01*
X3003467Y-14561531D02*
X3012991Y-14552008D01*
X3012991Y-14552008D02*
X3032039Y-14542484D01*
X3032039Y-14542484D02*
X3070134Y-14542484D01*
X3070134Y-14542484D02*
X3089182Y-14552008D01*
X3089182Y-14552008D02*
X3098705Y-14561531D01*
X3098705Y-14561531D02*
X3108229Y-14580579D01*
X3108229Y-14580579D02*
X3108229Y-14590103D01*
X3108229Y-14590103D02*
X3098705Y-14609150D01*
X3098705Y-14609150D02*
X3089182Y-14618674D01*
X3089182Y-14618674D02*
X3070134Y-14628198D01*
X3070134Y-14628198D02*
X3032039Y-14628198D01*
X3032039Y-14628198D02*
X3012991Y-14637722D01*
X3012991Y-14637722D02*
X3003467Y-14647246D01*
X3003467Y-14647246D02*
X2993943Y-14666293D01*
X2993943Y-14666293D02*
X2993943Y-14704388D01*
X2993943Y-14704388D02*
X3003467Y-14723436D01*
X3003467Y-14723436D02*
X3012991Y-14732960D01*
X3012991Y-14732960D02*
X3032039Y-14742484D01*
X3032039Y-14742484D02*
X3070134Y-14742484D01*
X3070134Y-14742484D02*
X3089182Y-14732960D01*
X3089182Y-14732960D02*
X3098705Y-14723436D01*
X3098705Y-14723436D02*
X3108229Y-14704388D01*
X3108229Y-14704388D02*
X3108229Y-14666293D01*
X3108229Y-14666293D02*
X3098705Y-14647246D01*
X3098705Y-14647246D02*
X3089182Y-14637722D01*
X3089182Y-14637722D02*
X3070134Y-14628198D01*
X3232039Y-14542484D02*
X3251086Y-14542484D01*
X3251086Y-14542484D02*
X3270134Y-14552008D01*
X3270134Y-14552008D02*
X3279658Y-14561531D01*
X3279658Y-14561531D02*
X3289182Y-14580579D01*
X3289182Y-14580579D02*
X3298705Y-14618674D01*
X3298705Y-14618674D02*
X3298705Y-14666293D01*
X3298705Y-14666293D02*
X3289182Y-14704388D01*
X3289182Y-14704388D02*
X3279658Y-14723436D01*
X3279658Y-14723436D02*
X3270134Y-14732960D01*
X3270134Y-14732960D02*
X3251086Y-14742484D01*
X3251086Y-14742484D02*
X3232039Y-14742484D01*
X3232039Y-14742484D02*
X3212991Y-14732960D01*
X3212991Y-14732960D02*
X3203467Y-14723436D01*
X3203467Y-14723436D02*
X3193943Y-14704388D01*
X3193943Y-14704388D02*
X3184420Y-14666293D01*
X3184420Y-14666293D02*
X3184420Y-14618674D01*
X3184420Y-14618674D02*
X3193943Y-14580579D01*
X3193943Y-14580579D02*
X3203467Y-14561531D01*
X3203467Y-14561531D02*
X3212991Y-14552008D01*
X3212991Y-14552008D02*
X3232039Y-14542484D01*
X3384420Y-14742484D02*
X3384420Y-14609150D01*
X3384420Y-14628198D02*
X3393943Y-14618674D01*
X3393943Y-14618674D02*
X3412991Y-14609150D01*
X3412991Y-14609150D02*
X3441563Y-14609150D01*
X3441563Y-14609150D02*
X3460610Y-14618674D01*
X3460610Y-14618674D02*
X3470134Y-14637722D01*
X3470134Y-14637722D02*
X3470134Y-14742484D01*
X3470134Y-14637722D02*
X3479658Y-14618674D01*
X3479658Y-14618674D02*
X3498705Y-14609150D01*
X3498705Y-14609150D02*
X3527277Y-14609150D01*
X3527277Y-14609150D02*
X3546324Y-14618674D01*
X3546324Y-14618674D02*
X3555848Y-14637722D01*
X3555848Y-14637722D02*
X3555848Y-14742484D01*
X3651086Y-14742484D02*
X3651086Y-14609150D01*
X3651086Y-14628198D02*
X3660610Y-14618674D01*
X3660610Y-14618674D02*
X3679658Y-14609150D01*
X3679658Y-14609150D02*
X3708229Y-14609150D01*
X3708229Y-14609150D02*
X3727277Y-14618674D01*
X3727277Y-14618674D02*
X3736801Y-14637722D01*
X3736801Y-14637722D02*
X3736801Y-14742484D01*
X3736801Y-14637722D02*
X3746324Y-14618674D01*
X3746324Y-14618674D02*
X3765372Y-14609150D01*
X3765372Y-14609150D02*
X3793943Y-14609150D01*
X3793943Y-14609150D02*
X3812991Y-14618674D01*
X3812991Y-14618674D02*
X3822515Y-14637722D01*
X3822515Y-14637722D02*
X3822515Y-14742484D01*
X4212991Y-14532960D02*
X4041563Y-14790103D01*
X4470134Y-14542484D02*
X4489182Y-14542484D01*
X4489182Y-14542484D02*
X4508229Y-14552008D01*
X4508229Y-14552008D02*
X4517753Y-14561531D01*
X4517753Y-14561531D02*
X4527277Y-14580579D01*
X4527277Y-14580579D02*
X4536801Y-14618674D01*
X4536801Y-14618674D02*
X4536801Y-14666293D01*
X4536801Y-14666293D02*
X4527277Y-14704388D01*
X4527277Y-14704388D02*
X4517753Y-14723436D01*
X4517753Y-14723436D02*
X4508229Y-14732960D01*
X4508229Y-14732960D02*
X4489182Y-14742484D01*
X4489182Y-14742484D02*
X4470134Y-14742484D01*
X4470134Y-14742484D02*
X4451087Y-14732960D01*
X4451087Y-14732960D02*
X4441563Y-14723436D01*
X4441563Y-14723436D02*
X4432039Y-14704388D01*
X4432039Y-14704388D02*
X4422515Y-14666293D01*
X4422515Y-14666293D02*
X4422515Y-14618674D01*
X4422515Y-14618674D02*
X4432039Y-14580579D01*
X4432039Y-14580579D02*
X4441563Y-14561531D01*
X4441563Y-14561531D02*
X4451087Y-14552008D01*
X4451087Y-14552008D02*
X4470134Y-14542484D01*
X4622515Y-14723436D02*
X4632039Y-14732960D01*
X4632039Y-14732960D02*
X4622515Y-14742484D01*
X4622515Y-14742484D02*
X4612991Y-14732960D01*
X4612991Y-14732960D02*
X4622515Y-14723436D01*
X4622515Y-14723436D02*
X4622515Y-14742484D01*
X4822515Y-14742484D02*
X4708229Y-14742484D01*
X4765372Y-14742484D02*
X4765372Y-14542484D01*
X4765372Y-14542484D02*
X4746325Y-14571055D01*
X4746325Y-14571055D02*
X4727277Y-14590103D01*
X4727277Y-14590103D02*
X4708229Y-14599627D01*
X4898706Y-14561531D02*
X4908229Y-14552008D01*
X4908229Y-14552008D02*
X4927277Y-14542484D01*
X4927277Y-14542484D02*
X4974896Y-14542484D01*
X4974896Y-14542484D02*
X4993944Y-14552008D01*
X4993944Y-14552008D02*
X5003468Y-14561531D01*
X5003468Y-14561531D02*
X5012991Y-14580579D01*
X5012991Y-14580579D02*
X5012991Y-14599627D01*
X5012991Y-14599627D02*
X5003468Y-14628198D01*
X5003468Y-14628198D02*
X4889182Y-14742484D01*
X4889182Y-14742484D02*
X5012991Y-14742484D01*
X5193944Y-14542484D02*
X5098706Y-14542484D01*
X5098706Y-14542484D02*
X5089182Y-14637722D01*
X5089182Y-14637722D02*
X5098706Y-14628198D01*
X5098706Y-14628198D02*
X5117753Y-14618674D01*
X5117753Y-14618674D02*
X5165372Y-14618674D01*
X5165372Y-14618674D02*
X5184420Y-14628198D01*
X5184420Y-14628198D02*
X5193944Y-14637722D01*
X5193944Y-14637722D02*
X5203468Y-14656769D01*
X5203468Y-14656769D02*
X5203468Y-14704388D01*
X5203468Y-14704388D02*
X5193944Y-14723436D01*
X5193944Y-14723436D02*
X5184420Y-14732960D01*
X5184420Y-14732960D02*
X5165372Y-14742484D01*
X5165372Y-14742484D02*
X5117753Y-14742484D01*
X5117753Y-14742484D02*
X5098706Y-14732960D01*
X5098706Y-14732960D02*
X5089182Y-14723436D01*
X5279658Y-14561531D02*
X5289182Y-14552008D01*
X5289182Y-14552008D02*
X5308229Y-14542484D01*
X5308229Y-14542484D02*
X5355849Y-14542484D01*
X5355849Y-14542484D02*
X5374896Y-14552008D01*
X5374896Y-14552008D02*
X5384420Y-14561531D01*
X5384420Y-14561531D02*
X5393944Y-14580579D01*
X5393944Y-14580579D02*
X5393944Y-14599627D01*
X5393944Y-14599627D02*
X5384420Y-14628198D01*
X5384420Y-14628198D02*
X5270134Y-14742484D01*
X5270134Y-14742484D02*
X5393944Y-14742484D01*
X5470134Y-14542484D02*
X5470134Y-14580579D01*
X5546325Y-14542484D02*
X5546325Y-14580579D01*
X5841563Y-14818674D02*
X5832039Y-14809150D01*
X5832039Y-14809150D02*
X5812991Y-14780579D01*
X5812991Y-14780579D02*
X5803468Y-14761531D01*
X5803468Y-14761531D02*
X5793944Y-14732960D01*
X5793944Y-14732960D02*
X5784420Y-14685341D01*
X5784420Y-14685341D02*
X5784420Y-14647246D01*
X5784420Y-14647246D02*
X5793944Y-14599627D01*
X5793944Y-14599627D02*
X5803468Y-14571055D01*
X5803468Y-14571055D02*
X5812991Y-14552008D01*
X5812991Y-14552008D02*
X5832039Y-14523436D01*
X5832039Y-14523436D02*
X5841563Y-14513912D01*
X6022515Y-14742484D02*
X5908229Y-14742484D01*
X5965372Y-14742484D02*
X5965372Y-14542484D01*
X5965372Y-14542484D02*
X5946325Y-14571055D01*
X5946325Y-14571055D02*
X5927277Y-14590103D01*
X5927277Y-14590103D02*
X5908229Y-14599627D01*
X6260610Y-14742484D02*
X6260610Y-14542484D01*
X6346325Y-14742484D02*
X6346325Y-14637722D01*
X6346325Y-14637722D02*
X6336801Y-14618674D01*
X6336801Y-14618674D02*
X6317753Y-14609150D01*
X6317753Y-14609150D02*
X6289182Y-14609150D01*
X6289182Y-14609150D02*
X6270134Y-14618674D01*
X6270134Y-14618674D02*
X6260610Y-14628198D01*
X6470134Y-14742484D02*
X6451087Y-14732960D01*
X6451087Y-14732960D02*
X6441563Y-14723436D01*
X6441563Y-14723436D02*
X6432039Y-14704388D01*
X6432039Y-14704388D02*
X6432039Y-14647246D01*
X6432039Y-14647246D02*
X6441563Y-14628198D01*
X6441563Y-14628198D02*
X6451087Y-14618674D01*
X6451087Y-14618674D02*
X6470134Y-14609150D01*
X6470134Y-14609150D02*
X6498706Y-14609150D01*
X6498706Y-14609150D02*
X6517753Y-14618674D01*
X6517753Y-14618674D02*
X6527277Y-14628198D01*
X6527277Y-14628198D02*
X6536801Y-14647246D01*
X6536801Y-14647246D02*
X6536801Y-14704388D01*
X6536801Y-14704388D02*
X6527277Y-14723436D01*
X6527277Y-14723436D02*
X6517753Y-14732960D01*
X6517753Y-14732960D02*
X6498706Y-14742484D01*
X6498706Y-14742484D02*
X6470134Y-14742484D01*
X6651087Y-14742484D02*
X6632039Y-14732960D01*
X6632039Y-14732960D02*
X6622515Y-14713912D01*
X6622515Y-14713912D02*
X6622515Y-14542484D01*
X6803468Y-14732960D02*
X6784420Y-14742484D01*
X6784420Y-14742484D02*
X6746325Y-14742484D01*
X6746325Y-14742484D02*
X6727277Y-14732960D01*
X6727277Y-14732960D02*
X6717753Y-14713912D01*
X6717753Y-14713912D02*
X6717753Y-14637722D01*
X6717753Y-14637722D02*
X6727277Y-14618674D01*
X6727277Y-14618674D02*
X6746325Y-14609150D01*
X6746325Y-14609150D02*
X6784420Y-14609150D01*
X6784420Y-14609150D02*
X6803468Y-14618674D01*
X6803468Y-14618674D02*
X6812991Y-14637722D01*
X6812991Y-14637722D02*
X6812991Y-14656769D01*
X6812991Y-14656769D02*
X6717753Y-14675817D01*
X6879658Y-14818674D02*
X6889182Y-14809150D01*
X6889182Y-14809150D02*
X6908230Y-14780579D01*
X6908230Y-14780579D02*
X6917753Y-14761531D01*
X6917753Y-14761531D02*
X6927277Y-14732960D01*
X6927277Y-14732960D02*
X6936801Y-14685341D01*
X6936801Y-14685341D02*
X6936801Y-14647246D01*
X6936801Y-14647246D02*
X6927277Y-14599627D01*
X6927277Y-14599627D02*
X6917753Y-14571055D01*
X6917753Y-14571055D02*
X6908230Y-14552008D01*
X6908230Y-14552008D02*
X6889182Y-14523436D01*
X6889182Y-14523436D02*
X6879658Y-14513912D01*
X7241563Y-14818674D02*
X7232039Y-14809150D01*
X7232039Y-14809150D02*
X7212991Y-14780579D01*
X7212991Y-14780579D02*
X7203468Y-14761531D01*
X7203468Y-14761531D02*
X7193944Y-14732960D01*
X7193944Y-14732960D02*
X7184420Y-14685341D01*
X7184420Y-14685341D02*
X7184420Y-14647246D01*
X7184420Y-14647246D02*
X7193944Y-14599627D01*
X7193944Y-14599627D02*
X7203468Y-14571055D01*
X7203468Y-14571055D02*
X7212991Y-14552008D01*
X7212991Y-14552008D02*
X7232039Y-14523436D01*
X7232039Y-14523436D02*
X7241563Y-14513912D01*
X7317753Y-14609150D02*
X7317753Y-14742484D01*
X7317753Y-14628198D02*
X7327277Y-14618674D01*
X7327277Y-14618674D02*
X7346325Y-14609150D01*
X7346325Y-14609150D02*
X7374896Y-14609150D01*
X7374896Y-14609150D02*
X7393944Y-14618674D01*
X7393944Y-14618674D02*
X7403468Y-14637722D01*
X7403468Y-14637722D02*
X7403468Y-14742484D01*
X7527277Y-14742484D02*
X7508230Y-14732960D01*
X7508230Y-14732960D02*
X7498706Y-14723436D01*
X7498706Y-14723436D02*
X7489182Y-14704388D01*
X7489182Y-14704388D02*
X7489182Y-14647246D01*
X7489182Y-14647246D02*
X7498706Y-14628198D01*
X7498706Y-14628198D02*
X7508230Y-14618674D01*
X7508230Y-14618674D02*
X7527277Y-14609150D01*
X7527277Y-14609150D02*
X7555849Y-14609150D01*
X7555849Y-14609150D02*
X7574896Y-14618674D01*
X7574896Y-14618674D02*
X7584420Y-14628198D01*
X7584420Y-14628198D02*
X7593944Y-14647246D01*
X7593944Y-14647246D02*
X7593944Y-14704388D01*
X7593944Y-14704388D02*
X7584420Y-14723436D01*
X7584420Y-14723436D02*
X7574896Y-14732960D01*
X7574896Y-14732960D02*
X7555849Y-14742484D01*
X7555849Y-14742484D02*
X7527277Y-14742484D01*
X7651087Y-14609150D02*
X7727277Y-14609150D01*
X7679658Y-14542484D02*
X7679658Y-14713912D01*
X7679658Y-14713912D02*
X7689182Y-14732960D01*
X7689182Y-14732960D02*
X7708230Y-14742484D01*
X7708230Y-14742484D02*
X7727277Y-14742484D01*
X7946325Y-14609150D02*
X7946325Y-14809150D01*
X7946325Y-14618674D02*
X7965372Y-14609150D01*
X7965372Y-14609150D02*
X8003468Y-14609150D01*
X8003468Y-14609150D02*
X8022515Y-14618674D01*
X8022515Y-14618674D02*
X8032039Y-14628198D01*
X8032039Y-14628198D02*
X8041563Y-14647246D01*
X8041563Y-14647246D02*
X8041563Y-14704388D01*
X8041563Y-14704388D02*
X8032039Y-14723436D01*
X8032039Y-14723436D02*
X8022515Y-14732960D01*
X8022515Y-14732960D02*
X8003468Y-14742484D01*
X8003468Y-14742484D02*
X7965372Y-14742484D01*
X7965372Y-14742484D02*
X7946325Y-14732960D01*
X8155849Y-14742484D02*
X8136801Y-14732960D01*
X8136801Y-14732960D02*
X8127277Y-14713912D01*
X8127277Y-14713912D02*
X8127277Y-14542484D01*
X8317753Y-14742484D02*
X8317753Y-14637722D01*
X8317753Y-14637722D02*
X8308230Y-14618674D01*
X8308230Y-14618674D02*
X8289182Y-14609150D01*
X8289182Y-14609150D02*
X8251087Y-14609150D01*
X8251087Y-14609150D02*
X8232039Y-14618674D01*
X8317753Y-14732960D02*
X8298706Y-14742484D01*
X8298706Y-14742484D02*
X8251087Y-14742484D01*
X8251087Y-14742484D02*
X8232039Y-14732960D01*
X8232039Y-14732960D02*
X8222515Y-14713912D01*
X8222515Y-14713912D02*
X8222515Y-14694865D01*
X8222515Y-14694865D02*
X8232039Y-14675817D01*
X8232039Y-14675817D02*
X8251087Y-14666293D01*
X8251087Y-14666293D02*
X8298706Y-14666293D01*
X8298706Y-14666293D02*
X8317753Y-14656769D01*
X8384420Y-14609150D02*
X8460611Y-14609150D01*
X8412992Y-14542484D02*
X8412992Y-14713912D01*
X8412992Y-14713912D02*
X8422515Y-14732960D01*
X8422515Y-14732960D02*
X8441563Y-14742484D01*
X8441563Y-14742484D02*
X8460611Y-14742484D01*
X8603468Y-14732960D02*
X8584420Y-14742484D01*
X8584420Y-14742484D02*
X8546325Y-14742484D01*
X8546325Y-14742484D02*
X8527277Y-14732960D01*
X8527277Y-14732960D02*
X8517754Y-14713912D01*
X8517754Y-14713912D02*
X8517754Y-14637722D01*
X8517754Y-14637722D02*
X8527277Y-14618674D01*
X8527277Y-14618674D02*
X8546325Y-14609150D01*
X8546325Y-14609150D02*
X8584420Y-14609150D01*
X8584420Y-14609150D02*
X8603468Y-14618674D01*
X8603468Y-14618674D02*
X8612992Y-14637722D01*
X8612992Y-14637722D02*
X8612992Y-14656769D01*
X8612992Y-14656769D02*
X8517754Y-14675817D01*
X8784420Y-14742484D02*
X8784420Y-14542484D01*
X8784420Y-14732960D02*
X8765373Y-14742484D01*
X8765373Y-14742484D02*
X8727277Y-14742484D01*
X8727277Y-14742484D02*
X8708230Y-14732960D01*
X8708230Y-14732960D02*
X8698706Y-14723436D01*
X8698706Y-14723436D02*
X8689182Y-14704388D01*
X8689182Y-14704388D02*
X8689182Y-14647246D01*
X8689182Y-14647246D02*
X8698706Y-14628198D01*
X8698706Y-14628198D02*
X8708230Y-14618674D01*
X8708230Y-14618674D02*
X8727277Y-14609150D01*
X8727277Y-14609150D02*
X8765373Y-14609150D01*
X8765373Y-14609150D02*
X8784420Y-14618674D01*
X8860611Y-14818674D02*
X8870135Y-14809150D01*
X8870135Y-14809150D02*
X8889182Y-14780579D01*
X8889182Y-14780579D02*
X8898706Y-14761531D01*
X8898706Y-14761531D02*
X8908230Y-14732960D01*
X8908230Y-14732960D02*
X8917754Y-14685341D01*
X8917754Y-14685341D02*
X8917754Y-14647246D01*
X8917754Y-14647246D02*
X8908230Y-14599627D01*
X8908230Y-14599627D02*
X8898706Y-14571055D01*
X8898706Y-14571055D02*
X8889182Y-14552008D01*
X8889182Y-14552008D02*
X8870135Y-14523436D01*
X8870135Y-14523436D02*
X8860611Y-14513912D01*
X2066500Y-14871000D02*
X2266500Y-15071000D01*
X2266500Y-14871000D02*
X2066500Y-15071000D01*
X2166500Y-14871000D02*
X2166500Y-15071000D01*
X2066500Y-14971000D02*
X2266500Y-14971000D01*
X2508229Y-14862484D02*
X2632039Y-14862484D01*
X2632039Y-14862484D02*
X2565372Y-14938674D01*
X2565372Y-14938674D02*
X2593944Y-14938674D01*
X2593944Y-14938674D02*
X2612991Y-14948198D01*
X2612991Y-14948198D02*
X2622515Y-14957722D01*
X2622515Y-14957722D02*
X2632039Y-14976769D01*
X2632039Y-14976769D02*
X2632039Y-15024388D01*
X2632039Y-15024388D02*
X2622515Y-15043436D01*
X2622515Y-15043436D02*
X2612991Y-15052960D01*
X2612991Y-15052960D02*
X2593944Y-15062484D01*
X2593944Y-15062484D02*
X2536801Y-15062484D01*
X2536801Y-15062484D02*
X2517753Y-15052960D01*
X2517753Y-15052960D02*
X2508229Y-15043436D01*
X2717753Y-15043436D02*
X2727277Y-15052960D01*
X2727277Y-15052960D02*
X2717753Y-15062484D01*
X2717753Y-15062484D02*
X2708229Y-15052960D01*
X2708229Y-15052960D02*
X2717753Y-15043436D01*
X2717753Y-15043436D02*
X2717753Y-15062484D01*
X2803467Y-14881531D02*
X2812991Y-14872008D01*
X2812991Y-14872008D02*
X2832039Y-14862484D01*
X2832039Y-14862484D02*
X2879658Y-14862484D01*
X2879658Y-14862484D02*
X2898705Y-14872008D01*
X2898705Y-14872008D02*
X2908229Y-14881531D01*
X2908229Y-14881531D02*
X2917753Y-14900579D01*
X2917753Y-14900579D02*
X2917753Y-14919627D01*
X2917753Y-14919627D02*
X2908229Y-14948198D01*
X2908229Y-14948198D02*
X2793944Y-15062484D01*
X2793944Y-15062484D02*
X2917753Y-15062484D01*
X3041562Y-14862484D02*
X3060610Y-14862484D01*
X3060610Y-14862484D02*
X3079658Y-14872008D01*
X3079658Y-14872008D02*
X3089182Y-14881531D01*
X3089182Y-14881531D02*
X3098705Y-14900579D01*
X3098705Y-14900579D02*
X3108229Y-14938674D01*
X3108229Y-14938674D02*
X3108229Y-14986293D01*
X3108229Y-14986293D02*
X3098705Y-15024388D01*
X3098705Y-15024388D02*
X3089182Y-15043436D01*
X3089182Y-15043436D02*
X3079658Y-15052960D01*
X3079658Y-15052960D02*
X3060610Y-15062484D01*
X3060610Y-15062484D02*
X3041562Y-15062484D01*
X3041562Y-15062484D02*
X3022515Y-15052960D01*
X3022515Y-15052960D02*
X3012991Y-15043436D01*
X3012991Y-15043436D02*
X3003467Y-15024388D01*
X3003467Y-15024388D02*
X2993943Y-14986293D01*
X2993943Y-14986293D02*
X2993943Y-14938674D01*
X2993943Y-14938674D02*
X3003467Y-14900579D01*
X3003467Y-14900579D02*
X3012991Y-14881531D01*
X3012991Y-14881531D02*
X3022515Y-14872008D01*
X3022515Y-14872008D02*
X3041562Y-14862484D01*
X3232039Y-14862484D02*
X3251086Y-14862484D01*
X3251086Y-14862484D02*
X3270134Y-14872008D01*
X3270134Y-14872008D02*
X3279658Y-14881531D01*
X3279658Y-14881531D02*
X3289182Y-14900579D01*
X3289182Y-14900579D02*
X3298705Y-14938674D01*
X3298705Y-14938674D02*
X3298705Y-14986293D01*
X3298705Y-14986293D02*
X3289182Y-15024388D01*
X3289182Y-15024388D02*
X3279658Y-15043436D01*
X3279658Y-15043436D02*
X3270134Y-15052960D01*
X3270134Y-15052960D02*
X3251086Y-15062484D01*
X3251086Y-15062484D02*
X3232039Y-15062484D01*
X3232039Y-15062484D02*
X3212991Y-15052960D01*
X3212991Y-15052960D02*
X3203467Y-15043436D01*
X3203467Y-15043436D02*
X3193943Y-15024388D01*
X3193943Y-15024388D02*
X3184420Y-14986293D01*
X3184420Y-14986293D02*
X3184420Y-14938674D01*
X3184420Y-14938674D02*
X3193943Y-14900579D01*
X3193943Y-14900579D02*
X3203467Y-14881531D01*
X3203467Y-14881531D02*
X3212991Y-14872008D01*
X3212991Y-14872008D02*
X3232039Y-14862484D01*
X3384420Y-15062484D02*
X3384420Y-14929150D01*
X3384420Y-14948198D02*
X3393943Y-14938674D01*
X3393943Y-14938674D02*
X3412991Y-14929150D01*
X3412991Y-14929150D02*
X3441563Y-14929150D01*
X3441563Y-14929150D02*
X3460610Y-14938674D01*
X3460610Y-14938674D02*
X3470134Y-14957722D01*
X3470134Y-14957722D02*
X3470134Y-15062484D01*
X3470134Y-14957722D02*
X3479658Y-14938674D01*
X3479658Y-14938674D02*
X3498705Y-14929150D01*
X3498705Y-14929150D02*
X3527277Y-14929150D01*
X3527277Y-14929150D02*
X3546324Y-14938674D01*
X3546324Y-14938674D02*
X3555848Y-14957722D01*
X3555848Y-14957722D02*
X3555848Y-15062484D01*
X3651086Y-15062484D02*
X3651086Y-14929150D01*
X3651086Y-14948198D02*
X3660610Y-14938674D01*
X3660610Y-14938674D02*
X3679658Y-14929150D01*
X3679658Y-14929150D02*
X3708229Y-14929150D01*
X3708229Y-14929150D02*
X3727277Y-14938674D01*
X3727277Y-14938674D02*
X3736801Y-14957722D01*
X3736801Y-14957722D02*
X3736801Y-15062484D01*
X3736801Y-14957722D02*
X3746324Y-14938674D01*
X3746324Y-14938674D02*
X3765372Y-14929150D01*
X3765372Y-14929150D02*
X3793943Y-14929150D01*
X3793943Y-14929150D02*
X3812991Y-14938674D01*
X3812991Y-14938674D02*
X3822515Y-14957722D01*
X3822515Y-14957722D02*
X3822515Y-15062484D01*
X4212991Y-14852960D02*
X4041563Y-15110103D01*
X4470134Y-14862484D02*
X4489182Y-14862484D01*
X4489182Y-14862484D02*
X4508229Y-14872008D01*
X4508229Y-14872008D02*
X4517753Y-14881531D01*
X4517753Y-14881531D02*
X4527277Y-14900579D01*
X4527277Y-14900579D02*
X4536801Y-14938674D01*
X4536801Y-14938674D02*
X4536801Y-14986293D01*
X4536801Y-14986293D02*
X4527277Y-15024388D01*
X4527277Y-15024388D02*
X4517753Y-15043436D01*
X4517753Y-15043436D02*
X4508229Y-15052960D01*
X4508229Y-15052960D02*
X4489182Y-15062484D01*
X4489182Y-15062484D02*
X4470134Y-15062484D01*
X4470134Y-15062484D02*
X4451087Y-15052960D01*
X4451087Y-15052960D02*
X4441563Y-15043436D01*
X4441563Y-15043436D02*
X4432039Y-15024388D01*
X4432039Y-15024388D02*
X4422515Y-14986293D01*
X4422515Y-14986293D02*
X4422515Y-14938674D01*
X4422515Y-14938674D02*
X4432039Y-14900579D01*
X4432039Y-14900579D02*
X4441563Y-14881531D01*
X4441563Y-14881531D02*
X4451087Y-14872008D01*
X4451087Y-14872008D02*
X4470134Y-14862484D01*
X4622515Y-15043436D02*
X4632039Y-15052960D01*
X4632039Y-15052960D02*
X4622515Y-15062484D01*
X4622515Y-15062484D02*
X4612991Y-15052960D01*
X4612991Y-15052960D02*
X4622515Y-15043436D01*
X4622515Y-15043436D02*
X4622515Y-15062484D01*
X4822515Y-15062484D02*
X4708229Y-15062484D01*
X4765372Y-15062484D02*
X4765372Y-14862484D01*
X4765372Y-14862484D02*
X4746325Y-14891055D01*
X4746325Y-14891055D02*
X4727277Y-14910103D01*
X4727277Y-14910103D02*
X4708229Y-14919627D01*
X4898706Y-14881531D02*
X4908229Y-14872008D01*
X4908229Y-14872008D02*
X4927277Y-14862484D01*
X4927277Y-14862484D02*
X4974896Y-14862484D01*
X4974896Y-14862484D02*
X4993944Y-14872008D01*
X4993944Y-14872008D02*
X5003468Y-14881531D01*
X5003468Y-14881531D02*
X5012991Y-14900579D01*
X5012991Y-14900579D02*
X5012991Y-14919627D01*
X5012991Y-14919627D02*
X5003468Y-14948198D01*
X5003468Y-14948198D02*
X4889182Y-15062484D01*
X4889182Y-15062484D02*
X5012991Y-15062484D01*
X5184420Y-14862484D02*
X5146325Y-14862484D01*
X5146325Y-14862484D02*
X5127277Y-14872008D01*
X5127277Y-14872008D02*
X5117753Y-14881531D01*
X5117753Y-14881531D02*
X5098706Y-14910103D01*
X5098706Y-14910103D02*
X5089182Y-14948198D01*
X5089182Y-14948198D02*
X5089182Y-15024388D01*
X5089182Y-15024388D02*
X5098706Y-15043436D01*
X5098706Y-15043436D02*
X5108229Y-15052960D01*
X5108229Y-15052960D02*
X5127277Y-15062484D01*
X5127277Y-15062484D02*
X5165372Y-15062484D01*
X5165372Y-15062484D02*
X5184420Y-15052960D01*
X5184420Y-15052960D02*
X5193944Y-15043436D01*
X5193944Y-15043436D02*
X5203468Y-15024388D01*
X5203468Y-15024388D02*
X5203468Y-14976769D01*
X5203468Y-14976769D02*
X5193944Y-14957722D01*
X5193944Y-14957722D02*
X5184420Y-14948198D01*
X5184420Y-14948198D02*
X5165372Y-14938674D01*
X5165372Y-14938674D02*
X5127277Y-14938674D01*
X5127277Y-14938674D02*
X5108229Y-14948198D01*
X5108229Y-14948198D02*
X5098706Y-14957722D01*
X5098706Y-14957722D02*
X5089182Y-14976769D01*
X5327277Y-14862484D02*
X5346325Y-14862484D01*
X5346325Y-14862484D02*
X5365372Y-14872008D01*
X5365372Y-14872008D02*
X5374896Y-14881531D01*
X5374896Y-14881531D02*
X5384420Y-14900579D01*
X5384420Y-14900579D02*
X5393944Y-14938674D01*
X5393944Y-14938674D02*
X5393944Y-14986293D01*
X5393944Y-14986293D02*
X5384420Y-15024388D01*
X5384420Y-15024388D02*
X5374896Y-15043436D01*
X5374896Y-15043436D02*
X5365372Y-15052960D01*
X5365372Y-15052960D02*
X5346325Y-15062484D01*
X5346325Y-15062484D02*
X5327277Y-15062484D01*
X5327277Y-15062484D02*
X5308229Y-15052960D01*
X5308229Y-15052960D02*
X5298706Y-15043436D01*
X5298706Y-15043436D02*
X5289182Y-15024388D01*
X5289182Y-15024388D02*
X5279658Y-14986293D01*
X5279658Y-14986293D02*
X5279658Y-14938674D01*
X5279658Y-14938674D02*
X5289182Y-14900579D01*
X5289182Y-14900579D02*
X5298706Y-14881531D01*
X5298706Y-14881531D02*
X5308229Y-14872008D01*
X5308229Y-14872008D02*
X5327277Y-14862484D01*
X5470134Y-14862484D02*
X5470134Y-14900579D01*
X5546325Y-14862484D02*
X5546325Y-14900579D01*
X5841563Y-15138674D02*
X5832039Y-15129150D01*
X5832039Y-15129150D02*
X5812991Y-15100579D01*
X5812991Y-15100579D02*
X5803468Y-15081531D01*
X5803468Y-15081531D02*
X5793944Y-15052960D01*
X5793944Y-15052960D02*
X5784420Y-15005341D01*
X5784420Y-15005341D02*
X5784420Y-14967246D01*
X5784420Y-14967246D02*
X5793944Y-14919627D01*
X5793944Y-14919627D02*
X5803468Y-14891055D01*
X5803468Y-14891055D02*
X5812991Y-14872008D01*
X5812991Y-14872008D02*
X5832039Y-14843436D01*
X5832039Y-14843436D02*
X5841563Y-14833912D01*
X6022515Y-15062484D02*
X5908229Y-15062484D01*
X5965372Y-15062484D02*
X5965372Y-14862484D01*
X5965372Y-14862484D02*
X5946325Y-14891055D01*
X5946325Y-14891055D02*
X5927277Y-14910103D01*
X5927277Y-14910103D02*
X5908229Y-14919627D01*
X6146325Y-14862484D02*
X6165372Y-14862484D01*
X6165372Y-14862484D02*
X6184420Y-14872008D01*
X6184420Y-14872008D02*
X6193944Y-14881531D01*
X6193944Y-14881531D02*
X6203468Y-14900579D01*
X6203468Y-14900579D02*
X6212991Y-14938674D01*
X6212991Y-14938674D02*
X6212991Y-14986293D01*
X6212991Y-14986293D02*
X6203468Y-15024388D01*
X6203468Y-15024388D02*
X6193944Y-15043436D01*
X6193944Y-15043436D02*
X6184420Y-15052960D01*
X6184420Y-15052960D02*
X6165372Y-15062484D01*
X6165372Y-15062484D02*
X6146325Y-15062484D01*
X6146325Y-15062484D02*
X6127277Y-15052960D01*
X6127277Y-15052960D02*
X6117753Y-15043436D01*
X6117753Y-15043436D02*
X6108229Y-15024388D01*
X6108229Y-15024388D02*
X6098706Y-14986293D01*
X6098706Y-14986293D02*
X6098706Y-14938674D01*
X6098706Y-14938674D02*
X6108229Y-14900579D01*
X6108229Y-14900579D02*
X6117753Y-14881531D01*
X6117753Y-14881531D02*
X6127277Y-14872008D01*
X6127277Y-14872008D02*
X6146325Y-14862484D01*
X6451087Y-15062484D02*
X6451087Y-14862484D01*
X6536801Y-15062484D02*
X6536801Y-14957722D01*
X6536801Y-14957722D02*
X6527277Y-14938674D01*
X6527277Y-14938674D02*
X6508230Y-14929150D01*
X6508230Y-14929150D02*
X6479658Y-14929150D01*
X6479658Y-14929150D02*
X6460610Y-14938674D01*
X6460610Y-14938674D02*
X6451087Y-14948198D01*
X6660610Y-15062484D02*
X6641563Y-15052960D01*
X6641563Y-15052960D02*
X6632039Y-15043436D01*
X6632039Y-15043436D02*
X6622515Y-15024388D01*
X6622515Y-15024388D02*
X6622515Y-14967246D01*
X6622515Y-14967246D02*
X6632039Y-14948198D01*
X6632039Y-14948198D02*
X6641563Y-14938674D01*
X6641563Y-14938674D02*
X6660610Y-14929150D01*
X6660610Y-14929150D02*
X6689182Y-14929150D01*
X6689182Y-14929150D02*
X6708230Y-14938674D01*
X6708230Y-14938674D02*
X6717753Y-14948198D01*
X6717753Y-14948198D02*
X6727277Y-14967246D01*
X6727277Y-14967246D02*
X6727277Y-15024388D01*
X6727277Y-15024388D02*
X6717753Y-15043436D01*
X6717753Y-15043436D02*
X6708230Y-15052960D01*
X6708230Y-15052960D02*
X6689182Y-15062484D01*
X6689182Y-15062484D02*
X6660610Y-15062484D01*
X6841563Y-15062484D02*
X6822515Y-15052960D01*
X6822515Y-15052960D02*
X6812991Y-15033912D01*
X6812991Y-15033912D02*
X6812991Y-14862484D01*
X6993944Y-15052960D02*
X6974896Y-15062484D01*
X6974896Y-15062484D02*
X6936801Y-15062484D01*
X6936801Y-15062484D02*
X6917753Y-15052960D01*
X6917753Y-15052960D02*
X6908230Y-15033912D01*
X6908230Y-15033912D02*
X6908230Y-14957722D01*
X6908230Y-14957722D02*
X6917753Y-14938674D01*
X6917753Y-14938674D02*
X6936801Y-14929150D01*
X6936801Y-14929150D02*
X6974896Y-14929150D01*
X6974896Y-14929150D02*
X6993944Y-14938674D01*
X6993944Y-14938674D02*
X7003468Y-14957722D01*
X7003468Y-14957722D02*
X7003468Y-14976769D01*
X7003468Y-14976769D02*
X6908230Y-14995817D01*
X7079658Y-15052960D02*
X7098706Y-15062484D01*
X7098706Y-15062484D02*
X7136801Y-15062484D01*
X7136801Y-15062484D02*
X7155849Y-15052960D01*
X7155849Y-15052960D02*
X7165372Y-15033912D01*
X7165372Y-15033912D02*
X7165372Y-15024388D01*
X7165372Y-15024388D02*
X7155849Y-15005341D01*
X7155849Y-15005341D02*
X7136801Y-14995817D01*
X7136801Y-14995817D02*
X7108230Y-14995817D01*
X7108230Y-14995817D02*
X7089182Y-14986293D01*
X7089182Y-14986293D02*
X7079658Y-14967246D01*
X7079658Y-14967246D02*
X7079658Y-14957722D01*
X7079658Y-14957722D02*
X7089182Y-14938674D01*
X7089182Y-14938674D02*
X7108230Y-14929150D01*
X7108230Y-14929150D02*
X7136801Y-14929150D01*
X7136801Y-14929150D02*
X7155849Y-14938674D01*
X7232039Y-15138674D02*
X7241563Y-15129150D01*
X7241563Y-15129150D02*
X7260611Y-15100579D01*
X7260611Y-15100579D02*
X7270134Y-15081531D01*
X7270134Y-15081531D02*
X7279658Y-15052960D01*
X7279658Y-15052960D02*
X7289182Y-15005341D01*
X7289182Y-15005341D02*
X7289182Y-14967246D01*
X7289182Y-14967246D02*
X7279658Y-14919627D01*
X7279658Y-14919627D02*
X7270134Y-14891055D01*
X7270134Y-14891055D02*
X7260611Y-14872008D01*
X7260611Y-14872008D02*
X7241563Y-14843436D01*
X7241563Y-14843436D02*
X7232039Y-14833912D01*
X7593944Y-15138674D02*
X7584420Y-15129150D01*
X7584420Y-15129150D02*
X7565372Y-15100579D01*
X7565372Y-15100579D02*
X7555849Y-15081531D01*
X7555849Y-15081531D02*
X7546325Y-15052960D01*
X7546325Y-15052960D02*
X7536801Y-15005341D01*
X7536801Y-15005341D02*
X7536801Y-14967246D01*
X7536801Y-14967246D02*
X7546325Y-14919627D01*
X7546325Y-14919627D02*
X7555849Y-14891055D01*
X7555849Y-14891055D02*
X7565372Y-14872008D01*
X7565372Y-14872008D02*
X7584420Y-14843436D01*
X7584420Y-14843436D02*
X7593944Y-14833912D01*
X7670134Y-14929150D02*
X7670134Y-15062484D01*
X7670134Y-14948198D02*
X7679658Y-14938674D01*
X7679658Y-14938674D02*
X7698706Y-14929150D01*
X7698706Y-14929150D02*
X7727277Y-14929150D01*
X7727277Y-14929150D02*
X7746325Y-14938674D01*
X7746325Y-14938674D02*
X7755849Y-14957722D01*
X7755849Y-14957722D02*
X7755849Y-15062484D01*
X7879658Y-15062484D02*
X7860611Y-15052960D01*
X7860611Y-15052960D02*
X7851087Y-15043436D01*
X7851087Y-15043436D02*
X7841563Y-15024388D01*
X7841563Y-15024388D02*
X7841563Y-14967246D01*
X7841563Y-14967246D02*
X7851087Y-14948198D01*
X7851087Y-14948198D02*
X7860611Y-14938674D01*
X7860611Y-14938674D02*
X7879658Y-14929150D01*
X7879658Y-14929150D02*
X7908230Y-14929150D01*
X7908230Y-14929150D02*
X7927277Y-14938674D01*
X7927277Y-14938674D02*
X7936801Y-14948198D01*
X7936801Y-14948198D02*
X7946325Y-14967246D01*
X7946325Y-14967246D02*
X7946325Y-15024388D01*
X7946325Y-15024388D02*
X7936801Y-15043436D01*
X7936801Y-15043436D02*
X7927277Y-15052960D01*
X7927277Y-15052960D02*
X7908230Y-15062484D01*
X7908230Y-15062484D02*
X7879658Y-15062484D01*
X8003468Y-14929150D02*
X8079658Y-14929150D01*
X8032039Y-14862484D02*
X8032039Y-15033912D01*
X8032039Y-15033912D02*
X8041563Y-15052960D01*
X8041563Y-15052960D02*
X8060611Y-15062484D01*
X8060611Y-15062484D02*
X8079658Y-15062484D01*
X8298706Y-14929150D02*
X8298706Y-15129150D01*
X8298706Y-14938674D02*
X8317753Y-14929150D01*
X8317753Y-14929150D02*
X8355849Y-14929150D01*
X8355849Y-14929150D02*
X8374896Y-14938674D01*
X8374896Y-14938674D02*
X8384420Y-14948198D01*
X8384420Y-14948198D02*
X8393944Y-14967246D01*
X8393944Y-14967246D02*
X8393944Y-15024388D01*
X8393944Y-15024388D02*
X8384420Y-15043436D01*
X8384420Y-15043436D02*
X8374896Y-15052960D01*
X8374896Y-15052960D02*
X8355849Y-15062484D01*
X8355849Y-15062484D02*
X8317753Y-15062484D01*
X8317753Y-15062484D02*
X8298706Y-15052960D01*
X8508230Y-15062484D02*
X8489182Y-15052960D01*
X8489182Y-15052960D02*
X8479658Y-15033912D01*
X8479658Y-15033912D02*
X8479658Y-14862484D01*
X8670135Y-15062484D02*
X8670135Y-14957722D01*
X8670135Y-14957722D02*
X8660611Y-14938674D01*
X8660611Y-14938674D02*
X8641563Y-14929150D01*
X8641563Y-14929150D02*
X8603468Y-14929150D01*
X8603468Y-14929150D02*
X8584420Y-14938674D01*
X8670135Y-15052960D02*
X8651087Y-15062484D01*
X8651087Y-15062484D02*
X8603468Y-15062484D01*
X8603468Y-15062484D02*
X8584420Y-15052960D01*
X8584420Y-15052960D02*
X8574896Y-15033912D01*
X8574896Y-15033912D02*
X8574896Y-15014865D01*
X8574896Y-15014865D02*
X8584420Y-14995817D01*
X8584420Y-14995817D02*
X8603468Y-14986293D01*
X8603468Y-14986293D02*
X8651087Y-14986293D01*
X8651087Y-14986293D02*
X8670135Y-14976769D01*
X8736801Y-14929150D02*
X8812992Y-14929150D01*
X8765373Y-14862484D02*
X8765373Y-15033912D01*
X8765373Y-15033912D02*
X8774896Y-15052960D01*
X8774896Y-15052960D02*
X8793944Y-15062484D01*
X8793944Y-15062484D02*
X8812992Y-15062484D01*
X8955849Y-15052960D02*
X8936801Y-15062484D01*
X8936801Y-15062484D02*
X8898706Y-15062484D01*
X8898706Y-15062484D02*
X8879658Y-15052960D01*
X8879658Y-15052960D02*
X8870135Y-15033912D01*
X8870135Y-15033912D02*
X8870135Y-14957722D01*
X8870135Y-14957722D02*
X8879658Y-14938674D01*
X8879658Y-14938674D02*
X8898706Y-14929150D01*
X8898706Y-14929150D02*
X8936801Y-14929150D01*
X8936801Y-14929150D02*
X8955849Y-14938674D01*
X8955849Y-14938674D02*
X8965373Y-14957722D01*
X8965373Y-14957722D02*
X8965373Y-14976769D01*
X8965373Y-14976769D02*
X8870135Y-14995817D01*
X9136801Y-15062484D02*
X9136801Y-14862484D01*
X9136801Y-15052960D02*
X9117754Y-15062484D01*
X9117754Y-15062484D02*
X9079658Y-15062484D01*
X9079658Y-15062484D02*
X9060611Y-15052960D01*
X9060611Y-15052960D02*
X9051087Y-15043436D01*
X9051087Y-15043436D02*
X9041563Y-15024388D01*
X9041563Y-15024388D02*
X9041563Y-14967246D01*
X9041563Y-14967246D02*
X9051087Y-14948198D01*
X9051087Y-14948198D02*
X9060611Y-14938674D01*
X9060611Y-14938674D02*
X9079658Y-14929150D01*
X9079658Y-14929150D02*
X9117754Y-14929150D01*
X9117754Y-14929150D02*
X9136801Y-14938674D01*
X9212992Y-15138674D02*
X9222516Y-15129150D01*
X9222516Y-15129150D02*
X9241563Y-15100579D01*
X9241563Y-15100579D02*
X9251087Y-15081531D01*
X9251087Y-15081531D02*
X9260611Y-15052960D01*
X9260611Y-15052960D02*
X9270135Y-15005341D01*
X9270135Y-15005341D02*
X9270135Y-14967246D01*
X9270135Y-14967246D02*
X9260611Y-14919627D01*
X9260611Y-14919627D02*
X9251087Y-14891055D01*
X9251087Y-14891055D02*
X9241563Y-14872008D01*
X9241563Y-14872008D02*
X9222516Y-14843436D01*
X9222516Y-14843436D02*
X9212992Y-14833912D01*
X2066500Y-15191000D02*
X2266500Y-15391000D01*
X2266500Y-15191000D02*
X2066500Y-15391000D01*
X2237211Y-15361711D02*
X2237211Y-15220289D01*
X2095789Y-15220289D01*
X2095789Y-15361711D01*
X2237211Y-15361711D01*
X2508229Y-15182484D02*
X2632039Y-15182484D01*
X2632039Y-15182484D02*
X2565372Y-15258674D01*
X2565372Y-15258674D02*
X2593944Y-15258674D01*
X2593944Y-15258674D02*
X2612991Y-15268198D01*
X2612991Y-15268198D02*
X2622515Y-15277722D01*
X2622515Y-15277722D02*
X2632039Y-15296769D01*
X2632039Y-15296769D02*
X2632039Y-15344388D01*
X2632039Y-15344388D02*
X2622515Y-15363436D01*
X2622515Y-15363436D02*
X2612991Y-15372960D01*
X2612991Y-15372960D02*
X2593944Y-15382484D01*
X2593944Y-15382484D02*
X2536801Y-15382484D01*
X2536801Y-15382484D02*
X2517753Y-15372960D01*
X2517753Y-15372960D02*
X2508229Y-15363436D01*
X2717753Y-15363436D02*
X2727277Y-15372960D01*
X2727277Y-15372960D02*
X2717753Y-15382484D01*
X2717753Y-15382484D02*
X2708229Y-15372960D01*
X2708229Y-15372960D02*
X2717753Y-15363436D01*
X2717753Y-15363436D02*
X2717753Y-15382484D01*
X2793944Y-15182484D02*
X2917753Y-15182484D01*
X2917753Y-15182484D02*
X2851086Y-15258674D01*
X2851086Y-15258674D02*
X2879658Y-15258674D01*
X2879658Y-15258674D02*
X2898705Y-15268198D01*
X2898705Y-15268198D02*
X2908229Y-15277722D01*
X2908229Y-15277722D02*
X2917753Y-15296769D01*
X2917753Y-15296769D02*
X2917753Y-15344388D01*
X2917753Y-15344388D02*
X2908229Y-15363436D01*
X2908229Y-15363436D02*
X2898705Y-15372960D01*
X2898705Y-15372960D02*
X2879658Y-15382484D01*
X2879658Y-15382484D02*
X2822515Y-15382484D01*
X2822515Y-15382484D02*
X2803467Y-15372960D01*
X2803467Y-15372960D02*
X2793944Y-15363436D01*
X3041562Y-15182484D02*
X3060610Y-15182484D01*
X3060610Y-15182484D02*
X3079658Y-15192008D01*
X3079658Y-15192008D02*
X3089182Y-15201531D01*
X3089182Y-15201531D02*
X3098705Y-15220579D01*
X3098705Y-15220579D02*
X3108229Y-15258674D01*
X3108229Y-15258674D02*
X3108229Y-15306293D01*
X3108229Y-15306293D02*
X3098705Y-15344388D01*
X3098705Y-15344388D02*
X3089182Y-15363436D01*
X3089182Y-15363436D02*
X3079658Y-15372960D01*
X3079658Y-15372960D02*
X3060610Y-15382484D01*
X3060610Y-15382484D02*
X3041562Y-15382484D01*
X3041562Y-15382484D02*
X3022515Y-15372960D01*
X3022515Y-15372960D02*
X3012991Y-15363436D01*
X3012991Y-15363436D02*
X3003467Y-15344388D01*
X3003467Y-15344388D02*
X2993943Y-15306293D01*
X2993943Y-15306293D02*
X2993943Y-15258674D01*
X2993943Y-15258674D02*
X3003467Y-15220579D01*
X3003467Y-15220579D02*
X3012991Y-15201531D01*
X3012991Y-15201531D02*
X3022515Y-15192008D01*
X3022515Y-15192008D02*
X3041562Y-15182484D01*
X3184420Y-15201531D02*
X3193943Y-15192008D01*
X3193943Y-15192008D02*
X3212991Y-15182484D01*
X3212991Y-15182484D02*
X3260610Y-15182484D01*
X3260610Y-15182484D02*
X3279658Y-15192008D01*
X3279658Y-15192008D02*
X3289182Y-15201531D01*
X3289182Y-15201531D02*
X3298705Y-15220579D01*
X3298705Y-15220579D02*
X3298705Y-15239627D01*
X3298705Y-15239627D02*
X3289182Y-15268198D01*
X3289182Y-15268198D02*
X3174896Y-15382484D01*
X3174896Y-15382484D02*
X3298705Y-15382484D01*
X3384420Y-15382484D02*
X3384420Y-15249150D01*
X3384420Y-15268198D02*
X3393943Y-15258674D01*
X3393943Y-15258674D02*
X3412991Y-15249150D01*
X3412991Y-15249150D02*
X3441563Y-15249150D01*
X3441563Y-15249150D02*
X3460610Y-15258674D01*
X3460610Y-15258674D02*
X3470134Y-15277722D01*
X3470134Y-15277722D02*
X3470134Y-15382484D01*
X3470134Y-15277722D02*
X3479658Y-15258674D01*
X3479658Y-15258674D02*
X3498705Y-15249150D01*
X3498705Y-15249150D02*
X3527277Y-15249150D01*
X3527277Y-15249150D02*
X3546324Y-15258674D01*
X3546324Y-15258674D02*
X3555848Y-15277722D01*
X3555848Y-15277722D02*
X3555848Y-15382484D01*
X3651086Y-15382484D02*
X3651086Y-15249150D01*
X3651086Y-15268198D02*
X3660610Y-15258674D01*
X3660610Y-15258674D02*
X3679658Y-15249150D01*
X3679658Y-15249150D02*
X3708229Y-15249150D01*
X3708229Y-15249150D02*
X3727277Y-15258674D01*
X3727277Y-15258674D02*
X3736801Y-15277722D01*
X3736801Y-15277722D02*
X3736801Y-15382484D01*
X3736801Y-15277722D02*
X3746324Y-15258674D01*
X3746324Y-15258674D02*
X3765372Y-15249150D01*
X3765372Y-15249150D02*
X3793943Y-15249150D01*
X3793943Y-15249150D02*
X3812991Y-15258674D01*
X3812991Y-15258674D02*
X3822515Y-15277722D01*
X3822515Y-15277722D02*
X3822515Y-15382484D01*
X4212991Y-15172960D02*
X4041563Y-15430103D01*
X4470134Y-15182484D02*
X4489182Y-15182484D01*
X4489182Y-15182484D02*
X4508229Y-15192008D01*
X4508229Y-15192008D02*
X4517753Y-15201531D01*
X4517753Y-15201531D02*
X4527277Y-15220579D01*
X4527277Y-15220579D02*
X4536801Y-15258674D01*
X4536801Y-15258674D02*
X4536801Y-15306293D01*
X4536801Y-15306293D02*
X4527277Y-15344388D01*
X4527277Y-15344388D02*
X4517753Y-15363436D01*
X4517753Y-15363436D02*
X4508229Y-15372960D01*
X4508229Y-15372960D02*
X4489182Y-15382484D01*
X4489182Y-15382484D02*
X4470134Y-15382484D01*
X4470134Y-15382484D02*
X4451087Y-15372960D01*
X4451087Y-15372960D02*
X4441563Y-15363436D01*
X4441563Y-15363436D02*
X4432039Y-15344388D01*
X4432039Y-15344388D02*
X4422515Y-15306293D01*
X4422515Y-15306293D02*
X4422515Y-15258674D01*
X4422515Y-15258674D02*
X4432039Y-15220579D01*
X4432039Y-15220579D02*
X4441563Y-15201531D01*
X4441563Y-15201531D02*
X4451087Y-15192008D01*
X4451087Y-15192008D02*
X4470134Y-15182484D01*
X4622515Y-15363436D02*
X4632039Y-15372960D01*
X4632039Y-15372960D02*
X4622515Y-15382484D01*
X4622515Y-15382484D02*
X4612991Y-15372960D01*
X4612991Y-15372960D02*
X4622515Y-15363436D01*
X4622515Y-15363436D02*
X4622515Y-15382484D01*
X4822515Y-15382484D02*
X4708229Y-15382484D01*
X4765372Y-15382484D02*
X4765372Y-15182484D01*
X4765372Y-15182484D02*
X4746325Y-15211055D01*
X4746325Y-15211055D02*
X4727277Y-15230103D01*
X4727277Y-15230103D02*
X4708229Y-15239627D01*
X4889182Y-15182484D02*
X5012991Y-15182484D01*
X5012991Y-15182484D02*
X4946325Y-15258674D01*
X4946325Y-15258674D02*
X4974896Y-15258674D01*
X4974896Y-15258674D02*
X4993944Y-15268198D01*
X4993944Y-15268198D02*
X5003468Y-15277722D01*
X5003468Y-15277722D02*
X5012991Y-15296769D01*
X5012991Y-15296769D02*
X5012991Y-15344388D01*
X5012991Y-15344388D02*
X5003468Y-15363436D01*
X5003468Y-15363436D02*
X4993944Y-15372960D01*
X4993944Y-15372960D02*
X4974896Y-15382484D01*
X4974896Y-15382484D02*
X4917753Y-15382484D01*
X4917753Y-15382484D02*
X4898706Y-15372960D01*
X4898706Y-15372960D02*
X4889182Y-15363436D01*
X5136801Y-15182484D02*
X5155849Y-15182484D01*
X5155849Y-15182484D02*
X5174896Y-15192008D01*
X5174896Y-15192008D02*
X5184420Y-15201531D01*
X5184420Y-15201531D02*
X5193944Y-15220579D01*
X5193944Y-15220579D02*
X5203468Y-15258674D01*
X5203468Y-15258674D02*
X5203468Y-15306293D01*
X5203468Y-15306293D02*
X5193944Y-15344388D01*
X5193944Y-15344388D02*
X5184420Y-15363436D01*
X5184420Y-15363436D02*
X5174896Y-15372960D01*
X5174896Y-15372960D02*
X5155849Y-15382484D01*
X5155849Y-15382484D02*
X5136801Y-15382484D01*
X5136801Y-15382484D02*
X5117753Y-15372960D01*
X5117753Y-15372960D02*
X5108229Y-15363436D01*
X5108229Y-15363436D02*
X5098706Y-15344388D01*
X5098706Y-15344388D02*
X5089182Y-15306293D01*
X5089182Y-15306293D02*
X5089182Y-15258674D01*
X5089182Y-15258674D02*
X5098706Y-15220579D01*
X5098706Y-15220579D02*
X5108229Y-15201531D01*
X5108229Y-15201531D02*
X5117753Y-15192008D01*
X5117753Y-15192008D02*
X5136801Y-15182484D01*
X5327277Y-15182484D02*
X5346325Y-15182484D01*
X5346325Y-15182484D02*
X5365372Y-15192008D01*
X5365372Y-15192008D02*
X5374896Y-15201531D01*
X5374896Y-15201531D02*
X5384420Y-15220579D01*
X5384420Y-15220579D02*
X5393944Y-15258674D01*
X5393944Y-15258674D02*
X5393944Y-15306293D01*
X5393944Y-15306293D02*
X5384420Y-15344388D01*
X5384420Y-15344388D02*
X5374896Y-15363436D01*
X5374896Y-15363436D02*
X5365372Y-15372960D01*
X5365372Y-15372960D02*
X5346325Y-15382484D01*
X5346325Y-15382484D02*
X5327277Y-15382484D01*
X5327277Y-15382484D02*
X5308229Y-15372960D01*
X5308229Y-15372960D02*
X5298706Y-15363436D01*
X5298706Y-15363436D02*
X5289182Y-15344388D01*
X5289182Y-15344388D02*
X5279658Y-15306293D01*
X5279658Y-15306293D02*
X5279658Y-15258674D01*
X5279658Y-15258674D02*
X5289182Y-15220579D01*
X5289182Y-15220579D02*
X5298706Y-15201531D01*
X5298706Y-15201531D02*
X5308229Y-15192008D01*
X5308229Y-15192008D02*
X5327277Y-15182484D01*
X5470134Y-15182484D02*
X5470134Y-15220579D01*
X5546325Y-15182484D02*
X5546325Y-15220579D01*
X5841563Y-15458674D02*
X5832039Y-15449150D01*
X5832039Y-15449150D02*
X5812991Y-15420579D01*
X5812991Y-15420579D02*
X5803468Y-15401531D01*
X5803468Y-15401531D02*
X5793944Y-15372960D01*
X5793944Y-15372960D02*
X5784420Y-15325341D01*
X5784420Y-15325341D02*
X5784420Y-15287246D01*
X5784420Y-15287246D02*
X5793944Y-15239627D01*
X5793944Y-15239627D02*
X5803468Y-15211055D01*
X5803468Y-15211055D02*
X5812991Y-15192008D01*
X5812991Y-15192008D02*
X5832039Y-15163436D01*
X5832039Y-15163436D02*
X5841563Y-15153912D01*
X5908229Y-15201531D02*
X5917753Y-15192008D01*
X5917753Y-15192008D02*
X5936801Y-15182484D01*
X5936801Y-15182484D02*
X5984420Y-15182484D01*
X5984420Y-15182484D02*
X6003468Y-15192008D01*
X6003468Y-15192008D02*
X6012991Y-15201531D01*
X6012991Y-15201531D02*
X6022515Y-15220579D01*
X6022515Y-15220579D02*
X6022515Y-15239627D01*
X6022515Y-15239627D02*
X6012991Y-15268198D01*
X6012991Y-15268198D02*
X5898706Y-15382484D01*
X5898706Y-15382484D02*
X6022515Y-15382484D01*
X6260610Y-15382484D02*
X6260610Y-15182484D01*
X6346325Y-15382484D02*
X6346325Y-15277722D01*
X6346325Y-15277722D02*
X6336801Y-15258674D01*
X6336801Y-15258674D02*
X6317753Y-15249150D01*
X6317753Y-15249150D02*
X6289182Y-15249150D01*
X6289182Y-15249150D02*
X6270134Y-15258674D01*
X6270134Y-15258674D02*
X6260610Y-15268198D01*
X6470134Y-15382484D02*
X6451087Y-15372960D01*
X6451087Y-15372960D02*
X6441563Y-15363436D01*
X6441563Y-15363436D02*
X6432039Y-15344388D01*
X6432039Y-15344388D02*
X6432039Y-15287246D01*
X6432039Y-15287246D02*
X6441563Y-15268198D01*
X6441563Y-15268198D02*
X6451087Y-15258674D01*
X6451087Y-15258674D02*
X6470134Y-15249150D01*
X6470134Y-15249150D02*
X6498706Y-15249150D01*
X6498706Y-15249150D02*
X6517753Y-15258674D01*
X6517753Y-15258674D02*
X6527277Y-15268198D01*
X6527277Y-15268198D02*
X6536801Y-15287246D01*
X6536801Y-15287246D02*
X6536801Y-15344388D01*
X6536801Y-15344388D02*
X6527277Y-15363436D01*
X6527277Y-15363436D02*
X6517753Y-15372960D01*
X6517753Y-15372960D02*
X6498706Y-15382484D01*
X6498706Y-15382484D02*
X6470134Y-15382484D01*
X6651087Y-15382484D02*
X6632039Y-15372960D01*
X6632039Y-15372960D02*
X6622515Y-15353912D01*
X6622515Y-15353912D02*
X6622515Y-15182484D01*
X6803468Y-15372960D02*
X6784420Y-15382484D01*
X6784420Y-15382484D02*
X6746325Y-15382484D01*
X6746325Y-15382484D02*
X6727277Y-15372960D01*
X6727277Y-15372960D02*
X6717753Y-15353912D01*
X6717753Y-15353912D02*
X6717753Y-15277722D01*
X6717753Y-15277722D02*
X6727277Y-15258674D01*
X6727277Y-15258674D02*
X6746325Y-15249150D01*
X6746325Y-15249150D02*
X6784420Y-15249150D01*
X6784420Y-15249150D02*
X6803468Y-15258674D01*
X6803468Y-15258674D02*
X6812991Y-15277722D01*
X6812991Y-15277722D02*
X6812991Y-15296769D01*
X6812991Y-15296769D02*
X6717753Y-15315817D01*
X6889182Y-15372960D02*
X6908230Y-15382484D01*
X6908230Y-15382484D02*
X6946325Y-15382484D01*
X6946325Y-15382484D02*
X6965372Y-15372960D01*
X6965372Y-15372960D02*
X6974896Y-15353912D01*
X6974896Y-15353912D02*
X6974896Y-15344388D01*
X6974896Y-15344388D02*
X6965372Y-15325341D01*
X6965372Y-15325341D02*
X6946325Y-15315817D01*
X6946325Y-15315817D02*
X6917753Y-15315817D01*
X6917753Y-15315817D02*
X6898706Y-15306293D01*
X6898706Y-15306293D02*
X6889182Y-15287246D01*
X6889182Y-15287246D02*
X6889182Y-15277722D01*
X6889182Y-15277722D02*
X6898706Y-15258674D01*
X6898706Y-15258674D02*
X6917753Y-15249150D01*
X6917753Y-15249150D02*
X6946325Y-15249150D01*
X6946325Y-15249150D02*
X6965372Y-15258674D01*
X7041563Y-15458674D02*
X7051087Y-15449150D01*
X7051087Y-15449150D02*
X7070134Y-15420579D01*
X7070134Y-15420579D02*
X7079658Y-15401531D01*
X7079658Y-15401531D02*
X7089182Y-15372960D01*
X7089182Y-15372960D02*
X7098706Y-15325341D01*
X7098706Y-15325341D02*
X7098706Y-15287246D01*
X7098706Y-15287246D02*
X7089182Y-15239627D01*
X7089182Y-15239627D02*
X7079658Y-15211055D01*
X7079658Y-15211055D02*
X7070134Y-15192008D01*
X7070134Y-15192008D02*
X7051087Y-15163436D01*
X7051087Y-15163436D02*
X7041563Y-15153912D01*
X7403468Y-15458674D02*
X7393944Y-15449150D01*
X7393944Y-15449150D02*
X7374896Y-15420579D01*
X7374896Y-15420579D02*
X7365372Y-15401531D01*
X7365372Y-15401531D02*
X7355849Y-15372960D01*
X7355849Y-15372960D02*
X7346325Y-15325341D01*
X7346325Y-15325341D02*
X7346325Y-15287246D01*
X7346325Y-15287246D02*
X7355849Y-15239627D01*
X7355849Y-15239627D02*
X7365372Y-15211055D01*
X7365372Y-15211055D02*
X7374896Y-15192008D01*
X7374896Y-15192008D02*
X7393944Y-15163436D01*
X7393944Y-15163436D02*
X7403468Y-15153912D01*
X7479658Y-15249150D02*
X7479658Y-15382484D01*
X7479658Y-15268198D02*
X7489182Y-15258674D01*
X7489182Y-15258674D02*
X7508230Y-15249150D01*
X7508230Y-15249150D02*
X7536801Y-15249150D01*
X7536801Y-15249150D02*
X7555849Y-15258674D01*
X7555849Y-15258674D02*
X7565372Y-15277722D01*
X7565372Y-15277722D02*
X7565372Y-15382484D01*
X7689182Y-15382484D02*
X7670134Y-15372960D01*
X7670134Y-15372960D02*
X7660611Y-15363436D01*
X7660611Y-15363436D02*
X7651087Y-15344388D01*
X7651087Y-15344388D02*
X7651087Y-15287246D01*
X7651087Y-15287246D02*
X7660611Y-15268198D01*
X7660611Y-15268198D02*
X7670134Y-15258674D01*
X7670134Y-15258674D02*
X7689182Y-15249150D01*
X7689182Y-15249150D02*
X7717753Y-15249150D01*
X7717753Y-15249150D02*
X7736801Y-15258674D01*
X7736801Y-15258674D02*
X7746325Y-15268198D01*
X7746325Y-15268198D02*
X7755849Y-15287246D01*
X7755849Y-15287246D02*
X7755849Y-15344388D01*
X7755849Y-15344388D02*
X7746325Y-15363436D01*
X7746325Y-15363436D02*
X7736801Y-15372960D01*
X7736801Y-15372960D02*
X7717753Y-15382484D01*
X7717753Y-15382484D02*
X7689182Y-15382484D01*
X7812992Y-15249150D02*
X7889182Y-15249150D01*
X7841563Y-15182484D02*
X7841563Y-15353912D01*
X7841563Y-15353912D02*
X7851087Y-15372960D01*
X7851087Y-15372960D02*
X7870134Y-15382484D01*
X7870134Y-15382484D02*
X7889182Y-15382484D01*
X8108230Y-15249150D02*
X8108230Y-15449150D01*
X8108230Y-15258674D02*
X8127277Y-15249150D01*
X8127277Y-15249150D02*
X8165373Y-15249150D01*
X8165373Y-15249150D02*
X8184420Y-15258674D01*
X8184420Y-15258674D02*
X8193944Y-15268198D01*
X8193944Y-15268198D02*
X8203468Y-15287246D01*
X8203468Y-15287246D02*
X8203468Y-15344388D01*
X8203468Y-15344388D02*
X8193944Y-15363436D01*
X8193944Y-15363436D02*
X8184420Y-15372960D01*
X8184420Y-15372960D02*
X8165373Y-15382484D01*
X8165373Y-15382484D02*
X8127277Y-15382484D01*
X8127277Y-15382484D02*
X8108230Y-15372960D01*
X8317753Y-15382484D02*
X8298706Y-15372960D01*
X8298706Y-15372960D02*
X8289182Y-15353912D01*
X8289182Y-15353912D02*
X8289182Y-15182484D01*
X8479658Y-15382484D02*
X8479658Y-15277722D01*
X8479658Y-15277722D02*
X8470135Y-15258674D01*
X8470135Y-15258674D02*
X8451087Y-15249150D01*
X8451087Y-15249150D02*
X8412992Y-15249150D01*
X8412992Y-15249150D02*
X8393944Y-15258674D01*
X8479658Y-15372960D02*
X8460611Y-15382484D01*
X8460611Y-15382484D02*
X8412992Y-15382484D01*
X8412992Y-15382484D02*
X8393944Y-15372960D01*
X8393944Y-15372960D02*
X8384420Y-15353912D01*
X8384420Y-15353912D02*
X8384420Y-15334865D01*
X8384420Y-15334865D02*
X8393944Y-15315817D01*
X8393944Y-15315817D02*
X8412992Y-15306293D01*
X8412992Y-15306293D02*
X8460611Y-15306293D01*
X8460611Y-15306293D02*
X8479658Y-15296769D01*
X8546325Y-15249150D02*
X8622515Y-15249150D01*
X8574896Y-15182484D02*
X8574896Y-15353912D01*
X8574896Y-15353912D02*
X8584420Y-15372960D01*
X8584420Y-15372960D02*
X8603468Y-15382484D01*
X8603468Y-15382484D02*
X8622515Y-15382484D01*
X8765373Y-15372960D02*
X8746325Y-15382484D01*
X8746325Y-15382484D02*
X8708230Y-15382484D01*
X8708230Y-15382484D02*
X8689182Y-15372960D01*
X8689182Y-15372960D02*
X8679658Y-15353912D01*
X8679658Y-15353912D02*
X8679658Y-15277722D01*
X8679658Y-15277722D02*
X8689182Y-15258674D01*
X8689182Y-15258674D02*
X8708230Y-15249150D01*
X8708230Y-15249150D02*
X8746325Y-15249150D01*
X8746325Y-15249150D02*
X8765373Y-15258674D01*
X8765373Y-15258674D02*
X8774896Y-15277722D01*
X8774896Y-15277722D02*
X8774896Y-15296769D01*
X8774896Y-15296769D02*
X8679658Y-15315817D01*
X8946325Y-15382484D02*
X8946325Y-15182484D01*
X8946325Y-15372960D02*
X8927277Y-15382484D01*
X8927277Y-15382484D02*
X8889182Y-15382484D01*
X8889182Y-15382484D02*
X8870135Y-15372960D01*
X8870135Y-15372960D02*
X8860611Y-15363436D01*
X8860611Y-15363436D02*
X8851087Y-15344388D01*
X8851087Y-15344388D02*
X8851087Y-15287246D01*
X8851087Y-15287246D02*
X8860611Y-15268198D01*
X8860611Y-15268198D02*
X8870135Y-15258674D01*
X8870135Y-15258674D02*
X8889182Y-15249150D01*
X8889182Y-15249150D02*
X8927277Y-15249150D01*
X8927277Y-15249150D02*
X8946325Y-15258674D01*
X9022516Y-15458674D02*
X9032039Y-15449150D01*
X9032039Y-15449150D02*
X9051087Y-15420579D01*
X9051087Y-15420579D02*
X9060611Y-15401531D01*
X9060611Y-15401531D02*
X9070135Y-15372960D01*
X9070135Y-15372960D02*
X9079658Y-15325341D01*
X9079658Y-15325341D02*
X9079658Y-15287246D01*
X9079658Y-15287246D02*
X9070135Y-15239627D01*
X9070135Y-15239627D02*
X9060611Y-15211055D01*
X9060611Y-15211055D02*
X9051087Y-15192008D01*
X9051087Y-15192008D02*
X9032039Y-15163436D01*
X9032039Y-15163436D02*
X9022516Y-15153912D01*
X2066500Y-15511000D02*
X2266500Y-15711000D01*
X2266500Y-15511000D02*
X2066500Y-15711000D01*
X2166500Y-15711000D02*
X2266500Y-15611000D01*
X2166500Y-15511000D01*
X2066500Y-15611000D01*
X2166500Y-15711000D01*
X2508229Y-15502484D02*
X2632039Y-15502484D01*
X2632039Y-15502484D02*
X2565372Y-15578674D01*
X2565372Y-15578674D02*
X2593944Y-15578674D01*
X2593944Y-15578674D02*
X2612991Y-15588198D01*
X2612991Y-15588198D02*
X2622515Y-15597722D01*
X2622515Y-15597722D02*
X2632039Y-15616769D01*
X2632039Y-15616769D02*
X2632039Y-15664388D01*
X2632039Y-15664388D02*
X2622515Y-15683436D01*
X2622515Y-15683436D02*
X2612991Y-15692960D01*
X2612991Y-15692960D02*
X2593944Y-15702484D01*
X2593944Y-15702484D02*
X2536801Y-15702484D01*
X2536801Y-15702484D02*
X2517753Y-15692960D01*
X2517753Y-15692960D02*
X2508229Y-15683436D01*
X2717753Y-15683436D02*
X2727277Y-15692960D01*
X2727277Y-15692960D02*
X2717753Y-15702484D01*
X2717753Y-15702484D02*
X2708229Y-15692960D01*
X2708229Y-15692960D02*
X2717753Y-15683436D01*
X2717753Y-15683436D02*
X2717753Y-15702484D01*
X2898705Y-15569150D02*
X2898705Y-15702484D01*
X2851086Y-15492960D02*
X2803467Y-15635817D01*
X2803467Y-15635817D02*
X2927277Y-15635817D01*
X3098705Y-15502484D02*
X3003467Y-15502484D01*
X3003467Y-15502484D02*
X2993943Y-15597722D01*
X2993943Y-15597722D02*
X3003467Y-15588198D01*
X3003467Y-15588198D02*
X3022515Y-15578674D01*
X3022515Y-15578674D02*
X3070134Y-15578674D01*
X3070134Y-15578674D02*
X3089182Y-15588198D01*
X3089182Y-15588198D02*
X3098705Y-15597722D01*
X3098705Y-15597722D02*
X3108229Y-15616769D01*
X3108229Y-15616769D02*
X3108229Y-15664388D01*
X3108229Y-15664388D02*
X3098705Y-15683436D01*
X3098705Y-15683436D02*
X3089182Y-15692960D01*
X3089182Y-15692960D02*
X3070134Y-15702484D01*
X3070134Y-15702484D02*
X3022515Y-15702484D01*
X3022515Y-15702484D02*
X3003467Y-15692960D01*
X3003467Y-15692960D02*
X2993943Y-15683436D01*
X3232039Y-15502484D02*
X3251086Y-15502484D01*
X3251086Y-15502484D02*
X3270134Y-15512008D01*
X3270134Y-15512008D02*
X3279658Y-15521531D01*
X3279658Y-15521531D02*
X3289182Y-15540579D01*
X3289182Y-15540579D02*
X3298705Y-15578674D01*
X3298705Y-15578674D02*
X3298705Y-15626293D01*
X3298705Y-15626293D02*
X3289182Y-15664388D01*
X3289182Y-15664388D02*
X3279658Y-15683436D01*
X3279658Y-15683436D02*
X3270134Y-15692960D01*
X3270134Y-15692960D02*
X3251086Y-15702484D01*
X3251086Y-15702484D02*
X3232039Y-15702484D01*
X3232039Y-15702484D02*
X3212991Y-15692960D01*
X3212991Y-15692960D02*
X3203467Y-15683436D01*
X3203467Y-15683436D02*
X3193943Y-15664388D01*
X3193943Y-15664388D02*
X3184420Y-15626293D01*
X3184420Y-15626293D02*
X3184420Y-15578674D01*
X3184420Y-15578674D02*
X3193943Y-15540579D01*
X3193943Y-15540579D02*
X3203467Y-15521531D01*
X3203467Y-15521531D02*
X3212991Y-15512008D01*
X3212991Y-15512008D02*
X3232039Y-15502484D01*
X3384420Y-15702484D02*
X3384420Y-15569150D01*
X3384420Y-15588198D02*
X3393943Y-15578674D01*
X3393943Y-15578674D02*
X3412991Y-15569150D01*
X3412991Y-15569150D02*
X3441563Y-15569150D01*
X3441563Y-15569150D02*
X3460610Y-15578674D01*
X3460610Y-15578674D02*
X3470134Y-15597722D01*
X3470134Y-15597722D02*
X3470134Y-15702484D01*
X3470134Y-15597722D02*
X3479658Y-15578674D01*
X3479658Y-15578674D02*
X3498705Y-15569150D01*
X3498705Y-15569150D02*
X3527277Y-15569150D01*
X3527277Y-15569150D02*
X3546324Y-15578674D01*
X3546324Y-15578674D02*
X3555848Y-15597722D01*
X3555848Y-15597722D02*
X3555848Y-15702484D01*
X3651086Y-15702484D02*
X3651086Y-15569150D01*
X3651086Y-15588198D02*
X3660610Y-15578674D01*
X3660610Y-15578674D02*
X3679658Y-15569150D01*
X3679658Y-15569150D02*
X3708229Y-15569150D01*
X3708229Y-15569150D02*
X3727277Y-15578674D01*
X3727277Y-15578674D02*
X3736801Y-15597722D01*
X3736801Y-15597722D02*
X3736801Y-15702484D01*
X3736801Y-15597722D02*
X3746324Y-15578674D01*
X3746324Y-15578674D02*
X3765372Y-15569150D01*
X3765372Y-15569150D02*
X3793943Y-15569150D01*
X3793943Y-15569150D02*
X3812991Y-15578674D01*
X3812991Y-15578674D02*
X3822515Y-15597722D01*
X3822515Y-15597722D02*
X3822515Y-15702484D01*
X4212991Y-15492960D02*
X4041563Y-15750103D01*
X4470134Y-15502484D02*
X4489182Y-15502484D01*
X4489182Y-15502484D02*
X4508229Y-15512008D01*
X4508229Y-15512008D02*
X4517753Y-15521531D01*
X4517753Y-15521531D02*
X4527277Y-15540579D01*
X4527277Y-15540579D02*
X4536801Y-15578674D01*
X4536801Y-15578674D02*
X4536801Y-15626293D01*
X4536801Y-15626293D02*
X4527277Y-15664388D01*
X4527277Y-15664388D02*
X4517753Y-15683436D01*
X4517753Y-15683436D02*
X4508229Y-15692960D01*
X4508229Y-15692960D02*
X4489182Y-15702484D01*
X4489182Y-15702484D02*
X4470134Y-15702484D01*
X4470134Y-15702484D02*
X4451087Y-15692960D01*
X4451087Y-15692960D02*
X4441563Y-15683436D01*
X4441563Y-15683436D02*
X4432039Y-15664388D01*
X4432039Y-15664388D02*
X4422515Y-15626293D01*
X4422515Y-15626293D02*
X4422515Y-15578674D01*
X4422515Y-15578674D02*
X4432039Y-15540579D01*
X4432039Y-15540579D02*
X4441563Y-15521531D01*
X4441563Y-15521531D02*
X4451087Y-15512008D01*
X4451087Y-15512008D02*
X4470134Y-15502484D01*
X4622515Y-15683436D02*
X4632039Y-15692960D01*
X4632039Y-15692960D02*
X4622515Y-15702484D01*
X4622515Y-15702484D02*
X4612991Y-15692960D01*
X4612991Y-15692960D02*
X4622515Y-15683436D01*
X4622515Y-15683436D02*
X4622515Y-15702484D01*
X4822515Y-15702484D02*
X4708229Y-15702484D01*
X4765372Y-15702484D02*
X4765372Y-15502484D01*
X4765372Y-15502484D02*
X4746325Y-15531055D01*
X4746325Y-15531055D02*
X4727277Y-15550103D01*
X4727277Y-15550103D02*
X4708229Y-15559627D01*
X4889182Y-15502484D02*
X5012991Y-15502484D01*
X5012991Y-15502484D02*
X4946325Y-15578674D01*
X4946325Y-15578674D02*
X4974896Y-15578674D01*
X4974896Y-15578674D02*
X4993944Y-15588198D01*
X4993944Y-15588198D02*
X5003468Y-15597722D01*
X5003468Y-15597722D02*
X5012991Y-15616769D01*
X5012991Y-15616769D02*
X5012991Y-15664388D01*
X5012991Y-15664388D02*
X5003468Y-15683436D01*
X5003468Y-15683436D02*
X4993944Y-15692960D01*
X4993944Y-15692960D02*
X4974896Y-15702484D01*
X4974896Y-15702484D02*
X4917753Y-15702484D01*
X4917753Y-15702484D02*
X4898706Y-15692960D01*
X4898706Y-15692960D02*
X4889182Y-15683436D01*
X5193944Y-15502484D02*
X5098706Y-15502484D01*
X5098706Y-15502484D02*
X5089182Y-15597722D01*
X5089182Y-15597722D02*
X5098706Y-15588198D01*
X5098706Y-15588198D02*
X5117753Y-15578674D01*
X5117753Y-15578674D02*
X5165372Y-15578674D01*
X5165372Y-15578674D02*
X5184420Y-15588198D01*
X5184420Y-15588198D02*
X5193944Y-15597722D01*
X5193944Y-15597722D02*
X5203468Y-15616769D01*
X5203468Y-15616769D02*
X5203468Y-15664388D01*
X5203468Y-15664388D02*
X5193944Y-15683436D01*
X5193944Y-15683436D02*
X5184420Y-15692960D01*
X5184420Y-15692960D02*
X5165372Y-15702484D01*
X5165372Y-15702484D02*
X5117753Y-15702484D01*
X5117753Y-15702484D02*
X5098706Y-15692960D01*
X5098706Y-15692960D02*
X5089182Y-15683436D01*
X5317753Y-15588198D02*
X5298706Y-15578674D01*
X5298706Y-15578674D02*
X5289182Y-15569150D01*
X5289182Y-15569150D02*
X5279658Y-15550103D01*
X5279658Y-15550103D02*
X5279658Y-15540579D01*
X5279658Y-15540579D02*
X5289182Y-15521531D01*
X5289182Y-15521531D02*
X5298706Y-15512008D01*
X5298706Y-15512008D02*
X5317753Y-15502484D01*
X5317753Y-15502484D02*
X5355849Y-15502484D01*
X5355849Y-15502484D02*
X5374896Y-15512008D01*
X5374896Y-15512008D02*
X5384420Y-15521531D01*
X5384420Y-15521531D02*
X5393944Y-15540579D01*
X5393944Y-15540579D02*
X5393944Y-15550103D01*
X5393944Y-15550103D02*
X5384420Y-15569150D01*
X5384420Y-15569150D02*
X5374896Y-15578674D01*
X5374896Y-15578674D02*
X5355849Y-15588198D01*
X5355849Y-15588198D02*
X5317753Y-15588198D01*
X5317753Y-15588198D02*
X5298706Y-15597722D01*
X5298706Y-15597722D02*
X5289182Y-15607246D01*
X5289182Y-15607246D02*
X5279658Y-15626293D01*
X5279658Y-15626293D02*
X5279658Y-15664388D01*
X5279658Y-15664388D02*
X5289182Y-15683436D01*
X5289182Y-15683436D02*
X5298706Y-15692960D01*
X5298706Y-15692960D02*
X5317753Y-15702484D01*
X5317753Y-15702484D02*
X5355849Y-15702484D01*
X5355849Y-15702484D02*
X5374896Y-15692960D01*
X5374896Y-15692960D02*
X5384420Y-15683436D01*
X5384420Y-15683436D02*
X5393944Y-15664388D01*
X5393944Y-15664388D02*
X5393944Y-15626293D01*
X5393944Y-15626293D02*
X5384420Y-15607246D01*
X5384420Y-15607246D02*
X5374896Y-15597722D01*
X5374896Y-15597722D02*
X5355849Y-15588198D01*
X5470134Y-15502484D02*
X5470134Y-15540579D01*
X5546325Y-15502484D02*
X5546325Y-15540579D01*
X5841563Y-15778674D02*
X5832039Y-15769150D01*
X5832039Y-15769150D02*
X5812991Y-15740579D01*
X5812991Y-15740579D02*
X5803468Y-15721531D01*
X5803468Y-15721531D02*
X5793944Y-15692960D01*
X5793944Y-15692960D02*
X5784420Y-15645341D01*
X5784420Y-15645341D02*
X5784420Y-15607246D01*
X5784420Y-15607246D02*
X5793944Y-15559627D01*
X5793944Y-15559627D02*
X5803468Y-15531055D01*
X5803468Y-15531055D02*
X5812991Y-15512008D01*
X5812991Y-15512008D02*
X5832039Y-15483436D01*
X5832039Y-15483436D02*
X5841563Y-15473912D01*
X5908229Y-15521531D02*
X5917753Y-15512008D01*
X5917753Y-15512008D02*
X5936801Y-15502484D01*
X5936801Y-15502484D02*
X5984420Y-15502484D01*
X5984420Y-15502484D02*
X6003468Y-15512008D01*
X6003468Y-15512008D02*
X6012991Y-15521531D01*
X6012991Y-15521531D02*
X6022515Y-15540579D01*
X6022515Y-15540579D02*
X6022515Y-15559627D01*
X6022515Y-15559627D02*
X6012991Y-15588198D01*
X6012991Y-15588198D02*
X5898706Y-15702484D01*
X5898706Y-15702484D02*
X6022515Y-15702484D01*
X6260610Y-15702484D02*
X6260610Y-15502484D01*
X6346325Y-15702484D02*
X6346325Y-15597722D01*
X6346325Y-15597722D02*
X6336801Y-15578674D01*
X6336801Y-15578674D02*
X6317753Y-15569150D01*
X6317753Y-15569150D02*
X6289182Y-15569150D01*
X6289182Y-15569150D02*
X6270134Y-15578674D01*
X6270134Y-15578674D02*
X6260610Y-15588198D01*
X6470134Y-15702484D02*
X6451087Y-15692960D01*
X6451087Y-15692960D02*
X6441563Y-15683436D01*
X6441563Y-15683436D02*
X6432039Y-15664388D01*
X6432039Y-15664388D02*
X6432039Y-15607246D01*
X6432039Y-15607246D02*
X6441563Y-15588198D01*
X6441563Y-15588198D02*
X6451087Y-15578674D01*
X6451087Y-15578674D02*
X6470134Y-15569150D01*
X6470134Y-15569150D02*
X6498706Y-15569150D01*
X6498706Y-15569150D02*
X6517753Y-15578674D01*
X6517753Y-15578674D02*
X6527277Y-15588198D01*
X6527277Y-15588198D02*
X6536801Y-15607246D01*
X6536801Y-15607246D02*
X6536801Y-15664388D01*
X6536801Y-15664388D02*
X6527277Y-15683436D01*
X6527277Y-15683436D02*
X6517753Y-15692960D01*
X6517753Y-15692960D02*
X6498706Y-15702484D01*
X6498706Y-15702484D02*
X6470134Y-15702484D01*
X6651087Y-15702484D02*
X6632039Y-15692960D01*
X6632039Y-15692960D02*
X6622515Y-15673912D01*
X6622515Y-15673912D02*
X6622515Y-15502484D01*
X6803468Y-15692960D02*
X6784420Y-15702484D01*
X6784420Y-15702484D02*
X6746325Y-15702484D01*
X6746325Y-15702484D02*
X6727277Y-15692960D01*
X6727277Y-15692960D02*
X6717753Y-15673912D01*
X6717753Y-15673912D02*
X6717753Y-15597722D01*
X6717753Y-15597722D02*
X6727277Y-15578674D01*
X6727277Y-15578674D02*
X6746325Y-15569150D01*
X6746325Y-15569150D02*
X6784420Y-15569150D01*
X6784420Y-15569150D02*
X6803468Y-15578674D01*
X6803468Y-15578674D02*
X6812991Y-15597722D01*
X6812991Y-15597722D02*
X6812991Y-15616769D01*
X6812991Y-15616769D02*
X6717753Y-15635817D01*
X6889182Y-15692960D02*
X6908230Y-15702484D01*
X6908230Y-15702484D02*
X6946325Y-15702484D01*
X6946325Y-15702484D02*
X6965372Y-15692960D01*
X6965372Y-15692960D02*
X6974896Y-15673912D01*
X6974896Y-15673912D02*
X6974896Y-15664388D01*
X6974896Y-15664388D02*
X6965372Y-15645341D01*
X6965372Y-15645341D02*
X6946325Y-15635817D01*
X6946325Y-15635817D02*
X6917753Y-15635817D01*
X6917753Y-15635817D02*
X6898706Y-15626293D01*
X6898706Y-15626293D02*
X6889182Y-15607246D01*
X6889182Y-15607246D02*
X6889182Y-15597722D01*
X6889182Y-15597722D02*
X6898706Y-15578674D01*
X6898706Y-15578674D02*
X6917753Y-15569150D01*
X6917753Y-15569150D02*
X6946325Y-15569150D01*
X6946325Y-15569150D02*
X6965372Y-15578674D01*
X7041563Y-15778674D02*
X7051087Y-15769150D01*
X7051087Y-15769150D02*
X7070134Y-15740579D01*
X7070134Y-15740579D02*
X7079658Y-15721531D01*
X7079658Y-15721531D02*
X7089182Y-15692960D01*
X7089182Y-15692960D02*
X7098706Y-15645341D01*
X7098706Y-15645341D02*
X7098706Y-15607246D01*
X7098706Y-15607246D02*
X7089182Y-15559627D01*
X7089182Y-15559627D02*
X7079658Y-15531055D01*
X7079658Y-15531055D02*
X7070134Y-15512008D01*
X7070134Y-15512008D02*
X7051087Y-15483436D01*
X7051087Y-15483436D02*
X7041563Y-15473912D01*
X7403468Y-15778674D02*
X7393944Y-15769150D01*
X7393944Y-15769150D02*
X7374896Y-15740579D01*
X7374896Y-15740579D02*
X7365372Y-15721531D01*
X7365372Y-15721531D02*
X7355849Y-15692960D01*
X7355849Y-15692960D02*
X7346325Y-15645341D01*
X7346325Y-15645341D02*
X7346325Y-15607246D01*
X7346325Y-15607246D02*
X7355849Y-15559627D01*
X7355849Y-15559627D02*
X7365372Y-15531055D01*
X7365372Y-15531055D02*
X7374896Y-15512008D01*
X7374896Y-15512008D02*
X7393944Y-15483436D01*
X7393944Y-15483436D02*
X7403468Y-15473912D01*
X7479658Y-15569150D02*
X7479658Y-15702484D01*
X7479658Y-15588198D02*
X7489182Y-15578674D01*
X7489182Y-15578674D02*
X7508230Y-15569150D01*
X7508230Y-15569150D02*
X7536801Y-15569150D01*
X7536801Y-15569150D02*
X7555849Y-15578674D01*
X7555849Y-15578674D02*
X7565372Y-15597722D01*
X7565372Y-15597722D02*
X7565372Y-15702484D01*
X7689182Y-15702484D02*
X7670134Y-15692960D01*
X7670134Y-15692960D02*
X7660611Y-15683436D01*
X7660611Y-15683436D02*
X7651087Y-15664388D01*
X7651087Y-15664388D02*
X7651087Y-15607246D01*
X7651087Y-15607246D02*
X7660611Y-15588198D01*
X7660611Y-15588198D02*
X7670134Y-15578674D01*
X7670134Y-15578674D02*
X7689182Y-15569150D01*
X7689182Y-15569150D02*
X7717753Y-15569150D01*
X7717753Y-15569150D02*
X7736801Y-15578674D01*
X7736801Y-15578674D02*
X7746325Y-15588198D01*
X7746325Y-15588198D02*
X7755849Y-15607246D01*
X7755849Y-15607246D02*
X7755849Y-15664388D01*
X7755849Y-15664388D02*
X7746325Y-15683436D01*
X7746325Y-15683436D02*
X7736801Y-15692960D01*
X7736801Y-15692960D02*
X7717753Y-15702484D01*
X7717753Y-15702484D02*
X7689182Y-15702484D01*
X7812992Y-15569150D02*
X7889182Y-15569150D01*
X7841563Y-15502484D02*
X7841563Y-15673912D01*
X7841563Y-15673912D02*
X7851087Y-15692960D01*
X7851087Y-15692960D02*
X7870134Y-15702484D01*
X7870134Y-15702484D02*
X7889182Y-15702484D01*
X8108230Y-15569150D02*
X8108230Y-15769150D01*
X8108230Y-15578674D02*
X8127277Y-15569150D01*
X8127277Y-15569150D02*
X8165373Y-15569150D01*
X8165373Y-15569150D02*
X8184420Y-15578674D01*
X8184420Y-15578674D02*
X8193944Y-15588198D01*
X8193944Y-15588198D02*
X8203468Y-15607246D01*
X8203468Y-15607246D02*
X8203468Y-15664388D01*
X8203468Y-15664388D02*
X8193944Y-15683436D01*
X8193944Y-15683436D02*
X8184420Y-15692960D01*
X8184420Y-15692960D02*
X8165373Y-15702484D01*
X8165373Y-15702484D02*
X8127277Y-15702484D01*
X8127277Y-15702484D02*
X8108230Y-15692960D01*
X8317753Y-15702484D02*
X8298706Y-15692960D01*
X8298706Y-15692960D02*
X8289182Y-15673912D01*
X8289182Y-15673912D02*
X8289182Y-15502484D01*
X8479658Y-15702484D02*
X8479658Y-15597722D01*
X8479658Y-15597722D02*
X8470135Y-15578674D01*
X8470135Y-15578674D02*
X8451087Y-15569150D01*
X8451087Y-15569150D02*
X8412992Y-15569150D01*
X8412992Y-15569150D02*
X8393944Y-15578674D01*
X8479658Y-15692960D02*
X8460611Y-15702484D01*
X8460611Y-15702484D02*
X8412992Y-15702484D01*
X8412992Y-15702484D02*
X8393944Y-15692960D01*
X8393944Y-15692960D02*
X8384420Y-15673912D01*
X8384420Y-15673912D02*
X8384420Y-15654865D01*
X8384420Y-15654865D02*
X8393944Y-15635817D01*
X8393944Y-15635817D02*
X8412992Y-15626293D01*
X8412992Y-15626293D02*
X8460611Y-15626293D01*
X8460611Y-15626293D02*
X8479658Y-15616769D01*
X8546325Y-15569150D02*
X8622515Y-15569150D01*
X8574896Y-15502484D02*
X8574896Y-15673912D01*
X8574896Y-15673912D02*
X8584420Y-15692960D01*
X8584420Y-15692960D02*
X8603468Y-15702484D01*
X8603468Y-15702484D02*
X8622515Y-15702484D01*
X8765373Y-15692960D02*
X8746325Y-15702484D01*
X8746325Y-15702484D02*
X8708230Y-15702484D01*
X8708230Y-15702484D02*
X8689182Y-15692960D01*
X8689182Y-15692960D02*
X8679658Y-15673912D01*
X8679658Y-15673912D02*
X8679658Y-15597722D01*
X8679658Y-15597722D02*
X8689182Y-15578674D01*
X8689182Y-15578674D02*
X8708230Y-15569150D01*
X8708230Y-15569150D02*
X8746325Y-15569150D01*
X8746325Y-15569150D02*
X8765373Y-15578674D01*
X8765373Y-15578674D02*
X8774896Y-15597722D01*
X8774896Y-15597722D02*
X8774896Y-15616769D01*
X8774896Y-15616769D02*
X8679658Y-15635817D01*
X8946325Y-15702484D02*
X8946325Y-15502484D01*
X8946325Y-15692960D02*
X8927277Y-15702484D01*
X8927277Y-15702484D02*
X8889182Y-15702484D01*
X8889182Y-15702484D02*
X8870135Y-15692960D01*
X8870135Y-15692960D02*
X8860611Y-15683436D01*
X8860611Y-15683436D02*
X8851087Y-15664388D01*
X8851087Y-15664388D02*
X8851087Y-15607246D01*
X8851087Y-15607246D02*
X8860611Y-15588198D01*
X8860611Y-15588198D02*
X8870135Y-15578674D01*
X8870135Y-15578674D02*
X8889182Y-15569150D01*
X8889182Y-15569150D02*
X8927277Y-15569150D01*
X8927277Y-15569150D02*
X8946325Y-15578674D01*
X9022516Y-15778674D02*
X9032039Y-15769150D01*
X9032039Y-15769150D02*
X9051087Y-15740579D01*
X9051087Y-15740579D02*
X9060611Y-15721531D01*
X9060611Y-15721531D02*
X9070135Y-15692960D01*
X9070135Y-15692960D02*
X9079658Y-15645341D01*
X9079658Y-15645341D02*
X9079658Y-15607246D01*
X9079658Y-15607246D02*
X9070135Y-15559627D01*
X9070135Y-15559627D02*
X9060611Y-15531055D01*
X9060611Y-15531055D02*
X9051087Y-15512008D01*
X9051087Y-15512008D02*
X9032039Y-15483436D01*
X9032039Y-15483436D02*
X9022516Y-15473912D01*
M02*
