G04 #@! TF.GenerationSoftware,KiCad,Pcbnew,7.0.9*
G04 #@! TF.CreationDate,2024-04-22T21:03:38-07:00*
G04 #@! TF.ProjectId,AVcarrierBoard,41566361-7272-4696-9572-426f6172642e,rev?*
G04 #@! TF.SameCoordinates,Original*
G04 #@! TF.FileFunction,Copper,L3,Inr*
G04 #@! TF.FilePolarity,Positive*
%FSLAX46Y46*%
G04 Gerber Fmt 4.6, Leading zero omitted, Abs format (unit mm)*
G04 Created by KiCad (PCBNEW 7.0.9) date 2024-04-22 21:03:38*
%MOMM*%
%LPD*%
G01*
G04 APERTURE LIST*
G04 #@! TA.AperFunction,WasherPad*
%ADD10C,6.000000*%
G04 #@! TD*
G04 #@! TA.AperFunction,ComponentPad*
%ADD11C,2.032000*%
G04 #@! TD*
G04 #@! TA.AperFunction,ComponentPad*
%ADD12R,1.520000X1.520000*%
G04 #@! TD*
G04 #@! TA.AperFunction,ComponentPad*
%ADD13C,1.520000*%
G04 #@! TD*
G04 #@! TA.AperFunction,ComponentPad*
%ADD14R,1.650000X1.650000*%
G04 #@! TD*
G04 #@! TA.AperFunction,ComponentPad*
%ADD15C,1.650000*%
G04 #@! TD*
G04 #@! TA.AperFunction,ComponentPad*
%ADD16R,2.032000X2.032000*%
G04 #@! TD*
G04 #@! TA.AperFunction,ComponentPad*
%ADD17R,2.800000X2.800000*%
G04 #@! TD*
G04 #@! TA.AperFunction,ComponentPad*
%ADD18C,2.800000*%
G04 #@! TD*
G04 #@! TA.AperFunction,WasherPad*
%ADD19C,6.560820*%
G04 #@! TD*
G04 #@! TA.AperFunction,ComponentPad*
%ADD20C,3.654400*%
G04 #@! TD*
G04 #@! TA.AperFunction,WasherPad*
%ADD21C,5.842000*%
G04 #@! TD*
G04 #@! TA.AperFunction,ViaPad*
%ADD22C,3.000000*%
G04 #@! TD*
G04 #@! TA.AperFunction,Conductor*
%ADD23C,2.500000*%
G04 #@! TD*
G04 APERTURE END LIST*
D10*
X131210000Y-78920000D03*
D11*
X148310000Y-71120000D03*
X148310000Y-79620000D03*
X113310000Y-71120000D03*
X113310000Y-79620000D03*
D12*
X159362399Y-91440000D03*
D13*
X156362400Y-91440000D03*
D14*
X29464000Y-96723200D03*
D15*
X29464000Y-101803200D03*
X29464000Y-106883200D03*
X29464000Y-111963200D03*
D16*
X117275000Y-108060000D03*
X117275000Y-111520000D03*
X117275000Y-114980000D03*
X117275000Y-118440000D03*
D11*
X36735000Y-114220000D03*
X36735000Y-119300000D03*
D17*
X43557799Y-77730434D03*
D18*
X43557799Y-81930433D03*
X43557799Y-86130432D03*
X39357800Y-77730434D03*
X39357800Y-81930433D03*
X39357800Y-86130432D03*
D14*
X270650000Y-88137500D03*
D15*
X270650000Y-93217500D03*
X270650000Y-98297500D03*
X270650000Y-103377500D03*
D12*
X159486600Y-71094600D03*
D13*
X156486601Y-71094600D03*
D19*
X194616600Y-117830600D03*
X165673300Y-104876600D03*
D16*
X147372600Y-103860600D03*
X147372600Y-107035600D03*
X147372600Y-110210600D03*
X147372600Y-113385600D03*
X147372600Y-116560600D03*
X147372600Y-119735600D03*
D20*
X249000000Y-90000000D03*
X193755000Y-73998000D03*
D21*
X62616800Y-89756000D03*
X88016800Y-77056000D03*
D11*
X106599387Y-78326000D03*
X106599387Y-73765535D03*
D12*
X156512001Y-81127600D03*
D13*
X159512000Y-81127600D03*
D22*
X251228000Y-80772000D03*
X175869600Y-95046800D03*
X109220000Y-88900000D03*
X173618000Y-77402600D03*
X122453400Y-89230200D03*
D23*
X159362399Y-91440000D02*
X159362399Y-112677801D01*
X159362399Y-112677801D02*
X149739200Y-122301000D01*
X44816000Y-122301000D02*
X36735000Y-114220000D01*
X149739200Y-122301000D02*
X44816000Y-122301000D01*
G04 #@! TA.AperFunction,Conductor*
G36*
X276307539Y-66059685D02*
G01*
X276353294Y-66112489D01*
X276364500Y-66164000D01*
X276364500Y-124336000D01*
X276344815Y-124403039D01*
X276292011Y-124448794D01*
X276240500Y-124460000D01*
X22984000Y-124460000D01*
X22916961Y-124440315D01*
X22871206Y-124387511D01*
X22860000Y-124336000D01*
X22860000Y-119498563D01*
X27152587Y-119498563D01*
X27182213Y-119767813D01*
X27182215Y-119767824D01*
X27250726Y-120029882D01*
X27250728Y-120029888D01*
X27356670Y-120279190D01*
X27478009Y-120478011D01*
X27497779Y-120510405D01*
X27497786Y-120510415D01*
X27671053Y-120718619D01*
X27671059Y-120718624D01*
X27832449Y-120863229D01*
X27872798Y-120899382D01*
X28098710Y-121048844D01*
X28343976Y-121163820D01*
X28343983Y-121163822D01*
X28343985Y-121163823D01*
X28603357Y-121241857D01*
X28603364Y-121241858D01*
X28603369Y-121241860D01*
X28871361Y-121281300D01*
X28871366Y-121281300D01*
X29074436Y-121281300D01*
X29125933Y-121277530D01*
X29276956Y-121266477D01*
X29389558Y-121241393D01*
X29541346Y-121207582D01*
X29541348Y-121207581D01*
X29541353Y-121207580D01*
X29794358Y-121110814D01*
X30030577Y-120978241D01*
X30244977Y-120812688D01*
X30432986Y-120617681D01*
X30590599Y-120397379D01*
X30689180Y-120205637D01*
X30714449Y-120156490D01*
X30714451Y-120156484D01*
X30714456Y-120156475D01*
X30801918Y-119900105D01*
X30851119Y-119633733D01*
X30861012Y-119363035D01*
X30854076Y-119300000D01*
X35213811Y-119300000D01*
X35232538Y-119537963D01*
X35288261Y-119770068D01*
X35379608Y-119990600D01*
X35379610Y-119990604D01*
X35379611Y-119990605D01*
X35504332Y-120194132D01*
X35659357Y-120375643D01*
X35840868Y-120530668D01*
X36044395Y-120655389D01*
X36044397Y-120655389D01*
X36044399Y-120655391D01*
X36120071Y-120686735D01*
X36264927Y-120746737D01*
X36497034Y-120802461D01*
X36735000Y-120821189D01*
X36972966Y-120802461D01*
X37205073Y-120746737D01*
X37425605Y-120655389D01*
X37629132Y-120530668D01*
X37810643Y-120375643D01*
X37965668Y-120194132D01*
X38090389Y-119990605D01*
X38181737Y-119770073D01*
X38237461Y-119537966D01*
X38256189Y-119300000D01*
X38237461Y-119062034D01*
X38181737Y-118829927D01*
X38116203Y-118671716D01*
X38090391Y-118609399D01*
X38080136Y-118592665D01*
X37965668Y-118405868D01*
X37810643Y-118224357D01*
X37629132Y-118069332D01*
X37425605Y-117944611D01*
X37425604Y-117944610D01*
X37425600Y-117944608D01*
X37205068Y-117853261D01*
X36972962Y-117797538D01*
X36972963Y-117797538D01*
X36735000Y-117778811D01*
X36497036Y-117797538D01*
X36264931Y-117853261D01*
X36044399Y-117944608D01*
X35840867Y-118069332D01*
X35659357Y-118224357D01*
X35504332Y-118405867D01*
X35379608Y-118609399D01*
X35288261Y-118829931D01*
X35232538Y-119062036D01*
X35213811Y-119300000D01*
X30854076Y-119300000D01*
X30831386Y-119093782D01*
X30762872Y-118831712D01*
X30656930Y-118582410D01*
X30515818Y-118351190D01*
X30514645Y-118349781D01*
X30342546Y-118142980D01*
X30342540Y-118142975D01*
X30140802Y-117962218D01*
X29914892Y-117812757D01*
X29882427Y-117797538D01*
X29669624Y-117697780D01*
X29669619Y-117697778D01*
X29669614Y-117697776D01*
X29410242Y-117619742D01*
X29410228Y-117619739D01*
X29294591Y-117602721D01*
X29142239Y-117580300D01*
X28939169Y-117580300D01*
X28939164Y-117580300D01*
X28736644Y-117595123D01*
X28736631Y-117595125D01*
X28472253Y-117654017D01*
X28472246Y-117654020D01*
X28219239Y-117750787D01*
X27983026Y-117883357D01*
X27768622Y-118048912D01*
X27580622Y-118243909D01*
X27580616Y-118243916D01*
X27423002Y-118464219D01*
X27422999Y-118464224D01*
X27299150Y-118705109D01*
X27299143Y-118705127D01*
X27211684Y-118961485D01*
X27211681Y-118961499D01*
X27162481Y-119227868D01*
X27162480Y-119227875D01*
X27152587Y-119498563D01*
X22860000Y-119498563D01*
X22860000Y-114285635D01*
X34980818Y-114285635D01*
X35010194Y-114546345D01*
X35010194Y-114546349D01*
X35078099Y-114799773D01*
X35078100Y-114799775D01*
X35183017Y-115040247D01*
X35322602Y-115262397D01*
X35322605Y-115262400D01*
X35322607Y-115262403D01*
X35450890Y-115411471D01*
X35450890Y-115411470D01*
X35450898Y-115411479D01*
X39537982Y-119498563D01*
X43555070Y-123515651D01*
X43622017Y-123587804D01*
X43698979Y-123649178D01*
X43773600Y-123713396D01*
X43773602Y-123713397D01*
X43773603Y-123713398D01*
X43798497Y-123729040D01*
X43804167Y-123733064D01*
X43827144Y-123751387D01*
X43912385Y-123800600D01*
X43995753Y-123852984D01*
X44022704Y-123864742D01*
X44028907Y-123867874D01*
X44054357Y-123882568D01*
X44145984Y-123918528D01*
X44236226Y-123957901D01*
X44264620Y-123965508D01*
X44271218Y-123967679D01*
X44298584Y-123978420D01*
X44298590Y-123978421D01*
X44298592Y-123978422D01*
X44394562Y-124000326D01*
X44489650Y-124025805D01*
X44518856Y-124029095D01*
X44525701Y-124030258D01*
X44554370Y-124036802D01*
X44554375Y-124036802D01*
X44554378Y-124036803D01*
X44652539Y-124044158D01*
X44750364Y-124055181D01*
X44848731Y-124051500D01*
X149706469Y-124051500D01*
X149804835Y-124055181D01*
X149804835Y-124055180D01*
X149804836Y-124055181D01*
X149902660Y-124044158D01*
X150000830Y-124036802D01*
X150016867Y-124033141D01*
X150029487Y-124030261D01*
X150036347Y-124029095D01*
X150039242Y-124028768D01*
X150065550Y-124025805D01*
X150128936Y-124008820D01*
X150160631Y-124000328D01*
X150256608Y-123978422D01*
X150256609Y-123978421D01*
X150256616Y-123978420D01*
X150283990Y-123967675D01*
X150290572Y-123965509D01*
X150318975Y-123957900D01*
X150409199Y-123918535D01*
X150500843Y-123882568D01*
X150526319Y-123867857D01*
X150532487Y-123864744D01*
X150559447Y-123852983D01*
X150642802Y-123800607D01*
X150728057Y-123751386D01*
X150751045Y-123733052D01*
X150756692Y-123729045D01*
X150781597Y-123713398D01*
X150856220Y-123649178D01*
X150933169Y-123587815D01*
X150933171Y-123587812D01*
X150933181Y-123587805D01*
X151000129Y-123515651D01*
X156685180Y-117830600D01*
X190830831Y-117830600D01*
X190850254Y-118213600D01*
X190906754Y-118582410D01*
X190908326Y-118592670D01*
X190937443Y-118705125D01*
X191004451Y-118963928D01*
X191137634Y-119323531D01*
X191137640Y-119323544D01*
X191306525Y-119667840D01*
X191306530Y-119667849D01*
X191509379Y-119993289D01*
X191730681Y-120279189D01*
X191744117Y-120296546D01*
X191966806Y-120530815D01*
X192008330Y-120574498D01*
X192299305Y-120824292D01*
X192299308Y-120824294D01*
X192614064Y-121043371D01*
X192909915Y-121207582D01*
X192949373Y-121229483D01*
X193035573Y-121266474D01*
X193301783Y-121380713D01*
X193301786Y-121380714D01*
X193301791Y-121380716D01*
X193667676Y-121495513D01*
X193667679Y-121495513D01*
X193667687Y-121495516D01*
X194043329Y-121572713D01*
X194348549Y-121603750D01*
X194424853Y-121611510D01*
X194424854Y-121611510D01*
X194808347Y-121611510D01*
X194871933Y-121605043D01*
X195189871Y-121572713D01*
X195565513Y-121495516D01*
X195565523Y-121495513D01*
X195931408Y-121380716D01*
X195931409Y-121380715D01*
X195931417Y-121380713D01*
X196283831Y-121229481D01*
X196619136Y-121043371D01*
X196933892Y-120824294D01*
X197224870Y-120574498D01*
X197489083Y-120296546D01*
X197723821Y-119993289D01*
X197926674Y-119667841D01*
X198009709Y-119498563D01*
X267741387Y-119498563D01*
X267771013Y-119767813D01*
X267771015Y-119767824D01*
X267839526Y-120029882D01*
X267839528Y-120029888D01*
X267945470Y-120279190D01*
X268066809Y-120478011D01*
X268086579Y-120510405D01*
X268086586Y-120510415D01*
X268259853Y-120718619D01*
X268259859Y-120718624D01*
X268421249Y-120863229D01*
X268461598Y-120899382D01*
X268687510Y-121048844D01*
X268932776Y-121163820D01*
X268932783Y-121163822D01*
X268932785Y-121163823D01*
X269192157Y-121241857D01*
X269192164Y-121241858D01*
X269192169Y-121241860D01*
X269460161Y-121281300D01*
X269460166Y-121281300D01*
X269663236Y-121281300D01*
X269714733Y-121277530D01*
X269865756Y-121266477D01*
X269978358Y-121241393D01*
X270130146Y-121207582D01*
X270130148Y-121207581D01*
X270130153Y-121207580D01*
X270383158Y-121110814D01*
X270619377Y-120978241D01*
X270833777Y-120812688D01*
X271021786Y-120617681D01*
X271179399Y-120397379D01*
X271277980Y-120205637D01*
X271303249Y-120156490D01*
X271303251Y-120156484D01*
X271303256Y-120156475D01*
X271390718Y-119900105D01*
X271439919Y-119633733D01*
X271449812Y-119363035D01*
X271420186Y-119093782D01*
X271351672Y-118831712D01*
X271245730Y-118582410D01*
X271104618Y-118351190D01*
X271103445Y-118349781D01*
X270931346Y-118142980D01*
X270931340Y-118142975D01*
X270729602Y-117962218D01*
X270503692Y-117812757D01*
X270471227Y-117797538D01*
X270258424Y-117697780D01*
X270258419Y-117697778D01*
X270258414Y-117697776D01*
X269999042Y-117619742D01*
X269999028Y-117619739D01*
X269883391Y-117602721D01*
X269731039Y-117580300D01*
X269527969Y-117580300D01*
X269527964Y-117580300D01*
X269325444Y-117595123D01*
X269325431Y-117595125D01*
X269061053Y-117654017D01*
X269061046Y-117654020D01*
X268808039Y-117750787D01*
X268571826Y-117883357D01*
X268357422Y-118048912D01*
X268169422Y-118243909D01*
X268169416Y-118243916D01*
X268011802Y-118464219D01*
X268011799Y-118464224D01*
X267887950Y-118705109D01*
X267887943Y-118705127D01*
X267800484Y-118961485D01*
X267800481Y-118961499D01*
X267751281Y-119227868D01*
X267751280Y-119227875D01*
X267741387Y-119498563D01*
X198009709Y-119498563D01*
X198095562Y-119323540D01*
X198228751Y-118963920D01*
X198324874Y-118592670D01*
X198382945Y-118213600D01*
X198402369Y-117830600D01*
X198382945Y-117447600D01*
X198324874Y-117068530D01*
X198228751Y-116697280D01*
X198152016Y-116490091D01*
X198095565Y-116337668D01*
X198095564Y-116337667D01*
X198095562Y-116337660D01*
X197926674Y-115993359D01*
X197926669Y-115993350D01*
X197723820Y-115667910D01*
X197489087Y-115364659D01*
X197489086Y-115364658D01*
X197489083Y-115364654D01*
X197224870Y-115086702D01*
X197175245Y-115044100D01*
X196933894Y-114836907D01*
X196656643Y-114643935D01*
X196619136Y-114617829D01*
X196315823Y-114449476D01*
X196283826Y-114431716D01*
X195931408Y-114280483D01*
X195565523Y-114165686D01*
X195565517Y-114165685D01*
X195565514Y-114165684D01*
X195565513Y-114165684D01*
X195189871Y-114088487D01*
X195189870Y-114088486D01*
X195189866Y-114088486D01*
X194808347Y-114049690D01*
X194808346Y-114049690D01*
X194424854Y-114049690D01*
X194424853Y-114049690D01*
X194043333Y-114088486D01*
X193667682Y-114165685D01*
X193667676Y-114165686D01*
X193301791Y-114280483D01*
X192949373Y-114431716D01*
X192614062Y-114617830D01*
X192299305Y-114836907D01*
X192008330Y-115086701D01*
X191744112Y-115364659D01*
X191509379Y-115667910D01*
X191306530Y-115993350D01*
X191306525Y-115993359D01*
X191137640Y-116337655D01*
X191137634Y-116337668D01*
X191004451Y-116697271D01*
X190908325Y-117068534D01*
X190850254Y-117447599D01*
X190830831Y-117830600D01*
X156685180Y-117830600D01*
X160577050Y-113938730D01*
X160649204Y-113871782D01*
X160661378Y-113856517D01*
X160710577Y-113794821D01*
X160735662Y-113765672D01*
X160774797Y-113720198D01*
X160790441Y-113695298D01*
X160794455Y-113689640D01*
X160812785Y-113666658D01*
X160862004Y-113581407D01*
X160914383Y-113498047D01*
X160926139Y-113471099D01*
X160929268Y-113464902D01*
X160943967Y-113439444D01*
X160979929Y-113347813D01*
X161019300Y-113257575D01*
X161026907Y-113229182D01*
X161029083Y-113222568D01*
X161039819Y-113195217D01*
X161061722Y-113099254D01*
X161087205Y-113004151D01*
X161090496Y-112974932D01*
X161091660Y-112968085D01*
X161098202Y-112939425D01*
X161105556Y-112841271D01*
X161109349Y-112807607D01*
X161116580Y-112743437D01*
X161112899Y-112645059D01*
X161112899Y-108945001D01*
X191739454Y-108945001D01*
X191759613Y-109226866D01*
X191819678Y-109502977D01*
X191819680Y-109502984D01*
X191847100Y-109576499D01*
X191918432Y-109767750D01*
X191918434Y-109767754D01*
X192053855Y-110015758D01*
X192053860Y-110015766D01*
X192223196Y-110241974D01*
X192223212Y-110241992D01*
X192423007Y-110441787D01*
X192423025Y-110441803D01*
X192649233Y-110611139D01*
X192649241Y-110611144D01*
X192897245Y-110746565D01*
X192897249Y-110746567D01*
X192897251Y-110746568D01*
X193162016Y-110845320D01*
X193300077Y-110875353D01*
X193438133Y-110905386D01*
X193438135Y-110905386D01*
X193438139Y-110905387D01*
X193649447Y-110920500D01*
X193790553Y-110920500D01*
X194001861Y-110905387D01*
X194277984Y-110845320D01*
X194542749Y-110746568D01*
X194790764Y-110611141D01*
X195016982Y-110441797D01*
X195216797Y-110241982D01*
X195386141Y-110015764D01*
X195521568Y-109767749D01*
X195620320Y-109502984D01*
X195680387Y-109226861D01*
X195691979Y-109064778D01*
X255694500Y-109064778D01*
X255714215Y-109182921D01*
X255733930Y-109301067D01*
X255811711Y-109527637D01*
X255811713Y-109527642D01*
X255925730Y-109738325D01*
X255925734Y-109738331D01*
X256049918Y-109897882D01*
X256072866Y-109927366D01*
X256249113Y-110089612D01*
X256449660Y-110220636D01*
X256669038Y-110316864D01*
X256901263Y-110375672D01*
X257080213Y-110390500D01*
X257080215Y-110390500D01*
X257199785Y-110390500D01*
X257199787Y-110390500D01*
X257378737Y-110375672D01*
X257610962Y-110316864D01*
X257830340Y-110220636D01*
X258030887Y-110089612D01*
X258207134Y-109927366D01*
X258354271Y-109738323D01*
X258468287Y-109527641D01*
X258546070Y-109301065D01*
X258585500Y-109064778D01*
X258585500Y-108825222D01*
X258546070Y-108588935D01*
X258529790Y-108541514D01*
X258468288Y-108362362D01*
X258468286Y-108362357D01*
X258376931Y-108193549D01*
X258354271Y-108151677D01*
X258354269Y-108151674D01*
X258354265Y-108151668D01*
X258207139Y-107962641D01*
X258207134Y-107962634D01*
X258030887Y-107800388D01*
X258030884Y-107800386D01*
X258030883Y-107800385D01*
X257936113Y-107738469D01*
X257830340Y-107669364D01*
X257830337Y-107669362D01*
X257830336Y-107669362D01*
X257610963Y-107573136D01*
X257378737Y-107514328D01*
X257378740Y-107514328D01*
X257271367Y-107505431D01*
X257199787Y-107499500D01*
X257080213Y-107499500D01*
X257008633Y-107505431D01*
X256901260Y-107514328D01*
X256669036Y-107573136D01*
X256449663Y-107669362D01*
X256249116Y-107800385D01*
X256072869Y-107962631D01*
X256072860Y-107962641D01*
X255925734Y-108151668D01*
X255925730Y-108151674D01*
X255811713Y-108362357D01*
X255811711Y-108362362D01*
X255733930Y-108588932D01*
X255715873Y-108697143D01*
X255694500Y-108825222D01*
X255694500Y-109064778D01*
X195691979Y-109064778D01*
X195700026Y-108952269D01*
X195700546Y-108945001D01*
X195700546Y-108944998D01*
X195692826Y-108837055D01*
X195680387Y-108663139D01*
X195679162Y-108657510D01*
X195643801Y-108494955D01*
X195620320Y-108387016D01*
X195521568Y-108122251D01*
X195509114Y-108099444D01*
X195386144Y-107874241D01*
X195386139Y-107874233D01*
X195216803Y-107648025D01*
X195216787Y-107648007D01*
X195016992Y-107448212D01*
X195016974Y-107448196D01*
X194790766Y-107278860D01*
X194790758Y-107278855D01*
X194542754Y-107143434D01*
X194542750Y-107143432D01*
X194442372Y-107105993D01*
X194277984Y-107044680D01*
X194277980Y-107044679D01*
X194277977Y-107044678D01*
X194001866Y-106984613D01*
X193790553Y-106969500D01*
X193649447Y-106969500D01*
X193438133Y-106984613D01*
X193162022Y-107044678D01*
X193162017Y-107044679D01*
X193162016Y-107044680D01*
X193098003Y-107068555D01*
X192897249Y-107143432D01*
X192897245Y-107143434D01*
X192649241Y-107278855D01*
X192649233Y-107278860D01*
X192423025Y-107448196D01*
X192423007Y-107448212D01*
X192223212Y-107648007D01*
X192223196Y-107648025D01*
X192053860Y-107874233D01*
X192053855Y-107874241D01*
X191918434Y-108122245D01*
X191918432Y-108122249D01*
X191843555Y-108323003D01*
X191828876Y-108362362D01*
X191819678Y-108387022D01*
X191759613Y-108663133D01*
X191739454Y-108944998D01*
X191739454Y-108945001D01*
X161112899Y-108945001D01*
X161112899Y-104876600D01*
X161887531Y-104876600D01*
X161906954Y-105259600D01*
X161964139Y-105632880D01*
X161965026Y-105638670D01*
X161971173Y-105662412D01*
X162061151Y-106009928D01*
X162194334Y-106369531D01*
X162194340Y-106369544D01*
X162363225Y-106713840D01*
X162363230Y-106713849D01*
X162566079Y-107039289D01*
X162756737Y-107285600D01*
X162800817Y-107342546D01*
X162996573Y-107548481D01*
X163065030Y-107620498D01*
X163356005Y-107870292D01*
X163356008Y-107870294D01*
X163670764Y-108089371D01*
X164006069Y-108275481D01*
X164006073Y-108275483D01*
X164048508Y-108293693D01*
X164358483Y-108426713D01*
X164358486Y-108426714D01*
X164358491Y-108426716D01*
X164724376Y-108541513D01*
X164724379Y-108541513D01*
X164724387Y-108541516D01*
X165100029Y-108618713D01*
X165405249Y-108649750D01*
X165481553Y-108657510D01*
X165481554Y-108657510D01*
X165865047Y-108657510D01*
X165928633Y-108651043D01*
X166246571Y-108618713D01*
X166622213Y-108541516D01*
X166770630Y-108494950D01*
X166988108Y-108426716D01*
X166988109Y-108426715D01*
X166988117Y-108426713D01*
X167340531Y-108275481D01*
X167675836Y-108089371D01*
X167990592Y-107870294D01*
X168281570Y-107620498D01*
X168545783Y-107342546D01*
X168780521Y-107039289D01*
X168983374Y-106713841D01*
X169152262Y-106369540D01*
X169285451Y-106009920D01*
X169381574Y-105638670D01*
X169439645Y-105259600D01*
X169459069Y-104876600D01*
X169439645Y-104493600D01*
X169381574Y-104114530D01*
X169285451Y-103743280D01*
X169235552Y-103608550D01*
X169152265Y-103383668D01*
X169152264Y-103383667D01*
X169152262Y-103383660D01*
X169149241Y-103377501D01*
X269319437Y-103377501D01*
X269339650Y-103608544D01*
X269339651Y-103608551D01*
X269399678Y-103832574D01*
X269399679Y-103832576D01*
X269399680Y-103832579D01*
X269497699Y-104042782D01*
X269630730Y-104232769D01*
X269794731Y-104396770D01*
X269984718Y-104529801D01*
X270194921Y-104627820D01*
X270418950Y-104687849D01*
X270583985Y-104702287D01*
X270649998Y-104708063D01*
X270650000Y-104708063D01*
X270650002Y-104708063D01*
X270707762Y-104703009D01*
X270881050Y-104687849D01*
X271105079Y-104627820D01*
X271315282Y-104529801D01*
X271505269Y-104396770D01*
X271669270Y-104232769D01*
X271802301Y-104042782D01*
X271900320Y-103832579D01*
X271960349Y-103608550D01*
X271980563Y-103377500D01*
X271960349Y-103146450D01*
X271900320Y-102922421D01*
X271802301Y-102712219D01*
X271802299Y-102712216D01*
X271802298Y-102712214D01*
X271669273Y-102522235D01*
X271669268Y-102522229D01*
X271505269Y-102358230D01*
X271362526Y-102258280D01*
X271315282Y-102225199D01*
X271105079Y-102127180D01*
X271105076Y-102127179D01*
X271105074Y-102127178D01*
X270881051Y-102067151D01*
X270881044Y-102067150D01*
X270650002Y-102046937D01*
X270649998Y-102046937D01*
X270418955Y-102067150D01*
X270418948Y-102067151D01*
X270194917Y-102127181D01*
X269984718Y-102225199D01*
X269984714Y-102225201D01*
X269794735Y-102358226D01*
X269794729Y-102358231D01*
X269630731Y-102522229D01*
X269630726Y-102522235D01*
X269497701Y-102712214D01*
X269497699Y-102712218D01*
X269399681Y-102922417D01*
X269339651Y-103146448D01*
X269339650Y-103146455D01*
X269319437Y-103377498D01*
X269319437Y-103377501D01*
X169149241Y-103377501D01*
X168983374Y-103039359D01*
X168983369Y-103039350D01*
X168848186Y-102822469D01*
X168780521Y-102713911D01*
X168545783Y-102410654D01*
X168281570Y-102132702D01*
X168181666Y-102046937D01*
X167990594Y-101882907D01*
X167675837Y-101663830D01*
X167675836Y-101663829D01*
X167340531Y-101477719D01*
X167340532Y-101477719D01*
X167340526Y-101477716D01*
X166988108Y-101326483D01*
X166622223Y-101211686D01*
X166622217Y-101211685D01*
X166622214Y-101211684D01*
X166622213Y-101211684D01*
X166246571Y-101134487D01*
X166246570Y-101134486D01*
X166246566Y-101134486D01*
X165865047Y-101095690D01*
X165865046Y-101095690D01*
X165481554Y-101095690D01*
X165481553Y-101095690D01*
X165100033Y-101134486D01*
X164724382Y-101211685D01*
X164724376Y-101211686D01*
X164358491Y-101326483D01*
X164006073Y-101477716D01*
X163670762Y-101663830D01*
X163356005Y-101882907D01*
X163065030Y-102132701D01*
X162800812Y-102410659D01*
X162566079Y-102713910D01*
X162363230Y-103039350D01*
X162363225Y-103039359D01*
X162194340Y-103383655D01*
X162194334Y-103383668D01*
X162061151Y-103743271D01*
X161965025Y-104114534D01*
X161906954Y-104493599D01*
X161887531Y-104876600D01*
X161112899Y-104876600D01*
X161112899Y-98297501D01*
X269319437Y-98297501D01*
X269339650Y-98528544D01*
X269339651Y-98528551D01*
X269399678Y-98752574D01*
X269399679Y-98752576D01*
X269399680Y-98752579D01*
X269497699Y-98962782D01*
X269630730Y-99152769D01*
X269794731Y-99316770D01*
X269984718Y-99449801D01*
X270194921Y-99547820D01*
X270418950Y-99607849D01*
X270583985Y-99622287D01*
X270649998Y-99628063D01*
X270650000Y-99628063D01*
X270650002Y-99628063D01*
X270707762Y-99623009D01*
X270881050Y-99607849D01*
X271105079Y-99547820D01*
X271315282Y-99449801D01*
X271505269Y-99316770D01*
X271669270Y-99152769D01*
X271802301Y-98962782D01*
X271900320Y-98752579D01*
X271960349Y-98528550D01*
X271980563Y-98297500D01*
X271960349Y-98066450D01*
X271900320Y-97842421D01*
X271802301Y-97632219D01*
X271802299Y-97632216D01*
X271802298Y-97632214D01*
X271669273Y-97442235D01*
X271669268Y-97442229D01*
X271505269Y-97278230D01*
X271505263Y-97278226D01*
X271315282Y-97145199D01*
X271105079Y-97047180D01*
X271105076Y-97047179D01*
X271105074Y-97047178D01*
X270881051Y-96987151D01*
X270881044Y-96987150D01*
X270650002Y-96966937D01*
X270649998Y-96966937D01*
X270418955Y-96987150D01*
X270418948Y-96987151D01*
X270194917Y-97047181D01*
X269984718Y-97145199D01*
X269984714Y-97145201D01*
X269794735Y-97278226D01*
X269794729Y-97278231D01*
X269630731Y-97442229D01*
X269630726Y-97442235D01*
X269497701Y-97632214D01*
X269497699Y-97632218D01*
X269399681Y-97842417D01*
X269339651Y-98066448D01*
X269339650Y-98066455D01*
X269319437Y-98297498D01*
X269319437Y-98297501D01*
X161112899Y-98297501D01*
X161112899Y-95046801D01*
X173863990Y-95046801D01*
X173884404Y-95332233D01*
X173945228Y-95611837D01*
X173945230Y-95611843D01*
X173945231Y-95611846D01*
X174034181Y-95850329D01*
X174045235Y-95879966D01*
X174182370Y-96131109D01*
X174182375Y-96131117D01*
X174353854Y-96360187D01*
X174353870Y-96360205D01*
X174556194Y-96562529D01*
X174556212Y-96562545D01*
X174785282Y-96734024D01*
X174785290Y-96734029D01*
X175036433Y-96871164D01*
X175036432Y-96871164D01*
X175036436Y-96871165D01*
X175036439Y-96871167D01*
X175304554Y-96971169D01*
X175304560Y-96971170D01*
X175304562Y-96971171D01*
X175584166Y-97031995D01*
X175584168Y-97031995D01*
X175584172Y-97031996D01*
X175837820Y-97050137D01*
X175869599Y-97052410D01*
X175869600Y-97052410D01*
X175869601Y-97052410D01*
X175898195Y-97050364D01*
X176155028Y-97031996D01*
X176361183Y-96987150D01*
X176434637Y-96971171D01*
X176434637Y-96971170D01*
X176434646Y-96971169D01*
X176702761Y-96871167D01*
X176953915Y-96734026D01*
X177182995Y-96562539D01*
X177385339Y-96360195D01*
X177556826Y-96131115D01*
X177693967Y-95879961D01*
X177793969Y-95611846D01*
X177840553Y-95397701D01*
X177854795Y-95332233D01*
X177854795Y-95332232D01*
X177854796Y-95332228D01*
X177875210Y-95046800D01*
X177854796Y-94761372D01*
X177848628Y-94733020D01*
X177793971Y-94481762D01*
X177793970Y-94481760D01*
X177793969Y-94481754D01*
X177693967Y-94213639D01*
X177693836Y-94213400D01*
X177556829Y-93962490D01*
X177556824Y-93962482D01*
X177385345Y-93733412D01*
X177385329Y-93733394D01*
X177183005Y-93531070D01*
X177182987Y-93531054D01*
X176953917Y-93359575D01*
X176953909Y-93359570D01*
X176702766Y-93222435D01*
X176702767Y-93222435D01*
X176689538Y-93217501D01*
X269319437Y-93217501D01*
X269339650Y-93448544D01*
X269339651Y-93448551D01*
X269399678Y-93672574D01*
X269399679Y-93672576D01*
X269399680Y-93672579D01*
X269497699Y-93882782D01*
X269630730Y-94072769D01*
X269794731Y-94236770D01*
X269984718Y-94369801D01*
X270194921Y-94467820D01*
X270418950Y-94527849D01*
X270583985Y-94542287D01*
X270649998Y-94548063D01*
X270650000Y-94548063D01*
X270650002Y-94548063D01*
X270707762Y-94543009D01*
X270881050Y-94527849D01*
X271105079Y-94467820D01*
X271315282Y-94369801D01*
X271505269Y-94236770D01*
X271669270Y-94072769D01*
X271802301Y-93882782D01*
X271900320Y-93672579D01*
X271960349Y-93448550D01*
X271980563Y-93217500D01*
X271979288Y-93202931D01*
X271960349Y-92986455D01*
X271960349Y-92986450D01*
X271900320Y-92762421D01*
X271802301Y-92552219D01*
X271802299Y-92552216D01*
X271802298Y-92552214D01*
X271669273Y-92362235D01*
X271669268Y-92362229D01*
X271505269Y-92198230D01*
X271472523Y-92175301D01*
X271315282Y-92065199D01*
X271105079Y-91967180D01*
X271105076Y-91967179D01*
X271105074Y-91967178D01*
X270881051Y-91907151D01*
X270881044Y-91907150D01*
X270650002Y-91886937D01*
X270649998Y-91886937D01*
X270418955Y-91907150D01*
X270418948Y-91907151D01*
X270194917Y-91967181D01*
X269984718Y-92065199D01*
X269984714Y-92065201D01*
X269794735Y-92198226D01*
X269794729Y-92198231D01*
X269630731Y-92362229D01*
X269630726Y-92362235D01*
X269497701Y-92552214D01*
X269497699Y-92552218D01*
X269399681Y-92762417D01*
X269339651Y-92986448D01*
X269339650Y-92986455D01*
X269319437Y-93217498D01*
X269319437Y-93217501D01*
X176689538Y-93217501D01*
X176582289Y-93177499D01*
X176434646Y-93122431D01*
X176434643Y-93122430D01*
X176434637Y-93122428D01*
X176155033Y-93061604D01*
X175869601Y-93041190D01*
X175869599Y-93041190D01*
X175584166Y-93061604D01*
X175304562Y-93122428D01*
X175036433Y-93222435D01*
X174785290Y-93359570D01*
X174785282Y-93359575D01*
X174556212Y-93531054D01*
X174556194Y-93531070D01*
X174353870Y-93733394D01*
X174353854Y-93733412D01*
X174182375Y-93962482D01*
X174182370Y-93962490D01*
X174045235Y-94213633D01*
X173945228Y-94481762D01*
X173884404Y-94761366D01*
X173863990Y-95046798D01*
X173863990Y-95046801D01*
X161112899Y-95046801D01*
X161112899Y-93493069D01*
X161476898Y-93493069D01*
X161515597Y-93675141D01*
X161515599Y-93675147D01*
X161591308Y-93845188D01*
X161591307Y-93845188D01*
X161618620Y-93882781D01*
X161700718Y-93995779D01*
X161700719Y-93995780D01*
X161700720Y-93995781D01*
X161700722Y-93995784D01*
X161784867Y-94071547D01*
X161839047Y-94120331D01*
X162000249Y-94213401D01*
X162000251Y-94213401D01*
X162000254Y-94213403D01*
X162088763Y-94242161D01*
X162177278Y-94270921D01*
X162315987Y-94285500D01*
X162315992Y-94285500D01*
X162408804Y-94285500D01*
X162408809Y-94285500D01*
X162547518Y-94270921D01*
X162724547Y-94213401D01*
X162885749Y-94120331D01*
X162994107Y-94022764D01*
X163024073Y-93995784D01*
X163024073Y-93995782D01*
X163024078Y-93995779D01*
X163133488Y-93845189D01*
X163209198Y-93675142D01*
X163247898Y-93493070D01*
X163247898Y-93306930D01*
X163209198Y-93124858D01*
X163209196Y-93124852D01*
X163183778Y-93067763D01*
X169145787Y-93067763D01*
X169175413Y-93337013D01*
X169175415Y-93337024D01*
X169243926Y-93599082D01*
X169243928Y-93599088D01*
X169349870Y-93848390D01*
X169421998Y-93966575D01*
X169490979Y-94079605D01*
X169490986Y-94079615D01*
X169664253Y-94287819D01*
X169664259Y-94287824D01*
X169769240Y-94381887D01*
X169865998Y-94468582D01*
X170091910Y-94618044D01*
X170337176Y-94733020D01*
X170337183Y-94733022D01*
X170337185Y-94733023D01*
X170596557Y-94811057D01*
X170596564Y-94811058D01*
X170596569Y-94811060D01*
X170864561Y-94850500D01*
X170864566Y-94850500D01*
X171067636Y-94850500D01*
X171119133Y-94846730D01*
X171270156Y-94835677D01*
X171382758Y-94810593D01*
X171534546Y-94776782D01*
X171534548Y-94776781D01*
X171534553Y-94776780D01*
X171787558Y-94680014D01*
X172023777Y-94547441D01*
X172238177Y-94381888D01*
X172426186Y-94186881D01*
X172583799Y-93966579D01*
X172657787Y-93822669D01*
X172707649Y-93725690D01*
X172707651Y-93725684D01*
X172707656Y-93725675D01*
X172795118Y-93469305D01*
X172844319Y-93202933D01*
X172854212Y-92932235D01*
X172824586Y-92662982D01*
X172756072Y-92400912D01*
X172650130Y-92151610D01*
X172509018Y-91920390D01*
X172507845Y-91918981D01*
X172335746Y-91712180D01*
X172335740Y-91712175D01*
X172134002Y-91531418D01*
X171908092Y-91381957D01*
X171908090Y-91381956D01*
X171662824Y-91266980D01*
X171662819Y-91266978D01*
X171662814Y-91266976D01*
X171403442Y-91188942D01*
X171403428Y-91188939D01*
X171287791Y-91171921D01*
X171135439Y-91149500D01*
X170932369Y-91149500D01*
X170932364Y-91149500D01*
X170729844Y-91164323D01*
X170729831Y-91164325D01*
X170465453Y-91223217D01*
X170465446Y-91223220D01*
X170212439Y-91319987D01*
X169976226Y-91452557D01*
X169761822Y-91618112D01*
X169573822Y-91813109D01*
X169573816Y-91813116D01*
X169416202Y-92033419D01*
X169416199Y-92033424D01*
X169292350Y-92274309D01*
X169292343Y-92274327D01*
X169204884Y-92530685D01*
X169204881Y-92530699D01*
X169186723Y-92629007D01*
X169158211Y-92783373D01*
X169155681Y-92797068D01*
X169155680Y-92797075D01*
X169145787Y-93067763D01*
X163183778Y-93067763D01*
X163178784Y-93056547D01*
X163133488Y-92954811D01*
X163024078Y-92804221D01*
X163024075Y-92804218D01*
X163024073Y-92804215D01*
X162933934Y-92723055D01*
X162885749Y-92679669D01*
X162724547Y-92586599D01*
X162724541Y-92586596D01*
X162547522Y-92529080D01*
X162547520Y-92529079D01*
X162507886Y-92524913D01*
X162408809Y-92514500D01*
X162315987Y-92514500D01*
X162229293Y-92523611D01*
X162177275Y-92529079D01*
X162177273Y-92529080D01*
X162000254Y-92586596D01*
X162000248Y-92586599D01*
X161839048Y-92679668D01*
X161700722Y-92804215D01*
X161700720Y-92804218D01*
X161591307Y-92954811D01*
X161515599Y-93124852D01*
X161515597Y-93124858D01*
X161476898Y-93306930D01*
X161476898Y-93493069D01*
X161112899Y-93493069D01*
X161112899Y-91374506D01*
X161108813Y-91319987D01*
X161098202Y-91178379D01*
X161098201Y-91178374D01*
X161098201Y-91178370D01*
X161039819Y-90922584D01*
X160943967Y-90678357D01*
X160812785Y-90451143D01*
X160649204Y-90246019D01*
X160649203Y-90246018D01*
X160649200Y-90246014D01*
X160513041Y-90119678D01*
X184081100Y-90119678D01*
X184090279Y-90174685D01*
X184120497Y-90355772D01*
X184198214Y-90582152D01*
X184198219Y-90582163D01*
X184312132Y-90792659D01*
X184312138Y-90792668D01*
X184459146Y-90981543D01*
X184459149Y-90981547D01*
X184459151Y-90981549D01*
X184459152Y-90981550D01*
X184487063Y-91007244D01*
X184635254Y-91143664D01*
X184753650Y-91221015D01*
X184835633Y-91274577D01*
X185054829Y-91370726D01*
X185286861Y-91429484D01*
X185465663Y-91444300D01*
X185465665Y-91444300D01*
X185585135Y-91444300D01*
X185585137Y-91444300D01*
X185763939Y-91429484D01*
X185995971Y-91370726D01*
X186215167Y-91274577D01*
X186415548Y-91143662D01*
X186591648Y-90981550D01*
X186738664Y-90792665D01*
X186852584Y-90582157D01*
X186930303Y-90355770D01*
X186969700Y-90119678D01*
X186969700Y-90000007D01*
X246667306Y-90000007D01*
X246687261Y-90304461D01*
X246687262Y-90304471D01*
X246687263Y-90304478D01*
X246687265Y-90304488D01*
X246746789Y-90603738D01*
X246746793Y-90603753D01*
X246844870Y-90892678D01*
X246844879Y-90892699D01*
X246979828Y-91166348D01*
X247077424Y-91312410D01*
X247123893Y-91381957D01*
X247149350Y-91420055D01*
X247350535Y-91649464D01*
X247529681Y-91806570D01*
X247579946Y-91850651D01*
X247748316Y-91963151D01*
X247833651Y-92020171D01*
X248107300Y-92155120D01*
X248107305Y-92155122D01*
X248107317Y-92155128D01*
X248396254Y-92253209D01*
X248695522Y-92312737D01*
X248724763Y-92314653D01*
X248999993Y-92332694D01*
X249000000Y-92332694D01*
X249000007Y-92332694D01*
X249243756Y-92316716D01*
X249304478Y-92312737D01*
X249603746Y-92253209D01*
X249892683Y-92155128D01*
X250166347Y-92020172D01*
X250420054Y-91850651D01*
X250649464Y-91649464D01*
X250850651Y-91420054D01*
X251020172Y-91166347D01*
X251155128Y-90892683D01*
X251253209Y-90603746D01*
X251312737Y-90304478D01*
X251321244Y-90174685D01*
X251332694Y-90000007D01*
X251332694Y-89999992D01*
X251312738Y-89695538D01*
X251312737Y-89695522D01*
X251253209Y-89396254D01*
X251155128Y-89107317D01*
X251148855Y-89094597D01*
X251107319Y-89010370D01*
X269324500Y-89010370D01*
X269324501Y-89010376D01*
X269330908Y-89069983D01*
X269381202Y-89204828D01*
X269381206Y-89204835D01*
X269467452Y-89320044D01*
X269467455Y-89320047D01*
X269582664Y-89406293D01*
X269582671Y-89406297D01*
X269717517Y-89456591D01*
X269717516Y-89456591D01*
X269724444Y-89457335D01*
X269777127Y-89463000D01*
X271522872Y-89462999D01*
X271582483Y-89456591D01*
X271717331Y-89406296D01*
X271832546Y-89320046D01*
X271918796Y-89204831D01*
X271969091Y-89069983D01*
X271975500Y-89010373D01*
X271975499Y-87264628D01*
X271969091Y-87205017D01*
X271952502Y-87160540D01*
X271918797Y-87070171D01*
X271918793Y-87070164D01*
X271832547Y-86954955D01*
X271832544Y-86954952D01*
X271717335Y-86868706D01*
X271717328Y-86868702D01*
X271582482Y-86818408D01*
X271582483Y-86818408D01*
X271522883Y-86812001D01*
X271522881Y-86812000D01*
X271522873Y-86812000D01*
X271522864Y-86812000D01*
X269777129Y-86812000D01*
X269777123Y-86812001D01*
X269717516Y-86818408D01*
X269582671Y-86868702D01*
X269582664Y-86868706D01*
X269467455Y-86954952D01*
X269467452Y-86954955D01*
X269381206Y-87070164D01*
X269381202Y-87070171D01*
X269330908Y-87205017D01*
X269324501Y-87264616D01*
X269324501Y-87264623D01*
X269324500Y-87264635D01*
X269324500Y-89010370D01*
X251107319Y-89010370D01*
X251020171Y-88833651D01*
X250905414Y-88661905D01*
X250850651Y-88579946D01*
X250806570Y-88529681D01*
X250649464Y-88350535D01*
X250420055Y-88149350D01*
X250414869Y-88145885D01*
X250221071Y-88016393D01*
X250166348Y-87979828D01*
X249892699Y-87844879D01*
X249892678Y-87844870D01*
X249603753Y-87746793D01*
X249603747Y-87746791D01*
X249603746Y-87746791D01*
X249603744Y-87746790D01*
X249603738Y-87746789D01*
X249304488Y-87687265D01*
X249304478Y-87687263D01*
X249304471Y-87687262D01*
X249304461Y-87687261D01*
X249000007Y-87667306D01*
X248999993Y-87667306D01*
X248695538Y-87687261D01*
X248695526Y-87687262D01*
X248695522Y-87687263D01*
X248695514Y-87687264D01*
X248695511Y-87687265D01*
X248396261Y-87746789D01*
X248396246Y-87746793D01*
X248107321Y-87844870D01*
X248107300Y-87844879D01*
X247833651Y-87979828D01*
X247579944Y-88149350D01*
X247350535Y-88350535D01*
X247149350Y-88579944D01*
X246979828Y-88833651D01*
X246844879Y-89107300D01*
X246844870Y-89107321D01*
X246746793Y-89396246D01*
X246746789Y-89396261D01*
X246687265Y-89695511D01*
X246687261Y-89695538D01*
X246667306Y-89999992D01*
X246667306Y-90000007D01*
X186969700Y-90000007D01*
X186969700Y-89880322D01*
X186930303Y-89644230D01*
X186852584Y-89417843D01*
X186799660Y-89320047D01*
X186738667Y-89207340D01*
X186738661Y-89207331D01*
X186591653Y-89018456D01*
X186591650Y-89018452D01*
X186415545Y-88856335D01*
X186215166Y-88725422D01*
X185995971Y-88629274D01*
X185937890Y-88614566D01*
X185763939Y-88570516D01*
X185763938Y-88570515D01*
X185763935Y-88570515D01*
X185620652Y-88558642D01*
X185585137Y-88555700D01*
X185465663Y-88555700D01*
X185433355Y-88558377D01*
X185286864Y-88570515D01*
X185054828Y-88629274D01*
X184835633Y-88725422D01*
X184635254Y-88856335D01*
X184459149Y-89018452D01*
X184459146Y-89018456D01*
X184312138Y-89207331D01*
X184312132Y-89207340D01*
X184198219Y-89417836D01*
X184198214Y-89417847D01*
X184120497Y-89644227D01*
X184105196Y-89735921D01*
X184081100Y-89880322D01*
X184081100Y-90119678D01*
X160513041Y-90119678D01*
X160456878Y-90067567D01*
X160450709Y-90063361D01*
X160240103Y-89919772D01*
X160240099Y-89919770D01*
X160240096Y-89919768D01*
X160240095Y-89919767D01*
X160003724Y-89805938D01*
X160003726Y-89805938D01*
X159753022Y-89728606D01*
X159753018Y-89728605D01*
X159753014Y-89728604D01*
X159628222Y-89709794D01*
X159493586Y-89689500D01*
X159493581Y-89689500D01*
X159231217Y-89689500D01*
X159231211Y-89689500D01*
X159069646Y-89713853D01*
X158971784Y-89728604D01*
X158971781Y-89728605D01*
X158971775Y-89728606D01*
X158721072Y-89805938D01*
X158484702Y-89919767D01*
X158484701Y-89919768D01*
X158267919Y-90067567D01*
X158075597Y-90246014D01*
X157912013Y-90451143D01*
X157780831Y-90678356D01*
X157711520Y-90854958D01*
X157668704Y-90910172D01*
X157602834Y-90933473D01*
X157534824Y-90917462D01*
X157486265Y-90867224D01*
X157483710Y-90862060D01*
X157458197Y-90807348D01*
X157458194Y-90807342D01*
X157447919Y-90792668D01*
X157331688Y-90626671D01*
X157331686Y-90626668D01*
X157175730Y-90470712D01*
X156995062Y-90344207D01*
X156995054Y-90344203D01*
X156795169Y-90250995D01*
X156795155Y-90250990D01*
X156582124Y-90193909D01*
X156582122Y-90193908D01*
X156582120Y-90193908D01*
X156582118Y-90193907D01*
X156582114Y-90193907D01*
X156362402Y-90174685D01*
X156362398Y-90174685D01*
X156142685Y-90193907D01*
X156142675Y-90193909D01*
X155929644Y-90250990D01*
X155929635Y-90250994D01*
X155729744Y-90344204D01*
X155729742Y-90344205D01*
X155549068Y-90470713D01*
X155393113Y-90626668D01*
X155266605Y-90807342D01*
X155266604Y-90807344D01*
X155173394Y-91007235D01*
X155173390Y-91007244D01*
X155116309Y-91220275D01*
X155116307Y-91220285D01*
X155097085Y-91439998D01*
X155097085Y-91440001D01*
X155116307Y-91659714D01*
X155116309Y-91659724D01*
X155173390Y-91872755D01*
X155173395Y-91872769D01*
X155266603Y-92072654D01*
X155266607Y-92072662D01*
X155393112Y-92253330D01*
X155549069Y-92409287D01*
X155729737Y-92535792D01*
X155729739Y-92535793D01*
X155729742Y-92535795D01*
X155794953Y-92566203D01*
X155929630Y-92629004D01*
X155929632Y-92629004D01*
X155929637Y-92629007D01*
X156142680Y-92686092D01*
X156299622Y-92699822D01*
X156362398Y-92705315D01*
X156362400Y-92705315D01*
X156362402Y-92705315D01*
X156417330Y-92700509D01*
X156582120Y-92686092D01*
X156795163Y-92629007D01*
X156995058Y-92535795D01*
X157175729Y-92409288D01*
X157331688Y-92253329D01*
X157370269Y-92198230D01*
X157386324Y-92175301D01*
X157440901Y-92131676D01*
X157510399Y-92124482D01*
X157572754Y-92156005D01*
X157608168Y-92216235D01*
X157611899Y-92246424D01*
X157611899Y-111901358D01*
X157592214Y-111968397D01*
X157575580Y-111989039D01*
X149100780Y-120463838D01*
X149039457Y-120497323D01*
X148969765Y-120492339D01*
X148913832Y-120450467D01*
X148889415Y-120385003D01*
X148889099Y-120376182D01*
X148889099Y-118671728D01*
X148882691Y-118612117D01*
X148881677Y-118609399D01*
X148832397Y-118477271D01*
X148832393Y-118477264D01*
X148746147Y-118362055D01*
X148746144Y-118362052D01*
X148630935Y-118275806D01*
X148630926Y-118275801D01*
X148600040Y-118264282D01*
X148544106Y-118222412D01*
X148519688Y-118156948D01*
X148534539Y-118088675D01*
X148583944Y-118039269D01*
X148600040Y-118031918D01*
X148630926Y-118020398D01*
X148630926Y-118020397D01*
X148630931Y-118020396D01*
X148746146Y-117934146D01*
X148832396Y-117818931D01*
X148882691Y-117684083D01*
X148889100Y-117624473D01*
X148889099Y-115496728D01*
X148882691Y-115437117D01*
X148873125Y-115411470D01*
X148832397Y-115302271D01*
X148832393Y-115302264D01*
X148746147Y-115187055D01*
X148746144Y-115187052D01*
X148630935Y-115100806D01*
X148630926Y-115100801D01*
X148600040Y-115089282D01*
X148544106Y-115047412D01*
X148519688Y-114981948D01*
X148534539Y-114913675D01*
X148583944Y-114864269D01*
X148600040Y-114856918D01*
X148630926Y-114845398D01*
X148630926Y-114845397D01*
X148630931Y-114845396D01*
X148746146Y-114759146D01*
X148832396Y-114643931D01*
X148882691Y-114509083D01*
X148889100Y-114449473D01*
X148889099Y-112321728D01*
X148882691Y-112262117D01*
X148857378Y-112194250D01*
X148832397Y-112127271D01*
X148832393Y-112127264D01*
X148746147Y-112012055D01*
X148746144Y-112012052D01*
X148630935Y-111925806D01*
X148630926Y-111925801D01*
X148600040Y-111914282D01*
X148544106Y-111872412D01*
X148519688Y-111806948D01*
X148534539Y-111738675D01*
X148583944Y-111689269D01*
X148600040Y-111681918D01*
X148630926Y-111670398D01*
X148630926Y-111670397D01*
X148630931Y-111670396D01*
X148746146Y-111584146D01*
X148832396Y-111468931D01*
X148882691Y-111334083D01*
X148889100Y-111274473D01*
X148889099Y-109146728D01*
X148882691Y-109087117D01*
X148874358Y-109064776D01*
X148832397Y-108952271D01*
X148832393Y-108952264D01*
X148746147Y-108837055D01*
X148746144Y-108837052D01*
X148630935Y-108750806D01*
X148630930Y-108750803D01*
X148599324Y-108739015D01*
X148543391Y-108697143D01*
X148518974Y-108631679D01*
X148533826Y-108563406D01*
X148583231Y-108514001D01*
X148599326Y-108506651D01*
X148630684Y-108494955D01*
X148630693Y-108494950D01*
X148745787Y-108408790D01*
X148745790Y-108408787D01*
X148831950Y-108293693D01*
X148831954Y-108293686D01*
X148882196Y-108158979D01*
X148882198Y-108158972D01*
X148888599Y-108099444D01*
X148888600Y-108099427D01*
X148888600Y-107285600D01*
X147806286Y-107285600D01*
X147832093Y-107245444D01*
X147872600Y-107107489D01*
X147872600Y-106963711D01*
X147832093Y-106825756D01*
X147806286Y-106785600D01*
X148888600Y-106785600D01*
X148888600Y-105971772D01*
X148888599Y-105971755D01*
X148882198Y-105912227D01*
X148882196Y-105912220D01*
X148831954Y-105777513D01*
X148831950Y-105777506D01*
X148745790Y-105662412D01*
X148745787Y-105662409D01*
X148630693Y-105576249D01*
X148630681Y-105576243D01*
X148599324Y-105564547D01*
X148543390Y-105522676D01*
X148518974Y-105457211D01*
X148533826Y-105388938D01*
X148583232Y-105339533D01*
X148599320Y-105332185D01*
X148630931Y-105320396D01*
X148746146Y-105234146D01*
X148832396Y-105118931D01*
X148882691Y-104984083D01*
X148889100Y-104924473D01*
X148889099Y-102796728D01*
X148882691Y-102737117D01*
X148874035Y-102713910D01*
X148832397Y-102602271D01*
X148832393Y-102602264D01*
X148746147Y-102487055D01*
X148746144Y-102487052D01*
X148630935Y-102400806D01*
X148630928Y-102400802D01*
X148496082Y-102350508D01*
X148496083Y-102350508D01*
X148436483Y-102344101D01*
X148436481Y-102344100D01*
X148436473Y-102344100D01*
X148436464Y-102344100D01*
X146308729Y-102344100D01*
X146308723Y-102344101D01*
X146249116Y-102350508D01*
X146114271Y-102400802D01*
X146114264Y-102400806D01*
X145999055Y-102487052D01*
X145999052Y-102487055D01*
X145912806Y-102602264D01*
X145912802Y-102602271D01*
X145862508Y-102737117D01*
X145856101Y-102796716D01*
X145856101Y-102796723D01*
X145856100Y-102796735D01*
X145856100Y-104924470D01*
X145856101Y-104924476D01*
X145862508Y-104984083D01*
X145912802Y-105118928D01*
X145912806Y-105118935D01*
X145999052Y-105234144D01*
X145999055Y-105234147D01*
X146114264Y-105320393D01*
X146114273Y-105320398D01*
X146145873Y-105332184D01*
X146201807Y-105374054D01*
X146226225Y-105439519D01*
X146211374Y-105507792D01*
X146161969Y-105557198D01*
X146145876Y-105564547D01*
X146114516Y-105576244D01*
X146114506Y-105576249D01*
X145999412Y-105662409D01*
X145999409Y-105662412D01*
X145913249Y-105777506D01*
X145913245Y-105777513D01*
X145863003Y-105912220D01*
X145863001Y-105912227D01*
X145856600Y-105971755D01*
X145856600Y-106785600D01*
X146938914Y-106785600D01*
X146913107Y-106825756D01*
X146872600Y-106963711D01*
X146872600Y-107107489D01*
X146913107Y-107245444D01*
X146938914Y-107285600D01*
X145856600Y-107285600D01*
X145856600Y-108099444D01*
X145863001Y-108158972D01*
X145863003Y-108158979D01*
X145913245Y-108293686D01*
X145913249Y-108293693D01*
X145999409Y-108408787D01*
X145999412Y-108408790D01*
X146114506Y-108494950D01*
X146114513Y-108494954D01*
X146145874Y-108506651D01*
X146201808Y-108548522D01*
X146226225Y-108613986D01*
X146211374Y-108682259D01*
X146161969Y-108731665D01*
X146145876Y-108739014D01*
X146114274Y-108750801D01*
X146114264Y-108750806D01*
X145999055Y-108837052D01*
X145999052Y-108837055D01*
X145912806Y-108952264D01*
X145912802Y-108952271D01*
X145862508Y-109087117D01*
X145858556Y-109123883D01*
X145856101Y-109146723D01*
X145856100Y-109146735D01*
X145856100Y-111274470D01*
X145856101Y-111274476D01*
X145862508Y-111334083D01*
X145912802Y-111468928D01*
X145912806Y-111468935D01*
X145999052Y-111584144D01*
X145999055Y-111584147D01*
X146114264Y-111670393D01*
X146114271Y-111670397D01*
X146145160Y-111681918D01*
X146201094Y-111723789D01*
X146225511Y-111789253D01*
X146210659Y-111857526D01*
X146161254Y-111906932D01*
X146145160Y-111914282D01*
X146114271Y-111925802D01*
X146114264Y-111925806D01*
X145999055Y-112012052D01*
X145999052Y-112012055D01*
X145912806Y-112127264D01*
X145912802Y-112127271D01*
X145862508Y-112262117D01*
X145856101Y-112321716D01*
X145856101Y-112321723D01*
X145856100Y-112321735D01*
X145856100Y-114449470D01*
X145856101Y-114449476D01*
X145862508Y-114509083D01*
X145912802Y-114643928D01*
X145912806Y-114643935D01*
X145999052Y-114759144D01*
X145999055Y-114759147D01*
X146114264Y-114845393D01*
X146114271Y-114845397D01*
X146145160Y-114856918D01*
X146201094Y-114898789D01*
X146225511Y-114964253D01*
X146210659Y-115032526D01*
X146161254Y-115081932D01*
X146145160Y-115089282D01*
X146114271Y-115100802D01*
X146114264Y-115100806D01*
X145999055Y-115187052D01*
X145999052Y-115187055D01*
X145912806Y-115302264D01*
X145912802Y-115302271D01*
X145862508Y-115437117D01*
X145856101Y-115496716D01*
X145856101Y-115496723D01*
X145856100Y-115496735D01*
X145856100Y-117624470D01*
X145856101Y-117624476D01*
X145862508Y-117684083D01*
X145912802Y-117818928D01*
X145912806Y-117818935D01*
X145999052Y-117934144D01*
X145999055Y-117934147D01*
X146114264Y-118020393D01*
X146114271Y-118020397D01*
X146145160Y-118031918D01*
X146201094Y-118073789D01*
X146225511Y-118139253D01*
X146210659Y-118207526D01*
X146161254Y-118256932D01*
X146145160Y-118264282D01*
X146114271Y-118275802D01*
X146114264Y-118275806D01*
X145999055Y-118362052D01*
X145999052Y-118362055D01*
X145912806Y-118477264D01*
X145912802Y-118477271D01*
X145862508Y-118612117D01*
X145856101Y-118671716D01*
X145856100Y-118671727D01*
X145856100Y-119563483D01*
X145856101Y-120426500D01*
X145836416Y-120493539D01*
X145783613Y-120539294D01*
X145732101Y-120550500D01*
X107212537Y-120550500D01*
X107145498Y-120530815D01*
X107099743Y-120478011D01*
X107089799Y-120408853D01*
X107118824Y-120345297D01*
X107136746Y-120328359D01*
X107295677Y-120205638D01*
X107483686Y-120010631D01*
X107641299Y-119790329D01*
X107721815Y-119633724D01*
X107765149Y-119549440D01*
X107765151Y-119549434D01*
X107765156Y-119549425D01*
X107780697Y-119503870D01*
X115758500Y-119503870D01*
X115758501Y-119503876D01*
X115764908Y-119563483D01*
X115815202Y-119698328D01*
X115815206Y-119698335D01*
X115901452Y-119813544D01*
X115901455Y-119813547D01*
X116016664Y-119899793D01*
X116016671Y-119899797D01*
X116151517Y-119950091D01*
X116151516Y-119950091D01*
X116158444Y-119950835D01*
X116211127Y-119956500D01*
X118338872Y-119956499D01*
X118398483Y-119950091D01*
X118533331Y-119899796D01*
X118648546Y-119813546D01*
X118734796Y-119698331D01*
X118785091Y-119563483D01*
X118791500Y-119503873D01*
X118791499Y-117376128D01*
X118785091Y-117316517D01*
X118770094Y-117276309D01*
X118734797Y-117181671D01*
X118734793Y-117181664D01*
X118648547Y-117066455D01*
X118648544Y-117066452D01*
X118533335Y-116980206D01*
X118533328Y-116980202D01*
X118398482Y-116929908D01*
X118398483Y-116929908D01*
X118338883Y-116923501D01*
X118338881Y-116923500D01*
X118338873Y-116923500D01*
X118338864Y-116923500D01*
X116211129Y-116923500D01*
X116211123Y-116923501D01*
X116151516Y-116929908D01*
X116016671Y-116980202D01*
X116016664Y-116980206D01*
X115901455Y-117066452D01*
X115901452Y-117066455D01*
X115815206Y-117181664D01*
X115815202Y-117181671D01*
X115764908Y-117316517D01*
X115760753Y-117355168D01*
X115758501Y-117376123D01*
X115758500Y-117376135D01*
X115758500Y-119503870D01*
X107780697Y-119503870D01*
X107852618Y-119293055D01*
X107901819Y-119026683D01*
X107911712Y-118755985D01*
X107882086Y-118486732D01*
X107813572Y-118224662D01*
X107707630Y-117975360D01*
X107566518Y-117744140D01*
X107527934Y-117697776D01*
X107393246Y-117535930D01*
X107393240Y-117535925D01*
X107191502Y-117355168D01*
X106965592Y-117205707D01*
X106965590Y-117205706D01*
X106720324Y-117090730D01*
X106720319Y-117090728D01*
X106720314Y-117090726D01*
X106460942Y-117012692D01*
X106460928Y-117012689D01*
X106345291Y-116995671D01*
X106192939Y-116973250D01*
X105989869Y-116973250D01*
X105989864Y-116973250D01*
X105787344Y-116988073D01*
X105787331Y-116988075D01*
X105522953Y-117046967D01*
X105522946Y-117046970D01*
X105269939Y-117143737D01*
X105033726Y-117276307D01*
X105033724Y-117276308D01*
X105033723Y-117276309D01*
X104971393Y-117324438D01*
X104819322Y-117441862D01*
X104631322Y-117636859D01*
X104631316Y-117636866D01*
X104473702Y-117857169D01*
X104473699Y-117857174D01*
X104349850Y-118098059D01*
X104349843Y-118098077D01*
X104262384Y-118354435D01*
X104262381Y-118354449D01*
X104213181Y-118620818D01*
X104213180Y-118620825D01*
X104203287Y-118891513D01*
X104232913Y-119160763D01*
X104232915Y-119160774D01*
X104275468Y-119323540D01*
X104301428Y-119422838D01*
X104407370Y-119672140D01*
X104546501Y-119900114D01*
X104548479Y-119903355D01*
X104548486Y-119903365D01*
X104721753Y-120111569D01*
X104721759Y-120111574D01*
X104771872Y-120156475D01*
X104923498Y-120292332D01*
X104969980Y-120323084D01*
X105015030Y-120376491D01*
X105024054Y-120445776D01*
X104994187Y-120508940D01*
X104934912Y-120545931D01*
X104901561Y-120550500D01*
X49212537Y-120550500D01*
X49145498Y-120530815D01*
X49099743Y-120478011D01*
X49089799Y-120408853D01*
X49118824Y-120345297D01*
X49136746Y-120328359D01*
X49295677Y-120205638D01*
X49483686Y-120010631D01*
X49641299Y-119790329D01*
X49721815Y-119633724D01*
X49765149Y-119549440D01*
X49765151Y-119549434D01*
X49765156Y-119549425D01*
X49852618Y-119293055D01*
X49901819Y-119026683D01*
X49911712Y-118755985D01*
X49882086Y-118486732D01*
X49813572Y-118224662D01*
X49707630Y-117975360D01*
X49566518Y-117744140D01*
X49527934Y-117697776D01*
X49393246Y-117535930D01*
X49393240Y-117535925D01*
X49191502Y-117355168D01*
X48965592Y-117205707D01*
X48965590Y-117205706D01*
X48720324Y-117090730D01*
X48720319Y-117090728D01*
X48720314Y-117090726D01*
X48460942Y-117012692D01*
X48460928Y-117012689D01*
X48345291Y-116995671D01*
X48192939Y-116973250D01*
X47989869Y-116973250D01*
X47989864Y-116973250D01*
X47787344Y-116988073D01*
X47787331Y-116988075D01*
X47522953Y-117046967D01*
X47522946Y-117046970D01*
X47269939Y-117143737D01*
X47033726Y-117276307D01*
X47033724Y-117276308D01*
X47033723Y-117276309D01*
X46971393Y-117324438D01*
X46819322Y-117441862D01*
X46631322Y-117636859D01*
X46631316Y-117636866D01*
X46473702Y-117857169D01*
X46473699Y-117857174D01*
X46349850Y-118098059D01*
X46349843Y-118098077D01*
X46262384Y-118354435D01*
X46262381Y-118354449D01*
X46213181Y-118620818D01*
X46213180Y-118620825D01*
X46203287Y-118891513D01*
X46232913Y-119160763D01*
X46232915Y-119160774D01*
X46275468Y-119323540D01*
X46301428Y-119422838D01*
X46407370Y-119672140D01*
X46546501Y-119900114D01*
X46548479Y-119903355D01*
X46548486Y-119903365D01*
X46721753Y-120111569D01*
X46721759Y-120111574D01*
X46771872Y-120156475D01*
X46923498Y-120292332D01*
X46969980Y-120323084D01*
X47015030Y-120376491D01*
X47024054Y-120445776D01*
X46994187Y-120508940D01*
X46934912Y-120545931D01*
X46901561Y-120550500D01*
X45592443Y-120550500D01*
X45525404Y-120530815D01*
X45504762Y-120514181D01*
X41914081Y-116923500D01*
X41034451Y-116043870D01*
X115758500Y-116043870D01*
X115758501Y-116043876D01*
X115764908Y-116103483D01*
X115815202Y-116238328D01*
X115815206Y-116238335D01*
X115901452Y-116353544D01*
X115901455Y-116353547D01*
X116016664Y-116439793D01*
X116016671Y-116439797D01*
X116151517Y-116490091D01*
X116151516Y-116490091D01*
X116158444Y-116490835D01*
X116211127Y-116496500D01*
X118338872Y-116496499D01*
X118398483Y-116490091D01*
X118533331Y-116439796D01*
X118648546Y-116353546D01*
X118734796Y-116238331D01*
X118785091Y-116103483D01*
X118791500Y-116043873D01*
X118791499Y-113916128D01*
X118785091Y-113856517D01*
X118734796Y-113721669D01*
X118734795Y-113721668D01*
X118734793Y-113721664D01*
X118648547Y-113606455D01*
X118648544Y-113606452D01*
X118533335Y-113520206D01*
X118533328Y-113520202D01*
X118398482Y-113469908D01*
X118398483Y-113469908D01*
X118338883Y-113463501D01*
X118338881Y-113463500D01*
X118338873Y-113463500D01*
X118338864Y-113463500D01*
X116211129Y-113463500D01*
X116211123Y-113463501D01*
X116151516Y-113469908D01*
X116016671Y-113520202D01*
X116016664Y-113520206D01*
X115901455Y-113606452D01*
X115901452Y-113606455D01*
X115815206Y-113721664D01*
X115815202Y-113721671D01*
X115764908Y-113856517D01*
X115758501Y-113916116D01*
X115758501Y-113916123D01*
X115758500Y-113916135D01*
X115758500Y-116043870D01*
X41034451Y-116043870D01*
X37926479Y-112935898D01*
X37926470Y-112935890D01*
X37926471Y-112935890D01*
X37777403Y-112807607D01*
X37777400Y-112807605D01*
X37777397Y-112807602D01*
X37555247Y-112668017D01*
X37362380Y-112583870D01*
X115758500Y-112583870D01*
X115758501Y-112583876D01*
X115764908Y-112643483D01*
X115815202Y-112778328D01*
X115815206Y-112778335D01*
X115901452Y-112893544D01*
X115901455Y-112893547D01*
X116016664Y-112979793D01*
X116016671Y-112979797D01*
X116151517Y-113030091D01*
X116151516Y-113030091D01*
X116158444Y-113030835D01*
X116211127Y-113036500D01*
X118338872Y-113036499D01*
X118398483Y-113030091D01*
X118533331Y-112979796D01*
X118648546Y-112893546D01*
X118734796Y-112778331D01*
X118785091Y-112643483D01*
X118791500Y-112583873D01*
X118791499Y-110456128D01*
X118785091Y-110396517D01*
X118777316Y-110375672D01*
X118734797Y-110261671D01*
X118734793Y-110261664D01*
X118648547Y-110146455D01*
X118648544Y-110146452D01*
X118533335Y-110060206D01*
X118533328Y-110060202D01*
X118398482Y-110009908D01*
X118398483Y-110009908D01*
X118338883Y-110003501D01*
X118338881Y-110003500D01*
X118338873Y-110003500D01*
X118338864Y-110003500D01*
X116211129Y-110003500D01*
X116211123Y-110003501D01*
X116151516Y-110009908D01*
X116016671Y-110060202D01*
X116016664Y-110060206D01*
X115901455Y-110146452D01*
X115901452Y-110146455D01*
X115815206Y-110261664D01*
X115815202Y-110261671D01*
X115764908Y-110396517D01*
X115760040Y-110441803D01*
X115758501Y-110456123D01*
X115758500Y-110456135D01*
X115758500Y-112583870D01*
X37362380Y-112583870D01*
X37314775Y-112563100D01*
X37314773Y-112563099D01*
X37061347Y-112495194D01*
X36800635Y-112465818D01*
X36538457Y-112475629D01*
X36280677Y-112524403D01*
X36280672Y-112524404D01*
X36170089Y-112563099D01*
X36033027Y-112611059D01*
X35801067Y-112733654D01*
X35740531Y-112778331D01*
X35589968Y-112889450D01*
X35404450Y-113074968D01*
X35374537Y-113115500D01*
X35257894Y-113273548D01*
X35248653Y-113286069D01*
X35167592Y-113439444D01*
X35126059Y-113518027D01*
X35095118Y-113606452D01*
X35039404Y-113765672D01*
X35039403Y-113765677D01*
X34990629Y-114023457D01*
X34980818Y-114285635D01*
X22860000Y-114285635D01*
X22860000Y-111963201D01*
X28133437Y-111963201D01*
X28153650Y-112194244D01*
X28153651Y-112194251D01*
X28213678Y-112418274D01*
X28213679Y-112418276D01*
X28213680Y-112418279D01*
X28311699Y-112628482D01*
X28444730Y-112818469D01*
X28608731Y-112982470D01*
X28798718Y-113115501D01*
X29008921Y-113213520D01*
X29232950Y-113273549D01*
X29397985Y-113287987D01*
X29463998Y-113293763D01*
X29464000Y-113293763D01*
X29464002Y-113293763D01*
X29521762Y-113288709D01*
X29695050Y-113273549D01*
X29919079Y-113213520D01*
X30129282Y-113115501D01*
X30319269Y-112982470D01*
X30483270Y-112818469D01*
X30616301Y-112628482D01*
X30714320Y-112418279D01*
X30774349Y-112194250D01*
X30794563Y-111963200D01*
X30791291Y-111925806D01*
X30786620Y-111872412D01*
X30774349Y-111732150D01*
X30714320Y-111508121D01*
X30616301Y-111297919D01*
X30616299Y-111297916D01*
X30616298Y-111297914D01*
X30483273Y-111107935D01*
X30483268Y-111107929D01*
X30319269Y-110943930D01*
X30319263Y-110943926D01*
X30129282Y-110810899D01*
X29919079Y-110712880D01*
X29919076Y-110712879D01*
X29919074Y-110712878D01*
X29695051Y-110652851D01*
X29695044Y-110652850D01*
X29464002Y-110632637D01*
X29463998Y-110632637D01*
X29232955Y-110652850D01*
X29232948Y-110652851D01*
X29008917Y-110712881D01*
X28798718Y-110810899D01*
X28798714Y-110810901D01*
X28608735Y-110943926D01*
X28608729Y-110943931D01*
X28444731Y-111107929D01*
X28444726Y-111107935D01*
X28311701Y-111297914D01*
X28311699Y-111297918D01*
X28213681Y-111508117D01*
X28153651Y-111732148D01*
X28153650Y-111732155D01*
X28133437Y-111963198D01*
X28133437Y-111963201D01*
X22860000Y-111963201D01*
X22860000Y-109123870D01*
X115758500Y-109123870D01*
X115758501Y-109123876D01*
X115764908Y-109183483D01*
X115815202Y-109318328D01*
X115815206Y-109318335D01*
X115901452Y-109433544D01*
X115901455Y-109433547D01*
X116016664Y-109519793D01*
X116016671Y-109519797D01*
X116151517Y-109570091D01*
X116151516Y-109570091D01*
X116158444Y-109570835D01*
X116211127Y-109576500D01*
X118338872Y-109576499D01*
X118398483Y-109570091D01*
X118533331Y-109519796D01*
X118648546Y-109433546D01*
X118734796Y-109318331D01*
X118785091Y-109183483D01*
X118791500Y-109123873D01*
X118791499Y-106996128D01*
X118785091Y-106936517D01*
X118765205Y-106883201D01*
X118734797Y-106801671D01*
X118734793Y-106801664D01*
X118648547Y-106686455D01*
X118648544Y-106686452D01*
X118533335Y-106600206D01*
X118533328Y-106600202D01*
X118398482Y-106549908D01*
X118398483Y-106549908D01*
X118338883Y-106543501D01*
X118338881Y-106543500D01*
X118338873Y-106543500D01*
X118338864Y-106543500D01*
X116211129Y-106543500D01*
X116211123Y-106543501D01*
X116151516Y-106549908D01*
X116016671Y-106600202D01*
X116016664Y-106600206D01*
X115901455Y-106686452D01*
X115901452Y-106686455D01*
X115815206Y-106801664D01*
X115815202Y-106801671D01*
X115764908Y-106936517D01*
X115759738Y-106984613D01*
X115758501Y-106996123D01*
X115758500Y-106996135D01*
X115758500Y-109123870D01*
X22860000Y-109123870D01*
X22860000Y-106883201D01*
X28133437Y-106883201D01*
X28153650Y-107114244D01*
X28153651Y-107114251D01*
X28213678Y-107338274D01*
X28213679Y-107338276D01*
X28213680Y-107338279D01*
X28311699Y-107548482D01*
X28444730Y-107738469D01*
X28608731Y-107902470D01*
X28798718Y-108035501D01*
X29008921Y-108133520D01*
X29232950Y-108193549D01*
X29397985Y-108207987D01*
X29463998Y-108213763D01*
X29464000Y-108213763D01*
X29464002Y-108213763D01*
X29521762Y-108208709D01*
X29695050Y-108193549D01*
X29919079Y-108133520D01*
X30129282Y-108035501D01*
X30319269Y-107902470D01*
X30483270Y-107738469D01*
X30616301Y-107548482D01*
X30714320Y-107338279D01*
X30774349Y-107114250D01*
X30794563Y-106883200D01*
X30774349Y-106652150D01*
X30714320Y-106428121D01*
X30616301Y-106217919D01*
X30616299Y-106217916D01*
X30616298Y-106217914D01*
X30483273Y-106027935D01*
X30483268Y-106027929D01*
X30319269Y-105863930D01*
X30195843Y-105777506D01*
X30129282Y-105730899D01*
X29919079Y-105632880D01*
X29919076Y-105632879D01*
X29919074Y-105632878D01*
X29695051Y-105572851D01*
X29695044Y-105572850D01*
X29464002Y-105552637D01*
X29463998Y-105552637D01*
X29232955Y-105572850D01*
X29232948Y-105572851D01*
X29008917Y-105632881D01*
X28798718Y-105730899D01*
X28798714Y-105730901D01*
X28608735Y-105863926D01*
X28608729Y-105863931D01*
X28444731Y-106027929D01*
X28444726Y-106027935D01*
X28311701Y-106217914D01*
X28311699Y-106217918D01*
X28213681Y-106428117D01*
X28153651Y-106652148D01*
X28153650Y-106652155D01*
X28133437Y-106883198D01*
X28133437Y-106883201D01*
X22860000Y-106883201D01*
X22860000Y-101803201D01*
X28133437Y-101803201D01*
X28153650Y-102034244D01*
X28153651Y-102034251D01*
X28213678Y-102258274D01*
X28213679Y-102258276D01*
X28213680Y-102258279D01*
X28311699Y-102468482D01*
X28444730Y-102658469D01*
X28608731Y-102822470D01*
X28798718Y-102955501D01*
X29008921Y-103053520D01*
X29232950Y-103113549D01*
X29397985Y-103127987D01*
X29463998Y-103133763D01*
X29464000Y-103133763D01*
X29464002Y-103133763D01*
X29521762Y-103128709D01*
X29695050Y-103113549D01*
X29919079Y-103053520D01*
X30129282Y-102955501D01*
X30319269Y-102822470D01*
X30483270Y-102658469D01*
X30616301Y-102468482D01*
X30714320Y-102258279D01*
X30774349Y-102034250D01*
X30794563Y-101803200D01*
X30774349Y-101572150D01*
X30714320Y-101348121D01*
X30616301Y-101137919D01*
X30616299Y-101137916D01*
X30616298Y-101137914D01*
X30483273Y-100947935D01*
X30483268Y-100947929D01*
X30319269Y-100783930D01*
X30319263Y-100783926D01*
X30129282Y-100650899D01*
X29919079Y-100552880D01*
X29919076Y-100552879D01*
X29919074Y-100552878D01*
X29695051Y-100492851D01*
X29695044Y-100492850D01*
X29464002Y-100472637D01*
X29463998Y-100472637D01*
X29232955Y-100492850D01*
X29232948Y-100492851D01*
X29008917Y-100552881D01*
X28798718Y-100650899D01*
X28798714Y-100650901D01*
X28608735Y-100783926D01*
X28608729Y-100783931D01*
X28444731Y-100947929D01*
X28444726Y-100947935D01*
X28311701Y-101137914D01*
X28311699Y-101137918D01*
X28213681Y-101348117D01*
X28153651Y-101572148D01*
X28153650Y-101572155D01*
X28133437Y-101803198D01*
X28133437Y-101803201D01*
X22860000Y-101803201D01*
X22860000Y-98571513D01*
X46203287Y-98571513D01*
X46232913Y-98840763D01*
X46232915Y-98840774D01*
X46301426Y-99102832D01*
X46301428Y-99102838D01*
X46407370Y-99352140D01*
X46466972Y-99449801D01*
X46548479Y-99583355D01*
X46548486Y-99583365D01*
X46721753Y-99791569D01*
X46721759Y-99791574D01*
X46923498Y-99972332D01*
X47149410Y-100121794D01*
X47394676Y-100236770D01*
X47394683Y-100236772D01*
X47394685Y-100236773D01*
X47654057Y-100314807D01*
X47654064Y-100314808D01*
X47654069Y-100314810D01*
X47922061Y-100354250D01*
X47922066Y-100354250D01*
X48125136Y-100354250D01*
X48176633Y-100350480D01*
X48327656Y-100339427D01*
X48440258Y-100314343D01*
X48592046Y-100280532D01*
X48592048Y-100280531D01*
X48592053Y-100280530D01*
X48845058Y-100183764D01*
X49081277Y-100051191D01*
X49295677Y-99885638D01*
X49483686Y-99690631D01*
X49641299Y-99470329D01*
X49720249Y-99316770D01*
X49765149Y-99229440D01*
X49765151Y-99229434D01*
X49765156Y-99229425D01*
X49852618Y-98973055D01*
X49901819Y-98706683D01*
X49906759Y-98571513D01*
X104203287Y-98571513D01*
X104232913Y-98840763D01*
X104232915Y-98840774D01*
X104301426Y-99102832D01*
X104301428Y-99102838D01*
X104407370Y-99352140D01*
X104466972Y-99449801D01*
X104548479Y-99583355D01*
X104548486Y-99583365D01*
X104721753Y-99791569D01*
X104721759Y-99791574D01*
X104923498Y-99972332D01*
X105149410Y-100121794D01*
X105394676Y-100236770D01*
X105394683Y-100236772D01*
X105394685Y-100236773D01*
X105654057Y-100314807D01*
X105654064Y-100314808D01*
X105654069Y-100314810D01*
X105922061Y-100354250D01*
X105922066Y-100354250D01*
X106125136Y-100354250D01*
X106176633Y-100350480D01*
X106327656Y-100339427D01*
X106440258Y-100314343D01*
X106592046Y-100280532D01*
X106592048Y-100280531D01*
X106592053Y-100280530D01*
X106845058Y-100183764D01*
X107081277Y-100051191D01*
X107295677Y-99885638D01*
X107483686Y-99690631D01*
X107641299Y-99470329D01*
X107720249Y-99316770D01*
X107765149Y-99229440D01*
X107765151Y-99229434D01*
X107765156Y-99229425D01*
X107852618Y-98973055D01*
X107901819Y-98706683D01*
X107911712Y-98435985D01*
X107882086Y-98166732D01*
X107813572Y-97904662D01*
X107707630Y-97655360D01*
X107566518Y-97424140D01*
X107477247Y-97316869D01*
X107393246Y-97215930D01*
X107393240Y-97215925D01*
X107191502Y-97035168D01*
X106965592Y-96885707D01*
X106965590Y-96885706D01*
X106720324Y-96770730D01*
X106720319Y-96770728D01*
X106720314Y-96770726D01*
X106460942Y-96692692D01*
X106460928Y-96692689D01*
X106345291Y-96675671D01*
X106192939Y-96653250D01*
X105989869Y-96653250D01*
X105989864Y-96653250D01*
X105787344Y-96668073D01*
X105787331Y-96668075D01*
X105522953Y-96726967D01*
X105522946Y-96726970D01*
X105269939Y-96823737D01*
X105033726Y-96956307D01*
X104819322Y-97121862D01*
X104631322Y-97316859D01*
X104631316Y-97316866D01*
X104473702Y-97537169D01*
X104473699Y-97537174D01*
X104349850Y-97778059D01*
X104349843Y-97778077D01*
X104262384Y-98034435D01*
X104262381Y-98034449D01*
X104237949Y-98166725D01*
X104213794Y-98297501D01*
X104213181Y-98300818D01*
X104213180Y-98300825D01*
X104203287Y-98571513D01*
X49906759Y-98571513D01*
X49911712Y-98435985D01*
X49882086Y-98166732D01*
X49813572Y-97904662D01*
X49707630Y-97655360D01*
X49566518Y-97424140D01*
X49477247Y-97316869D01*
X49393246Y-97215930D01*
X49393240Y-97215925D01*
X49191502Y-97035168D01*
X48965592Y-96885707D01*
X48965590Y-96885706D01*
X48720324Y-96770730D01*
X48720319Y-96770728D01*
X48720314Y-96770726D01*
X48460942Y-96692692D01*
X48460928Y-96692689D01*
X48345291Y-96675671D01*
X48192939Y-96653250D01*
X47989869Y-96653250D01*
X47989864Y-96653250D01*
X47787344Y-96668073D01*
X47787331Y-96668075D01*
X47522953Y-96726967D01*
X47522946Y-96726970D01*
X47269939Y-96823737D01*
X47033726Y-96956307D01*
X46819322Y-97121862D01*
X46631322Y-97316859D01*
X46631316Y-97316866D01*
X46473702Y-97537169D01*
X46473699Y-97537174D01*
X46349850Y-97778059D01*
X46349843Y-97778077D01*
X46262384Y-98034435D01*
X46262381Y-98034449D01*
X46237949Y-98166725D01*
X46213794Y-98297501D01*
X46213181Y-98300818D01*
X46213180Y-98300825D01*
X46203287Y-98571513D01*
X22860000Y-98571513D01*
X22860000Y-97596070D01*
X28138500Y-97596070D01*
X28138501Y-97596076D01*
X28144908Y-97655683D01*
X28195202Y-97790528D01*
X28195206Y-97790535D01*
X28281452Y-97905744D01*
X28281455Y-97905747D01*
X28396664Y-97991993D01*
X28396671Y-97991997D01*
X28531517Y-98042291D01*
X28531516Y-98042291D01*
X28538444Y-98043035D01*
X28591127Y-98048700D01*
X30336872Y-98048699D01*
X30396483Y-98042291D01*
X30531331Y-97991996D01*
X30646546Y-97905746D01*
X30732796Y-97790531D01*
X30783091Y-97655683D01*
X30789500Y-97596073D01*
X30789499Y-95850328D01*
X30783091Y-95790717D01*
X30732796Y-95655869D01*
X30732795Y-95655868D01*
X30732793Y-95655864D01*
X30646547Y-95540655D01*
X30646544Y-95540652D01*
X30531335Y-95454406D01*
X30531328Y-95454402D01*
X30396482Y-95404108D01*
X30396483Y-95404108D01*
X30336883Y-95397701D01*
X30336881Y-95397700D01*
X30336873Y-95397700D01*
X30336864Y-95397700D01*
X28591129Y-95397700D01*
X28591123Y-95397701D01*
X28531516Y-95404108D01*
X28396671Y-95454402D01*
X28396664Y-95454406D01*
X28281455Y-95540652D01*
X28281452Y-95540655D01*
X28195206Y-95655864D01*
X28195202Y-95655871D01*
X28144908Y-95790717D01*
X28138501Y-95850316D01*
X28138501Y-95850323D01*
X28138500Y-95850335D01*
X28138500Y-97596070D01*
X22860000Y-97596070D01*
X22860000Y-93493069D01*
X152476916Y-93493069D01*
X152515615Y-93675141D01*
X152515617Y-93675147D01*
X152591326Y-93845188D01*
X152591325Y-93845188D01*
X152618638Y-93882781D01*
X152700736Y-93995779D01*
X152700737Y-93995780D01*
X152700738Y-93995781D01*
X152700740Y-93995784D01*
X152784885Y-94071547D01*
X152839065Y-94120331D01*
X153000267Y-94213401D01*
X153000269Y-94213401D01*
X153000272Y-94213403D01*
X153088781Y-94242161D01*
X153177296Y-94270921D01*
X153316005Y-94285500D01*
X153316010Y-94285500D01*
X153408822Y-94285500D01*
X153408827Y-94285500D01*
X153547536Y-94270921D01*
X153724565Y-94213401D01*
X153885767Y-94120331D01*
X153994125Y-94022764D01*
X154024091Y-93995784D01*
X154024091Y-93995782D01*
X154024096Y-93995779D01*
X154133506Y-93845189D01*
X154209216Y-93675142D01*
X154247916Y-93493070D01*
X154247916Y-93306930D01*
X154209216Y-93124858D01*
X154209214Y-93124852D01*
X154178802Y-93056547D01*
X154133506Y-92954811D01*
X154024096Y-92804221D01*
X154024093Y-92804218D01*
X154024091Y-92804215D01*
X153933952Y-92723055D01*
X153885767Y-92679669D01*
X153724565Y-92586599D01*
X153724559Y-92586596D01*
X153547540Y-92529080D01*
X153547538Y-92529079D01*
X153507904Y-92524913D01*
X153408827Y-92514500D01*
X153316005Y-92514500D01*
X153229311Y-92523611D01*
X153177293Y-92529079D01*
X153177291Y-92529080D01*
X153000272Y-92586596D01*
X153000266Y-92586599D01*
X152839066Y-92679668D01*
X152700740Y-92804215D01*
X152700738Y-92804218D01*
X152591325Y-92954811D01*
X152515617Y-93124852D01*
X152515615Y-93124858D01*
X152476916Y-93306930D01*
X152476916Y-93493069D01*
X22860000Y-93493069D01*
X22860000Y-90961587D01*
X37416300Y-90961587D01*
X37436594Y-91096223D01*
X37455404Y-91221015D01*
X37455405Y-91221017D01*
X37455406Y-91221023D01*
X37532738Y-91471726D01*
X37646567Y-91708096D01*
X37646568Y-91708097D01*
X37646570Y-91708100D01*
X37646572Y-91708104D01*
X37758835Y-91872763D01*
X37794367Y-91924879D01*
X37972814Y-92117201D01*
X37972818Y-92117204D01*
X37972819Y-92117205D01*
X38177943Y-92280786D01*
X38405157Y-92411968D01*
X38649384Y-92507820D01*
X38905170Y-92566202D01*
X38905176Y-92566202D01*
X38905179Y-92566203D01*
X39101300Y-92580900D01*
X39101306Y-92580900D01*
X39232300Y-92580900D01*
X39428420Y-92566203D01*
X39428422Y-92566202D01*
X39428430Y-92566202D01*
X39684216Y-92507820D01*
X39928443Y-92411968D01*
X40155657Y-92280786D01*
X40360781Y-92117205D01*
X40539233Y-91924879D01*
X40687028Y-91708104D01*
X40800863Y-91471723D01*
X40878196Y-91221015D01*
X40917300Y-90961582D01*
X40917300Y-90699218D01*
X40878196Y-90439785D01*
X40800863Y-90189077D01*
X40740324Y-90063366D01*
X40687032Y-89952703D01*
X40687031Y-89952702D01*
X40687030Y-89952701D01*
X40687028Y-89952696D01*
X40552923Y-89756000D01*
X59190275Y-89756000D01*
X59209992Y-90119676D01*
X59210361Y-90126470D01*
X59210362Y-90126487D01*
X59270382Y-90492589D01*
X59270387Y-90492610D01*
X59369640Y-90850089D01*
X59369641Y-90850091D01*
X59506965Y-91194751D01*
X59506974Y-91194769D01*
X59520499Y-91220280D01*
X59636986Y-91439998D01*
X59680760Y-91522563D01*
X59680761Y-91522566D01*
X59888965Y-91829643D01*
X59888973Y-91829653D01*
X60095388Y-92072662D01*
X60129158Y-92112419D01*
X60277789Y-92253209D01*
X60398514Y-92367566D01*
X60398526Y-92367576D01*
X60693875Y-92592095D01*
X60693892Y-92592107D01*
X60976959Y-92762421D01*
X61011787Y-92783376D01*
X61011791Y-92783377D01*
X61011795Y-92783380D01*
X61348501Y-92939157D01*
X61348512Y-92939162D01*
X61700107Y-93057628D01*
X62062450Y-93137386D01*
X62431292Y-93177500D01*
X62431298Y-93177500D01*
X62802302Y-93177500D01*
X62802308Y-93177500D01*
X63171150Y-93137386D01*
X63533493Y-93057628D01*
X63885088Y-92939162D01*
X64221813Y-92783376D01*
X64394176Y-92679669D01*
X64539707Y-92592107D01*
X64539716Y-92592100D01*
X64539722Y-92592097D01*
X64835085Y-92367567D01*
X65104442Y-92112419D01*
X65344633Y-91829645D01*
X65552843Y-91522558D01*
X65726630Y-91194761D01*
X65863957Y-90850095D01*
X65871100Y-90824371D01*
X65911640Y-90678356D01*
X65963215Y-90492602D01*
X65994055Y-90304488D01*
X66023237Y-90126487D01*
X66023237Y-90126484D01*
X66023239Y-90126473D01*
X66043325Y-89756000D01*
X66023239Y-89385527D01*
X66022335Y-89380014D01*
X65963217Y-89019410D01*
X65963216Y-89019409D01*
X65963215Y-89019398D01*
X65930065Y-88900001D01*
X107214390Y-88900001D01*
X107234804Y-89185433D01*
X107295628Y-89465037D01*
X107295630Y-89465043D01*
X107295631Y-89465046D01*
X107381600Y-89695538D01*
X107395635Y-89733166D01*
X107532770Y-89984309D01*
X107532775Y-89984317D01*
X107704254Y-90213387D01*
X107704270Y-90213405D01*
X107906594Y-90415729D01*
X107906612Y-90415745D01*
X108135682Y-90587224D01*
X108135690Y-90587229D01*
X108386833Y-90724364D01*
X108386832Y-90724364D01*
X108386836Y-90724365D01*
X108386839Y-90724367D01*
X108654954Y-90824369D01*
X108654960Y-90824370D01*
X108654962Y-90824371D01*
X108934566Y-90885195D01*
X108934568Y-90885195D01*
X108934572Y-90885196D01*
X109188220Y-90903337D01*
X109219999Y-90905610D01*
X109220000Y-90905610D01*
X109220001Y-90905610D01*
X109248595Y-90903564D01*
X109505428Y-90885196D01*
X109588045Y-90867224D01*
X109785037Y-90824371D01*
X109785037Y-90824370D01*
X109785046Y-90824369D01*
X110053161Y-90724367D01*
X110304315Y-90587226D01*
X110533395Y-90415739D01*
X110735739Y-90213395D01*
X110907226Y-89984315D01*
X111044367Y-89733161D01*
X111144369Y-89465046D01*
X111146208Y-89456591D01*
X111195456Y-89230201D01*
X120447790Y-89230201D01*
X120468204Y-89515633D01*
X120529028Y-89795237D01*
X120529030Y-89795243D01*
X120529031Y-89795246D01*
X120575477Y-89919772D01*
X120629035Y-90063366D01*
X120766170Y-90314509D01*
X120766175Y-90314517D01*
X120937654Y-90543587D01*
X120937670Y-90543605D01*
X121139994Y-90745929D01*
X121140012Y-90745945D01*
X121369082Y-90917424D01*
X121369090Y-90917429D01*
X121620233Y-91054564D01*
X121620232Y-91054564D01*
X121620236Y-91054565D01*
X121620239Y-91054567D01*
X121888354Y-91154569D01*
X121888360Y-91154570D01*
X121888362Y-91154571D01*
X122167966Y-91215395D01*
X122167968Y-91215395D01*
X122167972Y-91215396D01*
X122421620Y-91233537D01*
X122453399Y-91235810D01*
X122453400Y-91235810D01*
X122453401Y-91235810D01*
X122481995Y-91233764D01*
X122738828Y-91215396D01*
X122860436Y-91188942D01*
X123018437Y-91154571D01*
X123018437Y-91154570D01*
X123018446Y-91154569D01*
X123286561Y-91054567D01*
X123537715Y-90917426D01*
X123766795Y-90745939D01*
X123969139Y-90543595D01*
X124140626Y-90314515D01*
X124277767Y-90063361D01*
X124377769Y-89795246D01*
X124438596Y-89515628D01*
X124459010Y-89230200D01*
X124438596Y-88944772D01*
X124428856Y-88900000D01*
X124377771Y-88665162D01*
X124377770Y-88665160D01*
X124377769Y-88665154D01*
X124277767Y-88397039D01*
X124252374Y-88350536D01*
X124140629Y-88145890D01*
X124140624Y-88145882D01*
X123969145Y-87916812D01*
X123969129Y-87916794D01*
X123766805Y-87714470D01*
X123766787Y-87714454D01*
X123537717Y-87542975D01*
X123537709Y-87542970D01*
X123286566Y-87405835D01*
X123286567Y-87405835D01*
X123179315Y-87365832D01*
X123018446Y-87305831D01*
X123018443Y-87305830D01*
X123018437Y-87305828D01*
X122738833Y-87245004D01*
X122453401Y-87224590D01*
X122453399Y-87224590D01*
X122167966Y-87245004D01*
X121888362Y-87305828D01*
X121620233Y-87405835D01*
X121369090Y-87542970D01*
X121369082Y-87542975D01*
X121140012Y-87714454D01*
X121139994Y-87714470D01*
X120937670Y-87916794D01*
X120937654Y-87916812D01*
X120766175Y-88145882D01*
X120766170Y-88145890D01*
X120629035Y-88397033D01*
X120529028Y-88665162D01*
X120468204Y-88944766D01*
X120447790Y-89230198D01*
X120447790Y-89230201D01*
X111195456Y-89230201D01*
X111205195Y-89185433D01*
X111205195Y-89185432D01*
X111205196Y-89185428D01*
X111225610Y-88900000D01*
X111205196Y-88614572D01*
X111195612Y-88570516D01*
X111144371Y-88334962D01*
X111144370Y-88334960D01*
X111144369Y-88334954D01*
X111044367Y-88066839D01*
X111027411Y-88035787D01*
X110907229Y-87815690D01*
X110907224Y-87815682D01*
X110735745Y-87586612D01*
X110735729Y-87586594D01*
X110533405Y-87384270D01*
X110533387Y-87384254D01*
X110304317Y-87212775D01*
X110304309Y-87212770D01*
X110053166Y-87075635D01*
X110053167Y-87075635D01*
X109945915Y-87035632D01*
X109785046Y-86975631D01*
X109785043Y-86975630D01*
X109785037Y-86975628D01*
X109505433Y-86914804D01*
X109220001Y-86894390D01*
X109219999Y-86894390D01*
X108934566Y-86914804D01*
X108654962Y-86975628D01*
X108386833Y-87075635D01*
X108135690Y-87212770D01*
X108135682Y-87212775D01*
X107906612Y-87384254D01*
X107906594Y-87384270D01*
X107704270Y-87586594D01*
X107704254Y-87586612D01*
X107532775Y-87815682D01*
X107532770Y-87815690D01*
X107395635Y-88066833D01*
X107295628Y-88334962D01*
X107234804Y-88614566D01*
X107214390Y-88899998D01*
X107214390Y-88900001D01*
X65930065Y-88900001D01*
X65881593Y-88725422D01*
X65863959Y-88661910D01*
X65863958Y-88661908D01*
X65726634Y-88317248D01*
X65726625Y-88317230D01*
X65552843Y-87989442D01*
X65552839Y-87989436D01*
X65552838Y-87989433D01*
X65344634Y-87682356D01*
X65344626Y-87682346D01*
X65104442Y-87399581D01*
X64835085Y-87144433D01*
X64835073Y-87144423D01*
X64539724Y-86919904D01*
X64539707Y-86919892D01*
X64221817Y-86728626D01*
X64221804Y-86728619D01*
X63885098Y-86572842D01*
X63885093Y-86572840D01*
X63885088Y-86572838D01*
X63713704Y-86515092D01*
X63533492Y-86454371D01*
X63171148Y-86374613D01*
X62802309Y-86334500D01*
X62802308Y-86334500D01*
X62431292Y-86334500D01*
X62431290Y-86334500D01*
X62062451Y-86374613D01*
X61700107Y-86454371D01*
X61428318Y-86545948D01*
X61348512Y-86572838D01*
X61348509Y-86572839D01*
X61348501Y-86572842D01*
X61011795Y-86728619D01*
X61011782Y-86728626D01*
X60693892Y-86919892D01*
X60693875Y-86919904D01*
X60398526Y-87144423D01*
X60398514Y-87144433D01*
X60129157Y-87399581D01*
X59888973Y-87682346D01*
X59888965Y-87682356D01*
X59680761Y-87989433D01*
X59680760Y-87989436D01*
X59506974Y-88317230D01*
X59506965Y-88317248D01*
X59369641Y-88661908D01*
X59369640Y-88661910D01*
X59270387Y-89019389D01*
X59270382Y-89019410D01*
X59210362Y-89385512D01*
X59210361Y-89385525D01*
X59210361Y-89385527D01*
X59209779Y-89396261D01*
X59191364Y-89735921D01*
X59190275Y-89756000D01*
X40552923Y-89756000D01*
X40539233Y-89735921D01*
X40496161Y-89689500D01*
X40360785Y-89543598D01*
X40321333Y-89512136D01*
X40155657Y-89380014D01*
X39928443Y-89248832D01*
X39684216Y-89152980D01*
X39684211Y-89152978D01*
X39684202Y-89152976D01*
X39466618Y-89103314D01*
X39428430Y-89094598D01*
X39428429Y-89094597D01*
X39428425Y-89094597D01*
X39428420Y-89094596D01*
X39232300Y-89079900D01*
X39232294Y-89079900D01*
X39101306Y-89079900D01*
X39101300Y-89079900D01*
X38905179Y-89094596D01*
X38905174Y-89094597D01*
X38649397Y-89152976D01*
X38649378Y-89152982D01*
X38405156Y-89248832D01*
X38177943Y-89380014D01*
X37972814Y-89543598D01*
X37794367Y-89735920D01*
X37646568Y-89952702D01*
X37646567Y-89952703D01*
X37532738Y-90189073D01*
X37455406Y-90439776D01*
X37455405Y-90439781D01*
X37455404Y-90439785D01*
X37447445Y-90492589D01*
X37416300Y-90699212D01*
X37416300Y-90961587D01*
X22860000Y-90961587D01*
X22860000Y-86130433D01*
X37452445Y-86130433D01*
X37471839Y-86401592D01*
X37471840Y-86401599D01*
X37529623Y-86667225D01*
X37529625Y-86667233D01*
X37583621Y-86812001D01*
X37624630Y-86921951D01*
X37754909Y-87160539D01*
X37754910Y-87160540D01*
X37754913Y-87160545D01*
X37917829Y-87378174D01*
X37917833Y-87378178D01*
X37917838Y-87378184D01*
X38110047Y-87570393D01*
X38110053Y-87570398D01*
X38110058Y-87570403D01*
X38327687Y-87733319D01*
X38327691Y-87733321D01*
X38327692Y-87733322D01*
X38566281Y-87863601D01*
X38566280Y-87863601D01*
X38566284Y-87863602D01*
X38566287Y-87863604D01*
X38820999Y-87958607D01*
X39086640Y-88016393D01*
X39338405Y-88034399D01*
X39357799Y-88035787D01*
X39357800Y-88035787D01*
X39357801Y-88035787D01*
X39375900Y-88034492D01*
X39628960Y-88016393D01*
X39894601Y-87958607D01*
X40149313Y-87863604D01*
X40149317Y-87863601D01*
X40149319Y-87863601D01*
X40363237Y-87746793D01*
X40387913Y-87733319D01*
X40605542Y-87570403D01*
X40797771Y-87378174D01*
X40960687Y-87160545D01*
X41090972Y-86921945D01*
X41185975Y-86667233D01*
X41243761Y-86401592D01*
X41263155Y-86130433D01*
X41652444Y-86130433D01*
X41671838Y-86401592D01*
X41671839Y-86401599D01*
X41729622Y-86667225D01*
X41729624Y-86667233D01*
X41783620Y-86812001D01*
X41824629Y-86921951D01*
X41954908Y-87160539D01*
X41954909Y-87160540D01*
X41954912Y-87160545D01*
X42117828Y-87378174D01*
X42117832Y-87378178D01*
X42117837Y-87378184D01*
X42310046Y-87570393D01*
X42310052Y-87570398D01*
X42310057Y-87570403D01*
X42527686Y-87733319D01*
X42527690Y-87733321D01*
X42527691Y-87733322D01*
X42766280Y-87863601D01*
X42766279Y-87863601D01*
X42766283Y-87863602D01*
X42766286Y-87863604D01*
X43020998Y-87958607D01*
X43286639Y-88016393D01*
X43538404Y-88034399D01*
X43557798Y-88035787D01*
X43557799Y-88035787D01*
X43557800Y-88035787D01*
X43575899Y-88034492D01*
X43828959Y-88016393D01*
X44094600Y-87958607D01*
X44349312Y-87863604D01*
X44349316Y-87863601D01*
X44349318Y-87863601D01*
X44563236Y-87746793D01*
X44587912Y-87733319D01*
X44805541Y-87570403D01*
X44997770Y-87378174D01*
X45160686Y-87160545D01*
X45290971Y-86921945D01*
X45385974Y-86667233D01*
X45443760Y-86401592D01*
X45463154Y-86130432D01*
X45443760Y-85859272D01*
X45385974Y-85593631D01*
X45290971Y-85338919D01*
X45290969Y-85338916D01*
X45290968Y-85338912D01*
X45160689Y-85100324D01*
X45160688Y-85100323D01*
X45160686Y-85100319D01*
X44997770Y-84882690D01*
X44997765Y-84882685D01*
X44997760Y-84882679D01*
X44805551Y-84690470D01*
X44805545Y-84690465D01*
X44805541Y-84690461D01*
X44587912Y-84527545D01*
X44587907Y-84527542D01*
X44587906Y-84527541D01*
X44349317Y-84397262D01*
X44349318Y-84397262D01*
X44299719Y-84378762D01*
X44094600Y-84302257D01*
X44094593Y-84302255D01*
X44094592Y-84302255D01*
X43828966Y-84244472D01*
X43828959Y-84244471D01*
X43557800Y-84225077D01*
X43557798Y-84225077D01*
X43286638Y-84244471D01*
X43286631Y-84244472D01*
X43021005Y-84302255D01*
X43021001Y-84302256D01*
X43020998Y-84302257D01*
X42893642Y-84349758D01*
X42766279Y-84397262D01*
X42527691Y-84527541D01*
X42527690Y-84527542D01*
X42310058Y-84690460D01*
X42310046Y-84690470D01*
X42117837Y-84882679D01*
X42117827Y-84882691D01*
X41954909Y-85100323D01*
X41954908Y-85100324D01*
X41824629Y-85338912D01*
X41777125Y-85466275D01*
X41729624Y-85593631D01*
X41729623Y-85593634D01*
X41729622Y-85593638D01*
X41671839Y-85859264D01*
X41671838Y-85859271D01*
X41652444Y-86130430D01*
X41652444Y-86130433D01*
X41263155Y-86130433D01*
X41263155Y-86130432D01*
X41243761Y-85859272D01*
X41185975Y-85593631D01*
X41090972Y-85338919D01*
X41090970Y-85338916D01*
X41090969Y-85338912D01*
X40960690Y-85100324D01*
X40960689Y-85100323D01*
X40960687Y-85100319D01*
X40797771Y-84882690D01*
X40797766Y-84882685D01*
X40797761Y-84882679D01*
X40605552Y-84690470D01*
X40605546Y-84690465D01*
X40605542Y-84690461D01*
X40387913Y-84527545D01*
X40387908Y-84527542D01*
X40387907Y-84527541D01*
X40149318Y-84397262D01*
X40149319Y-84397262D01*
X40099720Y-84378762D01*
X39894601Y-84302257D01*
X39894594Y-84302255D01*
X39894593Y-84302255D01*
X39628967Y-84244472D01*
X39628960Y-84244471D01*
X39357801Y-84225077D01*
X39357799Y-84225077D01*
X39086639Y-84244471D01*
X39086632Y-84244472D01*
X38821006Y-84302255D01*
X38821002Y-84302256D01*
X38820999Y-84302257D01*
X38693643Y-84349758D01*
X38566280Y-84397262D01*
X38327692Y-84527541D01*
X38327691Y-84527542D01*
X38110059Y-84690460D01*
X38110047Y-84690470D01*
X37917838Y-84882679D01*
X37917828Y-84882691D01*
X37754910Y-85100323D01*
X37754909Y-85100324D01*
X37624630Y-85338912D01*
X37577126Y-85466275D01*
X37529625Y-85593631D01*
X37529624Y-85593634D01*
X37529623Y-85593638D01*
X37471840Y-85859264D01*
X37471839Y-85859271D01*
X37452445Y-86130430D01*
X37452445Y-86130433D01*
X22860000Y-86130433D01*
X22860000Y-81930434D01*
X37452445Y-81930434D01*
X37471839Y-82201593D01*
X37471840Y-82201600D01*
X37529623Y-82467226D01*
X37529625Y-82467234D01*
X37594963Y-82642411D01*
X37624630Y-82721952D01*
X37754909Y-82960540D01*
X37754910Y-82960541D01*
X37754913Y-82960546D01*
X37917829Y-83178175D01*
X37917833Y-83178179D01*
X37917838Y-83178185D01*
X38110047Y-83370394D01*
X38110053Y-83370399D01*
X38110058Y-83370404D01*
X38327687Y-83533320D01*
X38327691Y-83533322D01*
X38327692Y-83533323D01*
X38566281Y-83663602D01*
X38566280Y-83663602D01*
X38566284Y-83663603D01*
X38566287Y-83663605D01*
X38820999Y-83758608D01*
X39086640Y-83816394D01*
X39338405Y-83834400D01*
X39357799Y-83835788D01*
X39357800Y-83835788D01*
X39357801Y-83835788D01*
X39375900Y-83834493D01*
X39628960Y-83816394D01*
X39894601Y-83758608D01*
X40149313Y-83663605D01*
X40149317Y-83663602D01*
X40149319Y-83663602D01*
X40268613Y-83598462D01*
X40387913Y-83533320D01*
X40605542Y-83370404D01*
X40797771Y-83178175D01*
X40960687Y-82960546D01*
X41090972Y-82721946D01*
X41185975Y-82467234D01*
X41243761Y-82201593D01*
X41263155Y-81930434D01*
X41652444Y-81930434D01*
X41671838Y-82201593D01*
X41671839Y-82201600D01*
X41729622Y-82467226D01*
X41729624Y-82467234D01*
X41794962Y-82642411D01*
X41824629Y-82721952D01*
X41954908Y-82960540D01*
X41954909Y-82960541D01*
X41954912Y-82960546D01*
X42117828Y-83178175D01*
X42117832Y-83178179D01*
X42117837Y-83178185D01*
X42310046Y-83370394D01*
X42310052Y-83370399D01*
X42310057Y-83370404D01*
X42527686Y-83533320D01*
X42527690Y-83533322D01*
X42527691Y-83533323D01*
X42766280Y-83663602D01*
X42766279Y-83663602D01*
X42766283Y-83663603D01*
X42766286Y-83663605D01*
X43020998Y-83758608D01*
X43286639Y-83816394D01*
X43538404Y-83834400D01*
X43557798Y-83835788D01*
X43557799Y-83835788D01*
X43557800Y-83835788D01*
X43575899Y-83834493D01*
X43828959Y-83816394D01*
X44094600Y-83758608D01*
X44349312Y-83663605D01*
X44349316Y-83663602D01*
X44349318Y-83663602D01*
X44468612Y-83598462D01*
X44587912Y-83533320D01*
X44805541Y-83370404D01*
X44995276Y-83180669D01*
X152626502Y-83180669D01*
X152665201Y-83362741D01*
X152665203Y-83362747D01*
X152740912Y-83532788D01*
X152740911Y-83532788D01*
X152740912Y-83532789D01*
X152850322Y-83683379D01*
X152850323Y-83683380D01*
X152850324Y-83683381D01*
X152850326Y-83683384D01*
X152933872Y-83758608D01*
X152988651Y-83807931D01*
X153149853Y-83901001D01*
X153149855Y-83901001D01*
X153149858Y-83901003D01*
X153238367Y-83929761D01*
X153326882Y-83958521D01*
X153465591Y-83973100D01*
X153465596Y-83973100D01*
X153558408Y-83973100D01*
X153558413Y-83973100D01*
X153697122Y-83958521D01*
X153874151Y-83901001D01*
X154035353Y-83807931D01*
X154143711Y-83710364D01*
X154173677Y-83683384D01*
X154173677Y-83683382D01*
X154173682Y-83683379D01*
X154283092Y-83532789D01*
X154358802Y-83362742D01*
X154397502Y-83180670D01*
X154397502Y-83180669D01*
X161626484Y-83180669D01*
X161665183Y-83362741D01*
X161665185Y-83362747D01*
X161740894Y-83532788D01*
X161740893Y-83532788D01*
X161740894Y-83532789D01*
X161850304Y-83683379D01*
X161850305Y-83683380D01*
X161850306Y-83683381D01*
X161850308Y-83683384D01*
X161933854Y-83758608D01*
X161988633Y-83807931D01*
X162149835Y-83901001D01*
X162149837Y-83901001D01*
X162149840Y-83901003D01*
X162238349Y-83929761D01*
X162326864Y-83958521D01*
X162465573Y-83973100D01*
X162465578Y-83973100D01*
X162558390Y-83973100D01*
X162558395Y-83973100D01*
X162697104Y-83958521D01*
X162874133Y-83901001D01*
X163035335Y-83807931D01*
X163143693Y-83710364D01*
X163173659Y-83683384D01*
X163173659Y-83683382D01*
X163173664Y-83683379D01*
X163283074Y-83532789D01*
X163358784Y-83362742D01*
X163397484Y-83180670D01*
X163397484Y-82994530D01*
X163358784Y-82812458D01*
X163358782Y-82812452D01*
X163318485Y-82721946D01*
X163283074Y-82642411D01*
X163173664Y-82491821D01*
X163173661Y-82491818D01*
X163173659Y-82491815D01*
X163078462Y-82406101D01*
X163035335Y-82367269D01*
X162874133Y-82274199D01*
X162874127Y-82274196D01*
X162697108Y-82216680D01*
X162697106Y-82216679D01*
X162657472Y-82212513D01*
X162558395Y-82202100D01*
X162465573Y-82202100D01*
X162378879Y-82211211D01*
X162326861Y-82216679D01*
X162326859Y-82216680D01*
X162149840Y-82274196D01*
X162149834Y-82274199D01*
X161988634Y-82367268D01*
X161850308Y-82491815D01*
X161850306Y-82491818D01*
X161740893Y-82642411D01*
X161665185Y-82812452D01*
X161665183Y-82812458D01*
X161626484Y-82994530D01*
X161626484Y-83180669D01*
X154397502Y-83180669D01*
X154397502Y-82994530D01*
X154358802Y-82812458D01*
X154358800Y-82812452D01*
X154318503Y-82721946D01*
X154283092Y-82642411D01*
X154173682Y-82491821D01*
X154173679Y-82491818D01*
X154173677Y-82491815D01*
X154078480Y-82406101D01*
X154035353Y-82367269D01*
X153874151Y-82274199D01*
X153874145Y-82274196D01*
X153697126Y-82216680D01*
X153697124Y-82216679D01*
X153657490Y-82212513D01*
X153558413Y-82202100D01*
X153465591Y-82202100D01*
X153378897Y-82211211D01*
X153326879Y-82216679D01*
X153326877Y-82216680D01*
X153149858Y-82274196D01*
X153149852Y-82274199D01*
X152988652Y-82367268D01*
X152850326Y-82491815D01*
X152850324Y-82491818D01*
X152740911Y-82642411D01*
X152665203Y-82812452D01*
X152665201Y-82812458D01*
X152626502Y-82994530D01*
X152626502Y-83180669D01*
X44995276Y-83180669D01*
X44997770Y-83178175D01*
X45160686Y-82960546D01*
X45290971Y-82721946D01*
X45385974Y-82467234D01*
X45443760Y-82201593D01*
X45463154Y-81930433D01*
X45443760Y-81659273D01*
X45385974Y-81393632D01*
X45290971Y-81138920D01*
X45290969Y-81138917D01*
X45290968Y-81138913D01*
X45160689Y-80900325D01*
X45160688Y-80900324D01*
X45160686Y-80900320D01*
X44997770Y-80682691D01*
X44997765Y-80682686D01*
X44997760Y-80682680D01*
X44805551Y-80490471D01*
X44805545Y-80490466D01*
X44805541Y-80490462D01*
X44587912Y-80327546D01*
X44587907Y-80327543D01*
X44587906Y-80327542D01*
X44349317Y-80197263D01*
X44349318Y-80197263D01*
X44299719Y-80178763D01*
X44094600Y-80102258D01*
X44094593Y-80102256D01*
X44094592Y-80102256D01*
X43828966Y-80044473D01*
X43828959Y-80044472D01*
X43557800Y-80025078D01*
X43557798Y-80025078D01*
X43286638Y-80044472D01*
X43286631Y-80044473D01*
X43021005Y-80102256D01*
X43021001Y-80102257D01*
X43020998Y-80102258D01*
X42908266Y-80144305D01*
X42766279Y-80197263D01*
X42527691Y-80327542D01*
X42527690Y-80327543D01*
X42310058Y-80490461D01*
X42310046Y-80490471D01*
X42117837Y-80682680D01*
X42117827Y-80682692D01*
X41954909Y-80900324D01*
X41954908Y-80900325D01*
X41824629Y-81138913D01*
X41822888Y-81143582D01*
X41729624Y-81393632D01*
X41729623Y-81393635D01*
X41729622Y-81393639D01*
X41671839Y-81659265D01*
X41671838Y-81659272D01*
X41652444Y-81930431D01*
X41652444Y-81930434D01*
X41263155Y-81930434D01*
X41263155Y-81930433D01*
X41243761Y-81659273D01*
X41185975Y-81393632D01*
X41090972Y-81138920D01*
X41090970Y-81138917D01*
X41090969Y-81138913D01*
X40960690Y-80900325D01*
X40960689Y-80900324D01*
X40960687Y-80900320D01*
X40797771Y-80682691D01*
X40797766Y-80682686D01*
X40797761Y-80682680D01*
X40605552Y-80490471D01*
X40605546Y-80490466D01*
X40605542Y-80490462D01*
X40387913Y-80327546D01*
X40387908Y-80327543D01*
X40387907Y-80327542D01*
X40149318Y-80197263D01*
X40149319Y-80197263D01*
X40099720Y-80178763D01*
X39894601Y-80102258D01*
X39894594Y-80102256D01*
X39894593Y-80102256D01*
X39628967Y-80044473D01*
X39628960Y-80044472D01*
X39357801Y-80025078D01*
X39357799Y-80025078D01*
X39086639Y-80044472D01*
X39086632Y-80044473D01*
X38821006Y-80102256D01*
X38821002Y-80102257D01*
X38820999Y-80102258D01*
X38708267Y-80144305D01*
X38566280Y-80197263D01*
X38327692Y-80327542D01*
X38327691Y-80327543D01*
X38110059Y-80490461D01*
X38110047Y-80490471D01*
X37917838Y-80682680D01*
X37917828Y-80682692D01*
X37754910Y-80900324D01*
X37754909Y-80900325D01*
X37624630Y-81138913D01*
X37622889Y-81143582D01*
X37529625Y-81393632D01*
X37529624Y-81393635D01*
X37529623Y-81393639D01*
X37471840Y-81659265D01*
X37471839Y-81659272D01*
X37452445Y-81930431D01*
X37452445Y-81930434D01*
X22860000Y-81930434D01*
X22860000Y-77730435D01*
X37452445Y-77730435D01*
X37471839Y-78001594D01*
X37471840Y-78001601D01*
X37529054Y-78264611D01*
X37529625Y-78267235D01*
X37575165Y-78389332D01*
X37624630Y-78521953D01*
X37754909Y-78760541D01*
X37754910Y-78760542D01*
X37754913Y-78760547D01*
X37917829Y-78978176D01*
X37917833Y-78978180D01*
X37917838Y-78978186D01*
X38110047Y-79170395D01*
X38110053Y-79170400D01*
X38110058Y-79170405D01*
X38327687Y-79333321D01*
X38327691Y-79333323D01*
X38327692Y-79333324D01*
X38566281Y-79463603D01*
X38566280Y-79463603D01*
X38566284Y-79463604D01*
X38566287Y-79463606D01*
X38820999Y-79558609D01*
X39086640Y-79616395D01*
X39338405Y-79634401D01*
X39357799Y-79635789D01*
X39357800Y-79635789D01*
X39357801Y-79635789D01*
X39375900Y-79634494D01*
X39628960Y-79616395D01*
X39894601Y-79558609D01*
X40149313Y-79463606D01*
X40149317Y-79463603D01*
X40149319Y-79463603D01*
X40315682Y-79372762D01*
X40387913Y-79333321D01*
X40594990Y-79178304D01*
X41657299Y-79178304D01*
X41657300Y-79178310D01*
X41663707Y-79237917D01*
X41714001Y-79372762D01*
X41714005Y-79372769D01*
X41800251Y-79487978D01*
X41800254Y-79487981D01*
X41915463Y-79574227D01*
X41915470Y-79574231D01*
X42050316Y-79624525D01*
X42050315Y-79624525D01*
X42057243Y-79625269D01*
X42109926Y-79630934D01*
X45005671Y-79630933D01*
X45065282Y-79624525D01*
X45200130Y-79574230D01*
X45315345Y-79487980D01*
X45401595Y-79372765D01*
X45451890Y-79237917D01*
X45458299Y-79178307D01*
X45458298Y-77056000D01*
X84590275Y-77056000D01*
X84600812Y-77250357D01*
X84610361Y-77426470D01*
X84610362Y-77426487D01*
X84670382Y-77792589D01*
X84670387Y-77792610D01*
X84769640Y-78150089D01*
X84769641Y-78150091D01*
X84906965Y-78494751D01*
X84906974Y-78494769D01*
X84943660Y-78563966D01*
X85061801Y-78786804D01*
X85080760Y-78822563D01*
X85080761Y-78822566D01*
X85288965Y-79129643D01*
X85288973Y-79129653D01*
X85503350Y-79382036D01*
X85529158Y-79412419D01*
X85577924Y-79458612D01*
X85798514Y-79667566D01*
X85798526Y-79667576D01*
X86093875Y-79892095D01*
X86093892Y-79892107D01*
X86411782Y-80083373D01*
X86411787Y-80083376D01*
X86411791Y-80083377D01*
X86411795Y-80083380D01*
X86678913Y-80206962D01*
X86748512Y-80239162D01*
X87100107Y-80357628D01*
X87462450Y-80437386D01*
X87831292Y-80477500D01*
X87831298Y-80477500D01*
X88202302Y-80477500D01*
X88202308Y-80477500D01*
X88571150Y-80437386D01*
X88933493Y-80357628D01*
X89285088Y-80239162D01*
X89621813Y-80083376D01*
X89804341Y-79973553D01*
X89939707Y-79892107D01*
X89939716Y-79892100D01*
X89939722Y-79892097D01*
X90235085Y-79667567D01*
X90504442Y-79412419D01*
X90744633Y-79129645D01*
X90886776Y-78920000D01*
X90952838Y-78822566D01*
X90952838Y-78822564D01*
X90952843Y-78822558D01*
X91126630Y-78494761D01*
X91193870Y-78326000D01*
X105078198Y-78326000D01*
X105096925Y-78563963D01*
X105152648Y-78796068D01*
X105243995Y-79016600D01*
X105243997Y-79016604D01*
X105243998Y-79016605D01*
X105368719Y-79220132D01*
X105523744Y-79401643D01*
X105705255Y-79556668D01*
X105908782Y-79681389D01*
X105908784Y-79681389D01*
X105908786Y-79681391D01*
X105934131Y-79691889D01*
X106129314Y-79772737D01*
X106361421Y-79828461D01*
X106599387Y-79847189D01*
X106837353Y-79828461D01*
X107069460Y-79772737D01*
X107289992Y-79681389D01*
X107390170Y-79620000D01*
X111789312Y-79620000D01*
X111808033Y-79857883D01*
X111863742Y-80089925D01*
X111955056Y-80310378D01*
X112073229Y-80503216D01*
X112826922Y-79749523D01*
X112850507Y-79829844D01*
X112928239Y-79950798D01*
X113036900Y-80044952D01*
X113167685Y-80104680D01*
X113177466Y-80106086D01*
X112426782Y-80856769D01*
X112426782Y-80856770D01*
X112619621Y-80974943D01*
X112840075Y-81066257D01*
X112840072Y-81066257D01*
X113072116Y-81121966D01*
X113310000Y-81140687D01*
X113547883Y-81121966D01*
X113779925Y-81066257D01*
X114000374Y-80974944D01*
X114193216Y-80856769D01*
X113442534Y-80106086D01*
X113452315Y-80104680D01*
X113583100Y-80044952D01*
X113691761Y-79950798D01*
X113769493Y-79829844D01*
X113793076Y-79749523D01*
X114546769Y-80503216D01*
X114664944Y-80310374D01*
X114756257Y-80089925D01*
X114811966Y-79857883D01*
X114830687Y-79620000D01*
X114811966Y-79382116D01*
X114756257Y-79150074D01*
X114664943Y-78929621D01*
X114659047Y-78920000D01*
X127704696Y-78920000D01*
X127723898Y-79286405D01*
X127766704Y-79556668D01*
X127781295Y-79648794D01*
X127841507Y-79873509D01*
X127876260Y-80003206D01*
X128007746Y-80345739D01*
X128174320Y-80672656D01*
X128374147Y-80980364D01*
X128503974Y-81140687D01*
X128605051Y-81265506D01*
X128864494Y-81524949D01*
X128963554Y-81605166D01*
X129149635Y-81755852D01*
X129457343Y-81955679D01*
X129457348Y-81955682D01*
X129784264Y-82122255D01*
X130030248Y-82216679D01*
X130104407Y-82245146D01*
X130126801Y-82253742D01*
X130481206Y-82348705D01*
X130843596Y-82406102D01*
X131189734Y-82424241D01*
X131209999Y-82425304D01*
X131210000Y-82425304D01*
X131210001Y-82425304D01*
X131229203Y-82424297D01*
X131576404Y-82406102D01*
X131938794Y-82348705D01*
X132293199Y-82253742D01*
X132635736Y-82122255D01*
X132962652Y-81955682D01*
X132993776Y-81935470D01*
X155251501Y-81935470D01*
X155251502Y-81935476D01*
X155257909Y-81995083D01*
X155308203Y-82129928D01*
X155308207Y-82129935D01*
X155394453Y-82245144D01*
X155394456Y-82245147D01*
X155509665Y-82331393D01*
X155509672Y-82331397D01*
X155644518Y-82381691D01*
X155644517Y-82381691D01*
X155651445Y-82382435D01*
X155704128Y-82388100D01*
X157319873Y-82388099D01*
X157379484Y-82381691D01*
X157514332Y-82331396D01*
X157629547Y-82245146D01*
X157715797Y-82129931D01*
X157766092Y-81995083D01*
X157772501Y-81935473D01*
X157772501Y-81127601D01*
X158246685Y-81127601D01*
X158265907Y-81347314D01*
X158265909Y-81347324D01*
X158322990Y-81560355D01*
X158322995Y-81560369D01*
X158416203Y-81760254D01*
X158416207Y-81760262D01*
X158542712Y-81940930D01*
X158698669Y-82096887D01*
X158879337Y-82223392D01*
X158879339Y-82223393D01*
X158879342Y-82223395D01*
X158944422Y-82253742D01*
X159079230Y-82316604D01*
X159079232Y-82316604D01*
X159079237Y-82316607D01*
X159292280Y-82373692D01*
X159449222Y-82387422D01*
X159511998Y-82392915D01*
X159512000Y-82392915D01*
X159512002Y-82392915D01*
X159567059Y-82388098D01*
X159731720Y-82373692D01*
X159944763Y-82316607D01*
X160144658Y-82223395D01*
X160325329Y-82096888D01*
X160481288Y-81940929D01*
X160607795Y-81760258D01*
X160701007Y-81560363D01*
X160758092Y-81347320D01*
X160777315Y-81127600D01*
X160776865Y-81122461D01*
X160771176Y-81057428D01*
X160758092Y-80907880D01*
X160721683Y-80772001D01*
X249222390Y-80772001D01*
X249242804Y-81057433D01*
X249303628Y-81337037D01*
X249303630Y-81337043D01*
X249303631Y-81337046D01*
X249403633Y-81605161D01*
X249403635Y-81605166D01*
X249540770Y-81856309D01*
X249540775Y-81856317D01*
X249712254Y-82085387D01*
X249712270Y-82085405D01*
X249914594Y-82287729D01*
X249914612Y-82287745D01*
X250143682Y-82459224D01*
X250143690Y-82459229D01*
X250394833Y-82596364D01*
X250394832Y-82596364D01*
X250394836Y-82596365D01*
X250394839Y-82596367D01*
X250662954Y-82696369D01*
X250662960Y-82696370D01*
X250662962Y-82696371D01*
X250942566Y-82757195D01*
X250942568Y-82757195D01*
X250942572Y-82757196D01*
X251196220Y-82775337D01*
X251227999Y-82777610D01*
X251228000Y-82777610D01*
X251228001Y-82777610D01*
X251256595Y-82775564D01*
X251513428Y-82757196D01*
X251793046Y-82696369D01*
X252061161Y-82596367D01*
X252312315Y-82459226D01*
X252541395Y-82287739D01*
X252743739Y-82085395D01*
X252915226Y-81856315D01*
X253052367Y-81605161D01*
X253152369Y-81337046D01*
X253161941Y-81293044D01*
X253213195Y-81057433D01*
X253213195Y-81057432D01*
X253213196Y-81057428D01*
X253233610Y-80772000D01*
X253213196Y-80486572D01*
X253211222Y-80477499D01*
X253152371Y-80206962D01*
X253152370Y-80206960D01*
X253152369Y-80206954D01*
X253052367Y-79938839D01*
X253044158Y-79923806D01*
X252945301Y-79742763D01*
X268997787Y-79742763D01*
X269027413Y-80012013D01*
X269027415Y-80012024D01*
X269095926Y-80274082D01*
X269095928Y-80274088D01*
X269201870Y-80523390D01*
X269299091Y-80682692D01*
X269342979Y-80754605D01*
X269342986Y-80754615D01*
X269516253Y-80962819D01*
X269516259Y-80962824D01*
X269632235Y-81066738D01*
X269717998Y-81143582D01*
X269943910Y-81293044D01*
X270189176Y-81408020D01*
X270189183Y-81408022D01*
X270189185Y-81408023D01*
X270448557Y-81486057D01*
X270448564Y-81486058D01*
X270448569Y-81486060D01*
X270716561Y-81525500D01*
X270716566Y-81525500D01*
X270919636Y-81525500D01*
X270971133Y-81521730D01*
X271122156Y-81510677D01*
X271234758Y-81485593D01*
X271386546Y-81451782D01*
X271386548Y-81451781D01*
X271386553Y-81451780D01*
X271639558Y-81355014D01*
X271875777Y-81222441D01*
X272090177Y-81056888D01*
X272278186Y-80861881D01*
X272435799Y-80641579D01*
X272515493Y-80486572D01*
X272559649Y-80400690D01*
X272559651Y-80400684D01*
X272559656Y-80400675D01*
X272647118Y-80144305D01*
X272696319Y-79877933D01*
X272706212Y-79607235D01*
X272676586Y-79337982D01*
X272608072Y-79075912D01*
X272502130Y-78826610D01*
X272361018Y-78595390D01*
X272277281Y-78494769D01*
X272187746Y-78387180D01*
X272187740Y-78387175D01*
X271986002Y-78206418D01*
X271760092Y-78056957D01*
X271760090Y-78056956D01*
X271514824Y-77941980D01*
X271514819Y-77941978D01*
X271514814Y-77941976D01*
X271255442Y-77863942D01*
X271255428Y-77863939D01*
X271139791Y-77846921D01*
X270987439Y-77824500D01*
X270784369Y-77824500D01*
X270784364Y-77824500D01*
X270581844Y-77839323D01*
X270581831Y-77839325D01*
X270317453Y-77898217D01*
X270317446Y-77898220D01*
X270064439Y-77994987D01*
X269828226Y-78127557D01*
X269828224Y-78127558D01*
X269828223Y-78127559D01*
X269799043Y-78150091D01*
X269613822Y-78293112D01*
X269425822Y-78488109D01*
X269425816Y-78488116D01*
X269268202Y-78708419D01*
X269268199Y-78708424D01*
X269144350Y-78949309D01*
X269144343Y-78949327D01*
X269056884Y-79205685D01*
X269056881Y-79205699D01*
X269033308Y-79333321D01*
X269009245Y-79463603D01*
X269007681Y-79472068D01*
X269007680Y-79472075D01*
X268997787Y-79742763D01*
X252945301Y-79742763D01*
X252915229Y-79687690D01*
X252915224Y-79687682D01*
X252743745Y-79458612D01*
X252743729Y-79458594D01*
X252541405Y-79256270D01*
X252541387Y-79256254D01*
X252312317Y-79084775D01*
X252312309Y-79084770D01*
X252061166Y-78947635D01*
X252061167Y-78947635D01*
X251953915Y-78907632D01*
X251793046Y-78847631D01*
X251793043Y-78847630D01*
X251793037Y-78847628D01*
X251513433Y-78786804D01*
X251228001Y-78766390D01*
X251227999Y-78766390D01*
X250942566Y-78786804D01*
X250662962Y-78847628D01*
X250394833Y-78947635D01*
X250143690Y-79084770D01*
X250143682Y-79084775D01*
X249914612Y-79256254D01*
X249914594Y-79256270D01*
X249712270Y-79458594D01*
X249712254Y-79458612D01*
X249540775Y-79687682D01*
X249540770Y-79687690D01*
X249403635Y-79938833D01*
X249303628Y-80206962D01*
X249242804Y-80486566D01*
X249222390Y-80771998D01*
X249222390Y-80772001D01*
X160721683Y-80772001D01*
X160701007Y-80694837D01*
X160607795Y-80494943D01*
X160481288Y-80314271D01*
X160481286Y-80314268D01*
X160325330Y-80158312D01*
X160144662Y-80031807D01*
X160144654Y-80031803D01*
X159944769Y-79938595D01*
X159944755Y-79938590D01*
X159731724Y-79881509D01*
X159731722Y-79881508D01*
X159731720Y-79881508D01*
X159731718Y-79881507D01*
X159731714Y-79881507D01*
X159512002Y-79862285D01*
X159511998Y-79862285D01*
X159292285Y-79881507D01*
X159292275Y-79881509D01*
X159079244Y-79938590D01*
X159079237Y-79938592D01*
X159079237Y-79938593D01*
X159056825Y-79949043D01*
X158879344Y-80031804D01*
X158879342Y-80031805D01*
X158698668Y-80158313D01*
X158542713Y-80314268D01*
X158416205Y-80494942D01*
X158416204Y-80494944D01*
X158322994Y-80694835D01*
X158322990Y-80694844D01*
X158265909Y-80907875D01*
X158265907Y-80907885D01*
X158246685Y-81127598D01*
X158246685Y-81127601D01*
X157772501Y-81127601D01*
X157772500Y-80319728D01*
X157766092Y-80260117D01*
X157758276Y-80239162D01*
X157715798Y-80125271D01*
X157715794Y-80125264D01*
X157629548Y-80010055D01*
X157629545Y-80010052D01*
X157514336Y-79923806D01*
X157514329Y-79923802D01*
X157379483Y-79873508D01*
X157379484Y-79873508D01*
X157319884Y-79867101D01*
X157319882Y-79867100D01*
X157319874Y-79867100D01*
X157319865Y-79867100D01*
X155704130Y-79867100D01*
X155704124Y-79867101D01*
X155644517Y-79873508D01*
X155509672Y-79923802D01*
X155509665Y-79923806D01*
X155394456Y-80010052D01*
X155394453Y-80010055D01*
X155308207Y-80125264D01*
X155308203Y-80125271D01*
X155257909Y-80260117D01*
X155251502Y-80319716D01*
X155251502Y-80319723D01*
X155251501Y-80319735D01*
X155251501Y-81935470D01*
X132993776Y-81935470D01*
X133270366Y-81755851D01*
X133555506Y-81524949D01*
X133814949Y-81265506D01*
X134045851Y-80980366D01*
X134245682Y-80672652D01*
X134412255Y-80345736D01*
X134543742Y-80003199D01*
X134638705Y-79648794D01*
X134643266Y-79620000D01*
X146788811Y-79620000D01*
X146807538Y-79857963D01*
X146863261Y-80090068D01*
X146954608Y-80310600D01*
X146954610Y-80310604D01*
X146954611Y-80310605D01*
X147079332Y-80514132D01*
X147234357Y-80695643D01*
X147415868Y-80850668D01*
X147619395Y-80975389D01*
X147619397Y-80975389D01*
X147619399Y-80975391D01*
X147631410Y-80980366D01*
X147839927Y-81066737D01*
X148072034Y-81122461D01*
X148310000Y-81141189D01*
X148547966Y-81122461D01*
X148780073Y-81066737D01*
X149000605Y-80975389D01*
X149204132Y-80850668D01*
X149385643Y-80695643D01*
X149540668Y-80514132D01*
X149665389Y-80310605D01*
X149756737Y-80090073D01*
X149812461Y-79857966D01*
X149831189Y-79620000D01*
X149812461Y-79382034D01*
X149756737Y-79149927D01*
X149673645Y-78949327D01*
X149665391Y-78929399D01*
X149659631Y-78920000D01*
X149540668Y-78725868D01*
X149385643Y-78544357D01*
X149204132Y-78389332D01*
X149000605Y-78264611D01*
X149000604Y-78264610D01*
X149000600Y-78264608D01*
X148780068Y-78173261D01*
X148547962Y-78117538D01*
X148547963Y-78117538D01*
X148310000Y-78098811D01*
X148072036Y-78117538D01*
X147839931Y-78173261D01*
X147619399Y-78264608D01*
X147415867Y-78389332D01*
X147234357Y-78544357D01*
X147079332Y-78725867D01*
X146954608Y-78929399D01*
X146863261Y-79149931D01*
X146807538Y-79382036D01*
X146788811Y-79620000D01*
X134643266Y-79620000D01*
X134696102Y-79286404D01*
X134715304Y-78920000D01*
X134696102Y-78553596D01*
X134638705Y-78191206D01*
X134543742Y-77836801D01*
X134412255Y-77494264D01*
X134245682Y-77167348D01*
X134245679Y-77167343D01*
X134045852Y-76859635D01*
X133814952Y-76574498D01*
X133814949Y-76574494D01*
X133555506Y-76315051D01*
X133323958Y-76127547D01*
X133270364Y-76084147D01*
X132962656Y-75884320D01*
X132635739Y-75717746D01*
X132293206Y-75586260D01*
X132293199Y-75586258D01*
X131938794Y-75491295D01*
X131938790Y-75491294D01*
X131938789Y-75491294D01*
X131576405Y-75433898D01*
X131210001Y-75414696D01*
X131209999Y-75414696D01*
X130843594Y-75433898D01*
X130481211Y-75491294D01*
X130481209Y-75491294D01*
X130126793Y-75586260D01*
X129784260Y-75717746D01*
X129457343Y-75884320D01*
X129149635Y-76084147D01*
X128864498Y-76315047D01*
X128864490Y-76315054D01*
X128605054Y-76574490D01*
X128605047Y-76574498D01*
X128374147Y-76859635D01*
X128174320Y-77167343D01*
X128007746Y-77494260D01*
X127876260Y-77836793D01*
X127781294Y-78191209D01*
X127781294Y-78191211D01*
X127723898Y-78553594D01*
X127704696Y-78919999D01*
X127704696Y-78920000D01*
X114659047Y-78920000D01*
X114546769Y-78736782D01*
X113793076Y-79490475D01*
X113769493Y-79410156D01*
X113691761Y-79289202D01*
X113583100Y-79195048D01*
X113452315Y-79135320D01*
X113442533Y-79133913D01*
X114193216Y-78383229D01*
X114000378Y-78265056D01*
X113779924Y-78173742D01*
X113779927Y-78173742D01*
X113547883Y-78118033D01*
X113310000Y-78099312D01*
X113072116Y-78118033D01*
X112840074Y-78173742D01*
X112619621Y-78265056D01*
X112426782Y-78383229D01*
X113177467Y-79133913D01*
X113167685Y-79135320D01*
X113036900Y-79195048D01*
X112928239Y-79289202D01*
X112850507Y-79410156D01*
X112826923Y-79490476D01*
X112073229Y-78736782D01*
X111955056Y-78929621D01*
X111863742Y-79150074D01*
X111808033Y-79382116D01*
X111789312Y-79620000D01*
X107390170Y-79620000D01*
X107493519Y-79556668D01*
X107675030Y-79401643D01*
X107830055Y-79220132D01*
X107954776Y-79016605D01*
X108046124Y-78796073D01*
X108101848Y-78563966D01*
X108120576Y-78326000D01*
X108101848Y-78088034D01*
X108046124Y-77855927D01*
X107954776Y-77635395D01*
X107830055Y-77431868D01*
X107675030Y-77250357D01*
X107493519Y-77095332D01*
X107289992Y-76970611D01*
X107289991Y-76970610D01*
X107289987Y-76970608D01*
X107069455Y-76879261D01*
X106837349Y-76823538D01*
X106837350Y-76823538D01*
X106599387Y-76804811D01*
X106361423Y-76823538D01*
X106129318Y-76879261D01*
X105908786Y-76970608D01*
X105705254Y-77095332D01*
X105523744Y-77250357D01*
X105368719Y-77431867D01*
X105243995Y-77635399D01*
X105152648Y-77855931D01*
X105096925Y-78088036D01*
X105078198Y-78326000D01*
X91193870Y-78326000D01*
X91263957Y-78150095D01*
X91272997Y-78117538D01*
X91343407Y-77863942D01*
X91363215Y-77792602D01*
X91423239Y-77426473D01*
X91443325Y-77056000D01*
X91423239Y-76685527D01*
X91405035Y-76574490D01*
X91363217Y-76319410D01*
X91363216Y-76319409D01*
X91363215Y-76319398D01*
X91309947Y-76127544D01*
X91263959Y-75961910D01*
X91263958Y-75961908D01*
X91237453Y-75895386D01*
X91174175Y-75736568D01*
X91126634Y-75617248D01*
X91126625Y-75617230D01*
X91110205Y-75586258D01*
X90952843Y-75289442D01*
X90952839Y-75289436D01*
X90952838Y-75289433D01*
X90744634Y-74982356D01*
X90744626Y-74982346D01*
X90504442Y-74699581D01*
X90235085Y-74444433D01*
X90235073Y-74444423D01*
X89939724Y-74219904D01*
X89939707Y-74219892D01*
X89621817Y-74028626D01*
X89621804Y-74028619D01*
X89285098Y-73872842D01*
X89285093Y-73872840D01*
X89285088Y-73872838D01*
X89113704Y-73815092D01*
X88966625Y-73765535D01*
X105078198Y-73765535D01*
X105096925Y-74003498D01*
X105152648Y-74235603D01*
X105243995Y-74456135D01*
X105243997Y-74456139D01*
X105243998Y-74456140D01*
X105368719Y-74659667D01*
X105523744Y-74841178D01*
X105705255Y-74996203D01*
X105908782Y-75120924D01*
X105908784Y-75120924D01*
X105908786Y-75120926D01*
X105984458Y-75152270D01*
X106129314Y-75212272D01*
X106361421Y-75267996D01*
X106599387Y-75286724D01*
X106837353Y-75267996D01*
X107069460Y-75212272D01*
X107289992Y-75120924D01*
X107493519Y-74996203D01*
X107675030Y-74841178D01*
X107830055Y-74659667D01*
X107954776Y-74456140D01*
X108046124Y-74235608D01*
X108101848Y-74003501D01*
X108102280Y-73998007D01*
X191422306Y-73998007D01*
X191442261Y-74302461D01*
X191442262Y-74302471D01*
X191442263Y-74302478D01*
X191442265Y-74302488D01*
X191501789Y-74601738D01*
X191501793Y-74601753D01*
X191599870Y-74890678D01*
X191599879Y-74890699D01*
X191734828Y-75164348D01*
X191848098Y-75333869D01*
X191902105Y-75414696D01*
X191904350Y-75418055D01*
X192105535Y-75647464D01*
X192284681Y-75804570D01*
X192334946Y-75848651D01*
X192427510Y-75910500D01*
X192588651Y-76018171D01*
X192862300Y-76153120D01*
X192862305Y-76153122D01*
X192862317Y-76153128D01*
X193151254Y-76251209D01*
X193450522Y-76310737D01*
X193479763Y-76312653D01*
X193754993Y-76330694D01*
X193755000Y-76330694D01*
X193755007Y-76330694D01*
X193998756Y-76314716D01*
X194059478Y-76310737D01*
X194358746Y-76251209D01*
X194647683Y-76153128D01*
X194921347Y-76018172D01*
X195175054Y-75848651D01*
X195404464Y-75647464D01*
X195605651Y-75418054D01*
X195775172Y-75164347D01*
X195910128Y-74890683D01*
X196008209Y-74601746D01*
X196067737Y-74302478D01*
X196073349Y-74216861D01*
X196087694Y-73998007D01*
X196087694Y-73997992D01*
X196083565Y-73935001D01*
X246939454Y-73935001D01*
X246959613Y-74216866D01*
X247011665Y-74456140D01*
X247019680Y-74492984D01*
X247060243Y-74601738D01*
X247118432Y-74757750D01*
X247118434Y-74757754D01*
X247253855Y-75005758D01*
X247253860Y-75005766D01*
X247423196Y-75231974D01*
X247423212Y-75231992D01*
X247623007Y-75431787D01*
X247623025Y-75431803D01*
X247849233Y-75601139D01*
X247849241Y-75601144D01*
X248097245Y-75736565D01*
X248097249Y-75736567D01*
X248097251Y-75736568D01*
X248362016Y-75835320D01*
X248500077Y-75865353D01*
X248638133Y-75895386D01*
X248638135Y-75895386D01*
X248638139Y-75895387D01*
X248849447Y-75910500D01*
X248990553Y-75910500D01*
X249201861Y-75895387D01*
X249477984Y-75835320D01*
X249742749Y-75736568D01*
X249990764Y-75601141D01*
X250216982Y-75431797D01*
X250416797Y-75231982D01*
X250586141Y-75005764D01*
X250721568Y-74757749D01*
X250820320Y-74492984D01*
X250880387Y-74216861D01*
X250900546Y-73935000D01*
X250898624Y-73908133D01*
X250895754Y-73868000D01*
X250880387Y-73653139D01*
X250876332Y-73634500D01*
X250829901Y-73421059D01*
X250820320Y-73377016D01*
X250721568Y-73112251D01*
X250717772Y-73105300D01*
X250586144Y-72864241D01*
X250586139Y-72864233D01*
X250416803Y-72638025D01*
X250416787Y-72638007D01*
X250216992Y-72438212D01*
X250216974Y-72438196D01*
X249990766Y-72268860D01*
X249990758Y-72268855D01*
X249742754Y-72133434D01*
X249742750Y-72133432D01*
X249641014Y-72095487D01*
X249477984Y-72034680D01*
X249477980Y-72034679D01*
X249477977Y-72034678D01*
X249201866Y-71974613D01*
X248990553Y-71959500D01*
X248849447Y-71959500D01*
X248638133Y-71974613D01*
X248362022Y-72034678D01*
X248362017Y-72034679D01*
X248362016Y-72034680D01*
X248298003Y-72058555D01*
X248097249Y-72133432D01*
X248097245Y-72133434D01*
X247849241Y-72268855D01*
X247849233Y-72268860D01*
X247623025Y-72438196D01*
X247623007Y-72438212D01*
X247423212Y-72638007D01*
X247423196Y-72638025D01*
X247253860Y-72864233D01*
X247253855Y-72864241D01*
X247118434Y-73112245D01*
X247118432Y-73112249D01*
X247019678Y-73377022D01*
X246959613Y-73653133D01*
X246939454Y-73934998D01*
X246939454Y-73935001D01*
X196083565Y-73935001D01*
X196067738Y-73693538D01*
X196067737Y-73693522D01*
X196008209Y-73394254D01*
X195910128Y-73105317D01*
X195775172Y-72831653D01*
X195605651Y-72577946D01*
X195558918Y-72524657D01*
X195404464Y-72348535D01*
X195175055Y-72147350D01*
X195154228Y-72133434D01*
X195090869Y-72091098D01*
X194921348Y-71977828D01*
X194647699Y-71842879D01*
X194647678Y-71842870D01*
X194358753Y-71744793D01*
X194358747Y-71744791D01*
X194358746Y-71744791D01*
X194358744Y-71744790D01*
X194358738Y-71744789D01*
X194059488Y-71685265D01*
X194059478Y-71685263D01*
X194059471Y-71685262D01*
X194059461Y-71685261D01*
X193755007Y-71665306D01*
X193754993Y-71665306D01*
X193450538Y-71685261D01*
X193450526Y-71685262D01*
X193450522Y-71685263D01*
X193450514Y-71685264D01*
X193450511Y-71685265D01*
X193151261Y-71744789D01*
X193151246Y-71744793D01*
X192862321Y-71842870D01*
X192862300Y-71842879D01*
X192588651Y-71977828D01*
X192334944Y-72147350D01*
X192105535Y-72348535D01*
X191904350Y-72577944D01*
X191734828Y-72831651D01*
X191599879Y-73105300D01*
X191599870Y-73105321D01*
X191501793Y-73394246D01*
X191501789Y-73394261D01*
X191442265Y-73693511D01*
X191442261Y-73693538D01*
X191422306Y-73997992D01*
X191422306Y-73998007D01*
X108102280Y-73998007D01*
X108120576Y-73765535D01*
X108101848Y-73527569D01*
X108046124Y-73295462D01*
X107984906Y-73147669D01*
X152601117Y-73147669D01*
X152639816Y-73329741D01*
X152639818Y-73329747D01*
X152715527Y-73499788D01*
X152715526Y-73499788D01*
X152715527Y-73499789D01*
X152824937Y-73650379D01*
X152824938Y-73650380D01*
X152824939Y-73650381D01*
X152824941Y-73650384D01*
X152909086Y-73726147D01*
X152963266Y-73774931D01*
X153124468Y-73868001D01*
X153124470Y-73868001D01*
X153124473Y-73868003D01*
X153212982Y-73896761D01*
X153301497Y-73925521D01*
X153440206Y-73940100D01*
X153440211Y-73940100D01*
X153533023Y-73940100D01*
X153533028Y-73940100D01*
X153671737Y-73925521D01*
X153848766Y-73868001D01*
X154009968Y-73774931D01*
X154145232Y-73653139D01*
X154148292Y-73650384D01*
X154148292Y-73650382D01*
X154148297Y-73650379D01*
X154257707Y-73499789D01*
X154333417Y-73329742D01*
X154372117Y-73147670D01*
X154372117Y-73147669D01*
X161601099Y-73147669D01*
X161639798Y-73329741D01*
X161639800Y-73329747D01*
X161715509Y-73499788D01*
X161715508Y-73499788D01*
X161715509Y-73499789D01*
X161824919Y-73650379D01*
X161824920Y-73650380D01*
X161824921Y-73650381D01*
X161824923Y-73650384D01*
X161909068Y-73726147D01*
X161963248Y-73774931D01*
X162124450Y-73868001D01*
X162124452Y-73868001D01*
X162124455Y-73868003D01*
X162212964Y-73896761D01*
X162301479Y-73925521D01*
X162440188Y-73940100D01*
X162440193Y-73940100D01*
X162533005Y-73940100D01*
X162533010Y-73940100D01*
X162671719Y-73925521D01*
X162848748Y-73868001D01*
X163009950Y-73774931D01*
X163145214Y-73653139D01*
X163148274Y-73650384D01*
X163148274Y-73650382D01*
X163148279Y-73650379D01*
X163257689Y-73499789D01*
X163333399Y-73329742D01*
X163372099Y-73147670D01*
X163372099Y-72961530D01*
X163333399Y-72779458D01*
X163333397Y-72779452D01*
X163302985Y-72711147D01*
X163257689Y-72609411D01*
X163148279Y-72458821D01*
X163148276Y-72458818D01*
X163148274Y-72458815D01*
X163058135Y-72377655D01*
X163009950Y-72334269D01*
X162848748Y-72241199D01*
X162848742Y-72241196D01*
X162671723Y-72183680D01*
X162671721Y-72183679D01*
X162632087Y-72179513D01*
X162533010Y-72169100D01*
X162440188Y-72169100D01*
X162353494Y-72178211D01*
X162301476Y-72183679D01*
X162301474Y-72183680D01*
X162124455Y-72241196D01*
X162124449Y-72241199D01*
X161963249Y-72334268D01*
X161824923Y-72458815D01*
X161824921Y-72458818D01*
X161715508Y-72609411D01*
X161639800Y-72779452D01*
X161639798Y-72779458D01*
X161601099Y-72961530D01*
X161601099Y-73147669D01*
X154372117Y-73147669D01*
X154372117Y-72961530D01*
X154333417Y-72779458D01*
X154333415Y-72779452D01*
X154303003Y-72711147D01*
X154257707Y-72609411D01*
X154148297Y-72458821D01*
X154148294Y-72458818D01*
X154148292Y-72458815D01*
X154058153Y-72377655D01*
X154009968Y-72334269D01*
X153848766Y-72241199D01*
X153848760Y-72241196D01*
X153671741Y-72183680D01*
X153671739Y-72183679D01*
X153632105Y-72179513D01*
X153533028Y-72169100D01*
X153440206Y-72169100D01*
X153353512Y-72178211D01*
X153301494Y-72183679D01*
X153301492Y-72183680D01*
X153124473Y-72241196D01*
X153124467Y-72241199D01*
X152963267Y-72334268D01*
X152824941Y-72458815D01*
X152824939Y-72458818D01*
X152715526Y-72609411D01*
X152639818Y-72779452D01*
X152639816Y-72779458D01*
X152601117Y-72961530D01*
X152601117Y-73147669D01*
X107984906Y-73147669D01*
X107970234Y-73112249D01*
X107954778Y-73074934D01*
X107885284Y-72961530D01*
X107830055Y-72871403D01*
X107675030Y-72689892D01*
X107493519Y-72534867D01*
X107289992Y-72410146D01*
X107289991Y-72410145D01*
X107289987Y-72410143D01*
X107069455Y-72318796D01*
X106837349Y-72263073D01*
X106837350Y-72263073D01*
X106599387Y-72244346D01*
X106361423Y-72263073D01*
X106129318Y-72318796D01*
X105908786Y-72410143D01*
X105705254Y-72534867D01*
X105523744Y-72689892D01*
X105368719Y-72871402D01*
X105243995Y-73074934D01*
X105152648Y-73295466D01*
X105096925Y-73527571D01*
X105078198Y-73765535D01*
X88966625Y-73765535D01*
X88933492Y-73754371D01*
X88571148Y-73674613D01*
X88202309Y-73634500D01*
X88202308Y-73634500D01*
X87831292Y-73634500D01*
X87831290Y-73634500D01*
X87462451Y-73674613D01*
X87100107Y-73754371D01*
X86828318Y-73845948D01*
X86748512Y-73872838D01*
X86748509Y-73872839D01*
X86748501Y-73872842D01*
X86411795Y-74028619D01*
X86411782Y-74028626D01*
X86093892Y-74219892D01*
X86093875Y-74219904D01*
X85798526Y-74444423D01*
X85798514Y-74444433D01*
X85529157Y-74699581D01*
X85288973Y-74982346D01*
X85288965Y-74982356D01*
X85080761Y-75289433D01*
X85080760Y-75289436D01*
X84906974Y-75617230D01*
X84906965Y-75617248D01*
X84769641Y-75961908D01*
X84769640Y-75961910D01*
X84670387Y-76319389D01*
X84670382Y-76319410D01*
X84610362Y-76685512D01*
X84610361Y-76685529D01*
X84594905Y-76970611D01*
X84590275Y-77056000D01*
X45458298Y-77056000D01*
X45458298Y-76282562D01*
X45451890Y-76222951D01*
X45401595Y-76088103D01*
X45401594Y-76088102D01*
X45401592Y-76088098D01*
X45315346Y-75972889D01*
X45315343Y-75972886D01*
X45200134Y-75886640D01*
X45200127Y-75886636D01*
X45065281Y-75836342D01*
X45065282Y-75836342D01*
X45005682Y-75829935D01*
X45005680Y-75829934D01*
X45005672Y-75829934D01*
X45005663Y-75829934D01*
X42109928Y-75829934D01*
X42109922Y-75829935D01*
X42050315Y-75836342D01*
X41915470Y-75886636D01*
X41915463Y-75886640D01*
X41800254Y-75972886D01*
X41800251Y-75972889D01*
X41714005Y-76088098D01*
X41714001Y-76088105D01*
X41663707Y-76222951D01*
X41657300Y-76282550D01*
X41657300Y-76282557D01*
X41657299Y-76282569D01*
X41657299Y-79178304D01*
X40594990Y-79178304D01*
X40605542Y-79170405D01*
X40797771Y-78978176D01*
X40960687Y-78760547D01*
X41068030Y-78563963D01*
X41090969Y-78521953D01*
X41090969Y-78521951D01*
X41090972Y-78521947D01*
X41185975Y-78267235D01*
X41243761Y-78001594D01*
X41263155Y-77730434D01*
X41243761Y-77459274D01*
X41185975Y-77193633D01*
X41090972Y-76938921D01*
X41090970Y-76938918D01*
X41090969Y-76938914D01*
X40960690Y-76700326D01*
X40960689Y-76700325D01*
X40960687Y-76700321D01*
X40797771Y-76482692D01*
X40797766Y-76482687D01*
X40797761Y-76482681D01*
X40605552Y-76290472D01*
X40605546Y-76290467D01*
X40605542Y-76290463D01*
X40387913Y-76127547D01*
X40387908Y-76127544D01*
X40387907Y-76127543D01*
X40149318Y-75997264D01*
X40149319Y-75997264D01*
X40099720Y-75978764D01*
X39894601Y-75902259D01*
X39894594Y-75902257D01*
X39894593Y-75902257D01*
X39628967Y-75844474D01*
X39628960Y-75844473D01*
X39357801Y-75825079D01*
X39357799Y-75825079D01*
X39086639Y-75844473D01*
X39086632Y-75844474D01*
X38821006Y-75902257D01*
X38821002Y-75902258D01*
X38820999Y-75902259D01*
X38693643Y-75949760D01*
X38566280Y-75997264D01*
X38327692Y-76127543D01*
X38327691Y-76127544D01*
X38110059Y-76290462D01*
X38110047Y-76290472D01*
X37917838Y-76482681D01*
X37917828Y-76482693D01*
X37754910Y-76700325D01*
X37754909Y-76700326D01*
X37624630Y-76938914D01*
X37612809Y-76970608D01*
X37529625Y-77193633D01*
X37529624Y-77193636D01*
X37529623Y-77193640D01*
X37471840Y-77459266D01*
X37471839Y-77459273D01*
X37452445Y-77730432D01*
X37452445Y-77730435D01*
X22860000Y-77730435D01*
X22860000Y-73161623D01*
X37416300Y-73161623D01*
X37436474Y-73295462D01*
X37455404Y-73421051D01*
X37455405Y-73421053D01*
X37455406Y-73421059D01*
X37532738Y-73671762D01*
X37646567Y-73908132D01*
X37646568Y-73908133D01*
X37646570Y-73908136D01*
X37646572Y-73908140D01*
X37728717Y-74028624D01*
X37794367Y-74124915D01*
X37972814Y-74317237D01*
X37972818Y-74317240D01*
X37972819Y-74317241D01*
X38177943Y-74480822D01*
X38405157Y-74612004D01*
X38649384Y-74707856D01*
X38905170Y-74766238D01*
X38905176Y-74766238D01*
X38905179Y-74766239D01*
X39101300Y-74780936D01*
X39101306Y-74780936D01*
X39232300Y-74780936D01*
X39428420Y-74766239D01*
X39428422Y-74766238D01*
X39428430Y-74766238D01*
X39684216Y-74707856D01*
X39928443Y-74612004D01*
X40155657Y-74480822D01*
X40360781Y-74317241D01*
X40539233Y-74124915D01*
X40687028Y-73908140D01*
X40800863Y-73671759D01*
X40878196Y-73421051D01*
X40917300Y-73161618D01*
X40917300Y-72899254D01*
X40878196Y-72639821D01*
X40800863Y-72389113D01*
X40774451Y-72334268D01*
X40687032Y-72152739D01*
X40687031Y-72152738D01*
X40687030Y-72152737D01*
X40687028Y-72152732D01*
X40539233Y-71935957D01*
X40508167Y-71902476D01*
X40360785Y-71743634D01*
X40281216Y-71680180D01*
X40155657Y-71580050D01*
X39928443Y-71448868D01*
X39684216Y-71353016D01*
X39684211Y-71353014D01*
X39684202Y-71353012D01*
X39466618Y-71303350D01*
X39428430Y-71294634D01*
X39428429Y-71294633D01*
X39428425Y-71294633D01*
X39428420Y-71294632D01*
X39232300Y-71279936D01*
X39232294Y-71279936D01*
X39101306Y-71279936D01*
X39101300Y-71279936D01*
X38905179Y-71294632D01*
X38905174Y-71294633D01*
X38649397Y-71353012D01*
X38649378Y-71353018D01*
X38405156Y-71448868D01*
X38177943Y-71580050D01*
X37972814Y-71743634D01*
X37794367Y-71935956D01*
X37646568Y-72152738D01*
X37646567Y-72152739D01*
X37532738Y-72389109D01*
X37455406Y-72639812D01*
X37455405Y-72639817D01*
X37455404Y-72639821D01*
X37455198Y-72641188D01*
X37416300Y-72899248D01*
X37416300Y-73161623D01*
X22860000Y-73161623D01*
X22860000Y-70781363D01*
X26593787Y-70781363D01*
X26623413Y-71050613D01*
X26623415Y-71050624D01*
X26687208Y-71294634D01*
X26691928Y-71312688D01*
X26797870Y-71561990D01*
X26938979Y-71793205D01*
X26938986Y-71793215D01*
X27112253Y-72001419D01*
X27112259Y-72001424D01*
X27218852Y-72096931D01*
X27313998Y-72182182D01*
X27539910Y-72331644D01*
X27785176Y-72446620D01*
X27785183Y-72446622D01*
X27785185Y-72446623D01*
X28044557Y-72524657D01*
X28044564Y-72524658D01*
X28044569Y-72524660D01*
X28312561Y-72564100D01*
X28312566Y-72564100D01*
X28515636Y-72564100D01*
X28567133Y-72560330D01*
X28718156Y-72549277D01*
X28830758Y-72524193D01*
X28982546Y-72490382D01*
X28982548Y-72490381D01*
X28982553Y-72490380D01*
X29235558Y-72393614D01*
X29471777Y-72261041D01*
X29686177Y-72095488D01*
X29874186Y-71900481D01*
X30031799Y-71680179D01*
X30110371Y-71527355D01*
X30155649Y-71439290D01*
X30155651Y-71439284D01*
X30155656Y-71439275D01*
X30243118Y-71182905D01*
X30254737Y-71120000D01*
X111788811Y-71120000D01*
X111807538Y-71357963D01*
X111863261Y-71590068D01*
X111954608Y-71810600D01*
X111954610Y-71810604D01*
X111954611Y-71810605D01*
X112079332Y-72014132D01*
X112234357Y-72195643D01*
X112415868Y-72350668D01*
X112619395Y-72475389D01*
X112619397Y-72475389D01*
X112619399Y-72475391D01*
X112655586Y-72490380D01*
X112839927Y-72566737D01*
X113072034Y-72622461D01*
X113310000Y-72641189D01*
X113547966Y-72622461D01*
X113780073Y-72566737D01*
X114000605Y-72475389D01*
X114204132Y-72350668D01*
X114385643Y-72195643D01*
X114540668Y-72014132D01*
X114665389Y-71810605D01*
X114756737Y-71590073D01*
X114812461Y-71357966D01*
X114831189Y-71120000D01*
X146788811Y-71120000D01*
X146807538Y-71357963D01*
X146863261Y-71590068D01*
X146954608Y-71810600D01*
X146954610Y-71810604D01*
X146954611Y-71810605D01*
X147079332Y-72014132D01*
X147234357Y-72195643D01*
X147415868Y-72350668D01*
X147619395Y-72475389D01*
X147619397Y-72475389D01*
X147619399Y-72475391D01*
X147655586Y-72490380D01*
X147839927Y-72566737D01*
X148072034Y-72622461D01*
X148310000Y-72641189D01*
X148547966Y-72622461D01*
X148780073Y-72566737D01*
X149000605Y-72475389D01*
X149204132Y-72350668D01*
X149385643Y-72195643D01*
X149540668Y-72014132D01*
X149665389Y-71810605D01*
X149756737Y-71590073D01*
X149812461Y-71357966D01*
X149831189Y-71120000D01*
X149829190Y-71094601D01*
X155221286Y-71094601D01*
X155240508Y-71314314D01*
X155240510Y-71314324D01*
X155297591Y-71527355D01*
X155297596Y-71527369D01*
X155390804Y-71727254D01*
X155390808Y-71727262D01*
X155517313Y-71907930D01*
X155673270Y-72063887D01*
X155853938Y-72190392D01*
X155853940Y-72190393D01*
X155853943Y-72190395D01*
X155900591Y-72212147D01*
X156053831Y-72283604D01*
X156053833Y-72283604D01*
X156053838Y-72283607D01*
X156266881Y-72340692D01*
X156423823Y-72354422D01*
X156486599Y-72359915D01*
X156486601Y-72359915D01*
X156486603Y-72359915D01*
X156541660Y-72355098D01*
X156706321Y-72340692D01*
X156919364Y-72283607D01*
X157119259Y-72190395D01*
X157299930Y-72063888D01*
X157455889Y-71907929D01*
X157459711Y-71902470D01*
X158226100Y-71902470D01*
X158226101Y-71902476D01*
X158232508Y-71962083D01*
X158282802Y-72096928D01*
X158282806Y-72096935D01*
X158369052Y-72212144D01*
X158369055Y-72212147D01*
X158484264Y-72298393D01*
X158484271Y-72298397D01*
X158619117Y-72348691D01*
X158619116Y-72348691D01*
X158626044Y-72349435D01*
X158678727Y-72355100D01*
X160294472Y-72355099D01*
X160354083Y-72348691D01*
X160488931Y-72298396D01*
X160604146Y-72212146D01*
X160690396Y-72096931D01*
X160740691Y-71962083D01*
X160747100Y-71902473D01*
X160747099Y-70781363D01*
X267995387Y-70781363D01*
X268025013Y-71050613D01*
X268025015Y-71050624D01*
X268088808Y-71294634D01*
X268093528Y-71312688D01*
X268199470Y-71561990D01*
X268340579Y-71793205D01*
X268340586Y-71793215D01*
X268513853Y-72001419D01*
X268513859Y-72001424D01*
X268620452Y-72096931D01*
X268715598Y-72182182D01*
X268941510Y-72331644D01*
X269186776Y-72446620D01*
X269186783Y-72446622D01*
X269186785Y-72446623D01*
X269446157Y-72524657D01*
X269446164Y-72524658D01*
X269446169Y-72524660D01*
X269714161Y-72564100D01*
X269714166Y-72564100D01*
X269917236Y-72564100D01*
X269968733Y-72560330D01*
X270119756Y-72549277D01*
X270232358Y-72524193D01*
X270384146Y-72490382D01*
X270384148Y-72490381D01*
X270384153Y-72490380D01*
X270637158Y-72393614D01*
X270873377Y-72261041D01*
X271087777Y-72095488D01*
X271275786Y-71900481D01*
X271433399Y-71680179D01*
X271511971Y-71527355D01*
X271557249Y-71439290D01*
X271557251Y-71439284D01*
X271557256Y-71439275D01*
X271644718Y-71182905D01*
X271693919Y-70916533D01*
X271703812Y-70645835D01*
X271674186Y-70376582D01*
X271605672Y-70114512D01*
X271499730Y-69865210D01*
X271358618Y-69633990D01*
X271357445Y-69632581D01*
X271185346Y-69425780D01*
X271185340Y-69425775D01*
X270983602Y-69245018D01*
X270757692Y-69095557D01*
X270757690Y-69095556D01*
X270512424Y-68980580D01*
X270512419Y-68980578D01*
X270512414Y-68980576D01*
X270253042Y-68902542D01*
X270253028Y-68902539D01*
X270137391Y-68885521D01*
X269985039Y-68863100D01*
X269781969Y-68863100D01*
X269781964Y-68863100D01*
X269579444Y-68877923D01*
X269579431Y-68877925D01*
X269315053Y-68936817D01*
X269315046Y-68936820D01*
X269062039Y-69033587D01*
X268825826Y-69166157D01*
X268611422Y-69331712D01*
X268423422Y-69526709D01*
X268423416Y-69526716D01*
X268265802Y-69747019D01*
X268265799Y-69747024D01*
X268141950Y-69987909D01*
X268141943Y-69987927D01*
X268054484Y-70244285D01*
X268054481Y-70244299D01*
X268005281Y-70510668D01*
X268005280Y-70510675D01*
X267995387Y-70781363D01*
X160747099Y-70781363D01*
X160747099Y-70286728D01*
X160740691Y-70227117D01*
X160740225Y-70225868D01*
X160690397Y-70092271D01*
X160690393Y-70092264D01*
X160604147Y-69977055D01*
X160604144Y-69977052D01*
X160488935Y-69890806D01*
X160488928Y-69890802D01*
X160354082Y-69840508D01*
X160354083Y-69840508D01*
X160294483Y-69834101D01*
X160294481Y-69834100D01*
X160294473Y-69834100D01*
X160294464Y-69834100D01*
X158678729Y-69834100D01*
X158678723Y-69834101D01*
X158619116Y-69840508D01*
X158484271Y-69890802D01*
X158484264Y-69890806D01*
X158369055Y-69977052D01*
X158369052Y-69977055D01*
X158282806Y-70092264D01*
X158282802Y-70092271D01*
X158232508Y-70227117D01*
X158226101Y-70286716D01*
X158226101Y-70286723D01*
X158226100Y-70286735D01*
X158226100Y-71902470D01*
X157459711Y-71902470D01*
X157582396Y-71727258D01*
X157675608Y-71527363D01*
X157732693Y-71314320D01*
X157751916Y-71094600D01*
X157732693Y-70874880D01*
X157675608Y-70661837D01*
X157582396Y-70461943D01*
X157455889Y-70281271D01*
X157455887Y-70281268D01*
X157299931Y-70125312D01*
X157119263Y-69998807D01*
X157119255Y-69998803D01*
X156919370Y-69905595D01*
X156919356Y-69905590D01*
X156706325Y-69848509D01*
X156706323Y-69848508D01*
X156706321Y-69848508D01*
X156706319Y-69848507D01*
X156706315Y-69848507D01*
X156486603Y-69829285D01*
X156486599Y-69829285D01*
X156266886Y-69848507D01*
X156266876Y-69848509D01*
X156053845Y-69905590D01*
X156053836Y-69905594D01*
X155853945Y-69998804D01*
X155853943Y-69998805D01*
X155673269Y-70125313D01*
X155517314Y-70281268D01*
X155390806Y-70461942D01*
X155390805Y-70461944D01*
X155297595Y-70661835D01*
X155297591Y-70661844D01*
X155240510Y-70874875D01*
X155240508Y-70874885D01*
X155221286Y-71094598D01*
X155221286Y-71094601D01*
X149829190Y-71094601D01*
X149812461Y-70882034D01*
X149756737Y-70649927D01*
X149696735Y-70505071D01*
X149665391Y-70429399D01*
X149633027Y-70376586D01*
X149540668Y-70225868D01*
X149385643Y-70044357D01*
X149204132Y-69889332D01*
X149000605Y-69764611D01*
X149000604Y-69764610D01*
X149000600Y-69764608D01*
X148780068Y-69673261D01*
X148547962Y-69617538D01*
X148547963Y-69617538D01*
X148310000Y-69598811D01*
X148072036Y-69617538D01*
X147839931Y-69673261D01*
X147619399Y-69764608D01*
X147415867Y-69889332D01*
X147234357Y-70044357D01*
X147079332Y-70225867D01*
X146954608Y-70429399D01*
X146863261Y-70649931D01*
X146807538Y-70882036D01*
X146788811Y-71120000D01*
X114831189Y-71120000D01*
X114812461Y-70882034D01*
X114756737Y-70649927D01*
X114696735Y-70505071D01*
X114665391Y-70429399D01*
X114633027Y-70376586D01*
X114540668Y-70225868D01*
X114385643Y-70044357D01*
X114204132Y-69889332D01*
X114000605Y-69764611D01*
X114000604Y-69764610D01*
X114000600Y-69764608D01*
X113780068Y-69673261D01*
X113547962Y-69617538D01*
X113547963Y-69617538D01*
X113310000Y-69598811D01*
X113072036Y-69617538D01*
X112839931Y-69673261D01*
X112619399Y-69764608D01*
X112415867Y-69889332D01*
X112234357Y-70044357D01*
X112079332Y-70225867D01*
X111954608Y-70429399D01*
X111863261Y-70649931D01*
X111807538Y-70882036D01*
X111788811Y-71120000D01*
X30254737Y-71120000D01*
X30292319Y-70916533D01*
X30302212Y-70645835D01*
X30272586Y-70376582D01*
X30204072Y-70114512D01*
X30098130Y-69865210D01*
X29957018Y-69633990D01*
X29955845Y-69632581D01*
X29783746Y-69425780D01*
X29783740Y-69425775D01*
X29582002Y-69245018D01*
X29356092Y-69095557D01*
X29356090Y-69095556D01*
X29110824Y-68980580D01*
X29110819Y-68980578D01*
X29110814Y-68980576D01*
X28851442Y-68902542D01*
X28851428Y-68902539D01*
X28735791Y-68885521D01*
X28583439Y-68863100D01*
X28380369Y-68863100D01*
X28380364Y-68863100D01*
X28177844Y-68877923D01*
X28177831Y-68877925D01*
X27913453Y-68936817D01*
X27913446Y-68936820D01*
X27660439Y-69033587D01*
X27424226Y-69166157D01*
X27209822Y-69331712D01*
X27021822Y-69526709D01*
X27021816Y-69526716D01*
X26864202Y-69747019D01*
X26864199Y-69747024D01*
X26740350Y-69987909D01*
X26740343Y-69987927D01*
X26652884Y-70244285D01*
X26652881Y-70244299D01*
X26603681Y-70510668D01*
X26603680Y-70510675D01*
X26593787Y-70781363D01*
X22860000Y-70781363D01*
X22860000Y-66164000D01*
X22879685Y-66096961D01*
X22932489Y-66051206D01*
X22984000Y-66040000D01*
X276240500Y-66040000D01*
X276307539Y-66059685D01*
G37*
G04 #@! TD.AperFunction*
M02*
