G04 #@! TF.GenerationSoftware,KiCad,Pcbnew,7.0.9*
G04 #@! TF.CreationDate,2024-04-22T21:03:38-07:00*
G04 #@! TF.ProjectId,AVcarrierBoard,41566361-7272-4696-9572-426f6172642e,rev?*
G04 #@! TF.SameCoordinates,Original*
G04 #@! TF.FileFunction,Soldermask,Top*
G04 #@! TF.FilePolarity,Negative*
%FSLAX46Y46*%
G04 Gerber Fmt 4.6, Leading zero omitted, Abs format (unit mm)*
G04 Created by KiCad (PCBNEW 7.0.9) date 2024-04-22 21:03:38*
%MOMM*%
%LPD*%
G01*
G04 APERTURE LIST*
G04 Aperture macros list*
%AMRoundRect*
0 Rectangle with rounded corners*
0 $1 Rounding radius*
0 $2 $3 $4 $5 $6 $7 $8 $9 X,Y pos of 4 corners*
0 Add a 4 corners polygon primitive as box body*
4,1,4,$2,$3,$4,$5,$6,$7,$8,$9,$2,$3,0*
0 Add four circle primitives for the rounded corners*
1,1,$1+$1,$2,$3*
1,1,$1+$1,$4,$5*
1,1,$1+$1,$6,$7*
1,1,$1+$1,$8,$9*
0 Add four rect primitives between the rounded corners*
20,1,$1+$1,$2,$3,$4,$5,0*
20,1,$1+$1,$4,$5,$6,$7,0*
20,1,$1+$1,$6,$7,$8,$9,0*
20,1,$1+$1,$8,$9,$2,$3,0*%
G04 Aperture macros list end*
%ADD10C,6.000000*%
%ADD11C,2.032000*%
%ADD12C,3.200000*%
%ADD13C,1.270000*%
%ADD14R,1.520000X1.520000*%
%ADD15C,1.520000*%
%ADD16RoundRect,0.102000X-0.825000X0.825000X-0.825000X-0.825000X0.825000X-0.825000X0.825000X0.825000X0*%
%ADD17C,1.854000*%
%ADD18R,2.032000X2.032000*%
%ADD19C,2.999999*%
%ADD20R,2.800000X2.800000*%
%ADD21C,2.800000*%
%ADD22C,3.450000*%
%ADD23C,2.390000*%
%ADD24RoundRect,0.102000X-3.670000X-3.175000X3.670000X-3.175000X3.670000X3.175000X-3.670000X3.175000X0*%
%ADD25C,6.560820*%
%ADD26C,3.654400*%
%ADD27C,2.387600*%
%ADD28C,5.842000*%
G04 APERTURE END LIST*
D10*
X131210000Y-78920000D03*
D11*
X148310000Y-71120000D03*
X148310000Y-79620000D03*
X113310000Y-71120000D03*
X113310000Y-79620000D03*
D12*
X171000000Y-93000000D03*
D13*
X153362416Y-93400000D03*
X162362398Y-93400000D03*
D14*
X159362399Y-91440000D03*
D15*
X156362400Y-91440000D03*
D16*
X29464000Y-96723200D03*
D17*
X29464000Y-101803200D03*
X29464000Y-106883200D03*
X29464000Y-111963200D03*
D12*
X48057500Y-98503750D03*
X48057500Y-118823750D03*
X106057500Y-98503750D03*
X106057500Y-118823750D03*
D18*
X117275000Y-108060000D03*
X117275000Y-111520000D03*
X117275000Y-114980000D03*
X117275000Y-118440000D03*
D11*
X36735000Y-114220000D03*
X36735000Y-119300000D03*
D12*
X28448000Y-70713600D03*
X29006800Y-119430800D03*
D19*
X39166800Y-90830400D03*
X39166800Y-73030436D03*
D20*
X43557799Y-77730434D03*
D21*
X43557799Y-81930433D03*
X43557799Y-86130432D03*
X39357800Y-77730434D03*
X39357800Y-81930433D03*
X39357800Y-86130432D03*
D22*
X193720000Y-108945000D03*
X248920000Y-73935000D03*
D23*
X257140000Y-108945000D03*
D24*
X181990000Y-81885000D03*
X260650000Y-81885000D03*
X181990000Y-100995000D03*
X260650000Y-100995000D03*
D16*
X270650000Y-88137500D03*
D17*
X270650000Y-93217500D03*
X270650000Y-98297500D03*
X270650000Y-103377500D03*
D12*
X269595600Y-119430800D03*
D13*
X153486617Y-73054600D03*
X162486599Y-73054600D03*
D14*
X159486600Y-71094600D03*
D15*
X156486601Y-71094600D03*
D12*
X270852000Y-79675000D03*
X269849600Y-70713600D03*
D25*
X194616600Y-117830600D03*
X165673300Y-104876600D03*
D18*
X147372600Y-103860600D03*
X147372600Y-107035600D03*
X147372600Y-110210600D03*
X147372600Y-113385600D03*
X147372600Y-116560600D03*
X147372600Y-119735600D03*
D26*
X249000000Y-90000000D03*
X193755000Y-73998000D03*
D27*
X185525400Y-90000000D03*
D28*
X62616800Y-89756000D03*
X88016800Y-77056000D03*
D11*
X106599387Y-78326000D03*
X106599387Y-73765535D03*
D13*
X162511984Y-83087600D03*
X153512002Y-83087600D03*
D14*
X156512001Y-81127600D03*
D15*
X159512000Y-81127600D03*
M02*
