G04 #@! TF.GenerationSoftware,KiCad,Pcbnew,7.0.9*
G04 #@! TF.CreationDate,2024-04-22T21:03:38-07:00*
G04 #@! TF.ProjectId,AVcarrierBoard,41566361-7272-4696-9572-426f6172642e,rev?*
G04 #@! TF.SameCoordinates,Original*
G04 #@! TF.FileFunction,Copper,L4,Bot*
G04 #@! TF.FilePolarity,Positive*
%FSLAX46Y46*%
G04 Gerber Fmt 4.6, Leading zero omitted, Abs format (unit mm)*
G04 Created by KiCad (PCBNEW 7.0.9) date 2024-04-22 21:03:38*
%MOMM*%
%LPD*%
G01*
G04 APERTURE LIST*
G04 #@! TA.AperFunction,WasherPad*
%ADD10C,6.000000*%
G04 #@! TD*
G04 #@! TA.AperFunction,ComponentPad*
%ADD11C,2.032000*%
G04 #@! TD*
G04 #@! TA.AperFunction,ComponentPad*
%ADD12R,1.520000X1.520000*%
G04 #@! TD*
G04 #@! TA.AperFunction,ComponentPad*
%ADD13C,1.520000*%
G04 #@! TD*
G04 #@! TA.AperFunction,ComponentPad*
%ADD14R,1.650000X1.650000*%
G04 #@! TD*
G04 #@! TA.AperFunction,ComponentPad*
%ADD15C,1.650000*%
G04 #@! TD*
G04 #@! TA.AperFunction,ComponentPad*
%ADD16R,2.032000X2.032000*%
G04 #@! TD*
G04 #@! TA.AperFunction,ComponentPad*
%ADD17R,2.800000X2.800000*%
G04 #@! TD*
G04 #@! TA.AperFunction,ComponentPad*
%ADD18C,2.800000*%
G04 #@! TD*
G04 #@! TA.AperFunction,WasherPad*
%ADD19C,6.560820*%
G04 #@! TD*
G04 #@! TA.AperFunction,ComponentPad*
%ADD20C,3.654400*%
G04 #@! TD*
G04 #@! TA.AperFunction,SMDPad,CuDef*
%ADD21R,7.467600X6.477000*%
G04 #@! TD*
G04 #@! TA.AperFunction,WasherPad*
%ADD22C,5.842000*%
G04 #@! TD*
G04 #@! TA.AperFunction,ViaPad*
%ADD23C,3.000000*%
G04 #@! TD*
G04 #@! TA.AperFunction,Conductor*
%ADD24C,2.500000*%
G04 #@! TD*
G04 APERTURE END LIST*
D10*
X131210000Y-78920000D03*
D11*
X148310000Y-71120000D03*
X148310000Y-79620000D03*
X113310000Y-71120000D03*
X113310000Y-79620000D03*
D12*
X159362399Y-91440000D03*
D13*
X156362400Y-91440000D03*
D14*
X29464000Y-96723200D03*
D15*
X29464000Y-101803200D03*
X29464000Y-106883200D03*
X29464000Y-111963200D03*
D16*
X117275000Y-108060000D03*
X117275000Y-111520000D03*
X117275000Y-114980000D03*
X117275000Y-118440000D03*
D11*
X36735000Y-114220000D03*
X36735000Y-119300000D03*
D17*
X43557799Y-77730434D03*
D18*
X43557799Y-81930433D03*
X43557799Y-86130432D03*
X39357800Y-77730434D03*
X39357800Y-81930433D03*
X39357800Y-86130432D03*
D14*
X270650000Y-88137500D03*
D15*
X270650000Y-93217500D03*
X270650000Y-98297500D03*
X270650000Y-103377500D03*
D12*
X159486600Y-71094600D03*
D13*
X156486601Y-71094600D03*
D19*
X194616600Y-117830600D03*
X165673300Y-104876600D03*
D16*
X147372600Y-103860600D03*
X147372600Y-107035600D03*
X147372600Y-110210600D03*
X147372600Y-113385600D03*
X147372600Y-116560600D03*
X147372600Y-119735600D03*
D20*
X249000000Y-90000000D03*
X193755000Y-73998000D03*
D21*
X261065000Y-81999000D03*
X181690000Y-81999000D03*
D22*
X62616800Y-89756000D03*
X88016800Y-77056000D03*
D11*
X106599387Y-78326000D03*
X106599387Y-73765535D03*
D12*
X156512001Y-81127600D03*
D13*
X159512000Y-81127600D03*
D23*
X251228000Y-80772000D03*
X175869600Y-95046800D03*
X109220000Y-88900000D03*
X173618000Y-77402600D03*
X122453400Y-89230200D03*
D24*
X43557799Y-86130432D02*
X51554367Y-94127000D01*
X113492600Y-94127000D02*
X118389400Y-89230200D01*
X51554367Y-94127000D02*
X113492600Y-94127000D01*
X118389400Y-89230200D02*
X122453400Y-89230200D01*
X270650000Y-88137500D02*
X270512500Y-88000000D01*
X270512500Y-88000000D02*
X267000000Y-88000000D01*
X267000000Y-88000000D02*
X266248800Y-88751200D01*
X266248800Y-88751200D02*
X266248800Y-89000000D01*
X266248800Y-89000000D02*
X256000000Y-89000000D01*
X194797151Y-86000000D02*
X181635551Y-99161600D01*
X256000000Y-89000000D02*
X253000000Y-86000000D01*
X253000000Y-86000000D02*
X194797151Y-86000000D01*
X181635551Y-99161600D02*
X142240000Y-99161600D01*
X142240000Y-99161600D02*
X126421600Y-114980000D01*
X126421600Y-114980000D02*
X117275000Y-114980000D01*
X251228000Y-80772000D02*
X259838000Y-80772000D01*
X259838000Y-80772000D02*
X261065000Y-81999000D01*
X52708233Y-68580000D02*
X43557799Y-77730434D01*
X109220000Y-88900000D02*
X109220000Y-86360000D01*
X91440000Y-68580000D02*
X52708233Y-68580000D01*
X109220000Y-86360000D02*
X91440000Y-68580000D01*
X270650000Y-93217500D02*
X262382500Y-93217500D01*
X262382500Y-93217500D02*
X251460000Y-104140000D01*
X251460000Y-104140000D02*
X180475527Y-104140000D01*
X180475527Y-104140000D02*
X162238327Y-122377200D01*
X121212200Y-122377200D02*
X117275000Y-118440000D01*
X162238327Y-122377200D02*
X121212200Y-122377200D01*
X182000000Y-82000000D02*
X177961400Y-82000000D01*
X177961400Y-82000000D02*
X173618000Y-77656600D01*
X43557799Y-86130432D02*
X39357800Y-81930433D01*
G04 #@! TA.AperFunction,Conductor*
G36*
X276307539Y-66059685D02*
G01*
X276353294Y-66112489D01*
X276364500Y-66164000D01*
X276364500Y-124336000D01*
X276344815Y-124403039D01*
X276292011Y-124448794D01*
X276240500Y-124460000D01*
X22984000Y-124460000D01*
X22916961Y-124440315D01*
X22871206Y-124387511D01*
X22860000Y-124336000D01*
X22860000Y-119498563D01*
X27152587Y-119498563D01*
X27182213Y-119767813D01*
X27182215Y-119767824D01*
X27250726Y-120029882D01*
X27250728Y-120029888D01*
X27356670Y-120279190D01*
X27428798Y-120397375D01*
X27497779Y-120510405D01*
X27497786Y-120510415D01*
X27671053Y-120718619D01*
X27671059Y-120718624D01*
X27832449Y-120863229D01*
X27872798Y-120899382D01*
X28098710Y-121048844D01*
X28343976Y-121163820D01*
X28343983Y-121163822D01*
X28343985Y-121163823D01*
X28603357Y-121241857D01*
X28603364Y-121241858D01*
X28603369Y-121241860D01*
X28871361Y-121281300D01*
X28871366Y-121281300D01*
X29074436Y-121281300D01*
X29125933Y-121277530D01*
X29276956Y-121266477D01*
X29389558Y-121241393D01*
X29541346Y-121207582D01*
X29541348Y-121207581D01*
X29541353Y-121207580D01*
X29794358Y-121110814D01*
X30030577Y-120978241D01*
X30244977Y-120812688D01*
X30432986Y-120617681D01*
X30590599Y-120397379D01*
X30700708Y-120183216D01*
X30714449Y-120156490D01*
X30714451Y-120156484D01*
X30714456Y-120156475D01*
X30801918Y-119900105D01*
X30851119Y-119633733D01*
X30861012Y-119363035D01*
X30854076Y-119300000D01*
X35214312Y-119300000D01*
X35233033Y-119537883D01*
X35288742Y-119769925D01*
X35380056Y-119990378D01*
X35498229Y-120183216D01*
X36251922Y-119429523D01*
X36275507Y-119509844D01*
X36353239Y-119630798D01*
X36461900Y-119724952D01*
X36592685Y-119784680D01*
X36602466Y-119786086D01*
X35851782Y-120536769D01*
X35851782Y-120536770D01*
X36044621Y-120654943D01*
X36265075Y-120746257D01*
X36265072Y-120746257D01*
X36497116Y-120801966D01*
X36735000Y-120820687D01*
X36972883Y-120801966D01*
X37204925Y-120746257D01*
X37425374Y-120654944D01*
X37618216Y-120536769D01*
X36867534Y-119786086D01*
X36877315Y-119784680D01*
X37008100Y-119724952D01*
X37116761Y-119630798D01*
X37194493Y-119509844D01*
X37218076Y-119429523D01*
X37971769Y-120183216D01*
X38089944Y-119990374D01*
X38181257Y-119769925D01*
X38236966Y-119537883D01*
X38255687Y-119300000D01*
X38236966Y-119062116D01*
X38196007Y-118891513D01*
X46203287Y-118891513D01*
X46232913Y-119160763D01*
X46232915Y-119160774D01*
X46285793Y-119363035D01*
X46301428Y-119422838D01*
X46407370Y-119672140D01*
X46546501Y-119900114D01*
X46548479Y-119903355D01*
X46548486Y-119903365D01*
X46721753Y-120111569D01*
X46721759Y-120111574D01*
X46771872Y-120156475D01*
X46923498Y-120292332D01*
X47149410Y-120441794D01*
X47394676Y-120556770D01*
X47394683Y-120556772D01*
X47394685Y-120556773D01*
X47654057Y-120634807D01*
X47654064Y-120634808D01*
X47654069Y-120634810D01*
X47922061Y-120674250D01*
X47922066Y-120674250D01*
X48125136Y-120674250D01*
X48176633Y-120670480D01*
X48327656Y-120659427D01*
X48440258Y-120634343D01*
X48592046Y-120600532D01*
X48592048Y-120600531D01*
X48592053Y-120600530D01*
X48845058Y-120503764D01*
X49081277Y-120371191D01*
X49295677Y-120205638D01*
X49483686Y-120010631D01*
X49641299Y-119790329D01*
X49723319Y-119630798D01*
X49765149Y-119549440D01*
X49765151Y-119549434D01*
X49765156Y-119549425D01*
X49852618Y-119293055D01*
X49901819Y-119026683D01*
X49906759Y-118891513D01*
X104203287Y-118891513D01*
X104232913Y-119160763D01*
X104232915Y-119160774D01*
X104285793Y-119363035D01*
X104301428Y-119422838D01*
X104407370Y-119672140D01*
X104546501Y-119900114D01*
X104548479Y-119903355D01*
X104548486Y-119903365D01*
X104721753Y-120111569D01*
X104721759Y-120111574D01*
X104771872Y-120156475D01*
X104923498Y-120292332D01*
X105149410Y-120441794D01*
X105394676Y-120556770D01*
X105394683Y-120556772D01*
X105394685Y-120556773D01*
X105654057Y-120634807D01*
X105654064Y-120634808D01*
X105654069Y-120634810D01*
X105922061Y-120674250D01*
X105922066Y-120674250D01*
X106125136Y-120674250D01*
X106176633Y-120670480D01*
X106327656Y-120659427D01*
X106440258Y-120634343D01*
X106592046Y-120600532D01*
X106592048Y-120600531D01*
X106592053Y-120600530D01*
X106845058Y-120503764D01*
X107081277Y-120371191D01*
X107295677Y-120205638D01*
X107483686Y-120010631D01*
X107641299Y-119790329D01*
X107723319Y-119630798D01*
X107765149Y-119549440D01*
X107765151Y-119549434D01*
X107765156Y-119549425D01*
X107852618Y-119293055D01*
X107901819Y-119026683D01*
X107911712Y-118755985D01*
X107884166Y-118505635D01*
X115520818Y-118505635D01*
X115550194Y-118766345D01*
X115550194Y-118766349D01*
X115618099Y-119019773D01*
X115723020Y-119260254D01*
X115723021Y-119260255D01*
X115739493Y-119286469D01*
X115758500Y-119352441D01*
X115758500Y-119503869D01*
X115758501Y-119503876D01*
X115764908Y-119563483D01*
X115815202Y-119698328D01*
X115815206Y-119698335D01*
X115901452Y-119813544D01*
X115901455Y-119813547D01*
X116016664Y-119899793D01*
X116016671Y-119899797D01*
X116151516Y-119950091D01*
X116177419Y-119952875D01*
X116211127Y-119956500D01*
X116264555Y-119956499D01*
X116331594Y-119976182D01*
X116352237Y-119992818D01*
X119951270Y-123591851D01*
X120018217Y-123664004D01*
X120095179Y-123725378D01*
X120169800Y-123789596D01*
X120169807Y-123789601D01*
X120194693Y-123805237D01*
X120200370Y-123809265D01*
X120223343Y-123827586D01*
X120308593Y-123876805D01*
X120391954Y-123929184D01*
X120418897Y-123940939D01*
X120425098Y-123944069D01*
X120450557Y-123958768D01*
X120542187Y-123994730D01*
X120632426Y-124034101D01*
X120632427Y-124034101D01*
X120632429Y-124034102D01*
X120660822Y-124041709D01*
X120667430Y-124043883D01*
X120679629Y-124048671D01*
X120694770Y-124054615D01*
X120694774Y-124054616D01*
X120694784Y-124054620D01*
X120790746Y-124076523D01*
X120885850Y-124102006D01*
X120915067Y-124105297D01*
X120921907Y-124106459D01*
X120950570Y-124113002D01*
X120950576Y-124113002D01*
X120950579Y-124113003D01*
X121048729Y-124120357D01*
X121146564Y-124131381D01*
X121244931Y-124127700D01*
X162205596Y-124127700D01*
X162303962Y-124131381D01*
X162303962Y-124131380D01*
X162303963Y-124131381D01*
X162401787Y-124120358D01*
X162499957Y-124113002D01*
X162515994Y-124109341D01*
X162528614Y-124106461D01*
X162535474Y-124105295D01*
X162538369Y-124104968D01*
X162564677Y-124102005D01*
X162628063Y-124085020D01*
X162659758Y-124076528D01*
X162755735Y-124054622D01*
X162755736Y-124054621D01*
X162755743Y-124054620D01*
X162783117Y-124043875D01*
X162789699Y-124041709D01*
X162818102Y-124034100D01*
X162908326Y-123994735D01*
X162999970Y-123958768D01*
X163025446Y-123944057D01*
X163031614Y-123940944D01*
X163058574Y-123929183D01*
X163141929Y-123876807D01*
X163227184Y-123827586D01*
X163250172Y-123809252D01*
X163255819Y-123805245D01*
X163280724Y-123789598D01*
X163355347Y-123725378D01*
X163432296Y-123664015D01*
X163432298Y-123664012D01*
X163432308Y-123664005D01*
X163499256Y-123591851D01*
X169260507Y-117830600D01*
X190830831Y-117830600D01*
X190850254Y-118213600D01*
X190894993Y-118505636D01*
X190908326Y-118592670D01*
X190953295Y-118766350D01*
X191004451Y-118963928D01*
X191137634Y-119323531D01*
X191137640Y-119323544D01*
X191306525Y-119667840D01*
X191306530Y-119667849D01*
X191509379Y-119993289D01*
X191730681Y-120279189D01*
X191744117Y-120296546D01*
X191947405Y-120510405D01*
X192008330Y-120574498D01*
X192299305Y-120824292D01*
X192299308Y-120824294D01*
X192614064Y-121043371D01*
X192909915Y-121207582D01*
X192949373Y-121229483D01*
X193035573Y-121266474D01*
X193301783Y-121380713D01*
X193301786Y-121380714D01*
X193301791Y-121380716D01*
X193667676Y-121495513D01*
X193667679Y-121495513D01*
X193667687Y-121495516D01*
X194043329Y-121572713D01*
X194348549Y-121603750D01*
X194424853Y-121611510D01*
X194424854Y-121611510D01*
X194808347Y-121611510D01*
X194871933Y-121605043D01*
X195189871Y-121572713D01*
X195565513Y-121495516D01*
X195565523Y-121495513D01*
X195931408Y-121380716D01*
X195931409Y-121380715D01*
X195931417Y-121380713D01*
X196283831Y-121229481D01*
X196619136Y-121043371D01*
X196933892Y-120824294D01*
X197224870Y-120574498D01*
X197489083Y-120296546D01*
X197723821Y-119993289D01*
X197926674Y-119667841D01*
X198009709Y-119498563D01*
X267741387Y-119498563D01*
X267771013Y-119767813D01*
X267771015Y-119767824D01*
X267839526Y-120029882D01*
X267839528Y-120029888D01*
X267945470Y-120279190D01*
X268017598Y-120397375D01*
X268086579Y-120510405D01*
X268086586Y-120510415D01*
X268259853Y-120718619D01*
X268259859Y-120718624D01*
X268421249Y-120863229D01*
X268461598Y-120899382D01*
X268687510Y-121048844D01*
X268932776Y-121163820D01*
X268932783Y-121163822D01*
X268932785Y-121163823D01*
X269192157Y-121241857D01*
X269192164Y-121241858D01*
X269192169Y-121241860D01*
X269460161Y-121281300D01*
X269460166Y-121281300D01*
X269663236Y-121281300D01*
X269714733Y-121277530D01*
X269865756Y-121266477D01*
X269978358Y-121241393D01*
X270130146Y-121207582D01*
X270130148Y-121207581D01*
X270130153Y-121207580D01*
X270383158Y-121110814D01*
X270619377Y-120978241D01*
X270833777Y-120812688D01*
X271021786Y-120617681D01*
X271179399Y-120397379D01*
X271289508Y-120183216D01*
X271303249Y-120156490D01*
X271303251Y-120156484D01*
X271303256Y-120156475D01*
X271390718Y-119900105D01*
X271439919Y-119633733D01*
X271449812Y-119363035D01*
X271420186Y-119093782D01*
X271351672Y-118831712D01*
X271245730Y-118582410D01*
X271104618Y-118351190D01*
X271103445Y-118349781D01*
X270931346Y-118142980D01*
X270931340Y-118142975D01*
X270729602Y-117962218D01*
X270503692Y-117812757D01*
X270432347Y-117779312D01*
X270258424Y-117697780D01*
X270258419Y-117697778D01*
X270258414Y-117697776D01*
X269999042Y-117619742D01*
X269999028Y-117619739D01*
X269883391Y-117602721D01*
X269731039Y-117580300D01*
X269527969Y-117580300D01*
X269527964Y-117580300D01*
X269325444Y-117595123D01*
X269325431Y-117595125D01*
X269061053Y-117654017D01*
X269061046Y-117654020D01*
X268808039Y-117750787D01*
X268571826Y-117883357D01*
X268357422Y-118048912D01*
X268169422Y-118243909D01*
X268169416Y-118243916D01*
X268011802Y-118464219D01*
X268011799Y-118464224D01*
X267887950Y-118705109D01*
X267887943Y-118705127D01*
X267800484Y-118961485D01*
X267800481Y-118961499D01*
X267751281Y-119227868D01*
X267751280Y-119227875D01*
X267741387Y-119498563D01*
X198009709Y-119498563D01*
X198095562Y-119323540D01*
X198228751Y-118963920D01*
X198324874Y-118592670D01*
X198382945Y-118213600D01*
X198402369Y-117830600D01*
X198382945Y-117447600D01*
X198324874Y-117068530D01*
X198228751Y-116697280D01*
X198222102Y-116679328D01*
X198095565Y-116337668D01*
X198095564Y-116337667D01*
X198095562Y-116337660D01*
X197926674Y-115993359D01*
X197926669Y-115993350D01*
X197723820Y-115667910D01*
X197489087Y-115364659D01*
X197489086Y-115364658D01*
X197489083Y-115364654D01*
X197224870Y-115086702D01*
X197175245Y-115044100D01*
X196933894Y-114836907D01*
X196656643Y-114643935D01*
X196619136Y-114617829D01*
X196331119Y-114457966D01*
X196283826Y-114431716D01*
X195931408Y-114280483D01*
X195565523Y-114165686D01*
X195565517Y-114165685D01*
X195565514Y-114165684D01*
X195565513Y-114165684D01*
X195189871Y-114088487D01*
X195189870Y-114088486D01*
X195189866Y-114088486D01*
X194808347Y-114049690D01*
X194808346Y-114049690D01*
X194424854Y-114049690D01*
X194424853Y-114049690D01*
X194043333Y-114088486D01*
X193667682Y-114165685D01*
X193667676Y-114165686D01*
X193301791Y-114280483D01*
X192949373Y-114431716D01*
X192614062Y-114617830D01*
X192299305Y-114836907D01*
X192008330Y-115086701D01*
X191744112Y-115364659D01*
X191509379Y-115667910D01*
X191306530Y-115993350D01*
X191306525Y-115993359D01*
X191137640Y-116337655D01*
X191137634Y-116337668D01*
X191004451Y-116697271D01*
X190908325Y-117068534D01*
X190850254Y-117447599D01*
X190830831Y-117830600D01*
X169260507Y-117830600D01*
X178146107Y-108945001D01*
X191739454Y-108945001D01*
X191759613Y-109226866D01*
X191819678Y-109502977D01*
X191819680Y-109502984D01*
X191847100Y-109576499D01*
X191918432Y-109767750D01*
X191918434Y-109767754D01*
X192053855Y-110015758D01*
X192053860Y-110015766D01*
X192223196Y-110241974D01*
X192223212Y-110241992D01*
X192423007Y-110441787D01*
X192423025Y-110441803D01*
X192649233Y-110611139D01*
X192649241Y-110611144D01*
X192897245Y-110746565D01*
X192897249Y-110746567D01*
X192897251Y-110746568D01*
X193162016Y-110845320D01*
X193300077Y-110875353D01*
X193438133Y-110905386D01*
X193438135Y-110905386D01*
X193438139Y-110905387D01*
X193649447Y-110920500D01*
X193790553Y-110920500D01*
X194001861Y-110905387D01*
X194277984Y-110845320D01*
X194542749Y-110746568D01*
X194790764Y-110611141D01*
X195016982Y-110441797D01*
X195216797Y-110241982D01*
X195386141Y-110015764D01*
X195521568Y-109767749D01*
X195620320Y-109502984D01*
X195680387Y-109226861D01*
X195691979Y-109064778D01*
X255694500Y-109064778D01*
X255714215Y-109182921D01*
X255733930Y-109301067D01*
X255811711Y-109527637D01*
X255811713Y-109527642D01*
X255925730Y-109738325D01*
X255925734Y-109738331D01*
X256049918Y-109897882D01*
X256072866Y-109927366D01*
X256249113Y-110089612D01*
X256449660Y-110220636D01*
X256669038Y-110316864D01*
X256901263Y-110375672D01*
X257080213Y-110390500D01*
X257080215Y-110390500D01*
X257199785Y-110390500D01*
X257199787Y-110390500D01*
X257378737Y-110375672D01*
X257610962Y-110316864D01*
X257830340Y-110220636D01*
X258030887Y-110089612D01*
X258207134Y-109927366D01*
X258354271Y-109738323D01*
X258468287Y-109527641D01*
X258546070Y-109301065D01*
X258585500Y-109064778D01*
X258585500Y-108825222D01*
X258546070Y-108588935D01*
X258529790Y-108541514D01*
X258468288Y-108362362D01*
X258468286Y-108362357D01*
X258376931Y-108193549D01*
X258354271Y-108151677D01*
X258354269Y-108151674D01*
X258354265Y-108151668D01*
X258207139Y-107962641D01*
X258207134Y-107962634D01*
X258030887Y-107800388D01*
X258030884Y-107800386D01*
X258030883Y-107800385D01*
X257936113Y-107738469D01*
X257830340Y-107669364D01*
X257830337Y-107669362D01*
X257830336Y-107669362D01*
X257610963Y-107573136D01*
X257378737Y-107514328D01*
X257378740Y-107514328D01*
X257271367Y-107505431D01*
X257199787Y-107499500D01*
X257080213Y-107499500D01*
X257008633Y-107505431D01*
X256901260Y-107514328D01*
X256669036Y-107573136D01*
X256449663Y-107669362D01*
X256249116Y-107800385D01*
X256072869Y-107962631D01*
X256072860Y-107962641D01*
X255925734Y-108151668D01*
X255925730Y-108151674D01*
X255811713Y-108362357D01*
X255811711Y-108362362D01*
X255733930Y-108588932D01*
X255715828Y-108697412D01*
X255694500Y-108825222D01*
X255694500Y-109064778D01*
X195691979Y-109064778D01*
X195700026Y-108952269D01*
X195700546Y-108945001D01*
X195700546Y-108944998D01*
X195692826Y-108837055D01*
X195680387Y-108663139D01*
X195679162Y-108657510D01*
X195628956Y-108426716D01*
X195620320Y-108387016D01*
X195521568Y-108122251D01*
X195509125Y-108099464D01*
X195386144Y-107874241D01*
X195386139Y-107874233D01*
X195216803Y-107648025D01*
X195216787Y-107648007D01*
X195016992Y-107448212D01*
X195016974Y-107448196D01*
X194790766Y-107278860D01*
X194790758Y-107278855D01*
X194542754Y-107143434D01*
X194542750Y-107143432D01*
X194442372Y-107105993D01*
X194277984Y-107044680D01*
X194277980Y-107044679D01*
X194277977Y-107044678D01*
X194001866Y-106984613D01*
X193790553Y-106969500D01*
X193649447Y-106969500D01*
X193438133Y-106984613D01*
X193162022Y-107044678D01*
X193162017Y-107044679D01*
X193162016Y-107044680D01*
X193098003Y-107068555D01*
X192897249Y-107143432D01*
X192897245Y-107143434D01*
X192649241Y-107278855D01*
X192649233Y-107278860D01*
X192423025Y-107448196D01*
X192423007Y-107448212D01*
X192223212Y-107648007D01*
X192223196Y-107648025D01*
X192053860Y-107874233D01*
X192053855Y-107874241D01*
X191918434Y-108122245D01*
X191918432Y-108122249D01*
X191854400Y-108293928D01*
X191828876Y-108362362D01*
X191819678Y-108387022D01*
X191759613Y-108663133D01*
X191739454Y-108944998D01*
X191739454Y-108945001D01*
X178146107Y-108945001D01*
X181164289Y-105926819D01*
X181225612Y-105893334D01*
X181251970Y-105890500D01*
X251427269Y-105890500D01*
X251525635Y-105894181D01*
X251525635Y-105894180D01*
X251525636Y-105894181D01*
X251623460Y-105883158D01*
X251721630Y-105875802D01*
X251737667Y-105872141D01*
X251750287Y-105869261D01*
X251757147Y-105868095D01*
X251760042Y-105867768D01*
X251786350Y-105864805D01*
X251849736Y-105847820D01*
X251881431Y-105839328D01*
X251977408Y-105817422D01*
X251977409Y-105817421D01*
X251977416Y-105817420D01*
X252004790Y-105806675D01*
X252011372Y-105804509D01*
X252039775Y-105796900D01*
X252129999Y-105757535D01*
X252221643Y-105721568D01*
X252247119Y-105706857D01*
X252253287Y-105703744D01*
X252280247Y-105691983D01*
X252363602Y-105639607D01*
X252448857Y-105590386D01*
X252471845Y-105572052D01*
X252477492Y-105568045D01*
X252502397Y-105552398D01*
X252577020Y-105488178D01*
X252616182Y-105456948D01*
X252653969Y-105426815D01*
X252653971Y-105426812D01*
X252653981Y-105426805D01*
X252720929Y-105354651D01*
X254698079Y-103377501D01*
X269319437Y-103377501D01*
X269339650Y-103608544D01*
X269339651Y-103608551D01*
X269399678Y-103832574D01*
X269399679Y-103832576D01*
X269399680Y-103832579D01*
X269497699Y-104042782D01*
X269630730Y-104232769D01*
X269794731Y-104396770D01*
X269984718Y-104529801D01*
X270194921Y-104627820D01*
X270418950Y-104687849D01*
X270583985Y-104702287D01*
X270649998Y-104708063D01*
X270650000Y-104708063D01*
X270650002Y-104708063D01*
X270707762Y-104703009D01*
X270881050Y-104687849D01*
X271105079Y-104627820D01*
X271315282Y-104529801D01*
X271505269Y-104396770D01*
X271669270Y-104232769D01*
X271802301Y-104042782D01*
X271900320Y-103832579D01*
X271960349Y-103608550D01*
X271980563Y-103377500D01*
X271960349Y-103146450D01*
X271900320Y-102922421D01*
X271802301Y-102712219D01*
X271802299Y-102712216D01*
X271802298Y-102712214D01*
X271669273Y-102522235D01*
X271669268Y-102522229D01*
X271505269Y-102358230D01*
X271362526Y-102258280D01*
X271315282Y-102225199D01*
X271105079Y-102127180D01*
X271105076Y-102127179D01*
X271105074Y-102127178D01*
X270881051Y-102067151D01*
X270881044Y-102067150D01*
X270650002Y-102046937D01*
X270649998Y-102046937D01*
X270418955Y-102067150D01*
X270418948Y-102067151D01*
X270194917Y-102127181D01*
X269984718Y-102225199D01*
X269984714Y-102225201D01*
X269794735Y-102358226D01*
X269794729Y-102358231D01*
X269630731Y-102522229D01*
X269630726Y-102522235D01*
X269497701Y-102712214D01*
X269497699Y-102712218D01*
X269399681Y-102922417D01*
X269339651Y-103146448D01*
X269339650Y-103146455D01*
X269319437Y-103377498D01*
X269319437Y-103377501D01*
X254698079Y-103377501D01*
X259778080Y-98297501D01*
X269319437Y-98297501D01*
X269339650Y-98528544D01*
X269339651Y-98528551D01*
X269399678Y-98752574D01*
X269399679Y-98752576D01*
X269399680Y-98752579D01*
X269497699Y-98962782D01*
X269630730Y-99152769D01*
X269794731Y-99316770D01*
X269984718Y-99449801D01*
X270194921Y-99547820D01*
X270418950Y-99607849D01*
X270583985Y-99622287D01*
X270649998Y-99628063D01*
X270650000Y-99628063D01*
X270650002Y-99628063D01*
X270707762Y-99623009D01*
X270881050Y-99607849D01*
X271105079Y-99547820D01*
X271315282Y-99449801D01*
X271505269Y-99316770D01*
X271669270Y-99152769D01*
X271802301Y-98962782D01*
X271900320Y-98752579D01*
X271960349Y-98528550D01*
X271980563Y-98297500D01*
X271960349Y-98066450D01*
X271900320Y-97842421D01*
X271802301Y-97632219D01*
X271802299Y-97632216D01*
X271802298Y-97632214D01*
X271669273Y-97442235D01*
X271669268Y-97442229D01*
X271505269Y-97278230D01*
X271505263Y-97278226D01*
X271315282Y-97145199D01*
X271105079Y-97047180D01*
X271105076Y-97047179D01*
X271105074Y-97047178D01*
X270881051Y-96987151D01*
X270881044Y-96987150D01*
X270650002Y-96966937D01*
X270649998Y-96966937D01*
X270418955Y-96987150D01*
X270418948Y-96987151D01*
X270194917Y-97047181D01*
X269984718Y-97145199D01*
X269984714Y-97145201D01*
X269794735Y-97278226D01*
X269794729Y-97278231D01*
X269630731Y-97442229D01*
X269630726Y-97442235D01*
X269497701Y-97632214D01*
X269497699Y-97632218D01*
X269399681Y-97842417D01*
X269339651Y-98066448D01*
X269339650Y-98066455D01*
X269319437Y-98297498D01*
X269319437Y-98297501D01*
X259778080Y-98297501D01*
X263071262Y-95004319D01*
X263132585Y-94970834D01*
X263158943Y-94968000D01*
X270715500Y-94968000D01*
X270911620Y-94953303D01*
X270911622Y-94953302D01*
X270911630Y-94953302D01*
X271167416Y-94894920D01*
X271411643Y-94799068D01*
X271638857Y-94667886D01*
X271843981Y-94504305D01*
X272022433Y-94311979D01*
X272170228Y-94095204D01*
X272284063Y-93858823D01*
X272361396Y-93608115D01*
X272400500Y-93348682D01*
X272400500Y-93086318D01*
X272361396Y-92826885D01*
X272284063Y-92576177D01*
X272254361Y-92514500D01*
X272170232Y-92339803D01*
X272170231Y-92339802D01*
X272170230Y-92339801D01*
X272170228Y-92339796D01*
X272022433Y-92123021D01*
X271975703Y-92072658D01*
X271843985Y-91930698D01*
X271771344Y-91872769D01*
X271638857Y-91767114D01*
X271411643Y-91635932D01*
X271167416Y-91540080D01*
X271167411Y-91540078D01*
X271167402Y-91540076D01*
X270940279Y-91488237D01*
X270911630Y-91481698D01*
X270911629Y-91481697D01*
X270911625Y-91481697D01*
X270911620Y-91481696D01*
X270715500Y-91467000D01*
X270715494Y-91467000D01*
X262415231Y-91467000D01*
X262316863Y-91463318D01*
X262316862Y-91463318D01*
X262219029Y-91474342D01*
X262120880Y-91481696D01*
X262120870Y-91481698D01*
X262092213Y-91488237D01*
X262085358Y-91489402D01*
X262056150Y-91492693D01*
X262056149Y-91492693D01*
X261961046Y-91518176D01*
X261865084Y-91540080D01*
X261865079Y-91540082D01*
X261837724Y-91550817D01*
X261831119Y-91552990D01*
X261802733Y-91560596D01*
X261802720Y-91560601D01*
X261712487Y-91599969D01*
X261620853Y-91635933D01*
X261620845Y-91635937D01*
X261595399Y-91650628D01*
X261589193Y-91653761D01*
X261562257Y-91665514D01*
X261562254Y-91665516D01*
X261478893Y-91717894D01*
X261393644Y-91767113D01*
X261370666Y-91785437D01*
X261364994Y-91789461D01*
X261340102Y-91805102D01*
X261340096Y-91805107D01*
X261265479Y-91869321D01*
X261188519Y-91930694D01*
X261188516Y-91930697D01*
X261121570Y-92002848D01*
X250771238Y-102353181D01*
X250709915Y-102386666D01*
X250683557Y-102389500D01*
X180508268Y-102389500D01*
X180409890Y-102385818D01*
X180409889Y-102385818D01*
X180312056Y-102396842D01*
X180213907Y-102404196D01*
X180213897Y-102404198D01*
X180185240Y-102410737D01*
X180178385Y-102411902D01*
X180149177Y-102415193D01*
X180149176Y-102415193D01*
X180054073Y-102440676D01*
X179958111Y-102462580D01*
X179952367Y-102464834D01*
X179930751Y-102473317D01*
X179924146Y-102475490D01*
X179895760Y-102483096D01*
X179895747Y-102483101D01*
X179805514Y-102522469D01*
X179713880Y-102558433D01*
X179713872Y-102558437D01*
X179688426Y-102573128D01*
X179682220Y-102576261D01*
X179655284Y-102588014D01*
X179655281Y-102588016D01*
X179571920Y-102640394D01*
X179486671Y-102689613D01*
X179463693Y-102707937D01*
X179458021Y-102711961D01*
X179433129Y-102727602D01*
X179433123Y-102727607D01*
X179358506Y-102791821D01*
X179281546Y-102853194D01*
X179281543Y-102853197D01*
X179214597Y-102925348D01*
X161549565Y-120590381D01*
X161488242Y-120623866D01*
X161461884Y-120626700D01*
X149013100Y-120626700D01*
X148946061Y-120607015D01*
X148900306Y-120554211D01*
X148889100Y-120502700D01*
X148889099Y-118671729D01*
X148889098Y-118671723D01*
X148889097Y-118671716D01*
X148882691Y-118612117D01*
X148835925Y-118486732D01*
X148832397Y-118477271D01*
X148832393Y-118477264D01*
X148746147Y-118362055D01*
X148746144Y-118362052D01*
X148630935Y-118275806D01*
X148630926Y-118275801D01*
X148600040Y-118264282D01*
X148544106Y-118222412D01*
X148519688Y-118156948D01*
X148534539Y-118088675D01*
X148583944Y-118039269D01*
X148600040Y-118031918D01*
X148630926Y-118020398D01*
X148630926Y-118020397D01*
X148630931Y-118020396D01*
X148746146Y-117934146D01*
X148832396Y-117818931D01*
X148882691Y-117684083D01*
X148889100Y-117624473D01*
X148889099Y-115496728D01*
X148882691Y-115437117D01*
X148857890Y-115370623D01*
X148832397Y-115302271D01*
X148832393Y-115302264D01*
X148746147Y-115187055D01*
X148746144Y-115187052D01*
X148630935Y-115100806D01*
X148630926Y-115100801D01*
X148600040Y-115089282D01*
X148544106Y-115047412D01*
X148519688Y-114981948D01*
X148534539Y-114913675D01*
X148583944Y-114864269D01*
X148600040Y-114856918D01*
X148630926Y-114845398D01*
X148630926Y-114845397D01*
X148630931Y-114845396D01*
X148746146Y-114759146D01*
X148832396Y-114643931D01*
X148882691Y-114509083D01*
X148889100Y-114449473D01*
X148889099Y-112321728D01*
X148882691Y-112262117D01*
X148857378Y-112194250D01*
X148832397Y-112127271D01*
X148832393Y-112127264D01*
X148746147Y-112012055D01*
X148746144Y-112012052D01*
X148630935Y-111925806D01*
X148630926Y-111925801D01*
X148600040Y-111914282D01*
X148544106Y-111872412D01*
X148519688Y-111806948D01*
X148534539Y-111738675D01*
X148583944Y-111689269D01*
X148600040Y-111681918D01*
X148630926Y-111670398D01*
X148630926Y-111670397D01*
X148630931Y-111670396D01*
X148746146Y-111584146D01*
X148832396Y-111468931D01*
X148882691Y-111334083D01*
X148889100Y-111274473D01*
X148889099Y-109146728D01*
X148882691Y-109087117D01*
X148874358Y-109064776D01*
X148832397Y-108952271D01*
X148832393Y-108952264D01*
X148746147Y-108837055D01*
X148746144Y-108837052D01*
X148630935Y-108750806D01*
X148630926Y-108750801D01*
X148600040Y-108739282D01*
X148544106Y-108697412D01*
X148519688Y-108631948D01*
X148534539Y-108563675D01*
X148583944Y-108514269D01*
X148600040Y-108506918D01*
X148630926Y-108495398D01*
X148630926Y-108495397D01*
X148630931Y-108495396D01*
X148746146Y-108409146D01*
X148832396Y-108293931D01*
X148882691Y-108159083D01*
X148889100Y-108099473D01*
X148889099Y-105971728D01*
X148882691Y-105912117D01*
X148876001Y-105894181D01*
X148832397Y-105777271D01*
X148832393Y-105777264D01*
X148746147Y-105662055D01*
X148746144Y-105662052D01*
X148630935Y-105575806D01*
X148630926Y-105575801D01*
X148600040Y-105564282D01*
X148544106Y-105522412D01*
X148519688Y-105456948D01*
X148534539Y-105388675D01*
X148583944Y-105339269D01*
X148600040Y-105331918D01*
X148630926Y-105320398D01*
X148630926Y-105320397D01*
X148630931Y-105320396D01*
X148746146Y-105234146D01*
X148832396Y-105118931D01*
X148882691Y-104984083D01*
X148889100Y-104924473D01*
X148889099Y-102796728D01*
X148882691Y-102737117D01*
X148879142Y-102727602D01*
X148832397Y-102602271D01*
X148832393Y-102602264D01*
X148746147Y-102487055D01*
X148746144Y-102487052D01*
X148630935Y-102400806D01*
X148630928Y-102400802D01*
X148496082Y-102350508D01*
X148496083Y-102350508D01*
X148436483Y-102344101D01*
X148436481Y-102344100D01*
X148436473Y-102344100D01*
X148436464Y-102344100D01*
X146308729Y-102344100D01*
X146308723Y-102344101D01*
X146249116Y-102350508D01*
X146114271Y-102400802D01*
X146114264Y-102400806D01*
X145999055Y-102487052D01*
X145999052Y-102487055D01*
X145912806Y-102602264D01*
X145912802Y-102602271D01*
X145862508Y-102737117D01*
X145856627Y-102791821D01*
X145856101Y-102796723D01*
X145856100Y-102796735D01*
X145856100Y-104924470D01*
X145856101Y-104924476D01*
X145862508Y-104984083D01*
X145912802Y-105118928D01*
X145912806Y-105118935D01*
X145999052Y-105234144D01*
X145999055Y-105234147D01*
X146114264Y-105320393D01*
X146114271Y-105320397D01*
X146145160Y-105331918D01*
X146201094Y-105373789D01*
X146225511Y-105439253D01*
X146210659Y-105507526D01*
X146161254Y-105556932D01*
X146145160Y-105564282D01*
X146114271Y-105575802D01*
X146114264Y-105575806D01*
X145999055Y-105662052D01*
X145999052Y-105662055D01*
X145912806Y-105777264D01*
X145912802Y-105777271D01*
X145862508Y-105912117D01*
X145860928Y-105926819D01*
X145856101Y-105971723D01*
X145856100Y-105971735D01*
X145856100Y-108099470D01*
X145856101Y-108099476D01*
X145862508Y-108159083D01*
X145912802Y-108293928D01*
X145912806Y-108293935D01*
X145999052Y-108409144D01*
X145999055Y-108409147D01*
X146114264Y-108495393D01*
X146114271Y-108495397D01*
X146145160Y-108506918D01*
X146201094Y-108548789D01*
X146225511Y-108614253D01*
X146210659Y-108682526D01*
X146161254Y-108731932D01*
X146145160Y-108739282D01*
X146114271Y-108750802D01*
X146114264Y-108750806D01*
X145999055Y-108837052D01*
X145999052Y-108837055D01*
X145912806Y-108952264D01*
X145912802Y-108952271D01*
X145862508Y-109087117D01*
X145858556Y-109123883D01*
X145856101Y-109146723D01*
X145856100Y-109146735D01*
X145856100Y-111274470D01*
X145856101Y-111274476D01*
X145862508Y-111334083D01*
X145912802Y-111468928D01*
X145912806Y-111468935D01*
X145999052Y-111584144D01*
X145999055Y-111584147D01*
X146114264Y-111670393D01*
X146114271Y-111670397D01*
X146145160Y-111681918D01*
X146201094Y-111723789D01*
X146225511Y-111789253D01*
X146210659Y-111857526D01*
X146161254Y-111906932D01*
X146145160Y-111914282D01*
X146114271Y-111925802D01*
X146114264Y-111925806D01*
X145999055Y-112012052D01*
X145999052Y-112012055D01*
X145912806Y-112127264D01*
X145912802Y-112127271D01*
X145862508Y-112262117D01*
X145856101Y-112321716D01*
X145856101Y-112321723D01*
X145856100Y-112321735D01*
X145856100Y-114449470D01*
X145856101Y-114449476D01*
X145862508Y-114509083D01*
X145912802Y-114643928D01*
X145912806Y-114643935D01*
X145999052Y-114759144D01*
X145999055Y-114759147D01*
X146114264Y-114845393D01*
X146114271Y-114845397D01*
X146145160Y-114856918D01*
X146201094Y-114898789D01*
X146225511Y-114964253D01*
X146210659Y-115032526D01*
X146161254Y-115081932D01*
X146145160Y-115089282D01*
X146114271Y-115100802D01*
X146114264Y-115100806D01*
X145999055Y-115187052D01*
X145999052Y-115187055D01*
X145912806Y-115302264D01*
X145912802Y-115302271D01*
X145862508Y-115437117D01*
X145856101Y-115496716D01*
X145856101Y-115496723D01*
X145856100Y-115496735D01*
X145856100Y-117624470D01*
X145856101Y-117624476D01*
X145862508Y-117684083D01*
X145912802Y-117818928D01*
X145912806Y-117818935D01*
X145999052Y-117934144D01*
X145999055Y-117934147D01*
X146114264Y-118020393D01*
X146114271Y-118020397D01*
X146145160Y-118031918D01*
X146201094Y-118073789D01*
X146225511Y-118139253D01*
X146210659Y-118207526D01*
X146161254Y-118256932D01*
X146145160Y-118264282D01*
X146114271Y-118275802D01*
X146114264Y-118275806D01*
X145999055Y-118362052D01*
X145999052Y-118362055D01*
X145912806Y-118477264D01*
X145912802Y-118477271D01*
X145862508Y-118612117D01*
X145856101Y-118671716D01*
X145856100Y-118671727D01*
X145856100Y-119633733D01*
X145856101Y-120502700D01*
X145836416Y-120569739D01*
X145783613Y-120615494D01*
X145732101Y-120626700D01*
X121988643Y-120626700D01*
X121921604Y-120607015D01*
X121900962Y-120590381D01*
X118827818Y-117517237D01*
X118794333Y-117455914D01*
X118791499Y-117429556D01*
X118791499Y-117376129D01*
X118791498Y-117376123D01*
X118791497Y-117376116D01*
X118785091Y-117316517D01*
X118770094Y-117276309D01*
X118734797Y-117181671D01*
X118734793Y-117181664D01*
X118648547Y-117066455D01*
X118648544Y-117066452D01*
X118533335Y-116980206D01*
X118533328Y-116980202D01*
X118507802Y-116970682D01*
X118451868Y-116928811D01*
X118427451Y-116863347D01*
X118442302Y-116795074D01*
X118491707Y-116745668D01*
X118551135Y-116730500D01*
X126388869Y-116730500D01*
X126487235Y-116734181D01*
X126487235Y-116734180D01*
X126487236Y-116734181D01*
X126585060Y-116723158D01*
X126683230Y-116715802D01*
X126699267Y-116712141D01*
X126711887Y-116709261D01*
X126718747Y-116708095D01*
X126721642Y-116707768D01*
X126747950Y-116704805D01*
X126811336Y-116687820D01*
X126843031Y-116679328D01*
X126939008Y-116657422D01*
X126939009Y-116657421D01*
X126939016Y-116657420D01*
X126966390Y-116646675D01*
X126972972Y-116644509D01*
X127001375Y-116636900D01*
X127091599Y-116597535D01*
X127183243Y-116561568D01*
X127208719Y-116546857D01*
X127214887Y-116543744D01*
X127241847Y-116531983D01*
X127325202Y-116479607D01*
X127410457Y-116430386D01*
X127433445Y-116412052D01*
X127439092Y-116408045D01*
X127463997Y-116392398D01*
X127538620Y-116328178D01*
X127615569Y-116266815D01*
X127615571Y-116266812D01*
X127615581Y-116266805D01*
X127682529Y-116194651D01*
X142928762Y-100948419D01*
X142990085Y-100914934D01*
X143016443Y-100912100D01*
X164962787Y-100912100D01*
X165029826Y-100931785D01*
X165075581Y-100984589D01*
X165085525Y-101053747D01*
X165056500Y-101117303D01*
X164997722Y-101155077D01*
X164987759Y-101157559D01*
X164738486Y-101208786D01*
X164724382Y-101211685D01*
X164724376Y-101211686D01*
X164358491Y-101326483D01*
X164006073Y-101477716D01*
X163670762Y-101663830D01*
X163356005Y-101882907D01*
X163065030Y-102132701D01*
X162800812Y-102410659D01*
X162566079Y-102713910D01*
X162363230Y-103039350D01*
X162363225Y-103039359D01*
X162194340Y-103383655D01*
X162194334Y-103383668D01*
X162061151Y-103743271D01*
X161965025Y-104114534D01*
X161906954Y-104493599D01*
X161887531Y-104876600D01*
X161906954Y-105259600D01*
X161964139Y-105632880D01*
X161965026Y-105638670D01*
X162011308Y-105817422D01*
X162061151Y-106009928D01*
X162194334Y-106369531D01*
X162194340Y-106369544D01*
X162363225Y-106713840D01*
X162363230Y-106713849D01*
X162566079Y-107039289D01*
X162751519Y-107278859D01*
X162800817Y-107342546D01*
X162901260Y-107448212D01*
X163065030Y-107620498D01*
X163356005Y-107870292D01*
X163356008Y-107870294D01*
X163670764Y-108089371D01*
X164006069Y-108275481D01*
X164006073Y-108275483D01*
X164049072Y-108293935D01*
X164358483Y-108426713D01*
X164358486Y-108426714D01*
X164358491Y-108426716D01*
X164724376Y-108541513D01*
X164724379Y-108541513D01*
X164724387Y-108541516D01*
X165100029Y-108618713D01*
X165405249Y-108649750D01*
X165481553Y-108657510D01*
X165481554Y-108657510D01*
X165865047Y-108657510D01*
X165928633Y-108651043D01*
X166246571Y-108618713D01*
X166622213Y-108541516D01*
X166769202Y-108495398D01*
X166988108Y-108426716D01*
X166988109Y-108426715D01*
X166988117Y-108426713D01*
X167340531Y-108275481D01*
X167675836Y-108089371D01*
X167990592Y-107870294D01*
X168281570Y-107620498D01*
X168545783Y-107342546D01*
X168780521Y-107039289D01*
X168983374Y-106713841D01*
X169152262Y-106369540D01*
X169285451Y-106009920D01*
X169381574Y-105638670D01*
X169439645Y-105259600D01*
X169459069Y-104876600D01*
X169439645Y-104493600D01*
X169381574Y-104114530D01*
X169285451Y-103743280D01*
X169235552Y-103608550D01*
X169152265Y-103383668D01*
X169152264Y-103383667D01*
X169152262Y-103383660D01*
X168983374Y-103039359D01*
X168983369Y-103039350D01*
X168848186Y-102822469D01*
X168780521Y-102713911D01*
X168549297Y-102415194D01*
X168545787Y-102410659D01*
X168545786Y-102410658D01*
X168545783Y-102410654D01*
X168281570Y-102132702D01*
X168181666Y-102046937D01*
X167990594Y-101882907D01*
X167675837Y-101663830D01*
X167675836Y-101663829D01*
X167340531Y-101477719D01*
X167340532Y-101477719D01*
X167340526Y-101477716D01*
X166988108Y-101326483D01*
X166622223Y-101211686D01*
X166622217Y-101211685D01*
X166622214Y-101211684D01*
X166622213Y-101211684D01*
X166358850Y-101157561D01*
X166297147Y-101124785D01*
X166262958Y-101063852D01*
X166267140Y-100994107D01*
X166308364Y-100937695D01*
X166373543Y-100912526D01*
X166383813Y-100912100D01*
X181602820Y-100912100D01*
X181701186Y-100915781D01*
X181701186Y-100915780D01*
X181701187Y-100915781D01*
X181799011Y-100904758D01*
X181897181Y-100897402D01*
X181913218Y-100893741D01*
X181925838Y-100890861D01*
X181932698Y-100889695D01*
X181935593Y-100889368D01*
X181961901Y-100886405D01*
X182025287Y-100869420D01*
X182056982Y-100860928D01*
X182152959Y-100839022D01*
X182152960Y-100839021D01*
X182152967Y-100839020D01*
X182180341Y-100828275D01*
X182186923Y-100826109D01*
X182215326Y-100818500D01*
X182305550Y-100779135D01*
X182397194Y-100743168D01*
X182422670Y-100728457D01*
X182428838Y-100725344D01*
X182455798Y-100713583D01*
X182539153Y-100661207D01*
X182624408Y-100611986D01*
X182647396Y-100593652D01*
X182653043Y-100589645D01*
X182677948Y-100573998D01*
X182752571Y-100509778D01*
X182773799Y-100492850D01*
X182829520Y-100448415D01*
X182829522Y-100448412D01*
X182829532Y-100448405D01*
X182896480Y-100376251D01*
X195485913Y-87786819D01*
X195547236Y-87753334D01*
X195573594Y-87750500D01*
X247768093Y-87750500D01*
X247835132Y-87770185D01*
X247880887Y-87822989D01*
X247890831Y-87892147D01*
X247861806Y-87955703D01*
X247836984Y-87977602D01*
X247579944Y-88149350D01*
X247350535Y-88350535D01*
X247149350Y-88579944D01*
X246979828Y-88833651D01*
X246844879Y-89107300D01*
X246844870Y-89107321D01*
X246746793Y-89396246D01*
X246746789Y-89396261D01*
X246687265Y-89695511D01*
X246687261Y-89695538D01*
X246667306Y-89999992D01*
X246667306Y-90000007D01*
X246687261Y-90304461D01*
X246687262Y-90304471D01*
X246687263Y-90304478D01*
X246687265Y-90304488D01*
X246746789Y-90603738D01*
X246746793Y-90603753D01*
X246844870Y-90892678D01*
X246844879Y-90892699D01*
X246979828Y-91166348D01*
X247082486Y-91319986D01*
X247123893Y-91381957D01*
X247149350Y-91420055D01*
X247350535Y-91649464D01*
X247508060Y-91787609D01*
X247579946Y-91850651D01*
X247748316Y-91963151D01*
X247833651Y-92020171D01*
X248107300Y-92155120D01*
X248107305Y-92155122D01*
X248107317Y-92155128D01*
X248396254Y-92253209D01*
X248695522Y-92312737D01*
X248724763Y-92314653D01*
X248999993Y-92332694D01*
X249000000Y-92332694D01*
X249000007Y-92332694D01*
X249243756Y-92316716D01*
X249304478Y-92312737D01*
X249603746Y-92253209D01*
X249892683Y-92155128D01*
X250166347Y-92020172D01*
X250420054Y-91850651D01*
X250649464Y-91649464D01*
X250850651Y-91420054D01*
X251020172Y-91166347D01*
X251155128Y-90892683D01*
X251253209Y-90603746D01*
X251312737Y-90304478D01*
X251323458Y-90140913D01*
X251332694Y-90000007D01*
X251332694Y-89999992D01*
X251312738Y-89695538D01*
X251312737Y-89695522D01*
X251253209Y-89396254D01*
X251155128Y-89107317D01*
X251148855Y-89094597D01*
X251020171Y-88833651D01*
X250905414Y-88661905D01*
X250850651Y-88579946D01*
X250806570Y-88529681D01*
X250649464Y-88350535D01*
X250420055Y-88149350D01*
X250414869Y-88145885D01*
X250219806Y-88015548D01*
X250163016Y-87977602D01*
X250118211Y-87923990D01*
X250109504Y-87854665D01*
X250139658Y-87791638D01*
X250199101Y-87754918D01*
X250231907Y-87750500D01*
X252223557Y-87750500D01*
X252290596Y-87770185D01*
X252311238Y-87786819D01*
X254739070Y-90214651D01*
X254806017Y-90286804D01*
X254882979Y-90348178D01*
X254957600Y-90412396D01*
X254957607Y-90412401D01*
X254982493Y-90428037D01*
X254988170Y-90432065D01*
X255011143Y-90450386D01*
X255096393Y-90499605D01*
X255179754Y-90551984D01*
X255206697Y-90563739D01*
X255212898Y-90566869D01*
X255238357Y-90581568D01*
X255329987Y-90617530D01*
X255420226Y-90656901D01*
X255448620Y-90664508D01*
X255455218Y-90666679D01*
X255482584Y-90677420D01*
X255482590Y-90677421D01*
X255482592Y-90677422D01*
X255546622Y-90692036D01*
X255578562Y-90699326D01*
X255673650Y-90724805D01*
X255702856Y-90728095D01*
X255709701Y-90729258D01*
X255738370Y-90735802D01*
X255738375Y-90735802D01*
X255738378Y-90735803D01*
X255836539Y-90743158D01*
X255934364Y-90754181D01*
X256032731Y-90750500D01*
X266117618Y-90750500D01*
X266379982Y-90750500D01*
X266442676Y-90741049D01*
X266447219Y-90740538D01*
X266510430Y-90735802D01*
X266572223Y-90721697D01*
X266576745Y-90720841D01*
X266639415Y-90711396D01*
X266699958Y-90692720D01*
X266704440Y-90691519D01*
X266766216Y-90677420D01*
X266825203Y-90654268D01*
X266829571Y-90652739D01*
X266890123Y-90634063D01*
X266924453Y-90617530D01*
X266947213Y-90606570D01*
X266951457Y-90604717D01*
X266971440Y-90596874D01*
X267010437Y-90581571D01*
X267010440Y-90581568D01*
X267010443Y-90581568D01*
X267041700Y-90563521D01*
X267065314Y-90549888D01*
X267069415Y-90547720D01*
X267077997Y-90543587D01*
X267126504Y-90520228D01*
X267126507Y-90520225D01*
X267126512Y-90520223D01*
X267178854Y-90484536D01*
X267182783Y-90482067D01*
X267237653Y-90450389D01*
X267237657Y-90450386D01*
X267287216Y-90410862D01*
X267290905Y-90408139D01*
X267343279Y-90372433D01*
X267389735Y-90329326D01*
X267393218Y-90326328D01*
X267442781Y-90286805D01*
X267485899Y-90240333D01*
X267489133Y-90237099D01*
X267535605Y-90193981D01*
X267575128Y-90144418D01*
X267578126Y-90140935D01*
X267621233Y-90094479D01*
X267656939Y-90042105D01*
X267659662Y-90038416D01*
X267699186Y-89988857D01*
X267699186Y-89988856D01*
X267699189Y-89988853D01*
X267730867Y-89933983D01*
X267733336Y-89930054D01*
X267769023Y-89877712D01*
X267769027Y-89877705D01*
X267769028Y-89877704D01*
X267796527Y-89820598D01*
X267798689Y-89816511D01*
X267801025Y-89812466D01*
X267851607Y-89764267D01*
X267908393Y-89750500D01*
X269943732Y-89750500D01*
X269993318Y-89760846D01*
X270070225Y-89794400D01*
X270323649Y-89862305D01*
X270323655Y-89862306D01*
X270584362Y-89891680D01*
X270584362Y-89891679D01*
X270584363Y-89891680D01*
X270846543Y-89881870D01*
X271104333Y-89833094D01*
X271351973Y-89746441D01*
X271583933Y-89623846D01*
X271795030Y-89468050D01*
X271980550Y-89282530D01*
X272136346Y-89071433D01*
X272258941Y-88839473D01*
X272345594Y-88591833D01*
X272394370Y-88334043D01*
X272404180Y-88071863D01*
X272403613Y-88066832D01*
X272374806Y-87811155D01*
X272374805Y-87811149D01*
X272348897Y-87714461D01*
X272306900Y-87557725D01*
X272201983Y-87317253D01*
X272062397Y-87095103D01*
X272062396Y-87095102D01*
X272062395Y-87095100D01*
X271934109Y-86946029D01*
X271934109Y-86946030D01*
X271934101Y-86946021D01*
X271773433Y-86785352D01*
X271706481Y-86713195D01*
X271629520Y-86651821D01*
X271554897Y-86587602D01*
X271554894Y-86587600D01*
X271530006Y-86571961D01*
X271524332Y-86567936D01*
X271501356Y-86549613D01*
X271416102Y-86500392D01*
X271332751Y-86448019D01*
X271332741Y-86448014D01*
X271305804Y-86436261D01*
X271299594Y-86433126D01*
X271274145Y-86418432D01*
X271274141Y-86418431D01*
X271182499Y-86382464D01*
X271092276Y-86343100D01*
X271092268Y-86343098D01*
X271063882Y-86335491D01*
X271057277Y-86333317D01*
X271029920Y-86322581D01*
X270933930Y-86300671D01*
X270838849Y-86275194D01*
X270815174Y-86272527D01*
X270809640Y-86271903D01*
X270802785Y-86270738D01*
X270774129Y-86264197D01*
X270774124Y-86264196D01*
X270675960Y-86256841D01*
X270578135Y-86245818D01*
X270479769Y-86249500D01*
X267032714Y-86249500D01*
X266934362Y-86245819D01*
X266934361Y-86245819D01*
X266836554Y-86256840D01*
X266738380Y-86264196D01*
X266738370Y-86264198D01*
X266709704Y-86270739D01*
X266702849Y-86271904D01*
X266673650Y-86275194D01*
X266673649Y-86275194D01*
X266583719Y-86299291D01*
X266578569Y-86300671D01*
X266482584Y-86322580D01*
X266482580Y-86322581D01*
X266482578Y-86322582D01*
X266468407Y-86328143D01*
X266455215Y-86333320D01*
X266448612Y-86335493D01*
X266420228Y-86343098D01*
X266420223Y-86343100D01*
X266330000Y-86382464D01*
X266238360Y-86418430D01*
X266212895Y-86433131D01*
X266206689Y-86436264D01*
X266179754Y-86448016D01*
X266179742Y-86448022D01*
X266096398Y-86500391D01*
X266011137Y-86549617D01*
X265988164Y-86567937D01*
X265982493Y-86571961D01*
X265957604Y-86587600D01*
X265882979Y-86651821D01*
X265806019Y-86713194D01*
X265806016Y-86713197D01*
X265739070Y-86785348D01*
X265311238Y-87213181D01*
X265249915Y-87246666D01*
X265223557Y-87249500D01*
X256776443Y-87249500D01*
X256709404Y-87229815D01*
X256688762Y-87213181D01*
X255509229Y-86033648D01*
X254260929Y-84785348D01*
X254216448Y-84737409D01*
X254193988Y-84713202D01*
X254193987Y-84713200D01*
X254193979Y-84713194D01*
X254117020Y-84651821D01*
X254042397Y-84587602D01*
X254042394Y-84587600D01*
X254017506Y-84571961D01*
X254011832Y-84567936D01*
X253988856Y-84549613D01*
X253903602Y-84500392D01*
X253820251Y-84448019D01*
X253820241Y-84448014D01*
X253793304Y-84436261D01*
X253787094Y-84433126D01*
X253761645Y-84418432D01*
X253761641Y-84418431D01*
X253669999Y-84382464D01*
X253579776Y-84343100D01*
X253579768Y-84343098D01*
X253551382Y-84335491D01*
X253544777Y-84333317D01*
X253517420Y-84322581D01*
X253421430Y-84300671D01*
X253326349Y-84275194D01*
X253302674Y-84272527D01*
X253297140Y-84271903D01*
X253290285Y-84270738D01*
X253261629Y-84264197D01*
X253261624Y-84264196D01*
X253163460Y-84256841D01*
X253065635Y-84245818D01*
X252967269Y-84249500D01*
X194829865Y-84249500D01*
X194731513Y-84245819D01*
X194731512Y-84245819D01*
X194633705Y-84256840D01*
X194535531Y-84264196D01*
X194535521Y-84264198D01*
X194506855Y-84270739D01*
X194500000Y-84271904D01*
X194470801Y-84275194D01*
X194470800Y-84275194D01*
X194375720Y-84300671D01*
X194279735Y-84322580D01*
X194279731Y-84322581D01*
X194279729Y-84322582D01*
X194265558Y-84328143D01*
X194252366Y-84333320D01*
X194245763Y-84335493D01*
X194217379Y-84343098D01*
X194217374Y-84343100D01*
X194127151Y-84382464D01*
X194035511Y-84418430D01*
X194010046Y-84433131D01*
X194003840Y-84436264D01*
X193976905Y-84448016D01*
X193976893Y-84448022D01*
X193893549Y-84500391D01*
X193808288Y-84549617D01*
X193785315Y-84567937D01*
X193779644Y-84571961D01*
X193754755Y-84587600D01*
X193680130Y-84651821D01*
X193603170Y-84713194D01*
X193603167Y-84713197D01*
X193536221Y-84785348D01*
X180946789Y-97374781D01*
X180885466Y-97408266D01*
X180859108Y-97411100D01*
X142272731Y-97411100D01*
X142174363Y-97407418D01*
X142076539Y-97418441D01*
X141978375Y-97425796D01*
X141978372Y-97425797D01*
X141949703Y-97432339D01*
X141942849Y-97433503D01*
X141913651Y-97436794D01*
X141913649Y-97436794D01*
X141818562Y-97462273D01*
X141722586Y-97484179D01*
X141695225Y-97494917D01*
X141688617Y-97497091D01*
X141660229Y-97504697D01*
X141660224Y-97504699D01*
X141569984Y-97544071D01*
X141478359Y-97580031D01*
X141478358Y-97580031D01*
X141452902Y-97594727D01*
X141446696Y-97597860D01*
X141419760Y-97609612D01*
X141419755Y-97609615D01*
X141419753Y-97609616D01*
X141383788Y-97632214D01*
X141336385Y-97661999D01*
X141251142Y-97711214D01*
X141251141Y-97711215D01*
X141228167Y-97729535D01*
X141222498Y-97733558D01*
X141197603Y-97749201D01*
X141197598Y-97749205D01*
X141122979Y-97813421D01*
X141046019Y-97874794D01*
X141046016Y-97874797D01*
X141017302Y-97905744D01*
X140979070Y-97946948D01*
X133350213Y-105575806D01*
X125732838Y-113193181D01*
X125671515Y-113226666D01*
X125645157Y-113229500D01*
X118551135Y-113229500D01*
X118484096Y-113209815D01*
X118438341Y-113157011D01*
X118428397Y-113087853D01*
X118457422Y-113024297D01*
X118507802Y-112989318D01*
X118533328Y-112979797D01*
X118533327Y-112979797D01*
X118533331Y-112979796D01*
X118648546Y-112893546D01*
X118734796Y-112778331D01*
X118785091Y-112643483D01*
X118791500Y-112583873D01*
X118791499Y-110456128D01*
X118785091Y-110396517D01*
X118777316Y-110375672D01*
X118734797Y-110261671D01*
X118734793Y-110261664D01*
X118648547Y-110146455D01*
X118648544Y-110146452D01*
X118533335Y-110060206D01*
X118533328Y-110060202D01*
X118398482Y-110009908D01*
X118398483Y-110009908D01*
X118338883Y-110003501D01*
X118338881Y-110003500D01*
X118338873Y-110003500D01*
X118338864Y-110003500D01*
X116211129Y-110003500D01*
X116211123Y-110003501D01*
X116151516Y-110009908D01*
X116016671Y-110060202D01*
X116016664Y-110060206D01*
X115901455Y-110146452D01*
X115901452Y-110146455D01*
X115815206Y-110261664D01*
X115815202Y-110261671D01*
X115764908Y-110396517D01*
X115760040Y-110441803D01*
X115758501Y-110456123D01*
X115758500Y-110456135D01*
X115758500Y-112583870D01*
X115758501Y-112583876D01*
X115764908Y-112643483D01*
X115815202Y-112778328D01*
X115815206Y-112778335D01*
X115901452Y-112893544D01*
X115901455Y-112893547D01*
X116016664Y-112979793D01*
X116016671Y-112979797D01*
X116151517Y-113030091D01*
X116151516Y-113030091D01*
X116158444Y-113030835D01*
X116211127Y-113036500D01*
X116822828Y-113036499D01*
X116889865Y-113056183D01*
X116935620Y-113108987D01*
X116945564Y-113178146D01*
X116916539Y-113241702D01*
X116857761Y-113279476D01*
X116850419Y-113281390D01*
X116757595Y-113302576D01*
X116757578Y-113302582D01*
X116513363Y-113398429D01*
X116513353Y-113398434D01*
X116429426Y-113446888D01*
X116367429Y-113463500D01*
X116211130Y-113463500D01*
X116211123Y-113463501D01*
X116151516Y-113469908D01*
X116016671Y-113520202D01*
X116016664Y-113520206D01*
X115901455Y-113606452D01*
X115901452Y-113606455D01*
X115815206Y-113721664D01*
X115815202Y-113721671D01*
X115764908Y-113856517D01*
X115758501Y-113916116D01*
X115758500Y-113916135D01*
X115758500Y-114066253D01*
X115746220Y-114120054D01*
X115640938Y-114338673D01*
X115563606Y-114589376D01*
X115563605Y-114589381D01*
X115563604Y-114589385D01*
X115555382Y-114643935D01*
X115524500Y-114848812D01*
X115524500Y-115111187D01*
X115535936Y-115187054D01*
X115563604Y-115370615D01*
X115563605Y-115370617D01*
X115563606Y-115370623D01*
X115602505Y-115496729D01*
X115640937Y-115621323D01*
X115746220Y-115839946D01*
X115758500Y-115893745D01*
X115758500Y-116043869D01*
X115758501Y-116043876D01*
X115764908Y-116103483D01*
X115815202Y-116238328D01*
X115815206Y-116238335D01*
X115901452Y-116353544D01*
X115901455Y-116353547D01*
X116016664Y-116439793D01*
X116016671Y-116439797D01*
X116061618Y-116456561D01*
X116151517Y-116490091D01*
X116211127Y-116496500D01*
X116367428Y-116496499D01*
X116429429Y-116513112D01*
X116513357Y-116561568D01*
X116593399Y-116592982D01*
X116648613Y-116635798D01*
X116671914Y-116701667D01*
X116655903Y-116769678D01*
X116605666Y-116818237D01*
X116589053Y-116825451D01*
X116573032Y-116831057D01*
X116573030Y-116831057D01*
X116573027Y-116831059D01*
X116425305Y-116909131D01*
X116367368Y-116923500D01*
X116211130Y-116923500D01*
X116211123Y-116923501D01*
X116151516Y-116929908D01*
X116016671Y-116980202D01*
X116016664Y-116980206D01*
X115901455Y-117066452D01*
X115901452Y-117066455D01*
X115815206Y-117181664D01*
X115815202Y-117181671D01*
X115764908Y-117316517D01*
X115760753Y-117355168D01*
X115758501Y-117376123D01*
X115758500Y-117376135D01*
X115758500Y-117532368D01*
X115744130Y-117590309D01*
X115666061Y-117738022D01*
X115666059Y-117738025D01*
X115666059Y-117738027D01*
X115637748Y-117818935D01*
X115579404Y-117985672D01*
X115579403Y-117985677D01*
X115530629Y-118243457D01*
X115520818Y-118505635D01*
X107884166Y-118505635D01*
X107882086Y-118486732D01*
X107813572Y-118224662D01*
X107707630Y-117975360D01*
X107566518Y-117744140D01*
X107527934Y-117697776D01*
X107393246Y-117535930D01*
X107393240Y-117535925D01*
X107191502Y-117355168D01*
X106965592Y-117205707D01*
X106965590Y-117205706D01*
X106720324Y-117090730D01*
X106720319Y-117090728D01*
X106720314Y-117090726D01*
X106460942Y-117012692D01*
X106460928Y-117012689D01*
X106345291Y-116995671D01*
X106192939Y-116973250D01*
X105989869Y-116973250D01*
X105989864Y-116973250D01*
X105787344Y-116988073D01*
X105787331Y-116988075D01*
X105522953Y-117046967D01*
X105522946Y-117046970D01*
X105269939Y-117143737D01*
X105033726Y-117276307D01*
X105033724Y-117276308D01*
X105033723Y-117276309D01*
X104971393Y-117324438D01*
X104819322Y-117441862D01*
X104631322Y-117636859D01*
X104631316Y-117636866D01*
X104473702Y-117857169D01*
X104473699Y-117857174D01*
X104349850Y-118098059D01*
X104349843Y-118098077D01*
X104262384Y-118354435D01*
X104262381Y-118354449D01*
X104213181Y-118620818D01*
X104213180Y-118620825D01*
X104203287Y-118891513D01*
X49906759Y-118891513D01*
X49911712Y-118755985D01*
X49882086Y-118486732D01*
X49813572Y-118224662D01*
X49707630Y-117975360D01*
X49566518Y-117744140D01*
X49527934Y-117697776D01*
X49393246Y-117535930D01*
X49393240Y-117535925D01*
X49191502Y-117355168D01*
X48965592Y-117205707D01*
X48965590Y-117205706D01*
X48720324Y-117090730D01*
X48720319Y-117090728D01*
X48720314Y-117090726D01*
X48460942Y-117012692D01*
X48460928Y-117012689D01*
X48345291Y-116995671D01*
X48192939Y-116973250D01*
X47989869Y-116973250D01*
X47989864Y-116973250D01*
X47787344Y-116988073D01*
X47787331Y-116988075D01*
X47522953Y-117046967D01*
X47522946Y-117046970D01*
X47269939Y-117143737D01*
X47033726Y-117276307D01*
X47033724Y-117276308D01*
X47033723Y-117276309D01*
X46971393Y-117324438D01*
X46819322Y-117441862D01*
X46631322Y-117636859D01*
X46631316Y-117636866D01*
X46473702Y-117857169D01*
X46473699Y-117857174D01*
X46349850Y-118098059D01*
X46349843Y-118098077D01*
X46262384Y-118354435D01*
X46262381Y-118354449D01*
X46213181Y-118620818D01*
X46213180Y-118620825D01*
X46203287Y-118891513D01*
X38196007Y-118891513D01*
X38181257Y-118830074D01*
X38089943Y-118609621D01*
X37971769Y-118416782D01*
X37218076Y-119170475D01*
X37194493Y-119090156D01*
X37116761Y-118969202D01*
X37008100Y-118875048D01*
X36877315Y-118815320D01*
X36867533Y-118813913D01*
X37618216Y-118063229D01*
X37425378Y-117945056D01*
X37204924Y-117853742D01*
X37204927Y-117853742D01*
X36972883Y-117798033D01*
X36735000Y-117779312D01*
X36497116Y-117798033D01*
X36265074Y-117853742D01*
X36044621Y-117945056D01*
X35851782Y-118063229D01*
X36602467Y-118813913D01*
X36592685Y-118815320D01*
X36461900Y-118875048D01*
X36353239Y-118969202D01*
X36275507Y-119090156D01*
X36251923Y-119170476D01*
X35498229Y-118416782D01*
X35380056Y-118609621D01*
X35288742Y-118830074D01*
X35233033Y-119062116D01*
X35214312Y-119300000D01*
X30854076Y-119300000D01*
X30831386Y-119093782D01*
X30762872Y-118831712D01*
X30656930Y-118582410D01*
X30515818Y-118351190D01*
X30514645Y-118349781D01*
X30342546Y-118142980D01*
X30342540Y-118142975D01*
X30140802Y-117962218D01*
X29914892Y-117812757D01*
X29843547Y-117779312D01*
X29669624Y-117697780D01*
X29669619Y-117697778D01*
X29669614Y-117697776D01*
X29410242Y-117619742D01*
X29410228Y-117619739D01*
X29294591Y-117602721D01*
X29142239Y-117580300D01*
X28939169Y-117580300D01*
X28939164Y-117580300D01*
X28736644Y-117595123D01*
X28736631Y-117595125D01*
X28472253Y-117654017D01*
X28472246Y-117654020D01*
X28219239Y-117750787D01*
X27983026Y-117883357D01*
X27768622Y-118048912D01*
X27580622Y-118243909D01*
X27580616Y-118243916D01*
X27423002Y-118464219D01*
X27422999Y-118464224D01*
X27299150Y-118705109D01*
X27299143Y-118705127D01*
X27211684Y-118961485D01*
X27211681Y-118961499D01*
X27162481Y-119227868D01*
X27162480Y-119227875D01*
X27152587Y-119498563D01*
X22860000Y-119498563D01*
X22860000Y-114220000D01*
X35213811Y-114220000D01*
X35232538Y-114457963D01*
X35288261Y-114690068D01*
X35379608Y-114910600D01*
X35379610Y-114910604D01*
X35379611Y-114910605D01*
X35504332Y-115114132D01*
X35659357Y-115295643D01*
X35840868Y-115450668D01*
X36044395Y-115575389D01*
X36044397Y-115575389D01*
X36044399Y-115575391D01*
X36120071Y-115606735D01*
X36264927Y-115666737D01*
X36497034Y-115722461D01*
X36735000Y-115741189D01*
X36972966Y-115722461D01*
X37205073Y-115666737D01*
X37425605Y-115575389D01*
X37629132Y-115450668D01*
X37810643Y-115295643D01*
X37965668Y-115114132D01*
X38090389Y-114910605D01*
X38181737Y-114690073D01*
X38237461Y-114457966D01*
X38256189Y-114220000D01*
X38237461Y-113982034D01*
X38181737Y-113749927D01*
X38090389Y-113529395D01*
X37965668Y-113325868D01*
X37810643Y-113144357D01*
X37629132Y-112989332D01*
X37425605Y-112864611D01*
X37425604Y-112864610D01*
X37425600Y-112864608D01*
X37205068Y-112773261D01*
X36972962Y-112717538D01*
X36972963Y-112717538D01*
X36735000Y-112698811D01*
X36497036Y-112717538D01*
X36264931Y-112773261D01*
X36044399Y-112864608D01*
X35840867Y-112989332D01*
X35659357Y-113144357D01*
X35504332Y-113325867D01*
X35379608Y-113529399D01*
X35288261Y-113749931D01*
X35232538Y-113982036D01*
X35213811Y-114220000D01*
X22860000Y-114220000D01*
X22860000Y-111963201D01*
X28133437Y-111963201D01*
X28153650Y-112194244D01*
X28153651Y-112194251D01*
X28213678Y-112418274D01*
X28213679Y-112418276D01*
X28213680Y-112418279D01*
X28311699Y-112628482D01*
X28444730Y-112818469D01*
X28608731Y-112982470D01*
X28798718Y-113115501D01*
X29008921Y-113213520D01*
X29232950Y-113273549D01*
X29397985Y-113287987D01*
X29463998Y-113293763D01*
X29464000Y-113293763D01*
X29464002Y-113293763D01*
X29521762Y-113288709D01*
X29695050Y-113273549D01*
X29919079Y-113213520D01*
X30129282Y-113115501D01*
X30319269Y-112982470D01*
X30483270Y-112818469D01*
X30616301Y-112628482D01*
X30714320Y-112418279D01*
X30774349Y-112194250D01*
X30794563Y-111963200D01*
X30791291Y-111925806D01*
X30786620Y-111872412D01*
X30774349Y-111732150D01*
X30714320Y-111508121D01*
X30616301Y-111297919D01*
X30616299Y-111297916D01*
X30616298Y-111297914D01*
X30483273Y-111107935D01*
X30483268Y-111107929D01*
X30319269Y-110943930D01*
X30319263Y-110943926D01*
X30129282Y-110810899D01*
X29919079Y-110712880D01*
X29919076Y-110712879D01*
X29919074Y-110712878D01*
X29695051Y-110652851D01*
X29695044Y-110652850D01*
X29464002Y-110632637D01*
X29463998Y-110632637D01*
X29232955Y-110652850D01*
X29232948Y-110652851D01*
X29008917Y-110712881D01*
X28798718Y-110810899D01*
X28798714Y-110810901D01*
X28608735Y-110943926D01*
X28608729Y-110943931D01*
X28444731Y-111107929D01*
X28444726Y-111107935D01*
X28311701Y-111297914D01*
X28311699Y-111297918D01*
X28213681Y-111508117D01*
X28153651Y-111732148D01*
X28153650Y-111732155D01*
X28133437Y-111963198D01*
X28133437Y-111963201D01*
X22860000Y-111963201D01*
X22860000Y-109123870D01*
X115758500Y-109123870D01*
X115758501Y-109123876D01*
X115764908Y-109183483D01*
X115815202Y-109318328D01*
X115815206Y-109318335D01*
X115901452Y-109433544D01*
X115901455Y-109433547D01*
X116016664Y-109519793D01*
X116016671Y-109519797D01*
X116151517Y-109570091D01*
X116151516Y-109570091D01*
X116158444Y-109570835D01*
X116211127Y-109576500D01*
X118338872Y-109576499D01*
X118398483Y-109570091D01*
X118533331Y-109519796D01*
X118648546Y-109433546D01*
X118734796Y-109318331D01*
X118785091Y-109183483D01*
X118791500Y-109123873D01*
X118791499Y-106996128D01*
X118785091Y-106936517D01*
X118765205Y-106883201D01*
X118734797Y-106801671D01*
X118734793Y-106801664D01*
X118648547Y-106686455D01*
X118648544Y-106686452D01*
X118533335Y-106600206D01*
X118533328Y-106600202D01*
X118398482Y-106549908D01*
X118398483Y-106549908D01*
X118338883Y-106543501D01*
X118338881Y-106543500D01*
X118338873Y-106543500D01*
X118338864Y-106543500D01*
X116211129Y-106543500D01*
X116211123Y-106543501D01*
X116151516Y-106549908D01*
X116016671Y-106600202D01*
X116016664Y-106600206D01*
X115901455Y-106686452D01*
X115901452Y-106686455D01*
X115815206Y-106801664D01*
X115815202Y-106801671D01*
X115764908Y-106936517D01*
X115759738Y-106984613D01*
X115758501Y-106996123D01*
X115758500Y-106996135D01*
X115758500Y-109123870D01*
X22860000Y-109123870D01*
X22860000Y-106883201D01*
X28133437Y-106883201D01*
X28153650Y-107114244D01*
X28153651Y-107114251D01*
X28213678Y-107338274D01*
X28213679Y-107338276D01*
X28213680Y-107338279D01*
X28311699Y-107548482D01*
X28444730Y-107738469D01*
X28608731Y-107902470D01*
X28798718Y-108035501D01*
X29008921Y-108133520D01*
X29232950Y-108193549D01*
X29397985Y-108207987D01*
X29463998Y-108213763D01*
X29464000Y-108213763D01*
X29464002Y-108213763D01*
X29521762Y-108208709D01*
X29695050Y-108193549D01*
X29919079Y-108133520D01*
X30129282Y-108035501D01*
X30319269Y-107902470D01*
X30483270Y-107738469D01*
X30616301Y-107548482D01*
X30714320Y-107338279D01*
X30774349Y-107114250D01*
X30794563Y-106883200D01*
X30774349Y-106652150D01*
X30714320Y-106428121D01*
X30616301Y-106217919D01*
X30616299Y-106217916D01*
X30616298Y-106217914D01*
X30483273Y-106027935D01*
X30483268Y-106027929D01*
X30319269Y-105863930D01*
X30234400Y-105804504D01*
X30129282Y-105730899D01*
X29919079Y-105632880D01*
X29919076Y-105632879D01*
X29919074Y-105632878D01*
X29695051Y-105572851D01*
X29695044Y-105572850D01*
X29464002Y-105552637D01*
X29463998Y-105552637D01*
X29232955Y-105572850D01*
X29232948Y-105572851D01*
X29008917Y-105632881D01*
X28798718Y-105730899D01*
X28798714Y-105730901D01*
X28608735Y-105863926D01*
X28608729Y-105863931D01*
X28444731Y-106027929D01*
X28444726Y-106027935D01*
X28311701Y-106217914D01*
X28311699Y-106217918D01*
X28213681Y-106428117D01*
X28153651Y-106652148D01*
X28153650Y-106652155D01*
X28133437Y-106883198D01*
X28133437Y-106883201D01*
X22860000Y-106883201D01*
X22860000Y-101803201D01*
X28133437Y-101803201D01*
X28153650Y-102034244D01*
X28153651Y-102034251D01*
X28213678Y-102258274D01*
X28213679Y-102258276D01*
X28213680Y-102258279D01*
X28311699Y-102468482D01*
X28444730Y-102658469D01*
X28608731Y-102822470D01*
X28798718Y-102955501D01*
X29008921Y-103053520D01*
X29232950Y-103113549D01*
X29397985Y-103127987D01*
X29463998Y-103133763D01*
X29464000Y-103133763D01*
X29464002Y-103133763D01*
X29521762Y-103128709D01*
X29695050Y-103113549D01*
X29919079Y-103053520D01*
X30129282Y-102955501D01*
X30319269Y-102822470D01*
X30483270Y-102658469D01*
X30616301Y-102468482D01*
X30714320Y-102258279D01*
X30774349Y-102034250D01*
X30794563Y-101803200D01*
X30774349Y-101572150D01*
X30714320Y-101348121D01*
X30616301Y-101137919D01*
X30616299Y-101137916D01*
X30616298Y-101137914D01*
X30483273Y-100947935D01*
X30483268Y-100947929D01*
X30319269Y-100783930D01*
X30261055Y-100743168D01*
X30129282Y-100650899D01*
X29919079Y-100552880D01*
X29919076Y-100552879D01*
X29919074Y-100552878D01*
X29695051Y-100492851D01*
X29695044Y-100492850D01*
X29464002Y-100472637D01*
X29463998Y-100472637D01*
X29232955Y-100492850D01*
X29232948Y-100492851D01*
X29008917Y-100552881D01*
X28798718Y-100650899D01*
X28798714Y-100650901D01*
X28608735Y-100783926D01*
X28608729Y-100783931D01*
X28444731Y-100947929D01*
X28444726Y-100947935D01*
X28311701Y-101137914D01*
X28311699Y-101137918D01*
X28213681Y-101348117D01*
X28153651Y-101572148D01*
X28153650Y-101572155D01*
X28133437Y-101803198D01*
X28133437Y-101803201D01*
X22860000Y-101803201D01*
X22860000Y-98571513D01*
X46203287Y-98571513D01*
X46232913Y-98840763D01*
X46232915Y-98840774D01*
X46301426Y-99102832D01*
X46301428Y-99102838D01*
X46407370Y-99352140D01*
X46466972Y-99449801D01*
X46548479Y-99583355D01*
X46548486Y-99583365D01*
X46721753Y-99791569D01*
X46721759Y-99791574D01*
X46923498Y-99972332D01*
X47149410Y-100121794D01*
X47394676Y-100236770D01*
X47394683Y-100236772D01*
X47394685Y-100236773D01*
X47654057Y-100314807D01*
X47654064Y-100314808D01*
X47654069Y-100314810D01*
X47922061Y-100354250D01*
X47922066Y-100354250D01*
X48125136Y-100354250D01*
X48176633Y-100350480D01*
X48327656Y-100339427D01*
X48440258Y-100314343D01*
X48592046Y-100280532D01*
X48592048Y-100280531D01*
X48592053Y-100280530D01*
X48845058Y-100183764D01*
X49081277Y-100051191D01*
X49295677Y-99885638D01*
X49483686Y-99690631D01*
X49641299Y-99470329D01*
X49720249Y-99316770D01*
X49765149Y-99229440D01*
X49765151Y-99229434D01*
X49765156Y-99229425D01*
X49852618Y-98973055D01*
X49901819Y-98706683D01*
X49906759Y-98571513D01*
X104203287Y-98571513D01*
X104232913Y-98840763D01*
X104232915Y-98840774D01*
X104301426Y-99102832D01*
X104301428Y-99102838D01*
X104407370Y-99352140D01*
X104466972Y-99449801D01*
X104548479Y-99583355D01*
X104548486Y-99583365D01*
X104721753Y-99791569D01*
X104721759Y-99791574D01*
X104923498Y-99972332D01*
X105149410Y-100121794D01*
X105394676Y-100236770D01*
X105394683Y-100236772D01*
X105394685Y-100236773D01*
X105654057Y-100314807D01*
X105654064Y-100314808D01*
X105654069Y-100314810D01*
X105922061Y-100354250D01*
X105922066Y-100354250D01*
X106125136Y-100354250D01*
X106176633Y-100350480D01*
X106327656Y-100339427D01*
X106440258Y-100314343D01*
X106592046Y-100280532D01*
X106592048Y-100280531D01*
X106592053Y-100280530D01*
X106845058Y-100183764D01*
X107081277Y-100051191D01*
X107295677Y-99885638D01*
X107483686Y-99690631D01*
X107641299Y-99470329D01*
X107720249Y-99316770D01*
X107765149Y-99229440D01*
X107765151Y-99229434D01*
X107765156Y-99229425D01*
X107852618Y-98973055D01*
X107901819Y-98706683D01*
X107911712Y-98435985D01*
X107882086Y-98166732D01*
X107813572Y-97904662D01*
X107707630Y-97655360D01*
X107566518Y-97424140D01*
X107552602Y-97407418D01*
X107393246Y-97215930D01*
X107393240Y-97215925D01*
X107191502Y-97035168D01*
X106965592Y-96885707D01*
X106965590Y-96885706D01*
X106720324Y-96770730D01*
X106720319Y-96770728D01*
X106720314Y-96770726D01*
X106460942Y-96692692D01*
X106460928Y-96692689D01*
X106345291Y-96675671D01*
X106192939Y-96653250D01*
X105989869Y-96653250D01*
X105989864Y-96653250D01*
X105787344Y-96668073D01*
X105787331Y-96668075D01*
X105522953Y-96726967D01*
X105522946Y-96726970D01*
X105269939Y-96823737D01*
X105033726Y-96956307D01*
X104819322Y-97121862D01*
X104631322Y-97316859D01*
X104631316Y-97316866D01*
X104473702Y-97537169D01*
X104473699Y-97537174D01*
X104349850Y-97778059D01*
X104349843Y-97778077D01*
X104262384Y-98034435D01*
X104262381Y-98034449D01*
X104237949Y-98166725D01*
X104213794Y-98297501D01*
X104213181Y-98300818D01*
X104213180Y-98300825D01*
X104203287Y-98571513D01*
X49906759Y-98571513D01*
X49911712Y-98435985D01*
X49882086Y-98166732D01*
X49813572Y-97904662D01*
X49707630Y-97655360D01*
X49566518Y-97424140D01*
X49552602Y-97407418D01*
X49393246Y-97215930D01*
X49393240Y-97215925D01*
X49191502Y-97035168D01*
X48965592Y-96885707D01*
X48965590Y-96885706D01*
X48720324Y-96770730D01*
X48720319Y-96770728D01*
X48720314Y-96770726D01*
X48460942Y-96692692D01*
X48460928Y-96692689D01*
X48345291Y-96675671D01*
X48192939Y-96653250D01*
X47989869Y-96653250D01*
X47989864Y-96653250D01*
X47787344Y-96668073D01*
X47787331Y-96668075D01*
X47522953Y-96726967D01*
X47522946Y-96726970D01*
X47269939Y-96823737D01*
X47033726Y-96956307D01*
X46819322Y-97121862D01*
X46631322Y-97316859D01*
X46631316Y-97316866D01*
X46473702Y-97537169D01*
X46473699Y-97537174D01*
X46349850Y-97778059D01*
X46349843Y-97778077D01*
X46262384Y-98034435D01*
X46262381Y-98034449D01*
X46237949Y-98166725D01*
X46213794Y-98297501D01*
X46213181Y-98300818D01*
X46213180Y-98300825D01*
X46203287Y-98571513D01*
X22860000Y-98571513D01*
X22860000Y-97596070D01*
X28138500Y-97596070D01*
X28138501Y-97596076D01*
X28144908Y-97655683D01*
X28195202Y-97790528D01*
X28195206Y-97790535D01*
X28281452Y-97905744D01*
X28281455Y-97905747D01*
X28396664Y-97991993D01*
X28396671Y-97991997D01*
X28531517Y-98042291D01*
X28531516Y-98042291D01*
X28538444Y-98043035D01*
X28591127Y-98048700D01*
X30336872Y-98048699D01*
X30396483Y-98042291D01*
X30531331Y-97991996D01*
X30646546Y-97905746D01*
X30732796Y-97790531D01*
X30783091Y-97655683D01*
X30789500Y-97596073D01*
X30789499Y-95850328D01*
X30783091Y-95790717D01*
X30780548Y-95783900D01*
X30732797Y-95655871D01*
X30732793Y-95655864D01*
X30646547Y-95540655D01*
X30646544Y-95540652D01*
X30531335Y-95454406D01*
X30531328Y-95454402D01*
X30396482Y-95404108D01*
X30396483Y-95404108D01*
X30336883Y-95397701D01*
X30336881Y-95397700D01*
X30336873Y-95397700D01*
X30336864Y-95397700D01*
X28591129Y-95397700D01*
X28591123Y-95397701D01*
X28531516Y-95404108D01*
X28396671Y-95454402D01*
X28396664Y-95454406D01*
X28281455Y-95540652D01*
X28281452Y-95540655D01*
X28195206Y-95655864D01*
X28195202Y-95655871D01*
X28144908Y-95790717D01*
X28143435Y-95804422D01*
X28138501Y-95850323D01*
X28138500Y-95850335D01*
X28138500Y-97596070D01*
X22860000Y-97596070D01*
X22860000Y-90961587D01*
X37416300Y-90961587D01*
X37436594Y-91096223D01*
X37455404Y-91221015D01*
X37455405Y-91221017D01*
X37455406Y-91221023D01*
X37532738Y-91471726D01*
X37646567Y-91708096D01*
X37646568Y-91708097D01*
X37646570Y-91708100D01*
X37646572Y-91708104D01*
X37758835Y-91872763D01*
X37794367Y-91924879D01*
X37972814Y-92117201D01*
X37972818Y-92117204D01*
X37972819Y-92117205D01*
X38177943Y-92280786D01*
X38405157Y-92411968D01*
X38649384Y-92507820D01*
X38905170Y-92566202D01*
X38905176Y-92566202D01*
X38905179Y-92566203D01*
X39101300Y-92580900D01*
X39101306Y-92580900D01*
X39232300Y-92580900D01*
X39428420Y-92566203D01*
X39428422Y-92566202D01*
X39428430Y-92566202D01*
X39684216Y-92507820D01*
X39928443Y-92411968D01*
X40155657Y-92280786D01*
X40360781Y-92117205D01*
X40539233Y-91924879D01*
X40687028Y-91708104D01*
X40800863Y-91471723D01*
X40878196Y-91221015D01*
X40917300Y-90961582D01*
X40917300Y-90699218D01*
X40878196Y-90439785D01*
X40800863Y-90189077D01*
X40778493Y-90142625D01*
X40687032Y-89952703D01*
X40687031Y-89952702D01*
X40687030Y-89952701D01*
X40687028Y-89952696D01*
X40539233Y-89735921D01*
X40501738Y-89695511D01*
X40360785Y-89543598D01*
X40266054Y-89468053D01*
X40155657Y-89380014D01*
X39928443Y-89248832D01*
X39684216Y-89152980D01*
X39684211Y-89152978D01*
X39684202Y-89152976D01*
X39466618Y-89103314D01*
X39428430Y-89094598D01*
X39428429Y-89094597D01*
X39428425Y-89094597D01*
X39428420Y-89094596D01*
X39232300Y-89079900D01*
X39232294Y-89079900D01*
X39101306Y-89079900D01*
X39101300Y-89079900D01*
X38905179Y-89094596D01*
X38905174Y-89094597D01*
X38649397Y-89152976D01*
X38649378Y-89152982D01*
X38405156Y-89248832D01*
X38177943Y-89380014D01*
X37972814Y-89543598D01*
X37794367Y-89735920D01*
X37646568Y-89952702D01*
X37646567Y-89952703D01*
X37532738Y-90189073D01*
X37455406Y-90439776D01*
X37455405Y-90439781D01*
X37455404Y-90439785D01*
X37443280Y-90520223D01*
X37416300Y-90699212D01*
X37416300Y-90961587D01*
X22860000Y-90961587D01*
X22860000Y-86130433D01*
X37452445Y-86130433D01*
X37471839Y-86401592D01*
X37471840Y-86401599D01*
X37526272Y-86651821D01*
X37529625Y-86667233D01*
X37588304Y-86824556D01*
X37624630Y-86921951D01*
X37754909Y-87160539D01*
X37754910Y-87160540D01*
X37754913Y-87160545D01*
X37917829Y-87378174D01*
X37917833Y-87378178D01*
X37917838Y-87378184D01*
X38110047Y-87570393D01*
X38110053Y-87570398D01*
X38110058Y-87570403D01*
X38327687Y-87733319D01*
X38327691Y-87733321D01*
X38327692Y-87733322D01*
X38566281Y-87863601D01*
X38566280Y-87863601D01*
X38566284Y-87863602D01*
X38566287Y-87863604D01*
X38820999Y-87958607D01*
X39086640Y-88016393D01*
X39338405Y-88034399D01*
X39357799Y-88035787D01*
X39357800Y-88035787D01*
X39357801Y-88035787D01*
X39375900Y-88034492D01*
X39628960Y-88016393D01*
X39894601Y-87958607D01*
X40149313Y-87863604D01*
X40149317Y-87863601D01*
X40149319Y-87863601D01*
X40356448Y-87750500D01*
X40387913Y-87733319D01*
X40605542Y-87570403D01*
X40797771Y-87378174D01*
X40960687Y-87160545D01*
X41090972Y-86921945D01*
X41185975Y-86667233D01*
X41215075Y-86533459D01*
X41248559Y-86472136D01*
X41309882Y-86438651D01*
X41379574Y-86443635D01*
X41423922Y-86472136D01*
X41776342Y-86824556D01*
X41804842Y-86868902D01*
X41824626Y-86921942D01*
X41824629Y-86921950D01*
X41954908Y-87160539D01*
X41954909Y-87160540D01*
X41954912Y-87160545D01*
X42117828Y-87378174D01*
X42117832Y-87378178D01*
X42117837Y-87378184D01*
X42310046Y-87570393D01*
X42310052Y-87570398D01*
X42310057Y-87570403D01*
X42527686Y-87733319D01*
X42527690Y-87733321D01*
X42527691Y-87733322D01*
X42766280Y-87863601D01*
X42766283Y-87863603D01*
X42766286Y-87863604D01*
X42819326Y-87883386D01*
X42863673Y-87911887D01*
X50293437Y-95341651D01*
X50360384Y-95413804D01*
X50437346Y-95475178D01*
X50511970Y-95539398D01*
X50536854Y-95555033D01*
X50542530Y-95559060D01*
X50565510Y-95577386D01*
X50650764Y-95626607D01*
X50734120Y-95678983D01*
X50746214Y-95684259D01*
X50761062Y-95690738D01*
X50767276Y-95693875D01*
X50792718Y-95708565D01*
X50792726Y-95708569D01*
X50884368Y-95744535D01*
X50884373Y-95744537D01*
X50974593Y-95783900D01*
X51002981Y-95791505D01*
X51009581Y-95793678D01*
X51036954Y-95804421D01*
X51132938Y-95826328D01*
X51228017Y-95851805D01*
X51257223Y-95855095D01*
X51264068Y-95856258D01*
X51292737Y-95862802D01*
X51292742Y-95862802D01*
X51292745Y-95862803D01*
X51390906Y-95870158D01*
X51488731Y-95881181D01*
X51587098Y-95877500D01*
X113459869Y-95877500D01*
X113558235Y-95881181D01*
X113558235Y-95881180D01*
X113558236Y-95881181D01*
X113656060Y-95870158D01*
X113754230Y-95862802D01*
X113770267Y-95859141D01*
X113782887Y-95856261D01*
X113789747Y-95855095D01*
X113792642Y-95854768D01*
X113818950Y-95851805D01*
X113882336Y-95834820D01*
X113914031Y-95826328D01*
X114010008Y-95804422D01*
X114010009Y-95804421D01*
X114010016Y-95804420D01*
X114037390Y-95793675D01*
X114043972Y-95791509D01*
X114072375Y-95783900D01*
X114162599Y-95744535D01*
X114254243Y-95708568D01*
X114279719Y-95693857D01*
X114285887Y-95690744D01*
X114312847Y-95678983D01*
X114396202Y-95626607D01*
X114481457Y-95577386D01*
X114504445Y-95559052D01*
X114510092Y-95555045D01*
X114534997Y-95539398D01*
X114609620Y-95475178D01*
X114635668Y-95454406D01*
X114686569Y-95413815D01*
X114686571Y-95413812D01*
X114686581Y-95413805D01*
X114753529Y-95341651D01*
X116602111Y-93493069D01*
X152476916Y-93493069D01*
X152515615Y-93675141D01*
X152515617Y-93675147D01*
X152591326Y-93845188D01*
X152591325Y-93845188D01*
X152601234Y-93858826D01*
X152700736Y-93995779D01*
X152700737Y-93995780D01*
X152700738Y-93995781D01*
X152700740Y-93995784D01*
X152784885Y-94071547D01*
X152839065Y-94120331D01*
X153000267Y-94213401D01*
X153000269Y-94213401D01*
X153000272Y-94213403D01*
X153088781Y-94242161D01*
X153177296Y-94270921D01*
X153316005Y-94285500D01*
X153316010Y-94285500D01*
X153408822Y-94285500D01*
X153408827Y-94285500D01*
X153547536Y-94270921D01*
X153724565Y-94213401D01*
X153885767Y-94120331D01*
X153994125Y-94022764D01*
X154024091Y-93995784D01*
X154024091Y-93995782D01*
X154024096Y-93995779D01*
X154133506Y-93845189D01*
X154209216Y-93675142D01*
X154247916Y-93493070D01*
X154247916Y-93493069D01*
X161476898Y-93493069D01*
X161515597Y-93675141D01*
X161515599Y-93675147D01*
X161591308Y-93845188D01*
X161591307Y-93845188D01*
X161601216Y-93858826D01*
X161700718Y-93995779D01*
X161700719Y-93995780D01*
X161700720Y-93995781D01*
X161700722Y-93995784D01*
X161784867Y-94071547D01*
X161839047Y-94120331D01*
X162000249Y-94213401D01*
X162000251Y-94213401D01*
X162000254Y-94213403D01*
X162088763Y-94242161D01*
X162177278Y-94270921D01*
X162315987Y-94285500D01*
X162315992Y-94285500D01*
X162408804Y-94285500D01*
X162408809Y-94285500D01*
X162547518Y-94270921D01*
X162724547Y-94213401D01*
X162885749Y-94120331D01*
X162994107Y-94022764D01*
X163024073Y-93995784D01*
X163024073Y-93995782D01*
X163024078Y-93995779D01*
X163133488Y-93845189D01*
X163209198Y-93675142D01*
X163247898Y-93493070D01*
X163247898Y-93306930D01*
X163209198Y-93124858D01*
X163209196Y-93124852D01*
X163183778Y-93067763D01*
X169145787Y-93067763D01*
X169175413Y-93337013D01*
X169175415Y-93337024D01*
X169216211Y-93493069D01*
X169243928Y-93599088D01*
X169349870Y-93848390D01*
X169421998Y-93966575D01*
X169490979Y-94079605D01*
X169490986Y-94079615D01*
X169664253Y-94287819D01*
X169664259Y-94287824D01*
X169865998Y-94468582D01*
X170091910Y-94618044D01*
X170337176Y-94733020D01*
X170337183Y-94733022D01*
X170337185Y-94733023D01*
X170596557Y-94811057D01*
X170596564Y-94811058D01*
X170596569Y-94811060D01*
X170864561Y-94850500D01*
X170864566Y-94850500D01*
X171067636Y-94850500D01*
X171119133Y-94846730D01*
X171270156Y-94835677D01*
X171382758Y-94810593D01*
X171534546Y-94776782D01*
X171534548Y-94776781D01*
X171534553Y-94776780D01*
X171787558Y-94680014D01*
X172023777Y-94547441D01*
X172238177Y-94381888D01*
X172426186Y-94186881D01*
X172583799Y-93966579D01*
X172657787Y-93822669D01*
X172707649Y-93725690D01*
X172707651Y-93725684D01*
X172707656Y-93725675D01*
X172795118Y-93469305D01*
X172844319Y-93202933D01*
X172854212Y-92932235D01*
X172824586Y-92662982D01*
X172756072Y-92400912D01*
X172650130Y-92151610D01*
X172509018Y-91920390D01*
X172450981Y-91850651D01*
X172335746Y-91712180D01*
X172335740Y-91712175D01*
X172134002Y-91531418D01*
X171908092Y-91381957D01*
X171884132Y-91370725D01*
X171662824Y-91266980D01*
X171662819Y-91266978D01*
X171662814Y-91266976D01*
X171403442Y-91188942D01*
X171403428Y-91188939D01*
X171287791Y-91171921D01*
X171135439Y-91149500D01*
X170932369Y-91149500D01*
X170932364Y-91149500D01*
X170729844Y-91164323D01*
X170729831Y-91164325D01*
X170465453Y-91223217D01*
X170465446Y-91223220D01*
X170212439Y-91319987D01*
X169976226Y-91452557D01*
X169976224Y-91452558D01*
X169976223Y-91452559D01*
X169928509Y-91489402D01*
X169761822Y-91618112D01*
X169573822Y-91813109D01*
X169573816Y-91813116D01*
X169416202Y-92033419D01*
X169416199Y-92033424D01*
X169292350Y-92274309D01*
X169292343Y-92274327D01*
X169204884Y-92530685D01*
X169204881Y-92530699D01*
X169155681Y-92797068D01*
X169155680Y-92797075D01*
X169145787Y-93067763D01*
X163183778Y-93067763D01*
X163178784Y-93056547D01*
X163133488Y-92954811D01*
X163024078Y-92804221D01*
X163024075Y-92804218D01*
X163024073Y-92804215D01*
X162933934Y-92723055D01*
X162885749Y-92679669D01*
X162724547Y-92586599D01*
X162724541Y-92586596D01*
X162547522Y-92529080D01*
X162547520Y-92529079D01*
X162507886Y-92524913D01*
X162408809Y-92514500D01*
X162315987Y-92514500D01*
X162229293Y-92523611D01*
X162177275Y-92529079D01*
X162177273Y-92529080D01*
X162000254Y-92586596D01*
X162000248Y-92586599D01*
X161839048Y-92679668D01*
X161700722Y-92804215D01*
X161700720Y-92804218D01*
X161591307Y-92954811D01*
X161515599Y-93124852D01*
X161515597Y-93124858D01*
X161476898Y-93306930D01*
X161476898Y-93493069D01*
X154247916Y-93493069D01*
X154247916Y-93306930D01*
X154209216Y-93124858D01*
X154209214Y-93124852D01*
X154178802Y-93056547D01*
X154133506Y-92954811D01*
X154024096Y-92804221D01*
X154024093Y-92804218D01*
X154024091Y-92804215D01*
X153933952Y-92723055D01*
X153885767Y-92679669D01*
X153724565Y-92586599D01*
X153724559Y-92586596D01*
X153547540Y-92529080D01*
X153547538Y-92529079D01*
X153507904Y-92524913D01*
X153408827Y-92514500D01*
X153316005Y-92514500D01*
X153229311Y-92523611D01*
X153177293Y-92529079D01*
X153177291Y-92529080D01*
X153000272Y-92586596D01*
X153000266Y-92586599D01*
X152839066Y-92679668D01*
X152700740Y-92804215D01*
X152700738Y-92804218D01*
X152591325Y-92954811D01*
X152515617Y-93124852D01*
X152515615Y-93124858D01*
X152476916Y-93306930D01*
X152476916Y-93493069D01*
X116602111Y-93493069D01*
X118655180Y-91440001D01*
X155097085Y-91440001D01*
X155116307Y-91659714D01*
X155116309Y-91659724D01*
X155173390Y-91872755D01*
X155173395Y-91872769D01*
X155266603Y-92072654D01*
X155266607Y-92072662D01*
X155393112Y-92253330D01*
X155549069Y-92409287D01*
X155729737Y-92535792D01*
X155729739Y-92535793D01*
X155729742Y-92535795D01*
X155816342Y-92576177D01*
X155929630Y-92629004D01*
X155929632Y-92629004D01*
X155929637Y-92629007D01*
X156142680Y-92686092D01*
X156299622Y-92699822D01*
X156362398Y-92705315D01*
X156362400Y-92705315D01*
X156362402Y-92705315D01*
X156417459Y-92700498D01*
X156582120Y-92686092D01*
X156795163Y-92629007D01*
X156995058Y-92535795D01*
X157175729Y-92409288D01*
X157331688Y-92253329D01*
X157335510Y-92247870D01*
X158101899Y-92247870D01*
X158101900Y-92247876D01*
X158108307Y-92307483D01*
X158158601Y-92442328D01*
X158158605Y-92442335D01*
X158244851Y-92557544D01*
X158244854Y-92557547D01*
X158360063Y-92643793D01*
X158360070Y-92643797D01*
X158494916Y-92694091D01*
X158494915Y-92694091D01*
X158501843Y-92694835D01*
X158554526Y-92700500D01*
X160170271Y-92700499D01*
X160229882Y-92694091D01*
X160364730Y-92643796D01*
X160479945Y-92557546D01*
X160566195Y-92442331D01*
X160616490Y-92307483D01*
X160622899Y-92247873D01*
X160622898Y-90632128D01*
X160616490Y-90572517D01*
X160613735Y-90565131D01*
X160566196Y-90437671D01*
X160566192Y-90437664D01*
X160479946Y-90322455D01*
X160479943Y-90322452D01*
X160364734Y-90236206D01*
X160364727Y-90236202D01*
X160229881Y-90185908D01*
X160229882Y-90185908D01*
X160170282Y-90179501D01*
X160170280Y-90179500D01*
X160170272Y-90179500D01*
X160170263Y-90179500D01*
X158554528Y-90179500D01*
X158554522Y-90179501D01*
X158494915Y-90185908D01*
X158360070Y-90236202D01*
X158360063Y-90236206D01*
X158244854Y-90322452D01*
X158244851Y-90322455D01*
X158158605Y-90437664D01*
X158158601Y-90437671D01*
X158108307Y-90572517D01*
X158101900Y-90632116D01*
X158101900Y-90632123D01*
X158101899Y-90632135D01*
X158101899Y-92247870D01*
X157335510Y-92247870D01*
X157458195Y-92072658D01*
X157551407Y-91872763D01*
X157608492Y-91659720D01*
X157627715Y-91440000D01*
X157608492Y-91220280D01*
X157551407Y-91007237D01*
X157458195Y-90807343D01*
X157331688Y-90626671D01*
X157331686Y-90626668D01*
X157175730Y-90470712D01*
X156995062Y-90344207D01*
X156995054Y-90344203D01*
X156795169Y-90250995D01*
X156795155Y-90250990D01*
X156582124Y-90193909D01*
X156582122Y-90193908D01*
X156582120Y-90193908D01*
X156582118Y-90193907D01*
X156582114Y-90193907D01*
X156362402Y-90174685D01*
X156362398Y-90174685D01*
X156142685Y-90193907D01*
X156142675Y-90193909D01*
X155929644Y-90250990D01*
X155929635Y-90250994D01*
X155729744Y-90344204D01*
X155729742Y-90344205D01*
X155549068Y-90470713D01*
X155393113Y-90626668D01*
X155266605Y-90807342D01*
X155266604Y-90807344D01*
X155173394Y-91007235D01*
X155173390Y-91007244D01*
X155116309Y-91220275D01*
X155116307Y-91220285D01*
X155097085Y-91439998D01*
X155097085Y-91440001D01*
X118655180Y-91440001D01*
X119078162Y-91017019D01*
X119139485Y-90983534D01*
X119165843Y-90980700D01*
X121453313Y-90980700D01*
X121512740Y-90995868D01*
X121620233Y-91054564D01*
X121620232Y-91054564D01*
X121620236Y-91054565D01*
X121620239Y-91054567D01*
X121888354Y-91154569D01*
X121888360Y-91154570D01*
X121888362Y-91154571D01*
X122167966Y-91215395D01*
X122167968Y-91215395D01*
X122167972Y-91215396D01*
X122421620Y-91233537D01*
X122453399Y-91235810D01*
X122453400Y-91235810D01*
X122453401Y-91235810D01*
X122481995Y-91233764D01*
X122738828Y-91215396D01*
X122860436Y-91188942D01*
X123018437Y-91154571D01*
X123018437Y-91154570D01*
X123018446Y-91154569D01*
X123286561Y-91054567D01*
X123537715Y-90917426D01*
X123766795Y-90745939D01*
X123969139Y-90543595D01*
X124140626Y-90314515D01*
X124247015Y-90119678D01*
X184081100Y-90119678D01*
X184084644Y-90140913D01*
X184120497Y-90355772D01*
X184198214Y-90582152D01*
X184198219Y-90582163D01*
X184312132Y-90792659D01*
X184312138Y-90792668D01*
X184459146Y-90981543D01*
X184459149Y-90981547D01*
X184459151Y-90981549D01*
X184459152Y-90981550D01*
X184538466Y-91054564D01*
X184635254Y-91143664D01*
X184753650Y-91221015D01*
X184835633Y-91274577D01*
X185054829Y-91370726D01*
X185286861Y-91429484D01*
X185465663Y-91444300D01*
X185465665Y-91444300D01*
X185585135Y-91444300D01*
X185585137Y-91444300D01*
X185763939Y-91429484D01*
X185995971Y-91370726D01*
X186215167Y-91274577D01*
X186415548Y-91143662D01*
X186591648Y-90981550D01*
X186738664Y-90792665D01*
X186852584Y-90582157D01*
X186930303Y-90355770D01*
X186969700Y-90119678D01*
X186969700Y-89880322D01*
X186930303Y-89644230D01*
X186852584Y-89417843D01*
X186761121Y-89248832D01*
X186738667Y-89207340D01*
X186738661Y-89207331D01*
X186591653Y-89018456D01*
X186591650Y-89018452D01*
X186415545Y-88856335D01*
X186215166Y-88725422D01*
X185995971Y-88629274D01*
X185848075Y-88591822D01*
X185763939Y-88570516D01*
X185763938Y-88570515D01*
X185763935Y-88570515D01*
X185620652Y-88558642D01*
X185585137Y-88555700D01*
X185465663Y-88555700D01*
X185433355Y-88558377D01*
X185286864Y-88570515D01*
X185054828Y-88629274D01*
X184835633Y-88725422D01*
X184635254Y-88856335D01*
X184459149Y-89018452D01*
X184459146Y-89018456D01*
X184312138Y-89207331D01*
X184312132Y-89207340D01*
X184198219Y-89417836D01*
X184198214Y-89417847D01*
X184120497Y-89644227D01*
X184101846Y-89755997D01*
X184081100Y-89880322D01*
X184081100Y-90119678D01*
X124247015Y-90119678D01*
X124277767Y-90063361D01*
X124377769Y-89795246D01*
X124438596Y-89515628D01*
X124459010Y-89230200D01*
X124438596Y-88944772D01*
X124428856Y-88900000D01*
X124377771Y-88665162D01*
X124377770Y-88665160D01*
X124377769Y-88665154D01*
X124277767Y-88397039D01*
X124252374Y-88350536D01*
X124140629Y-88145890D01*
X124140624Y-88145882D01*
X123969145Y-87916812D01*
X123969129Y-87916794D01*
X123766805Y-87714470D01*
X123766787Y-87714454D01*
X123537717Y-87542975D01*
X123537709Y-87542970D01*
X123286566Y-87405835D01*
X123286567Y-87405835D01*
X123049069Y-87317253D01*
X123018446Y-87305831D01*
X123018443Y-87305830D01*
X123018437Y-87305828D01*
X122738833Y-87245004D01*
X122453401Y-87224590D01*
X122453399Y-87224590D01*
X122167966Y-87245004D01*
X121888362Y-87305828D01*
X121620233Y-87405835D01*
X121512740Y-87464532D01*
X121453313Y-87479700D01*
X118422131Y-87479700D01*
X118323763Y-87476018D01*
X118225939Y-87487041D01*
X118127775Y-87494396D01*
X118127772Y-87494397D01*
X118099103Y-87500939D01*
X118092249Y-87502103D01*
X118063051Y-87505394D01*
X118063049Y-87505394D01*
X117967969Y-87530871D01*
X117871984Y-87552780D01*
X117871980Y-87552781D01*
X117871978Y-87552782D01*
X117859384Y-87557725D01*
X117844615Y-87563520D01*
X117838012Y-87565693D01*
X117809628Y-87573298D01*
X117809623Y-87573300D01*
X117719400Y-87612664D01*
X117627760Y-87648630D01*
X117602295Y-87663331D01*
X117596089Y-87666464D01*
X117569154Y-87678216D01*
X117569142Y-87678222D01*
X117485798Y-87730591D01*
X117400537Y-87779817D01*
X117377564Y-87798137D01*
X117371893Y-87802161D01*
X117347004Y-87817800D01*
X117272379Y-87882021D01*
X117195419Y-87943394D01*
X117195416Y-87943397D01*
X117152693Y-87989442D01*
X117128470Y-88015548D01*
X114950038Y-90193981D01*
X112803838Y-92340181D01*
X112742515Y-92373666D01*
X112716157Y-92376500D01*
X65136871Y-92376500D01*
X65069832Y-92356815D01*
X65024077Y-92304011D01*
X65014133Y-92234853D01*
X65043158Y-92171297D01*
X65051596Y-92162477D01*
X65104442Y-92112419D01*
X65344633Y-91829645D01*
X65455915Y-91665516D01*
X65552838Y-91522566D01*
X65552838Y-91522564D01*
X65552843Y-91522558D01*
X65726630Y-91194761D01*
X65863957Y-90850095D01*
X65871100Y-90824371D01*
X65907842Y-90692036D01*
X65963215Y-90492602D01*
X65991109Y-90322455D01*
X66023237Y-90126487D01*
X66023237Y-90126484D01*
X66023239Y-90126473D01*
X66043325Y-89756000D01*
X66023239Y-89385527D01*
X66022335Y-89380014D01*
X65963217Y-89019410D01*
X65963216Y-89019409D01*
X65963215Y-89019398D01*
X65881593Y-88725422D01*
X65863959Y-88661910D01*
X65863958Y-88661908D01*
X65726634Y-88317248D01*
X65726625Y-88317230D01*
X65552843Y-87989442D01*
X65552839Y-87989436D01*
X65552838Y-87989433D01*
X65344634Y-87682356D01*
X65344626Y-87682346D01*
X65104442Y-87399581D01*
X64835085Y-87144433D01*
X64835073Y-87144423D01*
X64539724Y-86919904D01*
X64539707Y-86919892D01*
X64221817Y-86728626D01*
X64221804Y-86728619D01*
X63885098Y-86572842D01*
X63885093Y-86572840D01*
X63885088Y-86572838D01*
X63670073Y-86500391D01*
X63533492Y-86454371D01*
X63171148Y-86374613D01*
X62802309Y-86334500D01*
X62802308Y-86334500D01*
X62431292Y-86334500D01*
X62431290Y-86334500D01*
X62062451Y-86374613D01*
X61700107Y-86454371D01*
X61428318Y-86545948D01*
X61348512Y-86572838D01*
X61348509Y-86572839D01*
X61348501Y-86572842D01*
X61011795Y-86728619D01*
X61011782Y-86728626D01*
X60693892Y-86919892D01*
X60693875Y-86919904D01*
X60398526Y-87144423D01*
X60398514Y-87144433D01*
X60129157Y-87399581D01*
X59888973Y-87682346D01*
X59888965Y-87682356D01*
X59680761Y-87989433D01*
X59680760Y-87989436D01*
X59506974Y-88317230D01*
X59506965Y-88317248D01*
X59369641Y-88661908D01*
X59369640Y-88661910D01*
X59270387Y-89019389D01*
X59270382Y-89019410D01*
X59210362Y-89385512D01*
X59210361Y-89385525D01*
X59210361Y-89385527D01*
X59209779Y-89396261D01*
X59190275Y-89755997D01*
X59190275Y-89756002D01*
X59196874Y-89877712D01*
X59209992Y-90119676D01*
X59210361Y-90126470D01*
X59210362Y-90126487D01*
X59270382Y-90492589D01*
X59270387Y-90492610D01*
X59369640Y-90850089D01*
X59369641Y-90850091D01*
X59506965Y-91194751D01*
X59506974Y-91194769D01*
X59520499Y-91220280D01*
X59659094Y-91481698D01*
X59680760Y-91522563D01*
X59680761Y-91522566D01*
X59888965Y-91829643D01*
X59888973Y-91829653D01*
X60095388Y-92072662D01*
X60129158Y-92112419D01*
X60174246Y-92155129D01*
X60182004Y-92162477D01*
X60217137Y-92222871D01*
X60214042Y-92292672D01*
X60173700Y-92349719D01*
X60108921Y-92375899D01*
X60096729Y-92376500D01*
X52330810Y-92376500D01*
X52263771Y-92356815D01*
X52243129Y-92340181D01*
X45339254Y-85436306D01*
X45310753Y-85391958D01*
X45290970Y-85338916D01*
X45290968Y-85338913D01*
X45160689Y-85100324D01*
X45160688Y-85100323D01*
X45160686Y-85100319D01*
X44997770Y-84882690D01*
X44997765Y-84882685D01*
X44997760Y-84882679D01*
X44805551Y-84690470D01*
X44805545Y-84690465D01*
X44805541Y-84690461D01*
X44587912Y-84527545D01*
X44587907Y-84527542D01*
X44587906Y-84527541D01*
X44349317Y-84397262D01*
X44349309Y-84397259D01*
X44296269Y-84377475D01*
X44251923Y-84348975D01*
X43899503Y-83996555D01*
X43866018Y-83935232D01*
X43871002Y-83865540D01*
X43912874Y-83809607D01*
X43960826Y-83787708D01*
X44094600Y-83758608D01*
X44349312Y-83663605D01*
X44349316Y-83663602D01*
X44349318Y-83663602D01*
X44468612Y-83598462D01*
X44587912Y-83533320D01*
X44805541Y-83370404D01*
X44997770Y-83178175D01*
X45160686Y-82960546D01*
X45290971Y-82721946D01*
X45385974Y-82467234D01*
X45443760Y-82201593D01*
X45463154Y-81930433D01*
X45443760Y-81659273D01*
X45385974Y-81393632D01*
X45290971Y-81138920D01*
X45290968Y-81138914D01*
X45290968Y-81138913D01*
X45160689Y-80900325D01*
X45160688Y-80900324D01*
X45160686Y-80900320D01*
X44997770Y-80682691D01*
X44997765Y-80682686D01*
X44997760Y-80682680D01*
X44805551Y-80490471D01*
X44805545Y-80490466D01*
X44805541Y-80490462D01*
X44587912Y-80327546D01*
X44587907Y-80327543D01*
X44587906Y-80327542D01*
X44349317Y-80197263D01*
X44349318Y-80197263D01*
X44299719Y-80178763D01*
X44094600Y-80102258D01*
X44094593Y-80102256D01*
X44094592Y-80102256D01*
X43828966Y-80044473D01*
X43828959Y-80044472D01*
X43557800Y-80025078D01*
X43557798Y-80025078D01*
X43286638Y-80044472D01*
X43286631Y-80044473D01*
X43021005Y-80102256D01*
X43021001Y-80102257D01*
X43020998Y-80102258D01*
X42908266Y-80144305D01*
X42766279Y-80197263D01*
X42527691Y-80327542D01*
X42527690Y-80327543D01*
X42310058Y-80490461D01*
X42310046Y-80490471D01*
X42117837Y-80682680D01*
X42117827Y-80682692D01*
X41954909Y-80900324D01*
X41954908Y-80900325D01*
X41824629Y-81138913D01*
X41793475Y-81222441D01*
X41729624Y-81393632D01*
X41729623Y-81393635D01*
X41729622Y-81393639D01*
X41700523Y-81527405D01*
X41667038Y-81588728D01*
X41605715Y-81622213D01*
X41536023Y-81617229D01*
X41491676Y-81588728D01*
X41139255Y-81236307D01*
X41110754Y-81191959D01*
X41090971Y-81138917D01*
X41090969Y-81138914D01*
X40960690Y-80900325D01*
X40960689Y-80900324D01*
X40960687Y-80900320D01*
X40797771Y-80682691D01*
X40797766Y-80682686D01*
X40797761Y-80682680D01*
X40605552Y-80490471D01*
X40605546Y-80490466D01*
X40605542Y-80490462D01*
X40387913Y-80327546D01*
X40387908Y-80327543D01*
X40387907Y-80327542D01*
X40149318Y-80197263D01*
X40149319Y-80197263D01*
X40099720Y-80178763D01*
X39894601Y-80102258D01*
X39894594Y-80102256D01*
X39894593Y-80102256D01*
X39628967Y-80044473D01*
X39628960Y-80044472D01*
X39357801Y-80025078D01*
X39357799Y-80025078D01*
X39086639Y-80044472D01*
X39086632Y-80044473D01*
X38821006Y-80102256D01*
X38821002Y-80102257D01*
X38820999Y-80102258D01*
X38708267Y-80144305D01*
X38566280Y-80197263D01*
X38327692Y-80327542D01*
X38327691Y-80327543D01*
X38110059Y-80490461D01*
X38110047Y-80490471D01*
X37917838Y-80682680D01*
X37917828Y-80682692D01*
X37754910Y-80900324D01*
X37754909Y-80900325D01*
X37624630Y-81138913D01*
X37593476Y-81222441D01*
X37529625Y-81393632D01*
X37529624Y-81393635D01*
X37529623Y-81393639D01*
X37471840Y-81659265D01*
X37471839Y-81659272D01*
X37452445Y-81930431D01*
X37452445Y-81930434D01*
X37471839Y-82201593D01*
X37471840Y-82201600D01*
X37529623Y-82467226D01*
X37529625Y-82467234D01*
X37594963Y-82642411D01*
X37624630Y-82721952D01*
X37754909Y-82960540D01*
X37754910Y-82960541D01*
X37754913Y-82960546D01*
X37917829Y-83178175D01*
X37917833Y-83178179D01*
X37917838Y-83178185D01*
X38110047Y-83370394D01*
X38110053Y-83370399D01*
X38110058Y-83370404D01*
X38327687Y-83533320D01*
X38327691Y-83533322D01*
X38327692Y-83533323D01*
X38566281Y-83663602D01*
X38566284Y-83663604D01*
X38566287Y-83663605D01*
X38619327Y-83683387D01*
X38663674Y-83711888D01*
X39016095Y-84064309D01*
X39049580Y-84125632D01*
X39044596Y-84195324D01*
X39002724Y-84251257D01*
X38954772Y-84273156D01*
X38821006Y-84302255D01*
X38821002Y-84302256D01*
X38820999Y-84302257D01*
X38711495Y-84343100D01*
X38566280Y-84397262D01*
X38327692Y-84527541D01*
X38327691Y-84527542D01*
X38110059Y-84690460D01*
X38110047Y-84690470D01*
X37917838Y-84882679D01*
X37917828Y-84882691D01*
X37754910Y-85100323D01*
X37754909Y-85100324D01*
X37624630Y-85338912D01*
X37588304Y-85436306D01*
X37529625Y-85593631D01*
X37529624Y-85593634D01*
X37529623Y-85593638D01*
X37471840Y-85859264D01*
X37471839Y-85859271D01*
X37452445Y-86130430D01*
X37452445Y-86130433D01*
X22860000Y-86130433D01*
X22860000Y-77730435D01*
X37452445Y-77730435D01*
X37471839Y-78001594D01*
X37471840Y-78001601D01*
X37529054Y-78264611D01*
X37529625Y-78267235D01*
X37575165Y-78389332D01*
X37624630Y-78521953D01*
X37754909Y-78760541D01*
X37754910Y-78760542D01*
X37754913Y-78760547D01*
X37917829Y-78978176D01*
X37917833Y-78978180D01*
X37917838Y-78978186D01*
X38110047Y-79170395D01*
X38110053Y-79170400D01*
X38110058Y-79170405D01*
X38327687Y-79333321D01*
X38327691Y-79333323D01*
X38327692Y-79333324D01*
X38566281Y-79463603D01*
X38566280Y-79463603D01*
X38566284Y-79463604D01*
X38566287Y-79463606D01*
X38820999Y-79558609D01*
X39086640Y-79616395D01*
X39338405Y-79634401D01*
X39357799Y-79635789D01*
X39357800Y-79635789D01*
X39357801Y-79635789D01*
X39375900Y-79634494D01*
X39628960Y-79616395D01*
X39894601Y-79558609D01*
X40149313Y-79463606D01*
X40149317Y-79463603D01*
X40149319Y-79463603D01*
X40315682Y-79372762D01*
X40387913Y-79333321D01*
X40594990Y-79178304D01*
X41657299Y-79178304D01*
X41657300Y-79178310D01*
X41663707Y-79237917D01*
X41714001Y-79372762D01*
X41714005Y-79372769D01*
X41800251Y-79487978D01*
X41800254Y-79487981D01*
X41915463Y-79574227D01*
X41915470Y-79574231D01*
X42050316Y-79624525D01*
X42050315Y-79624525D01*
X42057243Y-79625269D01*
X42109926Y-79630934D01*
X45005671Y-79630933D01*
X45065282Y-79624525D01*
X45200130Y-79574230D01*
X45315345Y-79487980D01*
X45401595Y-79372765D01*
X45451890Y-79237917D01*
X45458299Y-79178307D01*
X45458298Y-78356875D01*
X45477982Y-78289837D01*
X45494612Y-78269200D01*
X46707812Y-77056000D01*
X84590275Y-77056000D01*
X84600812Y-77250357D01*
X84610361Y-77426470D01*
X84610362Y-77426487D01*
X84670382Y-77792589D01*
X84670387Y-77792610D01*
X84769640Y-78150089D01*
X84769641Y-78150091D01*
X84906965Y-78494751D01*
X84906974Y-78494769D01*
X84943660Y-78563966D01*
X85061801Y-78786804D01*
X85080760Y-78822563D01*
X85080761Y-78822566D01*
X85288965Y-79129643D01*
X85288973Y-79129653D01*
X85503350Y-79382036D01*
X85529158Y-79412419D01*
X85577924Y-79458612D01*
X85798514Y-79667566D01*
X85798526Y-79667576D01*
X86093875Y-79892095D01*
X86093892Y-79892107D01*
X86411782Y-80083373D01*
X86411787Y-80083376D01*
X86411791Y-80083377D01*
X86411795Y-80083380D01*
X86678913Y-80206962D01*
X86748512Y-80239162D01*
X87100107Y-80357628D01*
X87462450Y-80437386D01*
X87831292Y-80477500D01*
X87831298Y-80477500D01*
X88202302Y-80477500D01*
X88202308Y-80477500D01*
X88571150Y-80437386D01*
X88933493Y-80357628D01*
X89285088Y-80239162D01*
X89621813Y-80083376D01*
X89755069Y-80003199D01*
X89939707Y-79892107D01*
X89939716Y-79892100D01*
X89939722Y-79892097D01*
X90235085Y-79667567D01*
X90504442Y-79412419D01*
X90744633Y-79129645D01*
X90886776Y-78920000D01*
X90952838Y-78822566D01*
X90952838Y-78822564D01*
X90952843Y-78822558D01*
X91126630Y-78494761D01*
X91263957Y-78150095D01*
X91272997Y-78117538D01*
X91343407Y-77863942D01*
X91363215Y-77792602D01*
X91423239Y-77426473D01*
X91443325Y-77056000D01*
X91423239Y-76685527D01*
X91405035Y-76574490D01*
X91363217Y-76319410D01*
X91363216Y-76319409D01*
X91363215Y-76319398D01*
X91309947Y-76127544D01*
X91263959Y-75961910D01*
X91263958Y-75961908D01*
X91237453Y-75895386D01*
X91174175Y-75736568D01*
X91126634Y-75617248D01*
X91126625Y-75617230D01*
X91105950Y-75578233D01*
X90952843Y-75289442D01*
X90952839Y-75289436D01*
X90952838Y-75289433D01*
X90744634Y-74982356D01*
X90744626Y-74982346D01*
X90504442Y-74699581D01*
X90235085Y-74444433D01*
X90235073Y-74444423D01*
X89939724Y-74219904D01*
X89939707Y-74219892D01*
X89621817Y-74028626D01*
X89621804Y-74028619D01*
X89285098Y-73872842D01*
X89285093Y-73872840D01*
X89285088Y-73872838D01*
X89113704Y-73815092D01*
X88933492Y-73754371D01*
X88571148Y-73674613D01*
X88202309Y-73634500D01*
X88202308Y-73634500D01*
X87831292Y-73634500D01*
X87831290Y-73634500D01*
X87462451Y-73674613D01*
X87100107Y-73754371D01*
X86853617Y-73837424D01*
X86748512Y-73872838D01*
X86748509Y-73872839D01*
X86748501Y-73872842D01*
X86411795Y-74028619D01*
X86411782Y-74028626D01*
X86093892Y-74219892D01*
X86093875Y-74219904D01*
X85798526Y-74444423D01*
X85798514Y-74444433D01*
X85529157Y-74699581D01*
X85288973Y-74982346D01*
X85288965Y-74982356D01*
X85080761Y-75289433D01*
X85080760Y-75289436D01*
X84906974Y-75617230D01*
X84906965Y-75617248D01*
X84769641Y-75961908D01*
X84769640Y-75961910D01*
X84670387Y-76319389D01*
X84670382Y-76319410D01*
X84610362Y-76685512D01*
X84610361Y-76685529D01*
X84594905Y-76970611D01*
X84590275Y-77056000D01*
X46707812Y-77056000D01*
X53396995Y-70366819D01*
X53458318Y-70333334D01*
X53484676Y-70330500D01*
X90663557Y-70330500D01*
X90730596Y-70350185D01*
X90751238Y-70366819D01*
X107433181Y-87048762D01*
X107466666Y-87110085D01*
X107469500Y-87136443D01*
X107469500Y-87899912D01*
X107454332Y-87959339D01*
X107395635Y-88066832D01*
X107295628Y-88334962D01*
X107234804Y-88614566D01*
X107214390Y-88899998D01*
X107214390Y-88900001D01*
X107234804Y-89185433D01*
X107295628Y-89465037D01*
X107295630Y-89465043D01*
X107295631Y-89465046D01*
X107381600Y-89695538D01*
X107395635Y-89733166D01*
X107532770Y-89984309D01*
X107532775Y-89984317D01*
X107704254Y-90213387D01*
X107704270Y-90213405D01*
X107906594Y-90415729D01*
X107906612Y-90415745D01*
X108135682Y-90587224D01*
X108135690Y-90587229D01*
X108386833Y-90724364D01*
X108386832Y-90724364D01*
X108386836Y-90724365D01*
X108386839Y-90724367D01*
X108654954Y-90824369D01*
X108654960Y-90824370D01*
X108654962Y-90824371D01*
X108934566Y-90885195D01*
X108934568Y-90885195D01*
X108934572Y-90885196D01*
X109188220Y-90903337D01*
X109219999Y-90905610D01*
X109220000Y-90905610D01*
X109220001Y-90905610D01*
X109248595Y-90903564D01*
X109505428Y-90885196D01*
X109785046Y-90824369D01*
X110053161Y-90724367D01*
X110304315Y-90587226D01*
X110533395Y-90415739D01*
X110735739Y-90213395D01*
X110907226Y-89984315D01*
X111044367Y-89733161D01*
X111144369Y-89465046D01*
X111144371Y-89465037D01*
X111205195Y-89185433D01*
X111205195Y-89185432D01*
X111205196Y-89185428D01*
X111225610Y-88900000D01*
X111205196Y-88614572D01*
X111200249Y-88591833D01*
X111144371Y-88334962D01*
X111144370Y-88334960D01*
X111144369Y-88334954D01*
X111044367Y-88066839D01*
X111044365Y-88066836D01*
X111044364Y-88066832D01*
X110985668Y-87959339D01*
X110970500Y-87899912D01*
X110970500Y-86392730D01*
X110974181Y-86294363D01*
X110963158Y-86196537D01*
X110955803Y-86098378D01*
X110955802Y-86098375D01*
X110955802Y-86098370D01*
X110949258Y-86069701D01*
X110948095Y-86062856D01*
X110944805Y-86033650D01*
X110919328Y-85938569D01*
X110897420Y-85842584D01*
X110886680Y-85815219D01*
X110884508Y-85808620D01*
X110876900Y-85780225D01*
X110837535Y-85690000D01*
X110834118Y-85681293D01*
X110801571Y-85598363D01*
X110801570Y-85598361D01*
X110798839Y-85593631D01*
X110786870Y-85572900D01*
X110783737Y-85566695D01*
X110771982Y-85539751D01*
X110734334Y-85479835D01*
X110719607Y-85456397D01*
X110670386Y-85371143D01*
X110652060Y-85348163D01*
X110648033Y-85342487D01*
X110645791Y-85338919D01*
X110632398Y-85317603D01*
X110568178Y-85242979D01*
X110506804Y-85166017D01*
X110434651Y-85099070D01*
X108516250Y-83180669D01*
X152626502Y-83180669D01*
X152665201Y-83362741D01*
X152665203Y-83362747D01*
X152720744Y-83487491D01*
X152726138Y-83499607D01*
X152740912Y-83532788D01*
X152740911Y-83532788D01*
X152754857Y-83551983D01*
X152850322Y-83683379D01*
X152850323Y-83683380D01*
X152850324Y-83683381D01*
X152850326Y-83683384D01*
X152933872Y-83758608D01*
X152988651Y-83807931D01*
X153149853Y-83901001D01*
X153149855Y-83901001D01*
X153149858Y-83901003D01*
X153238367Y-83929761D01*
X153326882Y-83958521D01*
X153465591Y-83973100D01*
X153465596Y-83973100D01*
X153558408Y-83973100D01*
X153558413Y-83973100D01*
X153697122Y-83958521D01*
X153874151Y-83901001D01*
X154035353Y-83807931D01*
X154143711Y-83710364D01*
X154173677Y-83683384D01*
X154173677Y-83683382D01*
X154173682Y-83683379D01*
X154283092Y-83532789D01*
X154358802Y-83362742D01*
X154397502Y-83180670D01*
X154397502Y-83180669D01*
X161626484Y-83180669D01*
X161665183Y-83362741D01*
X161665185Y-83362747D01*
X161720726Y-83487491D01*
X161726120Y-83499607D01*
X161740894Y-83532788D01*
X161740893Y-83532788D01*
X161754839Y-83551983D01*
X161850304Y-83683379D01*
X161850305Y-83683380D01*
X161850306Y-83683381D01*
X161850308Y-83683384D01*
X161933854Y-83758608D01*
X161988633Y-83807931D01*
X162149835Y-83901001D01*
X162149837Y-83901001D01*
X162149840Y-83901003D01*
X162238349Y-83929761D01*
X162326864Y-83958521D01*
X162465573Y-83973100D01*
X162465578Y-83973100D01*
X162558390Y-83973100D01*
X162558395Y-83973100D01*
X162697104Y-83958521D01*
X162874133Y-83901001D01*
X163035335Y-83807931D01*
X163143693Y-83710364D01*
X163173659Y-83683384D01*
X163173659Y-83683382D01*
X163173664Y-83683379D01*
X163283074Y-83532789D01*
X163358784Y-83362742D01*
X163397484Y-83180670D01*
X163397484Y-82994530D01*
X163358784Y-82812458D01*
X163358782Y-82812452D01*
X163318485Y-82721946D01*
X163283074Y-82642411D01*
X163173664Y-82491821D01*
X163173661Y-82491818D01*
X163173659Y-82491815D01*
X163078462Y-82406101D01*
X163035335Y-82367269D01*
X162874133Y-82274199D01*
X162874127Y-82274196D01*
X162697108Y-82216680D01*
X162697106Y-82216679D01*
X162657472Y-82212513D01*
X162558395Y-82202100D01*
X162465573Y-82202100D01*
X162378879Y-82211211D01*
X162326861Y-82216679D01*
X162326859Y-82216680D01*
X162149840Y-82274196D01*
X162149834Y-82274199D01*
X161988634Y-82367268D01*
X161850308Y-82491815D01*
X161850306Y-82491818D01*
X161740893Y-82642411D01*
X161665185Y-82812452D01*
X161665183Y-82812458D01*
X161626484Y-82994530D01*
X161626484Y-83180669D01*
X154397502Y-83180669D01*
X154397502Y-82994530D01*
X154358802Y-82812458D01*
X154358800Y-82812452D01*
X154318503Y-82721946D01*
X154283092Y-82642411D01*
X154173682Y-82491821D01*
X154173679Y-82491818D01*
X154173677Y-82491815D01*
X154078480Y-82406101D01*
X154035353Y-82367269D01*
X153874151Y-82274199D01*
X153874145Y-82274196D01*
X153697126Y-82216680D01*
X153697124Y-82216679D01*
X153657490Y-82212513D01*
X153558413Y-82202100D01*
X153465591Y-82202100D01*
X153378897Y-82211211D01*
X153326879Y-82216679D01*
X153326877Y-82216680D01*
X153149858Y-82274196D01*
X153149852Y-82274199D01*
X152988652Y-82367268D01*
X152850326Y-82491815D01*
X152850324Y-82491818D01*
X152740911Y-82642411D01*
X152665203Y-82812452D01*
X152665201Y-82812458D01*
X152626502Y-82994530D01*
X152626502Y-83180669D01*
X108516250Y-83180669D01*
X103661581Y-78326000D01*
X105078198Y-78326000D01*
X105096925Y-78563963D01*
X105152648Y-78796068D01*
X105243995Y-79016600D01*
X105243997Y-79016604D01*
X105243998Y-79016605D01*
X105368719Y-79220132D01*
X105523744Y-79401643D01*
X105705255Y-79556668D01*
X105908782Y-79681389D01*
X105908784Y-79681389D01*
X105908786Y-79681391D01*
X105984458Y-79712735D01*
X106129314Y-79772737D01*
X106361421Y-79828461D01*
X106599387Y-79847189D01*
X106837353Y-79828461D01*
X107069460Y-79772737D01*
X107289992Y-79681389D01*
X107390170Y-79620000D01*
X111788811Y-79620000D01*
X111807538Y-79857963D01*
X111863261Y-80090068D01*
X111954608Y-80310600D01*
X111954610Y-80310604D01*
X111954611Y-80310605D01*
X112079332Y-80514132D01*
X112234357Y-80695643D01*
X112415868Y-80850668D01*
X112619395Y-80975389D01*
X112619397Y-80975389D01*
X112619399Y-80975391D01*
X112631410Y-80980366D01*
X112839927Y-81066737D01*
X113072034Y-81122461D01*
X113310000Y-81141189D01*
X113547966Y-81122461D01*
X113780073Y-81066737D01*
X114000605Y-80975389D01*
X114204132Y-80850668D01*
X114385643Y-80695643D01*
X114540668Y-80514132D01*
X114665389Y-80310605D01*
X114756737Y-80090073D01*
X114812461Y-79857966D01*
X114831189Y-79620000D01*
X114812461Y-79382034D01*
X114756737Y-79149927D01*
X114673645Y-78949327D01*
X114665391Y-78929399D01*
X114659631Y-78920000D01*
X127704696Y-78920000D01*
X127723898Y-79286405D01*
X127766704Y-79556668D01*
X127781295Y-79648794D01*
X127841507Y-79873509D01*
X127876260Y-80003206D01*
X128007746Y-80345739D01*
X128174320Y-80672656D01*
X128374147Y-80980364D01*
X128504380Y-81141188D01*
X128605051Y-81265506D01*
X128864494Y-81524949D01*
X128963554Y-81605166D01*
X129149635Y-81755852D01*
X129457343Y-81955679D01*
X129457348Y-81955682D01*
X129784264Y-82122255D01*
X130030248Y-82216679D01*
X130104407Y-82245146D01*
X130126801Y-82253742D01*
X130481206Y-82348705D01*
X130843596Y-82406102D01*
X131189734Y-82424241D01*
X131209999Y-82425304D01*
X131210000Y-82425304D01*
X131210001Y-82425304D01*
X131229203Y-82424297D01*
X131576404Y-82406102D01*
X131938794Y-82348705D01*
X132293199Y-82253742D01*
X132635736Y-82122255D01*
X132962652Y-81955682D01*
X132993776Y-81935470D01*
X155251501Y-81935470D01*
X155251502Y-81935476D01*
X155257909Y-81995083D01*
X155308203Y-82129928D01*
X155308207Y-82129935D01*
X155394453Y-82245144D01*
X155394456Y-82245147D01*
X155509665Y-82331393D01*
X155509672Y-82331397D01*
X155644518Y-82381691D01*
X155644517Y-82381691D01*
X155651445Y-82382435D01*
X155704128Y-82388100D01*
X157319873Y-82388099D01*
X157379484Y-82381691D01*
X157514332Y-82331396D01*
X157629547Y-82245146D01*
X157715797Y-82129931D01*
X157766092Y-81995083D01*
X157772501Y-81935473D01*
X157772501Y-81127601D01*
X158246685Y-81127601D01*
X158265907Y-81347314D01*
X158265909Y-81347324D01*
X158322990Y-81560355D01*
X158322995Y-81560369D01*
X158416203Y-81760254D01*
X158416207Y-81760262D01*
X158542712Y-81940930D01*
X158698669Y-82096887D01*
X158879337Y-82223392D01*
X158879339Y-82223393D01*
X158879342Y-82223395D01*
X158944422Y-82253742D01*
X159079230Y-82316604D01*
X159079232Y-82316604D01*
X159079237Y-82316607D01*
X159292280Y-82373692D01*
X159449222Y-82387422D01*
X159511998Y-82392915D01*
X159512000Y-82392915D01*
X159512002Y-82392915D01*
X159567059Y-82388098D01*
X159731720Y-82373692D01*
X159944763Y-82316607D01*
X160144658Y-82223395D01*
X160325329Y-82096888D01*
X160481288Y-81940929D01*
X160607795Y-81760258D01*
X160701007Y-81560363D01*
X160758092Y-81347320D01*
X160777315Y-81127600D01*
X160776865Y-81122461D01*
X160771176Y-81057428D01*
X160758092Y-80907880D01*
X160701007Y-80694837D01*
X160607795Y-80494943D01*
X160481288Y-80314271D01*
X160481286Y-80314268D01*
X160325330Y-80158312D01*
X160144662Y-80031807D01*
X160144654Y-80031803D01*
X159944769Y-79938595D01*
X159944755Y-79938590D01*
X159731724Y-79881509D01*
X159731722Y-79881508D01*
X159731720Y-79881508D01*
X159731718Y-79881507D01*
X159731714Y-79881507D01*
X159512002Y-79862285D01*
X159511998Y-79862285D01*
X159292285Y-79881507D01*
X159292275Y-79881509D01*
X159079244Y-79938590D01*
X159079237Y-79938592D01*
X159079237Y-79938593D01*
X159056825Y-79949043D01*
X158879344Y-80031804D01*
X158879342Y-80031805D01*
X158698668Y-80158313D01*
X158542713Y-80314268D01*
X158416205Y-80494942D01*
X158416204Y-80494944D01*
X158322994Y-80694835D01*
X158322990Y-80694844D01*
X158265909Y-80907875D01*
X158265907Y-80907885D01*
X158246685Y-81127598D01*
X158246685Y-81127601D01*
X157772501Y-81127601D01*
X157772500Y-80319728D01*
X157766092Y-80260117D01*
X157758276Y-80239162D01*
X157715798Y-80125271D01*
X157715794Y-80125264D01*
X157629548Y-80010055D01*
X157629545Y-80010052D01*
X157514336Y-79923806D01*
X157514329Y-79923802D01*
X157379483Y-79873508D01*
X157379484Y-79873508D01*
X157319884Y-79867101D01*
X157319882Y-79867100D01*
X157319874Y-79867100D01*
X157319865Y-79867100D01*
X155704130Y-79867100D01*
X155704124Y-79867101D01*
X155644517Y-79873508D01*
X155509672Y-79923802D01*
X155509665Y-79923806D01*
X155394456Y-80010052D01*
X155394453Y-80010055D01*
X155308207Y-80125264D01*
X155308203Y-80125271D01*
X155257909Y-80260117D01*
X155251502Y-80319716D01*
X155251502Y-80319723D01*
X155251501Y-80319735D01*
X155251501Y-81935470D01*
X132993776Y-81935470D01*
X133270366Y-81755851D01*
X133555506Y-81524949D01*
X133814949Y-81265506D01*
X134045851Y-80980366D01*
X134245682Y-80672652D01*
X134412255Y-80345736D01*
X134543742Y-80003199D01*
X134638705Y-79648794D01*
X134643266Y-79620000D01*
X146788811Y-79620000D01*
X146807538Y-79857963D01*
X146863261Y-80090068D01*
X146954608Y-80310600D01*
X146954610Y-80310604D01*
X146954611Y-80310605D01*
X147079332Y-80514132D01*
X147234357Y-80695643D01*
X147415868Y-80850668D01*
X147619395Y-80975389D01*
X147619397Y-80975389D01*
X147619399Y-80975391D01*
X147631410Y-80980366D01*
X147839927Y-81066737D01*
X148072034Y-81122461D01*
X148310000Y-81141189D01*
X148547966Y-81122461D01*
X148780073Y-81066737D01*
X149000605Y-80975389D01*
X149204132Y-80850668D01*
X149385643Y-80695643D01*
X149540668Y-80514132D01*
X149665389Y-80310605D01*
X149756737Y-80090073D01*
X149812461Y-79857966D01*
X149831189Y-79620000D01*
X149812461Y-79382034D01*
X149756737Y-79149927D01*
X149673645Y-78949327D01*
X149665391Y-78929399D01*
X149659631Y-78920000D01*
X149540668Y-78725868D01*
X149385643Y-78544357D01*
X149204132Y-78389332D01*
X149000605Y-78264611D01*
X149000604Y-78264610D01*
X149000600Y-78264608D01*
X148780068Y-78173261D01*
X148547962Y-78117538D01*
X148547963Y-78117538D01*
X148310000Y-78098811D01*
X148072036Y-78117538D01*
X147839931Y-78173261D01*
X147619399Y-78264608D01*
X147415867Y-78389332D01*
X147234357Y-78544357D01*
X147079332Y-78725867D01*
X146954608Y-78929399D01*
X146863261Y-79149931D01*
X146807538Y-79382036D01*
X146788811Y-79620000D01*
X134643266Y-79620000D01*
X134696102Y-79286404D01*
X134715304Y-78920000D01*
X134696102Y-78553596D01*
X134638705Y-78191206D01*
X134543742Y-77836801D01*
X134412255Y-77494264D01*
X134365550Y-77402601D01*
X171612390Y-77402601D01*
X171632804Y-77688033D01*
X171693628Y-77967637D01*
X171693630Y-77967643D01*
X171693631Y-77967646D01*
X171777015Y-78191206D01*
X171793635Y-78235766D01*
X171930770Y-78486909D01*
X171930775Y-78486917D01*
X172102254Y-78715987D01*
X172102270Y-78716005D01*
X172304594Y-78918329D01*
X172304612Y-78918345D01*
X172533682Y-79089824D01*
X172533685Y-79089826D01*
X172610470Y-79131754D01*
X172638723Y-79152904D01*
X176700470Y-83214651D01*
X176767417Y-83286804D01*
X176844379Y-83348178D01*
X176919003Y-83412398D01*
X176943887Y-83428033D01*
X176949563Y-83432060D01*
X176972543Y-83450386D01*
X177057797Y-83499607D01*
X177110604Y-83532788D01*
X177141151Y-83551982D01*
X177168095Y-83563737D01*
X177174300Y-83566870D01*
X177199757Y-83581568D01*
X177199758Y-83581568D01*
X177199761Y-83581570D01*
X177199763Y-83581571D01*
X177291399Y-83617535D01*
X177317010Y-83628708D01*
X177381288Y-83656753D01*
X177434860Y-83701601D01*
X177455682Y-83768296D01*
X177455700Y-83770405D01*
X177455700Y-85285370D01*
X177455701Y-85285376D01*
X177462108Y-85344983D01*
X177512402Y-85479828D01*
X177512406Y-85479835D01*
X177598652Y-85595044D01*
X177598655Y-85595047D01*
X177713864Y-85681293D01*
X177713871Y-85681297D01*
X177848717Y-85731591D01*
X177848716Y-85731591D01*
X177855644Y-85732335D01*
X177908327Y-85738000D01*
X185471672Y-85737999D01*
X185531283Y-85731591D01*
X185666131Y-85681296D01*
X185781346Y-85595046D01*
X185867596Y-85479831D01*
X185917891Y-85344983D01*
X185924300Y-85285373D01*
X185924299Y-80772001D01*
X249222390Y-80772001D01*
X249242804Y-81057433D01*
X249303628Y-81337037D01*
X249303630Y-81337043D01*
X249303631Y-81337046D01*
X249397504Y-81588728D01*
X249403635Y-81605166D01*
X249540770Y-81856309D01*
X249540775Y-81856317D01*
X249712254Y-82085387D01*
X249712270Y-82085405D01*
X249914594Y-82287729D01*
X249914612Y-82287745D01*
X250143682Y-82459224D01*
X250143690Y-82459229D01*
X250394833Y-82596364D01*
X250394832Y-82596364D01*
X250394836Y-82596365D01*
X250394839Y-82596367D01*
X250662954Y-82696369D01*
X250662960Y-82696370D01*
X250662962Y-82696371D01*
X250942566Y-82757195D01*
X250942568Y-82757195D01*
X250942572Y-82757196D01*
X251196220Y-82775337D01*
X251227999Y-82777610D01*
X251228000Y-82777610D01*
X251228001Y-82777610D01*
X251256595Y-82775564D01*
X251513428Y-82757196D01*
X251793046Y-82696369D01*
X252061161Y-82596367D01*
X252168660Y-82537668D01*
X252228087Y-82522500D01*
X256706701Y-82522500D01*
X256773740Y-82542185D01*
X256819495Y-82594989D01*
X256830701Y-82646500D01*
X256830701Y-85285376D01*
X256837108Y-85344983D01*
X256887402Y-85479828D01*
X256887406Y-85479835D01*
X256973652Y-85595044D01*
X256973655Y-85595047D01*
X257088864Y-85681293D01*
X257088871Y-85681297D01*
X257223717Y-85731591D01*
X257223716Y-85731591D01*
X257230644Y-85732335D01*
X257283327Y-85738000D01*
X264846672Y-85737999D01*
X264906283Y-85731591D01*
X265041131Y-85681296D01*
X265156346Y-85595046D01*
X265242596Y-85479831D01*
X265292891Y-85344983D01*
X265299300Y-85285373D01*
X265299299Y-79742763D01*
X268997787Y-79742763D01*
X269027413Y-80012013D01*
X269027415Y-80012024D01*
X269095926Y-80274082D01*
X269095928Y-80274088D01*
X269201870Y-80523390D01*
X269299091Y-80682692D01*
X269342979Y-80754605D01*
X269342986Y-80754615D01*
X269516253Y-80962819D01*
X269516259Y-80962824D01*
X269632235Y-81066738D01*
X269717998Y-81143582D01*
X269943910Y-81293044D01*
X270189176Y-81408020D01*
X270189183Y-81408022D01*
X270189185Y-81408023D01*
X270448557Y-81486057D01*
X270448564Y-81486058D01*
X270448569Y-81486060D01*
X270716561Y-81525500D01*
X270716566Y-81525500D01*
X270919636Y-81525500D01*
X270971133Y-81521730D01*
X271122156Y-81510677D01*
X271234758Y-81485593D01*
X271386546Y-81451782D01*
X271386548Y-81451781D01*
X271386553Y-81451780D01*
X271639558Y-81355014D01*
X271875777Y-81222441D01*
X272090177Y-81056888D01*
X272278186Y-80861881D01*
X272435799Y-80641579D01*
X272515493Y-80486572D01*
X272559649Y-80400690D01*
X272559651Y-80400684D01*
X272559656Y-80400675D01*
X272647118Y-80144305D01*
X272696319Y-79877933D01*
X272706212Y-79607235D01*
X272676586Y-79337982D01*
X272608072Y-79075912D01*
X272502130Y-78826610D01*
X272361018Y-78595390D01*
X272296756Y-78518171D01*
X272187746Y-78387180D01*
X272187740Y-78387175D01*
X271986002Y-78206418D01*
X271760092Y-78056957D01*
X271760090Y-78056956D01*
X271514824Y-77941980D01*
X271514819Y-77941978D01*
X271514814Y-77941976D01*
X271255442Y-77863942D01*
X271255428Y-77863939D01*
X271139791Y-77846921D01*
X270987439Y-77824500D01*
X270784369Y-77824500D01*
X270784364Y-77824500D01*
X270581844Y-77839323D01*
X270581831Y-77839325D01*
X270317453Y-77898217D01*
X270317446Y-77898220D01*
X270064439Y-77994987D01*
X269828226Y-78127557D01*
X269828224Y-78127558D01*
X269828223Y-78127559D01*
X269799043Y-78150091D01*
X269613822Y-78293112D01*
X269425822Y-78488109D01*
X269425816Y-78488116D01*
X269268202Y-78708419D01*
X269268199Y-78708424D01*
X269144350Y-78949309D01*
X269144343Y-78949327D01*
X269056884Y-79205685D01*
X269056881Y-79205699D01*
X269050930Y-79237917D01*
X269009245Y-79463603D01*
X269007681Y-79472068D01*
X269007680Y-79472075D01*
X268997787Y-79742763D01*
X265299299Y-79742763D01*
X265299299Y-78712628D01*
X265292891Y-78653017D01*
X265271395Y-78595384D01*
X265242597Y-78518171D01*
X265242593Y-78518164D01*
X265156347Y-78402955D01*
X265156344Y-78402952D01*
X265041135Y-78316706D01*
X265041128Y-78316702D01*
X264906282Y-78266408D01*
X264906283Y-78266408D01*
X264846683Y-78260001D01*
X264846681Y-78260000D01*
X264846673Y-78260000D01*
X264846664Y-78260000D01*
X257283329Y-78260000D01*
X257283323Y-78260001D01*
X257223716Y-78266408D01*
X257088871Y-78316702D01*
X257088864Y-78316706D01*
X256973655Y-78402952D01*
X256973652Y-78402955D01*
X256887406Y-78518164D01*
X256887402Y-78518171D01*
X256837108Y-78653017D01*
X256831152Y-78708419D01*
X256830701Y-78712623D01*
X256830700Y-78712635D01*
X256830700Y-78897500D01*
X256811015Y-78964539D01*
X256758211Y-79010294D01*
X256706700Y-79021500D01*
X252228087Y-79021500D01*
X252168660Y-79006332D01*
X252061166Y-78947635D01*
X252061167Y-78947635D01*
X251953915Y-78907632D01*
X251793046Y-78847631D01*
X251793043Y-78847630D01*
X251793037Y-78847628D01*
X251513433Y-78786804D01*
X251228001Y-78766390D01*
X251227999Y-78766390D01*
X250942566Y-78786804D01*
X250662962Y-78847628D01*
X250394833Y-78947635D01*
X250143690Y-79084770D01*
X250143682Y-79084775D01*
X249914612Y-79256254D01*
X249914594Y-79256270D01*
X249712270Y-79458594D01*
X249712254Y-79458612D01*
X249540775Y-79687682D01*
X249540770Y-79687690D01*
X249403635Y-79938833D01*
X249303628Y-80206962D01*
X249242804Y-80486566D01*
X249222390Y-80771998D01*
X249222390Y-80772001D01*
X185924299Y-80772001D01*
X185924299Y-78712628D01*
X185917891Y-78653017D01*
X185896395Y-78595384D01*
X185867597Y-78518171D01*
X185867593Y-78518164D01*
X185781347Y-78402955D01*
X185781344Y-78402952D01*
X185666135Y-78316706D01*
X185666128Y-78316702D01*
X185531282Y-78266408D01*
X185531283Y-78266408D01*
X185471683Y-78260001D01*
X185471681Y-78260000D01*
X185471673Y-78260000D01*
X185471664Y-78260000D01*
X177908329Y-78260000D01*
X177908323Y-78260001D01*
X177848716Y-78266408D01*
X177713871Y-78316702D01*
X177713864Y-78316706D01*
X177598655Y-78402952D01*
X177598652Y-78402955D01*
X177512406Y-78518164D01*
X177512402Y-78518171D01*
X177462108Y-78653017D01*
X177456152Y-78708419D01*
X177455701Y-78712623D01*
X177455700Y-78712635D01*
X177455700Y-78719357D01*
X177436015Y-78786396D01*
X177383211Y-78832151D01*
X177314053Y-78842095D01*
X177250497Y-78813070D01*
X177244019Y-78807038D01*
X175639677Y-77202696D01*
X175606192Y-77141373D01*
X175603674Y-77123858D01*
X175603196Y-77117172D01*
X175564420Y-76938921D01*
X175542371Y-76837562D01*
X175542370Y-76837560D01*
X175542369Y-76837554D01*
X175442367Y-76569439D01*
X175394999Y-76482692D01*
X175305229Y-76318290D01*
X175305224Y-76318282D01*
X175133745Y-76089212D01*
X175133729Y-76089194D01*
X174931405Y-75886870D01*
X174931387Y-75886854D01*
X174702317Y-75715375D01*
X174702309Y-75715370D01*
X174451166Y-75578235D01*
X174451167Y-75578235D01*
X174343915Y-75538232D01*
X174183046Y-75478231D01*
X174183043Y-75478230D01*
X174183037Y-75478228D01*
X173903433Y-75417404D01*
X173618001Y-75396990D01*
X173617999Y-75396990D01*
X173332566Y-75417404D01*
X173052962Y-75478228D01*
X172784833Y-75578235D01*
X172533690Y-75715370D01*
X172533682Y-75715375D01*
X172304612Y-75886854D01*
X172304594Y-75886870D01*
X172102270Y-76089194D01*
X172102254Y-76089212D01*
X171930775Y-76318282D01*
X171930770Y-76318290D01*
X171793635Y-76569433D01*
X171693628Y-76837562D01*
X171632804Y-77117166D01*
X171612390Y-77402598D01*
X171612390Y-77402601D01*
X134365550Y-77402601D01*
X134245682Y-77167348D01*
X134228814Y-77141373D01*
X134045852Y-76859635D01*
X133814952Y-76574498D01*
X133814949Y-76574494D01*
X133555506Y-76315051D01*
X133323958Y-76127547D01*
X133270364Y-76084147D01*
X132962656Y-75884320D01*
X132635739Y-75717746D01*
X132293206Y-75586260D01*
X132293199Y-75586258D01*
X131938794Y-75491295D01*
X131938790Y-75491294D01*
X131938789Y-75491294D01*
X131576405Y-75433898D01*
X131210001Y-75414696D01*
X131209999Y-75414696D01*
X130843594Y-75433898D01*
X130481211Y-75491294D01*
X130481209Y-75491294D01*
X130126793Y-75586260D01*
X129784260Y-75717746D01*
X129457343Y-75884320D01*
X129149635Y-76084147D01*
X128864498Y-76315047D01*
X128864490Y-76315054D01*
X128605054Y-76574490D01*
X128605047Y-76574498D01*
X128374147Y-76859635D01*
X128174320Y-77167343D01*
X128007746Y-77494260D01*
X127876260Y-77836793D01*
X127781294Y-78191209D01*
X127781294Y-78191211D01*
X127723898Y-78553594D01*
X127704696Y-78919999D01*
X127704696Y-78920000D01*
X114659631Y-78920000D01*
X114540668Y-78725868D01*
X114385643Y-78544357D01*
X114204132Y-78389332D01*
X114000605Y-78264611D01*
X114000604Y-78264610D01*
X114000600Y-78264608D01*
X113780068Y-78173261D01*
X113547962Y-78117538D01*
X113547963Y-78117538D01*
X113310000Y-78098811D01*
X113072036Y-78117538D01*
X112839931Y-78173261D01*
X112619399Y-78264608D01*
X112415867Y-78389332D01*
X112234357Y-78544357D01*
X112079332Y-78725867D01*
X111954608Y-78929399D01*
X111863261Y-79149931D01*
X111807538Y-79382036D01*
X111788811Y-79620000D01*
X107390170Y-79620000D01*
X107493519Y-79556668D01*
X107675030Y-79401643D01*
X107830055Y-79220132D01*
X107954776Y-79016605D01*
X108046124Y-78796073D01*
X108101848Y-78563966D01*
X108120576Y-78326000D01*
X108101848Y-78088034D01*
X108046124Y-77855927D01*
X107976580Y-77688033D01*
X107954778Y-77635399D01*
X107868288Y-77494260D01*
X107830055Y-77431868D01*
X107675030Y-77250357D01*
X107493519Y-77095332D01*
X107289992Y-76970611D01*
X107289991Y-76970610D01*
X107289987Y-76970608D01*
X107069455Y-76879261D01*
X106837349Y-76823538D01*
X106837350Y-76823538D01*
X106599387Y-76804811D01*
X106361423Y-76823538D01*
X106129318Y-76879261D01*
X105908786Y-76970608D01*
X105705254Y-77095332D01*
X105523744Y-77250357D01*
X105368719Y-77431867D01*
X105243995Y-77635399D01*
X105152648Y-77855931D01*
X105096925Y-78088036D01*
X105078198Y-78326000D01*
X103661581Y-78326000D01*
X101586787Y-76251206D01*
X99101116Y-73765535D01*
X105078699Y-73765535D01*
X105097420Y-74003418D01*
X105153129Y-74235460D01*
X105244443Y-74455913D01*
X105362616Y-74648751D01*
X106116309Y-73895058D01*
X106139894Y-73975379D01*
X106217626Y-74096333D01*
X106326287Y-74190487D01*
X106457072Y-74250215D01*
X106466853Y-74251621D01*
X105716169Y-75002304D01*
X105716169Y-75002305D01*
X105909008Y-75120478D01*
X106129462Y-75211792D01*
X106129459Y-75211792D01*
X106361503Y-75267501D01*
X106599387Y-75286222D01*
X106837270Y-75267501D01*
X107069312Y-75211792D01*
X107289761Y-75120479D01*
X107482603Y-75002304D01*
X106731921Y-74251621D01*
X106741702Y-74250215D01*
X106872487Y-74190487D01*
X106981148Y-74096333D01*
X107058880Y-73975379D01*
X107082463Y-73895058D01*
X107836156Y-74648751D01*
X107954331Y-74455909D01*
X108045644Y-74235460D01*
X108101353Y-74003418D01*
X108101779Y-73998007D01*
X191422306Y-73998007D01*
X191442261Y-74302461D01*
X191442262Y-74302471D01*
X191442263Y-74302478D01*
X191442265Y-74302488D01*
X191501789Y-74601738D01*
X191501793Y-74601753D01*
X191599870Y-74890678D01*
X191599879Y-74890699D01*
X191734828Y-75164348D01*
X191848098Y-75333869D01*
X191902105Y-75414696D01*
X191904350Y-75418055D01*
X192105535Y-75647464D01*
X192272189Y-75793615D01*
X192334946Y-75848651D01*
X192427510Y-75910500D01*
X192588651Y-76018171D01*
X192862300Y-76153120D01*
X192862305Y-76153122D01*
X192862317Y-76153128D01*
X193151254Y-76251209D01*
X193450522Y-76310737D01*
X193479763Y-76312653D01*
X193754993Y-76330694D01*
X193755000Y-76330694D01*
X193755007Y-76330694D01*
X193998756Y-76314716D01*
X194059478Y-76310737D01*
X194358746Y-76251209D01*
X194647683Y-76153128D01*
X194921347Y-76018172D01*
X195175054Y-75848651D01*
X195404464Y-75647464D01*
X195605651Y-75418054D01*
X195775172Y-75164347D01*
X195910128Y-74890683D01*
X196008209Y-74601746D01*
X196067737Y-74302478D01*
X196073349Y-74216861D01*
X196087694Y-73998007D01*
X196087694Y-73997992D01*
X196083565Y-73935001D01*
X246939454Y-73935001D01*
X246959613Y-74216866D01*
X247017034Y-74480821D01*
X247019680Y-74492984D01*
X247060243Y-74601738D01*
X247118432Y-74757750D01*
X247118434Y-74757754D01*
X247253855Y-75005758D01*
X247253860Y-75005766D01*
X247423196Y-75231974D01*
X247423212Y-75231992D01*
X247623007Y-75431787D01*
X247623025Y-75431803D01*
X247849233Y-75601139D01*
X247849241Y-75601144D01*
X248097245Y-75736565D01*
X248097249Y-75736567D01*
X248097251Y-75736568D01*
X248362016Y-75835320D01*
X248500077Y-75865353D01*
X248638133Y-75895386D01*
X248638135Y-75895386D01*
X248638139Y-75895387D01*
X248849447Y-75910500D01*
X248990553Y-75910500D01*
X249201861Y-75895387D01*
X249477984Y-75835320D01*
X249742749Y-75736568D01*
X249990764Y-75601141D01*
X250216982Y-75431797D01*
X250416797Y-75231982D01*
X250586141Y-75005764D01*
X250721568Y-74757749D01*
X250820320Y-74492984D01*
X250880387Y-74216861D01*
X250900546Y-73935000D01*
X250898624Y-73908133D01*
X250893567Y-73837424D01*
X250880387Y-73653139D01*
X250876332Y-73634500D01*
X250829901Y-73421059D01*
X250820320Y-73377016D01*
X250721568Y-73112251D01*
X250717772Y-73105300D01*
X250586144Y-72864241D01*
X250586139Y-72864233D01*
X250416803Y-72638025D01*
X250416787Y-72638007D01*
X250216992Y-72438212D01*
X250216974Y-72438196D01*
X249990766Y-72268860D01*
X249990758Y-72268855D01*
X249742754Y-72133434D01*
X249742750Y-72133432D01*
X249641014Y-72095487D01*
X249477984Y-72034680D01*
X249477980Y-72034679D01*
X249477977Y-72034678D01*
X249201866Y-71974613D01*
X248990553Y-71959500D01*
X248849447Y-71959500D01*
X248638133Y-71974613D01*
X248362022Y-72034678D01*
X248362017Y-72034679D01*
X248362016Y-72034680D01*
X248298003Y-72058555D01*
X248097249Y-72133432D01*
X248097245Y-72133434D01*
X247849241Y-72268855D01*
X247849233Y-72268860D01*
X247623025Y-72438196D01*
X247623007Y-72438212D01*
X247423212Y-72638007D01*
X247423196Y-72638025D01*
X247253860Y-72864233D01*
X247253855Y-72864241D01*
X247118434Y-73112245D01*
X247118432Y-73112249D01*
X247019678Y-73377022D01*
X246959613Y-73653133D01*
X246939454Y-73934998D01*
X246939454Y-73935001D01*
X196083565Y-73935001D01*
X196067738Y-73693538D01*
X196067737Y-73693522D01*
X196008209Y-73394254D01*
X195910128Y-73105317D01*
X195895254Y-73075156D01*
X195775171Y-72831651D01*
X195647908Y-72641189D01*
X195605651Y-72577946D01*
X195558918Y-72524657D01*
X195404464Y-72348535D01*
X195175055Y-72147350D01*
X195154228Y-72133434D01*
X195090869Y-72091098D01*
X194921348Y-71977828D01*
X194647699Y-71842879D01*
X194647678Y-71842870D01*
X194358753Y-71744793D01*
X194358747Y-71744791D01*
X194358746Y-71744791D01*
X194358744Y-71744790D01*
X194358738Y-71744789D01*
X194059488Y-71685265D01*
X194059478Y-71685263D01*
X194059471Y-71685262D01*
X194059461Y-71685261D01*
X193755007Y-71665306D01*
X193754993Y-71665306D01*
X193450538Y-71685261D01*
X193450526Y-71685262D01*
X193450522Y-71685263D01*
X193450514Y-71685264D01*
X193450511Y-71685265D01*
X193151261Y-71744789D01*
X193151246Y-71744793D01*
X192862321Y-71842870D01*
X192862300Y-71842879D01*
X192588651Y-71977828D01*
X192334944Y-72147350D01*
X192105535Y-72348535D01*
X191904350Y-72577944D01*
X191734828Y-72831651D01*
X191599879Y-73105300D01*
X191599870Y-73105321D01*
X191501793Y-73394246D01*
X191501789Y-73394261D01*
X191442265Y-73693511D01*
X191442261Y-73693538D01*
X191422306Y-73997992D01*
X191422306Y-73998007D01*
X108101779Y-73998007D01*
X108120074Y-73765535D01*
X108101353Y-73527651D01*
X108045644Y-73295609D01*
X107984366Y-73147669D01*
X152601117Y-73147669D01*
X152639816Y-73329741D01*
X152639818Y-73329747D01*
X152715527Y-73499788D01*
X152715526Y-73499788D01*
X152715527Y-73499789D01*
X152824937Y-73650379D01*
X152824938Y-73650380D01*
X152824939Y-73650381D01*
X152824941Y-73650384D01*
X152909086Y-73726147D01*
X152963266Y-73774931D01*
X153124468Y-73868001D01*
X153124470Y-73868001D01*
X153124473Y-73868003D01*
X153212982Y-73896761D01*
X153301497Y-73925521D01*
X153440206Y-73940100D01*
X153440211Y-73940100D01*
X153533023Y-73940100D01*
X153533028Y-73940100D01*
X153671737Y-73925521D01*
X153848766Y-73868001D01*
X154009968Y-73774931D01*
X154145232Y-73653139D01*
X154148292Y-73650384D01*
X154148292Y-73650382D01*
X154148297Y-73650379D01*
X154257707Y-73499789D01*
X154333417Y-73329742D01*
X154372117Y-73147670D01*
X154372117Y-73147669D01*
X161601099Y-73147669D01*
X161639798Y-73329741D01*
X161639800Y-73329747D01*
X161715509Y-73499788D01*
X161715508Y-73499788D01*
X161715509Y-73499789D01*
X161824919Y-73650379D01*
X161824920Y-73650380D01*
X161824921Y-73650381D01*
X161824923Y-73650384D01*
X161909068Y-73726147D01*
X161963248Y-73774931D01*
X162124450Y-73868001D01*
X162124452Y-73868001D01*
X162124455Y-73868003D01*
X162212964Y-73896761D01*
X162301479Y-73925521D01*
X162440188Y-73940100D01*
X162440193Y-73940100D01*
X162533005Y-73940100D01*
X162533010Y-73940100D01*
X162671719Y-73925521D01*
X162848748Y-73868001D01*
X163009950Y-73774931D01*
X163145214Y-73653139D01*
X163148274Y-73650384D01*
X163148274Y-73650382D01*
X163148279Y-73650379D01*
X163257689Y-73499789D01*
X163333399Y-73329742D01*
X163372099Y-73147670D01*
X163372099Y-72961530D01*
X163333399Y-72779458D01*
X163333397Y-72779452D01*
X163302985Y-72711147D01*
X163257689Y-72609411D01*
X163148279Y-72458821D01*
X163148276Y-72458818D01*
X163148274Y-72458815D01*
X163058135Y-72377655D01*
X163009950Y-72334269D01*
X162848748Y-72241199D01*
X162848742Y-72241196D01*
X162671723Y-72183680D01*
X162671721Y-72183679D01*
X162632087Y-72179513D01*
X162533010Y-72169100D01*
X162440188Y-72169100D01*
X162353494Y-72178211D01*
X162301476Y-72183679D01*
X162301474Y-72183680D01*
X162124455Y-72241196D01*
X162124449Y-72241199D01*
X161963249Y-72334268D01*
X161824923Y-72458815D01*
X161824921Y-72458818D01*
X161715508Y-72609411D01*
X161639800Y-72779452D01*
X161639798Y-72779458D01*
X161601099Y-72961530D01*
X161601099Y-73147669D01*
X154372117Y-73147669D01*
X154372117Y-72961530D01*
X154333417Y-72779458D01*
X154333415Y-72779452D01*
X154303003Y-72711147D01*
X154257707Y-72609411D01*
X154148297Y-72458821D01*
X154148294Y-72458818D01*
X154148292Y-72458815D01*
X154058153Y-72377655D01*
X154009968Y-72334269D01*
X153848766Y-72241199D01*
X153848760Y-72241196D01*
X153671741Y-72183680D01*
X153671739Y-72183679D01*
X153632105Y-72179513D01*
X153533028Y-72169100D01*
X153440206Y-72169100D01*
X153353512Y-72178211D01*
X153301494Y-72183679D01*
X153301492Y-72183680D01*
X153124473Y-72241196D01*
X153124467Y-72241199D01*
X152963267Y-72334268D01*
X152824941Y-72458815D01*
X152824939Y-72458818D01*
X152715526Y-72609411D01*
X152639818Y-72779452D01*
X152639816Y-72779458D01*
X152601117Y-72961530D01*
X152601117Y-73147669D01*
X107984366Y-73147669D01*
X107954330Y-73075156D01*
X107836156Y-72882317D01*
X107082463Y-73636010D01*
X107058880Y-73555691D01*
X106981148Y-73434737D01*
X106872487Y-73340583D01*
X106741702Y-73280855D01*
X106731920Y-73279448D01*
X107482603Y-72528764D01*
X107289765Y-72410591D01*
X107069311Y-72319277D01*
X107069314Y-72319277D01*
X106837270Y-72263568D01*
X106599387Y-72244847D01*
X106361503Y-72263568D01*
X106129461Y-72319277D01*
X105909008Y-72410591D01*
X105716169Y-72528764D01*
X106466854Y-73279448D01*
X106457072Y-73280855D01*
X106326287Y-73340583D01*
X106217626Y-73434737D01*
X106139894Y-73555691D01*
X106116310Y-73636011D01*
X105362616Y-72882317D01*
X105244443Y-73075156D01*
X105153129Y-73295609D01*
X105097420Y-73527651D01*
X105078699Y-73765535D01*
X99101116Y-73765535D01*
X96455581Y-71120000D01*
X111788811Y-71120000D01*
X111807538Y-71357963D01*
X111863261Y-71590068D01*
X111954608Y-71810600D01*
X111954610Y-71810604D01*
X111954611Y-71810605D01*
X112079332Y-72014132D01*
X112234357Y-72195643D01*
X112415868Y-72350668D01*
X112619395Y-72475389D01*
X112619397Y-72475389D01*
X112619399Y-72475391D01*
X112655586Y-72490380D01*
X112839927Y-72566737D01*
X113072034Y-72622461D01*
X113310000Y-72641189D01*
X113547966Y-72622461D01*
X113780073Y-72566737D01*
X114000605Y-72475389D01*
X114204132Y-72350668D01*
X114385643Y-72195643D01*
X114540668Y-72014132D01*
X114665389Y-71810605D01*
X114756737Y-71590073D01*
X114812461Y-71357966D01*
X114831189Y-71120000D01*
X146788811Y-71120000D01*
X146807538Y-71357963D01*
X146863261Y-71590068D01*
X146954608Y-71810600D01*
X146954610Y-71810604D01*
X146954611Y-71810605D01*
X147079332Y-72014132D01*
X147234357Y-72195643D01*
X147415868Y-72350668D01*
X147619395Y-72475389D01*
X147619397Y-72475389D01*
X147619399Y-72475391D01*
X147655586Y-72490380D01*
X147839927Y-72566737D01*
X148072034Y-72622461D01*
X148310000Y-72641189D01*
X148547966Y-72622461D01*
X148780073Y-72566737D01*
X149000605Y-72475389D01*
X149204132Y-72350668D01*
X149385643Y-72195643D01*
X149540668Y-72014132D01*
X149665389Y-71810605D01*
X149756737Y-71590073D01*
X149812461Y-71357966D01*
X149831189Y-71120000D01*
X149829190Y-71094601D01*
X155221286Y-71094601D01*
X155240508Y-71314314D01*
X155240510Y-71314324D01*
X155297591Y-71527355D01*
X155297596Y-71527369D01*
X155390804Y-71727254D01*
X155390808Y-71727262D01*
X155517313Y-71907930D01*
X155673270Y-72063887D01*
X155853938Y-72190392D01*
X155853940Y-72190393D01*
X155853943Y-72190395D01*
X155900591Y-72212147D01*
X156053831Y-72283604D01*
X156053833Y-72283604D01*
X156053838Y-72283607D01*
X156266881Y-72340692D01*
X156423823Y-72354422D01*
X156486599Y-72359915D01*
X156486601Y-72359915D01*
X156486603Y-72359915D01*
X156541660Y-72355098D01*
X156706321Y-72340692D01*
X156919364Y-72283607D01*
X157119259Y-72190395D01*
X157299930Y-72063888D01*
X157455889Y-71907929D01*
X157459711Y-71902470D01*
X158226100Y-71902470D01*
X158226101Y-71902476D01*
X158232508Y-71962083D01*
X158282802Y-72096928D01*
X158282806Y-72096935D01*
X158369052Y-72212144D01*
X158369055Y-72212147D01*
X158484264Y-72298393D01*
X158484271Y-72298397D01*
X158619117Y-72348691D01*
X158619116Y-72348691D01*
X158626044Y-72349435D01*
X158678727Y-72355100D01*
X160294472Y-72355099D01*
X160354083Y-72348691D01*
X160488931Y-72298396D01*
X160604146Y-72212146D01*
X160690396Y-72096931D01*
X160740691Y-71962083D01*
X160747100Y-71902473D01*
X160747099Y-70781363D01*
X267995387Y-70781363D01*
X268025013Y-71050613D01*
X268025015Y-71050624D01*
X268088808Y-71294634D01*
X268093528Y-71312688D01*
X268199470Y-71561990D01*
X268340579Y-71793205D01*
X268340586Y-71793215D01*
X268513853Y-72001419D01*
X268513859Y-72001424D01*
X268620452Y-72096931D01*
X268715598Y-72182182D01*
X268941510Y-72331644D01*
X269186776Y-72446620D01*
X269186783Y-72446622D01*
X269186785Y-72446623D01*
X269446157Y-72524657D01*
X269446164Y-72524658D01*
X269446169Y-72524660D01*
X269714161Y-72564100D01*
X269714166Y-72564100D01*
X269917236Y-72564100D01*
X269968733Y-72560330D01*
X270119756Y-72549277D01*
X270232358Y-72524193D01*
X270384146Y-72490382D01*
X270384148Y-72490381D01*
X270384153Y-72490380D01*
X270637158Y-72393614D01*
X270873377Y-72261041D01*
X271087777Y-72095488D01*
X271275786Y-71900481D01*
X271433399Y-71680179D01*
X271511971Y-71527355D01*
X271557249Y-71439290D01*
X271557251Y-71439284D01*
X271557256Y-71439275D01*
X271644718Y-71182905D01*
X271693919Y-70916533D01*
X271703812Y-70645835D01*
X271674186Y-70376582D01*
X271605672Y-70114512D01*
X271499730Y-69865210D01*
X271358618Y-69633990D01*
X271357445Y-69632581D01*
X271185346Y-69425780D01*
X271185340Y-69425775D01*
X270983602Y-69245018D01*
X270757692Y-69095557D01*
X270757690Y-69095556D01*
X270512424Y-68980580D01*
X270512419Y-68980578D01*
X270512414Y-68980576D01*
X270253042Y-68902542D01*
X270253028Y-68902539D01*
X270137391Y-68885521D01*
X269985039Y-68863100D01*
X269781969Y-68863100D01*
X269781964Y-68863100D01*
X269579444Y-68877923D01*
X269579431Y-68877925D01*
X269315053Y-68936817D01*
X269315046Y-68936820D01*
X269062039Y-69033587D01*
X268825826Y-69166157D01*
X268611422Y-69331712D01*
X268423422Y-69526709D01*
X268423416Y-69526716D01*
X268265802Y-69747019D01*
X268265799Y-69747024D01*
X268141950Y-69987909D01*
X268141943Y-69987927D01*
X268054484Y-70244285D01*
X268054481Y-70244299D01*
X268005281Y-70510668D01*
X268005280Y-70510675D01*
X267995387Y-70781363D01*
X160747099Y-70781363D01*
X160747099Y-70286728D01*
X160740691Y-70227117D01*
X160740225Y-70225868D01*
X160690397Y-70092271D01*
X160690393Y-70092264D01*
X160604147Y-69977055D01*
X160604144Y-69977052D01*
X160488935Y-69890806D01*
X160488928Y-69890802D01*
X160354082Y-69840508D01*
X160354083Y-69840508D01*
X160294483Y-69834101D01*
X160294481Y-69834100D01*
X160294473Y-69834100D01*
X160294464Y-69834100D01*
X158678729Y-69834100D01*
X158678723Y-69834101D01*
X158619116Y-69840508D01*
X158484271Y-69890802D01*
X158484264Y-69890806D01*
X158369055Y-69977052D01*
X158369052Y-69977055D01*
X158282806Y-70092264D01*
X158282802Y-70092271D01*
X158232508Y-70227117D01*
X158226101Y-70286716D01*
X158226101Y-70286723D01*
X158226100Y-70286735D01*
X158226100Y-71902470D01*
X157459711Y-71902470D01*
X157582396Y-71727258D01*
X157675608Y-71527363D01*
X157732693Y-71314320D01*
X157751916Y-71094600D01*
X157732693Y-70874880D01*
X157675608Y-70661837D01*
X157582396Y-70461943D01*
X157455889Y-70281271D01*
X157455887Y-70281268D01*
X157299931Y-70125312D01*
X157119263Y-69998807D01*
X157119255Y-69998803D01*
X156919370Y-69905595D01*
X156919356Y-69905590D01*
X156706325Y-69848509D01*
X156706323Y-69848508D01*
X156706321Y-69848508D01*
X156706319Y-69848507D01*
X156706315Y-69848507D01*
X156486603Y-69829285D01*
X156486599Y-69829285D01*
X156266886Y-69848507D01*
X156266876Y-69848509D01*
X156053845Y-69905590D01*
X156053836Y-69905594D01*
X155853945Y-69998804D01*
X155853943Y-69998805D01*
X155673269Y-70125313D01*
X155517314Y-70281268D01*
X155390806Y-70461942D01*
X155390805Y-70461944D01*
X155297595Y-70661835D01*
X155297591Y-70661844D01*
X155240510Y-70874875D01*
X155240508Y-70874885D01*
X155221286Y-71094598D01*
X155221286Y-71094601D01*
X149829190Y-71094601D01*
X149812461Y-70882034D01*
X149756737Y-70649927D01*
X149696735Y-70505071D01*
X149665391Y-70429399D01*
X149633027Y-70376586D01*
X149540668Y-70225868D01*
X149385643Y-70044357D01*
X149204132Y-69889332D01*
X149000605Y-69764611D01*
X149000604Y-69764610D01*
X149000600Y-69764608D01*
X148780068Y-69673261D01*
X148547962Y-69617538D01*
X148547963Y-69617538D01*
X148310000Y-69598811D01*
X148072036Y-69617538D01*
X147839931Y-69673261D01*
X147619399Y-69764608D01*
X147415867Y-69889332D01*
X147234357Y-70044357D01*
X147079332Y-70225867D01*
X146954608Y-70429399D01*
X146863261Y-70649931D01*
X146807538Y-70882036D01*
X146788811Y-71120000D01*
X114831189Y-71120000D01*
X114812461Y-70882034D01*
X114756737Y-70649927D01*
X114696735Y-70505071D01*
X114665391Y-70429399D01*
X114633027Y-70376586D01*
X114540668Y-70225868D01*
X114385643Y-70044357D01*
X114204132Y-69889332D01*
X114000605Y-69764611D01*
X114000604Y-69764610D01*
X114000600Y-69764608D01*
X113780068Y-69673261D01*
X113547962Y-69617538D01*
X113547963Y-69617538D01*
X113310000Y-69598811D01*
X113072036Y-69617538D01*
X112839931Y-69673261D01*
X112619399Y-69764608D01*
X112415867Y-69889332D01*
X112234357Y-70044357D01*
X112079332Y-70225867D01*
X111954608Y-70429399D01*
X111863261Y-70649931D01*
X111807538Y-70882036D01*
X111788811Y-71120000D01*
X96455581Y-71120000D01*
X92700929Y-67365348D01*
X92656448Y-67317409D01*
X92633988Y-67293202D01*
X92633987Y-67293200D01*
X92633979Y-67293194D01*
X92557020Y-67231821D01*
X92482397Y-67167602D01*
X92482395Y-67167601D01*
X92457506Y-67151961D01*
X92451832Y-67147936D01*
X92428856Y-67129613D01*
X92343602Y-67080392D01*
X92260251Y-67028019D01*
X92260241Y-67028014D01*
X92233304Y-67016261D01*
X92227094Y-67013126D01*
X92201645Y-66998432D01*
X92201641Y-66998431D01*
X92109999Y-66962464D01*
X92019776Y-66923100D01*
X92019768Y-66923098D01*
X91991382Y-66915491D01*
X91984777Y-66913317D01*
X91957420Y-66902581D01*
X91957411Y-66902579D01*
X91861430Y-66880671D01*
X91766349Y-66855194D01*
X91742674Y-66852527D01*
X91737140Y-66851903D01*
X91730285Y-66850738D01*
X91701629Y-66844197D01*
X91701624Y-66844196D01*
X91603460Y-66836841D01*
X91505635Y-66825818D01*
X91407269Y-66829500D01*
X52740964Y-66829500D01*
X52642596Y-66825818D01*
X52544772Y-66836841D01*
X52446608Y-66844196D01*
X52446605Y-66844197D01*
X52417936Y-66850739D01*
X52411082Y-66851903D01*
X52381884Y-66855194D01*
X52381882Y-66855194D01*
X52286804Y-66880671D01*
X52190817Y-66902579D01*
X52163448Y-66913320D01*
X52156841Y-66915494D01*
X52128462Y-66923098D01*
X52128461Y-66923098D01*
X52038231Y-66962465D01*
X51946590Y-66998431D01*
X51946587Y-66998433D01*
X51921137Y-67013125D01*
X51914932Y-67016257D01*
X51887995Y-67028011D01*
X51887974Y-67028022D01*
X51804619Y-67080398D01*
X51719375Y-67129614D01*
X51719374Y-67129615D01*
X51696400Y-67147935D01*
X51690731Y-67151958D01*
X51665836Y-67167601D01*
X51665831Y-67167605D01*
X51591212Y-67231821D01*
X51514252Y-67293194D01*
X51514249Y-67293197D01*
X51447303Y-67365348D01*
X43019035Y-75793615D01*
X42957712Y-75827100D01*
X42931354Y-75829934D01*
X42109928Y-75829934D01*
X42109922Y-75829935D01*
X42050315Y-75836342D01*
X41915470Y-75886636D01*
X41915463Y-75886640D01*
X41800254Y-75972886D01*
X41800251Y-75972889D01*
X41714005Y-76088098D01*
X41714001Y-76088105D01*
X41663707Y-76222951D01*
X41657300Y-76282550D01*
X41657299Y-76282569D01*
X41657299Y-79178304D01*
X40594990Y-79178304D01*
X40605542Y-79170405D01*
X40797771Y-78978176D01*
X40960687Y-78760547D01*
X41068030Y-78563963D01*
X41090969Y-78521953D01*
X41090969Y-78521951D01*
X41090972Y-78521947D01*
X41185975Y-78267235D01*
X41243761Y-78001594D01*
X41263155Y-77730434D01*
X41243761Y-77459274D01*
X41185975Y-77193633D01*
X41090972Y-76938921D01*
X41090970Y-76938918D01*
X41090969Y-76938914D01*
X40960690Y-76700326D01*
X40960689Y-76700325D01*
X40960687Y-76700321D01*
X40797771Y-76482692D01*
X40797766Y-76482687D01*
X40797761Y-76482681D01*
X40605552Y-76290472D01*
X40605546Y-76290467D01*
X40605542Y-76290463D01*
X40387913Y-76127547D01*
X40387908Y-76127544D01*
X40387907Y-76127543D01*
X40149318Y-75997264D01*
X40149319Y-75997264D01*
X40099720Y-75978764D01*
X39894601Y-75902259D01*
X39894594Y-75902257D01*
X39894593Y-75902257D01*
X39628967Y-75844474D01*
X39628960Y-75844473D01*
X39357801Y-75825079D01*
X39357799Y-75825079D01*
X39086639Y-75844473D01*
X39086632Y-75844474D01*
X38821006Y-75902257D01*
X38821002Y-75902258D01*
X38820999Y-75902259D01*
X38693643Y-75949760D01*
X38566280Y-75997264D01*
X38327692Y-76127543D01*
X38327691Y-76127544D01*
X38110059Y-76290462D01*
X38110047Y-76290472D01*
X37917838Y-76482681D01*
X37917828Y-76482693D01*
X37754910Y-76700325D01*
X37754909Y-76700326D01*
X37624630Y-76938914D01*
X37612809Y-76970608D01*
X37529625Y-77193633D01*
X37529624Y-77193636D01*
X37529623Y-77193640D01*
X37471840Y-77459266D01*
X37471839Y-77459273D01*
X37452445Y-77730432D01*
X37452445Y-77730435D01*
X22860000Y-77730435D01*
X22860000Y-73161623D01*
X37416300Y-73161623D01*
X37431963Y-73265535D01*
X37455404Y-73421051D01*
X37455405Y-73421053D01*
X37455406Y-73421059D01*
X37532738Y-73671762D01*
X37646567Y-73908132D01*
X37646568Y-73908133D01*
X37646570Y-73908136D01*
X37646572Y-73908140D01*
X37728717Y-74028624D01*
X37794367Y-74124915D01*
X37972814Y-74317237D01*
X37972818Y-74317240D01*
X37972819Y-74317241D01*
X38177943Y-74480822D01*
X38405157Y-74612004D01*
X38649384Y-74707856D01*
X38905170Y-74766238D01*
X38905176Y-74766238D01*
X38905179Y-74766239D01*
X39101300Y-74780936D01*
X39101306Y-74780936D01*
X39232300Y-74780936D01*
X39428420Y-74766239D01*
X39428422Y-74766238D01*
X39428430Y-74766238D01*
X39684216Y-74707856D01*
X39928443Y-74612004D01*
X40155657Y-74480822D01*
X40360781Y-74317241D01*
X40539233Y-74124915D01*
X40687028Y-73908140D01*
X40800863Y-73671759D01*
X40878196Y-73421051D01*
X40917300Y-73161618D01*
X40917300Y-72899254D01*
X40878196Y-72639821D01*
X40800863Y-72389113D01*
X40774451Y-72334268D01*
X40687032Y-72152739D01*
X40687031Y-72152738D01*
X40687030Y-72152737D01*
X40687028Y-72152732D01*
X40539233Y-71935957D01*
X40508167Y-71902476D01*
X40360785Y-71743634D01*
X40281216Y-71680180D01*
X40155657Y-71580050D01*
X39928443Y-71448868D01*
X39684216Y-71353016D01*
X39684211Y-71353014D01*
X39684202Y-71353012D01*
X39466618Y-71303350D01*
X39428430Y-71294634D01*
X39428429Y-71294633D01*
X39428425Y-71294633D01*
X39428420Y-71294632D01*
X39232300Y-71279936D01*
X39232294Y-71279936D01*
X39101306Y-71279936D01*
X39101300Y-71279936D01*
X38905179Y-71294632D01*
X38905174Y-71294633D01*
X38649397Y-71353012D01*
X38649378Y-71353018D01*
X38405156Y-71448868D01*
X38177943Y-71580050D01*
X37972814Y-71743634D01*
X37794367Y-71935956D01*
X37646568Y-72152738D01*
X37646567Y-72152739D01*
X37532738Y-72389109D01*
X37455406Y-72639812D01*
X37455405Y-72639817D01*
X37455404Y-72639821D01*
X37455198Y-72641188D01*
X37416300Y-72899248D01*
X37416300Y-73161623D01*
X22860000Y-73161623D01*
X22860000Y-70781363D01*
X26593787Y-70781363D01*
X26623413Y-71050613D01*
X26623415Y-71050624D01*
X26687208Y-71294634D01*
X26691928Y-71312688D01*
X26797870Y-71561990D01*
X26938979Y-71793205D01*
X26938986Y-71793215D01*
X27112253Y-72001419D01*
X27112259Y-72001424D01*
X27218852Y-72096931D01*
X27313998Y-72182182D01*
X27539910Y-72331644D01*
X27785176Y-72446620D01*
X27785183Y-72446622D01*
X27785185Y-72446623D01*
X28044557Y-72524657D01*
X28044564Y-72524658D01*
X28044569Y-72524660D01*
X28312561Y-72564100D01*
X28312566Y-72564100D01*
X28515636Y-72564100D01*
X28567133Y-72560330D01*
X28718156Y-72549277D01*
X28830758Y-72524193D01*
X28982546Y-72490382D01*
X28982548Y-72490381D01*
X28982553Y-72490380D01*
X29235558Y-72393614D01*
X29471777Y-72261041D01*
X29686177Y-72095488D01*
X29874186Y-71900481D01*
X30031799Y-71680179D01*
X30110371Y-71527355D01*
X30155649Y-71439290D01*
X30155651Y-71439284D01*
X30155656Y-71439275D01*
X30243118Y-71182905D01*
X30292319Y-70916533D01*
X30302212Y-70645835D01*
X30272586Y-70376582D01*
X30204072Y-70114512D01*
X30098130Y-69865210D01*
X29957018Y-69633990D01*
X29955845Y-69632581D01*
X29783746Y-69425780D01*
X29783740Y-69425775D01*
X29582002Y-69245018D01*
X29356092Y-69095557D01*
X29356090Y-69095556D01*
X29110824Y-68980580D01*
X29110819Y-68980578D01*
X29110814Y-68980576D01*
X28851442Y-68902542D01*
X28851428Y-68902539D01*
X28735791Y-68885521D01*
X28583439Y-68863100D01*
X28380369Y-68863100D01*
X28380364Y-68863100D01*
X28177844Y-68877923D01*
X28177831Y-68877925D01*
X27913453Y-68936817D01*
X27913446Y-68936820D01*
X27660439Y-69033587D01*
X27424226Y-69166157D01*
X27209822Y-69331712D01*
X27021822Y-69526709D01*
X27021816Y-69526716D01*
X26864202Y-69747019D01*
X26864199Y-69747024D01*
X26740350Y-69987909D01*
X26740343Y-69987927D01*
X26652884Y-70244285D01*
X26652881Y-70244299D01*
X26603681Y-70510668D01*
X26603680Y-70510675D01*
X26593787Y-70781363D01*
X22860000Y-70781363D01*
X22860000Y-66164000D01*
X22879685Y-66096961D01*
X22932489Y-66051206D01*
X22984000Y-66040000D01*
X276240500Y-66040000D01*
X276307539Y-66059685D01*
G37*
G04 #@! TD.AperFunction*
M02*
