%TF.GenerationSoftware,KiCad,Pcbnew,7.0.9*%
%TF.CreationDate,2024-04-22T21:03:58-07:00*%
%TF.ProjectId,AVcarrierBoard,41566361-7272-4696-9572-426f6172642e,rev?*%
%TF.SameCoordinates,Original*%
%TF.FileFunction,Drillmap*%
%TF.FilePolarity,Positive*%
%FSLAX45Y45*%
G04 Gerber Fmt 4.5, Leading zero omitted, Abs format (unit mm)*
G04 Created by KiCad (PCBNEW 7.0.9) date 2024-04-22 21:03:58*
%MOMM*%
%LPD*%
G01*
G04 APERTURE LIST*
%ADD10C,0.200000*%
%ADD11C,0.100000*%
%ADD12C,0.102000*%
%ADD13C,0.110000*%
%ADD14C,0.150000*%
%ADD15C,0.180000*%
%ADD16C,0.345440*%
G04 APERTURE END LIST*
D10*
X2276500Y-6557000D02*
X27636500Y-6557000D01*
X27636500Y-12457000D01*
X2276500Y-12457000D01*
X2276500Y-6557000D01*
D11*
X3623500Y-11372000D02*
X3723500Y-11472000D01*
X3723500Y-11372000D02*
X3623500Y-11472000D01*
X3623500Y-11880000D02*
X3723500Y-11980000D01*
X3723500Y-11880000D02*
X3623500Y-11980000D01*
X10609939Y-7326553D02*
X10709939Y-7426553D01*
X10709939Y-7326553D02*
X10609939Y-7426553D01*
X10609939Y-7782600D02*
X10709939Y-7882600D01*
X10709939Y-7782600D02*
X10609939Y-7882600D01*
X11281000Y-7062000D02*
X11381000Y-7162000D01*
X11381000Y-7062000D02*
X11281000Y-7162000D01*
X11281000Y-7912000D02*
X11381000Y-8012000D01*
X11381000Y-7912000D02*
X11281000Y-8012000D01*
X11677500Y-10756000D02*
X11777500Y-10856000D01*
X11777500Y-10756000D02*
X11677500Y-10856000D01*
X11677500Y-11102000D02*
X11777500Y-11202000D01*
X11777500Y-11102000D02*
X11677500Y-11202000D01*
X11677500Y-11448000D02*
X11777500Y-11548000D01*
X11777500Y-11448000D02*
X11677500Y-11548000D01*
X11677500Y-11794000D02*
X11777500Y-11894000D01*
X11777500Y-11794000D02*
X11677500Y-11894000D01*
X14687260Y-10336060D02*
X14787260Y-10436060D01*
X14787260Y-10336060D02*
X14687260Y-10436060D01*
X14687260Y-10653560D02*
X14787260Y-10753560D01*
X14787260Y-10653560D02*
X14687260Y-10753560D01*
X14687260Y-10971060D02*
X14787260Y-11071060D01*
X14787260Y-10971060D02*
X14687260Y-11071060D01*
X14687260Y-11288560D02*
X14787260Y-11388560D01*
X14787260Y-11288560D02*
X14687260Y-11388560D01*
X14687260Y-11606060D02*
X14787260Y-11706060D01*
X14787260Y-11606060D02*
X14687260Y-11706060D01*
X14687260Y-11923560D02*
X14787260Y-12023560D01*
X14787260Y-11923560D02*
X14687260Y-12023560D01*
X14781000Y-7062000D02*
X14881000Y-7162000D01*
X14881000Y-7062000D02*
X14781000Y-7162000D01*
X14781000Y-7912000D02*
X14881000Y-8012000D01*
X14881000Y-7912000D02*
X14781000Y-8012000D01*
D12*
X15687240Y-9144000D02*
G75*
G03*
X15687240Y-9144000I-51000J0D01*
G01*
X15699660Y-7109460D02*
G75*
G03*
X15699660Y-7109460I-51000J0D01*
G01*
X15702200Y-8112760D02*
G75*
G03*
X15702200Y-8112760I-51000J0D01*
G01*
X15987240Y-9144000D02*
G75*
G03*
X15987240Y-9144000I-51000J0D01*
G01*
X15999660Y-7109460D02*
G75*
G03*
X15999660Y-7109460I-51000J0D01*
G01*
X16002200Y-8112760D02*
G75*
G03*
X16002200Y-8112760I-51000J0D01*
G01*
D13*
X2946400Y-9617320D02*
X2946400Y-9727320D01*
X2891400Y-9672320D02*
X3001400Y-9672320D01*
X2946400Y-10125320D02*
X2946400Y-10235320D01*
X2891400Y-10180320D02*
X3001400Y-10180320D01*
X2946400Y-10633320D02*
X2946400Y-10743320D01*
X2891400Y-10688320D02*
X3001400Y-10688320D01*
X2946400Y-11141320D02*
X2946400Y-11251320D01*
X2891400Y-11196320D02*
X3001400Y-11196320D01*
X27065000Y-8758750D02*
X27065000Y-8868750D01*
X27010000Y-8813750D02*
X27120000Y-8813750D01*
X27065000Y-9266750D02*
X27065000Y-9376750D01*
X27010000Y-9321750D02*
X27120000Y-9321750D01*
X27065000Y-9774750D02*
X27065000Y-9884750D01*
X27010000Y-9829750D02*
X27120000Y-9829750D01*
X27065000Y-10282750D02*
X27065000Y-10392750D01*
X27010000Y-10337750D02*
X27120000Y-10337750D01*
D14*
X17414834Y-7793293D02*
X17414834Y-7687226D01*
X17308767Y-7687226D01*
X17308767Y-7793293D01*
X17414834Y-7793293D01*
X17639994Y-9557714D02*
X17639994Y-9451647D01*
X17533927Y-9451647D01*
X17533927Y-9557714D01*
X17639994Y-9557714D01*
X25175833Y-8130233D02*
X25175833Y-8024166D01*
X25069766Y-8024166D01*
X25069766Y-8130233D01*
X25175833Y-8130233D01*
D15*
X3935780Y-7863043D02*
X4025780Y-7773043D01*
X3935780Y-7683043D01*
X3845780Y-7773043D01*
X3935780Y-7863043D01*
X3935780Y-8283043D02*
X4025780Y-8193043D01*
X3935780Y-8103043D01*
X3845780Y-8193043D01*
X3935780Y-8283043D01*
X3935780Y-8703043D02*
X4025780Y-8613043D01*
X3935780Y-8523043D01*
X3845780Y-8613043D01*
X3935780Y-8703043D01*
X4355780Y-7863043D02*
X4445780Y-7773043D01*
X4355780Y-7683043D01*
X4265780Y-7773043D01*
X4355780Y-7863043D01*
X4355780Y-8283043D02*
X4445780Y-8193043D01*
X4355780Y-8103043D01*
X4265780Y-8193043D01*
X4355780Y-8283043D01*
X4355780Y-8703043D02*
X4445780Y-8613043D01*
X4355780Y-8523043D01*
X4265780Y-8613043D01*
X4355780Y-8703043D01*
D10*
X10822000Y-8790000D02*
X11022000Y-8990000D01*
X11022000Y-8790000D02*
X10822000Y-8990000D01*
X11022000Y-8890000D02*
G75*
G03*
X11022000Y-8890000I-100000J0D01*
G01*
X12145340Y-8823020D02*
X12345340Y-9023020D01*
X12345340Y-8823020D02*
X12145340Y-9023020D01*
X12345340Y-8923020D02*
G75*
G03*
X12345340Y-8923020I-100000J0D01*
G01*
D16*
X19202780Y-7227080D02*
X19548220Y-7572520D01*
X19548220Y-7227080D02*
X19202780Y-7572520D01*
X19375500Y-7227080D02*
X19375500Y-7572520D01*
X19202780Y-7399800D02*
X19548220Y-7399800D01*
X24727280Y-8827280D02*
X25072720Y-9172720D01*
X25072720Y-8827280D02*
X24727280Y-9172720D01*
X24900000Y-8827280D02*
X24900000Y-9172720D01*
X24727280Y-9000000D02*
X25072720Y-9000000D01*
D10*
X2527277Y-12778484D02*
X2527277Y-12578484D01*
X2527277Y-12578484D02*
X2574896Y-12578484D01*
X2574896Y-12578484D02*
X2603467Y-12588008D01*
X2603467Y-12588008D02*
X2622515Y-12607055D01*
X2622515Y-12607055D02*
X2632039Y-12626103D01*
X2632039Y-12626103D02*
X2641563Y-12664198D01*
X2641563Y-12664198D02*
X2641563Y-12692769D01*
X2641563Y-12692769D02*
X2632039Y-12730865D01*
X2632039Y-12730865D02*
X2622515Y-12749912D01*
X2622515Y-12749912D02*
X2603467Y-12768960D01*
X2603467Y-12768960D02*
X2574896Y-12778484D01*
X2574896Y-12778484D02*
X2527277Y-12778484D01*
X2727277Y-12778484D02*
X2727277Y-12645150D01*
X2727277Y-12683246D02*
X2736801Y-12664198D01*
X2736801Y-12664198D02*
X2746324Y-12654674D01*
X2746324Y-12654674D02*
X2765372Y-12645150D01*
X2765372Y-12645150D02*
X2784420Y-12645150D01*
X2851086Y-12778484D02*
X2851086Y-12645150D01*
X2851086Y-12578484D02*
X2841562Y-12588008D01*
X2841562Y-12588008D02*
X2851086Y-12597531D01*
X2851086Y-12597531D02*
X2860610Y-12588008D01*
X2860610Y-12588008D02*
X2851086Y-12578484D01*
X2851086Y-12578484D02*
X2851086Y-12597531D01*
X2974896Y-12778484D02*
X2955848Y-12768960D01*
X2955848Y-12768960D02*
X2946324Y-12749912D01*
X2946324Y-12749912D02*
X2946324Y-12578484D01*
X3079658Y-12778484D02*
X3060610Y-12768960D01*
X3060610Y-12768960D02*
X3051086Y-12749912D01*
X3051086Y-12749912D02*
X3051086Y-12578484D01*
X3308229Y-12778484D02*
X3308229Y-12578484D01*
X3308229Y-12578484D02*
X3374896Y-12721341D01*
X3374896Y-12721341D02*
X3441562Y-12578484D01*
X3441562Y-12578484D02*
X3441562Y-12778484D01*
X3622515Y-12778484D02*
X3622515Y-12673722D01*
X3622515Y-12673722D02*
X3612991Y-12654674D01*
X3612991Y-12654674D02*
X3593943Y-12645150D01*
X3593943Y-12645150D02*
X3555848Y-12645150D01*
X3555848Y-12645150D02*
X3536801Y-12654674D01*
X3622515Y-12768960D02*
X3603467Y-12778484D01*
X3603467Y-12778484D02*
X3555848Y-12778484D01*
X3555848Y-12778484D02*
X3536801Y-12768960D01*
X3536801Y-12768960D02*
X3527277Y-12749912D01*
X3527277Y-12749912D02*
X3527277Y-12730865D01*
X3527277Y-12730865D02*
X3536801Y-12711817D01*
X3536801Y-12711817D02*
X3555848Y-12702293D01*
X3555848Y-12702293D02*
X3603467Y-12702293D01*
X3603467Y-12702293D02*
X3622515Y-12692769D01*
X3717753Y-12645150D02*
X3717753Y-12845150D01*
X3717753Y-12654674D02*
X3736801Y-12645150D01*
X3736801Y-12645150D02*
X3774896Y-12645150D01*
X3774896Y-12645150D02*
X3793943Y-12654674D01*
X3793943Y-12654674D02*
X3803467Y-12664198D01*
X3803467Y-12664198D02*
X3812991Y-12683246D01*
X3812991Y-12683246D02*
X3812991Y-12740388D01*
X3812991Y-12740388D02*
X3803467Y-12759436D01*
X3803467Y-12759436D02*
X3793943Y-12768960D01*
X3793943Y-12768960D02*
X3774896Y-12778484D01*
X3774896Y-12778484D02*
X3736801Y-12778484D01*
X3736801Y-12778484D02*
X3717753Y-12768960D01*
X3898705Y-12759436D02*
X3908229Y-12768960D01*
X3908229Y-12768960D02*
X3898705Y-12778484D01*
X3898705Y-12778484D02*
X3889182Y-12768960D01*
X3889182Y-12768960D02*
X3898705Y-12759436D01*
X3898705Y-12759436D02*
X3898705Y-12778484D01*
X3898705Y-12654674D02*
X3908229Y-12664198D01*
X3908229Y-12664198D02*
X3898705Y-12673722D01*
X3898705Y-12673722D02*
X3889182Y-12664198D01*
X3889182Y-12664198D02*
X3898705Y-12654674D01*
X3898705Y-12654674D02*
X3898705Y-12673722D01*
D11*
X2166500Y-13057000D02*
X2266500Y-13157000D01*
X2266500Y-13057000D02*
X2166500Y-13157000D01*
D10*
X2632039Y-13198484D02*
X2517753Y-13198484D01*
X2574896Y-13198484D02*
X2574896Y-12998484D01*
X2574896Y-12998484D02*
X2555848Y-13027055D01*
X2555848Y-13027055D02*
X2536801Y-13046103D01*
X2536801Y-13046103D02*
X2517753Y-13055627D01*
X2717753Y-13179436D02*
X2727277Y-13188960D01*
X2727277Y-13188960D02*
X2717753Y-13198484D01*
X2717753Y-13198484D02*
X2708229Y-13188960D01*
X2708229Y-13188960D02*
X2717753Y-13179436D01*
X2717753Y-13179436D02*
X2717753Y-13198484D01*
X2851086Y-12998484D02*
X2870134Y-12998484D01*
X2870134Y-12998484D02*
X2889182Y-13008008D01*
X2889182Y-13008008D02*
X2898705Y-13017531D01*
X2898705Y-13017531D02*
X2908229Y-13036579D01*
X2908229Y-13036579D02*
X2917753Y-13074674D01*
X2917753Y-13074674D02*
X2917753Y-13122293D01*
X2917753Y-13122293D02*
X2908229Y-13160388D01*
X2908229Y-13160388D02*
X2898705Y-13179436D01*
X2898705Y-13179436D02*
X2889182Y-13188960D01*
X2889182Y-13188960D02*
X2870134Y-13198484D01*
X2870134Y-13198484D02*
X2851086Y-13198484D01*
X2851086Y-13198484D02*
X2832039Y-13188960D01*
X2832039Y-13188960D02*
X2822515Y-13179436D01*
X2822515Y-13179436D02*
X2812991Y-13160388D01*
X2812991Y-13160388D02*
X2803467Y-13122293D01*
X2803467Y-13122293D02*
X2803467Y-13074674D01*
X2803467Y-13074674D02*
X2812991Y-13036579D01*
X2812991Y-13036579D02*
X2822515Y-13017531D01*
X2822515Y-13017531D02*
X2832039Y-13008008D01*
X2832039Y-13008008D02*
X2851086Y-12998484D01*
X3041562Y-12998484D02*
X3060610Y-12998484D01*
X3060610Y-12998484D02*
X3079658Y-13008008D01*
X3079658Y-13008008D02*
X3089182Y-13017531D01*
X3089182Y-13017531D02*
X3098705Y-13036579D01*
X3098705Y-13036579D02*
X3108229Y-13074674D01*
X3108229Y-13074674D02*
X3108229Y-13122293D01*
X3108229Y-13122293D02*
X3098705Y-13160388D01*
X3098705Y-13160388D02*
X3089182Y-13179436D01*
X3089182Y-13179436D02*
X3079658Y-13188960D01*
X3079658Y-13188960D02*
X3060610Y-13198484D01*
X3060610Y-13198484D02*
X3041562Y-13198484D01*
X3041562Y-13198484D02*
X3022515Y-13188960D01*
X3022515Y-13188960D02*
X3012991Y-13179436D01*
X3012991Y-13179436D02*
X3003467Y-13160388D01*
X3003467Y-13160388D02*
X2993943Y-13122293D01*
X2993943Y-13122293D02*
X2993943Y-13074674D01*
X2993943Y-13074674D02*
X3003467Y-13036579D01*
X3003467Y-13036579D02*
X3012991Y-13017531D01*
X3012991Y-13017531D02*
X3022515Y-13008008D01*
X3022515Y-13008008D02*
X3041562Y-12998484D01*
X3232039Y-12998484D02*
X3251086Y-12998484D01*
X3251086Y-12998484D02*
X3270134Y-13008008D01*
X3270134Y-13008008D02*
X3279658Y-13017531D01*
X3279658Y-13017531D02*
X3289182Y-13036579D01*
X3289182Y-13036579D02*
X3298705Y-13074674D01*
X3298705Y-13074674D02*
X3298705Y-13122293D01*
X3298705Y-13122293D02*
X3289182Y-13160388D01*
X3289182Y-13160388D02*
X3279658Y-13179436D01*
X3279658Y-13179436D02*
X3270134Y-13188960D01*
X3270134Y-13188960D02*
X3251086Y-13198484D01*
X3251086Y-13198484D02*
X3232039Y-13198484D01*
X3232039Y-13198484D02*
X3212991Y-13188960D01*
X3212991Y-13188960D02*
X3203467Y-13179436D01*
X3203467Y-13179436D02*
X3193943Y-13160388D01*
X3193943Y-13160388D02*
X3184420Y-13122293D01*
X3184420Y-13122293D02*
X3184420Y-13074674D01*
X3184420Y-13074674D02*
X3193943Y-13036579D01*
X3193943Y-13036579D02*
X3203467Y-13017531D01*
X3203467Y-13017531D02*
X3212991Y-13008008D01*
X3212991Y-13008008D02*
X3232039Y-12998484D01*
X3384420Y-13198484D02*
X3384420Y-13065150D01*
X3384420Y-13084198D02*
X3393943Y-13074674D01*
X3393943Y-13074674D02*
X3412991Y-13065150D01*
X3412991Y-13065150D02*
X3441563Y-13065150D01*
X3441563Y-13065150D02*
X3460610Y-13074674D01*
X3460610Y-13074674D02*
X3470134Y-13093722D01*
X3470134Y-13093722D02*
X3470134Y-13198484D01*
X3470134Y-13093722D02*
X3479658Y-13074674D01*
X3479658Y-13074674D02*
X3498705Y-13065150D01*
X3498705Y-13065150D02*
X3527277Y-13065150D01*
X3527277Y-13065150D02*
X3546324Y-13074674D01*
X3546324Y-13074674D02*
X3555848Y-13093722D01*
X3555848Y-13093722D02*
X3555848Y-13198484D01*
X3651086Y-13198484D02*
X3651086Y-13065150D01*
X3651086Y-13084198D02*
X3660610Y-13074674D01*
X3660610Y-13074674D02*
X3679658Y-13065150D01*
X3679658Y-13065150D02*
X3708229Y-13065150D01*
X3708229Y-13065150D02*
X3727277Y-13074674D01*
X3727277Y-13074674D02*
X3736801Y-13093722D01*
X3736801Y-13093722D02*
X3736801Y-13198484D01*
X3736801Y-13093722D02*
X3746324Y-13074674D01*
X3746324Y-13074674D02*
X3765372Y-13065150D01*
X3765372Y-13065150D02*
X3793943Y-13065150D01*
X3793943Y-13065150D02*
X3812991Y-13074674D01*
X3812991Y-13074674D02*
X3822515Y-13093722D01*
X3822515Y-13093722D02*
X3822515Y-13198484D01*
X4212991Y-12988960D02*
X4041563Y-13246103D01*
X4470134Y-12998484D02*
X4489182Y-12998484D01*
X4489182Y-12998484D02*
X4508229Y-13008008D01*
X4508229Y-13008008D02*
X4517753Y-13017531D01*
X4517753Y-13017531D02*
X4527277Y-13036579D01*
X4527277Y-13036579D02*
X4536801Y-13074674D01*
X4536801Y-13074674D02*
X4536801Y-13122293D01*
X4536801Y-13122293D02*
X4527277Y-13160388D01*
X4527277Y-13160388D02*
X4517753Y-13179436D01*
X4517753Y-13179436D02*
X4508229Y-13188960D01*
X4508229Y-13188960D02*
X4489182Y-13198484D01*
X4489182Y-13198484D02*
X4470134Y-13198484D01*
X4470134Y-13198484D02*
X4451087Y-13188960D01*
X4451087Y-13188960D02*
X4441563Y-13179436D01*
X4441563Y-13179436D02*
X4432039Y-13160388D01*
X4432039Y-13160388D02*
X4422515Y-13122293D01*
X4422515Y-13122293D02*
X4422515Y-13074674D01*
X4422515Y-13074674D02*
X4432039Y-13036579D01*
X4432039Y-13036579D02*
X4441563Y-13017531D01*
X4441563Y-13017531D02*
X4451087Y-13008008D01*
X4451087Y-13008008D02*
X4470134Y-12998484D01*
X4622515Y-13179436D02*
X4632039Y-13188960D01*
X4632039Y-13188960D02*
X4622515Y-13198484D01*
X4622515Y-13198484D02*
X4612991Y-13188960D01*
X4612991Y-13188960D02*
X4622515Y-13179436D01*
X4622515Y-13179436D02*
X4622515Y-13198484D01*
X4755848Y-12998484D02*
X4774896Y-12998484D01*
X4774896Y-12998484D02*
X4793944Y-13008008D01*
X4793944Y-13008008D02*
X4803468Y-13017531D01*
X4803468Y-13017531D02*
X4812991Y-13036579D01*
X4812991Y-13036579D02*
X4822515Y-13074674D01*
X4822515Y-13074674D02*
X4822515Y-13122293D01*
X4822515Y-13122293D02*
X4812991Y-13160388D01*
X4812991Y-13160388D02*
X4803468Y-13179436D01*
X4803468Y-13179436D02*
X4793944Y-13188960D01*
X4793944Y-13188960D02*
X4774896Y-13198484D01*
X4774896Y-13198484D02*
X4755848Y-13198484D01*
X4755848Y-13198484D02*
X4736801Y-13188960D01*
X4736801Y-13188960D02*
X4727277Y-13179436D01*
X4727277Y-13179436D02*
X4717753Y-13160388D01*
X4717753Y-13160388D02*
X4708229Y-13122293D01*
X4708229Y-13122293D02*
X4708229Y-13074674D01*
X4708229Y-13074674D02*
X4717753Y-13036579D01*
X4717753Y-13036579D02*
X4727277Y-13017531D01*
X4727277Y-13017531D02*
X4736801Y-13008008D01*
X4736801Y-13008008D02*
X4755848Y-12998484D01*
X4889182Y-12998484D02*
X5012991Y-12998484D01*
X5012991Y-12998484D02*
X4946325Y-13074674D01*
X4946325Y-13074674D02*
X4974896Y-13074674D01*
X4974896Y-13074674D02*
X4993944Y-13084198D01*
X4993944Y-13084198D02*
X5003468Y-13093722D01*
X5003468Y-13093722D02*
X5012991Y-13112769D01*
X5012991Y-13112769D02*
X5012991Y-13160388D01*
X5012991Y-13160388D02*
X5003468Y-13179436D01*
X5003468Y-13179436D02*
X4993944Y-13188960D01*
X4993944Y-13188960D02*
X4974896Y-13198484D01*
X4974896Y-13198484D02*
X4917753Y-13198484D01*
X4917753Y-13198484D02*
X4898706Y-13188960D01*
X4898706Y-13188960D02*
X4889182Y-13179436D01*
X5108229Y-13198484D02*
X5146325Y-13198484D01*
X5146325Y-13198484D02*
X5165372Y-13188960D01*
X5165372Y-13188960D02*
X5174896Y-13179436D01*
X5174896Y-13179436D02*
X5193944Y-13150865D01*
X5193944Y-13150865D02*
X5203468Y-13112769D01*
X5203468Y-13112769D02*
X5203468Y-13036579D01*
X5203468Y-13036579D02*
X5193944Y-13017531D01*
X5193944Y-13017531D02*
X5184420Y-13008008D01*
X5184420Y-13008008D02*
X5165372Y-12998484D01*
X5165372Y-12998484D02*
X5127277Y-12998484D01*
X5127277Y-12998484D02*
X5108229Y-13008008D01*
X5108229Y-13008008D02*
X5098706Y-13017531D01*
X5098706Y-13017531D02*
X5089182Y-13036579D01*
X5089182Y-13036579D02*
X5089182Y-13084198D01*
X5089182Y-13084198D02*
X5098706Y-13103246D01*
X5098706Y-13103246D02*
X5108229Y-13112769D01*
X5108229Y-13112769D02*
X5127277Y-13122293D01*
X5127277Y-13122293D02*
X5165372Y-13122293D01*
X5165372Y-13122293D02*
X5184420Y-13112769D01*
X5184420Y-13112769D02*
X5193944Y-13103246D01*
X5193944Y-13103246D02*
X5203468Y-13084198D01*
X5374896Y-13065150D02*
X5374896Y-13198484D01*
X5327277Y-12988960D02*
X5279658Y-13131817D01*
X5279658Y-13131817D02*
X5403468Y-13131817D01*
X5470134Y-12998484D02*
X5470134Y-13036579D01*
X5546325Y-12998484D02*
X5546325Y-13036579D01*
X5841563Y-13274674D02*
X5832039Y-13265150D01*
X5832039Y-13265150D02*
X5812991Y-13236579D01*
X5812991Y-13236579D02*
X5803468Y-13217531D01*
X5803468Y-13217531D02*
X5793944Y-13188960D01*
X5793944Y-13188960D02*
X5784420Y-13141341D01*
X5784420Y-13141341D02*
X5784420Y-13103246D01*
X5784420Y-13103246D02*
X5793944Y-13055627D01*
X5793944Y-13055627D02*
X5803468Y-13027055D01*
X5803468Y-13027055D02*
X5812991Y-13008008D01*
X5812991Y-13008008D02*
X5832039Y-12979436D01*
X5832039Y-12979436D02*
X5841563Y-12969912D01*
X6022515Y-13198484D02*
X5908229Y-13198484D01*
X5965372Y-13198484D02*
X5965372Y-12998484D01*
X5965372Y-12998484D02*
X5946325Y-13027055D01*
X5946325Y-13027055D02*
X5927277Y-13046103D01*
X5927277Y-13046103D02*
X5908229Y-13055627D01*
X6136801Y-13084198D02*
X6117753Y-13074674D01*
X6117753Y-13074674D02*
X6108229Y-13065150D01*
X6108229Y-13065150D02*
X6098706Y-13046103D01*
X6098706Y-13046103D02*
X6098706Y-13036579D01*
X6098706Y-13036579D02*
X6108229Y-13017531D01*
X6108229Y-13017531D02*
X6117753Y-13008008D01*
X6117753Y-13008008D02*
X6136801Y-12998484D01*
X6136801Y-12998484D02*
X6174896Y-12998484D01*
X6174896Y-12998484D02*
X6193944Y-13008008D01*
X6193944Y-13008008D02*
X6203468Y-13017531D01*
X6203468Y-13017531D02*
X6212991Y-13036579D01*
X6212991Y-13036579D02*
X6212991Y-13046103D01*
X6212991Y-13046103D02*
X6203468Y-13065150D01*
X6203468Y-13065150D02*
X6193944Y-13074674D01*
X6193944Y-13074674D02*
X6174896Y-13084198D01*
X6174896Y-13084198D02*
X6136801Y-13084198D01*
X6136801Y-13084198D02*
X6117753Y-13093722D01*
X6117753Y-13093722D02*
X6108229Y-13103246D01*
X6108229Y-13103246D02*
X6098706Y-13122293D01*
X6098706Y-13122293D02*
X6098706Y-13160388D01*
X6098706Y-13160388D02*
X6108229Y-13179436D01*
X6108229Y-13179436D02*
X6117753Y-13188960D01*
X6117753Y-13188960D02*
X6136801Y-13198484D01*
X6136801Y-13198484D02*
X6174896Y-13198484D01*
X6174896Y-13198484D02*
X6193944Y-13188960D01*
X6193944Y-13188960D02*
X6203468Y-13179436D01*
X6203468Y-13179436D02*
X6212991Y-13160388D01*
X6212991Y-13160388D02*
X6212991Y-13122293D01*
X6212991Y-13122293D02*
X6203468Y-13103246D01*
X6203468Y-13103246D02*
X6193944Y-13093722D01*
X6193944Y-13093722D02*
X6174896Y-13084198D01*
X6451087Y-13198484D02*
X6451087Y-12998484D01*
X6536801Y-13198484D02*
X6536801Y-13093722D01*
X6536801Y-13093722D02*
X6527277Y-13074674D01*
X6527277Y-13074674D02*
X6508230Y-13065150D01*
X6508230Y-13065150D02*
X6479658Y-13065150D01*
X6479658Y-13065150D02*
X6460610Y-13074674D01*
X6460610Y-13074674D02*
X6451087Y-13084198D01*
X6660610Y-13198484D02*
X6641563Y-13188960D01*
X6641563Y-13188960D02*
X6632039Y-13179436D01*
X6632039Y-13179436D02*
X6622515Y-13160388D01*
X6622515Y-13160388D02*
X6622515Y-13103246D01*
X6622515Y-13103246D02*
X6632039Y-13084198D01*
X6632039Y-13084198D02*
X6641563Y-13074674D01*
X6641563Y-13074674D02*
X6660610Y-13065150D01*
X6660610Y-13065150D02*
X6689182Y-13065150D01*
X6689182Y-13065150D02*
X6708230Y-13074674D01*
X6708230Y-13074674D02*
X6717753Y-13084198D01*
X6717753Y-13084198D02*
X6727277Y-13103246D01*
X6727277Y-13103246D02*
X6727277Y-13160388D01*
X6727277Y-13160388D02*
X6717753Y-13179436D01*
X6717753Y-13179436D02*
X6708230Y-13188960D01*
X6708230Y-13188960D02*
X6689182Y-13198484D01*
X6689182Y-13198484D02*
X6660610Y-13198484D01*
X6841563Y-13198484D02*
X6822515Y-13188960D01*
X6822515Y-13188960D02*
X6812991Y-13169912D01*
X6812991Y-13169912D02*
X6812991Y-12998484D01*
X6993944Y-13188960D02*
X6974896Y-13198484D01*
X6974896Y-13198484D02*
X6936801Y-13198484D01*
X6936801Y-13198484D02*
X6917753Y-13188960D01*
X6917753Y-13188960D02*
X6908230Y-13169912D01*
X6908230Y-13169912D02*
X6908230Y-13093722D01*
X6908230Y-13093722D02*
X6917753Y-13074674D01*
X6917753Y-13074674D02*
X6936801Y-13065150D01*
X6936801Y-13065150D02*
X6974896Y-13065150D01*
X6974896Y-13065150D02*
X6993944Y-13074674D01*
X6993944Y-13074674D02*
X7003468Y-13093722D01*
X7003468Y-13093722D02*
X7003468Y-13112769D01*
X7003468Y-13112769D02*
X6908230Y-13131817D01*
X7079658Y-13188960D02*
X7098706Y-13198484D01*
X7098706Y-13198484D02*
X7136801Y-13198484D01*
X7136801Y-13198484D02*
X7155849Y-13188960D01*
X7155849Y-13188960D02*
X7165372Y-13169912D01*
X7165372Y-13169912D02*
X7165372Y-13160388D01*
X7165372Y-13160388D02*
X7155849Y-13141341D01*
X7155849Y-13141341D02*
X7136801Y-13131817D01*
X7136801Y-13131817D02*
X7108230Y-13131817D01*
X7108230Y-13131817D02*
X7089182Y-13122293D01*
X7089182Y-13122293D02*
X7079658Y-13103246D01*
X7079658Y-13103246D02*
X7079658Y-13093722D01*
X7079658Y-13093722D02*
X7089182Y-13074674D01*
X7089182Y-13074674D02*
X7108230Y-13065150D01*
X7108230Y-13065150D02*
X7136801Y-13065150D01*
X7136801Y-13065150D02*
X7155849Y-13074674D01*
X7232039Y-13274674D02*
X7241563Y-13265150D01*
X7241563Y-13265150D02*
X7260611Y-13236579D01*
X7260611Y-13236579D02*
X7270134Y-13217531D01*
X7270134Y-13217531D02*
X7279658Y-13188960D01*
X7279658Y-13188960D02*
X7289182Y-13141341D01*
X7289182Y-13141341D02*
X7289182Y-13103246D01*
X7289182Y-13103246D02*
X7279658Y-13055627D01*
X7279658Y-13055627D02*
X7270134Y-13027055D01*
X7270134Y-13027055D02*
X7260611Y-13008008D01*
X7260611Y-13008008D02*
X7241563Y-12979436D01*
X7241563Y-12979436D02*
X7232039Y-12969912D01*
D12*
X2266500Y-13371000D02*
G75*
G03*
X2266500Y-13371000I-51000J0D01*
G01*
D10*
X2632039Y-13462484D02*
X2517753Y-13462484D01*
X2574896Y-13462484D02*
X2574896Y-13262484D01*
X2574896Y-13262484D02*
X2555848Y-13291055D01*
X2555848Y-13291055D02*
X2536801Y-13310103D01*
X2536801Y-13310103D02*
X2517753Y-13319627D01*
X2717753Y-13443436D02*
X2727277Y-13452960D01*
X2727277Y-13452960D02*
X2717753Y-13462484D01*
X2717753Y-13462484D02*
X2708229Y-13452960D01*
X2708229Y-13452960D02*
X2717753Y-13443436D01*
X2717753Y-13443436D02*
X2717753Y-13462484D01*
X2851086Y-13262484D02*
X2870134Y-13262484D01*
X2870134Y-13262484D02*
X2889182Y-13272008D01*
X2889182Y-13272008D02*
X2898705Y-13281531D01*
X2898705Y-13281531D02*
X2908229Y-13300579D01*
X2908229Y-13300579D02*
X2917753Y-13338674D01*
X2917753Y-13338674D02*
X2917753Y-13386293D01*
X2917753Y-13386293D02*
X2908229Y-13424388D01*
X2908229Y-13424388D02*
X2898705Y-13443436D01*
X2898705Y-13443436D02*
X2889182Y-13452960D01*
X2889182Y-13452960D02*
X2870134Y-13462484D01*
X2870134Y-13462484D02*
X2851086Y-13462484D01*
X2851086Y-13462484D02*
X2832039Y-13452960D01*
X2832039Y-13452960D02*
X2822515Y-13443436D01*
X2822515Y-13443436D02*
X2812991Y-13424388D01*
X2812991Y-13424388D02*
X2803467Y-13386293D01*
X2803467Y-13386293D02*
X2803467Y-13338674D01*
X2803467Y-13338674D02*
X2812991Y-13300579D01*
X2812991Y-13300579D02*
X2822515Y-13281531D01*
X2822515Y-13281531D02*
X2832039Y-13272008D01*
X2832039Y-13272008D02*
X2851086Y-13262484D01*
X2993943Y-13281531D02*
X3003467Y-13272008D01*
X3003467Y-13272008D02*
X3022515Y-13262484D01*
X3022515Y-13262484D02*
X3070134Y-13262484D01*
X3070134Y-13262484D02*
X3089182Y-13272008D01*
X3089182Y-13272008D02*
X3098705Y-13281531D01*
X3098705Y-13281531D02*
X3108229Y-13300579D01*
X3108229Y-13300579D02*
X3108229Y-13319627D01*
X3108229Y-13319627D02*
X3098705Y-13348198D01*
X3098705Y-13348198D02*
X2984420Y-13462484D01*
X2984420Y-13462484D02*
X3108229Y-13462484D01*
X3232039Y-13262484D02*
X3251086Y-13262484D01*
X3251086Y-13262484D02*
X3270134Y-13272008D01*
X3270134Y-13272008D02*
X3279658Y-13281531D01*
X3279658Y-13281531D02*
X3289182Y-13300579D01*
X3289182Y-13300579D02*
X3298705Y-13338674D01*
X3298705Y-13338674D02*
X3298705Y-13386293D01*
X3298705Y-13386293D02*
X3289182Y-13424388D01*
X3289182Y-13424388D02*
X3279658Y-13443436D01*
X3279658Y-13443436D02*
X3270134Y-13452960D01*
X3270134Y-13452960D02*
X3251086Y-13462484D01*
X3251086Y-13462484D02*
X3232039Y-13462484D01*
X3232039Y-13462484D02*
X3212991Y-13452960D01*
X3212991Y-13452960D02*
X3203467Y-13443436D01*
X3203467Y-13443436D02*
X3193943Y-13424388D01*
X3193943Y-13424388D02*
X3184420Y-13386293D01*
X3184420Y-13386293D02*
X3184420Y-13338674D01*
X3184420Y-13338674D02*
X3193943Y-13300579D01*
X3193943Y-13300579D02*
X3203467Y-13281531D01*
X3203467Y-13281531D02*
X3212991Y-13272008D01*
X3212991Y-13272008D02*
X3232039Y-13262484D01*
X3384420Y-13462484D02*
X3384420Y-13329150D01*
X3384420Y-13348198D02*
X3393943Y-13338674D01*
X3393943Y-13338674D02*
X3412991Y-13329150D01*
X3412991Y-13329150D02*
X3441563Y-13329150D01*
X3441563Y-13329150D02*
X3460610Y-13338674D01*
X3460610Y-13338674D02*
X3470134Y-13357722D01*
X3470134Y-13357722D02*
X3470134Y-13462484D01*
X3470134Y-13357722D02*
X3479658Y-13338674D01*
X3479658Y-13338674D02*
X3498705Y-13329150D01*
X3498705Y-13329150D02*
X3527277Y-13329150D01*
X3527277Y-13329150D02*
X3546324Y-13338674D01*
X3546324Y-13338674D02*
X3555848Y-13357722D01*
X3555848Y-13357722D02*
X3555848Y-13462484D01*
X3651086Y-13462484D02*
X3651086Y-13329150D01*
X3651086Y-13348198D02*
X3660610Y-13338674D01*
X3660610Y-13338674D02*
X3679658Y-13329150D01*
X3679658Y-13329150D02*
X3708229Y-13329150D01*
X3708229Y-13329150D02*
X3727277Y-13338674D01*
X3727277Y-13338674D02*
X3736801Y-13357722D01*
X3736801Y-13357722D02*
X3736801Y-13462484D01*
X3736801Y-13357722D02*
X3746324Y-13338674D01*
X3746324Y-13338674D02*
X3765372Y-13329150D01*
X3765372Y-13329150D02*
X3793943Y-13329150D01*
X3793943Y-13329150D02*
X3812991Y-13338674D01*
X3812991Y-13338674D02*
X3822515Y-13357722D01*
X3822515Y-13357722D02*
X3822515Y-13462484D01*
X4212991Y-13252960D02*
X4041563Y-13510103D01*
X4470134Y-13262484D02*
X4489182Y-13262484D01*
X4489182Y-13262484D02*
X4508229Y-13272008D01*
X4508229Y-13272008D02*
X4517753Y-13281531D01*
X4517753Y-13281531D02*
X4527277Y-13300579D01*
X4527277Y-13300579D02*
X4536801Y-13338674D01*
X4536801Y-13338674D02*
X4536801Y-13386293D01*
X4536801Y-13386293D02*
X4527277Y-13424388D01*
X4527277Y-13424388D02*
X4517753Y-13443436D01*
X4517753Y-13443436D02*
X4508229Y-13452960D01*
X4508229Y-13452960D02*
X4489182Y-13462484D01*
X4489182Y-13462484D02*
X4470134Y-13462484D01*
X4470134Y-13462484D02*
X4451087Y-13452960D01*
X4451087Y-13452960D02*
X4441563Y-13443436D01*
X4441563Y-13443436D02*
X4432039Y-13424388D01*
X4432039Y-13424388D02*
X4422515Y-13386293D01*
X4422515Y-13386293D02*
X4422515Y-13338674D01*
X4422515Y-13338674D02*
X4432039Y-13300579D01*
X4432039Y-13300579D02*
X4441563Y-13281531D01*
X4441563Y-13281531D02*
X4451087Y-13272008D01*
X4451087Y-13272008D02*
X4470134Y-13262484D01*
X4622515Y-13443436D02*
X4632039Y-13452960D01*
X4632039Y-13452960D02*
X4622515Y-13462484D01*
X4622515Y-13462484D02*
X4612991Y-13452960D01*
X4612991Y-13452960D02*
X4622515Y-13443436D01*
X4622515Y-13443436D02*
X4622515Y-13462484D01*
X4755848Y-13262484D02*
X4774896Y-13262484D01*
X4774896Y-13262484D02*
X4793944Y-13272008D01*
X4793944Y-13272008D02*
X4803468Y-13281531D01*
X4803468Y-13281531D02*
X4812991Y-13300579D01*
X4812991Y-13300579D02*
X4822515Y-13338674D01*
X4822515Y-13338674D02*
X4822515Y-13386293D01*
X4822515Y-13386293D02*
X4812991Y-13424388D01*
X4812991Y-13424388D02*
X4803468Y-13443436D01*
X4803468Y-13443436D02*
X4793944Y-13452960D01*
X4793944Y-13452960D02*
X4774896Y-13462484D01*
X4774896Y-13462484D02*
X4755848Y-13462484D01*
X4755848Y-13462484D02*
X4736801Y-13452960D01*
X4736801Y-13452960D02*
X4727277Y-13443436D01*
X4727277Y-13443436D02*
X4717753Y-13424388D01*
X4717753Y-13424388D02*
X4708229Y-13386293D01*
X4708229Y-13386293D02*
X4708229Y-13338674D01*
X4708229Y-13338674D02*
X4717753Y-13300579D01*
X4717753Y-13300579D02*
X4727277Y-13281531D01*
X4727277Y-13281531D02*
X4736801Y-13272008D01*
X4736801Y-13272008D02*
X4755848Y-13262484D01*
X4993944Y-13329150D02*
X4993944Y-13462484D01*
X4946325Y-13252960D02*
X4898706Y-13395817D01*
X4898706Y-13395817D02*
X5022515Y-13395817D01*
X5136801Y-13262484D02*
X5155849Y-13262484D01*
X5155849Y-13262484D02*
X5174896Y-13272008D01*
X5174896Y-13272008D02*
X5184420Y-13281531D01*
X5184420Y-13281531D02*
X5193944Y-13300579D01*
X5193944Y-13300579D02*
X5203468Y-13338674D01*
X5203468Y-13338674D02*
X5203468Y-13386293D01*
X5203468Y-13386293D02*
X5193944Y-13424388D01*
X5193944Y-13424388D02*
X5184420Y-13443436D01*
X5184420Y-13443436D02*
X5174896Y-13452960D01*
X5174896Y-13452960D02*
X5155849Y-13462484D01*
X5155849Y-13462484D02*
X5136801Y-13462484D01*
X5136801Y-13462484D02*
X5117753Y-13452960D01*
X5117753Y-13452960D02*
X5108229Y-13443436D01*
X5108229Y-13443436D02*
X5098706Y-13424388D01*
X5098706Y-13424388D02*
X5089182Y-13386293D01*
X5089182Y-13386293D02*
X5089182Y-13338674D01*
X5089182Y-13338674D02*
X5098706Y-13300579D01*
X5098706Y-13300579D02*
X5108229Y-13281531D01*
X5108229Y-13281531D02*
X5117753Y-13272008D01*
X5117753Y-13272008D02*
X5136801Y-13262484D01*
X5279658Y-13281531D02*
X5289182Y-13272008D01*
X5289182Y-13272008D02*
X5308229Y-13262484D01*
X5308229Y-13262484D02*
X5355849Y-13262484D01*
X5355849Y-13262484D02*
X5374896Y-13272008D01*
X5374896Y-13272008D02*
X5384420Y-13281531D01*
X5384420Y-13281531D02*
X5393944Y-13300579D01*
X5393944Y-13300579D02*
X5393944Y-13319627D01*
X5393944Y-13319627D02*
X5384420Y-13348198D01*
X5384420Y-13348198D02*
X5270134Y-13462484D01*
X5270134Y-13462484D02*
X5393944Y-13462484D01*
X5470134Y-13262484D02*
X5470134Y-13300579D01*
X5546325Y-13262484D02*
X5546325Y-13300579D01*
X5841563Y-13538674D02*
X5832039Y-13529150D01*
X5832039Y-13529150D02*
X5812991Y-13500579D01*
X5812991Y-13500579D02*
X5803468Y-13481531D01*
X5803468Y-13481531D02*
X5793944Y-13452960D01*
X5793944Y-13452960D02*
X5784420Y-13405341D01*
X5784420Y-13405341D02*
X5784420Y-13367246D01*
X5784420Y-13367246D02*
X5793944Y-13319627D01*
X5793944Y-13319627D02*
X5803468Y-13291055D01*
X5803468Y-13291055D02*
X5812991Y-13272008D01*
X5812991Y-13272008D02*
X5832039Y-13243436D01*
X5832039Y-13243436D02*
X5841563Y-13233912D01*
X6003468Y-13262484D02*
X5965372Y-13262484D01*
X5965372Y-13262484D02*
X5946325Y-13272008D01*
X5946325Y-13272008D02*
X5936801Y-13281531D01*
X5936801Y-13281531D02*
X5917753Y-13310103D01*
X5917753Y-13310103D02*
X5908229Y-13348198D01*
X5908229Y-13348198D02*
X5908229Y-13424388D01*
X5908229Y-13424388D02*
X5917753Y-13443436D01*
X5917753Y-13443436D02*
X5927277Y-13452960D01*
X5927277Y-13452960D02*
X5946325Y-13462484D01*
X5946325Y-13462484D02*
X5984420Y-13462484D01*
X5984420Y-13462484D02*
X6003468Y-13452960D01*
X6003468Y-13452960D02*
X6012991Y-13443436D01*
X6012991Y-13443436D02*
X6022515Y-13424388D01*
X6022515Y-13424388D02*
X6022515Y-13376769D01*
X6022515Y-13376769D02*
X6012991Y-13357722D01*
X6012991Y-13357722D02*
X6003468Y-13348198D01*
X6003468Y-13348198D02*
X5984420Y-13338674D01*
X5984420Y-13338674D02*
X5946325Y-13338674D01*
X5946325Y-13338674D02*
X5927277Y-13348198D01*
X5927277Y-13348198D02*
X5917753Y-13357722D01*
X5917753Y-13357722D02*
X5908229Y-13376769D01*
X6260610Y-13462484D02*
X6260610Y-13262484D01*
X6346325Y-13462484D02*
X6346325Y-13357722D01*
X6346325Y-13357722D02*
X6336801Y-13338674D01*
X6336801Y-13338674D02*
X6317753Y-13329150D01*
X6317753Y-13329150D02*
X6289182Y-13329150D01*
X6289182Y-13329150D02*
X6270134Y-13338674D01*
X6270134Y-13338674D02*
X6260610Y-13348198D01*
X6470134Y-13462484D02*
X6451087Y-13452960D01*
X6451087Y-13452960D02*
X6441563Y-13443436D01*
X6441563Y-13443436D02*
X6432039Y-13424388D01*
X6432039Y-13424388D02*
X6432039Y-13367246D01*
X6432039Y-13367246D02*
X6441563Y-13348198D01*
X6441563Y-13348198D02*
X6451087Y-13338674D01*
X6451087Y-13338674D02*
X6470134Y-13329150D01*
X6470134Y-13329150D02*
X6498706Y-13329150D01*
X6498706Y-13329150D02*
X6517753Y-13338674D01*
X6517753Y-13338674D02*
X6527277Y-13348198D01*
X6527277Y-13348198D02*
X6536801Y-13367246D01*
X6536801Y-13367246D02*
X6536801Y-13424388D01*
X6536801Y-13424388D02*
X6527277Y-13443436D01*
X6527277Y-13443436D02*
X6517753Y-13452960D01*
X6517753Y-13452960D02*
X6498706Y-13462484D01*
X6498706Y-13462484D02*
X6470134Y-13462484D01*
X6651087Y-13462484D02*
X6632039Y-13452960D01*
X6632039Y-13452960D02*
X6622515Y-13433912D01*
X6622515Y-13433912D02*
X6622515Y-13262484D01*
X6803468Y-13452960D02*
X6784420Y-13462484D01*
X6784420Y-13462484D02*
X6746325Y-13462484D01*
X6746325Y-13462484D02*
X6727277Y-13452960D01*
X6727277Y-13452960D02*
X6717753Y-13433912D01*
X6717753Y-13433912D02*
X6717753Y-13357722D01*
X6717753Y-13357722D02*
X6727277Y-13338674D01*
X6727277Y-13338674D02*
X6746325Y-13329150D01*
X6746325Y-13329150D02*
X6784420Y-13329150D01*
X6784420Y-13329150D02*
X6803468Y-13338674D01*
X6803468Y-13338674D02*
X6812991Y-13357722D01*
X6812991Y-13357722D02*
X6812991Y-13376769D01*
X6812991Y-13376769D02*
X6717753Y-13395817D01*
X6889182Y-13452960D02*
X6908230Y-13462484D01*
X6908230Y-13462484D02*
X6946325Y-13462484D01*
X6946325Y-13462484D02*
X6965372Y-13452960D01*
X6965372Y-13452960D02*
X6974896Y-13433912D01*
X6974896Y-13433912D02*
X6974896Y-13424388D01*
X6974896Y-13424388D02*
X6965372Y-13405341D01*
X6965372Y-13405341D02*
X6946325Y-13395817D01*
X6946325Y-13395817D02*
X6917753Y-13395817D01*
X6917753Y-13395817D02*
X6898706Y-13386293D01*
X6898706Y-13386293D02*
X6889182Y-13367246D01*
X6889182Y-13367246D02*
X6889182Y-13357722D01*
X6889182Y-13357722D02*
X6898706Y-13338674D01*
X6898706Y-13338674D02*
X6917753Y-13329150D01*
X6917753Y-13329150D02*
X6946325Y-13329150D01*
X6946325Y-13329150D02*
X6965372Y-13338674D01*
X7041563Y-13538674D02*
X7051087Y-13529150D01*
X7051087Y-13529150D02*
X7070134Y-13500579D01*
X7070134Y-13500579D02*
X7079658Y-13481531D01*
X7079658Y-13481531D02*
X7089182Y-13452960D01*
X7089182Y-13452960D02*
X7098706Y-13405341D01*
X7098706Y-13405341D02*
X7098706Y-13367246D01*
X7098706Y-13367246D02*
X7089182Y-13319627D01*
X7089182Y-13319627D02*
X7079658Y-13291055D01*
X7079658Y-13291055D02*
X7070134Y-13272008D01*
X7070134Y-13272008D02*
X7051087Y-13243436D01*
X7051087Y-13243436D02*
X7041563Y-13233912D01*
D13*
X2211500Y-13580000D02*
X2211500Y-13690000D01*
X2156500Y-13635000D02*
X2266500Y-13635000D01*
D10*
X2632039Y-13726484D02*
X2517753Y-13726484D01*
X2574896Y-13726484D02*
X2574896Y-13526484D01*
X2574896Y-13526484D02*
X2555848Y-13555055D01*
X2555848Y-13555055D02*
X2536801Y-13574103D01*
X2536801Y-13574103D02*
X2517753Y-13583627D01*
X2717753Y-13707436D02*
X2727277Y-13716960D01*
X2727277Y-13716960D02*
X2717753Y-13726484D01*
X2717753Y-13726484D02*
X2708229Y-13716960D01*
X2708229Y-13716960D02*
X2717753Y-13707436D01*
X2717753Y-13707436D02*
X2717753Y-13726484D01*
X2917753Y-13726484D02*
X2803467Y-13726484D01*
X2860610Y-13726484D02*
X2860610Y-13526484D01*
X2860610Y-13526484D02*
X2841562Y-13555055D01*
X2841562Y-13555055D02*
X2822515Y-13574103D01*
X2822515Y-13574103D02*
X2803467Y-13583627D01*
X3041562Y-13526484D02*
X3060610Y-13526484D01*
X3060610Y-13526484D02*
X3079658Y-13536008D01*
X3079658Y-13536008D02*
X3089182Y-13545531D01*
X3089182Y-13545531D02*
X3098705Y-13564579D01*
X3098705Y-13564579D02*
X3108229Y-13602674D01*
X3108229Y-13602674D02*
X3108229Y-13650293D01*
X3108229Y-13650293D02*
X3098705Y-13688388D01*
X3098705Y-13688388D02*
X3089182Y-13707436D01*
X3089182Y-13707436D02*
X3079658Y-13716960D01*
X3079658Y-13716960D02*
X3060610Y-13726484D01*
X3060610Y-13726484D02*
X3041562Y-13726484D01*
X3041562Y-13726484D02*
X3022515Y-13716960D01*
X3022515Y-13716960D02*
X3012991Y-13707436D01*
X3012991Y-13707436D02*
X3003467Y-13688388D01*
X3003467Y-13688388D02*
X2993943Y-13650293D01*
X2993943Y-13650293D02*
X2993943Y-13602674D01*
X2993943Y-13602674D02*
X3003467Y-13564579D01*
X3003467Y-13564579D02*
X3012991Y-13545531D01*
X3012991Y-13545531D02*
X3022515Y-13536008D01*
X3022515Y-13536008D02*
X3041562Y-13526484D01*
X3232039Y-13526484D02*
X3251086Y-13526484D01*
X3251086Y-13526484D02*
X3270134Y-13536008D01*
X3270134Y-13536008D02*
X3279658Y-13545531D01*
X3279658Y-13545531D02*
X3289182Y-13564579D01*
X3289182Y-13564579D02*
X3298705Y-13602674D01*
X3298705Y-13602674D02*
X3298705Y-13650293D01*
X3298705Y-13650293D02*
X3289182Y-13688388D01*
X3289182Y-13688388D02*
X3279658Y-13707436D01*
X3279658Y-13707436D02*
X3270134Y-13716960D01*
X3270134Y-13716960D02*
X3251086Y-13726484D01*
X3251086Y-13726484D02*
X3232039Y-13726484D01*
X3232039Y-13726484D02*
X3212991Y-13716960D01*
X3212991Y-13716960D02*
X3203467Y-13707436D01*
X3203467Y-13707436D02*
X3193943Y-13688388D01*
X3193943Y-13688388D02*
X3184420Y-13650293D01*
X3184420Y-13650293D02*
X3184420Y-13602674D01*
X3184420Y-13602674D02*
X3193943Y-13564579D01*
X3193943Y-13564579D02*
X3203467Y-13545531D01*
X3203467Y-13545531D02*
X3212991Y-13536008D01*
X3212991Y-13536008D02*
X3232039Y-13526484D01*
X3384420Y-13726484D02*
X3384420Y-13593150D01*
X3384420Y-13612198D02*
X3393943Y-13602674D01*
X3393943Y-13602674D02*
X3412991Y-13593150D01*
X3412991Y-13593150D02*
X3441563Y-13593150D01*
X3441563Y-13593150D02*
X3460610Y-13602674D01*
X3460610Y-13602674D02*
X3470134Y-13621722D01*
X3470134Y-13621722D02*
X3470134Y-13726484D01*
X3470134Y-13621722D02*
X3479658Y-13602674D01*
X3479658Y-13602674D02*
X3498705Y-13593150D01*
X3498705Y-13593150D02*
X3527277Y-13593150D01*
X3527277Y-13593150D02*
X3546324Y-13602674D01*
X3546324Y-13602674D02*
X3555848Y-13621722D01*
X3555848Y-13621722D02*
X3555848Y-13726484D01*
X3651086Y-13726484D02*
X3651086Y-13593150D01*
X3651086Y-13612198D02*
X3660610Y-13602674D01*
X3660610Y-13602674D02*
X3679658Y-13593150D01*
X3679658Y-13593150D02*
X3708229Y-13593150D01*
X3708229Y-13593150D02*
X3727277Y-13602674D01*
X3727277Y-13602674D02*
X3736801Y-13621722D01*
X3736801Y-13621722D02*
X3736801Y-13726484D01*
X3736801Y-13621722D02*
X3746324Y-13602674D01*
X3746324Y-13602674D02*
X3765372Y-13593150D01*
X3765372Y-13593150D02*
X3793943Y-13593150D01*
X3793943Y-13593150D02*
X3812991Y-13602674D01*
X3812991Y-13602674D02*
X3822515Y-13621722D01*
X3822515Y-13621722D02*
X3822515Y-13726484D01*
X4212991Y-13516960D02*
X4041563Y-13774103D01*
X4470134Y-13526484D02*
X4489182Y-13526484D01*
X4489182Y-13526484D02*
X4508229Y-13536008D01*
X4508229Y-13536008D02*
X4517753Y-13545531D01*
X4517753Y-13545531D02*
X4527277Y-13564579D01*
X4527277Y-13564579D02*
X4536801Y-13602674D01*
X4536801Y-13602674D02*
X4536801Y-13650293D01*
X4536801Y-13650293D02*
X4527277Y-13688388D01*
X4527277Y-13688388D02*
X4517753Y-13707436D01*
X4517753Y-13707436D02*
X4508229Y-13716960D01*
X4508229Y-13716960D02*
X4489182Y-13726484D01*
X4489182Y-13726484D02*
X4470134Y-13726484D01*
X4470134Y-13726484D02*
X4451087Y-13716960D01*
X4451087Y-13716960D02*
X4441563Y-13707436D01*
X4441563Y-13707436D02*
X4432039Y-13688388D01*
X4432039Y-13688388D02*
X4422515Y-13650293D01*
X4422515Y-13650293D02*
X4422515Y-13602674D01*
X4422515Y-13602674D02*
X4432039Y-13564579D01*
X4432039Y-13564579D02*
X4441563Y-13545531D01*
X4441563Y-13545531D02*
X4451087Y-13536008D01*
X4451087Y-13536008D02*
X4470134Y-13526484D01*
X4622515Y-13707436D02*
X4632039Y-13716960D01*
X4632039Y-13716960D02*
X4622515Y-13726484D01*
X4622515Y-13726484D02*
X4612991Y-13716960D01*
X4612991Y-13716960D02*
X4622515Y-13707436D01*
X4622515Y-13707436D02*
X4622515Y-13726484D01*
X4755848Y-13526484D02*
X4774896Y-13526484D01*
X4774896Y-13526484D02*
X4793944Y-13536008D01*
X4793944Y-13536008D02*
X4803468Y-13545531D01*
X4803468Y-13545531D02*
X4812991Y-13564579D01*
X4812991Y-13564579D02*
X4822515Y-13602674D01*
X4822515Y-13602674D02*
X4822515Y-13650293D01*
X4822515Y-13650293D02*
X4812991Y-13688388D01*
X4812991Y-13688388D02*
X4803468Y-13707436D01*
X4803468Y-13707436D02*
X4793944Y-13716960D01*
X4793944Y-13716960D02*
X4774896Y-13726484D01*
X4774896Y-13726484D02*
X4755848Y-13726484D01*
X4755848Y-13726484D02*
X4736801Y-13716960D01*
X4736801Y-13716960D02*
X4727277Y-13707436D01*
X4727277Y-13707436D02*
X4717753Y-13688388D01*
X4717753Y-13688388D02*
X4708229Y-13650293D01*
X4708229Y-13650293D02*
X4708229Y-13602674D01*
X4708229Y-13602674D02*
X4717753Y-13564579D01*
X4717753Y-13564579D02*
X4727277Y-13545531D01*
X4727277Y-13545531D02*
X4736801Y-13536008D01*
X4736801Y-13536008D02*
X4755848Y-13526484D01*
X4993944Y-13593150D02*
X4993944Y-13726484D01*
X4946325Y-13516960D02*
X4898706Y-13659817D01*
X4898706Y-13659817D02*
X5022515Y-13659817D01*
X5079658Y-13526484D02*
X5203468Y-13526484D01*
X5203468Y-13526484D02*
X5136801Y-13602674D01*
X5136801Y-13602674D02*
X5165372Y-13602674D01*
X5165372Y-13602674D02*
X5184420Y-13612198D01*
X5184420Y-13612198D02*
X5193944Y-13621722D01*
X5193944Y-13621722D02*
X5203468Y-13640769D01*
X5203468Y-13640769D02*
X5203468Y-13688388D01*
X5203468Y-13688388D02*
X5193944Y-13707436D01*
X5193944Y-13707436D02*
X5184420Y-13716960D01*
X5184420Y-13716960D02*
X5165372Y-13726484D01*
X5165372Y-13726484D02*
X5108229Y-13726484D01*
X5108229Y-13726484D02*
X5089182Y-13716960D01*
X5089182Y-13716960D02*
X5079658Y-13707436D01*
X5270134Y-13526484D02*
X5393944Y-13526484D01*
X5393944Y-13526484D02*
X5327277Y-13602674D01*
X5327277Y-13602674D02*
X5355849Y-13602674D01*
X5355849Y-13602674D02*
X5374896Y-13612198D01*
X5374896Y-13612198D02*
X5384420Y-13621722D01*
X5384420Y-13621722D02*
X5393944Y-13640769D01*
X5393944Y-13640769D02*
X5393944Y-13688388D01*
X5393944Y-13688388D02*
X5384420Y-13707436D01*
X5384420Y-13707436D02*
X5374896Y-13716960D01*
X5374896Y-13716960D02*
X5355849Y-13726484D01*
X5355849Y-13726484D02*
X5298706Y-13726484D01*
X5298706Y-13726484D02*
X5279658Y-13716960D01*
X5279658Y-13716960D02*
X5270134Y-13707436D01*
X5470134Y-13526484D02*
X5470134Y-13564579D01*
X5546325Y-13526484D02*
X5546325Y-13564579D01*
X5841563Y-13802674D02*
X5832039Y-13793150D01*
X5832039Y-13793150D02*
X5812991Y-13764579D01*
X5812991Y-13764579D02*
X5803468Y-13745531D01*
X5803468Y-13745531D02*
X5793944Y-13716960D01*
X5793944Y-13716960D02*
X5784420Y-13669341D01*
X5784420Y-13669341D02*
X5784420Y-13631246D01*
X5784420Y-13631246D02*
X5793944Y-13583627D01*
X5793944Y-13583627D02*
X5803468Y-13555055D01*
X5803468Y-13555055D02*
X5812991Y-13536008D01*
X5812991Y-13536008D02*
X5832039Y-13507436D01*
X5832039Y-13507436D02*
X5841563Y-13497912D01*
X5946325Y-13612198D02*
X5927277Y-13602674D01*
X5927277Y-13602674D02*
X5917753Y-13593150D01*
X5917753Y-13593150D02*
X5908229Y-13574103D01*
X5908229Y-13574103D02*
X5908229Y-13564579D01*
X5908229Y-13564579D02*
X5917753Y-13545531D01*
X5917753Y-13545531D02*
X5927277Y-13536008D01*
X5927277Y-13536008D02*
X5946325Y-13526484D01*
X5946325Y-13526484D02*
X5984420Y-13526484D01*
X5984420Y-13526484D02*
X6003468Y-13536008D01*
X6003468Y-13536008D02*
X6012991Y-13545531D01*
X6012991Y-13545531D02*
X6022515Y-13564579D01*
X6022515Y-13564579D02*
X6022515Y-13574103D01*
X6022515Y-13574103D02*
X6012991Y-13593150D01*
X6012991Y-13593150D02*
X6003468Y-13602674D01*
X6003468Y-13602674D02*
X5984420Y-13612198D01*
X5984420Y-13612198D02*
X5946325Y-13612198D01*
X5946325Y-13612198D02*
X5927277Y-13621722D01*
X5927277Y-13621722D02*
X5917753Y-13631246D01*
X5917753Y-13631246D02*
X5908229Y-13650293D01*
X5908229Y-13650293D02*
X5908229Y-13688388D01*
X5908229Y-13688388D02*
X5917753Y-13707436D01*
X5917753Y-13707436D02*
X5927277Y-13716960D01*
X5927277Y-13716960D02*
X5946325Y-13726484D01*
X5946325Y-13726484D02*
X5984420Y-13726484D01*
X5984420Y-13726484D02*
X6003468Y-13716960D01*
X6003468Y-13716960D02*
X6012991Y-13707436D01*
X6012991Y-13707436D02*
X6022515Y-13688388D01*
X6022515Y-13688388D02*
X6022515Y-13650293D01*
X6022515Y-13650293D02*
X6012991Y-13631246D01*
X6012991Y-13631246D02*
X6003468Y-13621722D01*
X6003468Y-13621722D02*
X5984420Y-13612198D01*
X6260610Y-13726484D02*
X6260610Y-13526484D01*
X6346325Y-13726484D02*
X6346325Y-13621722D01*
X6346325Y-13621722D02*
X6336801Y-13602674D01*
X6336801Y-13602674D02*
X6317753Y-13593150D01*
X6317753Y-13593150D02*
X6289182Y-13593150D01*
X6289182Y-13593150D02*
X6270134Y-13602674D01*
X6270134Y-13602674D02*
X6260610Y-13612198D01*
X6470134Y-13726484D02*
X6451087Y-13716960D01*
X6451087Y-13716960D02*
X6441563Y-13707436D01*
X6441563Y-13707436D02*
X6432039Y-13688388D01*
X6432039Y-13688388D02*
X6432039Y-13631246D01*
X6432039Y-13631246D02*
X6441563Y-13612198D01*
X6441563Y-13612198D02*
X6451087Y-13602674D01*
X6451087Y-13602674D02*
X6470134Y-13593150D01*
X6470134Y-13593150D02*
X6498706Y-13593150D01*
X6498706Y-13593150D02*
X6517753Y-13602674D01*
X6517753Y-13602674D02*
X6527277Y-13612198D01*
X6527277Y-13612198D02*
X6536801Y-13631246D01*
X6536801Y-13631246D02*
X6536801Y-13688388D01*
X6536801Y-13688388D02*
X6527277Y-13707436D01*
X6527277Y-13707436D02*
X6517753Y-13716960D01*
X6517753Y-13716960D02*
X6498706Y-13726484D01*
X6498706Y-13726484D02*
X6470134Y-13726484D01*
X6651087Y-13726484D02*
X6632039Y-13716960D01*
X6632039Y-13716960D02*
X6622515Y-13697912D01*
X6622515Y-13697912D02*
X6622515Y-13526484D01*
X6803468Y-13716960D02*
X6784420Y-13726484D01*
X6784420Y-13726484D02*
X6746325Y-13726484D01*
X6746325Y-13726484D02*
X6727277Y-13716960D01*
X6727277Y-13716960D02*
X6717753Y-13697912D01*
X6717753Y-13697912D02*
X6717753Y-13621722D01*
X6717753Y-13621722D02*
X6727277Y-13602674D01*
X6727277Y-13602674D02*
X6746325Y-13593150D01*
X6746325Y-13593150D02*
X6784420Y-13593150D01*
X6784420Y-13593150D02*
X6803468Y-13602674D01*
X6803468Y-13602674D02*
X6812991Y-13621722D01*
X6812991Y-13621722D02*
X6812991Y-13640769D01*
X6812991Y-13640769D02*
X6717753Y-13659817D01*
X6889182Y-13716960D02*
X6908230Y-13726484D01*
X6908230Y-13726484D02*
X6946325Y-13726484D01*
X6946325Y-13726484D02*
X6965372Y-13716960D01*
X6965372Y-13716960D02*
X6974896Y-13697912D01*
X6974896Y-13697912D02*
X6974896Y-13688388D01*
X6974896Y-13688388D02*
X6965372Y-13669341D01*
X6965372Y-13669341D02*
X6946325Y-13659817D01*
X6946325Y-13659817D02*
X6917753Y-13659817D01*
X6917753Y-13659817D02*
X6898706Y-13650293D01*
X6898706Y-13650293D02*
X6889182Y-13631246D01*
X6889182Y-13631246D02*
X6889182Y-13621722D01*
X6889182Y-13621722D02*
X6898706Y-13602674D01*
X6898706Y-13602674D02*
X6917753Y-13593150D01*
X6917753Y-13593150D02*
X6946325Y-13593150D01*
X6946325Y-13593150D02*
X6965372Y-13602674D01*
X7041563Y-13802674D02*
X7051087Y-13793150D01*
X7051087Y-13793150D02*
X7070134Y-13764579D01*
X7070134Y-13764579D02*
X7079658Y-13745531D01*
X7079658Y-13745531D02*
X7089182Y-13716960D01*
X7089182Y-13716960D02*
X7098706Y-13669341D01*
X7098706Y-13669341D02*
X7098706Y-13631246D01*
X7098706Y-13631246D02*
X7089182Y-13583627D01*
X7089182Y-13583627D02*
X7079658Y-13555055D01*
X7079658Y-13555055D02*
X7070134Y-13536008D01*
X7070134Y-13536008D02*
X7051087Y-13507436D01*
X7051087Y-13507436D02*
X7041563Y-13497912D01*
D14*
X2244534Y-13952033D02*
X2244534Y-13845966D01*
X2138467Y-13845966D01*
X2138467Y-13952033D01*
X2244534Y-13952033D01*
D10*
X2632039Y-13990484D02*
X2517753Y-13990484D01*
X2574896Y-13990484D02*
X2574896Y-13790484D01*
X2574896Y-13790484D02*
X2555848Y-13819055D01*
X2555848Y-13819055D02*
X2536801Y-13838103D01*
X2536801Y-13838103D02*
X2517753Y-13847627D01*
X2717753Y-13971436D02*
X2727277Y-13980960D01*
X2727277Y-13980960D02*
X2717753Y-13990484D01*
X2717753Y-13990484D02*
X2708229Y-13980960D01*
X2708229Y-13980960D02*
X2717753Y-13971436D01*
X2717753Y-13971436D02*
X2717753Y-13990484D01*
X2908229Y-13790484D02*
X2812991Y-13790484D01*
X2812991Y-13790484D02*
X2803467Y-13885722D01*
X2803467Y-13885722D02*
X2812991Y-13876198D01*
X2812991Y-13876198D02*
X2832039Y-13866674D01*
X2832039Y-13866674D02*
X2879658Y-13866674D01*
X2879658Y-13866674D02*
X2898705Y-13876198D01*
X2898705Y-13876198D02*
X2908229Y-13885722D01*
X2908229Y-13885722D02*
X2917753Y-13904769D01*
X2917753Y-13904769D02*
X2917753Y-13952388D01*
X2917753Y-13952388D02*
X2908229Y-13971436D01*
X2908229Y-13971436D02*
X2898705Y-13980960D01*
X2898705Y-13980960D02*
X2879658Y-13990484D01*
X2879658Y-13990484D02*
X2832039Y-13990484D01*
X2832039Y-13990484D02*
X2812991Y-13980960D01*
X2812991Y-13980960D02*
X2803467Y-13971436D01*
X3041562Y-13790484D02*
X3060610Y-13790484D01*
X3060610Y-13790484D02*
X3079658Y-13800008D01*
X3079658Y-13800008D02*
X3089182Y-13809531D01*
X3089182Y-13809531D02*
X3098705Y-13828579D01*
X3098705Y-13828579D02*
X3108229Y-13866674D01*
X3108229Y-13866674D02*
X3108229Y-13914293D01*
X3108229Y-13914293D02*
X3098705Y-13952388D01*
X3098705Y-13952388D02*
X3089182Y-13971436D01*
X3089182Y-13971436D02*
X3079658Y-13980960D01*
X3079658Y-13980960D02*
X3060610Y-13990484D01*
X3060610Y-13990484D02*
X3041562Y-13990484D01*
X3041562Y-13990484D02*
X3022515Y-13980960D01*
X3022515Y-13980960D02*
X3012991Y-13971436D01*
X3012991Y-13971436D02*
X3003467Y-13952388D01*
X3003467Y-13952388D02*
X2993943Y-13914293D01*
X2993943Y-13914293D02*
X2993943Y-13866674D01*
X2993943Y-13866674D02*
X3003467Y-13828579D01*
X3003467Y-13828579D02*
X3012991Y-13809531D01*
X3012991Y-13809531D02*
X3022515Y-13800008D01*
X3022515Y-13800008D02*
X3041562Y-13790484D01*
X3232039Y-13790484D02*
X3251086Y-13790484D01*
X3251086Y-13790484D02*
X3270134Y-13800008D01*
X3270134Y-13800008D02*
X3279658Y-13809531D01*
X3279658Y-13809531D02*
X3289182Y-13828579D01*
X3289182Y-13828579D02*
X3298705Y-13866674D01*
X3298705Y-13866674D02*
X3298705Y-13914293D01*
X3298705Y-13914293D02*
X3289182Y-13952388D01*
X3289182Y-13952388D02*
X3279658Y-13971436D01*
X3279658Y-13971436D02*
X3270134Y-13980960D01*
X3270134Y-13980960D02*
X3251086Y-13990484D01*
X3251086Y-13990484D02*
X3232039Y-13990484D01*
X3232039Y-13990484D02*
X3212991Y-13980960D01*
X3212991Y-13980960D02*
X3203467Y-13971436D01*
X3203467Y-13971436D02*
X3193943Y-13952388D01*
X3193943Y-13952388D02*
X3184420Y-13914293D01*
X3184420Y-13914293D02*
X3184420Y-13866674D01*
X3184420Y-13866674D02*
X3193943Y-13828579D01*
X3193943Y-13828579D02*
X3203467Y-13809531D01*
X3203467Y-13809531D02*
X3212991Y-13800008D01*
X3212991Y-13800008D02*
X3232039Y-13790484D01*
X3384420Y-13990484D02*
X3384420Y-13857150D01*
X3384420Y-13876198D02*
X3393943Y-13866674D01*
X3393943Y-13866674D02*
X3412991Y-13857150D01*
X3412991Y-13857150D02*
X3441563Y-13857150D01*
X3441563Y-13857150D02*
X3460610Y-13866674D01*
X3460610Y-13866674D02*
X3470134Y-13885722D01*
X3470134Y-13885722D02*
X3470134Y-13990484D01*
X3470134Y-13885722D02*
X3479658Y-13866674D01*
X3479658Y-13866674D02*
X3498705Y-13857150D01*
X3498705Y-13857150D02*
X3527277Y-13857150D01*
X3527277Y-13857150D02*
X3546324Y-13866674D01*
X3546324Y-13866674D02*
X3555848Y-13885722D01*
X3555848Y-13885722D02*
X3555848Y-13990484D01*
X3651086Y-13990484D02*
X3651086Y-13857150D01*
X3651086Y-13876198D02*
X3660610Y-13866674D01*
X3660610Y-13866674D02*
X3679658Y-13857150D01*
X3679658Y-13857150D02*
X3708229Y-13857150D01*
X3708229Y-13857150D02*
X3727277Y-13866674D01*
X3727277Y-13866674D02*
X3736801Y-13885722D01*
X3736801Y-13885722D02*
X3736801Y-13990484D01*
X3736801Y-13885722D02*
X3746324Y-13866674D01*
X3746324Y-13866674D02*
X3765372Y-13857150D01*
X3765372Y-13857150D02*
X3793943Y-13857150D01*
X3793943Y-13857150D02*
X3812991Y-13866674D01*
X3812991Y-13866674D02*
X3822515Y-13885722D01*
X3822515Y-13885722D02*
X3822515Y-13990484D01*
X4212991Y-13780960D02*
X4041563Y-14038103D01*
X4470134Y-13790484D02*
X4489182Y-13790484D01*
X4489182Y-13790484D02*
X4508229Y-13800008D01*
X4508229Y-13800008D02*
X4517753Y-13809531D01*
X4517753Y-13809531D02*
X4527277Y-13828579D01*
X4527277Y-13828579D02*
X4536801Y-13866674D01*
X4536801Y-13866674D02*
X4536801Y-13914293D01*
X4536801Y-13914293D02*
X4527277Y-13952388D01*
X4527277Y-13952388D02*
X4517753Y-13971436D01*
X4517753Y-13971436D02*
X4508229Y-13980960D01*
X4508229Y-13980960D02*
X4489182Y-13990484D01*
X4489182Y-13990484D02*
X4470134Y-13990484D01*
X4470134Y-13990484D02*
X4451087Y-13980960D01*
X4451087Y-13980960D02*
X4441563Y-13971436D01*
X4441563Y-13971436D02*
X4432039Y-13952388D01*
X4432039Y-13952388D02*
X4422515Y-13914293D01*
X4422515Y-13914293D02*
X4422515Y-13866674D01*
X4422515Y-13866674D02*
X4432039Y-13828579D01*
X4432039Y-13828579D02*
X4441563Y-13809531D01*
X4441563Y-13809531D02*
X4451087Y-13800008D01*
X4451087Y-13800008D02*
X4470134Y-13790484D01*
X4622515Y-13971436D02*
X4632039Y-13980960D01*
X4632039Y-13980960D02*
X4622515Y-13990484D01*
X4622515Y-13990484D02*
X4612991Y-13980960D01*
X4612991Y-13980960D02*
X4622515Y-13971436D01*
X4622515Y-13971436D02*
X4622515Y-13990484D01*
X4755848Y-13790484D02*
X4774896Y-13790484D01*
X4774896Y-13790484D02*
X4793944Y-13800008D01*
X4793944Y-13800008D02*
X4803468Y-13809531D01*
X4803468Y-13809531D02*
X4812991Y-13828579D01*
X4812991Y-13828579D02*
X4822515Y-13866674D01*
X4822515Y-13866674D02*
X4822515Y-13914293D01*
X4822515Y-13914293D02*
X4812991Y-13952388D01*
X4812991Y-13952388D02*
X4803468Y-13971436D01*
X4803468Y-13971436D02*
X4793944Y-13980960D01*
X4793944Y-13980960D02*
X4774896Y-13990484D01*
X4774896Y-13990484D02*
X4755848Y-13990484D01*
X4755848Y-13990484D02*
X4736801Y-13980960D01*
X4736801Y-13980960D02*
X4727277Y-13971436D01*
X4727277Y-13971436D02*
X4717753Y-13952388D01*
X4717753Y-13952388D02*
X4708229Y-13914293D01*
X4708229Y-13914293D02*
X4708229Y-13866674D01*
X4708229Y-13866674D02*
X4717753Y-13828579D01*
X4717753Y-13828579D02*
X4727277Y-13809531D01*
X4727277Y-13809531D02*
X4736801Y-13800008D01*
X4736801Y-13800008D02*
X4755848Y-13790484D01*
X5003468Y-13790484D02*
X4908229Y-13790484D01*
X4908229Y-13790484D02*
X4898706Y-13885722D01*
X4898706Y-13885722D02*
X4908229Y-13876198D01*
X4908229Y-13876198D02*
X4927277Y-13866674D01*
X4927277Y-13866674D02*
X4974896Y-13866674D01*
X4974896Y-13866674D02*
X4993944Y-13876198D01*
X4993944Y-13876198D02*
X5003468Y-13885722D01*
X5003468Y-13885722D02*
X5012991Y-13904769D01*
X5012991Y-13904769D02*
X5012991Y-13952388D01*
X5012991Y-13952388D02*
X5003468Y-13971436D01*
X5003468Y-13971436D02*
X4993944Y-13980960D01*
X4993944Y-13980960D02*
X4974896Y-13990484D01*
X4974896Y-13990484D02*
X4927277Y-13990484D01*
X4927277Y-13990484D02*
X4908229Y-13980960D01*
X4908229Y-13980960D02*
X4898706Y-13971436D01*
X5108229Y-13990484D02*
X5146325Y-13990484D01*
X5146325Y-13990484D02*
X5165372Y-13980960D01*
X5165372Y-13980960D02*
X5174896Y-13971436D01*
X5174896Y-13971436D02*
X5193944Y-13942865D01*
X5193944Y-13942865D02*
X5203468Y-13904769D01*
X5203468Y-13904769D02*
X5203468Y-13828579D01*
X5203468Y-13828579D02*
X5193944Y-13809531D01*
X5193944Y-13809531D02*
X5184420Y-13800008D01*
X5184420Y-13800008D02*
X5165372Y-13790484D01*
X5165372Y-13790484D02*
X5127277Y-13790484D01*
X5127277Y-13790484D02*
X5108229Y-13800008D01*
X5108229Y-13800008D02*
X5098706Y-13809531D01*
X5098706Y-13809531D02*
X5089182Y-13828579D01*
X5089182Y-13828579D02*
X5089182Y-13876198D01*
X5089182Y-13876198D02*
X5098706Y-13895246D01*
X5098706Y-13895246D02*
X5108229Y-13904769D01*
X5108229Y-13904769D02*
X5127277Y-13914293D01*
X5127277Y-13914293D02*
X5165372Y-13914293D01*
X5165372Y-13914293D02*
X5184420Y-13904769D01*
X5184420Y-13904769D02*
X5193944Y-13895246D01*
X5193944Y-13895246D02*
X5203468Y-13876198D01*
X5393944Y-13990484D02*
X5279658Y-13990484D01*
X5336801Y-13990484D02*
X5336801Y-13790484D01*
X5336801Y-13790484D02*
X5317753Y-13819055D01*
X5317753Y-13819055D02*
X5298706Y-13838103D01*
X5298706Y-13838103D02*
X5279658Y-13847627D01*
X5470134Y-13790484D02*
X5470134Y-13828579D01*
X5546325Y-13790484D02*
X5546325Y-13828579D01*
X5841563Y-14066674D02*
X5832039Y-14057150D01*
X5832039Y-14057150D02*
X5812991Y-14028579D01*
X5812991Y-14028579D02*
X5803468Y-14009531D01*
X5803468Y-14009531D02*
X5793944Y-13980960D01*
X5793944Y-13980960D02*
X5784420Y-13933341D01*
X5784420Y-13933341D02*
X5784420Y-13895246D01*
X5784420Y-13895246D02*
X5793944Y-13847627D01*
X5793944Y-13847627D02*
X5803468Y-13819055D01*
X5803468Y-13819055D02*
X5812991Y-13800008D01*
X5812991Y-13800008D02*
X5832039Y-13771436D01*
X5832039Y-13771436D02*
X5841563Y-13761912D01*
X5898706Y-13790484D02*
X6022515Y-13790484D01*
X6022515Y-13790484D02*
X5955848Y-13866674D01*
X5955848Y-13866674D02*
X5984420Y-13866674D01*
X5984420Y-13866674D02*
X6003468Y-13876198D01*
X6003468Y-13876198D02*
X6012991Y-13885722D01*
X6012991Y-13885722D02*
X6022515Y-13904769D01*
X6022515Y-13904769D02*
X6022515Y-13952388D01*
X6022515Y-13952388D02*
X6012991Y-13971436D01*
X6012991Y-13971436D02*
X6003468Y-13980960D01*
X6003468Y-13980960D02*
X5984420Y-13990484D01*
X5984420Y-13990484D02*
X5927277Y-13990484D01*
X5927277Y-13990484D02*
X5908229Y-13980960D01*
X5908229Y-13980960D02*
X5898706Y-13971436D01*
X6260610Y-13990484D02*
X6260610Y-13790484D01*
X6346325Y-13990484D02*
X6346325Y-13885722D01*
X6346325Y-13885722D02*
X6336801Y-13866674D01*
X6336801Y-13866674D02*
X6317753Y-13857150D01*
X6317753Y-13857150D02*
X6289182Y-13857150D01*
X6289182Y-13857150D02*
X6270134Y-13866674D01*
X6270134Y-13866674D02*
X6260610Y-13876198D01*
X6470134Y-13990484D02*
X6451087Y-13980960D01*
X6451087Y-13980960D02*
X6441563Y-13971436D01*
X6441563Y-13971436D02*
X6432039Y-13952388D01*
X6432039Y-13952388D02*
X6432039Y-13895246D01*
X6432039Y-13895246D02*
X6441563Y-13876198D01*
X6441563Y-13876198D02*
X6451087Y-13866674D01*
X6451087Y-13866674D02*
X6470134Y-13857150D01*
X6470134Y-13857150D02*
X6498706Y-13857150D01*
X6498706Y-13857150D02*
X6517753Y-13866674D01*
X6517753Y-13866674D02*
X6527277Y-13876198D01*
X6527277Y-13876198D02*
X6536801Y-13895246D01*
X6536801Y-13895246D02*
X6536801Y-13952388D01*
X6536801Y-13952388D02*
X6527277Y-13971436D01*
X6527277Y-13971436D02*
X6517753Y-13980960D01*
X6517753Y-13980960D02*
X6498706Y-13990484D01*
X6498706Y-13990484D02*
X6470134Y-13990484D01*
X6651087Y-13990484D02*
X6632039Y-13980960D01*
X6632039Y-13980960D02*
X6622515Y-13961912D01*
X6622515Y-13961912D02*
X6622515Y-13790484D01*
X6803468Y-13980960D02*
X6784420Y-13990484D01*
X6784420Y-13990484D02*
X6746325Y-13990484D01*
X6746325Y-13990484D02*
X6727277Y-13980960D01*
X6727277Y-13980960D02*
X6717753Y-13961912D01*
X6717753Y-13961912D02*
X6717753Y-13885722D01*
X6717753Y-13885722D02*
X6727277Y-13866674D01*
X6727277Y-13866674D02*
X6746325Y-13857150D01*
X6746325Y-13857150D02*
X6784420Y-13857150D01*
X6784420Y-13857150D02*
X6803468Y-13866674D01*
X6803468Y-13866674D02*
X6812991Y-13885722D01*
X6812991Y-13885722D02*
X6812991Y-13904769D01*
X6812991Y-13904769D02*
X6717753Y-13923817D01*
X6889182Y-13980960D02*
X6908230Y-13990484D01*
X6908230Y-13990484D02*
X6946325Y-13990484D01*
X6946325Y-13990484D02*
X6965372Y-13980960D01*
X6965372Y-13980960D02*
X6974896Y-13961912D01*
X6974896Y-13961912D02*
X6974896Y-13952388D01*
X6974896Y-13952388D02*
X6965372Y-13933341D01*
X6965372Y-13933341D02*
X6946325Y-13923817D01*
X6946325Y-13923817D02*
X6917753Y-13923817D01*
X6917753Y-13923817D02*
X6898706Y-13914293D01*
X6898706Y-13914293D02*
X6889182Y-13895246D01*
X6889182Y-13895246D02*
X6889182Y-13885722D01*
X6889182Y-13885722D02*
X6898706Y-13866674D01*
X6898706Y-13866674D02*
X6917753Y-13857150D01*
X6917753Y-13857150D02*
X6946325Y-13857150D01*
X6946325Y-13857150D02*
X6965372Y-13866674D01*
X7041563Y-14066674D02*
X7051087Y-14057150D01*
X7051087Y-14057150D02*
X7070134Y-14028579D01*
X7070134Y-14028579D02*
X7079658Y-14009531D01*
X7079658Y-14009531D02*
X7089182Y-13980960D01*
X7089182Y-13980960D02*
X7098706Y-13933341D01*
X7098706Y-13933341D02*
X7098706Y-13895246D01*
X7098706Y-13895246D02*
X7089182Y-13847627D01*
X7089182Y-13847627D02*
X7079658Y-13819055D01*
X7079658Y-13819055D02*
X7070134Y-13800008D01*
X7070134Y-13800008D02*
X7051087Y-13771436D01*
X7051087Y-13771436D02*
X7041563Y-13761912D01*
D15*
X2176500Y-14259000D02*
X2266500Y-14169000D01*
X2176500Y-14079000D01*
X2086500Y-14169000D01*
X2176500Y-14259000D01*
D10*
X2632039Y-14260484D02*
X2517753Y-14260484D01*
X2574896Y-14260484D02*
X2574896Y-14060484D01*
X2574896Y-14060484D02*
X2555848Y-14089055D01*
X2555848Y-14089055D02*
X2536801Y-14108103D01*
X2536801Y-14108103D02*
X2517753Y-14117627D01*
X2717753Y-14241436D02*
X2727277Y-14250960D01*
X2727277Y-14250960D02*
X2717753Y-14260484D01*
X2717753Y-14260484D02*
X2708229Y-14250960D01*
X2708229Y-14250960D02*
X2717753Y-14241436D01*
X2717753Y-14241436D02*
X2717753Y-14260484D01*
X2841562Y-14146198D02*
X2822515Y-14136674D01*
X2822515Y-14136674D02*
X2812991Y-14127150D01*
X2812991Y-14127150D02*
X2803467Y-14108103D01*
X2803467Y-14108103D02*
X2803467Y-14098579D01*
X2803467Y-14098579D02*
X2812991Y-14079531D01*
X2812991Y-14079531D02*
X2822515Y-14070008D01*
X2822515Y-14070008D02*
X2841562Y-14060484D01*
X2841562Y-14060484D02*
X2879658Y-14060484D01*
X2879658Y-14060484D02*
X2898705Y-14070008D01*
X2898705Y-14070008D02*
X2908229Y-14079531D01*
X2908229Y-14079531D02*
X2917753Y-14098579D01*
X2917753Y-14098579D02*
X2917753Y-14108103D01*
X2917753Y-14108103D02*
X2908229Y-14127150D01*
X2908229Y-14127150D02*
X2898705Y-14136674D01*
X2898705Y-14136674D02*
X2879658Y-14146198D01*
X2879658Y-14146198D02*
X2841562Y-14146198D01*
X2841562Y-14146198D02*
X2822515Y-14155722D01*
X2822515Y-14155722D02*
X2812991Y-14165246D01*
X2812991Y-14165246D02*
X2803467Y-14184293D01*
X2803467Y-14184293D02*
X2803467Y-14222388D01*
X2803467Y-14222388D02*
X2812991Y-14241436D01*
X2812991Y-14241436D02*
X2822515Y-14250960D01*
X2822515Y-14250960D02*
X2841562Y-14260484D01*
X2841562Y-14260484D02*
X2879658Y-14260484D01*
X2879658Y-14260484D02*
X2898705Y-14250960D01*
X2898705Y-14250960D02*
X2908229Y-14241436D01*
X2908229Y-14241436D02*
X2917753Y-14222388D01*
X2917753Y-14222388D02*
X2917753Y-14184293D01*
X2917753Y-14184293D02*
X2908229Y-14165246D01*
X2908229Y-14165246D02*
X2898705Y-14155722D01*
X2898705Y-14155722D02*
X2879658Y-14146198D01*
X3041562Y-14060484D02*
X3060610Y-14060484D01*
X3060610Y-14060484D02*
X3079658Y-14070008D01*
X3079658Y-14070008D02*
X3089182Y-14079531D01*
X3089182Y-14079531D02*
X3098705Y-14098579D01*
X3098705Y-14098579D02*
X3108229Y-14136674D01*
X3108229Y-14136674D02*
X3108229Y-14184293D01*
X3108229Y-14184293D02*
X3098705Y-14222388D01*
X3098705Y-14222388D02*
X3089182Y-14241436D01*
X3089182Y-14241436D02*
X3079658Y-14250960D01*
X3079658Y-14250960D02*
X3060610Y-14260484D01*
X3060610Y-14260484D02*
X3041562Y-14260484D01*
X3041562Y-14260484D02*
X3022515Y-14250960D01*
X3022515Y-14250960D02*
X3012991Y-14241436D01*
X3012991Y-14241436D02*
X3003467Y-14222388D01*
X3003467Y-14222388D02*
X2993943Y-14184293D01*
X2993943Y-14184293D02*
X2993943Y-14136674D01*
X2993943Y-14136674D02*
X3003467Y-14098579D01*
X3003467Y-14098579D02*
X3012991Y-14079531D01*
X3012991Y-14079531D02*
X3022515Y-14070008D01*
X3022515Y-14070008D02*
X3041562Y-14060484D01*
X3232039Y-14060484D02*
X3251086Y-14060484D01*
X3251086Y-14060484D02*
X3270134Y-14070008D01*
X3270134Y-14070008D02*
X3279658Y-14079531D01*
X3279658Y-14079531D02*
X3289182Y-14098579D01*
X3289182Y-14098579D02*
X3298705Y-14136674D01*
X3298705Y-14136674D02*
X3298705Y-14184293D01*
X3298705Y-14184293D02*
X3289182Y-14222388D01*
X3289182Y-14222388D02*
X3279658Y-14241436D01*
X3279658Y-14241436D02*
X3270134Y-14250960D01*
X3270134Y-14250960D02*
X3251086Y-14260484D01*
X3251086Y-14260484D02*
X3232039Y-14260484D01*
X3232039Y-14260484D02*
X3212991Y-14250960D01*
X3212991Y-14250960D02*
X3203467Y-14241436D01*
X3203467Y-14241436D02*
X3193943Y-14222388D01*
X3193943Y-14222388D02*
X3184420Y-14184293D01*
X3184420Y-14184293D02*
X3184420Y-14136674D01*
X3184420Y-14136674D02*
X3193943Y-14098579D01*
X3193943Y-14098579D02*
X3203467Y-14079531D01*
X3203467Y-14079531D02*
X3212991Y-14070008D01*
X3212991Y-14070008D02*
X3232039Y-14060484D01*
X3384420Y-14260484D02*
X3384420Y-14127150D01*
X3384420Y-14146198D02*
X3393943Y-14136674D01*
X3393943Y-14136674D02*
X3412991Y-14127150D01*
X3412991Y-14127150D02*
X3441563Y-14127150D01*
X3441563Y-14127150D02*
X3460610Y-14136674D01*
X3460610Y-14136674D02*
X3470134Y-14155722D01*
X3470134Y-14155722D02*
X3470134Y-14260484D01*
X3470134Y-14155722D02*
X3479658Y-14136674D01*
X3479658Y-14136674D02*
X3498705Y-14127150D01*
X3498705Y-14127150D02*
X3527277Y-14127150D01*
X3527277Y-14127150D02*
X3546324Y-14136674D01*
X3546324Y-14136674D02*
X3555848Y-14155722D01*
X3555848Y-14155722D02*
X3555848Y-14260484D01*
X3651086Y-14260484D02*
X3651086Y-14127150D01*
X3651086Y-14146198D02*
X3660610Y-14136674D01*
X3660610Y-14136674D02*
X3679658Y-14127150D01*
X3679658Y-14127150D02*
X3708229Y-14127150D01*
X3708229Y-14127150D02*
X3727277Y-14136674D01*
X3727277Y-14136674D02*
X3736801Y-14155722D01*
X3736801Y-14155722D02*
X3736801Y-14260484D01*
X3736801Y-14155722D02*
X3746324Y-14136674D01*
X3746324Y-14136674D02*
X3765372Y-14127150D01*
X3765372Y-14127150D02*
X3793943Y-14127150D01*
X3793943Y-14127150D02*
X3812991Y-14136674D01*
X3812991Y-14136674D02*
X3822515Y-14155722D01*
X3822515Y-14155722D02*
X3822515Y-14260484D01*
X4212991Y-14050960D02*
X4041563Y-14308103D01*
X4470134Y-14060484D02*
X4489182Y-14060484D01*
X4489182Y-14060484D02*
X4508229Y-14070008D01*
X4508229Y-14070008D02*
X4517753Y-14079531D01*
X4517753Y-14079531D02*
X4527277Y-14098579D01*
X4527277Y-14098579D02*
X4536801Y-14136674D01*
X4536801Y-14136674D02*
X4536801Y-14184293D01*
X4536801Y-14184293D02*
X4527277Y-14222388D01*
X4527277Y-14222388D02*
X4517753Y-14241436D01*
X4517753Y-14241436D02*
X4508229Y-14250960D01*
X4508229Y-14250960D02*
X4489182Y-14260484D01*
X4489182Y-14260484D02*
X4470134Y-14260484D01*
X4470134Y-14260484D02*
X4451087Y-14250960D01*
X4451087Y-14250960D02*
X4441563Y-14241436D01*
X4441563Y-14241436D02*
X4432039Y-14222388D01*
X4432039Y-14222388D02*
X4422515Y-14184293D01*
X4422515Y-14184293D02*
X4422515Y-14136674D01*
X4422515Y-14136674D02*
X4432039Y-14098579D01*
X4432039Y-14098579D02*
X4441563Y-14079531D01*
X4441563Y-14079531D02*
X4451087Y-14070008D01*
X4451087Y-14070008D02*
X4470134Y-14060484D01*
X4622515Y-14241436D02*
X4632039Y-14250960D01*
X4632039Y-14250960D02*
X4622515Y-14260484D01*
X4622515Y-14260484D02*
X4612991Y-14250960D01*
X4612991Y-14250960D02*
X4622515Y-14241436D01*
X4622515Y-14241436D02*
X4622515Y-14260484D01*
X4755848Y-14060484D02*
X4774896Y-14060484D01*
X4774896Y-14060484D02*
X4793944Y-14070008D01*
X4793944Y-14070008D02*
X4803468Y-14079531D01*
X4803468Y-14079531D02*
X4812991Y-14098579D01*
X4812991Y-14098579D02*
X4822515Y-14136674D01*
X4822515Y-14136674D02*
X4822515Y-14184293D01*
X4822515Y-14184293D02*
X4812991Y-14222388D01*
X4812991Y-14222388D02*
X4803468Y-14241436D01*
X4803468Y-14241436D02*
X4793944Y-14250960D01*
X4793944Y-14250960D02*
X4774896Y-14260484D01*
X4774896Y-14260484D02*
X4755848Y-14260484D01*
X4755848Y-14260484D02*
X4736801Y-14250960D01*
X4736801Y-14250960D02*
X4727277Y-14241436D01*
X4727277Y-14241436D02*
X4717753Y-14222388D01*
X4717753Y-14222388D02*
X4708229Y-14184293D01*
X4708229Y-14184293D02*
X4708229Y-14136674D01*
X4708229Y-14136674D02*
X4717753Y-14098579D01*
X4717753Y-14098579D02*
X4727277Y-14079531D01*
X4727277Y-14079531D02*
X4736801Y-14070008D01*
X4736801Y-14070008D02*
X4755848Y-14060484D01*
X4889182Y-14060484D02*
X5022515Y-14060484D01*
X5022515Y-14060484D02*
X4936801Y-14260484D01*
X5136801Y-14060484D02*
X5155849Y-14060484D01*
X5155849Y-14060484D02*
X5174896Y-14070008D01*
X5174896Y-14070008D02*
X5184420Y-14079531D01*
X5184420Y-14079531D02*
X5193944Y-14098579D01*
X5193944Y-14098579D02*
X5203468Y-14136674D01*
X5203468Y-14136674D02*
X5203468Y-14184293D01*
X5203468Y-14184293D02*
X5193944Y-14222388D01*
X5193944Y-14222388D02*
X5184420Y-14241436D01*
X5184420Y-14241436D02*
X5174896Y-14250960D01*
X5174896Y-14250960D02*
X5155849Y-14260484D01*
X5155849Y-14260484D02*
X5136801Y-14260484D01*
X5136801Y-14260484D02*
X5117753Y-14250960D01*
X5117753Y-14250960D02*
X5108229Y-14241436D01*
X5108229Y-14241436D02*
X5098706Y-14222388D01*
X5098706Y-14222388D02*
X5089182Y-14184293D01*
X5089182Y-14184293D02*
X5089182Y-14136674D01*
X5089182Y-14136674D02*
X5098706Y-14098579D01*
X5098706Y-14098579D02*
X5108229Y-14079531D01*
X5108229Y-14079531D02*
X5117753Y-14070008D01*
X5117753Y-14070008D02*
X5136801Y-14060484D01*
X5298706Y-14260484D02*
X5336801Y-14260484D01*
X5336801Y-14260484D02*
X5355849Y-14250960D01*
X5355849Y-14250960D02*
X5365372Y-14241436D01*
X5365372Y-14241436D02*
X5384420Y-14212865D01*
X5384420Y-14212865D02*
X5393944Y-14174769D01*
X5393944Y-14174769D02*
X5393944Y-14098579D01*
X5393944Y-14098579D02*
X5384420Y-14079531D01*
X5384420Y-14079531D02*
X5374896Y-14070008D01*
X5374896Y-14070008D02*
X5355849Y-14060484D01*
X5355849Y-14060484D02*
X5317753Y-14060484D01*
X5317753Y-14060484D02*
X5298706Y-14070008D01*
X5298706Y-14070008D02*
X5289182Y-14079531D01*
X5289182Y-14079531D02*
X5279658Y-14098579D01*
X5279658Y-14098579D02*
X5279658Y-14146198D01*
X5279658Y-14146198D02*
X5289182Y-14165246D01*
X5289182Y-14165246D02*
X5298706Y-14174769D01*
X5298706Y-14174769D02*
X5317753Y-14184293D01*
X5317753Y-14184293D02*
X5355849Y-14184293D01*
X5355849Y-14184293D02*
X5374896Y-14174769D01*
X5374896Y-14174769D02*
X5384420Y-14165246D01*
X5384420Y-14165246D02*
X5393944Y-14146198D01*
X5470134Y-14060484D02*
X5470134Y-14098579D01*
X5546325Y-14060484D02*
X5546325Y-14098579D01*
X5841563Y-14336674D02*
X5832039Y-14327150D01*
X5832039Y-14327150D02*
X5812991Y-14298579D01*
X5812991Y-14298579D02*
X5803468Y-14279531D01*
X5803468Y-14279531D02*
X5793944Y-14250960D01*
X5793944Y-14250960D02*
X5784420Y-14203341D01*
X5784420Y-14203341D02*
X5784420Y-14165246D01*
X5784420Y-14165246D02*
X5793944Y-14117627D01*
X5793944Y-14117627D02*
X5803468Y-14089055D01*
X5803468Y-14089055D02*
X5812991Y-14070008D01*
X5812991Y-14070008D02*
X5832039Y-14041436D01*
X5832039Y-14041436D02*
X5841563Y-14031912D01*
X6003468Y-14060484D02*
X5965372Y-14060484D01*
X5965372Y-14060484D02*
X5946325Y-14070008D01*
X5946325Y-14070008D02*
X5936801Y-14079531D01*
X5936801Y-14079531D02*
X5917753Y-14108103D01*
X5917753Y-14108103D02*
X5908229Y-14146198D01*
X5908229Y-14146198D02*
X5908229Y-14222388D01*
X5908229Y-14222388D02*
X5917753Y-14241436D01*
X5917753Y-14241436D02*
X5927277Y-14250960D01*
X5927277Y-14250960D02*
X5946325Y-14260484D01*
X5946325Y-14260484D02*
X5984420Y-14260484D01*
X5984420Y-14260484D02*
X6003468Y-14250960D01*
X6003468Y-14250960D02*
X6012991Y-14241436D01*
X6012991Y-14241436D02*
X6022515Y-14222388D01*
X6022515Y-14222388D02*
X6022515Y-14174769D01*
X6022515Y-14174769D02*
X6012991Y-14155722D01*
X6012991Y-14155722D02*
X6003468Y-14146198D01*
X6003468Y-14146198D02*
X5984420Y-14136674D01*
X5984420Y-14136674D02*
X5946325Y-14136674D01*
X5946325Y-14136674D02*
X5927277Y-14146198D01*
X5927277Y-14146198D02*
X5917753Y-14155722D01*
X5917753Y-14155722D02*
X5908229Y-14174769D01*
X6260610Y-14260484D02*
X6260610Y-14060484D01*
X6346325Y-14260484D02*
X6346325Y-14155722D01*
X6346325Y-14155722D02*
X6336801Y-14136674D01*
X6336801Y-14136674D02*
X6317753Y-14127150D01*
X6317753Y-14127150D02*
X6289182Y-14127150D01*
X6289182Y-14127150D02*
X6270134Y-14136674D01*
X6270134Y-14136674D02*
X6260610Y-14146198D01*
X6470134Y-14260484D02*
X6451087Y-14250960D01*
X6451087Y-14250960D02*
X6441563Y-14241436D01*
X6441563Y-14241436D02*
X6432039Y-14222388D01*
X6432039Y-14222388D02*
X6432039Y-14165246D01*
X6432039Y-14165246D02*
X6441563Y-14146198D01*
X6441563Y-14146198D02*
X6451087Y-14136674D01*
X6451087Y-14136674D02*
X6470134Y-14127150D01*
X6470134Y-14127150D02*
X6498706Y-14127150D01*
X6498706Y-14127150D02*
X6517753Y-14136674D01*
X6517753Y-14136674D02*
X6527277Y-14146198D01*
X6527277Y-14146198D02*
X6536801Y-14165246D01*
X6536801Y-14165246D02*
X6536801Y-14222388D01*
X6536801Y-14222388D02*
X6527277Y-14241436D01*
X6527277Y-14241436D02*
X6517753Y-14250960D01*
X6517753Y-14250960D02*
X6498706Y-14260484D01*
X6498706Y-14260484D02*
X6470134Y-14260484D01*
X6651087Y-14260484D02*
X6632039Y-14250960D01*
X6632039Y-14250960D02*
X6622515Y-14231912D01*
X6622515Y-14231912D02*
X6622515Y-14060484D01*
X6803468Y-14250960D02*
X6784420Y-14260484D01*
X6784420Y-14260484D02*
X6746325Y-14260484D01*
X6746325Y-14260484D02*
X6727277Y-14250960D01*
X6727277Y-14250960D02*
X6717753Y-14231912D01*
X6717753Y-14231912D02*
X6717753Y-14155722D01*
X6717753Y-14155722D02*
X6727277Y-14136674D01*
X6727277Y-14136674D02*
X6746325Y-14127150D01*
X6746325Y-14127150D02*
X6784420Y-14127150D01*
X6784420Y-14127150D02*
X6803468Y-14136674D01*
X6803468Y-14136674D02*
X6812991Y-14155722D01*
X6812991Y-14155722D02*
X6812991Y-14174769D01*
X6812991Y-14174769D02*
X6717753Y-14193817D01*
X6889182Y-14250960D02*
X6908230Y-14260484D01*
X6908230Y-14260484D02*
X6946325Y-14260484D01*
X6946325Y-14260484D02*
X6965372Y-14250960D01*
X6965372Y-14250960D02*
X6974896Y-14231912D01*
X6974896Y-14231912D02*
X6974896Y-14222388D01*
X6974896Y-14222388D02*
X6965372Y-14203341D01*
X6965372Y-14203341D02*
X6946325Y-14193817D01*
X6946325Y-14193817D02*
X6917753Y-14193817D01*
X6917753Y-14193817D02*
X6898706Y-14184293D01*
X6898706Y-14184293D02*
X6889182Y-14165246D01*
X6889182Y-14165246D02*
X6889182Y-14155722D01*
X6889182Y-14155722D02*
X6898706Y-14136674D01*
X6898706Y-14136674D02*
X6917753Y-14127150D01*
X6917753Y-14127150D02*
X6946325Y-14127150D01*
X6946325Y-14127150D02*
X6965372Y-14136674D01*
X7041563Y-14336674D02*
X7051087Y-14327150D01*
X7051087Y-14327150D02*
X7070134Y-14298579D01*
X7070134Y-14298579D02*
X7079658Y-14279531D01*
X7079658Y-14279531D02*
X7089182Y-14250960D01*
X7089182Y-14250960D02*
X7098706Y-14203341D01*
X7098706Y-14203341D02*
X7098706Y-14165246D01*
X7098706Y-14165246D02*
X7089182Y-14117627D01*
X7089182Y-14117627D02*
X7079658Y-14089055D01*
X7079658Y-14089055D02*
X7070134Y-14070008D01*
X7070134Y-14070008D02*
X7051087Y-14041436D01*
X7051087Y-14041436D02*
X7041563Y-14031912D01*
X2066500Y-14369000D02*
X2266500Y-14569000D01*
X2266500Y-14369000D02*
X2066500Y-14569000D01*
X2266500Y-14469000D02*
G75*
G03*
X2266500Y-14469000I-100000J0D01*
G01*
X2517753Y-14379531D02*
X2527277Y-14370008D01*
X2527277Y-14370008D02*
X2546324Y-14360484D01*
X2546324Y-14360484D02*
X2593944Y-14360484D01*
X2593944Y-14360484D02*
X2612991Y-14370008D01*
X2612991Y-14370008D02*
X2622515Y-14379531D01*
X2622515Y-14379531D02*
X2632039Y-14398579D01*
X2632039Y-14398579D02*
X2632039Y-14417627D01*
X2632039Y-14417627D02*
X2622515Y-14446198D01*
X2622515Y-14446198D02*
X2508229Y-14560484D01*
X2508229Y-14560484D02*
X2632039Y-14560484D01*
X2717753Y-14541436D02*
X2727277Y-14550960D01*
X2727277Y-14550960D02*
X2717753Y-14560484D01*
X2717753Y-14560484D02*
X2708229Y-14550960D01*
X2708229Y-14550960D02*
X2717753Y-14541436D01*
X2717753Y-14541436D02*
X2717753Y-14560484D01*
X2851086Y-14360484D02*
X2870134Y-14360484D01*
X2870134Y-14360484D02*
X2889182Y-14370008D01*
X2889182Y-14370008D02*
X2898705Y-14379531D01*
X2898705Y-14379531D02*
X2908229Y-14398579D01*
X2908229Y-14398579D02*
X2917753Y-14436674D01*
X2917753Y-14436674D02*
X2917753Y-14484293D01*
X2917753Y-14484293D02*
X2908229Y-14522388D01*
X2908229Y-14522388D02*
X2898705Y-14541436D01*
X2898705Y-14541436D02*
X2889182Y-14550960D01*
X2889182Y-14550960D02*
X2870134Y-14560484D01*
X2870134Y-14560484D02*
X2851086Y-14560484D01*
X2851086Y-14560484D02*
X2832039Y-14550960D01*
X2832039Y-14550960D02*
X2822515Y-14541436D01*
X2822515Y-14541436D02*
X2812991Y-14522388D01*
X2812991Y-14522388D02*
X2803467Y-14484293D01*
X2803467Y-14484293D02*
X2803467Y-14436674D01*
X2803467Y-14436674D02*
X2812991Y-14398579D01*
X2812991Y-14398579D02*
X2822515Y-14379531D01*
X2822515Y-14379531D02*
X2832039Y-14370008D01*
X2832039Y-14370008D02*
X2851086Y-14360484D01*
X3041562Y-14360484D02*
X3060610Y-14360484D01*
X3060610Y-14360484D02*
X3079658Y-14370008D01*
X3079658Y-14370008D02*
X3089182Y-14379531D01*
X3089182Y-14379531D02*
X3098705Y-14398579D01*
X3098705Y-14398579D02*
X3108229Y-14436674D01*
X3108229Y-14436674D02*
X3108229Y-14484293D01*
X3108229Y-14484293D02*
X3098705Y-14522388D01*
X3098705Y-14522388D02*
X3089182Y-14541436D01*
X3089182Y-14541436D02*
X3079658Y-14550960D01*
X3079658Y-14550960D02*
X3060610Y-14560484D01*
X3060610Y-14560484D02*
X3041562Y-14560484D01*
X3041562Y-14560484D02*
X3022515Y-14550960D01*
X3022515Y-14550960D02*
X3012991Y-14541436D01*
X3012991Y-14541436D02*
X3003467Y-14522388D01*
X3003467Y-14522388D02*
X2993943Y-14484293D01*
X2993943Y-14484293D02*
X2993943Y-14436674D01*
X2993943Y-14436674D02*
X3003467Y-14398579D01*
X3003467Y-14398579D02*
X3012991Y-14379531D01*
X3012991Y-14379531D02*
X3022515Y-14370008D01*
X3022515Y-14370008D02*
X3041562Y-14360484D01*
X3232039Y-14360484D02*
X3251086Y-14360484D01*
X3251086Y-14360484D02*
X3270134Y-14370008D01*
X3270134Y-14370008D02*
X3279658Y-14379531D01*
X3279658Y-14379531D02*
X3289182Y-14398579D01*
X3289182Y-14398579D02*
X3298705Y-14436674D01*
X3298705Y-14436674D02*
X3298705Y-14484293D01*
X3298705Y-14484293D02*
X3289182Y-14522388D01*
X3289182Y-14522388D02*
X3279658Y-14541436D01*
X3279658Y-14541436D02*
X3270134Y-14550960D01*
X3270134Y-14550960D02*
X3251086Y-14560484D01*
X3251086Y-14560484D02*
X3232039Y-14560484D01*
X3232039Y-14560484D02*
X3212991Y-14550960D01*
X3212991Y-14550960D02*
X3203467Y-14541436D01*
X3203467Y-14541436D02*
X3193943Y-14522388D01*
X3193943Y-14522388D02*
X3184420Y-14484293D01*
X3184420Y-14484293D02*
X3184420Y-14436674D01*
X3184420Y-14436674D02*
X3193943Y-14398579D01*
X3193943Y-14398579D02*
X3203467Y-14379531D01*
X3203467Y-14379531D02*
X3212991Y-14370008D01*
X3212991Y-14370008D02*
X3232039Y-14360484D01*
X3384420Y-14560484D02*
X3384420Y-14427150D01*
X3384420Y-14446198D02*
X3393943Y-14436674D01*
X3393943Y-14436674D02*
X3412991Y-14427150D01*
X3412991Y-14427150D02*
X3441563Y-14427150D01*
X3441563Y-14427150D02*
X3460610Y-14436674D01*
X3460610Y-14436674D02*
X3470134Y-14455722D01*
X3470134Y-14455722D02*
X3470134Y-14560484D01*
X3470134Y-14455722D02*
X3479658Y-14436674D01*
X3479658Y-14436674D02*
X3498705Y-14427150D01*
X3498705Y-14427150D02*
X3527277Y-14427150D01*
X3527277Y-14427150D02*
X3546324Y-14436674D01*
X3546324Y-14436674D02*
X3555848Y-14455722D01*
X3555848Y-14455722D02*
X3555848Y-14560484D01*
X3651086Y-14560484D02*
X3651086Y-14427150D01*
X3651086Y-14446198D02*
X3660610Y-14436674D01*
X3660610Y-14436674D02*
X3679658Y-14427150D01*
X3679658Y-14427150D02*
X3708229Y-14427150D01*
X3708229Y-14427150D02*
X3727277Y-14436674D01*
X3727277Y-14436674D02*
X3736801Y-14455722D01*
X3736801Y-14455722D02*
X3736801Y-14560484D01*
X3736801Y-14455722D02*
X3746324Y-14436674D01*
X3746324Y-14436674D02*
X3765372Y-14427150D01*
X3765372Y-14427150D02*
X3793943Y-14427150D01*
X3793943Y-14427150D02*
X3812991Y-14436674D01*
X3812991Y-14436674D02*
X3822515Y-14455722D01*
X3822515Y-14455722D02*
X3822515Y-14560484D01*
X4212991Y-14350960D02*
X4041563Y-14608103D01*
X4470134Y-14360484D02*
X4489182Y-14360484D01*
X4489182Y-14360484D02*
X4508229Y-14370008D01*
X4508229Y-14370008D02*
X4517753Y-14379531D01*
X4517753Y-14379531D02*
X4527277Y-14398579D01*
X4527277Y-14398579D02*
X4536801Y-14436674D01*
X4536801Y-14436674D02*
X4536801Y-14484293D01*
X4536801Y-14484293D02*
X4527277Y-14522388D01*
X4527277Y-14522388D02*
X4517753Y-14541436D01*
X4517753Y-14541436D02*
X4508229Y-14550960D01*
X4508229Y-14550960D02*
X4489182Y-14560484D01*
X4489182Y-14560484D02*
X4470134Y-14560484D01*
X4470134Y-14560484D02*
X4451087Y-14550960D01*
X4451087Y-14550960D02*
X4441563Y-14541436D01*
X4441563Y-14541436D02*
X4432039Y-14522388D01*
X4432039Y-14522388D02*
X4422515Y-14484293D01*
X4422515Y-14484293D02*
X4422515Y-14436674D01*
X4422515Y-14436674D02*
X4432039Y-14398579D01*
X4432039Y-14398579D02*
X4441563Y-14379531D01*
X4441563Y-14379531D02*
X4451087Y-14370008D01*
X4451087Y-14370008D02*
X4470134Y-14360484D01*
X4622515Y-14541436D02*
X4632039Y-14550960D01*
X4632039Y-14550960D02*
X4622515Y-14560484D01*
X4622515Y-14560484D02*
X4612991Y-14550960D01*
X4612991Y-14550960D02*
X4622515Y-14541436D01*
X4622515Y-14541436D02*
X4622515Y-14560484D01*
X4755848Y-14360484D02*
X4774896Y-14360484D01*
X4774896Y-14360484D02*
X4793944Y-14370008D01*
X4793944Y-14370008D02*
X4803468Y-14379531D01*
X4803468Y-14379531D02*
X4812991Y-14398579D01*
X4812991Y-14398579D02*
X4822515Y-14436674D01*
X4822515Y-14436674D02*
X4822515Y-14484293D01*
X4822515Y-14484293D02*
X4812991Y-14522388D01*
X4812991Y-14522388D02*
X4803468Y-14541436D01*
X4803468Y-14541436D02*
X4793944Y-14550960D01*
X4793944Y-14550960D02*
X4774896Y-14560484D01*
X4774896Y-14560484D02*
X4755848Y-14560484D01*
X4755848Y-14560484D02*
X4736801Y-14550960D01*
X4736801Y-14550960D02*
X4727277Y-14541436D01*
X4727277Y-14541436D02*
X4717753Y-14522388D01*
X4717753Y-14522388D02*
X4708229Y-14484293D01*
X4708229Y-14484293D02*
X4708229Y-14436674D01*
X4708229Y-14436674D02*
X4717753Y-14398579D01*
X4717753Y-14398579D02*
X4727277Y-14379531D01*
X4727277Y-14379531D02*
X4736801Y-14370008D01*
X4736801Y-14370008D02*
X4755848Y-14360484D01*
X4889182Y-14360484D02*
X5022515Y-14360484D01*
X5022515Y-14360484D02*
X4936801Y-14560484D01*
X5127277Y-14446198D02*
X5108229Y-14436674D01*
X5108229Y-14436674D02*
X5098706Y-14427150D01*
X5098706Y-14427150D02*
X5089182Y-14408103D01*
X5089182Y-14408103D02*
X5089182Y-14398579D01*
X5089182Y-14398579D02*
X5098706Y-14379531D01*
X5098706Y-14379531D02*
X5108229Y-14370008D01*
X5108229Y-14370008D02*
X5127277Y-14360484D01*
X5127277Y-14360484D02*
X5165372Y-14360484D01*
X5165372Y-14360484D02*
X5184420Y-14370008D01*
X5184420Y-14370008D02*
X5193944Y-14379531D01*
X5193944Y-14379531D02*
X5203468Y-14398579D01*
X5203468Y-14398579D02*
X5203468Y-14408103D01*
X5203468Y-14408103D02*
X5193944Y-14427150D01*
X5193944Y-14427150D02*
X5184420Y-14436674D01*
X5184420Y-14436674D02*
X5165372Y-14446198D01*
X5165372Y-14446198D02*
X5127277Y-14446198D01*
X5127277Y-14446198D02*
X5108229Y-14455722D01*
X5108229Y-14455722D02*
X5098706Y-14465246D01*
X5098706Y-14465246D02*
X5089182Y-14484293D01*
X5089182Y-14484293D02*
X5089182Y-14522388D01*
X5089182Y-14522388D02*
X5098706Y-14541436D01*
X5098706Y-14541436D02*
X5108229Y-14550960D01*
X5108229Y-14550960D02*
X5127277Y-14560484D01*
X5127277Y-14560484D02*
X5165372Y-14560484D01*
X5165372Y-14560484D02*
X5184420Y-14550960D01*
X5184420Y-14550960D02*
X5193944Y-14541436D01*
X5193944Y-14541436D02*
X5203468Y-14522388D01*
X5203468Y-14522388D02*
X5203468Y-14484293D01*
X5203468Y-14484293D02*
X5193944Y-14465246D01*
X5193944Y-14465246D02*
X5184420Y-14455722D01*
X5184420Y-14455722D02*
X5165372Y-14446198D01*
X5270134Y-14360484D02*
X5403468Y-14360484D01*
X5403468Y-14360484D02*
X5317753Y-14560484D01*
X5470134Y-14360484D02*
X5470134Y-14398579D01*
X5546325Y-14360484D02*
X5546325Y-14398579D01*
X5841563Y-14636674D02*
X5832039Y-14627150D01*
X5832039Y-14627150D02*
X5812991Y-14598579D01*
X5812991Y-14598579D02*
X5803468Y-14579531D01*
X5803468Y-14579531D02*
X5793944Y-14550960D01*
X5793944Y-14550960D02*
X5784420Y-14503341D01*
X5784420Y-14503341D02*
X5784420Y-14465246D01*
X5784420Y-14465246D02*
X5793944Y-14417627D01*
X5793944Y-14417627D02*
X5803468Y-14389055D01*
X5803468Y-14389055D02*
X5812991Y-14370008D01*
X5812991Y-14370008D02*
X5832039Y-14341436D01*
X5832039Y-14341436D02*
X5841563Y-14331912D01*
X5908229Y-14379531D02*
X5917753Y-14370008D01*
X5917753Y-14370008D02*
X5936801Y-14360484D01*
X5936801Y-14360484D02*
X5984420Y-14360484D01*
X5984420Y-14360484D02*
X6003468Y-14370008D01*
X6003468Y-14370008D02*
X6012991Y-14379531D01*
X6012991Y-14379531D02*
X6022515Y-14398579D01*
X6022515Y-14398579D02*
X6022515Y-14417627D01*
X6022515Y-14417627D02*
X6012991Y-14446198D01*
X6012991Y-14446198D02*
X5898706Y-14560484D01*
X5898706Y-14560484D02*
X6022515Y-14560484D01*
X6260610Y-14560484D02*
X6260610Y-14360484D01*
X6346325Y-14560484D02*
X6346325Y-14455722D01*
X6346325Y-14455722D02*
X6336801Y-14436674D01*
X6336801Y-14436674D02*
X6317753Y-14427150D01*
X6317753Y-14427150D02*
X6289182Y-14427150D01*
X6289182Y-14427150D02*
X6270134Y-14436674D01*
X6270134Y-14436674D02*
X6260610Y-14446198D01*
X6470134Y-14560484D02*
X6451087Y-14550960D01*
X6451087Y-14550960D02*
X6441563Y-14541436D01*
X6441563Y-14541436D02*
X6432039Y-14522388D01*
X6432039Y-14522388D02*
X6432039Y-14465246D01*
X6432039Y-14465246D02*
X6441563Y-14446198D01*
X6441563Y-14446198D02*
X6451087Y-14436674D01*
X6451087Y-14436674D02*
X6470134Y-14427150D01*
X6470134Y-14427150D02*
X6498706Y-14427150D01*
X6498706Y-14427150D02*
X6517753Y-14436674D01*
X6517753Y-14436674D02*
X6527277Y-14446198D01*
X6527277Y-14446198D02*
X6536801Y-14465246D01*
X6536801Y-14465246D02*
X6536801Y-14522388D01*
X6536801Y-14522388D02*
X6527277Y-14541436D01*
X6527277Y-14541436D02*
X6517753Y-14550960D01*
X6517753Y-14550960D02*
X6498706Y-14560484D01*
X6498706Y-14560484D02*
X6470134Y-14560484D01*
X6651087Y-14560484D02*
X6632039Y-14550960D01*
X6632039Y-14550960D02*
X6622515Y-14531912D01*
X6622515Y-14531912D02*
X6622515Y-14360484D01*
X6803468Y-14550960D02*
X6784420Y-14560484D01*
X6784420Y-14560484D02*
X6746325Y-14560484D01*
X6746325Y-14560484D02*
X6727277Y-14550960D01*
X6727277Y-14550960D02*
X6717753Y-14531912D01*
X6717753Y-14531912D02*
X6717753Y-14455722D01*
X6717753Y-14455722D02*
X6727277Y-14436674D01*
X6727277Y-14436674D02*
X6746325Y-14427150D01*
X6746325Y-14427150D02*
X6784420Y-14427150D01*
X6784420Y-14427150D02*
X6803468Y-14436674D01*
X6803468Y-14436674D02*
X6812991Y-14455722D01*
X6812991Y-14455722D02*
X6812991Y-14474769D01*
X6812991Y-14474769D02*
X6717753Y-14493817D01*
X6889182Y-14550960D02*
X6908230Y-14560484D01*
X6908230Y-14560484D02*
X6946325Y-14560484D01*
X6946325Y-14560484D02*
X6965372Y-14550960D01*
X6965372Y-14550960D02*
X6974896Y-14531912D01*
X6974896Y-14531912D02*
X6974896Y-14522388D01*
X6974896Y-14522388D02*
X6965372Y-14503341D01*
X6965372Y-14503341D02*
X6946325Y-14493817D01*
X6946325Y-14493817D02*
X6917753Y-14493817D01*
X6917753Y-14493817D02*
X6898706Y-14484293D01*
X6898706Y-14484293D02*
X6889182Y-14465246D01*
X6889182Y-14465246D02*
X6889182Y-14455722D01*
X6889182Y-14455722D02*
X6898706Y-14436674D01*
X6898706Y-14436674D02*
X6917753Y-14427150D01*
X6917753Y-14427150D02*
X6946325Y-14427150D01*
X6946325Y-14427150D02*
X6965372Y-14436674D01*
X7041563Y-14636674D02*
X7051087Y-14627150D01*
X7051087Y-14627150D02*
X7070134Y-14598579D01*
X7070134Y-14598579D02*
X7079658Y-14579531D01*
X7079658Y-14579531D02*
X7089182Y-14550960D01*
X7089182Y-14550960D02*
X7098706Y-14503341D01*
X7098706Y-14503341D02*
X7098706Y-14465246D01*
X7098706Y-14465246D02*
X7089182Y-14417627D01*
X7089182Y-14417627D02*
X7079658Y-14389055D01*
X7079658Y-14389055D02*
X7070134Y-14370008D01*
X7070134Y-14370008D02*
X7051087Y-14341436D01*
X7051087Y-14341436D02*
X7041563Y-14331912D01*
X2066500Y-14689000D02*
X2266500Y-14889000D01*
X2266500Y-14689000D02*
X2066500Y-14889000D01*
X2166500Y-14689000D02*
X2166500Y-14889000D01*
X2066500Y-14789000D02*
X2266500Y-14789000D01*
X2508229Y-14680484D02*
X2632039Y-14680484D01*
X2632039Y-14680484D02*
X2565372Y-14756674D01*
X2565372Y-14756674D02*
X2593944Y-14756674D01*
X2593944Y-14756674D02*
X2612991Y-14766198D01*
X2612991Y-14766198D02*
X2622515Y-14775722D01*
X2622515Y-14775722D02*
X2632039Y-14794769D01*
X2632039Y-14794769D02*
X2632039Y-14842388D01*
X2632039Y-14842388D02*
X2622515Y-14861436D01*
X2622515Y-14861436D02*
X2612991Y-14870960D01*
X2612991Y-14870960D02*
X2593944Y-14880484D01*
X2593944Y-14880484D02*
X2536801Y-14880484D01*
X2536801Y-14880484D02*
X2517753Y-14870960D01*
X2517753Y-14870960D02*
X2508229Y-14861436D01*
X2717753Y-14861436D02*
X2727277Y-14870960D01*
X2727277Y-14870960D02*
X2717753Y-14880484D01*
X2717753Y-14880484D02*
X2708229Y-14870960D01*
X2708229Y-14870960D02*
X2717753Y-14861436D01*
X2717753Y-14861436D02*
X2717753Y-14880484D01*
X2898705Y-14747150D02*
X2898705Y-14880484D01*
X2851086Y-14670960D02*
X2803467Y-14813817D01*
X2803467Y-14813817D02*
X2927277Y-14813817D01*
X3098705Y-14680484D02*
X3003467Y-14680484D01*
X3003467Y-14680484D02*
X2993943Y-14775722D01*
X2993943Y-14775722D02*
X3003467Y-14766198D01*
X3003467Y-14766198D02*
X3022515Y-14756674D01*
X3022515Y-14756674D02*
X3070134Y-14756674D01*
X3070134Y-14756674D02*
X3089182Y-14766198D01*
X3089182Y-14766198D02*
X3098705Y-14775722D01*
X3098705Y-14775722D02*
X3108229Y-14794769D01*
X3108229Y-14794769D02*
X3108229Y-14842388D01*
X3108229Y-14842388D02*
X3098705Y-14861436D01*
X3098705Y-14861436D02*
X3089182Y-14870960D01*
X3089182Y-14870960D02*
X3070134Y-14880484D01*
X3070134Y-14880484D02*
X3022515Y-14880484D01*
X3022515Y-14880484D02*
X3003467Y-14870960D01*
X3003467Y-14870960D02*
X2993943Y-14861436D01*
X3279658Y-14747150D02*
X3279658Y-14880484D01*
X3232039Y-14670960D02*
X3184420Y-14813817D01*
X3184420Y-14813817D02*
X3308229Y-14813817D01*
X3384420Y-14880484D02*
X3384420Y-14747150D01*
X3384420Y-14766198D02*
X3393943Y-14756674D01*
X3393943Y-14756674D02*
X3412991Y-14747150D01*
X3412991Y-14747150D02*
X3441563Y-14747150D01*
X3441563Y-14747150D02*
X3460610Y-14756674D01*
X3460610Y-14756674D02*
X3470134Y-14775722D01*
X3470134Y-14775722D02*
X3470134Y-14880484D01*
X3470134Y-14775722D02*
X3479658Y-14756674D01*
X3479658Y-14756674D02*
X3498705Y-14747150D01*
X3498705Y-14747150D02*
X3527277Y-14747150D01*
X3527277Y-14747150D02*
X3546324Y-14756674D01*
X3546324Y-14756674D02*
X3555848Y-14775722D01*
X3555848Y-14775722D02*
X3555848Y-14880484D01*
X3651086Y-14880484D02*
X3651086Y-14747150D01*
X3651086Y-14766198D02*
X3660610Y-14756674D01*
X3660610Y-14756674D02*
X3679658Y-14747150D01*
X3679658Y-14747150D02*
X3708229Y-14747150D01*
X3708229Y-14747150D02*
X3727277Y-14756674D01*
X3727277Y-14756674D02*
X3736801Y-14775722D01*
X3736801Y-14775722D02*
X3736801Y-14880484D01*
X3736801Y-14775722D02*
X3746324Y-14756674D01*
X3746324Y-14756674D02*
X3765372Y-14747150D01*
X3765372Y-14747150D02*
X3793943Y-14747150D01*
X3793943Y-14747150D02*
X3812991Y-14756674D01*
X3812991Y-14756674D02*
X3822515Y-14775722D01*
X3822515Y-14775722D02*
X3822515Y-14880484D01*
X4212991Y-14670960D02*
X4041563Y-14928103D01*
X4470134Y-14680484D02*
X4489182Y-14680484D01*
X4489182Y-14680484D02*
X4508229Y-14690008D01*
X4508229Y-14690008D02*
X4517753Y-14699531D01*
X4517753Y-14699531D02*
X4527277Y-14718579D01*
X4527277Y-14718579D02*
X4536801Y-14756674D01*
X4536801Y-14756674D02*
X4536801Y-14804293D01*
X4536801Y-14804293D02*
X4527277Y-14842388D01*
X4527277Y-14842388D02*
X4517753Y-14861436D01*
X4517753Y-14861436D02*
X4508229Y-14870960D01*
X4508229Y-14870960D02*
X4489182Y-14880484D01*
X4489182Y-14880484D02*
X4470134Y-14880484D01*
X4470134Y-14880484D02*
X4451087Y-14870960D01*
X4451087Y-14870960D02*
X4441563Y-14861436D01*
X4441563Y-14861436D02*
X4432039Y-14842388D01*
X4432039Y-14842388D02*
X4422515Y-14804293D01*
X4422515Y-14804293D02*
X4422515Y-14756674D01*
X4422515Y-14756674D02*
X4432039Y-14718579D01*
X4432039Y-14718579D02*
X4441563Y-14699531D01*
X4441563Y-14699531D02*
X4451087Y-14690008D01*
X4451087Y-14690008D02*
X4470134Y-14680484D01*
X4622515Y-14861436D02*
X4632039Y-14870960D01*
X4632039Y-14870960D02*
X4622515Y-14880484D01*
X4622515Y-14880484D02*
X4612991Y-14870960D01*
X4612991Y-14870960D02*
X4622515Y-14861436D01*
X4622515Y-14861436D02*
X4622515Y-14880484D01*
X4822515Y-14880484D02*
X4708229Y-14880484D01*
X4765372Y-14880484D02*
X4765372Y-14680484D01*
X4765372Y-14680484D02*
X4746325Y-14709055D01*
X4746325Y-14709055D02*
X4727277Y-14728103D01*
X4727277Y-14728103D02*
X4708229Y-14737627D01*
X4889182Y-14680484D02*
X5012991Y-14680484D01*
X5012991Y-14680484D02*
X4946325Y-14756674D01*
X4946325Y-14756674D02*
X4974896Y-14756674D01*
X4974896Y-14756674D02*
X4993944Y-14766198D01*
X4993944Y-14766198D02*
X5003468Y-14775722D01*
X5003468Y-14775722D02*
X5012991Y-14794769D01*
X5012991Y-14794769D02*
X5012991Y-14842388D01*
X5012991Y-14842388D02*
X5003468Y-14861436D01*
X5003468Y-14861436D02*
X4993944Y-14870960D01*
X4993944Y-14870960D02*
X4974896Y-14880484D01*
X4974896Y-14880484D02*
X4917753Y-14880484D01*
X4917753Y-14880484D02*
X4898706Y-14870960D01*
X4898706Y-14870960D02*
X4889182Y-14861436D01*
X5184420Y-14680484D02*
X5146325Y-14680484D01*
X5146325Y-14680484D02*
X5127277Y-14690008D01*
X5127277Y-14690008D02*
X5117753Y-14699531D01*
X5117753Y-14699531D02*
X5098706Y-14728103D01*
X5098706Y-14728103D02*
X5089182Y-14766198D01*
X5089182Y-14766198D02*
X5089182Y-14842388D01*
X5089182Y-14842388D02*
X5098706Y-14861436D01*
X5098706Y-14861436D02*
X5108229Y-14870960D01*
X5108229Y-14870960D02*
X5127277Y-14880484D01*
X5127277Y-14880484D02*
X5165372Y-14880484D01*
X5165372Y-14880484D02*
X5184420Y-14870960D01*
X5184420Y-14870960D02*
X5193944Y-14861436D01*
X5193944Y-14861436D02*
X5203468Y-14842388D01*
X5203468Y-14842388D02*
X5203468Y-14794769D01*
X5203468Y-14794769D02*
X5193944Y-14775722D01*
X5193944Y-14775722D02*
X5184420Y-14766198D01*
X5184420Y-14766198D02*
X5165372Y-14756674D01*
X5165372Y-14756674D02*
X5127277Y-14756674D01*
X5127277Y-14756674D02*
X5108229Y-14766198D01*
X5108229Y-14766198D02*
X5098706Y-14775722D01*
X5098706Y-14775722D02*
X5089182Y-14794769D01*
X5327277Y-14680484D02*
X5346325Y-14680484D01*
X5346325Y-14680484D02*
X5365372Y-14690008D01*
X5365372Y-14690008D02*
X5374896Y-14699531D01*
X5374896Y-14699531D02*
X5384420Y-14718579D01*
X5384420Y-14718579D02*
X5393944Y-14756674D01*
X5393944Y-14756674D02*
X5393944Y-14804293D01*
X5393944Y-14804293D02*
X5384420Y-14842388D01*
X5384420Y-14842388D02*
X5374896Y-14861436D01*
X5374896Y-14861436D02*
X5365372Y-14870960D01*
X5365372Y-14870960D02*
X5346325Y-14880484D01*
X5346325Y-14880484D02*
X5327277Y-14880484D01*
X5327277Y-14880484D02*
X5308229Y-14870960D01*
X5308229Y-14870960D02*
X5298706Y-14861436D01*
X5298706Y-14861436D02*
X5289182Y-14842388D01*
X5289182Y-14842388D02*
X5279658Y-14804293D01*
X5279658Y-14804293D02*
X5279658Y-14756674D01*
X5279658Y-14756674D02*
X5289182Y-14718579D01*
X5289182Y-14718579D02*
X5298706Y-14699531D01*
X5298706Y-14699531D02*
X5308229Y-14690008D01*
X5308229Y-14690008D02*
X5327277Y-14680484D01*
X5470134Y-14680484D02*
X5470134Y-14718579D01*
X5546325Y-14680484D02*
X5546325Y-14718579D01*
X5841563Y-14956674D02*
X5832039Y-14947150D01*
X5832039Y-14947150D02*
X5812991Y-14918579D01*
X5812991Y-14918579D02*
X5803468Y-14899531D01*
X5803468Y-14899531D02*
X5793944Y-14870960D01*
X5793944Y-14870960D02*
X5784420Y-14823341D01*
X5784420Y-14823341D02*
X5784420Y-14785246D01*
X5784420Y-14785246D02*
X5793944Y-14737627D01*
X5793944Y-14737627D02*
X5803468Y-14709055D01*
X5803468Y-14709055D02*
X5812991Y-14690008D01*
X5812991Y-14690008D02*
X5832039Y-14661436D01*
X5832039Y-14661436D02*
X5841563Y-14651912D01*
X5908229Y-14699531D02*
X5917753Y-14690008D01*
X5917753Y-14690008D02*
X5936801Y-14680484D01*
X5936801Y-14680484D02*
X5984420Y-14680484D01*
X5984420Y-14680484D02*
X6003468Y-14690008D01*
X6003468Y-14690008D02*
X6012991Y-14699531D01*
X6012991Y-14699531D02*
X6022515Y-14718579D01*
X6022515Y-14718579D02*
X6022515Y-14737627D01*
X6022515Y-14737627D02*
X6012991Y-14766198D01*
X6012991Y-14766198D02*
X5898706Y-14880484D01*
X5898706Y-14880484D02*
X6022515Y-14880484D01*
X6260610Y-14880484D02*
X6260610Y-14680484D01*
X6346325Y-14880484D02*
X6346325Y-14775722D01*
X6346325Y-14775722D02*
X6336801Y-14756674D01*
X6336801Y-14756674D02*
X6317753Y-14747150D01*
X6317753Y-14747150D02*
X6289182Y-14747150D01*
X6289182Y-14747150D02*
X6270134Y-14756674D01*
X6270134Y-14756674D02*
X6260610Y-14766198D01*
X6470134Y-14880484D02*
X6451087Y-14870960D01*
X6451087Y-14870960D02*
X6441563Y-14861436D01*
X6441563Y-14861436D02*
X6432039Y-14842388D01*
X6432039Y-14842388D02*
X6432039Y-14785246D01*
X6432039Y-14785246D02*
X6441563Y-14766198D01*
X6441563Y-14766198D02*
X6451087Y-14756674D01*
X6451087Y-14756674D02*
X6470134Y-14747150D01*
X6470134Y-14747150D02*
X6498706Y-14747150D01*
X6498706Y-14747150D02*
X6517753Y-14756674D01*
X6517753Y-14756674D02*
X6527277Y-14766198D01*
X6527277Y-14766198D02*
X6536801Y-14785246D01*
X6536801Y-14785246D02*
X6536801Y-14842388D01*
X6536801Y-14842388D02*
X6527277Y-14861436D01*
X6527277Y-14861436D02*
X6517753Y-14870960D01*
X6517753Y-14870960D02*
X6498706Y-14880484D01*
X6498706Y-14880484D02*
X6470134Y-14880484D01*
X6651087Y-14880484D02*
X6632039Y-14870960D01*
X6632039Y-14870960D02*
X6622515Y-14851912D01*
X6622515Y-14851912D02*
X6622515Y-14680484D01*
X6803468Y-14870960D02*
X6784420Y-14880484D01*
X6784420Y-14880484D02*
X6746325Y-14880484D01*
X6746325Y-14880484D02*
X6727277Y-14870960D01*
X6727277Y-14870960D02*
X6717753Y-14851912D01*
X6717753Y-14851912D02*
X6717753Y-14775722D01*
X6717753Y-14775722D02*
X6727277Y-14756674D01*
X6727277Y-14756674D02*
X6746325Y-14747150D01*
X6746325Y-14747150D02*
X6784420Y-14747150D01*
X6784420Y-14747150D02*
X6803468Y-14756674D01*
X6803468Y-14756674D02*
X6812991Y-14775722D01*
X6812991Y-14775722D02*
X6812991Y-14794769D01*
X6812991Y-14794769D02*
X6717753Y-14813817D01*
X6889182Y-14870960D02*
X6908230Y-14880484D01*
X6908230Y-14880484D02*
X6946325Y-14880484D01*
X6946325Y-14880484D02*
X6965372Y-14870960D01*
X6965372Y-14870960D02*
X6974896Y-14851912D01*
X6974896Y-14851912D02*
X6974896Y-14842388D01*
X6974896Y-14842388D02*
X6965372Y-14823341D01*
X6965372Y-14823341D02*
X6946325Y-14813817D01*
X6946325Y-14813817D02*
X6917753Y-14813817D01*
X6917753Y-14813817D02*
X6898706Y-14804293D01*
X6898706Y-14804293D02*
X6889182Y-14785246D01*
X6889182Y-14785246D02*
X6889182Y-14775722D01*
X6889182Y-14775722D02*
X6898706Y-14756674D01*
X6898706Y-14756674D02*
X6917753Y-14747150D01*
X6917753Y-14747150D02*
X6946325Y-14747150D01*
X6946325Y-14747150D02*
X6965372Y-14756674D01*
X7041563Y-14956674D02*
X7051087Y-14947150D01*
X7051087Y-14947150D02*
X7070134Y-14918579D01*
X7070134Y-14918579D02*
X7079658Y-14899531D01*
X7079658Y-14899531D02*
X7089182Y-14870960D01*
X7089182Y-14870960D02*
X7098706Y-14823341D01*
X7098706Y-14823341D02*
X7098706Y-14785246D01*
X7098706Y-14785246D02*
X7089182Y-14737627D01*
X7089182Y-14737627D02*
X7079658Y-14709055D01*
X7079658Y-14709055D02*
X7070134Y-14690008D01*
X7070134Y-14690008D02*
X7051087Y-14661436D01*
X7051087Y-14661436D02*
X7041563Y-14651912D01*
M02*
