G04 #@! TF.GenerationSoftware,KiCad,Pcbnew,7.0.9*
G04 #@! TF.CreationDate,2024-04-22T21:03:37-07:00*
G04 #@! TF.ProjectId,AVcarrierBoard,41566361-7272-4696-9572-426f6172642e,rev?*
G04 #@! TF.SameCoordinates,Original*
G04 #@! TF.FileFunction,Copper,L1,Top*
G04 #@! TF.FilePolarity,Positive*
%FSLAX46Y46*%
G04 Gerber Fmt 4.6, Leading zero omitted, Abs format (unit mm)*
G04 Created by KiCad (PCBNEW 7.0.9) date 2024-04-22 21:03:37*
%MOMM*%
%LPD*%
G01*
G04 APERTURE LIST*
G04 #@! TA.AperFunction,WasherPad*
%ADD10C,6.000000*%
G04 #@! TD*
G04 #@! TA.AperFunction,ComponentPad*
%ADD11C,2.032000*%
G04 #@! TD*
G04 #@! TA.AperFunction,ComponentPad*
%ADD12R,1.520000X1.520000*%
G04 #@! TD*
G04 #@! TA.AperFunction,ComponentPad*
%ADD13C,1.520000*%
G04 #@! TD*
G04 #@! TA.AperFunction,ComponentPad*
%ADD14R,1.650000X1.650000*%
G04 #@! TD*
G04 #@! TA.AperFunction,ComponentPad*
%ADD15C,1.650000*%
G04 #@! TD*
G04 #@! TA.AperFunction,ComponentPad*
%ADD16R,2.032000X2.032000*%
G04 #@! TD*
G04 #@! TA.AperFunction,ComponentPad*
%ADD17R,2.800000X2.800000*%
G04 #@! TD*
G04 #@! TA.AperFunction,ComponentPad*
%ADD18C,2.800000*%
G04 #@! TD*
G04 #@! TA.AperFunction,SMDPad,CuDef*
%ADD19R,7.340000X6.350000*%
G04 #@! TD*
G04 #@! TA.AperFunction,WasherPad*
%ADD20C,6.560820*%
G04 #@! TD*
G04 #@! TA.AperFunction,ComponentPad*
%ADD21C,3.654400*%
G04 #@! TD*
G04 #@! TA.AperFunction,WasherPad*
%ADD22C,5.842000*%
G04 #@! TD*
G04 #@! TA.AperFunction,ViaPad*
%ADD23C,3.000000*%
G04 #@! TD*
G04 #@! TA.AperFunction,Conductor*
%ADD24C,2.500000*%
G04 #@! TD*
G04 APERTURE END LIST*
D10*
X131210000Y-78920000D03*
D11*
X148310000Y-71120000D03*
X148310000Y-79620000D03*
X113310000Y-71120000D03*
X113310000Y-79620000D03*
D12*
X159362399Y-91440000D03*
D13*
X156362400Y-91440000D03*
D14*
X29464000Y-96723200D03*
D15*
X29464000Y-101803200D03*
X29464000Y-106883200D03*
X29464000Y-111963200D03*
D16*
X117275000Y-108060000D03*
X117275000Y-111520000D03*
X117275000Y-114980000D03*
X117275000Y-118440000D03*
D11*
X36735000Y-114220000D03*
X36735000Y-119300000D03*
D17*
X43557799Y-77730434D03*
D18*
X43557799Y-81930433D03*
X43557799Y-86130432D03*
X39357800Y-77730434D03*
X39357800Y-81930433D03*
X39357800Y-86130432D03*
D19*
X181990000Y-81885000D03*
X260650000Y-81885000D03*
X181990000Y-100995000D03*
X260650000Y-100995000D03*
D14*
X270650000Y-88137500D03*
D15*
X270650000Y-93217500D03*
X270650000Y-98297500D03*
X270650000Y-103377500D03*
D12*
X159486600Y-71094600D03*
D13*
X156486601Y-71094600D03*
D20*
X194616600Y-117830600D03*
X165673300Y-104876600D03*
D16*
X147372600Y-103860600D03*
X147372600Y-107035600D03*
X147372600Y-110210600D03*
X147372600Y-113385600D03*
X147372600Y-116560600D03*
X147372600Y-119735600D03*
D21*
X249000000Y-90000000D03*
X193755000Y-73998000D03*
D22*
X62616800Y-89756000D03*
X88016800Y-77056000D03*
D11*
X106599387Y-78326000D03*
X106599387Y-73765535D03*
D12*
X156512001Y-81127600D03*
D13*
X159512000Y-81127600D03*
D23*
X251228000Y-80772000D03*
X175869600Y-95046800D03*
X109220000Y-88900000D03*
X173618000Y-77402600D03*
X122453400Y-89230200D03*
D24*
X148310000Y-69683160D02*
X151013360Y-66979800D01*
X151013360Y-66979800D02*
X163742331Y-66979800D01*
X163742331Y-66979800D02*
X165760400Y-68997869D01*
X148310000Y-71120000D02*
X148310000Y-69683160D01*
X165760400Y-68997869D02*
X165760400Y-77241400D01*
X156512001Y-81002187D02*
X156512001Y-81127600D01*
X165760400Y-77241400D02*
X160272788Y-77241400D01*
X160272788Y-77241400D02*
X156512001Y-81002187D01*
X159486600Y-71094600D02*
X159486600Y-71912977D01*
X143916400Y-100050600D02*
X143916400Y-114548600D01*
X159486600Y-71912977D02*
X151377002Y-80022575D01*
X151377002Y-80022575D02*
X151377002Y-92589998D01*
X151377002Y-92589998D02*
X143916400Y-100050600D01*
X143916400Y-114548600D02*
X145694400Y-116326600D01*
X156486601Y-71094600D02*
X155726601Y-70334600D01*
X155726601Y-70334600D02*
X152913777Y-70334600D01*
X152913777Y-70334600D02*
X134018177Y-89230200D01*
X134018177Y-89230200D02*
X122453400Y-89230200D01*
X181990000Y-100995000D02*
X174747400Y-100995000D01*
X174747400Y-100995000D02*
X174345600Y-100593200D01*
X174345600Y-100593200D02*
X174345600Y-96570800D01*
X174345600Y-96570800D02*
X175869600Y-95046800D01*
X109965000Y-108060000D02*
X117275000Y-108060000D01*
X99695000Y-97790000D02*
X109965000Y-108060000D01*
X41706800Y-96723200D02*
X43230800Y-95199200D01*
X52019200Y-95199200D02*
X54610000Y-97790000D01*
X43230800Y-95199200D02*
X52019200Y-95199200D01*
X54610000Y-97790000D02*
X99695000Y-97790000D01*
X29464000Y-96723200D02*
X41706800Y-96723200D01*
X29464000Y-101803200D02*
X39573200Y-101803200D01*
X39573200Y-101803200D02*
X43180000Y-105410000D01*
X109030800Y-111520000D02*
X117275000Y-111520000D01*
X102920800Y-105410000D02*
X109030800Y-111520000D01*
X43180000Y-105410000D02*
X102920800Y-105410000D01*
X146663600Y-119026600D02*
X147372600Y-119735600D01*
X109220000Y-88900000D02*
X139346600Y-119026600D01*
X139346600Y-119026600D02*
X146663600Y-119026600D01*
X45669200Y-114300000D02*
X48768000Y-114300000D01*
X56591200Y-122123200D02*
X135119000Y-122123200D01*
X38354000Y-106984800D02*
X45669200Y-114300000D01*
X135197400Y-122201600D02*
X142013600Y-122201600D01*
X151790400Y-119507000D02*
X151790400Y-114287400D01*
X151790400Y-114287400D02*
X150888600Y-113385600D01*
X150888600Y-113385600D02*
X147372600Y-113385600D01*
X142013600Y-122201600D02*
X142247600Y-122435600D01*
X142247600Y-122435600D02*
X148861800Y-122435600D01*
X148861800Y-122435600D02*
X151790400Y-119507000D01*
X29565600Y-106984800D02*
X38354000Y-106984800D01*
X135119000Y-122123200D02*
X135197400Y-122201600D01*
X48768000Y-114300000D02*
X56591200Y-122123200D01*
X29464000Y-106883200D02*
X29565600Y-106984800D01*
X178652400Y-85222600D02*
X161159799Y-85222600D01*
X181990000Y-81885000D02*
X178652400Y-85222600D01*
X161159799Y-85222600D02*
X156362400Y-90019999D01*
X156362400Y-90019999D02*
X156362400Y-91440000D01*
X145694400Y-116326600D02*
X147372600Y-116326600D01*
X164839990Y-113100190D02*
X161950400Y-110210600D01*
X161950400Y-110210600D02*
X147372600Y-110210600D01*
X267462500Y-98297500D02*
X267462500Y-108457500D01*
X267462500Y-108457500D02*
X261620000Y-114300000D01*
X260420190Y-113100190D02*
X164839990Y-113100190D01*
X270650000Y-98297500D02*
X267462500Y-98297500D01*
X261620000Y-114300000D02*
X260420190Y-113100190D01*
X260650000Y-85030000D02*
X260650000Y-104140000D01*
G04 #@! TA.AperFunction,Conductor*
G36*
X149245256Y-66059685D02*
G01*
X149291011Y-66112489D01*
X149300955Y-66181647D01*
X149271930Y-66245203D01*
X149265898Y-66251681D01*
X147095348Y-68422230D01*
X147023197Y-68489176D01*
X147023194Y-68489179D01*
X146961821Y-68566139D01*
X146897600Y-68640764D01*
X146881961Y-68665653D01*
X146877937Y-68671324D01*
X146859617Y-68694297D01*
X146810391Y-68779558D01*
X146758022Y-68862902D01*
X146758016Y-68862914D01*
X146746264Y-68889849D01*
X146743131Y-68896055D01*
X146728430Y-68921520D01*
X146692464Y-69013160D01*
X146653100Y-69103383D01*
X146653098Y-69103388D01*
X146645493Y-69131772D01*
X146643320Y-69138375D01*
X146632580Y-69165744D01*
X146614485Y-69245018D01*
X146610671Y-69261729D01*
X146585194Y-69356809D01*
X146585194Y-69356811D01*
X146581903Y-69386009D01*
X146580739Y-69392863D01*
X146574197Y-69421532D01*
X146574196Y-69421535D01*
X146566841Y-69519699D01*
X146555818Y-69617524D01*
X146559500Y-69715891D01*
X146559500Y-71185500D01*
X146574196Y-71381620D01*
X146574197Y-71381625D01*
X146632576Y-71637402D01*
X146632578Y-71637411D01*
X146632580Y-71637416D01*
X146728432Y-71881643D01*
X146859614Y-72108857D01*
X146937611Y-72206662D01*
X147023198Y-72313985D01*
X147179296Y-72458821D01*
X147215521Y-72492433D01*
X147432296Y-72640228D01*
X147432301Y-72640230D01*
X147432302Y-72640231D01*
X147432303Y-72640232D01*
X147535424Y-72689892D01*
X147668673Y-72754061D01*
X147668674Y-72754061D01*
X147668677Y-72754063D01*
X147739564Y-72775928D01*
X147797822Y-72814498D01*
X147825980Y-72878443D01*
X147815096Y-72947460D01*
X147790694Y-72982100D01*
X133329415Y-87443381D01*
X133268092Y-87476866D01*
X133241734Y-87479700D01*
X123453487Y-87479700D01*
X123394060Y-87464532D01*
X123286566Y-87405835D01*
X123286567Y-87405835D01*
X123179315Y-87365832D01*
X123018446Y-87305831D01*
X123018443Y-87305830D01*
X123018437Y-87305828D01*
X122738833Y-87245004D01*
X122453401Y-87224590D01*
X122453399Y-87224590D01*
X122167966Y-87245004D01*
X121888362Y-87305828D01*
X121620233Y-87405835D01*
X121369090Y-87542970D01*
X121369082Y-87542975D01*
X121140012Y-87714454D01*
X121139994Y-87714470D01*
X120937670Y-87916794D01*
X120937654Y-87916812D01*
X120766175Y-88145882D01*
X120766170Y-88145890D01*
X120629035Y-88397033D01*
X120529028Y-88665162D01*
X120468204Y-88944766D01*
X120447790Y-89230198D01*
X120447790Y-89230201D01*
X120468204Y-89515633D01*
X120529028Y-89795237D01*
X120529030Y-89795243D01*
X120529031Y-89795246D01*
X120625068Y-90052730D01*
X120629035Y-90063366D01*
X120766170Y-90314509D01*
X120766175Y-90314517D01*
X120937654Y-90543587D01*
X120937670Y-90543605D01*
X121139994Y-90745929D01*
X121140012Y-90745945D01*
X121369082Y-90917424D01*
X121369090Y-90917429D01*
X121620233Y-91054564D01*
X121620232Y-91054564D01*
X121620236Y-91054565D01*
X121620239Y-91054567D01*
X121888354Y-91154569D01*
X121888360Y-91154570D01*
X121888362Y-91154571D01*
X122167966Y-91215395D01*
X122167968Y-91215395D01*
X122167972Y-91215396D01*
X122421620Y-91233537D01*
X122453399Y-91235810D01*
X122453400Y-91235810D01*
X122453401Y-91235810D01*
X122481995Y-91233764D01*
X122738828Y-91215396D01*
X122860436Y-91188942D01*
X123018437Y-91154571D01*
X123018437Y-91154570D01*
X123018446Y-91154569D01*
X123286561Y-91054567D01*
X123394060Y-90995868D01*
X123453487Y-90980700D01*
X133985446Y-90980700D01*
X134083812Y-90984381D01*
X134083812Y-90984380D01*
X134083813Y-90984381D01*
X134181637Y-90973358D01*
X134279807Y-90966002D01*
X134299171Y-90961582D01*
X134308464Y-90959461D01*
X134315324Y-90958295D01*
X134318219Y-90957968D01*
X134344527Y-90955005D01*
X134407913Y-90938020D01*
X134439608Y-90929528D01*
X134535585Y-90907622D01*
X134535586Y-90907621D01*
X134535593Y-90907620D01*
X134562967Y-90896875D01*
X134569549Y-90894709D01*
X134597952Y-90887100D01*
X134688176Y-90847735D01*
X134779820Y-90811768D01*
X134805296Y-90797057D01*
X134811464Y-90793944D01*
X134838424Y-90782183D01*
X134921779Y-90729807D01*
X135007034Y-90680586D01*
X135030022Y-90662252D01*
X135035669Y-90658245D01*
X135060574Y-90642598D01*
X135135197Y-90578378D01*
X135142409Y-90572627D01*
X135212146Y-90517015D01*
X135212148Y-90517012D01*
X135212158Y-90517005D01*
X135279106Y-90444851D01*
X146643745Y-79080212D01*
X146705067Y-79046728D01*
X146774759Y-79051712D01*
X146830692Y-79093584D01*
X146855109Y-79159048D01*
X146851999Y-79196841D01*
X146807538Y-79382036D01*
X146788811Y-79620000D01*
X146807538Y-79857963D01*
X146863261Y-80090068D01*
X146954608Y-80310600D01*
X146954610Y-80310604D01*
X146954611Y-80310605D01*
X147079332Y-80514132D01*
X147234357Y-80695643D01*
X147415868Y-80850668D01*
X147619395Y-80975389D01*
X147619397Y-80975389D01*
X147619399Y-80975391D01*
X147631410Y-80980366D01*
X147839927Y-81066737D01*
X148072034Y-81122461D01*
X148310000Y-81141189D01*
X148547966Y-81122461D01*
X148780073Y-81066737D01*
X149000605Y-80975389D01*
X149204132Y-80850668D01*
X149385643Y-80695643D01*
X149408213Y-80669216D01*
X149466718Y-80631025D01*
X149536585Y-80630525D01*
X149595632Y-80667878D01*
X149625111Y-80731225D01*
X149626502Y-80749749D01*
X149626502Y-91813554D01*
X149606817Y-91880593D01*
X149590183Y-91901235D01*
X142701748Y-98789670D01*
X142629597Y-98856616D01*
X142629594Y-98856619D01*
X142568221Y-98933579D01*
X142504000Y-99008204D01*
X142488361Y-99033093D01*
X142484337Y-99038764D01*
X142466017Y-99061737D01*
X142416791Y-99146998D01*
X142364422Y-99230342D01*
X142364416Y-99230354D01*
X142352664Y-99257289D01*
X142349531Y-99263495D01*
X142334830Y-99288960D01*
X142298864Y-99380600D01*
X142259500Y-99470823D01*
X142259498Y-99470828D01*
X142251893Y-99499212D01*
X142249719Y-99505821D01*
X142238990Y-99533159D01*
X142238980Y-99533184D01*
X142217071Y-99629169D01*
X142191594Y-99724249D01*
X142191594Y-99724251D01*
X142188303Y-99753449D01*
X142187139Y-99760303D01*
X142180597Y-99788972D01*
X142180596Y-99788975D01*
X142173241Y-99887139D01*
X142162218Y-99984964D01*
X142165900Y-100083331D01*
X142165900Y-114515868D01*
X142162218Y-114614235D01*
X142173241Y-114712060D01*
X142180596Y-114810224D01*
X142180597Y-114810229D01*
X142187138Y-114838885D01*
X142188304Y-114845744D01*
X142191594Y-114874949D01*
X142217071Y-114970030D01*
X142238981Y-115066020D01*
X142249717Y-115093377D01*
X142251891Y-115099982D01*
X142259498Y-115128368D01*
X142259500Y-115128376D01*
X142298864Y-115218599D01*
X142334831Y-115310241D01*
X142334832Y-115310245D01*
X142349526Y-115335694D01*
X142352661Y-115341904D01*
X142364414Y-115368841D01*
X142364419Y-115368851D01*
X142416792Y-115452202D01*
X142466013Y-115537456D01*
X142484336Y-115560432D01*
X142488361Y-115566106D01*
X142493915Y-115574944D01*
X142504002Y-115590997D01*
X142568221Y-115665620D01*
X142619474Y-115729890D01*
X142629600Y-115742587D01*
X142629602Y-115742588D01*
X142653809Y-115765048D01*
X142701748Y-115809529D01*
X143332012Y-116439793D01*
X143956638Y-117064419D01*
X143990123Y-117125742D01*
X143985139Y-117195434D01*
X143943267Y-117251367D01*
X143877803Y-117275784D01*
X143868957Y-117276100D01*
X140123042Y-117276100D01*
X140056003Y-117256415D01*
X140035361Y-117239781D01*
X125609625Y-102814045D01*
X111171671Y-88376090D01*
X111143172Y-88331745D01*
X111044367Y-88066839D01*
X111027411Y-88035787D01*
X110907229Y-87815690D01*
X110907224Y-87815682D01*
X110735745Y-87586612D01*
X110735729Y-87586594D01*
X110533405Y-87384270D01*
X110533387Y-87384254D01*
X110304317Y-87212775D01*
X110304309Y-87212770D01*
X110053166Y-87075635D01*
X110053167Y-87075635D01*
X109945915Y-87035632D01*
X109785046Y-86975631D01*
X109785043Y-86975630D01*
X109785037Y-86975628D01*
X109505433Y-86914804D01*
X109220001Y-86894390D01*
X109219999Y-86894390D01*
X108934566Y-86914804D01*
X108654962Y-86975628D01*
X108386833Y-87075635D01*
X108135690Y-87212770D01*
X108135682Y-87212775D01*
X107906612Y-87384254D01*
X107906594Y-87384270D01*
X107704270Y-87586594D01*
X107704254Y-87586612D01*
X107532775Y-87815682D01*
X107532770Y-87815690D01*
X107395635Y-88066833D01*
X107295628Y-88334962D01*
X107234804Y-88614566D01*
X107214390Y-88899998D01*
X107214390Y-88900001D01*
X107234804Y-89185433D01*
X107295628Y-89465037D01*
X107295630Y-89465043D01*
X107295631Y-89465046D01*
X107393079Y-89726313D01*
X107395635Y-89733166D01*
X107532770Y-89984309D01*
X107532775Y-89984317D01*
X107704254Y-90213387D01*
X107704270Y-90213405D01*
X107906594Y-90415729D01*
X107906612Y-90415745D01*
X108135682Y-90587224D01*
X108135690Y-90587229D01*
X108386833Y-90724364D01*
X108386837Y-90724366D01*
X108386839Y-90724367D01*
X108651745Y-90823172D01*
X108696090Y-90851671D01*
X138083839Y-120239419D01*
X138117324Y-120300742D01*
X138112340Y-120370434D01*
X138070468Y-120426367D01*
X138005004Y-120450784D01*
X137996158Y-120451100D01*
X135672352Y-120451100D01*
X135641037Y-120446380D01*
X135640939Y-120446813D01*
X135636419Y-120445781D01*
X135636416Y-120445780D01*
X135540430Y-120423871D01*
X135445349Y-120398394D01*
X135421674Y-120395727D01*
X135416140Y-120395103D01*
X135409285Y-120393938D01*
X135380629Y-120387397D01*
X135380624Y-120387396D01*
X135282460Y-120380041D01*
X135184635Y-120369018D01*
X135086269Y-120372700D01*
X107426405Y-120372700D01*
X107359366Y-120353015D01*
X107313611Y-120300211D01*
X107303667Y-120231053D01*
X107332692Y-120167497D01*
X107337137Y-120162635D01*
X107465126Y-120029882D01*
X107483686Y-120010631D01*
X107641299Y-119790329D01*
X107721815Y-119633724D01*
X107765149Y-119549440D01*
X107765151Y-119549434D01*
X107765156Y-119549425D01*
X107780697Y-119503870D01*
X115758500Y-119503870D01*
X115758501Y-119503876D01*
X115764908Y-119563483D01*
X115815202Y-119698328D01*
X115815206Y-119698335D01*
X115901452Y-119813544D01*
X115901455Y-119813547D01*
X116016664Y-119899793D01*
X116016671Y-119899797D01*
X116151517Y-119950091D01*
X116151516Y-119950091D01*
X116158444Y-119950835D01*
X116211127Y-119956500D01*
X118338872Y-119956499D01*
X118398483Y-119950091D01*
X118533331Y-119899796D01*
X118648546Y-119813546D01*
X118734796Y-119698331D01*
X118785091Y-119563483D01*
X118791500Y-119503873D01*
X118791499Y-117376128D01*
X118785091Y-117316517D01*
X118770094Y-117276309D01*
X118734797Y-117181671D01*
X118734793Y-117181664D01*
X118648547Y-117066455D01*
X118648544Y-117066452D01*
X118533335Y-116980206D01*
X118533328Y-116980202D01*
X118398482Y-116929908D01*
X118398483Y-116929908D01*
X118338883Y-116923501D01*
X118338881Y-116923500D01*
X118338873Y-116923500D01*
X118338864Y-116923500D01*
X116211129Y-116923500D01*
X116211123Y-116923501D01*
X116151516Y-116929908D01*
X116016671Y-116980202D01*
X116016664Y-116980206D01*
X115901455Y-117066452D01*
X115901452Y-117066455D01*
X115815206Y-117181664D01*
X115815202Y-117181671D01*
X115764908Y-117316517D01*
X115760753Y-117355168D01*
X115758501Y-117376123D01*
X115758500Y-117376135D01*
X115758500Y-119503870D01*
X107780697Y-119503870D01*
X107852618Y-119293055D01*
X107901819Y-119026683D01*
X107911712Y-118755985D01*
X107882086Y-118486732D01*
X107813572Y-118224662D01*
X107707630Y-117975360D01*
X107566518Y-117744140D01*
X107516541Y-117684086D01*
X107393246Y-117535930D01*
X107393240Y-117535925D01*
X107191502Y-117355168D01*
X106965592Y-117205707D01*
X106924718Y-117186546D01*
X106720324Y-117090730D01*
X106720319Y-117090728D01*
X106720314Y-117090726D01*
X106460942Y-117012692D01*
X106460928Y-117012689D01*
X106345291Y-116995671D01*
X106192939Y-116973250D01*
X105989869Y-116973250D01*
X105989864Y-116973250D01*
X105787344Y-116988073D01*
X105787331Y-116988075D01*
X105522953Y-117046967D01*
X105522946Y-117046970D01*
X105269939Y-117143737D01*
X105033726Y-117276307D01*
X105033724Y-117276308D01*
X105033723Y-117276309D01*
X104971393Y-117324438D01*
X104819322Y-117441862D01*
X104631322Y-117636859D01*
X104631316Y-117636866D01*
X104473702Y-117857169D01*
X104473699Y-117857174D01*
X104349850Y-118098059D01*
X104349843Y-118098077D01*
X104262384Y-118354435D01*
X104262381Y-118354449D01*
X104213181Y-118620818D01*
X104213180Y-118620825D01*
X104203287Y-118891513D01*
X104232913Y-119160763D01*
X104232915Y-119160774D01*
X104275468Y-119323540D01*
X104301428Y-119422838D01*
X104407370Y-119672140D01*
X104546501Y-119900114D01*
X104548479Y-119903355D01*
X104548486Y-119903365D01*
X104721753Y-120111569D01*
X104721759Y-120111574D01*
X104771730Y-120156348D01*
X104808524Y-120215745D01*
X104807364Y-120285605D01*
X104768619Y-120343748D01*
X104704591Y-120371714D01*
X104688983Y-120372700D01*
X57367643Y-120372700D01*
X57300604Y-120353015D01*
X57279962Y-120336381D01*
X53660796Y-116717215D01*
X50028929Y-113085348D01*
X49977658Y-113030091D01*
X49961988Y-113013202D01*
X49961987Y-113013200D01*
X49924404Y-112983229D01*
X49885020Y-112951821D01*
X49810397Y-112887602D01*
X49785506Y-112871961D01*
X49779832Y-112867936D01*
X49756856Y-112849613D01*
X49671602Y-112800392D01*
X49588251Y-112748019D01*
X49588241Y-112748014D01*
X49561304Y-112736261D01*
X49555094Y-112733126D01*
X49529645Y-112718432D01*
X49529641Y-112718431D01*
X49437999Y-112682464D01*
X49347776Y-112643100D01*
X49347768Y-112643098D01*
X49319382Y-112635491D01*
X49312777Y-112633317D01*
X49285420Y-112622581D01*
X49189430Y-112600671D01*
X49094349Y-112575194D01*
X49070674Y-112572527D01*
X49065140Y-112571903D01*
X49058285Y-112570738D01*
X49029629Y-112564197D01*
X49029624Y-112564196D01*
X48931460Y-112556841D01*
X48833635Y-112545818D01*
X48735269Y-112549500D01*
X46445643Y-112549500D01*
X46378604Y-112529815D01*
X46357962Y-112513181D01*
X42991508Y-109146727D01*
X39614929Y-105770148D01*
X39570448Y-105722209D01*
X39547988Y-105698002D01*
X39547987Y-105698000D01*
X39471020Y-105636621D01*
X39396397Y-105572402D01*
X39371506Y-105556761D01*
X39365832Y-105552736D01*
X39342856Y-105534413D01*
X39257602Y-105485192D01*
X39174251Y-105432819D01*
X39174241Y-105432814D01*
X39147304Y-105421061D01*
X39141094Y-105417926D01*
X39115645Y-105403232D01*
X39115641Y-105403231D01*
X39023999Y-105367264D01*
X38933776Y-105327900D01*
X38933768Y-105327898D01*
X38905382Y-105320291D01*
X38898777Y-105318117D01*
X38871420Y-105307381D01*
X38775430Y-105285471D01*
X38680349Y-105259994D01*
X38656674Y-105257327D01*
X38651140Y-105256703D01*
X38644285Y-105255538D01*
X38615629Y-105248997D01*
X38615624Y-105248996D01*
X38517460Y-105241641D01*
X38419635Y-105230618D01*
X38321269Y-105234300D01*
X30087706Y-105234300D01*
X30046751Y-105227341D01*
X30043783Y-105226302D01*
X29790347Y-105158394D01*
X29529635Y-105129018D01*
X29267457Y-105138829D01*
X29009677Y-105187603D01*
X29009672Y-105187604D01*
X28899086Y-105226300D01*
X28762027Y-105274259D01*
X28530067Y-105396854D01*
X28481336Y-105432819D01*
X28318968Y-105552650D01*
X28133450Y-105738168D01*
X28093271Y-105792610D01*
X27977654Y-105949267D01*
X27965783Y-105971728D01*
X27855060Y-106181225D01*
X27768404Y-106428872D01*
X27768403Y-106428877D01*
X27719629Y-106686657D01*
X27709818Y-106948835D01*
X27739194Y-107209545D01*
X27739194Y-107209549D01*
X27803144Y-107448212D01*
X27807100Y-107462975D01*
X27912017Y-107703447D01*
X28051602Y-107925597D01*
X28051605Y-107925600D01*
X28051607Y-107925603D01*
X28179890Y-108074671D01*
X28179890Y-108074670D01*
X28179898Y-108074679D01*
X28256887Y-108151668D01*
X28304670Y-108199451D01*
X28371617Y-108271604D01*
X28399615Y-108293931D01*
X28448579Y-108332978D01*
X28523203Y-108397198D01*
X28548087Y-108412833D01*
X28553763Y-108416860D01*
X28576743Y-108435186D01*
X28661997Y-108484407D01*
X28745353Y-108536783D01*
X28765771Y-108545691D01*
X28772295Y-108548537D01*
X28778500Y-108551670D01*
X28803957Y-108566368D01*
X28803958Y-108566368D01*
X28803961Y-108566370D01*
X28803963Y-108566371D01*
X28895600Y-108602335D01*
X28985825Y-108641700D01*
X29014220Y-108649308D01*
X29020819Y-108651480D01*
X29037749Y-108658124D01*
X29048184Y-108662220D01*
X29048189Y-108662221D01*
X29048192Y-108662222D01*
X29052210Y-108663139D01*
X29144169Y-108684128D01*
X29239250Y-108709605D01*
X29268456Y-108712895D01*
X29275301Y-108714058D01*
X29303970Y-108720602D01*
X29303975Y-108720602D01*
X29303978Y-108720603D01*
X29402137Y-108727958D01*
X29499963Y-108738981D01*
X29598331Y-108735300D01*
X37577557Y-108735300D01*
X37644596Y-108754985D01*
X37665238Y-108771619D01*
X44408270Y-115514651D01*
X44475217Y-115586804D01*
X44530070Y-115630547D01*
X44552179Y-115648178D01*
X44626803Y-115712398D01*
X44642031Y-115721966D01*
X44651687Y-115728033D01*
X44657363Y-115732060D01*
X44680343Y-115750386D01*
X44765597Y-115799607D01*
X44848953Y-115851983D01*
X44848955Y-115851984D01*
X44875895Y-115863737D01*
X44882100Y-115866870D01*
X44907557Y-115881568D01*
X44907558Y-115881568D01*
X44907561Y-115881570D01*
X44907563Y-115881571D01*
X44999200Y-115917535D01*
X45089425Y-115956900D01*
X45117820Y-115964508D01*
X45124419Y-115966680D01*
X45141284Y-115973299D01*
X45151784Y-115977420D01*
X45151789Y-115977421D01*
X45151792Y-115977422D01*
X45221578Y-115993350D01*
X45247769Y-115999328D01*
X45342850Y-116024805D01*
X45372056Y-116028095D01*
X45378901Y-116029258D01*
X45407570Y-116035802D01*
X45407575Y-116035802D01*
X45407578Y-116035803D01*
X45505737Y-116043158D01*
X45603563Y-116054181D01*
X45701931Y-116050500D01*
X47991557Y-116050500D01*
X48058596Y-116070185D01*
X48079238Y-116086819D01*
X48903096Y-116910677D01*
X48936581Y-116972000D01*
X48931597Y-117041692D01*
X48889725Y-117097625D01*
X48824261Y-117122042D01*
X48762783Y-117110634D01*
X48720320Y-117090728D01*
X48720313Y-117090726D01*
X48460942Y-117012692D01*
X48460928Y-117012689D01*
X48345291Y-116995671D01*
X48192939Y-116973250D01*
X47989869Y-116973250D01*
X47989864Y-116973250D01*
X47787344Y-116988073D01*
X47787331Y-116988075D01*
X47522953Y-117046967D01*
X47522946Y-117046970D01*
X47269939Y-117143737D01*
X47033726Y-117276307D01*
X47033724Y-117276308D01*
X47033723Y-117276309D01*
X46971393Y-117324438D01*
X46819322Y-117441862D01*
X46631322Y-117636859D01*
X46631316Y-117636866D01*
X46473702Y-117857169D01*
X46473699Y-117857174D01*
X46349850Y-118098059D01*
X46349843Y-118098077D01*
X46262384Y-118354435D01*
X46262381Y-118354449D01*
X46213181Y-118620818D01*
X46213180Y-118620825D01*
X46203287Y-118891513D01*
X46232913Y-119160763D01*
X46232915Y-119160774D01*
X46275468Y-119323540D01*
X46301428Y-119422838D01*
X46407370Y-119672140D01*
X46546501Y-119900114D01*
X46548479Y-119903355D01*
X46548486Y-119903365D01*
X46721753Y-120111569D01*
X46721759Y-120111574D01*
X46855106Y-120231053D01*
X46923498Y-120292332D01*
X47149410Y-120441794D01*
X47394676Y-120556770D01*
X47394683Y-120556772D01*
X47394685Y-120556773D01*
X47654057Y-120634807D01*
X47654064Y-120634808D01*
X47654069Y-120634810D01*
X47922061Y-120674250D01*
X47922066Y-120674250D01*
X48125136Y-120674250D01*
X48176633Y-120670480D01*
X48327656Y-120659427D01*
X48440258Y-120634343D01*
X48592046Y-120600532D01*
X48592048Y-120600531D01*
X48592053Y-120600530D01*
X48845058Y-120503764D01*
X49081277Y-120371191D01*
X49295677Y-120205638D01*
X49483686Y-120010631D01*
X49641299Y-119790329D01*
X49721815Y-119633724D01*
X49765149Y-119549440D01*
X49765151Y-119549434D01*
X49765156Y-119549425D01*
X49852618Y-119293055D01*
X49901819Y-119026683D01*
X49911712Y-118755985D01*
X49882086Y-118486732D01*
X49813572Y-118224662D01*
X49765146Y-118110708D01*
X49757044Y-118041312D01*
X49787747Y-117978550D01*
X49847508Y-117942350D01*
X49917353Y-117944206D01*
X49966951Y-117974532D01*
X55330270Y-123337851D01*
X55397217Y-123410004D01*
X55474179Y-123471378D01*
X55548800Y-123535596D01*
X55548807Y-123535601D01*
X55573693Y-123551237D01*
X55579370Y-123555265D01*
X55602343Y-123573586D01*
X55687593Y-123622805D01*
X55770954Y-123675184D01*
X55797897Y-123686939D01*
X55804098Y-123690069D01*
X55829557Y-123704768D01*
X55921187Y-123740730D01*
X56011426Y-123780101D01*
X56011427Y-123780101D01*
X56011429Y-123780102D01*
X56039822Y-123787709D01*
X56046430Y-123789883D01*
X56058629Y-123794671D01*
X56073770Y-123800615D01*
X56073774Y-123800616D01*
X56073784Y-123800620D01*
X56169746Y-123822523D01*
X56264850Y-123848006D01*
X56294067Y-123851297D01*
X56300907Y-123852459D01*
X56329570Y-123859002D01*
X56329576Y-123859002D01*
X56329579Y-123859003D01*
X56416158Y-123865490D01*
X56427729Y-123866357D01*
X56525564Y-123877381D01*
X56623941Y-123873700D01*
X134644047Y-123873700D01*
X134675361Y-123878421D01*
X134675460Y-123877988D01*
X134775965Y-123900927D01*
X134871049Y-123926405D01*
X134897356Y-123929368D01*
X134900252Y-123929695D01*
X134907113Y-123930861D01*
X134910789Y-123931700D01*
X134935770Y-123937402D01*
X134935776Y-123937402D01*
X134935779Y-123937403D01*
X134935774Y-123937403D01*
X135033953Y-123944759D01*
X135131763Y-123955780D01*
X135230114Y-123952100D01*
X141335158Y-123952100D01*
X141401131Y-123971107D01*
X141427349Y-123987581D01*
X141427351Y-123987582D01*
X141427353Y-123987583D01*
X141454295Y-123999337D01*
X141460500Y-124002470D01*
X141485957Y-124017168D01*
X141485958Y-124017168D01*
X141485961Y-124017170D01*
X141485963Y-124017171D01*
X141577600Y-124053135D01*
X141667825Y-124092500D01*
X141696220Y-124100108D01*
X141702819Y-124102280D01*
X141702822Y-124102281D01*
X141730184Y-124113020D01*
X141730189Y-124113021D01*
X141730192Y-124113022D01*
X141826169Y-124134928D01*
X141921250Y-124160405D01*
X141950456Y-124163695D01*
X141957301Y-124164858D01*
X141985970Y-124171402D01*
X141985975Y-124171402D01*
X141985978Y-124171403D01*
X142084139Y-124178758D01*
X142181964Y-124189781D01*
X142280331Y-124186100D01*
X148829069Y-124186100D01*
X148927435Y-124189781D01*
X148927435Y-124189780D01*
X148927436Y-124189781D01*
X149025260Y-124178758D01*
X149123430Y-124171402D01*
X149139467Y-124167741D01*
X149152087Y-124164861D01*
X149158947Y-124163695D01*
X149161842Y-124163368D01*
X149188150Y-124160405D01*
X149251536Y-124143420D01*
X149283231Y-124134928D01*
X149379208Y-124113022D01*
X149379209Y-124113021D01*
X149379216Y-124113020D01*
X149406590Y-124102275D01*
X149413172Y-124100109D01*
X149441575Y-124092500D01*
X149531799Y-124053135D01*
X149623443Y-124017168D01*
X149648919Y-124002457D01*
X149655087Y-123999344D01*
X149682047Y-123987583D01*
X149765402Y-123935207D01*
X149850657Y-123885986D01*
X149873645Y-123867652D01*
X149879292Y-123863645D01*
X149904197Y-123847998D01*
X149978820Y-123783778D01*
X150032802Y-123740730D01*
X150055769Y-123722415D01*
X150055771Y-123722412D01*
X150055781Y-123722405D01*
X150122729Y-123650251D01*
X153005051Y-120767929D01*
X153077205Y-120700981D01*
X153110343Y-120659427D01*
X153138578Y-120624020D01*
X153202798Y-120549397D01*
X153218445Y-120524493D01*
X153222458Y-120518837D01*
X153240786Y-120495857D01*
X153290000Y-120410614D01*
X153342384Y-120327247D01*
X153354148Y-120300280D01*
X153357269Y-120294099D01*
X153371968Y-120268643D01*
X153407928Y-120177015D01*
X153447301Y-120086774D01*
X153454910Y-120058373D01*
X153457081Y-120051774D01*
X153467820Y-120024416D01*
X153470965Y-120010640D01*
X153489726Y-119928437D01*
X153515204Y-119833354D01*
X153515205Y-119833350D01*
X153518495Y-119804147D01*
X153519661Y-119797287D01*
X153522541Y-119784667D01*
X153526202Y-119768630D01*
X153533558Y-119670460D01*
X153544581Y-119572636D01*
X153544238Y-119563483D01*
X153540900Y-119474268D01*
X153540900Y-114320131D01*
X153544581Y-114221764D01*
X153533558Y-114123939D01*
X153526203Y-114025778D01*
X153526202Y-114025775D01*
X153526202Y-114025770D01*
X153519658Y-113997101D01*
X153518495Y-113990256D01*
X153515205Y-113961050D01*
X153489726Y-113865962D01*
X153467820Y-113769984D01*
X153457079Y-113742618D01*
X153454908Y-113736020D01*
X153447301Y-113707626D01*
X153407928Y-113617384D01*
X153371968Y-113525757D01*
X153357274Y-113500307D01*
X153354139Y-113494098D01*
X153342385Y-113467156D01*
X153342384Y-113467153D01*
X153290000Y-113383785D01*
X153240786Y-113298543D01*
X153234121Y-113290185D01*
X153222464Y-113275567D01*
X153218437Y-113269893D01*
X153214205Y-113263158D01*
X153202798Y-113245003D01*
X153202797Y-113245002D01*
X153202796Y-113245000D01*
X153138578Y-113170379D01*
X153077204Y-113093417D01*
X153005051Y-113026470D01*
X152151362Y-112172781D01*
X152117877Y-112111458D01*
X152122861Y-112041766D01*
X152164733Y-111985833D01*
X152230197Y-111961416D01*
X152239043Y-111961100D01*
X161173957Y-111961100D01*
X161240996Y-111980785D01*
X161261638Y-111997419D01*
X163579047Y-114314828D01*
X163646009Y-114386995D01*
X163722984Y-114448381D01*
X163797593Y-114512587D01*
X163802815Y-114515868D01*
X163822472Y-114528219D01*
X163828148Y-114532246D01*
X163851133Y-114550576D01*
X163936394Y-114599801D01*
X164019743Y-114652173D01*
X164046685Y-114663927D01*
X164052890Y-114667060D01*
X164078347Y-114681758D01*
X164078348Y-114681758D01*
X164078351Y-114681760D01*
X164078353Y-114681761D01*
X164169990Y-114717725D01*
X164260215Y-114757090D01*
X164288610Y-114764698D01*
X164295209Y-114766870D01*
X164312139Y-114773514D01*
X164322574Y-114777610D01*
X164322579Y-114777611D01*
X164322582Y-114777612D01*
X164418555Y-114799517D01*
X164513639Y-114824995D01*
X164539946Y-114827958D01*
X164542842Y-114828285D01*
X164549703Y-114829451D01*
X164553379Y-114830290D01*
X164578360Y-114835992D01*
X164578366Y-114835992D01*
X164578369Y-114835993D01*
X164578364Y-114835993D01*
X164676543Y-114843349D01*
X164774353Y-114854370D01*
X164872704Y-114850690D01*
X191948442Y-114850690D01*
X192015481Y-114870375D01*
X192061236Y-114923179D01*
X192071180Y-114992337D01*
X192042155Y-115055893D01*
X192029216Y-115068772D01*
X192021814Y-115075125D01*
X192008330Y-115086701D01*
X191744112Y-115364659D01*
X191509379Y-115667910D01*
X191306530Y-115993350D01*
X191306525Y-115993359D01*
X191137640Y-116337655D01*
X191137634Y-116337668D01*
X191004451Y-116697271D01*
X190908325Y-117068534D01*
X190850254Y-117447599D01*
X190830831Y-117830600D01*
X190850254Y-118213600D01*
X190906754Y-118582410D01*
X190908326Y-118592670D01*
X190937443Y-118705125D01*
X191004451Y-118963928D01*
X191137634Y-119323531D01*
X191137640Y-119323544D01*
X191306525Y-119667840D01*
X191306530Y-119667849D01*
X191509379Y-119993289D01*
X191742213Y-120294087D01*
X191744117Y-120296546D01*
X191984470Y-120549397D01*
X192008330Y-120574498D01*
X192299305Y-120824292D01*
X192299308Y-120824294D01*
X192614064Y-121043371D01*
X192909915Y-121207582D01*
X192949373Y-121229483D01*
X193035573Y-121266474D01*
X193301783Y-121380713D01*
X193301786Y-121380714D01*
X193301791Y-121380716D01*
X193667676Y-121495513D01*
X193667679Y-121495513D01*
X193667687Y-121495516D01*
X194043329Y-121572713D01*
X194348549Y-121603750D01*
X194424853Y-121611510D01*
X194424854Y-121611510D01*
X194808347Y-121611510D01*
X194871933Y-121605043D01*
X195189871Y-121572713D01*
X195565513Y-121495516D01*
X195565523Y-121495513D01*
X195931408Y-121380716D01*
X195931409Y-121380715D01*
X195931417Y-121380713D01*
X196283831Y-121229481D01*
X196619136Y-121043371D01*
X196933892Y-120824294D01*
X197224870Y-120574498D01*
X197489083Y-120296546D01*
X197723821Y-119993289D01*
X197926674Y-119667841D01*
X198009709Y-119498563D01*
X267741387Y-119498563D01*
X267771013Y-119767813D01*
X267771015Y-119767824D01*
X267838097Y-120024416D01*
X267839528Y-120029888D01*
X267945470Y-120279190D01*
X268018220Y-120398395D01*
X268086579Y-120510405D01*
X268086586Y-120510415D01*
X268259853Y-120718619D01*
X268259859Y-120718624D01*
X268421249Y-120863229D01*
X268461598Y-120899382D01*
X268687510Y-121048844D01*
X268932776Y-121163820D01*
X268932783Y-121163822D01*
X268932785Y-121163823D01*
X269192157Y-121241857D01*
X269192164Y-121241858D01*
X269192169Y-121241860D01*
X269460161Y-121281300D01*
X269460166Y-121281300D01*
X269663236Y-121281300D01*
X269714733Y-121277530D01*
X269865756Y-121266477D01*
X269978358Y-121241393D01*
X270130146Y-121207582D01*
X270130148Y-121207581D01*
X270130153Y-121207580D01*
X270383158Y-121110814D01*
X270619377Y-120978241D01*
X270833777Y-120812688D01*
X271021786Y-120617681D01*
X271179399Y-120397379D01*
X271264913Y-120231053D01*
X271303249Y-120156490D01*
X271303251Y-120156484D01*
X271303256Y-120156475D01*
X271390718Y-119900105D01*
X271439919Y-119633733D01*
X271449812Y-119363035D01*
X271420186Y-119093782D01*
X271351672Y-118831712D01*
X271245730Y-118582410D01*
X271104618Y-118351190D01*
X271103445Y-118349781D01*
X270931346Y-118142980D01*
X270931340Y-118142975D01*
X270729602Y-117962218D01*
X270503692Y-117812757D01*
X270471227Y-117797538D01*
X270258424Y-117697780D01*
X270258419Y-117697778D01*
X270258414Y-117697776D01*
X269999042Y-117619742D01*
X269999028Y-117619739D01*
X269883391Y-117602721D01*
X269731039Y-117580300D01*
X269527969Y-117580300D01*
X269527964Y-117580300D01*
X269325444Y-117595123D01*
X269325431Y-117595125D01*
X269061053Y-117654017D01*
X269061046Y-117654020D01*
X268808039Y-117750787D01*
X268571826Y-117883357D01*
X268357422Y-118048912D01*
X268169422Y-118243909D01*
X268169416Y-118243916D01*
X268011802Y-118464219D01*
X268011799Y-118464224D01*
X267887950Y-118705109D01*
X267887943Y-118705127D01*
X267800484Y-118961485D01*
X267800481Y-118961499D01*
X267751281Y-119227868D01*
X267751280Y-119227875D01*
X267741387Y-119498563D01*
X198009709Y-119498563D01*
X198095562Y-119323540D01*
X198228751Y-118963920D01*
X198324874Y-118592670D01*
X198382945Y-118213600D01*
X198402369Y-117830600D01*
X198382945Y-117447600D01*
X198324874Y-117068530D01*
X198228751Y-116697280D01*
X198152016Y-116490091D01*
X198095565Y-116337668D01*
X198095564Y-116337667D01*
X198095562Y-116337660D01*
X197926674Y-115993359D01*
X197926669Y-115993350D01*
X197797642Y-115786346D01*
X197723821Y-115667911D01*
X197551299Y-115445031D01*
X197489087Y-115364659D01*
X197489086Y-115364658D01*
X197489083Y-115364654D01*
X197224870Y-115086702D01*
X197203987Y-115068774D01*
X197165943Y-115010173D01*
X197165621Y-114940304D01*
X197203124Y-114881353D01*
X197266545Y-114852035D01*
X197284758Y-114850690D01*
X259643747Y-114850690D01*
X259710786Y-114870375D01*
X259731428Y-114887009D01*
X260289450Y-115445031D01*
X260474969Y-115630550D01*
X260525948Y-115668174D01*
X260529569Y-115671061D01*
X260577602Y-115712398D01*
X260600365Y-115726700D01*
X260631281Y-115746125D01*
X260635088Y-115748721D01*
X260686067Y-115786346D01*
X260742087Y-115815953D01*
X260746087Y-115818263D01*
X260746108Y-115818276D01*
X260799754Y-115851984D01*
X260857837Y-115877325D01*
X260861996Y-115879328D01*
X260918027Y-115908941D01*
X260977837Y-115929869D01*
X260982135Y-115931557D01*
X261016216Y-115946425D01*
X261040226Y-115956901D01*
X261101454Y-115973306D01*
X261105861Y-115974666D01*
X261165667Y-115995594D01*
X261227943Y-116007376D01*
X261232419Y-116008399D01*
X261275482Y-116019938D01*
X261293642Y-116024804D01*
X261293644Y-116024805D01*
X261293647Y-116024805D01*
X261293650Y-116024806D01*
X261356645Y-116031903D01*
X261361205Y-116032591D01*
X261423457Y-116044370D01*
X261486790Y-116046739D01*
X261491369Y-116047082D01*
X261554364Y-116054181D01*
X261617706Y-116051810D01*
X261622300Y-116051810D01*
X261682964Y-116054081D01*
X261685635Y-116054181D01*
X261685635Y-116054180D01*
X261685636Y-116054181D01*
X261748620Y-116047084D01*
X261753190Y-116046741D01*
X261816543Y-116044371D01*
X261878827Y-116032585D01*
X261883366Y-116031901D01*
X261946350Y-116024805D01*
X262007572Y-116008399D01*
X262012038Y-116007380D01*
X262074333Y-115995594D01*
X262134154Y-115974661D01*
X262138555Y-115973303D01*
X262199775Y-115956900D01*
X262257861Y-115931557D01*
X262262155Y-115929872D01*
X262270013Y-115927122D01*
X262321973Y-115908941D01*
X262378026Y-115879315D01*
X262382171Y-115877321D01*
X262382178Y-115877318D01*
X262440247Y-115851983D01*
X262493903Y-115818268D01*
X262497879Y-115815972D01*
X262553934Y-115786347D01*
X262604935Y-115748704D01*
X262608743Y-115746109D01*
X262662397Y-115712398D01*
X262710431Y-115671059D01*
X262714039Y-115668182D01*
X262765031Y-115630550D01*
X262950550Y-115445031D01*
X268677151Y-109718429D01*
X268749305Y-109651481D01*
X268757211Y-109641568D01*
X268810678Y-109574520D01*
X268874898Y-109499897D01*
X268890545Y-109474993D01*
X268894558Y-109469337D01*
X268912886Y-109446357D01*
X268962100Y-109361114D01*
X269014484Y-109277747D01*
X269026248Y-109250780D01*
X269029369Y-109244599D01*
X269044068Y-109219143D01*
X269080028Y-109127515D01*
X269119401Y-109037274D01*
X269127010Y-109008873D01*
X269129181Y-109002274D01*
X269139920Y-108974916D01*
X269140187Y-108973749D01*
X269161826Y-108878937D01*
X269187304Y-108783854D01*
X269187305Y-108783850D01*
X269190595Y-108754647D01*
X269191761Y-108747787D01*
X269196287Y-108727958D01*
X269198302Y-108719130D01*
X269205658Y-108620960D01*
X269216681Y-108523136D01*
X269213000Y-108424768D01*
X269213000Y-103991570D01*
X269232685Y-103924531D01*
X269285489Y-103878776D01*
X269354647Y-103868832D01*
X269418203Y-103897857D01*
X269449381Y-103939164D01*
X269497699Y-104042782D01*
X269630730Y-104232769D01*
X269794731Y-104396770D01*
X269984718Y-104529801D01*
X270194921Y-104627820D01*
X270418950Y-104687849D01*
X270583985Y-104702287D01*
X270649998Y-104708063D01*
X270650000Y-104708063D01*
X270650002Y-104708063D01*
X270707762Y-104703009D01*
X270881050Y-104687849D01*
X271105079Y-104627820D01*
X271315282Y-104529801D01*
X271505269Y-104396770D01*
X271669270Y-104232769D01*
X271802301Y-104042782D01*
X271900320Y-103832579D01*
X271960349Y-103608550D01*
X271980563Y-103377500D01*
X271960349Y-103146450D01*
X271900320Y-102922421D01*
X271802301Y-102712219D01*
X271802299Y-102712216D01*
X271802298Y-102712214D01*
X271669273Y-102522235D01*
X271669268Y-102522229D01*
X271505269Y-102358230D01*
X271396123Y-102281805D01*
X271315282Y-102225199D01*
X271105079Y-102127180D01*
X271105076Y-102127179D01*
X271105074Y-102127178D01*
X270881051Y-102067151D01*
X270881044Y-102067150D01*
X270650002Y-102046937D01*
X270649998Y-102046937D01*
X270418955Y-102067150D01*
X270418948Y-102067151D01*
X270194917Y-102127181D01*
X269984718Y-102225199D01*
X269984714Y-102225201D01*
X269794735Y-102358226D01*
X269794729Y-102358231D01*
X269630731Y-102522229D01*
X269630726Y-102522235D01*
X269497701Y-102712214D01*
X269497699Y-102712218D01*
X269449382Y-102815835D01*
X269403210Y-102868274D01*
X269336016Y-102887426D01*
X269269135Y-102867210D01*
X269223800Y-102814045D01*
X269213000Y-102763430D01*
X269213000Y-100172000D01*
X269232685Y-100104961D01*
X269285489Y-100059206D01*
X269337000Y-100048000D01*
X270715500Y-100048000D01*
X270911620Y-100033303D01*
X270911622Y-100033302D01*
X270911630Y-100033302D01*
X271167416Y-99974920D01*
X271411643Y-99879068D01*
X271638857Y-99747886D01*
X271843981Y-99584305D01*
X271844863Y-99583355D01*
X271919811Y-99502579D01*
X272022433Y-99391979D01*
X272170228Y-99175204D01*
X272284063Y-98938823D01*
X272361396Y-98688115D01*
X272400500Y-98428682D01*
X272400500Y-98166318D01*
X272361396Y-97906885D01*
X272284063Y-97656177D01*
X272256567Y-97599081D01*
X272170232Y-97419803D01*
X272170231Y-97419802D01*
X272170230Y-97419801D01*
X272170228Y-97419796D01*
X272022433Y-97203021D01*
X271988131Y-97166052D01*
X271843985Y-97010698D01*
X271775783Y-96956309D01*
X271638857Y-96847114D01*
X271411643Y-96715932D01*
X271167416Y-96620080D01*
X271167411Y-96620078D01*
X271167402Y-96620076D01*
X270949818Y-96570414D01*
X270911630Y-96561698D01*
X270911629Y-96561697D01*
X270911625Y-96561697D01*
X270911620Y-96561696D01*
X270715500Y-96547000D01*
X270715494Y-96547000D01*
X267593682Y-96547000D01*
X267331318Y-96547000D01*
X267331308Y-96547000D01*
X267268663Y-96556443D01*
X267264056Y-96556962D01*
X267225413Y-96559858D01*
X267200870Y-96561698D01*
X267184468Y-96565441D01*
X267139092Y-96575797D01*
X267134538Y-96576659D01*
X267094027Y-96582766D01*
X267071885Y-96586104D01*
X267071880Y-96586105D01*
X267071876Y-96586106D01*
X267011343Y-96604778D01*
X267006864Y-96605978D01*
X266945093Y-96620077D01*
X266945079Y-96620081D01*
X266886093Y-96643231D01*
X266881717Y-96644762D01*
X266821183Y-96663434D01*
X266821160Y-96663443D01*
X266764081Y-96690931D01*
X266759832Y-96692785D01*
X266700858Y-96715931D01*
X266645984Y-96747611D01*
X266641886Y-96749777D01*
X266584795Y-96777272D01*
X266584790Y-96777274D01*
X266532445Y-96812963D01*
X266528519Y-96815430D01*
X266473649Y-96847109D01*
X266424100Y-96886622D01*
X266420370Y-96889374D01*
X266368022Y-96925066D01*
X266368014Y-96925072D01*
X266321571Y-96968164D01*
X266318058Y-96971188D01*
X266268520Y-97010693D01*
X266225420Y-97057142D01*
X266222142Y-97060420D01*
X266175693Y-97103520D01*
X266136188Y-97153058D01*
X266133164Y-97156571D01*
X266090072Y-97203014D01*
X266090066Y-97203022D01*
X266054374Y-97255370D01*
X266051622Y-97259100D01*
X266012109Y-97308649D01*
X265980430Y-97363519D01*
X265977963Y-97367445D01*
X265942274Y-97419790D01*
X265942272Y-97419795D01*
X265914777Y-97476886D01*
X265912611Y-97480984D01*
X265880931Y-97535858D01*
X265857785Y-97594832D01*
X265855931Y-97599081D01*
X265828443Y-97656160D01*
X265828434Y-97656183D01*
X265809762Y-97716717D01*
X265808231Y-97721093D01*
X265785081Y-97780079D01*
X265785077Y-97780093D01*
X265770978Y-97841864D01*
X265769778Y-97846343D01*
X265751106Y-97906876D01*
X265751105Y-97906880D01*
X265751104Y-97906885D01*
X265747766Y-97929027D01*
X265741659Y-97969538D01*
X265740797Y-97974092D01*
X265732603Y-98009997D01*
X265727023Y-98034449D01*
X265726698Y-98035872D01*
X265726698Y-98035873D01*
X265721962Y-98099056D01*
X265721443Y-98103663D01*
X265712000Y-98166308D01*
X265712000Y-107681056D01*
X265692315Y-107748095D01*
X265675681Y-107768737D01*
X261701980Y-111742438D01*
X261640657Y-111775923D01*
X261570965Y-111770939D01*
X261533415Y-111748745D01*
X261462587Y-111687792D01*
X261437696Y-111672151D01*
X261432022Y-111668126D01*
X261409046Y-111649803D01*
X261323792Y-111600582D01*
X261240441Y-111548209D01*
X261240431Y-111548204D01*
X261213494Y-111536451D01*
X261207284Y-111533316D01*
X261181835Y-111518622D01*
X261181831Y-111518621D01*
X261090189Y-111482654D01*
X260999966Y-111443290D01*
X260999958Y-111443288D01*
X260971572Y-111435681D01*
X260964967Y-111433507D01*
X260937610Y-111422771D01*
X260841620Y-111400861D01*
X260746539Y-111375384D01*
X260722864Y-111372717D01*
X260717330Y-111372093D01*
X260710475Y-111370928D01*
X260681819Y-111364387D01*
X260681814Y-111364386D01*
X260583650Y-111357031D01*
X260485825Y-111346008D01*
X260387459Y-111349690D01*
X165616432Y-111349690D01*
X165549393Y-111330005D01*
X165528751Y-111313371D01*
X164436016Y-110220636D01*
X163211329Y-108995948D01*
X163164057Y-108945001D01*
X191739454Y-108945001D01*
X191759613Y-109226866D01*
X191819678Y-109502977D01*
X191819680Y-109502984D01*
X191847100Y-109576499D01*
X191918432Y-109767750D01*
X191918434Y-109767754D01*
X192053855Y-110015758D01*
X192053860Y-110015766D01*
X192223196Y-110241974D01*
X192223212Y-110241992D01*
X192423007Y-110441787D01*
X192423025Y-110441803D01*
X192649233Y-110611139D01*
X192649241Y-110611144D01*
X192897245Y-110746565D01*
X192897249Y-110746567D01*
X192897251Y-110746568D01*
X193162016Y-110845320D01*
X193300077Y-110875353D01*
X193438133Y-110905386D01*
X193438135Y-110905386D01*
X193438139Y-110905387D01*
X193649447Y-110920500D01*
X193790553Y-110920500D01*
X194001861Y-110905387D01*
X194277984Y-110845320D01*
X194542749Y-110746568D01*
X194790764Y-110611141D01*
X195016982Y-110441797D01*
X195216797Y-110241982D01*
X195386141Y-110015764D01*
X195521568Y-109767749D01*
X195620320Y-109502984D01*
X195680387Y-109226861D01*
X195691979Y-109064778D01*
X255694500Y-109064778D01*
X255704969Y-109127515D01*
X255733930Y-109301067D01*
X255811711Y-109527637D01*
X255811713Y-109527642D01*
X255925730Y-109738325D01*
X255925734Y-109738331D01*
X256022466Y-109862612D01*
X256072866Y-109927366D01*
X256249113Y-110089612D01*
X256449660Y-110220636D01*
X256669038Y-110316864D01*
X256901263Y-110375672D01*
X257080213Y-110390500D01*
X257080215Y-110390500D01*
X257199785Y-110390500D01*
X257199787Y-110390500D01*
X257378737Y-110375672D01*
X257610962Y-110316864D01*
X257830340Y-110220636D01*
X258030887Y-110089612D01*
X258207134Y-109927366D01*
X258354271Y-109738323D01*
X258468287Y-109527641D01*
X258546070Y-109301065D01*
X258585500Y-109064778D01*
X258585500Y-108825222D01*
X258546070Y-108588935D01*
X258538323Y-108566370D01*
X258468288Y-108362362D01*
X258468286Y-108362357D01*
X258419173Y-108271605D01*
X258354271Y-108151677D01*
X258354269Y-108151674D01*
X258354265Y-108151668D01*
X258207139Y-107962641D01*
X258207134Y-107962634D01*
X258030887Y-107800388D01*
X258030884Y-107800386D01*
X258030883Y-107800385D01*
X257926853Y-107732419D01*
X257830340Y-107669364D01*
X257830337Y-107669362D01*
X257830336Y-107669362D01*
X257610963Y-107573136D01*
X257378737Y-107514328D01*
X257378740Y-107514328D01*
X257271367Y-107505431D01*
X257199787Y-107499500D01*
X257080213Y-107499500D01*
X257008633Y-107505431D01*
X256901260Y-107514328D01*
X256669036Y-107573136D01*
X256449663Y-107669362D01*
X256249116Y-107800385D01*
X256072869Y-107962631D01*
X256072860Y-107962641D01*
X255925734Y-108151668D01*
X255925730Y-108151674D01*
X255811713Y-108362357D01*
X255811711Y-108362362D01*
X255733930Y-108588932D01*
X255708891Y-108738980D01*
X255694500Y-108825222D01*
X255694500Y-109064778D01*
X195691979Y-109064778D01*
X195700026Y-108952269D01*
X195700546Y-108945001D01*
X195700546Y-108944998D01*
X195692826Y-108837055D01*
X195680387Y-108663139D01*
X195679403Y-108658617D01*
X195641007Y-108482114D01*
X195620320Y-108387016D01*
X195521568Y-108122251D01*
X195509125Y-108099464D01*
X195386144Y-107874241D01*
X195386139Y-107874233D01*
X195216803Y-107648025D01*
X195216787Y-107648007D01*
X195016992Y-107448212D01*
X195016974Y-107448196D01*
X194790766Y-107278860D01*
X194790758Y-107278855D01*
X194542754Y-107143434D01*
X194542750Y-107143432D01*
X194392580Y-107087422D01*
X194277984Y-107044680D01*
X194277980Y-107044679D01*
X194277977Y-107044678D01*
X194001866Y-106984613D01*
X193790553Y-106969500D01*
X193649447Y-106969500D01*
X193438133Y-106984613D01*
X193162022Y-107044678D01*
X193162017Y-107044679D01*
X193162016Y-107044680D01*
X193102447Y-107066898D01*
X192897249Y-107143432D01*
X192897245Y-107143434D01*
X192649241Y-107278855D01*
X192649233Y-107278860D01*
X192423025Y-107448196D01*
X192423007Y-107448212D01*
X192223212Y-107648007D01*
X192223196Y-107648025D01*
X192053860Y-107874233D01*
X192053855Y-107874241D01*
X191918434Y-108122245D01*
X191918432Y-108122249D01*
X191860120Y-108278591D01*
X191828876Y-108362362D01*
X191819678Y-108387022D01*
X191759613Y-108663133D01*
X191739454Y-108944998D01*
X191739454Y-108945001D01*
X163164057Y-108945001D01*
X163164056Y-108945000D01*
X163144388Y-108923802D01*
X163144387Y-108923800D01*
X163088130Y-108878937D01*
X163067420Y-108862421D01*
X162992797Y-108798202D01*
X162967906Y-108782561D01*
X162962232Y-108778536D01*
X162939256Y-108760213D01*
X162854002Y-108710992D01*
X162770651Y-108658619D01*
X162770641Y-108658614D01*
X162743704Y-108646861D01*
X162737494Y-108643726D01*
X162712045Y-108629032D01*
X162712041Y-108629031D01*
X162620399Y-108593064D01*
X162530176Y-108553700D01*
X162530168Y-108553698D01*
X162501782Y-108546091D01*
X162495177Y-108543917D01*
X162467820Y-108533181D01*
X162423807Y-108523135D01*
X162371830Y-108511271D01*
X162355584Y-108506918D01*
X162276749Y-108485794D01*
X162253074Y-108483127D01*
X162247540Y-108482503D01*
X162240685Y-108481338D01*
X162212029Y-108474797D01*
X162212024Y-108474796D01*
X162113860Y-108467441D01*
X162016035Y-108456418D01*
X161917669Y-108460100D01*
X148949013Y-108460100D01*
X148881974Y-108440415D01*
X148836219Y-108387611D01*
X148826275Y-108318453D01*
X148832831Y-108292767D01*
X148882691Y-108159082D01*
X148883487Y-108151677D01*
X148889100Y-108099473D01*
X148889099Y-105971728D01*
X148882691Y-105912117D01*
X148874628Y-105890500D01*
X148832397Y-105777271D01*
X148832393Y-105777264D01*
X148746147Y-105662055D01*
X148746144Y-105662052D01*
X148630935Y-105575806D01*
X148630926Y-105575801D01*
X148600040Y-105564282D01*
X148544106Y-105522412D01*
X148519688Y-105456948D01*
X148534539Y-105388675D01*
X148583944Y-105339269D01*
X148600040Y-105331918D01*
X148630926Y-105320398D01*
X148630926Y-105320397D01*
X148630931Y-105320396D01*
X148746146Y-105234146D01*
X148832396Y-105118931D01*
X148882691Y-104984083D01*
X148889100Y-104924473D01*
X148889100Y-104876600D01*
X161887531Y-104876600D01*
X161906954Y-105259600D01*
X161964712Y-105636621D01*
X161965026Y-105638670D01*
X162019366Y-105848543D01*
X162061151Y-106009928D01*
X162194334Y-106369531D01*
X162194340Y-106369544D01*
X162363225Y-106713840D01*
X162363230Y-106713849D01*
X162566079Y-107039289D01*
X162751519Y-107278859D01*
X162800817Y-107342546D01*
X162950013Y-107499500D01*
X163065030Y-107620498D01*
X163356005Y-107870292D01*
X163356008Y-107870294D01*
X163670764Y-108089371D01*
X163999084Y-108271604D01*
X164006073Y-108275483D01*
X164145497Y-108335314D01*
X164358483Y-108426713D01*
X164358486Y-108426714D01*
X164358491Y-108426716D01*
X164724376Y-108541513D01*
X164724379Y-108541513D01*
X164724387Y-108541516D01*
X165100029Y-108618713D01*
X165363164Y-108645471D01*
X165481553Y-108657510D01*
X165481554Y-108657510D01*
X165865047Y-108657510D01*
X165945743Y-108649304D01*
X166246571Y-108618713D01*
X166622213Y-108541516D01*
X166622223Y-108541513D01*
X166988108Y-108426716D01*
X166988109Y-108426715D01*
X166988117Y-108426713D01*
X167340531Y-108275481D01*
X167675836Y-108089371D01*
X167990592Y-107870294D01*
X168281570Y-107620498D01*
X168545783Y-107342546D01*
X168780521Y-107039289D01*
X168983374Y-106713841D01*
X169152262Y-106369540D01*
X169285451Y-106009920D01*
X169381574Y-105638670D01*
X169439645Y-105259600D01*
X169459069Y-104876600D01*
X169439645Y-104493600D01*
X169381574Y-104114530D01*
X169285451Y-103743280D01*
X169235552Y-103608550D01*
X169152265Y-103383668D01*
X169152264Y-103383667D01*
X169152262Y-103383660D01*
X168983374Y-103039359D01*
X168983369Y-103039350D01*
X168832141Y-102796728D01*
X168780521Y-102713911D01*
X168558482Y-102427060D01*
X168545787Y-102410659D01*
X168545786Y-102410658D01*
X168545783Y-102410654D01*
X168281570Y-102132702D01*
X168181666Y-102046937D01*
X167990594Y-101882907D01*
X167813302Y-101759509D01*
X167675836Y-101663829D01*
X167340531Y-101477719D01*
X167340532Y-101477719D01*
X167340526Y-101477716D01*
X166988108Y-101326483D01*
X166622223Y-101211686D01*
X166622217Y-101211685D01*
X166622214Y-101211684D01*
X166622213Y-101211684D01*
X166246571Y-101134487D01*
X166246570Y-101134486D01*
X166246566Y-101134486D01*
X165865047Y-101095690D01*
X165865046Y-101095690D01*
X165481554Y-101095690D01*
X165481553Y-101095690D01*
X165100033Y-101134486D01*
X164724382Y-101211685D01*
X164724376Y-101211686D01*
X164358491Y-101326483D01*
X164006073Y-101477716D01*
X163670762Y-101663830D01*
X163356005Y-101882907D01*
X163065030Y-102132701D01*
X162800812Y-102410659D01*
X162566079Y-102713910D01*
X162363230Y-103039350D01*
X162363225Y-103039359D01*
X162194340Y-103383655D01*
X162194334Y-103383668D01*
X162061151Y-103743271D01*
X161965025Y-104114534D01*
X161906954Y-104493599D01*
X161887531Y-104876600D01*
X148889100Y-104876600D01*
X148889099Y-102796728D01*
X148882691Y-102737117D01*
X148877895Y-102724259D01*
X148832397Y-102602271D01*
X148832393Y-102602264D01*
X148746147Y-102487055D01*
X148746144Y-102487052D01*
X148630935Y-102400806D01*
X148630928Y-102400802D01*
X148496082Y-102350508D01*
X148496083Y-102350508D01*
X148436483Y-102344101D01*
X148436481Y-102344100D01*
X148436473Y-102344100D01*
X148436464Y-102344100D01*
X146308729Y-102344100D01*
X146308723Y-102344101D01*
X146249116Y-102350508D01*
X146114271Y-102400802D01*
X146114264Y-102400806D01*
X145999055Y-102487052D01*
X145999052Y-102487055D01*
X145912806Y-102602264D01*
X145912803Y-102602269D01*
X145907082Y-102617610D01*
X145865210Y-102673543D01*
X145799746Y-102697960D01*
X145731473Y-102683108D01*
X145682068Y-102633703D01*
X145666900Y-102574276D01*
X145666900Y-100827043D01*
X145686585Y-100760004D01*
X145703219Y-100739362D01*
X145783746Y-100658835D01*
X172591418Y-100658835D01*
X172602441Y-100756660D01*
X172609796Y-100854824D01*
X172609797Y-100854829D01*
X172616338Y-100883485D01*
X172617504Y-100890344D01*
X172620794Y-100919549D01*
X172646271Y-101014630D01*
X172668181Y-101110620D01*
X172678917Y-101137977D01*
X172681091Y-101144582D01*
X172688698Y-101172968D01*
X172688700Y-101172976D01*
X172728064Y-101263199D01*
X172764031Y-101354841D01*
X172764032Y-101354845D01*
X172778726Y-101380294D01*
X172781861Y-101386504D01*
X172793614Y-101413441D01*
X172793619Y-101413451D01*
X172845992Y-101496802D01*
X172895213Y-101582056D01*
X172913536Y-101605032D01*
X172917561Y-101610706D01*
X172933202Y-101635597D01*
X172997421Y-101710220D01*
X173058800Y-101787187D01*
X173058802Y-101787188D01*
X173083009Y-101809648D01*
X173130948Y-101854129D01*
X173323756Y-102046937D01*
X173486470Y-102209651D01*
X173553417Y-102281804D01*
X173630379Y-102343178D01*
X173705003Y-102407398D01*
X173729887Y-102423033D01*
X173735563Y-102427060D01*
X173758543Y-102445386D01*
X173843797Y-102494607D01*
X173887767Y-102522235D01*
X173927151Y-102546982D01*
X173954095Y-102558737D01*
X173960300Y-102561870D01*
X173985757Y-102576568D01*
X173985758Y-102576568D01*
X173985761Y-102576570D01*
X173985763Y-102576571D01*
X174077400Y-102612535D01*
X174167625Y-102651900D01*
X174196020Y-102659508D01*
X174202619Y-102661680D01*
X174219549Y-102668324D01*
X174229984Y-102672420D01*
X174229989Y-102672421D01*
X174229992Y-102672422D01*
X174276811Y-102683108D01*
X174325969Y-102694328D01*
X174421050Y-102719805D01*
X174450256Y-102723095D01*
X174457101Y-102724258D01*
X174485770Y-102730802D01*
X174485775Y-102730802D01*
X174485778Y-102730803D01*
X174570046Y-102737117D01*
X174583939Y-102738158D01*
X174681764Y-102749181D01*
X174780131Y-102745500D01*
X177695501Y-102745500D01*
X177762540Y-102765185D01*
X177808295Y-102817989D01*
X177819501Y-102869500D01*
X177819501Y-104217876D01*
X177825908Y-104277483D01*
X177876202Y-104412328D01*
X177876206Y-104412335D01*
X177962452Y-104527544D01*
X177962455Y-104527547D01*
X178077664Y-104613793D01*
X178077671Y-104613797D01*
X178212517Y-104664091D01*
X178212516Y-104664091D01*
X178219444Y-104664835D01*
X178272127Y-104670500D01*
X185707872Y-104670499D01*
X185767483Y-104664091D01*
X185902331Y-104613796D01*
X186017546Y-104527546D01*
X186103796Y-104412331D01*
X186154091Y-104277483D01*
X186160500Y-104217873D01*
X186160500Y-104217870D01*
X256479500Y-104217870D01*
X256479501Y-104217876D01*
X256485908Y-104277483D01*
X256536202Y-104412328D01*
X256536206Y-104412335D01*
X256622452Y-104527544D01*
X256622455Y-104527547D01*
X256737664Y-104613793D01*
X256737671Y-104613797D01*
X256872517Y-104664091D01*
X256872516Y-104664091D01*
X256879444Y-104664835D01*
X256932127Y-104670500D01*
X258893172Y-104670499D01*
X258960211Y-104690184D01*
X259005966Y-104742987D01*
X259008600Y-104749196D01*
X259058603Y-104876600D01*
X259068432Y-104901643D01*
X259199614Y-105128857D01*
X259300639Y-105255538D01*
X259363198Y-105333985D01*
X259495722Y-105456948D01*
X259555521Y-105512433D01*
X259772296Y-105660228D01*
X259772301Y-105660230D01*
X259772302Y-105660231D01*
X259772303Y-105660232D01*
X259897843Y-105720688D01*
X260008673Y-105774061D01*
X260008674Y-105774061D01*
X260008677Y-105774063D01*
X260259385Y-105851396D01*
X260518818Y-105890500D01*
X260781182Y-105890500D01*
X261040615Y-105851396D01*
X261291323Y-105774063D01*
X261523910Y-105662055D01*
X261527696Y-105660232D01*
X261527696Y-105660231D01*
X261527704Y-105660228D01*
X261744479Y-105512433D01*
X261936805Y-105333981D01*
X262100386Y-105128857D01*
X262231568Y-104901643D01*
X262291399Y-104749193D01*
X262334213Y-104693983D01*
X262400083Y-104670682D01*
X262406826Y-104670499D01*
X264367871Y-104670499D01*
X264367872Y-104670499D01*
X264427483Y-104664091D01*
X264562331Y-104613796D01*
X264677546Y-104527546D01*
X264763796Y-104412331D01*
X264814091Y-104277483D01*
X264820500Y-104217873D01*
X264820499Y-97772128D01*
X264814781Y-97718940D01*
X264814091Y-97712516D01*
X264763797Y-97577671D01*
X264763793Y-97577664D01*
X264677547Y-97462455D01*
X264677544Y-97462452D01*
X264562335Y-97376206D01*
X264562328Y-97376202D01*
X264427482Y-97325908D01*
X264427483Y-97325908D01*
X264367883Y-97319501D01*
X264367881Y-97319500D01*
X264367873Y-97319500D01*
X264367865Y-97319500D01*
X262524500Y-97319500D01*
X262457461Y-97299815D01*
X262411706Y-97247011D01*
X262400500Y-97195500D01*
X262400500Y-93217501D01*
X269319437Y-93217501D01*
X269339650Y-93448544D01*
X269339651Y-93448551D01*
X269399678Y-93672574D01*
X269399679Y-93672576D01*
X269399680Y-93672579D01*
X269497699Y-93882782D01*
X269630730Y-94072769D01*
X269794731Y-94236770D01*
X269984718Y-94369801D01*
X270194921Y-94467820D01*
X270418950Y-94527849D01*
X270583985Y-94542287D01*
X270649998Y-94548063D01*
X270650000Y-94548063D01*
X270650002Y-94548063D01*
X270707762Y-94543009D01*
X270881050Y-94527849D01*
X271105079Y-94467820D01*
X271315282Y-94369801D01*
X271505269Y-94236770D01*
X271669270Y-94072769D01*
X271802301Y-93882782D01*
X271900320Y-93672579D01*
X271960349Y-93448550D01*
X271980563Y-93217500D01*
X271979288Y-93202931D01*
X271960349Y-92986455D01*
X271960349Y-92986450D01*
X271900320Y-92762421D01*
X271802301Y-92552219D01*
X271802299Y-92552216D01*
X271802298Y-92552214D01*
X271669273Y-92362235D01*
X271669268Y-92362229D01*
X271505269Y-92198230D01*
X271505263Y-92198226D01*
X271315282Y-92065199D01*
X271105079Y-91967180D01*
X271105076Y-91967179D01*
X271105074Y-91967178D01*
X270881051Y-91907151D01*
X270881044Y-91907150D01*
X270650002Y-91886937D01*
X270649998Y-91886937D01*
X270418955Y-91907150D01*
X270418948Y-91907151D01*
X270194917Y-91967181D01*
X269984718Y-92065199D01*
X269984714Y-92065201D01*
X269794735Y-92198226D01*
X269794729Y-92198231D01*
X269630731Y-92362229D01*
X269630726Y-92362235D01*
X269497701Y-92552214D01*
X269497699Y-92552218D01*
X269399681Y-92762417D01*
X269339651Y-92986448D01*
X269339650Y-92986455D01*
X269319437Y-93217498D01*
X269319437Y-93217501D01*
X262400500Y-93217501D01*
X262400500Y-89010370D01*
X269324500Y-89010370D01*
X269324501Y-89010376D01*
X269330908Y-89069983D01*
X269381202Y-89204828D01*
X269381206Y-89204835D01*
X269467452Y-89320044D01*
X269467455Y-89320047D01*
X269582664Y-89406293D01*
X269582671Y-89406297D01*
X269717517Y-89456591D01*
X269717516Y-89456591D01*
X269724444Y-89457335D01*
X269777127Y-89463000D01*
X271522872Y-89462999D01*
X271582483Y-89456591D01*
X271717331Y-89406296D01*
X271832546Y-89320046D01*
X271918796Y-89204831D01*
X271969091Y-89069983D01*
X271975500Y-89010373D01*
X271975499Y-87264628D01*
X271969091Y-87205017D01*
X271952502Y-87160540D01*
X271918797Y-87070171D01*
X271918793Y-87070164D01*
X271832547Y-86954955D01*
X271832544Y-86954952D01*
X271717335Y-86868706D01*
X271717328Y-86868702D01*
X271582482Y-86818408D01*
X271582483Y-86818408D01*
X271522883Y-86812001D01*
X271522881Y-86812000D01*
X271522873Y-86812000D01*
X271522864Y-86812000D01*
X269777129Y-86812000D01*
X269777123Y-86812001D01*
X269717516Y-86818408D01*
X269582671Y-86868702D01*
X269582664Y-86868706D01*
X269467455Y-86954952D01*
X269467452Y-86954955D01*
X269381206Y-87070164D01*
X269381202Y-87070171D01*
X269330908Y-87205017D01*
X269324501Y-87264616D01*
X269324501Y-87264623D01*
X269324500Y-87264635D01*
X269324500Y-89010370D01*
X262400500Y-89010370D01*
X262400500Y-85684499D01*
X262420185Y-85617460D01*
X262472989Y-85571705D01*
X262524500Y-85560499D01*
X264367871Y-85560499D01*
X264367872Y-85560499D01*
X264427483Y-85554091D01*
X264562331Y-85503796D01*
X264677546Y-85417546D01*
X264763796Y-85302331D01*
X264814091Y-85167483D01*
X264820500Y-85107873D01*
X264820499Y-79742763D01*
X268997787Y-79742763D01*
X269027413Y-80012013D01*
X269027415Y-80012024D01*
X269086797Y-80239162D01*
X269095928Y-80274088D01*
X269201870Y-80523390D01*
X269299091Y-80682692D01*
X269342979Y-80754605D01*
X269342986Y-80754615D01*
X269516253Y-80962819D01*
X269516259Y-80962824D01*
X269632235Y-81066738D01*
X269717998Y-81143582D01*
X269943910Y-81293044D01*
X270189176Y-81408020D01*
X270189183Y-81408022D01*
X270189185Y-81408023D01*
X270448557Y-81486057D01*
X270448564Y-81486058D01*
X270448569Y-81486060D01*
X270716561Y-81525500D01*
X270716566Y-81525500D01*
X270919636Y-81525500D01*
X270971133Y-81521730D01*
X271122156Y-81510677D01*
X271234758Y-81485593D01*
X271386546Y-81451782D01*
X271386548Y-81451781D01*
X271386553Y-81451780D01*
X271639558Y-81355014D01*
X271875777Y-81222441D01*
X272090177Y-81056888D01*
X272278186Y-80861881D01*
X272435799Y-80641579D01*
X272515493Y-80486572D01*
X272559649Y-80400690D01*
X272559651Y-80400684D01*
X272559656Y-80400675D01*
X272647118Y-80144305D01*
X272696319Y-79877933D01*
X272706212Y-79607235D01*
X272676586Y-79337982D01*
X272608072Y-79075912D01*
X272502130Y-78826610D01*
X272361018Y-78595390D01*
X272340509Y-78570746D01*
X272187746Y-78387180D01*
X272187740Y-78387175D01*
X271986002Y-78206418D01*
X271760092Y-78056957D01*
X271751474Y-78052917D01*
X271514824Y-77941980D01*
X271514819Y-77941978D01*
X271514814Y-77941976D01*
X271255442Y-77863942D01*
X271255428Y-77863939D01*
X271139791Y-77846921D01*
X270987439Y-77824500D01*
X270784369Y-77824500D01*
X270784364Y-77824500D01*
X270581844Y-77839323D01*
X270581831Y-77839325D01*
X270317453Y-77898217D01*
X270317446Y-77898220D01*
X270064439Y-77994987D01*
X269828226Y-78127557D01*
X269828224Y-78127558D01*
X269828223Y-78127559D01*
X269783621Y-78161999D01*
X269613822Y-78293112D01*
X269425822Y-78488109D01*
X269425816Y-78488116D01*
X269268202Y-78708419D01*
X269268199Y-78708424D01*
X269144350Y-78949309D01*
X269144343Y-78949327D01*
X269056884Y-79205685D01*
X269056881Y-79205699D01*
X269041974Y-79286404D01*
X269009245Y-79463603D01*
X269007681Y-79472068D01*
X269007680Y-79472075D01*
X268997787Y-79742763D01*
X264820499Y-79742763D01*
X264820499Y-78662128D01*
X264814091Y-78602517D01*
X264811434Y-78595394D01*
X264763797Y-78467671D01*
X264763793Y-78467664D01*
X264677547Y-78352455D01*
X264677544Y-78352452D01*
X264562335Y-78266206D01*
X264562328Y-78266202D01*
X264427482Y-78215908D01*
X264427483Y-78215908D01*
X264367883Y-78209501D01*
X264367881Y-78209500D01*
X264367873Y-78209500D01*
X264367864Y-78209500D01*
X256932129Y-78209500D01*
X256932123Y-78209501D01*
X256872516Y-78215908D01*
X256737671Y-78266202D01*
X256737664Y-78266206D01*
X256622455Y-78352452D01*
X256622452Y-78352455D01*
X256536206Y-78467664D01*
X256536202Y-78467671D01*
X256485908Y-78602517D01*
X256484692Y-78613833D01*
X256479501Y-78662123D01*
X256479500Y-78662135D01*
X256479500Y-85107870D01*
X256479501Y-85107876D01*
X256485908Y-85167483D01*
X256536202Y-85302328D01*
X256536206Y-85302335D01*
X256622452Y-85417544D01*
X256622455Y-85417547D01*
X256737664Y-85503793D01*
X256737671Y-85503797D01*
X256872517Y-85554091D01*
X256872516Y-85554091D01*
X256879444Y-85554835D01*
X256932127Y-85560500D01*
X258775500Y-85560499D01*
X258842539Y-85580184D01*
X258888294Y-85632987D01*
X258899500Y-85684499D01*
X258899500Y-97195500D01*
X258879815Y-97262539D01*
X258827011Y-97308294D01*
X258775500Y-97319500D01*
X256932129Y-97319500D01*
X256932123Y-97319501D01*
X256872516Y-97325908D01*
X256737671Y-97376202D01*
X256737664Y-97376206D01*
X256622455Y-97462452D01*
X256622452Y-97462455D01*
X256536206Y-97577664D01*
X256536202Y-97577671D01*
X256485908Y-97712517D01*
X256479501Y-97772116D01*
X256479501Y-97772123D01*
X256479500Y-97772135D01*
X256479500Y-104217870D01*
X186160500Y-104217870D01*
X186160499Y-97772128D01*
X186154781Y-97718940D01*
X186154091Y-97712516D01*
X186103797Y-97577671D01*
X186103793Y-97577664D01*
X186017547Y-97462455D01*
X186017544Y-97462452D01*
X185902335Y-97376206D01*
X185902328Y-97376202D01*
X185767482Y-97325908D01*
X185767483Y-97325908D01*
X185707883Y-97319501D01*
X185707881Y-97319500D01*
X185707873Y-97319500D01*
X185707864Y-97319500D01*
X178272129Y-97319500D01*
X178272123Y-97319501D01*
X178212516Y-97325908D01*
X178077671Y-97376202D01*
X178077664Y-97376206D01*
X177962455Y-97462452D01*
X177962452Y-97462455D01*
X177876206Y-97577664D01*
X177876202Y-97577671D01*
X177825908Y-97712517D01*
X177819501Y-97772116D01*
X177819501Y-97772123D01*
X177819500Y-97772135D01*
X177819500Y-99120500D01*
X177799815Y-99187539D01*
X177747011Y-99233294D01*
X177695500Y-99244500D01*
X176220100Y-99244500D01*
X176153061Y-99224815D01*
X176107306Y-99172011D01*
X176096100Y-99120500D01*
X176096100Y-97347242D01*
X176115785Y-97280203D01*
X176132415Y-97259565D01*
X176393509Y-96998471D01*
X176437849Y-96969974D01*
X176702761Y-96871167D01*
X176953915Y-96734026D01*
X177182995Y-96562539D01*
X177385339Y-96360195D01*
X177556826Y-96131115D01*
X177693967Y-95879961D01*
X177793969Y-95611846D01*
X177854796Y-95332228D01*
X177875210Y-95046800D01*
X177854796Y-94761372D01*
X177848628Y-94733020D01*
X177793971Y-94481762D01*
X177793970Y-94481760D01*
X177793969Y-94481754D01*
X177693967Y-94213639D01*
X177693836Y-94213400D01*
X177556829Y-93962490D01*
X177556824Y-93962482D01*
X177385345Y-93733412D01*
X177385329Y-93733394D01*
X177183005Y-93531070D01*
X177182987Y-93531054D01*
X176953917Y-93359575D01*
X176953909Y-93359570D01*
X176702766Y-93222435D01*
X176702767Y-93222435D01*
X176582289Y-93177499D01*
X176434646Y-93122431D01*
X176434643Y-93122430D01*
X176434637Y-93122428D01*
X176155033Y-93061604D01*
X175869601Y-93041190D01*
X175869599Y-93041190D01*
X175584166Y-93061604D01*
X175304562Y-93122428D01*
X175036433Y-93222435D01*
X174785290Y-93359570D01*
X174785282Y-93359575D01*
X174556212Y-93531054D01*
X174556194Y-93531070D01*
X174353870Y-93733394D01*
X174353854Y-93733412D01*
X174182375Y-93962482D01*
X174182370Y-93962490D01*
X174045235Y-94213633D01*
X173946428Y-94478543D01*
X173917927Y-94522890D01*
X173130948Y-95309870D01*
X173058797Y-95376816D01*
X173058794Y-95376819D01*
X172997421Y-95453779D01*
X172933200Y-95528404D01*
X172917561Y-95553293D01*
X172913537Y-95558964D01*
X172895217Y-95581937D01*
X172845991Y-95667198D01*
X172793622Y-95750542D01*
X172793616Y-95750554D01*
X172781864Y-95777489D01*
X172778731Y-95783695D01*
X172764030Y-95809160D01*
X172728064Y-95900800D01*
X172688700Y-95991023D01*
X172688698Y-95991028D01*
X172681093Y-96019412D01*
X172678920Y-96026015D01*
X172668180Y-96053384D01*
X172646271Y-96149369D01*
X172620794Y-96244449D01*
X172620794Y-96244451D01*
X172617503Y-96273649D01*
X172616339Y-96280503D01*
X172609797Y-96309172D01*
X172609796Y-96309175D01*
X172602441Y-96407339D01*
X172591418Y-96505164D01*
X172595100Y-96603531D01*
X172595100Y-100560468D01*
X172591418Y-100658835D01*
X145783746Y-100658835D01*
X149095339Y-97347242D01*
X152491217Y-93951362D01*
X152552540Y-93917878D01*
X152622232Y-93922862D01*
X152678165Y-93964734D01*
X152679141Y-93966056D01*
X152700736Y-93995779D01*
X152700739Y-93995781D01*
X152700740Y-93995783D01*
X152700740Y-93995784D01*
X152784885Y-94071547D01*
X152839065Y-94120331D01*
X153000267Y-94213401D01*
X153000269Y-94213401D01*
X153000272Y-94213403D01*
X153088781Y-94242161D01*
X153177296Y-94270921D01*
X153316005Y-94285500D01*
X153316010Y-94285500D01*
X153408822Y-94285500D01*
X153408827Y-94285500D01*
X153547536Y-94270921D01*
X153724565Y-94213401D01*
X153885767Y-94120331D01*
X153994125Y-94022764D01*
X154024091Y-93995784D01*
X154024091Y-93995782D01*
X154024096Y-93995779D01*
X154133506Y-93845189D01*
X154209216Y-93675142D01*
X154247916Y-93493070D01*
X154247916Y-93493069D01*
X161476898Y-93493069D01*
X161515597Y-93675141D01*
X161515599Y-93675147D01*
X161591308Y-93845188D01*
X161591307Y-93845188D01*
X161593930Y-93848798D01*
X161700718Y-93995779D01*
X161700719Y-93995780D01*
X161700720Y-93995781D01*
X161700722Y-93995784D01*
X161784867Y-94071547D01*
X161839047Y-94120331D01*
X162000249Y-94213401D01*
X162000251Y-94213401D01*
X162000254Y-94213403D01*
X162088763Y-94242161D01*
X162177278Y-94270921D01*
X162315987Y-94285500D01*
X162315992Y-94285500D01*
X162408804Y-94285500D01*
X162408809Y-94285500D01*
X162547518Y-94270921D01*
X162724547Y-94213401D01*
X162885749Y-94120331D01*
X162994107Y-94022764D01*
X163024073Y-93995784D01*
X163024073Y-93995782D01*
X163024078Y-93995779D01*
X163133488Y-93845189D01*
X163209198Y-93675142D01*
X163247898Y-93493070D01*
X163247898Y-93306930D01*
X163209198Y-93124858D01*
X163209196Y-93124852D01*
X163183778Y-93067763D01*
X169145787Y-93067763D01*
X169175413Y-93337013D01*
X169175415Y-93337024D01*
X169243926Y-93599082D01*
X169243928Y-93599088D01*
X169349870Y-93848390D01*
X169439821Y-93995779D01*
X169490979Y-94079605D01*
X169490986Y-94079615D01*
X169664253Y-94287819D01*
X169664259Y-94287824D01*
X169769240Y-94381887D01*
X169865998Y-94468582D01*
X170091910Y-94618044D01*
X170337176Y-94733020D01*
X170337183Y-94733022D01*
X170337185Y-94733023D01*
X170596557Y-94811057D01*
X170596564Y-94811058D01*
X170596569Y-94811060D01*
X170864561Y-94850500D01*
X170864566Y-94850500D01*
X171067636Y-94850500D01*
X171119133Y-94846730D01*
X171270156Y-94835677D01*
X171382758Y-94810593D01*
X171534546Y-94776782D01*
X171534548Y-94776781D01*
X171534553Y-94776780D01*
X171787558Y-94680014D01*
X172023777Y-94547441D01*
X172238177Y-94381888D01*
X172426186Y-94186881D01*
X172583799Y-93966579D01*
X172684270Y-93771161D01*
X172707649Y-93725690D01*
X172707651Y-93725684D01*
X172707656Y-93725675D01*
X172795118Y-93469305D01*
X172844319Y-93202933D01*
X172854212Y-92932235D01*
X172824586Y-92662982D01*
X172756072Y-92400912D01*
X172650130Y-92151610D01*
X172509018Y-91920390D01*
X172507845Y-91918981D01*
X172335746Y-91712180D01*
X172335740Y-91712175D01*
X172134002Y-91531418D01*
X171908092Y-91381957D01*
X171875488Y-91366673D01*
X171662824Y-91266980D01*
X171662819Y-91266978D01*
X171662814Y-91266976D01*
X171403442Y-91188942D01*
X171403428Y-91188939D01*
X171287791Y-91171921D01*
X171135439Y-91149500D01*
X170932369Y-91149500D01*
X170932364Y-91149500D01*
X170729844Y-91164323D01*
X170729831Y-91164325D01*
X170465453Y-91223217D01*
X170465446Y-91223220D01*
X170212439Y-91319987D01*
X169976226Y-91452557D01*
X169761822Y-91618112D01*
X169573822Y-91813109D01*
X169573816Y-91813116D01*
X169416202Y-92033419D01*
X169416199Y-92033424D01*
X169292350Y-92274309D01*
X169292343Y-92274327D01*
X169204884Y-92530685D01*
X169204881Y-92530699D01*
X169184074Y-92643350D01*
X169158211Y-92783373D01*
X169155681Y-92797068D01*
X169155680Y-92797075D01*
X169145787Y-93067763D01*
X163183778Y-93067763D01*
X163178784Y-93056547D01*
X163133488Y-92954811D01*
X163024078Y-92804221D01*
X163024075Y-92804218D01*
X163024073Y-92804215D01*
X162933934Y-92723055D01*
X162885749Y-92679669D01*
X162724547Y-92586599D01*
X162724541Y-92586596D01*
X162547522Y-92529080D01*
X162547520Y-92529079D01*
X162507886Y-92524913D01*
X162408809Y-92514500D01*
X162315987Y-92514500D01*
X162229293Y-92523611D01*
X162177275Y-92529079D01*
X162177273Y-92529080D01*
X162000254Y-92586596D01*
X162000248Y-92586599D01*
X161839048Y-92679668D01*
X161700722Y-92804215D01*
X161700720Y-92804218D01*
X161591307Y-92954811D01*
X161515599Y-93124852D01*
X161515597Y-93124858D01*
X161476898Y-93306930D01*
X161476898Y-93493069D01*
X154247916Y-93493069D01*
X154247916Y-93306930D01*
X154209216Y-93124858D01*
X154209214Y-93124852D01*
X154178802Y-93056547D01*
X154133506Y-92954811D01*
X154024096Y-92804221D01*
X154024093Y-92804218D01*
X154024091Y-92804215D01*
X153933952Y-92723055D01*
X153885767Y-92679669D01*
X153724565Y-92586599D01*
X153724559Y-92586596D01*
X153547540Y-92529080D01*
X153547538Y-92529079D01*
X153507904Y-92524913D01*
X153408827Y-92514500D01*
X153316005Y-92514500D01*
X153298908Y-92516296D01*
X153264462Y-92519917D01*
X153195732Y-92507347D01*
X153144709Y-92459614D01*
X153127502Y-92396596D01*
X153127502Y-89954363D01*
X154608218Y-89954363D01*
X154611900Y-90052730D01*
X154611900Y-91505500D01*
X154626596Y-91701620D01*
X154626597Y-91701625D01*
X154684976Y-91957402D01*
X154684978Y-91957411D01*
X154684980Y-91957416D01*
X154780832Y-92201643D01*
X154912014Y-92428857D01*
X155004840Y-92545257D01*
X155075598Y-92633985D01*
X155236602Y-92783373D01*
X155267921Y-92812433D01*
X155484696Y-92960228D01*
X155484701Y-92960230D01*
X155484702Y-92960231D01*
X155484703Y-92960232D01*
X155610243Y-93020688D01*
X155721073Y-93074061D01*
X155721074Y-93074061D01*
X155721077Y-93074063D01*
X155971785Y-93151396D01*
X156231218Y-93190500D01*
X156493582Y-93190500D01*
X156753015Y-93151396D01*
X157003723Y-93074063D01*
X157240104Y-92960228D01*
X157456879Y-92812433D01*
X157617957Y-92662975D01*
X157649201Y-92633985D01*
X157649201Y-92633983D01*
X157649205Y-92633981D01*
X157812786Y-92428857D01*
X157888556Y-92297618D01*
X157939122Y-92249405D01*
X158007729Y-92236181D01*
X158072593Y-92262149D01*
X158112124Y-92316287D01*
X158159044Y-92442086D01*
X158159048Y-92442093D01*
X158245208Y-92557187D01*
X158245211Y-92557190D01*
X158360305Y-92643350D01*
X158360312Y-92643354D01*
X158495019Y-92693596D01*
X158495026Y-92693598D01*
X158554554Y-92699999D01*
X158554571Y-92700000D01*
X159112399Y-92700000D01*
X159112399Y-91886494D01*
X159217238Y-91934373D01*
X159325926Y-91950000D01*
X159398872Y-91950000D01*
X159507560Y-91934373D01*
X159612399Y-91886494D01*
X159612399Y-92700000D01*
X160170227Y-92700000D01*
X160170243Y-92699999D01*
X160229771Y-92693598D01*
X160229778Y-92693596D01*
X160364485Y-92643354D01*
X160364492Y-92643350D01*
X160479586Y-92557190D01*
X160479589Y-92557187D01*
X160565749Y-92442093D01*
X160565753Y-92442086D01*
X160615995Y-92307379D01*
X160615997Y-92307372D01*
X160622398Y-92247844D01*
X160622399Y-92247827D01*
X160622399Y-91690000D01*
X159807971Y-91690000D01*
X159831081Y-91654040D01*
X159872399Y-91513327D01*
X159872399Y-91366673D01*
X159831081Y-91225960D01*
X159807971Y-91190000D01*
X160622399Y-91190000D01*
X160622399Y-90632172D01*
X160622398Y-90632155D01*
X160615997Y-90572627D01*
X160615995Y-90572620D01*
X160565753Y-90437913D01*
X160565749Y-90437906D01*
X160479589Y-90322812D01*
X160479586Y-90322809D01*
X160364492Y-90236649D01*
X160364485Y-90236645D01*
X160229778Y-90186403D01*
X160229771Y-90186401D01*
X160170243Y-90180000D01*
X159612399Y-90180000D01*
X159612399Y-90993505D01*
X159507560Y-90945627D01*
X159398872Y-90930000D01*
X159325926Y-90930000D01*
X159217238Y-90945627D01*
X159112399Y-90993505D01*
X159112399Y-90180000D01*
X158977342Y-90180000D01*
X158910303Y-90160315D01*
X158875091Y-90119678D01*
X184081100Y-90119678D01*
X184092680Y-90189073D01*
X184120497Y-90355772D01*
X184198214Y-90582152D01*
X184198219Y-90582163D01*
X184312132Y-90792659D01*
X184312138Y-90792668D01*
X184459146Y-90981543D01*
X184459149Y-90981547D01*
X184459151Y-90981549D01*
X184459152Y-90981550D01*
X184486308Y-91006549D01*
X184635254Y-91143664D01*
X184776295Y-91235810D01*
X184835633Y-91274577D01*
X185054829Y-91370726D01*
X185286861Y-91429484D01*
X185465663Y-91444300D01*
X185465665Y-91444300D01*
X185585135Y-91444300D01*
X185585137Y-91444300D01*
X185763939Y-91429484D01*
X185995971Y-91370726D01*
X186215167Y-91274577D01*
X186415548Y-91143662D01*
X186591648Y-90981550D01*
X186738664Y-90792665D01*
X186852584Y-90582157D01*
X186930303Y-90355770D01*
X186969700Y-90119678D01*
X186969700Y-90000007D01*
X246667306Y-90000007D01*
X246687261Y-90304461D01*
X246687262Y-90304471D01*
X246687263Y-90304478D01*
X246687265Y-90304488D01*
X246746789Y-90603738D01*
X246746793Y-90603753D01*
X246844870Y-90892678D01*
X246844879Y-90892699D01*
X246979828Y-91166348D01*
X247082486Y-91319986D01*
X247123893Y-91381957D01*
X247149350Y-91420055D01*
X247350535Y-91649464D01*
X247496434Y-91777413D01*
X247579946Y-91850651D01*
X247728633Y-91950000D01*
X247833651Y-92020171D01*
X248107300Y-92155120D01*
X248107305Y-92155122D01*
X248107317Y-92155128D01*
X248396254Y-92253209D01*
X248695522Y-92312737D01*
X248724763Y-92314653D01*
X248999993Y-92332694D01*
X249000000Y-92332694D01*
X249000007Y-92332694D01*
X249250317Y-92316287D01*
X249304478Y-92312737D01*
X249603746Y-92253209D01*
X249892683Y-92155128D01*
X250166347Y-92020172D01*
X250420054Y-91850651D01*
X250649464Y-91649464D01*
X250850651Y-91420054D01*
X251020172Y-91166347D01*
X251155128Y-90892683D01*
X251253209Y-90603746D01*
X251312737Y-90304478D01*
X251322186Y-90160315D01*
X251332694Y-90000007D01*
X251332694Y-89999992D01*
X251312738Y-89695538D01*
X251312737Y-89695522D01*
X251253209Y-89396254D01*
X251155128Y-89107317D01*
X251148855Y-89094597D01*
X251020171Y-88833651D01*
X250905414Y-88661905D01*
X250850651Y-88579946D01*
X250806570Y-88529681D01*
X250649464Y-88350535D01*
X250420055Y-88149350D01*
X250414869Y-88145885D01*
X250221071Y-88016393D01*
X250166348Y-87979828D01*
X249892699Y-87844879D01*
X249892678Y-87844870D01*
X249603753Y-87746793D01*
X249603747Y-87746791D01*
X249603746Y-87746791D01*
X249603744Y-87746790D01*
X249603738Y-87746789D01*
X249304488Y-87687265D01*
X249304478Y-87687263D01*
X249304471Y-87687262D01*
X249304461Y-87687261D01*
X249000007Y-87667306D01*
X248999993Y-87667306D01*
X248695538Y-87687261D01*
X248695526Y-87687262D01*
X248695522Y-87687263D01*
X248695514Y-87687264D01*
X248695511Y-87687265D01*
X248396261Y-87746789D01*
X248396246Y-87746793D01*
X248107321Y-87844870D01*
X248107300Y-87844879D01*
X247833651Y-87979828D01*
X247579944Y-88149350D01*
X247350535Y-88350535D01*
X247149350Y-88579944D01*
X246979828Y-88833651D01*
X246844879Y-89107300D01*
X246844870Y-89107321D01*
X246746793Y-89396246D01*
X246746789Y-89396261D01*
X246687265Y-89695511D01*
X246687261Y-89695538D01*
X246667306Y-89999992D01*
X246667306Y-90000007D01*
X186969700Y-90000007D01*
X186969700Y-89880322D01*
X186930303Y-89644230D01*
X186852584Y-89417843D01*
X186799660Y-89320047D01*
X186738667Y-89207340D01*
X186738661Y-89207331D01*
X186591653Y-89018456D01*
X186591650Y-89018452D01*
X186577516Y-89005441D01*
X186511606Y-88944766D01*
X186415545Y-88856335D01*
X186215166Y-88725422D01*
X185995971Y-88629274D01*
X185937890Y-88614566D01*
X185763939Y-88570516D01*
X185763938Y-88570515D01*
X185763935Y-88570515D01*
X185620652Y-88558642D01*
X185585137Y-88555700D01*
X185465663Y-88555700D01*
X185433355Y-88558377D01*
X185286864Y-88570515D01*
X185054828Y-88629274D01*
X184835633Y-88725422D01*
X184635254Y-88856335D01*
X184459149Y-89018452D01*
X184459146Y-89018456D01*
X184312138Y-89207331D01*
X184312132Y-89207340D01*
X184198219Y-89417836D01*
X184198214Y-89417847D01*
X184120497Y-89644227D01*
X184095298Y-89795237D01*
X184081100Y-89880322D01*
X184081100Y-90119678D01*
X158875091Y-90119678D01*
X158864548Y-90107511D01*
X158854604Y-90038353D01*
X158883629Y-89974797D01*
X158889661Y-89968319D01*
X161848561Y-87009419D01*
X161909884Y-86975934D01*
X161936242Y-86973100D01*
X178619669Y-86973100D01*
X178718035Y-86976781D01*
X178718035Y-86976780D01*
X178718036Y-86976781D01*
X178815860Y-86965758D01*
X178914030Y-86958402D01*
X178930067Y-86954741D01*
X178942687Y-86951861D01*
X178949547Y-86950695D01*
X178952442Y-86950368D01*
X178978750Y-86947405D01*
X179042136Y-86930420D01*
X179073831Y-86921928D01*
X179169808Y-86900022D01*
X179169809Y-86900021D01*
X179169816Y-86900020D01*
X179197190Y-86889275D01*
X179203772Y-86887109D01*
X179232175Y-86879500D01*
X179322399Y-86840135D01*
X179414043Y-86804168D01*
X179439519Y-86789457D01*
X179445687Y-86786344D01*
X179472647Y-86774583D01*
X179556002Y-86722207D01*
X179641257Y-86672986D01*
X179664245Y-86654652D01*
X179669892Y-86650645D01*
X179694797Y-86634998D01*
X179769420Y-86570778D01*
X179846369Y-86509415D01*
X179846371Y-86509412D01*
X179846381Y-86509405D01*
X179913329Y-86437251D01*
X180753762Y-85596818D01*
X180815085Y-85563333D01*
X180841443Y-85560499D01*
X185707871Y-85560499D01*
X185707872Y-85560499D01*
X185767483Y-85554091D01*
X185902331Y-85503796D01*
X186017546Y-85417546D01*
X186103796Y-85302331D01*
X186154091Y-85167483D01*
X186160500Y-85107873D01*
X186160499Y-80772001D01*
X249222390Y-80772001D01*
X249242804Y-81057433D01*
X249303628Y-81337037D01*
X249303630Y-81337043D01*
X249303631Y-81337046D01*
X249403633Y-81605161D01*
X249403635Y-81605166D01*
X249540770Y-81856309D01*
X249540775Y-81856317D01*
X249712254Y-82085387D01*
X249712270Y-82085405D01*
X249914594Y-82287729D01*
X249914612Y-82287745D01*
X250143682Y-82459224D01*
X250143690Y-82459229D01*
X250394833Y-82596364D01*
X250394832Y-82596364D01*
X250394836Y-82596365D01*
X250394839Y-82596367D01*
X250662954Y-82696369D01*
X250662960Y-82696370D01*
X250662962Y-82696371D01*
X250942566Y-82757195D01*
X250942568Y-82757195D01*
X250942572Y-82757196D01*
X251196220Y-82775337D01*
X251227999Y-82777610D01*
X251228000Y-82777610D01*
X251228001Y-82777610D01*
X251256595Y-82775564D01*
X251513428Y-82757196D01*
X251793046Y-82696369D01*
X252061161Y-82596367D01*
X252312315Y-82459226D01*
X252541395Y-82287739D01*
X252743739Y-82085395D01*
X252915226Y-81856315D01*
X253052367Y-81605161D01*
X253152369Y-81337046D01*
X253161941Y-81293044D01*
X253213195Y-81057433D01*
X253213195Y-81057432D01*
X253213196Y-81057428D01*
X253233610Y-80772000D01*
X253213196Y-80486572D01*
X253212804Y-80484771D01*
X253152371Y-80206962D01*
X253152370Y-80206960D01*
X253152369Y-80206954D01*
X253052367Y-79938839D01*
X253026849Y-79892107D01*
X252915229Y-79687690D01*
X252915224Y-79687682D01*
X252743745Y-79458612D01*
X252743729Y-79458594D01*
X252541405Y-79256270D01*
X252541387Y-79256254D01*
X252312317Y-79084775D01*
X252312309Y-79084770D01*
X252061166Y-78947635D01*
X252061167Y-78947635D01*
X251921846Y-78895671D01*
X251793046Y-78847631D01*
X251793043Y-78847630D01*
X251793037Y-78847628D01*
X251513433Y-78786804D01*
X251228001Y-78766390D01*
X251227999Y-78766390D01*
X250942566Y-78786804D01*
X250662962Y-78847628D01*
X250394833Y-78947635D01*
X250143690Y-79084770D01*
X250143682Y-79084775D01*
X249914612Y-79256254D01*
X249914594Y-79256270D01*
X249712270Y-79458594D01*
X249712254Y-79458612D01*
X249540775Y-79687682D01*
X249540770Y-79687690D01*
X249403635Y-79938833D01*
X249303628Y-80206962D01*
X249242804Y-80486566D01*
X249222390Y-80771998D01*
X249222390Y-80772001D01*
X186160499Y-80772001D01*
X186160499Y-78662128D01*
X186154091Y-78602517D01*
X186151434Y-78595394D01*
X186103797Y-78467671D01*
X186103793Y-78467664D01*
X186017547Y-78352455D01*
X186017544Y-78352452D01*
X185902335Y-78266206D01*
X185902328Y-78266202D01*
X185767482Y-78215908D01*
X185767483Y-78215908D01*
X185707883Y-78209501D01*
X185707881Y-78209500D01*
X185707873Y-78209500D01*
X185707864Y-78209500D01*
X178272129Y-78209500D01*
X178272123Y-78209501D01*
X178212516Y-78215908D01*
X178077671Y-78266202D01*
X178077664Y-78266206D01*
X177962455Y-78352452D01*
X177962452Y-78352455D01*
X177876206Y-78467664D01*
X177876202Y-78467671D01*
X177825908Y-78602517D01*
X177824692Y-78613833D01*
X177819500Y-78662127D01*
X177819500Y-81066738D01*
X177819501Y-83348100D01*
X177799816Y-83415139D01*
X177747012Y-83460894D01*
X177695501Y-83472100D01*
X163488666Y-83472100D01*
X163421627Y-83452415D01*
X163375872Y-83399611D01*
X163365928Y-83330453D01*
X163367376Y-83322319D01*
X163397484Y-83180669D01*
X163397484Y-82994530D01*
X163358784Y-82812458D01*
X163358782Y-82812452D01*
X163318485Y-82721946D01*
X163283074Y-82642411D01*
X163173664Y-82491821D01*
X163173661Y-82491818D01*
X163173659Y-82491815D01*
X163078462Y-82406101D01*
X163035335Y-82367269D01*
X162874133Y-82274199D01*
X162874127Y-82274196D01*
X162697108Y-82216680D01*
X162697106Y-82216679D01*
X162657472Y-82212513D01*
X162558395Y-82202100D01*
X162465573Y-82202100D01*
X162378879Y-82211211D01*
X162326861Y-82216679D01*
X162326859Y-82216680D01*
X162149840Y-82274196D01*
X162149834Y-82274199D01*
X161988634Y-82367268D01*
X161850308Y-82491815D01*
X161850306Y-82491818D01*
X161740893Y-82642411D01*
X161665185Y-82812452D01*
X161665183Y-82812458D01*
X161626484Y-82994530D01*
X161626484Y-83180669D01*
X161656592Y-83322319D01*
X161651276Y-83391987D01*
X161609139Y-83447720D01*
X161543559Y-83471825D01*
X161535302Y-83472100D01*
X161192530Y-83472100D01*
X161094162Y-83468418D01*
X160996338Y-83479441D01*
X160898174Y-83486796D01*
X160898171Y-83486797D01*
X160869502Y-83493339D01*
X160862648Y-83494503D01*
X160833450Y-83497794D01*
X160833448Y-83497794D01*
X160738361Y-83523273D01*
X160642385Y-83545179D01*
X160615024Y-83555917D01*
X160608416Y-83558091D01*
X160580028Y-83565697D01*
X160580023Y-83565699D01*
X160489783Y-83605071D01*
X160398158Y-83641031D01*
X160398157Y-83641031D01*
X160372701Y-83655727D01*
X160366495Y-83658860D01*
X160339559Y-83670612D01*
X160339554Y-83670615D01*
X160339552Y-83670616D01*
X160319232Y-83683384D01*
X160256184Y-83722999D01*
X160170941Y-83772214D01*
X160170940Y-83772215D01*
X160147966Y-83790535D01*
X160142297Y-83794558D01*
X160117402Y-83810201D01*
X160117397Y-83810205D01*
X160042778Y-83874421D01*
X159965818Y-83935794D01*
X159965815Y-83935797D01*
X159898869Y-84007948D01*
X155147748Y-88759069D01*
X155075597Y-88826015D01*
X155075594Y-88826018D01*
X155014221Y-88902978D01*
X154950000Y-88977603D01*
X154934361Y-89002492D01*
X154930337Y-89008163D01*
X154912017Y-89031136D01*
X154862791Y-89116397D01*
X154810422Y-89199741D01*
X154810416Y-89199753D01*
X154798664Y-89226688D01*
X154795531Y-89232894D01*
X154780830Y-89258359D01*
X154744864Y-89349999D01*
X154705500Y-89440222D01*
X154705498Y-89440227D01*
X154697893Y-89468611D01*
X154695720Y-89475214D01*
X154684980Y-89502583D01*
X154663071Y-89598568D01*
X154637594Y-89693648D01*
X154637594Y-89693650D01*
X154634303Y-89722848D01*
X154633139Y-89729702D01*
X154626597Y-89758371D01*
X154626596Y-89758374D01*
X154619241Y-89856538D01*
X154608218Y-89954363D01*
X153127502Y-89954363D01*
X153127502Y-84064409D01*
X153147187Y-83997370D01*
X153199991Y-83951615D01*
X153269149Y-83941671D01*
X153289816Y-83946477D01*
X153314071Y-83954358D01*
X153326875Y-83958519D01*
X153326878Y-83958519D01*
X153326882Y-83958521D01*
X153465591Y-83973100D01*
X153465596Y-83973100D01*
X153558408Y-83973100D01*
X153558413Y-83973100D01*
X153697122Y-83958521D01*
X153874151Y-83901001D01*
X154035353Y-83807931D01*
X154143711Y-83710364D01*
X154173677Y-83683384D01*
X154173677Y-83683382D01*
X154173682Y-83683379D01*
X154283092Y-83532789D01*
X154358802Y-83362742D01*
X154397502Y-83180670D01*
X154397502Y-82994530D01*
X154358802Y-82812458D01*
X154358800Y-82812452D01*
X154318503Y-82721946D01*
X154283092Y-82642411D01*
X154173682Y-82491821D01*
X154173679Y-82491818D01*
X154173677Y-82491815D01*
X154078480Y-82406101D01*
X154035353Y-82367269D01*
X153874151Y-82274199D01*
X153874145Y-82274196D01*
X153697126Y-82216680D01*
X153697124Y-82216679D01*
X153657490Y-82212513D01*
X153558413Y-82202100D01*
X153465591Y-82202100D01*
X153378897Y-82211211D01*
X153326879Y-82216679D01*
X153326877Y-82216680D01*
X153289820Y-82228721D01*
X153219978Y-82230716D01*
X153160146Y-82194635D01*
X153129318Y-82131934D01*
X153127502Y-82110790D01*
X153127502Y-80799017D01*
X153147187Y-80731978D01*
X153163816Y-80711341D01*
X160701251Y-73173906D01*
X160729528Y-73147669D01*
X161601099Y-73147669D01*
X161639798Y-73329741D01*
X161639800Y-73329747D01*
X161715509Y-73499788D01*
X161715508Y-73499788D01*
X161715509Y-73499789D01*
X161824919Y-73650379D01*
X161824920Y-73650380D01*
X161824921Y-73650381D01*
X161824923Y-73650384D01*
X161909068Y-73726147D01*
X161963248Y-73774931D01*
X162124450Y-73868001D01*
X162124452Y-73868001D01*
X162124455Y-73868003D01*
X162212964Y-73896761D01*
X162301479Y-73925521D01*
X162440188Y-73940100D01*
X162440193Y-73940100D01*
X162533005Y-73940100D01*
X162533010Y-73940100D01*
X162671719Y-73925521D01*
X162848748Y-73868001D01*
X163009950Y-73774931D01*
X163145214Y-73653139D01*
X163148274Y-73650384D01*
X163148274Y-73650382D01*
X163148279Y-73650379D01*
X163257689Y-73499789D01*
X163333399Y-73329742D01*
X163372099Y-73147670D01*
X163372099Y-72961530D01*
X163333399Y-72779458D01*
X163333397Y-72779452D01*
X163299399Y-72703093D01*
X163257689Y-72609411D01*
X163148279Y-72458821D01*
X163148276Y-72458818D01*
X163148274Y-72458815D01*
X163058135Y-72377655D01*
X163009950Y-72334269D01*
X162848748Y-72241199D01*
X162848742Y-72241196D01*
X162671723Y-72183680D01*
X162671721Y-72183679D01*
X162632087Y-72179513D01*
X162533010Y-72169100D01*
X162440188Y-72169100D01*
X162353494Y-72178211D01*
X162301476Y-72183679D01*
X162301474Y-72183680D01*
X162124455Y-72241196D01*
X162124449Y-72241199D01*
X161963249Y-72334268D01*
X161824923Y-72458815D01*
X161824921Y-72458818D01*
X161715508Y-72609411D01*
X161639800Y-72779452D01*
X161639798Y-72779458D01*
X161601099Y-72961530D01*
X161601099Y-73147669D01*
X160729528Y-73147669D01*
X160773405Y-73106958D01*
X160774711Y-73105321D01*
X160834785Y-73029988D01*
X160893699Y-72961530D01*
X160898997Y-72955374D01*
X160914643Y-72930470D01*
X160918649Y-72924825D01*
X160936986Y-72901834D01*
X160986211Y-72816572D01*
X161038583Y-72733224D01*
X161050344Y-72706264D01*
X161053457Y-72700096D01*
X161068168Y-72674620D01*
X161104135Y-72582976D01*
X161143500Y-72492752D01*
X161151109Y-72464349D01*
X161153275Y-72457767D01*
X161164020Y-72430393D01*
X161172415Y-72393614D01*
X161185927Y-72334411D01*
X161186669Y-72331642D01*
X161211405Y-72239328D01*
X161214695Y-72210118D01*
X161215857Y-72203277D01*
X161222402Y-72174607D01*
X161229759Y-72076423D01*
X161240780Y-71978614D01*
X161237856Y-71900481D01*
X161237100Y-71880263D01*
X161237100Y-71029100D01*
X161222403Y-70832979D01*
X161222402Y-70832974D01*
X161222402Y-70832970D01*
X161164020Y-70577184D01*
X161068168Y-70332957D01*
X160936986Y-70105743D01*
X160773405Y-69900619D01*
X160773404Y-69900618D01*
X160773401Y-69900614D01*
X160581079Y-69722167D01*
X160451747Y-69633990D01*
X160364304Y-69574372D01*
X160364300Y-69574370D01*
X160364297Y-69574368D01*
X160364296Y-69574367D01*
X160127925Y-69460538D01*
X160127927Y-69460538D01*
X159877223Y-69383206D01*
X159877219Y-69383205D01*
X159877215Y-69383204D01*
X159752423Y-69364394D01*
X159617787Y-69344100D01*
X159617782Y-69344100D01*
X159355418Y-69344100D01*
X159355412Y-69344100D01*
X159193847Y-69368453D01*
X159095985Y-69383204D01*
X159095982Y-69383205D01*
X159095976Y-69383206D01*
X158845273Y-69460538D01*
X158608903Y-69574367D01*
X158608902Y-69574368D01*
X158392120Y-69722167D01*
X158199798Y-69900614D01*
X158085690Y-70043701D01*
X158028501Y-70083841D01*
X157958689Y-70086691D01*
X157898420Y-70051345D01*
X157894755Y-70047272D01*
X157770710Y-69903129D01*
X157770710Y-69903130D01*
X157770702Y-69903121D01*
X156987531Y-69119949D01*
X156920582Y-69047795D01*
X156843621Y-68986421D01*
X156799309Y-68948287D01*
X156761336Y-68889639D01*
X156761099Y-68819770D01*
X156798673Y-68760863D01*
X156862130Y-68731623D01*
X156880194Y-68730300D01*
X162965888Y-68730300D01*
X163032927Y-68749985D01*
X163053569Y-68766619D01*
X163973581Y-69686631D01*
X164007066Y-69747954D01*
X164009900Y-69774312D01*
X164009900Y-75366900D01*
X163990215Y-75433939D01*
X163937411Y-75479694D01*
X163885900Y-75490900D01*
X160305519Y-75490900D01*
X160207151Y-75487218D01*
X160109327Y-75498241D01*
X160011163Y-75505596D01*
X160011160Y-75505597D01*
X159982491Y-75512139D01*
X159975637Y-75513303D01*
X159946439Y-75516594D01*
X159946437Y-75516594D01*
X159851357Y-75542071D01*
X159755372Y-75563980D01*
X159755368Y-75563981D01*
X159755366Y-75563982D01*
X159741195Y-75569543D01*
X159728003Y-75574720D01*
X159721400Y-75576893D01*
X159693016Y-75584498D01*
X159693011Y-75584500D01*
X159602788Y-75623864D01*
X159511148Y-75659830D01*
X159485683Y-75674531D01*
X159479477Y-75677664D01*
X159452542Y-75689416D01*
X159452530Y-75689422D01*
X159369186Y-75741791D01*
X159283925Y-75791017D01*
X159260952Y-75809337D01*
X159255281Y-75813361D01*
X159230392Y-75829000D01*
X159155767Y-75893221D01*
X159078807Y-75954594D01*
X159078804Y-75954597D01*
X159011858Y-76026748D01*
X155297349Y-79741257D01*
X155225198Y-79808203D01*
X155225195Y-79808206D01*
X155163822Y-79885166D01*
X155099601Y-79959791D01*
X155083962Y-79984680D01*
X155079938Y-79990351D01*
X155061618Y-80013324D01*
X155012392Y-80098585D01*
X154960023Y-80181929D01*
X154960017Y-80181941D01*
X154948265Y-80208876D01*
X154945132Y-80215082D01*
X154930431Y-80240547D01*
X154894465Y-80332187D01*
X154855101Y-80422410D01*
X154855099Y-80422415D01*
X154847494Y-80450799D01*
X154845320Y-80457408D01*
X154837435Y-80477500D01*
X154834581Y-80484771D01*
X154825766Y-80523390D01*
X154812672Y-80580756D01*
X154787195Y-80675836D01*
X154787195Y-80675838D01*
X154783904Y-80705036D01*
X154782740Y-80711890D01*
X154776198Y-80740559D01*
X154776197Y-80740562D01*
X154768842Y-80838726D01*
X154757819Y-80936551D01*
X154761501Y-81034918D01*
X154761501Y-81193100D01*
X154776197Y-81389220D01*
X154776198Y-81389225D01*
X154834577Y-81645002D01*
X154834579Y-81645011D01*
X154834581Y-81645016D01*
X154930433Y-81889243D01*
X155061615Y-82116457D01*
X155146896Y-82223396D01*
X155225199Y-82321585D01*
X155382164Y-82467226D01*
X155417522Y-82500033D01*
X155634297Y-82647828D01*
X155634302Y-82647830D01*
X155634303Y-82647831D01*
X155634304Y-82647832D01*
X155759844Y-82708288D01*
X155870674Y-82761661D01*
X155870675Y-82761661D01*
X155870678Y-82761663D01*
X156121386Y-82838996D01*
X156380819Y-82878100D01*
X156643183Y-82878100D01*
X156902616Y-82838996D01*
X157153324Y-82761663D01*
X157389705Y-82647828D01*
X157606480Y-82500033D01*
X157798806Y-82321581D01*
X157962387Y-82116457D01*
X158075903Y-81919839D01*
X158095605Y-81894162D01*
X158234824Y-81754943D01*
X158296145Y-81721460D01*
X158365837Y-81726444D01*
X158421770Y-81768316D01*
X158424078Y-81771502D01*
X158535363Y-81930434D01*
X158542715Y-81940933D01*
X158698669Y-82096887D01*
X158879337Y-82223392D01*
X158879339Y-82223393D01*
X158879342Y-82223395D01*
X158944422Y-82253742D01*
X159079230Y-82316604D01*
X159079232Y-82316604D01*
X159079237Y-82316607D01*
X159292280Y-82373692D01*
X159449222Y-82387422D01*
X159511998Y-82392915D01*
X159512000Y-82392915D01*
X159512002Y-82392915D01*
X159566930Y-82388109D01*
X159731720Y-82373692D01*
X159944763Y-82316607D01*
X160144658Y-82223395D01*
X160325329Y-82096888D01*
X160481288Y-81940929D01*
X160607795Y-81760258D01*
X160701007Y-81560363D01*
X160758092Y-81347320D01*
X160777315Y-81127600D01*
X160776865Y-81122461D01*
X160771176Y-81057428D01*
X160758092Y-80907880D01*
X160701007Y-80694837D01*
X160607795Y-80494943D01*
X160481288Y-80314271D01*
X160481286Y-80314268D01*
X160325333Y-80158315D01*
X160155902Y-80039678D01*
X160112278Y-79985101D01*
X160105085Y-79915602D01*
X160136607Y-79853248D01*
X160139310Y-79850458D01*
X160961550Y-79028219D01*
X161022873Y-78994734D01*
X161049231Y-78991900D01*
X165891576Y-78991900D01*
X165891582Y-78991900D01*
X165954276Y-78982449D01*
X165958819Y-78981938D01*
X166022030Y-78977202D01*
X166083823Y-78963097D01*
X166088345Y-78962241D01*
X166151015Y-78952796D01*
X166211558Y-78934120D01*
X166216040Y-78932919D01*
X166277816Y-78918820D01*
X166336803Y-78895668D01*
X166341171Y-78894139D01*
X166401723Y-78875463D01*
X166431403Y-78861169D01*
X166458813Y-78847970D01*
X166463057Y-78846117D01*
X166483040Y-78838274D01*
X166522037Y-78822971D01*
X166522040Y-78822968D01*
X166522043Y-78822968D01*
X166568626Y-78796073D01*
X166576914Y-78791288D01*
X166581015Y-78789120D01*
X166585824Y-78786804D01*
X166638104Y-78761628D01*
X166638107Y-78761625D01*
X166638112Y-78761623D01*
X166690454Y-78725936D01*
X166694383Y-78723467D01*
X166749253Y-78691789D01*
X166749257Y-78691786D01*
X166798816Y-78652262D01*
X166802505Y-78649539D01*
X166854879Y-78613833D01*
X166901335Y-78570726D01*
X166904818Y-78567728D01*
X166954381Y-78528205D01*
X166997499Y-78481733D01*
X167000733Y-78478499D01*
X167047205Y-78435381D01*
X167086728Y-78385818D01*
X167089726Y-78382335D01*
X167132833Y-78335879D01*
X167168539Y-78283505D01*
X167171262Y-78279816D01*
X167210786Y-78230257D01*
X167210786Y-78230256D01*
X167210789Y-78230253D01*
X167242467Y-78175383D01*
X167244936Y-78171454D01*
X167280623Y-78119112D01*
X167280627Y-78119105D01*
X167280628Y-78119104D01*
X167308120Y-78062014D01*
X167310288Y-78057914D01*
X167341971Y-78003037D01*
X167365114Y-77944065D01*
X167366970Y-77939813D01*
X167380169Y-77912403D01*
X167394463Y-77882723D01*
X167413139Y-77822171D01*
X167414671Y-77817795D01*
X167437818Y-77758821D01*
X167437819Y-77758818D01*
X167437820Y-77758816D01*
X167451919Y-77697038D01*
X167453120Y-77692558D01*
X167471795Y-77632017D01*
X167471796Y-77632015D01*
X167481241Y-77569345D01*
X167482099Y-77564813D01*
X167496202Y-77503030D01*
X167500938Y-77439819D01*
X167501449Y-77435276D01*
X167506375Y-77402601D01*
X171612390Y-77402601D01*
X171632804Y-77688033D01*
X171693628Y-77967637D01*
X171693630Y-77967643D01*
X171693631Y-77967646D01*
X171786228Y-78215908D01*
X171793635Y-78235766D01*
X171930770Y-78486909D01*
X171930775Y-78486917D01*
X172102254Y-78715987D01*
X172102270Y-78716005D01*
X172304594Y-78918329D01*
X172304612Y-78918345D01*
X172533682Y-79089824D01*
X172533690Y-79089829D01*
X172784833Y-79226964D01*
X172784832Y-79226964D01*
X172784836Y-79226965D01*
X172784839Y-79226967D01*
X173052954Y-79326969D01*
X173052960Y-79326970D01*
X173052962Y-79326971D01*
X173332566Y-79387795D01*
X173332568Y-79387795D01*
X173332572Y-79387796D01*
X173586220Y-79405937D01*
X173617999Y-79408210D01*
X173618000Y-79408210D01*
X173618001Y-79408210D01*
X173646595Y-79406164D01*
X173903428Y-79387796D01*
X173929907Y-79382036D01*
X174183037Y-79326971D01*
X174183037Y-79326970D01*
X174183046Y-79326969D01*
X174451161Y-79226967D01*
X174702315Y-79089826D01*
X174929176Y-78920000D01*
X174931387Y-78918345D01*
X174931387Y-78918344D01*
X174931395Y-78918339D01*
X175133739Y-78715995D01*
X175305226Y-78486915D01*
X175442367Y-78235761D01*
X175542369Y-77967646D01*
X175566672Y-77855927D01*
X175603195Y-77688033D01*
X175603195Y-77688032D01*
X175603196Y-77688028D01*
X175623610Y-77402600D01*
X175603196Y-77117172D01*
X175601683Y-77110218D01*
X175542371Y-76837562D01*
X175542370Y-76837560D01*
X175542369Y-76837554D01*
X175442367Y-76569439D01*
X175394999Y-76482692D01*
X175305229Y-76318290D01*
X175305224Y-76318282D01*
X175133745Y-76089212D01*
X175133729Y-76089194D01*
X174931405Y-75886870D01*
X174931387Y-75886854D01*
X174702317Y-75715375D01*
X174702309Y-75715370D01*
X174451166Y-75578235D01*
X174451167Y-75578235D01*
X174343915Y-75538232D01*
X174183046Y-75478231D01*
X174183043Y-75478230D01*
X174183037Y-75478228D01*
X173903433Y-75417404D01*
X173618001Y-75396990D01*
X173617999Y-75396990D01*
X173332566Y-75417404D01*
X173052962Y-75478228D01*
X172784833Y-75578235D01*
X172533690Y-75715370D01*
X172533682Y-75715375D01*
X172304612Y-75886854D01*
X172304594Y-75886870D01*
X172102270Y-76089194D01*
X172102254Y-76089212D01*
X171930775Y-76318282D01*
X171930770Y-76318290D01*
X171793635Y-76569433D01*
X171693628Y-76837562D01*
X171632804Y-77117166D01*
X171612390Y-77402598D01*
X171612390Y-77402601D01*
X167506375Y-77402601D01*
X167510900Y-77372582D01*
X167510900Y-77110218D01*
X167510900Y-73998007D01*
X191422306Y-73998007D01*
X191442261Y-74302461D01*
X191442262Y-74302471D01*
X191442263Y-74302478D01*
X191442265Y-74302488D01*
X191501789Y-74601738D01*
X191501793Y-74601753D01*
X191599870Y-74890678D01*
X191599879Y-74890699D01*
X191734828Y-75164348D01*
X191848098Y-75333869D01*
X191902105Y-75414696D01*
X191904350Y-75418055D01*
X192105535Y-75647464D01*
X192269227Y-75791017D01*
X192334946Y-75848651D01*
X192493503Y-75954595D01*
X192588651Y-76018171D01*
X192862300Y-76153120D01*
X192862305Y-76153122D01*
X192862317Y-76153128D01*
X193151254Y-76251209D01*
X193450522Y-76310737D01*
X193479763Y-76312653D01*
X193754993Y-76330694D01*
X193755000Y-76330694D01*
X193755007Y-76330694D01*
X193998756Y-76314716D01*
X194059478Y-76310737D01*
X194358746Y-76251209D01*
X194647683Y-76153128D01*
X194921347Y-76018172D01*
X195175054Y-75848651D01*
X195404464Y-75647464D01*
X195605651Y-75418054D01*
X195775172Y-75164347D01*
X195910128Y-74890683D01*
X196008209Y-74601746D01*
X196067737Y-74302478D01*
X196073349Y-74216861D01*
X196087694Y-73998007D01*
X196087694Y-73997992D01*
X196083565Y-73935001D01*
X246939454Y-73935001D01*
X246959613Y-74216866D01*
X247011665Y-74456140D01*
X247019680Y-74492984D01*
X247060243Y-74601738D01*
X247118432Y-74757750D01*
X247118434Y-74757754D01*
X247253855Y-75005758D01*
X247253860Y-75005766D01*
X247423196Y-75231974D01*
X247423212Y-75231992D01*
X247623007Y-75431787D01*
X247623025Y-75431803D01*
X247849233Y-75601139D01*
X247849241Y-75601144D01*
X248097245Y-75736565D01*
X248097249Y-75736567D01*
X248097251Y-75736568D01*
X248362016Y-75835320D01*
X248500077Y-75865353D01*
X248638133Y-75895386D01*
X248638135Y-75895386D01*
X248638139Y-75895387D01*
X248849447Y-75910500D01*
X248990553Y-75910500D01*
X249201861Y-75895387D01*
X249477984Y-75835320D01*
X249742749Y-75736568D01*
X249990764Y-75601141D01*
X250216982Y-75431797D01*
X250416797Y-75231982D01*
X250586141Y-75005764D01*
X250721568Y-74757749D01*
X250820320Y-74492984D01*
X250880387Y-74216861D01*
X250900546Y-73935000D01*
X250898624Y-73908133D01*
X250895754Y-73868000D01*
X250880387Y-73653139D01*
X250876332Y-73634500D01*
X250829901Y-73421059D01*
X250820320Y-73377016D01*
X250721568Y-73112251D01*
X250718671Y-73106946D01*
X250586144Y-72864241D01*
X250586139Y-72864233D01*
X250416803Y-72638025D01*
X250416787Y-72638007D01*
X250216992Y-72438212D01*
X250216974Y-72438196D01*
X249990766Y-72268860D01*
X249990758Y-72268855D01*
X249742754Y-72133434D01*
X249742750Y-72133432D01*
X249631451Y-72091920D01*
X249477984Y-72034680D01*
X249477980Y-72034679D01*
X249477977Y-72034678D01*
X249201866Y-71974613D01*
X248990553Y-71959500D01*
X248849447Y-71959500D01*
X248638133Y-71974613D01*
X248362022Y-72034678D01*
X248362017Y-72034679D01*
X248362016Y-72034680D01*
X248298003Y-72058555D01*
X248097249Y-72133432D01*
X248097245Y-72133434D01*
X247849241Y-72268855D01*
X247849233Y-72268860D01*
X247623025Y-72438196D01*
X247623007Y-72438212D01*
X247423212Y-72638007D01*
X247423196Y-72638025D01*
X247253860Y-72864233D01*
X247253855Y-72864241D01*
X247118434Y-73112245D01*
X247118432Y-73112249D01*
X247019678Y-73377022D01*
X246959613Y-73653133D01*
X246939454Y-73934998D01*
X246939454Y-73935001D01*
X196083565Y-73935001D01*
X196067738Y-73693538D01*
X196067737Y-73693522D01*
X196008209Y-73394254D01*
X195910128Y-73105317D01*
X195836184Y-72955374D01*
X195775171Y-72831651D01*
X195687252Y-72700071D01*
X195605651Y-72577946D01*
X195558918Y-72524657D01*
X195404464Y-72348535D01*
X195175055Y-72147350D01*
X195154228Y-72133434D01*
X195090869Y-72091098D01*
X194921348Y-71977828D01*
X194647699Y-71842879D01*
X194647678Y-71842870D01*
X194358753Y-71744793D01*
X194358747Y-71744791D01*
X194358746Y-71744791D01*
X194358744Y-71744790D01*
X194358738Y-71744789D01*
X194059488Y-71685265D01*
X194059478Y-71685263D01*
X194059471Y-71685262D01*
X194059461Y-71685261D01*
X193755007Y-71665306D01*
X193754993Y-71665306D01*
X193450538Y-71685261D01*
X193450526Y-71685262D01*
X193450522Y-71685263D01*
X193450514Y-71685264D01*
X193450511Y-71685265D01*
X193151261Y-71744789D01*
X193151246Y-71744793D01*
X192862321Y-71842870D01*
X192862300Y-71842879D01*
X192588651Y-71977828D01*
X192334944Y-72147350D01*
X192105535Y-72348535D01*
X191904350Y-72577944D01*
X191734828Y-72831651D01*
X191599879Y-73105300D01*
X191599870Y-73105321D01*
X191501793Y-73394246D01*
X191501789Y-73394261D01*
X191442265Y-73693511D01*
X191442261Y-73693538D01*
X191422306Y-73997992D01*
X191422306Y-73998007D01*
X167510900Y-73998007D01*
X167510900Y-70781363D01*
X267995387Y-70781363D01*
X268025013Y-71050613D01*
X268025015Y-71050624D01*
X268088808Y-71294634D01*
X268093528Y-71312688D01*
X268199470Y-71561990D01*
X268340579Y-71793205D01*
X268340586Y-71793215D01*
X268513853Y-72001419D01*
X268513859Y-72001424D01*
X268661190Y-72133432D01*
X268715598Y-72182182D01*
X268941510Y-72331644D01*
X269186776Y-72446620D01*
X269186783Y-72446622D01*
X269186785Y-72446623D01*
X269446157Y-72524657D01*
X269446164Y-72524658D01*
X269446169Y-72524660D01*
X269714161Y-72564100D01*
X269714166Y-72564100D01*
X269917236Y-72564100D01*
X269968733Y-72560330D01*
X270119756Y-72549277D01*
X270232358Y-72524193D01*
X270384146Y-72490382D01*
X270384148Y-72490381D01*
X270384153Y-72490380D01*
X270637158Y-72393614D01*
X270873377Y-72261041D01*
X271087777Y-72095488D01*
X271275786Y-71900481D01*
X271433399Y-71680179D01*
X271507387Y-71536269D01*
X271557249Y-71439290D01*
X271557251Y-71439284D01*
X271557256Y-71439275D01*
X271644718Y-71182905D01*
X271693919Y-70916533D01*
X271703812Y-70645835D01*
X271674186Y-70376582D01*
X271605672Y-70114512D01*
X271499730Y-69865210D01*
X271358618Y-69633990D01*
X271357445Y-69632581D01*
X271185346Y-69425780D01*
X271185340Y-69425775D01*
X270983602Y-69245018D01*
X270757692Y-69095557D01*
X270757690Y-69095556D01*
X270512424Y-68980580D01*
X270512419Y-68980578D01*
X270512414Y-68980576D01*
X270253042Y-68902542D01*
X270253028Y-68902539D01*
X270128507Y-68884214D01*
X269985039Y-68863100D01*
X269781969Y-68863100D01*
X269781964Y-68863100D01*
X269579444Y-68877923D01*
X269579431Y-68877925D01*
X269315053Y-68936817D01*
X269315046Y-68936820D01*
X269062039Y-69033587D01*
X268825826Y-69166157D01*
X268611422Y-69331712D01*
X268423422Y-69526709D01*
X268423416Y-69526716D01*
X268265802Y-69747019D01*
X268265799Y-69747024D01*
X268141950Y-69987909D01*
X268141943Y-69987927D01*
X268054484Y-70244285D01*
X268054481Y-70244299D01*
X268005281Y-70510668D01*
X268005280Y-70510675D01*
X267995387Y-70781363D01*
X167510900Y-70781363D01*
X167510900Y-69030610D01*
X167514581Y-68932233D01*
X167503557Y-68834398D01*
X167498692Y-68769467D01*
X167496203Y-68736248D01*
X167496202Y-68736245D01*
X167496202Y-68736239D01*
X167489659Y-68707576D01*
X167488497Y-68700736D01*
X167485206Y-68671519D01*
X167459723Y-68576415D01*
X167437820Y-68480453D01*
X167427083Y-68453099D01*
X167424909Y-68446491D01*
X167417302Y-68418098D01*
X167377930Y-68327856D01*
X167341970Y-68236232D01*
X167341968Y-68236226D01*
X167327269Y-68210767D01*
X167324139Y-68204566D01*
X167312384Y-68177623D01*
X167260005Y-68094262D01*
X167210786Y-68009012D01*
X167192465Y-67986039D01*
X167188437Y-67980362D01*
X167172801Y-67955476D01*
X167172796Y-67955469D01*
X167108578Y-67880848D01*
X167047204Y-67803886D01*
X166975051Y-67736939D01*
X165489793Y-66251681D01*
X165456308Y-66190358D01*
X165461292Y-66120666D01*
X165503164Y-66064733D01*
X165568628Y-66040316D01*
X165577474Y-66040000D01*
X276240500Y-66040000D01*
X276307539Y-66059685D01*
X276353294Y-66112489D01*
X276364500Y-66164000D01*
X276364500Y-124336000D01*
X276344815Y-124403039D01*
X276292011Y-124448794D01*
X276240500Y-124460000D01*
X22984000Y-124460000D01*
X22916961Y-124440315D01*
X22871206Y-124387511D01*
X22860000Y-124336000D01*
X22860000Y-119498563D01*
X27152587Y-119498563D01*
X27182213Y-119767813D01*
X27182215Y-119767824D01*
X27249297Y-120024416D01*
X27250728Y-120029888D01*
X27356670Y-120279190D01*
X27429420Y-120398395D01*
X27497779Y-120510405D01*
X27497786Y-120510415D01*
X27671053Y-120718619D01*
X27671059Y-120718624D01*
X27832449Y-120863229D01*
X27872798Y-120899382D01*
X28098710Y-121048844D01*
X28343976Y-121163820D01*
X28343983Y-121163822D01*
X28343985Y-121163823D01*
X28603357Y-121241857D01*
X28603364Y-121241858D01*
X28603369Y-121241860D01*
X28871361Y-121281300D01*
X28871366Y-121281300D01*
X29074436Y-121281300D01*
X29125933Y-121277530D01*
X29276956Y-121266477D01*
X29389558Y-121241393D01*
X29541346Y-121207582D01*
X29541348Y-121207581D01*
X29541353Y-121207580D01*
X29794358Y-121110814D01*
X30030577Y-120978241D01*
X30244977Y-120812688D01*
X30432986Y-120617681D01*
X30590599Y-120397379D01*
X30676113Y-120231053D01*
X30714449Y-120156490D01*
X30714451Y-120156484D01*
X30714456Y-120156475D01*
X30801918Y-119900105D01*
X30851119Y-119633733D01*
X30861012Y-119363035D01*
X30854076Y-119300000D01*
X35213811Y-119300000D01*
X35232538Y-119537963D01*
X35288261Y-119770068D01*
X35379608Y-119990600D01*
X35379610Y-119990604D01*
X35379611Y-119990605D01*
X35504332Y-120194132D01*
X35659357Y-120375643D01*
X35840868Y-120530668D01*
X36044395Y-120655389D01*
X36044397Y-120655389D01*
X36044399Y-120655391D01*
X36089929Y-120674250D01*
X36264927Y-120746737D01*
X36497034Y-120802461D01*
X36735000Y-120821189D01*
X36972966Y-120802461D01*
X37205073Y-120746737D01*
X37425605Y-120655389D01*
X37629132Y-120530668D01*
X37810643Y-120375643D01*
X37965668Y-120194132D01*
X38090389Y-119990605D01*
X38181737Y-119770073D01*
X38237461Y-119537966D01*
X38256189Y-119300000D01*
X38237461Y-119062034D01*
X38181737Y-118829927D01*
X38116206Y-118671723D01*
X38090391Y-118609399D01*
X38080136Y-118592665D01*
X37965668Y-118405868D01*
X37810643Y-118224357D01*
X37629132Y-118069332D01*
X37425605Y-117944611D01*
X37425604Y-117944610D01*
X37425600Y-117944608D01*
X37205068Y-117853261D01*
X36972962Y-117797538D01*
X36972963Y-117797538D01*
X36735000Y-117778811D01*
X36497036Y-117797538D01*
X36264931Y-117853261D01*
X36044399Y-117944608D01*
X35840867Y-118069332D01*
X35659357Y-118224357D01*
X35504332Y-118405867D01*
X35379608Y-118609399D01*
X35288261Y-118829931D01*
X35232538Y-119062036D01*
X35213811Y-119300000D01*
X30854076Y-119300000D01*
X30831386Y-119093782D01*
X30762872Y-118831712D01*
X30656930Y-118582410D01*
X30515818Y-118351190D01*
X30514645Y-118349781D01*
X30342546Y-118142980D01*
X30342540Y-118142975D01*
X30140802Y-117962218D01*
X29914892Y-117812757D01*
X29882427Y-117797538D01*
X29669624Y-117697780D01*
X29669619Y-117697778D01*
X29669614Y-117697776D01*
X29410242Y-117619742D01*
X29410228Y-117619739D01*
X29294591Y-117602721D01*
X29142239Y-117580300D01*
X28939169Y-117580300D01*
X28939164Y-117580300D01*
X28736644Y-117595123D01*
X28736631Y-117595125D01*
X28472253Y-117654017D01*
X28472246Y-117654020D01*
X28219239Y-117750787D01*
X27983026Y-117883357D01*
X27768622Y-118048912D01*
X27580622Y-118243909D01*
X27580616Y-118243916D01*
X27423002Y-118464219D01*
X27422999Y-118464224D01*
X27299150Y-118705109D01*
X27299143Y-118705127D01*
X27211684Y-118961485D01*
X27211681Y-118961499D01*
X27162481Y-119227868D01*
X27162480Y-119227875D01*
X27152587Y-119498563D01*
X22860000Y-119498563D01*
X22860000Y-114220000D01*
X35214312Y-114220000D01*
X35233033Y-114457883D01*
X35288742Y-114689925D01*
X35380056Y-114910378D01*
X35498229Y-115103216D01*
X36251922Y-114349523D01*
X36275507Y-114429844D01*
X36353239Y-114550798D01*
X36461900Y-114644952D01*
X36592685Y-114704680D01*
X36602466Y-114706086D01*
X35851782Y-115456769D01*
X35851782Y-115456770D01*
X36044621Y-115574943D01*
X36265075Y-115666257D01*
X36265072Y-115666257D01*
X36497116Y-115721966D01*
X36735000Y-115740687D01*
X36972883Y-115721966D01*
X37204925Y-115666257D01*
X37425374Y-115574944D01*
X37618216Y-115456769D01*
X36867534Y-114706086D01*
X36877315Y-114704680D01*
X37008100Y-114644952D01*
X37116761Y-114550798D01*
X37194493Y-114429844D01*
X37218076Y-114349523D01*
X37971769Y-115103216D01*
X38089944Y-114910374D01*
X38181257Y-114689925D01*
X38236966Y-114457883D01*
X38255687Y-114220000D01*
X38236966Y-113982116D01*
X38181257Y-113750074D01*
X38089943Y-113529621D01*
X37971769Y-113336782D01*
X37218076Y-114090475D01*
X37194493Y-114010156D01*
X37116761Y-113889202D01*
X37008100Y-113795048D01*
X36877315Y-113735320D01*
X36867533Y-113733913D01*
X37618216Y-112983229D01*
X37425378Y-112865056D01*
X37204924Y-112773742D01*
X37204927Y-112773742D01*
X36972883Y-112718033D01*
X36735000Y-112699312D01*
X36497116Y-112718033D01*
X36265074Y-112773742D01*
X36044621Y-112865056D01*
X35851782Y-112983229D01*
X36602467Y-113733913D01*
X36592685Y-113735320D01*
X36461900Y-113795048D01*
X36353239Y-113889202D01*
X36275507Y-114010156D01*
X36251923Y-114090476D01*
X35498229Y-113336782D01*
X35380056Y-113529621D01*
X35288742Y-113750074D01*
X35233033Y-113982116D01*
X35214312Y-114220000D01*
X22860000Y-114220000D01*
X22860000Y-111963201D01*
X28133437Y-111963201D01*
X28153650Y-112194244D01*
X28153651Y-112194251D01*
X28213678Y-112418274D01*
X28213679Y-112418276D01*
X28213680Y-112418279D01*
X28311699Y-112628482D01*
X28444730Y-112818469D01*
X28608731Y-112982470D01*
X28798718Y-113115501D01*
X29008921Y-113213520D01*
X29232950Y-113273549D01*
X29397985Y-113287987D01*
X29463998Y-113293763D01*
X29464000Y-113293763D01*
X29464002Y-113293763D01*
X29521762Y-113288709D01*
X29695050Y-113273549D01*
X29919079Y-113213520D01*
X30129282Y-113115501D01*
X30319269Y-112982470D01*
X30483270Y-112818469D01*
X30616301Y-112628482D01*
X30714320Y-112418279D01*
X30774349Y-112194250D01*
X30794563Y-111963200D01*
X30791291Y-111925806D01*
X30786891Y-111875509D01*
X30774349Y-111732150D01*
X30714320Y-111508121D01*
X30616301Y-111297919D01*
X30616299Y-111297916D01*
X30616298Y-111297914D01*
X30483273Y-111107935D01*
X30483268Y-111107929D01*
X30319269Y-110943930D01*
X30319263Y-110943926D01*
X30129282Y-110810899D01*
X29919079Y-110712880D01*
X29919076Y-110712879D01*
X29919074Y-110712878D01*
X29695051Y-110652851D01*
X29695044Y-110652850D01*
X29464002Y-110632637D01*
X29463998Y-110632637D01*
X29232955Y-110652850D01*
X29232948Y-110652851D01*
X29008917Y-110712881D01*
X28798718Y-110810899D01*
X28798714Y-110810901D01*
X28608735Y-110943926D01*
X28608729Y-110943931D01*
X28444731Y-111107929D01*
X28444726Y-111107935D01*
X28311701Y-111297914D01*
X28311699Y-111297918D01*
X28213681Y-111508117D01*
X28153651Y-111732148D01*
X28153650Y-111732155D01*
X28133437Y-111963198D01*
X28133437Y-111963201D01*
X22860000Y-111963201D01*
X22860000Y-101934387D01*
X27713500Y-101934387D01*
X27730465Y-102046937D01*
X27752604Y-102193815D01*
X27752605Y-102193817D01*
X27752606Y-102193823D01*
X27829938Y-102444526D01*
X27943767Y-102680896D01*
X27943768Y-102680897D01*
X27943770Y-102680900D01*
X27943772Y-102680904D01*
X28034546Y-102814045D01*
X28091567Y-102897679D01*
X28270014Y-103090001D01*
X28270018Y-103090004D01*
X28270019Y-103090005D01*
X28475143Y-103253586D01*
X28702357Y-103384768D01*
X28946584Y-103480620D01*
X29202370Y-103539002D01*
X29202376Y-103539002D01*
X29202379Y-103539003D01*
X29398500Y-103553700D01*
X29398506Y-103553700D01*
X38796757Y-103553700D01*
X38863796Y-103573385D01*
X38884438Y-103590019D01*
X41919070Y-106624651D01*
X41986017Y-106696804D01*
X42062988Y-106758185D01*
X42137602Y-106822397D01*
X42162482Y-106838029D01*
X42168158Y-106842056D01*
X42191143Y-106860386D01*
X42276404Y-106909611D01*
X42359753Y-106961983D01*
X42376983Y-106969500D01*
X42386695Y-106973737D01*
X42392900Y-106976870D01*
X42418357Y-106991568D01*
X42418358Y-106991568D01*
X42418361Y-106991570D01*
X42418363Y-106991571D01*
X42510000Y-107027535D01*
X42600225Y-107066900D01*
X42628620Y-107074508D01*
X42635219Y-107076680D01*
X42652149Y-107083324D01*
X42662584Y-107087420D01*
X42662589Y-107087421D01*
X42662592Y-107087422D01*
X42758565Y-107109327D01*
X42853649Y-107134805D01*
X42879956Y-107137768D01*
X42882852Y-107138095D01*
X42889713Y-107139261D01*
X42893389Y-107140100D01*
X42918370Y-107145802D01*
X42918376Y-107145802D01*
X42918379Y-107145803D01*
X42918374Y-107145803D01*
X43016553Y-107153159D01*
X43114363Y-107164180D01*
X43212714Y-107160500D01*
X102144357Y-107160500D01*
X102211396Y-107180185D01*
X102232038Y-107196819D01*
X107769870Y-112734651D01*
X107836817Y-112806804D01*
X107913779Y-112868178D01*
X107988400Y-112932396D01*
X107988402Y-112932397D01*
X107988403Y-112932398D01*
X108013297Y-112948040D01*
X108018967Y-112952064D01*
X108041944Y-112970387D01*
X108116091Y-113013195D01*
X108127185Y-113019600D01*
X108210553Y-113071984D01*
X108237509Y-113083744D01*
X108243700Y-113086870D01*
X108269157Y-113101568D01*
X108360798Y-113137534D01*
X108451026Y-113176900D01*
X108479425Y-113184508D01*
X108486006Y-113186674D01*
X108507676Y-113195179D01*
X108513381Y-113197419D01*
X108513387Y-113197421D01*
X108583915Y-113213518D01*
X108609371Y-113219328D01*
X108704450Y-113244805D01*
X108733656Y-113248095D01*
X108740501Y-113249258D01*
X108769170Y-113255802D01*
X108769175Y-113255802D01*
X108769178Y-113255803D01*
X108867339Y-113263158D01*
X108965164Y-113274181D01*
X109063531Y-113270500D01*
X115998865Y-113270500D01*
X116065904Y-113290185D01*
X116111659Y-113342989D01*
X116121603Y-113412147D01*
X116092578Y-113475703D01*
X116042198Y-113510682D01*
X116016671Y-113520202D01*
X116016664Y-113520206D01*
X115901455Y-113606452D01*
X115901452Y-113606455D01*
X115815206Y-113721664D01*
X115815202Y-113721671D01*
X115764908Y-113856517D01*
X115758501Y-113916116D01*
X115758501Y-113916123D01*
X115758500Y-113916135D01*
X115758500Y-116043870D01*
X115758501Y-116043876D01*
X115764908Y-116103483D01*
X115815202Y-116238328D01*
X115815206Y-116238335D01*
X115901452Y-116353544D01*
X115901455Y-116353547D01*
X116016664Y-116439793D01*
X116016671Y-116439797D01*
X116151517Y-116490091D01*
X116151516Y-116490091D01*
X116158444Y-116490835D01*
X116211127Y-116496500D01*
X118338872Y-116496499D01*
X118398483Y-116490091D01*
X118533331Y-116439796D01*
X118648546Y-116353546D01*
X118734796Y-116238331D01*
X118785091Y-116103483D01*
X118791500Y-116043873D01*
X118791499Y-113916128D01*
X118785091Y-113856517D01*
X118752819Y-113769992D01*
X118734797Y-113721671D01*
X118734793Y-113721664D01*
X118648547Y-113606455D01*
X118648544Y-113606452D01*
X118533335Y-113520206D01*
X118533328Y-113520202D01*
X118398482Y-113469908D01*
X118398483Y-113469908D01*
X118338883Y-113463501D01*
X118338881Y-113463500D01*
X118338873Y-113463500D01*
X118338865Y-113463500D01*
X117727173Y-113463500D01*
X117660134Y-113443815D01*
X117614379Y-113391011D01*
X117604435Y-113321853D01*
X117633460Y-113258297D01*
X117692238Y-113220523D01*
X117699575Y-113218610D01*
X117792416Y-113197420D01*
X118036643Y-113101568D01*
X118120571Y-113053112D01*
X118182571Y-113036499D01*
X118338871Y-113036499D01*
X118338872Y-113036499D01*
X118398483Y-113030091D01*
X118533331Y-112979796D01*
X118648546Y-112893546D01*
X118734796Y-112778331D01*
X118785091Y-112643483D01*
X118791500Y-112583873D01*
X118791499Y-112433748D01*
X118803778Y-112379949D01*
X118909063Y-112161323D01*
X118986396Y-111910615D01*
X119025500Y-111651182D01*
X119025500Y-111388818D01*
X118986396Y-111129385D01*
X118909063Y-110878677D01*
X118845443Y-110746568D01*
X118803779Y-110660051D01*
X118791499Y-110606250D01*
X118791499Y-110456129D01*
X118791498Y-110456123D01*
X118785091Y-110396516D01*
X118734797Y-110261671D01*
X118734793Y-110261664D01*
X118648547Y-110146455D01*
X118648544Y-110146452D01*
X118533335Y-110060206D01*
X118533328Y-110060202D01*
X118398482Y-110009908D01*
X118398483Y-110009908D01*
X118338883Y-110003501D01*
X118338881Y-110003500D01*
X118338873Y-110003500D01*
X118338865Y-110003500D01*
X118182570Y-110003500D01*
X118120570Y-109986887D01*
X118036643Y-109938432D01*
X118036644Y-109938432D01*
X117952550Y-109905428D01*
X117897336Y-109862612D01*
X117874035Y-109796742D01*
X117890046Y-109728732D01*
X117940284Y-109680173D01*
X117952550Y-109674572D01*
X118036643Y-109641568D01*
X118120571Y-109593112D01*
X118182571Y-109576499D01*
X118338871Y-109576499D01*
X118338872Y-109576499D01*
X118398483Y-109570091D01*
X118533331Y-109519796D01*
X118648546Y-109433546D01*
X118734796Y-109318331D01*
X118785091Y-109183483D01*
X118791500Y-109123873D01*
X118791499Y-108973748D01*
X118803778Y-108919949D01*
X118909063Y-108701323D01*
X118986396Y-108450615D01*
X119025500Y-108191182D01*
X119025500Y-107928818D01*
X118986396Y-107669385D01*
X118909063Y-107418677D01*
X118872400Y-107342546D01*
X118803779Y-107200051D01*
X118791499Y-107146250D01*
X118791499Y-106996129D01*
X118791498Y-106996123D01*
X118791008Y-106991568D01*
X118785091Y-106936517D01*
X118749859Y-106842056D01*
X118734797Y-106801671D01*
X118734793Y-106801664D01*
X118648547Y-106686455D01*
X118648544Y-106686452D01*
X118533335Y-106600206D01*
X118533328Y-106600202D01*
X118398482Y-106549908D01*
X118398483Y-106549908D01*
X118338883Y-106543501D01*
X118338881Y-106543500D01*
X118338873Y-106543500D01*
X118338865Y-106543500D01*
X118182570Y-106543500D01*
X118120570Y-106526887D01*
X118036643Y-106478432D01*
X117792421Y-106382582D01*
X117792416Y-106382580D01*
X117792411Y-106382578D01*
X117792402Y-106382576D01*
X117574818Y-106332914D01*
X117536630Y-106324198D01*
X117536629Y-106324197D01*
X117536625Y-106324197D01*
X117536620Y-106324196D01*
X117340500Y-106309500D01*
X117340494Y-106309500D01*
X110741442Y-106309500D01*
X110674403Y-106289815D01*
X110653761Y-106273181D01*
X105858296Y-101477716D01*
X102952094Y-98571513D01*
X104203287Y-98571513D01*
X104232913Y-98840763D01*
X104232915Y-98840774D01*
X104294622Y-99076805D01*
X104301428Y-99102838D01*
X104407370Y-99352140D01*
X104544490Y-99576819D01*
X104548479Y-99583355D01*
X104548486Y-99583365D01*
X104721753Y-99791569D01*
X104721759Y-99791574D01*
X104923498Y-99972332D01*
X105149410Y-100121794D01*
X105394676Y-100236770D01*
X105394683Y-100236772D01*
X105394685Y-100236773D01*
X105654057Y-100314807D01*
X105654064Y-100314808D01*
X105654069Y-100314810D01*
X105922061Y-100354250D01*
X105922066Y-100354250D01*
X106125136Y-100354250D01*
X106176633Y-100350480D01*
X106327656Y-100339427D01*
X106440258Y-100314343D01*
X106592046Y-100280532D01*
X106592048Y-100280531D01*
X106592053Y-100280530D01*
X106845058Y-100183764D01*
X107081277Y-100051191D01*
X107295677Y-99885638D01*
X107483686Y-99690631D01*
X107641299Y-99470329D01*
X107715287Y-99326419D01*
X107765149Y-99229440D01*
X107765151Y-99229434D01*
X107765156Y-99229425D01*
X107852618Y-98973055D01*
X107901819Y-98706683D01*
X107911712Y-98435985D01*
X107882086Y-98166732D01*
X107813572Y-97904662D01*
X107707630Y-97655360D01*
X107566518Y-97424140D01*
X107526624Y-97376202D01*
X107393246Y-97215930D01*
X107393240Y-97215925D01*
X107191502Y-97035168D01*
X106965592Y-96885707D01*
X106965590Y-96885706D01*
X106720324Y-96770730D01*
X106720319Y-96770728D01*
X106720314Y-96770726D01*
X106460942Y-96692692D01*
X106460928Y-96692689D01*
X106345291Y-96675671D01*
X106192939Y-96653250D01*
X105989869Y-96653250D01*
X105989864Y-96653250D01*
X105787344Y-96668073D01*
X105787331Y-96668075D01*
X105522953Y-96726967D01*
X105522946Y-96726970D01*
X105269939Y-96823737D01*
X105033726Y-96956307D01*
X104819322Y-97121862D01*
X104631322Y-97316859D01*
X104631316Y-97316866D01*
X104473702Y-97537169D01*
X104473699Y-97537174D01*
X104349850Y-97778059D01*
X104349843Y-97778077D01*
X104262384Y-98034435D01*
X104262381Y-98034449D01*
X104213181Y-98300818D01*
X104213180Y-98300825D01*
X104203287Y-98571513D01*
X102952094Y-98571513D01*
X100955929Y-96575348D01*
X100890808Y-96505164D01*
X100888988Y-96503202D01*
X100888987Y-96503200D01*
X100812020Y-96441821D01*
X100737397Y-96377602D01*
X100712506Y-96361961D01*
X100706832Y-96357936D01*
X100683856Y-96339613D01*
X100598602Y-96290392D01*
X100515251Y-96238019D01*
X100515241Y-96238014D01*
X100488304Y-96226261D01*
X100482094Y-96223126D01*
X100456645Y-96208432D01*
X100456641Y-96208431D01*
X100364999Y-96172464D01*
X100274776Y-96133100D01*
X100274768Y-96133098D01*
X100246382Y-96125491D01*
X100239777Y-96123317D01*
X100212420Y-96112581D01*
X100116430Y-96090671D01*
X100021349Y-96065194D01*
X99997674Y-96062527D01*
X99992140Y-96061903D01*
X99985285Y-96060738D01*
X99956629Y-96054197D01*
X99956624Y-96054196D01*
X99858460Y-96046841D01*
X99760635Y-96035818D01*
X99662269Y-96039500D01*
X55386443Y-96039500D01*
X55319404Y-96019815D01*
X55298762Y-96003181D01*
X54341357Y-95045776D01*
X53280129Y-93984548D01*
X53222893Y-93922862D01*
X53213188Y-93912402D01*
X53213187Y-93912400D01*
X53213179Y-93912394D01*
X53136220Y-93851021D01*
X53061597Y-93786802D01*
X53036706Y-93771161D01*
X53031032Y-93767136D01*
X53008056Y-93748813D01*
X52922802Y-93699592D01*
X52839451Y-93647219D01*
X52839441Y-93647214D01*
X52812504Y-93635461D01*
X52806294Y-93632326D01*
X52780845Y-93617632D01*
X52780841Y-93617631D01*
X52689199Y-93581664D01*
X52598976Y-93542300D01*
X52598968Y-93542298D01*
X52570582Y-93534691D01*
X52563977Y-93532517D01*
X52536620Y-93521781D01*
X52440630Y-93499871D01*
X52345549Y-93474394D01*
X52321874Y-93471727D01*
X52316340Y-93471103D01*
X52309485Y-93469938D01*
X52280829Y-93463397D01*
X52280824Y-93463396D01*
X52182660Y-93456041D01*
X52084835Y-93445018D01*
X51986469Y-93448700D01*
X43263514Y-93448700D01*
X43165162Y-93445019D01*
X43165161Y-93445019D01*
X43067353Y-93456040D01*
X42969175Y-93463396D01*
X42969172Y-93463397D01*
X42940503Y-93469939D01*
X42933649Y-93471103D01*
X42904449Y-93474394D01*
X42809369Y-93499871D01*
X42809365Y-93499872D01*
X42713384Y-93521780D01*
X42713380Y-93521781D01*
X42713378Y-93521782D01*
X42699207Y-93527343D01*
X42686015Y-93532520D01*
X42679412Y-93534693D01*
X42651028Y-93542298D01*
X42651023Y-93542300D01*
X42560800Y-93581664D01*
X42469160Y-93617630D01*
X42443695Y-93632331D01*
X42437489Y-93635464D01*
X42410558Y-93647214D01*
X42327204Y-93699588D01*
X42241937Y-93748817D01*
X42218959Y-93767141D01*
X42213288Y-93771165D01*
X42188403Y-93786803D01*
X42113788Y-93851014D01*
X42036819Y-93912394D01*
X42036816Y-93912397D01*
X41986543Y-93966579D01*
X41969870Y-93984548D01*
X41475876Y-94478543D01*
X41018038Y-94936381D01*
X40956715Y-94969866D01*
X40930357Y-94972700D01*
X29398500Y-94972700D01*
X29202379Y-94987396D01*
X29202374Y-94987397D01*
X28946597Y-95045776D01*
X28946578Y-95045782D01*
X28702356Y-95141632D01*
X28475143Y-95272814D01*
X28270014Y-95436398D01*
X28091567Y-95628720D01*
X27943768Y-95845502D01*
X27943767Y-95845503D01*
X27829938Y-96081873D01*
X27752606Y-96332576D01*
X27752605Y-96332581D01*
X27752604Y-96332585D01*
X27737853Y-96430447D01*
X27713500Y-96592012D01*
X27713500Y-96854387D01*
X27718359Y-96886622D01*
X27752604Y-97113815D01*
X27752605Y-97113817D01*
X27752606Y-97113823D01*
X27829938Y-97364526D01*
X27943767Y-97600896D01*
X27943768Y-97600897D01*
X27943770Y-97600900D01*
X27943772Y-97600904D01*
X28064567Y-97778077D01*
X28091567Y-97817679D01*
X28270014Y-98010001D01*
X28270018Y-98010004D01*
X28270019Y-98010005D01*
X28475143Y-98173586D01*
X28702357Y-98304768D01*
X28946584Y-98400620D01*
X29202370Y-98459002D01*
X29202376Y-98459002D01*
X29202379Y-98459003D01*
X29398500Y-98473700D01*
X29398506Y-98473700D01*
X41674069Y-98473700D01*
X41772435Y-98477381D01*
X41772435Y-98477380D01*
X41772436Y-98477381D01*
X41870260Y-98466358D01*
X41968430Y-98459002D01*
X41984467Y-98455341D01*
X41997087Y-98452461D01*
X42003947Y-98451295D01*
X42006842Y-98450968D01*
X42033150Y-98448005D01*
X42105245Y-98428687D01*
X42128231Y-98422528D01*
X42224208Y-98400622D01*
X42224209Y-98400621D01*
X42224216Y-98400620D01*
X42251590Y-98389875D01*
X42258172Y-98387709D01*
X42286575Y-98380100D01*
X42376799Y-98340735D01*
X42468443Y-98304768D01*
X42493919Y-98290057D01*
X42500087Y-98286944D01*
X42527047Y-98275183D01*
X42610402Y-98222807D01*
X42695657Y-98173586D01*
X42718645Y-98155252D01*
X42724292Y-98151245D01*
X42749197Y-98135598D01*
X42823820Y-98071378D01*
X42870146Y-98034435D01*
X42900769Y-98010015D01*
X42900771Y-98010012D01*
X42900781Y-98010005D01*
X42967729Y-97937851D01*
X43919562Y-96986019D01*
X43980885Y-96952534D01*
X44007243Y-96949700D01*
X46693512Y-96949700D01*
X46760551Y-96969385D01*
X46806306Y-97022189D01*
X46816250Y-97091347D01*
X46787225Y-97154903D01*
X46782780Y-97159765D01*
X46631322Y-97316859D01*
X46631316Y-97316866D01*
X46473702Y-97537169D01*
X46473699Y-97537174D01*
X46349850Y-97778059D01*
X46349843Y-97778077D01*
X46262384Y-98034435D01*
X46262381Y-98034449D01*
X46213181Y-98300818D01*
X46213180Y-98300825D01*
X46203287Y-98571513D01*
X46232913Y-98840763D01*
X46232915Y-98840774D01*
X46294622Y-99076805D01*
X46301428Y-99102838D01*
X46407370Y-99352140D01*
X46544490Y-99576819D01*
X46548479Y-99583355D01*
X46548486Y-99583365D01*
X46721753Y-99791569D01*
X46721759Y-99791574D01*
X46923498Y-99972332D01*
X47149410Y-100121794D01*
X47394676Y-100236770D01*
X47394683Y-100236772D01*
X47394685Y-100236773D01*
X47654057Y-100314807D01*
X47654064Y-100314808D01*
X47654069Y-100314810D01*
X47922061Y-100354250D01*
X47922066Y-100354250D01*
X48125136Y-100354250D01*
X48176633Y-100350480D01*
X48327656Y-100339427D01*
X48440258Y-100314343D01*
X48592046Y-100280532D01*
X48592048Y-100280531D01*
X48592053Y-100280530D01*
X48845058Y-100183764D01*
X49081277Y-100051191D01*
X49295677Y-99885638D01*
X49483686Y-99690631D01*
X49641299Y-99470329D01*
X49715287Y-99326419D01*
X49765149Y-99229440D01*
X49765151Y-99229434D01*
X49765156Y-99229425D01*
X49852618Y-98973055D01*
X49901819Y-98706683D01*
X49911712Y-98435985D01*
X49882086Y-98166732D01*
X49813572Y-97904662D01*
X49707630Y-97655360D01*
X49566518Y-97424140D01*
X49526624Y-97376202D01*
X49393246Y-97215930D01*
X49393240Y-97215925D01*
X49337578Y-97166052D01*
X49300784Y-97106655D01*
X49301944Y-97036795D01*
X49340689Y-96978652D01*
X49404717Y-96950686D01*
X49420325Y-96949700D01*
X51242757Y-96949700D01*
X51309796Y-96969385D01*
X51330438Y-96986019D01*
X53349070Y-99004651D01*
X53416017Y-99076804D01*
X53492988Y-99138185D01*
X53567602Y-99202397D01*
X53592482Y-99218029D01*
X53598158Y-99222056D01*
X53621143Y-99240386D01*
X53706404Y-99289611D01*
X53789753Y-99341983D01*
X53816695Y-99353737D01*
X53822900Y-99356870D01*
X53848357Y-99371568D01*
X53848358Y-99371568D01*
X53848361Y-99371570D01*
X53848363Y-99371571D01*
X53940000Y-99407535D01*
X54030225Y-99446900D01*
X54058620Y-99454508D01*
X54065219Y-99456680D01*
X54082149Y-99463324D01*
X54092584Y-99467420D01*
X54092589Y-99467421D01*
X54092592Y-99467422D01*
X54107502Y-99470825D01*
X54188565Y-99489327D01*
X54283649Y-99514805D01*
X54309956Y-99517768D01*
X54312852Y-99518095D01*
X54319713Y-99519261D01*
X54323389Y-99520100D01*
X54348370Y-99525802D01*
X54348376Y-99525802D01*
X54348379Y-99525803D01*
X54348374Y-99525803D01*
X54446553Y-99533159D01*
X54544363Y-99544180D01*
X54642714Y-99540500D01*
X98918557Y-99540500D01*
X98985596Y-99560185D01*
X99006238Y-99576819D01*
X102877238Y-103447819D01*
X102910723Y-103509142D01*
X102905739Y-103578834D01*
X102863867Y-103634767D01*
X102798403Y-103659184D01*
X102789557Y-103659500D01*
X43956443Y-103659500D01*
X43889404Y-103639815D01*
X43868762Y-103623181D01*
X42372759Y-102127178D01*
X40834129Y-100588548D01*
X40789648Y-100540609D01*
X40767188Y-100516402D01*
X40767187Y-100516400D01*
X40690220Y-100455021D01*
X40615597Y-100390802D01*
X40590706Y-100375161D01*
X40585032Y-100371136D01*
X40562056Y-100352813D01*
X40476802Y-100303592D01*
X40393451Y-100251219D01*
X40393441Y-100251214D01*
X40366504Y-100239461D01*
X40360294Y-100236326D01*
X40334845Y-100221632D01*
X40334841Y-100221631D01*
X40243199Y-100185664D01*
X40152976Y-100146300D01*
X40152968Y-100146298D01*
X40124582Y-100138691D01*
X40117977Y-100136517D01*
X40090620Y-100125781D01*
X39994630Y-100103871D01*
X39899549Y-100078394D01*
X39875874Y-100075727D01*
X39870340Y-100075103D01*
X39863485Y-100073938D01*
X39834829Y-100067397D01*
X39834824Y-100067396D01*
X39736660Y-100060041D01*
X39638835Y-100049018D01*
X39540469Y-100052700D01*
X29398500Y-100052700D01*
X29202379Y-100067396D01*
X29202374Y-100067397D01*
X28946597Y-100125776D01*
X28946578Y-100125782D01*
X28702356Y-100221632D01*
X28475143Y-100352814D01*
X28270014Y-100516398D01*
X28091567Y-100708720D01*
X27943768Y-100925502D01*
X27943767Y-100925503D01*
X27829938Y-101161873D01*
X27752606Y-101412576D01*
X27752605Y-101412581D01*
X27752604Y-101412585D01*
X27739910Y-101496802D01*
X27713500Y-101672012D01*
X27713500Y-101934387D01*
X22860000Y-101934387D01*
X22860000Y-90961587D01*
X37416300Y-90961587D01*
X37436594Y-91096223D01*
X37455404Y-91221015D01*
X37455405Y-91221017D01*
X37455406Y-91221023D01*
X37532738Y-91471726D01*
X37646567Y-91708096D01*
X37646568Y-91708097D01*
X37646570Y-91708100D01*
X37646572Y-91708104D01*
X37729443Y-91829653D01*
X37794367Y-91924879D01*
X37972814Y-92117201D01*
X37972818Y-92117204D01*
X37972819Y-92117205D01*
X38177943Y-92280786D01*
X38405157Y-92411968D01*
X38649384Y-92507820D01*
X38905170Y-92566202D01*
X38905176Y-92566202D01*
X38905179Y-92566203D01*
X39101300Y-92580900D01*
X39101306Y-92580900D01*
X39232300Y-92580900D01*
X39428420Y-92566203D01*
X39428422Y-92566202D01*
X39428430Y-92566202D01*
X39684216Y-92507820D01*
X39928443Y-92411968D01*
X40155657Y-92280786D01*
X40360781Y-92117205D01*
X40539233Y-91924879D01*
X40687028Y-91708104D01*
X40695747Y-91690000D01*
X40713064Y-91654040D01*
X40800863Y-91471723D01*
X40878196Y-91221015D01*
X40917300Y-90961582D01*
X40917300Y-90699218D01*
X40878196Y-90439785D01*
X40800863Y-90189077D01*
X40740324Y-90063366D01*
X40687032Y-89952703D01*
X40687031Y-89952702D01*
X40687030Y-89952701D01*
X40687028Y-89952696D01*
X40552924Y-89756002D01*
X59190275Y-89756002D01*
X59190404Y-89758374D01*
X59209992Y-90119676D01*
X59210361Y-90126470D01*
X59210362Y-90126487D01*
X59270382Y-90492589D01*
X59270387Y-90492610D01*
X59369640Y-90850089D01*
X59369641Y-90850091D01*
X59506965Y-91194751D01*
X59506974Y-91194769D01*
X59528733Y-91235810D01*
X59671713Y-91505500D01*
X59680760Y-91522563D01*
X59680761Y-91522566D01*
X59888965Y-91829643D01*
X59888973Y-91829653D01*
X60129157Y-92112418D01*
X60129158Y-92112419D01*
X60277789Y-92253209D01*
X60398514Y-92367566D01*
X60398526Y-92367576D01*
X60693875Y-92592095D01*
X60693892Y-92592107D01*
X60976959Y-92762421D01*
X61011787Y-92783376D01*
X61011791Y-92783377D01*
X61011795Y-92783380D01*
X61348501Y-92939157D01*
X61348512Y-92939162D01*
X61700107Y-93057628D01*
X62062450Y-93137386D01*
X62431292Y-93177500D01*
X62431298Y-93177500D01*
X62802302Y-93177500D01*
X62802308Y-93177500D01*
X63171150Y-93137386D01*
X63533493Y-93057628D01*
X63885088Y-92939162D01*
X64221813Y-92783376D01*
X64342089Y-92711008D01*
X64539707Y-92592107D01*
X64539716Y-92592100D01*
X64539722Y-92592097D01*
X64835085Y-92367567D01*
X65104442Y-92112419D01*
X65344633Y-91829645D01*
X65552843Y-91522558D01*
X65726630Y-91194761D01*
X65863957Y-90850095D01*
X65864613Y-90847735D01*
X65916712Y-90660090D01*
X65963215Y-90492602D01*
X65994055Y-90304488D01*
X66023237Y-90126487D01*
X66023237Y-90126484D01*
X66023239Y-90126473D01*
X66043196Y-89758374D01*
X66043325Y-89756002D01*
X66043325Y-89755997D01*
X66039945Y-89693650D01*
X66023239Y-89385527D01*
X66022335Y-89380014D01*
X65963217Y-89019410D01*
X65963216Y-89019409D01*
X65963215Y-89019398D01*
X65881593Y-88725422D01*
X65863959Y-88661910D01*
X65863958Y-88661908D01*
X65726634Y-88317248D01*
X65726625Y-88317230D01*
X65552843Y-87989442D01*
X65552839Y-87989436D01*
X65552838Y-87989433D01*
X65344634Y-87682356D01*
X65344626Y-87682346D01*
X65104442Y-87399581D01*
X64835085Y-87144433D01*
X64835073Y-87144423D01*
X64539724Y-86919904D01*
X64539707Y-86919892D01*
X64221817Y-86728626D01*
X64221804Y-86728619D01*
X63885098Y-86572842D01*
X63885093Y-86572840D01*
X63885088Y-86572838D01*
X63696855Y-86509415D01*
X63533492Y-86454371D01*
X63171148Y-86374613D01*
X62802309Y-86334500D01*
X62802308Y-86334500D01*
X62431292Y-86334500D01*
X62431290Y-86334500D01*
X62062451Y-86374613D01*
X61700107Y-86454371D01*
X61428318Y-86545948D01*
X61348512Y-86572838D01*
X61348509Y-86572839D01*
X61348501Y-86572842D01*
X61011795Y-86728619D01*
X61011782Y-86728626D01*
X60693892Y-86919892D01*
X60693875Y-86919904D01*
X60398526Y-87144423D01*
X60398514Y-87144433D01*
X60129157Y-87399581D01*
X59888973Y-87682346D01*
X59888965Y-87682356D01*
X59680761Y-87989433D01*
X59680760Y-87989436D01*
X59506974Y-88317230D01*
X59506965Y-88317248D01*
X59369641Y-88661908D01*
X59369640Y-88661910D01*
X59270387Y-89019389D01*
X59270382Y-89019410D01*
X59210362Y-89385512D01*
X59210361Y-89385525D01*
X59210361Y-89385527D01*
X59207395Y-89440227D01*
X59190275Y-89755997D01*
X59190275Y-89756002D01*
X40552924Y-89756002D01*
X40539233Y-89735921D01*
X40501738Y-89695511D01*
X40360785Y-89543598D01*
X40266754Y-89468611D01*
X40155657Y-89380014D01*
X39928443Y-89248832D01*
X39684216Y-89152980D01*
X39684211Y-89152978D01*
X39684202Y-89152976D01*
X39466618Y-89103314D01*
X39428430Y-89094598D01*
X39428429Y-89094597D01*
X39428425Y-89094597D01*
X39428420Y-89094596D01*
X39232300Y-89079900D01*
X39232294Y-89079900D01*
X39101306Y-89079900D01*
X39101300Y-89079900D01*
X38905179Y-89094596D01*
X38905174Y-89094597D01*
X38649397Y-89152976D01*
X38649378Y-89152982D01*
X38405156Y-89248832D01*
X38177943Y-89380014D01*
X37972814Y-89543598D01*
X37794367Y-89735920D01*
X37646568Y-89952702D01*
X37646567Y-89952703D01*
X37532738Y-90189073D01*
X37455406Y-90439776D01*
X37455405Y-90439781D01*
X37455404Y-90439785D01*
X37447445Y-90492589D01*
X37416300Y-90699212D01*
X37416300Y-90961587D01*
X22860000Y-90961587D01*
X22860000Y-86130433D01*
X37452445Y-86130433D01*
X37471839Y-86401592D01*
X37471840Y-86401599D01*
X37526418Y-86652490D01*
X37529625Y-86667233D01*
X37583621Y-86812001D01*
X37624630Y-86921951D01*
X37754909Y-87160539D01*
X37754910Y-87160540D01*
X37754913Y-87160545D01*
X37917829Y-87378174D01*
X37917833Y-87378178D01*
X37917838Y-87378184D01*
X38110047Y-87570393D01*
X38110053Y-87570398D01*
X38110058Y-87570403D01*
X38327687Y-87733319D01*
X38327691Y-87733321D01*
X38327692Y-87733322D01*
X38566281Y-87863601D01*
X38566280Y-87863601D01*
X38566284Y-87863602D01*
X38566287Y-87863604D01*
X38820999Y-87958607D01*
X39086640Y-88016393D01*
X39338405Y-88034399D01*
X39357799Y-88035787D01*
X39357800Y-88035787D01*
X39357801Y-88035787D01*
X39375900Y-88034492D01*
X39628960Y-88016393D01*
X39894601Y-87958607D01*
X40149313Y-87863604D01*
X40149317Y-87863601D01*
X40149319Y-87863601D01*
X40363237Y-87746793D01*
X40387913Y-87733319D01*
X40605542Y-87570403D01*
X40797771Y-87378174D01*
X40960687Y-87160545D01*
X41043208Y-87009419D01*
X41090969Y-86921951D01*
X41090969Y-86921949D01*
X41090972Y-86921945D01*
X41185975Y-86667233D01*
X41243761Y-86401592D01*
X41263155Y-86130433D01*
X41652444Y-86130433D01*
X41671838Y-86401592D01*
X41671839Y-86401599D01*
X41726417Y-86652490D01*
X41729624Y-86667233D01*
X41783620Y-86812001D01*
X41824629Y-86921951D01*
X41954908Y-87160539D01*
X41954909Y-87160540D01*
X41954912Y-87160545D01*
X42117828Y-87378174D01*
X42117832Y-87378178D01*
X42117837Y-87378184D01*
X42310046Y-87570393D01*
X42310052Y-87570398D01*
X42310057Y-87570403D01*
X42527686Y-87733319D01*
X42527690Y-87733321D01*
X42527691Y-87733322D01*
X42766280Y-87863601D01*
X42766279Y-87863601D01*
X42766283Y-87863602D01*
X42766286Y-87863604D01*
X43020998Y-87958607D01*
X43286639Y-88016393D01*
X43538404Y-88034399D01*
X43557798Y-88035787D01*
X43557799Y-88035787D01*
X43557800Y-88035787D01*
X43575899Y-88034492D01*
X43828959Y-88016393D01*
X44094600Y-87958607D01*
X44349312Y-87863604D01*
X44349316Y-87863601D01*
X44349318Y-87863601D01*
X44563236Y-87746793D01*
X44587912Y-87733319D01*
X44805541Y-87570403D01*
X44997770Y-87378174D01*
X45160686Y-87160545D01*
X45243207Y-87009419D01*
X45290968Y-86921951D01*
X45290968Y-86921949D01*
X45290971Y-86921945D01*
X45385974Y-86667233D01*
X45443760Y-86401592D01*
X45463154Y-86130432D01*
X45443760Y-85859272D01*
X45385974Y-85593631D01*
X45290971Y-85338919D01*
X45290969Y-85338916D01*
X45290968Y-85338912D01*
X45160689Y-85100324D01*
X45160688Y-85100323D01*
X45160686Y-85100319D01*
X44997770Y-84882690D01*
X44997765Y-84882685D01*
X44997760Y-84882679D01*
X44805551Y-84690470D01*
X44805545Y-84690465D01*
X44805541Y-84690461D01*
X44587912Y-84527545D01*
X44587907Y-84527542D01*
X44587906Y-84527541D01*
X44349317Y-84397262D01*
X44349318Y-84397262D01*
X44299719Y-84378762D01*
X44094600Y-84302257D01*
X44094593Y-84302255D01*
X44094592Y-84302255D01*
X43828966Y-84244472D01*
X43828959Y-84244471D01*
X43557800Y-84225077D01*
X43557798Y-84225077D01*
X43286638Y-84244471D01*
X43286631Y-84244472D01*
X43021005Y-84302255D01*
X43021001Y-84302256D01*
X43020998Y-84302257D01*
X42893642Y-84349758D01*
X42766279Y-84397262D01*
X42527691Y-84527541D01*
X42527690Y-84527542D01*
X42310058Y-84690460D01*
X42310046Y-84690470D01*
X42117837Y-84882679D01*
X42117827Y-84882691D01*
X41954909Y-85100323D01*
X41954908Y-85100324D01*
X41824629Y-85338912D01*
X41795300Y-85417547D01*
X41729624Y-85593631D01*
X41729623Y-85593634D01*
X41729622Y-85593638D01*
X41671839Y-85859264D01*
X41671838Y-85859271D01*
X41652444Y-86130430D01*
X41652444Y-86130433D01*
X41263155Y-86130433D01*
X41263155Y-86130432D01*
X41243761Y-85859272D01*
X41185975Y-85593631D01*
X41090972Y-85338919D01*
X41090970Y-85338916D01*
X41090969Y-85338912D01*
X40960690Y-85100324D01*
X40960689Y-85100323D01*
X40960687Y-85100319D01*
X40797771Y-84882690D01*
X40797766Y-84882685D01*
X40797761Y-84882679D01*
X40605552Y-84690470D01*
X40605546Y-84690465D01*
X40605542Y-84690461D01*
X40387913Y-84527545D01*
X40387908Y-84527542D01*
X40387907Y-84527541D01*
X40149318Y-84397262D01*
X40149319Y-84397262D01*
X40099720Y-84378762D01*
X39894601Y-84302257D01*
X39894594Y-84302255D01*
X39894593Y-84302255D01*
X39628967Y-84244472D01*
X39628960Y-84244471D01*
X39357801Y-84225077D01*
X39357799Y-84225077D01*
X39086639Y-84244471D01*
X39086632Y-84244472D01*
X38821006Y-84302255D01*
X38821002Y-84302256D01*
X38820999Y-84302257D01*
X38693643Y-84349758D01*
X38566280Y-84397262D01*
X38327692Y-84527541D01*
X38327691Y-84527542D01*
X38110059Y-84690460D01*
X38110047Y-84690470D01*
X37917838Y-84882679D01*
X37917828Y-84882691D01*
X37754910Y-85100323D01*
X37754909Y-85100324D01*
X37624630Y-85338912D01*
X37595301Y-85417547D01*
X37529625Y-85593631D01*
X37529624Y-85593634D01*
X37529623Y-85593638D01*
X37471840Y-85859264D01*
X37471839Y-85859271D01*
X37452445Y-86130430D01*
X37452445Y-86130433D01*
X22860000Y-86130433D01*
X22860000Y-81930434D01*
X37452445Y-81930434D01*
X37471839Y-82201593D01*
X37471840Y-82201600D01*
X37529623Y-82467226D01*
X37529625Y-82467234D01*
X37596985Y-82647832D01*
X37624630Y-82721952D01*
X37754909Y-82960540D01*
X37754910Y-82960541D01*
X37754913Y-82960546D01*
X37917829Y-83178175D01*
X37917833Y-83178179D01*
X37917838Y-83178185D01*
X38110047Y-83370394D01*
X38110053Y-83370399D01*
X38110058Y-83370404D01*
X38327687Y-83533320D01*
X38327691Y-83533322D01*
X38327692Y-83533323D01*
X38566281Y-83663602D01*
X38566280Y-83663602D01*
X38566284Y-83663603D01*
X38566287Y-83663605D01*
X38820999Y-83758608D01*
X39086640Y-83816394D01*
X39338405Y-83834400D01*
X39357799Y-83835788D01*
X39357800Y-83835788D01*
X39357801Y-83835788D01*
X39375900Y-83834493D01*
X39628960Y-83816394D01*
X39894601Y-83758608D01*
X40149313Y-83663605D01*
X40149317Y-83663602D01*
X40149319Y-83663602D01*
X40328615Y-83565699D01*
X40387913Y-83533320D01*
X40605542Y-83370404D01*
X40797771Y-83178175D01*
X40960687Y-82960546D01*
X41090972Y-82721946D01*
X41185975Y-82467234D01*
X41243761Y-82201593D01*
X41263155Y-81930434D01*
X41652444Y-81930434D01*
X41671838Y-82201593D01*
X41671839Y-82201600D01*
X41729622Y-82467226D01*
X41729624Y-82467234D01*
X41796984Y-82647832D01*
X41824629Y-82721952D01*
X41954908Y-82960540D01*
X41954909Y-82960541D01*
X41954912Y-82960546D01*
X42117828Y-83178175D01*
X42117832Y-83178179D01*
X42117837Y-83178185D01*
X42310046Y-83370394D01*
X42310052Y-83370399D01*
X42310057Y-83370404D01*
X42527686Y-83533320D01*
X42527690Y-83533322D01*
X42527691Y-83533323D01*
X42766280Y-83663602D01*
X42766279Y-83663602D01*
X42766283Y-83663603D01*
X42766286Y-83663605D01*
X43020998Y-83758608D01*
X43286639Y-83816394D01*
X43538404Y-83834400D01*
X43557798Y-83835788D01*
X43557799Y-83835788D01*
X43557800Y-83835788D01*
X43575899Y-83834493D01*
X43828959Y-83816394D01*
X44094600Y-83758608D01*
X44349312Y-83663605D01*
X44349316Y-83663602D01*
X44349318Y-83663602D01*
X44528614Y-83565699D01*
X44587912Y-83533320D01*
X44805541Y-83370404D01*
X44997770Y-83178175D01*
X45160686Y-82960546D01*
X45290971Y-82721946D01*
X45385974Y-82467234D01*
X45443760Y-82201593D01*
X45463154Y-81930433D01*
X45443760Y-81659273D01*
X45385974Y-81393632D01*
X45290971Y-81138920D01*
X45290969Y-81138917D01*
X45290968Y-81138913D01*
X45160689Y-80900325D01*
X45160688Y-80900324D01*
X45160686Y-80900320D01*
X44997770Y-80682691D01*
X44997765Y-80682686D01*
X44997760Y-80682680D01*
X44805551Y-80490471D01*
X44805545Y-80490466D01*
X44805541Y-80490462D01*
X44587912Y-80327546D01*
X44587907Y-80327543D01*
X44587906Y-80327542D01*
X44349317Y-80197263D01*
X44349318Y-80197263D01*
X44299719Y-80178763D01*
X44094600Y-80102258D01*
X44094593Y-80102256D01*
X44094592Y-80102256D01*
X43828966Y-80044473D01*
X43828959Y-80044472D01*
X43557800Y-80025078D01*
X43557798Y-80025078D01*
X43286638Y-80044472D01*
X43286631Y-80044473D01*
X43021005Y-80102256D01*
X43021001Y-80102257D01*
X43020998Y-80102258D01*
X42908266Y-80144305D01*
X42766279Y-80197263D01*
X42527691Y-80327542D01*
X42527690Y-80327543D01*
X42310058Y-80490461D01*
X42310046Y-80490471D01*
X42117837Y-80682680D01*
X42117827Y-80682692D01*
X41954909Y-80900324D01*
X41954908Y-80900325D01*
X41824629Y-81138913D01*
X41793475Y-81222441D01*
X41729624Y-81393632D01*
X41729623Y-81393635D01*
X41729622Y-81393639D01*
X41671839Y-81659265D01*
X41671838Y-81659272D01*
X41652444Y-81930431D01*
X41652444Y-81930434D01*
X41263155Y-81930434D01*
X41263155Y-81930433D01*
X41243761Y-81659273D01*
X41185975Y-81393632D01*
X41090972Y-81138920D01*
X41090970Y-81138917D01*
X41090969Y-81138913D01*
X40960690Y-80900325D01*
X40960689Y-80900324D01*
X40960687Y-80900320D01*
X40797771Y-80682691D01*
X40797766Y-80682686D01*
X40797761Y-80682680D01*
X40605552Y-80490471D01*
X40605546Y-80490466D01*
X40605542Y-80490462D01*
X40387913Y-80327546D01*
X40387908Y-80327543D01*
X40387907Y-80327542D01*
X40149318Y-80197263D01*
X40149319Y-80197263D01*
X40099720Y-80178763D01*
X39894601Y-80102258D01*
X39894594Y-80102256D01*
X39894593Y-80102256D01*
X39628967Y-80044473D01*
X39628960Y-80044472D01*
X39357801Y-80025078D01*
X39357799Y-80025078D01*
X39086639Y-80044472D01*
X39086632Y-80044473D01*
X38821006Y-80102256D01*
X38821002Y-80102257D01*
X38820999Y-80102258D01*
X38708267Y-80144305D01*
X38566280Y-80197263D01*
X38327692Y-80327542D01*
X38327691Y-80327543D01*
X38110059Y-80490461D01*
X38110047Y-80490471D01*
X37917838Y-80682680D01*
X37917828Y-80682692D01*
X37754910Y-80900324D01*
X37754909Y-80900325D01*
X37624630Y-81138913D01*
X37593476Y-81222441D01*
X37529625Y-81393632D01*
X37529624Y-81393635D01*
X37529623Y-81393639D01*
X37471840Y-81659265D01*
X37471839Y-81659272D01*
X37452445Y-81930431D01*
X37452445Y-81930434D01*
X22860000Y-81930434D01*
X22860000Y-77730435D01*
X37452445Y-77730435D01*
X37471839Y-78001594D01*
X37471840Y-78001601D01*
X37529401Y-78266206D01*
X37529625Y-78267235D01*
X37604381Y-78467664D01*
X37624630Y-78521953D01*
X37754909Y-78760541D01*
X37754910Y-78760542D01*
X37754913Y-78760547D01*
X37917829Y-78978176D01*
X37917833Y-78978180D01*
X37917838Y-78978186D01*
X38110047Y-79170395D01*
X38110053Y-79170400D01*
X38110058Y-79170405D01*
X38327687Y-79333321D01*
X38327691Y-79333323D01*
X38327692Y-79333324D01*
X38566281Y-79463603D01*
X38566280Y-79463603D01*
X38566284Y-79463604D01*
X38566287Y-79463606D01*
X38820999Y-79558609D01*
X39086640Y-79616395D01*
X39338405Y-79634401D01*
X39357799Y-79635789D01*
X39357800Y-79635789D01*
X39357801Y-79635789D01*
X39375900Y-79634494D01*
X39628960Y-79616395D01*
X39894601Y-79558609D01*
X40149313Y-79463606D01*
X40149317Y-79463603D01*
X40149319Y-79463603D01*
X40315682Y-79372762D01*
X40387913Y-79333321D01*
X40594990Y-79178304D01*
X41657299Y-79178304D01*
X41657300Y-79178310D01*
X41663707Y-79237917D01*
X41714001Y-79372762D01*
X41714005Y-79372769D01*
X41800251Y-79487978D01*
X41800254Y-79487981D01*
X41915463Y-79574227D01*
X41915470Y-79574231D01*
X42050316Y-79624525D01*
X42050315Y-79624525D01*
X42057243Y-79625269D01*
X42109926Y-79630934D01*
X45005671Y-79630933D01*
X45065282Y-79624525D01*
X45200130Y-79574230D01*
X45315345Y-79487980D01*
X45401595Y-79372765D01*
X45451890Y-79237917D01*
X45458299Y-79178307D01*
X45458298Y-77056002D01*
X84590275Y-77056002D01*
X84593591Y-77117166D01*
X84600812Y-77250357D01*
X84610361Y-77426470D01*
X84610362Y-77426487D01*
X84670382Y-77792589D01*
X84670387Y-77792610D01*
X84769640Y-78150089D01*
X84769641Y-78150091D01*
X84906965Y-78494751D01*
X84906974Y-78494769D01*
X84943660Y-78563966D01*
X85063029Y-78789120D01*
X85080760Y-78822563D01*
X85080761Y-78822566D01*
X85288965Y-79129643D01*
X85288973Y-79129653D01*
X85503350Y-79382036D01*
X85529158Y-79412419D01*
X85577924Y-79458612D01*
X85798514Y-79667566D01*
X85798526Y-79667576D01*
X86093875Y-79892095D01*
X86093892Y-79892107D01*
X86411782Y-80083373D01*
X86411787Y-80083376D01*
X86411791Y-80083377D01*
X86411795Y-80083380D01*
X86696464Y-80215082D01*
X86748512Y-80239162D01*
X87100107Y-80357628D01*
X87462450Y-80437386D01*
X87831292Y-80477500D01*
X87831298Y-80477500D01*
X88202302Y-80477500D01*
X88202308Y-80477500D01*
X88571150Y-80437386D01*
X88933493Y-80357628D01*
X89285088Y-80239162D01*
X89621813Y-80083376D01*
X89785148Y-79985101D01*
X89939707Y-79892107D01*
X89939716Y-79892100D01*
X89939722Y-79892097D01*
X90235085Y-79667567D01*
X90504442Y-79412419D01*
X90744633Y-79129645D01*
X90877666Y-78933436D01*
X90952838Y-78822566D01*
X90952838Y-78822564D01*
X90952843Y-78822558D01*
X91126630Y-78494761D01*
X91193870Y-78326000D01*
X105078198Y-78326000D01*
X105096925Y-78563963D01*
X105152648Y-78796068D01*
X105243995Y-79016600D01*
X105243997Y-79016604D01*
X105243998Y-79016605D01*
X105368719Y-79220132D01*
X105523744Y-79401643D01*
X105705255Y-79556668D01*
X105908782Y-79681389D01*
X105908784Y-79681389D01*
X105908786Y-79681391D01*
X105984458Y-79712735D01*
X106129314Y-79772737D01*
X106361421Y-79828461D01*
X106599387Y-79847189D01*
X106837353Y-79828461D01*
X107069460Y-79772737D01*
X107289992Y-79681389D01*
X107390170Y-79620000D01*
X111788811Y-79620000D01*
X111807538Y-79857963D01*
X111863261Y-80090068D01*
X111954608Y-80310600D01*
X111954610Y-80310604D01*
X111954611Y-80310605D01*
X112079332Y-80514132D01*
X112234357Y-80695643D01*
X112415868Y-80850668D01*
X112619395Y-80975389D01*
X112619397Y-80975389D01*
X112619399Y-80975391D01*
X112631410Y-80980366D01*
X112839927Y-81066737D01*
X113072034Y-81122461D01*
X113310000Y-81141189D01*
X113547966Y-81122461D01*
X113780073Y-81066737D01*
X114000605Y-80975389D01*
X114204132Y-80850668D01*
X114385643Y-80695643D01*
X114540668Y-80514132D01*
X114665389Y-80310605D01*
X114756737Y-80090073D01*
X114812461Y-79857966D01*
X114831189Y-79620000D01*
X114812461Y-79382034D01*
X114756737Y-79149927D01*
X114696734Y-79005068D01*
X114665391Y-78929399D01*
X114659631Y-78920000D01*
X127704696Y-78920000D01*
X127723898Y-79286405D01*
X127781294Y-79648788D01*
X127781294Y-79648790D01*
X127876260Y-80003206D01*
X128007746Y-80345739D01*
X128174320Y-80672656D01*
X128374147Y-80980364D01*
X128504380Y-81141188D01*
X128605051Y-81265506D01*
X128864494Y-81524949D01*
X129012747Y-81645002D01*
X129149635Y-81755852D01*
X129434636Y-81940933D01*
X129457348Y-81955682D01*
X129784264Y-82122255D01*
X130126801Y-82253742D01*
X130481206Y-82348705D01*
X130843596Y-82406102D01*
X131189734Y-82424241D01*
X131209999Y-82425304D01*
X131210000Y-82425304D01*
X131210001Y-82425304D01*
X131229203Y-82424297D01*
X131576404Y-82406102D01*
X131938794Y-82348705D01*
X132293199Y-82253742D01*
X132635736Y-82122255D01*
X132962652Y-81955682D01*
X133270366Y-81755851D01*
X133555506Y-81524949D01*
X133814949Y-81265506D01*
X134045851Y-80980366D01*
X134245682Y-80672652D01*
X134412255Y-80345736D01*
X134543742Y-80003199D01*
X134638705Y-79648794D01*
X134696102Y-79286404D01*
X134715304Y-78920000D01*
X134696102Y-78553596D01*
X134638705Y-78191206D01*
X134543742Y-77836801D01*
X134412255Y-77494264D01*
X134245682Y-77167348D01*
X134245679Y-77167343D01*
X134045852Y-76859635D01*
X133814952Y-76574498D01*
X133814949Y-76574494D01*
X133555506Y-76315051D01*
X133323958Y-76127547D01*
X133270364Y-76084147D01*
X132962656Y-75884320D01*
X132635739Y-75717746D01*
X132293206Y-75586260D01*
X132286638Y-75584500D01*
X131938794Y-75491295D01*
X131938790Y-75491294D01*
X131938789Y-75491294D01*
X131576405Y-75433898D01*
X131210001Y-75414696D01*
X131209999Y-75414696D01*
X130843594Y-75433898D01*
X130481211Y-75491294D01*
X130481209Y-75491294D01*
X130126793Y-75586260D01*
X129784260Y-75717746D01*
X129457343Y-75884320D01*
X129149635Y-76084147D01*
X128864498Y-76315047D01*
X128864490Y-76315054D01*
X128605054Y-76574490D01*
X128605047Y-76574498D01*
X128374147Y-76859635D01*
X128174320Y-77167343D01*
X128007746Y-77494260D01*
X127876260Y-77836793D01*
X127781294Y-78191209D01*
X127781294Y-78191211D01*
X127723898Y-78553594D01*
X127704696Y-78919999D01*
X127704696Y-78920000D01*
X114659631Y-78920000D01*
X114540668Y-78725868D01*
X114385643Y-78544357D01*
X114204132Y-78389332D01*
X114000605Y-78264611D01*
X114000604Y-78264610D01*
X114000600Y-78264608D01*
X113780068Y-78173261D01*
X113547962Y-78117538D01*
X113547963Y-78117538D01*
X113310000Y-78098811D01*
X113072036Y-78117538D01*
X112839931Y-78173261D01*
X112619399Y-78264608D01*
X112415867Y-78389332D01*
X112234357Y-78544357D01*
X112079332Y-78725867D01*
X111954608Y-78929399D01*
X111863261Y-79149931D01*
X111807538Y-79382036D01*
X111788811Y-79620000D01*
X107390170Y-79620000D01*
X107493519Y-79556668D01*
X107675030Y-79401643D01*
X107830055Y-79220132D01*
X107954776Y-79016605D01*
X108046124Y-78796073D01*
X108101848Y-78563966D01*
X108120576Y-78326000D01*
X108101848Y-78088034D01*
X108046124Y-77855927D01*
X107976580Y-77688033D01*
X107954778Y-77635399D01*
X107952704Y-77632015D01*
X107830055Y-77431868D01*
X107675030Y-77250357D01*
X107493519Y-77095332D01*
X107289992Y-76970611D01*
X107289991Y-76970610D01*
X107289987Y-76970608D01*
X107069455Y-76879261D01*
X106837349Y-76823538D01*
X106837350Y-76823538D01*
X106599387Y-76804811D01*
X106361423Y-76823538D01*
X106129318Y-76879261D01*
X105908786Y-76970608D01*
X105705254Y-77095332D01*
X105523744Y-77250357D01*
X105368719Y-77431867D01*
X105243995Y-77635399D01*
X105152648Y-77855931D01*
X105096925Y-78088036D01*
X105078198Y-78326000D01*
X91193870Y-78326000D01*
X91263957Y-78150095D01*
X91272560Y-78119112D01*
X91333891Y-77898217D01*
X91363215Y-77792602D01*
X91421046Y-77439850D01*
X91423237Y-77426487D01*
X91423237Y-77426484D01*
X91423239Y-77426473D01*
X91443325Y-77056000D01*
X91423239Y-76685527D01*
X91405035Y-76574490D01*
X91363217Y-76319410D01*
X91363216Y-76319409D01*
X91363215Y-76319398D01*
X91309947Y-76127544D01*
X91263959Y-75961910D01*
X91263958Y-75961908D01*
X91237453Y-75895386D01*
X91174175Y-75736568D01*
X91126634Y-75617248D01*
X91126625Y-75617230D01*
X91105240Y-75576893D01*
X90952843Y-75289442D01*
X90952839Y-75289436D01*
X90952838Y-75289433D01*
X90744634Y-74982356D01*
X90744626Y-74982346D01*
X90504442Y-74699581D01*
X90235085Y-74444433D01*
X90235073Y-74444423D01*
X89939724Y-74219904D01*
X89939707Y-74219892D01*
X89621817Y-74028626D01*
X89621804Y-74028619D01*
X89285098Y-73872842D01*
X89285093Y-73872840D01*
X89285088Y-73872838D01*
X89113704Y-73815092D01*
X88966625Y-73765535D01*
X105078198Y-73765535D01*
X105096925Y-74003498D01*
X105152648Y-74235603D01*
X105243995Y-74456135D01*
X105243997Y-74456139D01*
X105243998Y-74456140D01*
X105368719Y-74659667D01*
X105523744Y-74841178D01*
X105705255Y-74996203D01*
X105908782Y-75120924D01*
X105908784Y-75120924D01*
X105908786Y-75120926D01*
X105984458Y-75152270D01*
X106129314Y-75212272D01*
X106361421Y-75267996D01*
X106599387Y-75286724D01*
X106837353Y-75267996D01*
X107069460Y-75212272D01*
X107289992Y-75120924D01*
X107493519Y-74996203D01*
X107675030Y-74841178D01*
X107830055Y-74659667D01*
X107954776Y-74456140D01*
X108046124Y-74235608D01*
X108101848Y-74003501D01*
X108120576Y-73765535D01*
X108101848Y-73527569D01*
X108046124Y-73295462D01*
X107970234Y-73112249D01*
X107954778Y-73074934D01*
X107927235Y-73029988D01*
X107830055Y-72871403D01*
X107675030Y-72689892D01*
X107493519Y-72534867D01*
X107289992Y-72410146D01*
X107289991Y-72410145D01*
X107289987Y-72410143D01*
X107069455Y-72318796D01*
X106837349Y-72263073D01*
X106837350Y-72263073D01*
X106599387Y-72244346D01*
X106361423Y-72263073D01*
X106129318Y-72318796D01*
X105908786Y-72410143D01*
X105705254Y-72534867D01*
X105523744Y-72689892D01*
X105368719Y-72871402D01*
X105243995Y-73074934D01*
X105152648Y-73295466D01*
X105096925Y-73527571D01*
X105078198Y-73765535D01*
X88966625Y-73765535D01*
X88933492Y-73754371D01*
X88571148Y-73674613D01*
X88202309Y-73634500D01*
X88202308Y-73634500D01*
X87831292Y-73634500D01*
X87831290Y-73634500D01*
X87462451Y-73674613D01*
X87100107Y-73754371D01*
X86828318Y-73845948D01*
X86748512Y-73872838D01*
X86748509Y-73872839D01*
X86748501Y-73872842D01*
X86411795Y-74028619D01*
X86411782Y-74028626D01*
X86093892Y-74219892D01*
X86093875Y-74219904D01*
X85798526Y-74444423D01*
X85798514Y-74444433D01*
X85529157Y-74699581D01*
X85288973Y-74982346D01*
X85288965Y-74982356D01*
X85080761Y-75289433D01*
X85080760Y-75289436D01*
X84906974Y-75617230D01*
X84906965Y-75617248D01*
X84769641Y-75961908D01*
X84769640Y-75961910D01*
X84670387Y-76319389D01*
X84670382Y-76319410D01*
X84610362Y-76685512D01*
X84610361Y-76685529D01*
X84590275Y-77055997D01*
X84590275Y-77056002D01*
X45458298Y-77056002D01*
X45458298Y-76282562D01*
X45451890Y-76222951D01*
X45401595Y-76088103D01*
X45401594Y-76088102D01*
X45401592Y-76088098D01*
X45315346Y-75972889D01*
X45315343Y-75972886D01*
X45200134Y-75886640D01*
X45200127Y-75886636D01*
X45065281Y-75836342D01*
X45065282Y-75836342D01*
X45005682Y-75829935D01*
X45005680Y-75829934D01*
X45005672Y-75829934D01*
X45005663Y-75829934D01*
X42109928Y-75829934D01*
X42109922Y-75829935D01*
X42050315Y-75836342D01*
X41915470Y-75886636D01*
X41915463Y-75886640D01*
X41800254Y-75972886D01*
X41800251Y-75972889D01*
X41714005Y-76088098D01*
X41714001Y-76088105D01*
X41663707Y-76222951D01*
X41657300Y-76282550D01*
X41657300Y-76282557D01*
X41657299Y-76282569D01*
X41657299Y-79178304D01*
X40594990Y-79178304D01*
X40605542Y-79170405D01*
X40797771Y-78978176D01*
X40960687Y-78760547D01*
X41064326Y-78570746D01*
X41090969Y-78521953D01*
X41090969Y-78521951D01*
X41090972Y-78521947D01*
X41185975Y-78267235D01*
X41243761Y-78001594D01*
X41263155Y-77730434D01*
X41243761Y-77459274D01*
X41185975Y-77193633D01*
X41090972Y-76938921D01*
X41090970Y-76938918D01*
X41090969Y-76938914D01*
X40960690Y-76700326D01*
X40960689Y-76700325D01*
X40960687Y-76700321D01*
X40797771Y-76482692D01*
X40797766Y-76482687D01*
X40797761Y-76482681D01*
X40605552Y-76290472D01*
X40605546Y-76290467D01*
X40605542Y-76290463D01*
X40387913Y-76127547D01*
X40387908Y-76127544D01*
X40387907Y-76127543D01*
X40149318Y-75997264D01*
X40149319Y-75997264D01*
X40099720Y-75978764D01*
X39894601Y-75902259D01*
X39894594Y-75902257D01*
X39894593Y-75902257D01*
X39628967Y-75844474D01*
X39628960Y-75844473D01*
X39357801Y-75825079D01*
X39357799Y-75825079D01*
X39086639Y-75844473D01*
X39086632Y-75844474D01*
X38821006Y-75902257D01*
X38821002Y-75902258D01*
X38820999Y-75902259D01*
X38693643Y-75949760D01*
X38566280Y-75997264D01*
X38327692Y-76127543D01*
X38327691Y-76127544D01*
X38110059Y-76290462D01*
X38110047Y-76290472D01*
X37917838Y-76482681D01*
X37917828Y-76482693D01*
X37754910Y-76700325D01*
X37754909Y-76700326D01*
X37624630Y-76938914D01*
X37612809Y-76970608D01*
X37529625Y-77193633D01*
X37529624Y-77193636D01*
X37529623Y-77193640D01*
X37471840Y-77459266D01*
X37471839Y-77459273D01*
X37452445Y-77730432D01*
X37452445Y-77730435D01*
X22860000Y-77730435D01*
X22860000Y-73161623D01*
X37416300Y-73161623D01*
X37430960Y-73258878D01*
X37455404Y-73421051D01*
X37455405Y-73421053D01*
X37455406Y-73421059D01*
X37532738Y-73671762D01*
X37646567Y-73908132D01*
X37646568Y-73908133D01*
X37646570Y-73908136D01*
X37646572Y-73908140D01*
X37728717Y-74028624D01*
X37794367Y-74124915D01*
X37972814Y-74317237D01*
X37972818Y-74317240D01*
X37972819Y-74317241D01*
X38177943Y-74480822D01*
X38405157Y-74612004D01*
X38649384Y-74707856D01*
X38905170Y-74766238D01*
X38905176Y-74766238D01*
X38905179Y-74766239D01*
X39101300Y-74780936D01*
X39101306Y-74780936D01*
X39232300Y-74780936D01*
X39428420Y-74766239D01*
X39428422Y-74766238D01*
X39428430Y-74766238D01*
X39684216Y-74707856D01*
X39928443Y-74612004D01*
X40155657Y-74480822D01*
X40360781Y-74317241D01*
X40539233Y-74124915D01*
X40687028Y-73908140D01*
X40800863Y-73671759D01*
X40878196Y-73421051D01*
X40917300Y-73161618D01*
X40917300Y-72899254D01*
X40878196Y-72639821D01*
X40800863Y-72389113D01*
X40774451Y-72334268D01*
X40687032Y-72152739D01*
X40687031Y-72152738D01*
X40687030Y-72152737D01*
X40687028Y-72152732D01*
X40539233Y-71935957D01*
X40487557Y-71880263D01*
X40360785Y-71743634D01*
X40281216Y-71680180D01*
X40155657Y-71580050D01*
X39928443Y-71448868D01*
X39684216Y-71353016D01*
X39684211Y-71353014D01*
X39684202Y-71353012D01*
X39466618Y-71303350D01*
X39428430Y-71294634D01*
X39428429Y-71294633D01*
X39428425Y-71294633D01*
X39428420Y-71294632D01*
X39232300Y-71279936D01*
X39232294Y-71279936D01*
X39101306Y-71279936D01*
X39101300Y-71279936D01*
X38905179Y-71294632D01*
X38905174Y-71294633D01*
X38649397Y-71353012D01*
X38649378Y-71353018D01*
X38405156Y-71448868D01*
X38177943Y-71580050D01*
X37972814Y-71743634D01*
X37794367Y-71935956D01*
X37646568Y-72152738D01*
X37646567Y-72152739D01*
X37532738Y-72389109D01*
X37455406Y-72639812D01*
X37455405Y-72639817D01*
X37455404Y-72639821D01*
X37440653Y-72737683D01*
X37416300Y-72899248D01*
X37416300Y-73161623D01*
X22860000Y-73161623D01*
X22860000Y-70781363D01*
X26593787Y-70781363D01*
X26623413Y-71050613D01*
X26623415Y-71050624D01*
X26687208Y-71294634D01*
X26691928Y-71312688D01*
X26797870Y-71561990D01*
X26938979Y-71793205D01*
X26938986Y-71793215D01*
X27112253Y-72001419D01*
X27112259Y-72001424D01*
X27259590Y-72133432D01*
X27313998Y-72182182D01*
X27539910Y-72331644D01*
X27785176Y-72446620D01*
X27785183Y-72446622D01*
X27785185Y-72446623D01*
X28044557Y-72524657D01*
X28044564Y-72524658D01*
X28044569Y-72524660D01*
X28312561Y-72564100D01*
X28312566Y-72564100D01*
X28515636Y-72564100D01*
X28567133Y-72560330D01*
X28718156Y-72549277D01*
X28830758Y-72524193D01*
X28982546Y-72490382D01*
X28982548Y-72490381D01*
X28982553Y-72490380D01*
X29235558Y-72393614D01*
X29471777Y-72261041D01*
X29686177Y-72095488D01*
X29874186Y-71900481D01*
X30031799Y-71680179D01*
X30105787Y-71536269D01*
X30155649Y-71439290D01*
X30155651Y-71439284D01*
X30155656Y-71439275D01*
X30243118Y-71182905D01*
X30254737Y-71120000D01*
X111788811Y-71120000D01*
X111807538Y-71357963D01*
X111863261Y-71590068D01*
X111954608Y-71810600D01*
X111954610Y-71810604D01*
X111954611Y-71810605D01*
X112079332Y-72014132D01*
X112234357Y-72195643D01*
X112415868Y-72350668D01*
X112619395Y-72475389D01*
X112619397Y-72475389D01*
X112619399Y-72475391D01*
X112695071Y-72506735D01*
X112839927Y-72566737D01*
X113072034Y-72622461D01*
X113310000Y-72641189D01*
X113547966Y-72622461D01*
X113780073Y-72566737D01*
X114000605Y-72475389D01*
X114204132Y-72350668D01*
X114385643Y-72195643D01*
X114540668Y-72014132D01*
X114665389Y-71810605D01*
X114756737Y-71590073D01*
X114812461Y-71357966D01*
X114831189Y-71120000D01*
X114812461Y-70882034D01*
X114756737Y-70649927D01*
X114665389Y-70429395D01*
X114540668Y-70225868D01*
X114385643Y-70044357D01*
X114204132Y-69889332D01*
X114000605Y-69764611D01*
X114000604Y-69764610D01*
X114000600Y-69764608D01*
X113780068Y-69673261D01*
X113547962Y-69617538D01*
X113547963Y-69617538D01*
X113310000Y-69598811D01*
X113072036Y-69617538D01*
X112839931Y-69673261D01*
X112619399Y-69764608D01*
X112415867Y-69889332D01*
X112234357Y-70044357D01*
X112079332Y-70225867D01*
X111954608Y-70429399D01*
X111863261Y-70649931D01*
X111807538Y-70882036D01*
X111788811Y-71120000D01*
X30254737Y-71120000D01*
X30292319Y-70916533D01*
X30302212Y-70645835D01*
X30272586Y-70376582D01*
X30204072Y-70114512D01*
X30098130Y-69865210D01*
X29957018Y-69633990D01*
X29955845Y-69632581D01*
X29783746Y-69425780D01*
X29783740Y-69425775D01*
X29582002Y-69245018D01*
X29356092Y-69095557D01*
X29356090Y-69095556D01*
X29110824Y-68980580D01*
X29110819Y-68980578D01*
X29110814Y-68980576D01*
X28851442Y-68902542D01*
X28851428Y-68902539D01*
X28726907Y-68884214D01*
X28583439Y-68863100D01*
X28380369Y-68863100D01*
X28380364Y-68863100D01*
X28177844Y-68877923D01*
X28177831Y-68877925D01*
X27913453Y-68936817D01*
X27913446Y-68936820D01*
X27660439Y-69033587D01*
X27424226Y-69166157D01*
X27209822Y-69331712D01*
X27021822Y-69526709D01*
X27021816Y-69526716D01*
X26864202Y-69747019D01*
X26864199Y-69747024D01*
X26740350Y-69987909D01*
X26740343Y-69987927D01*
X26652884Y-70244285D01*
X26652881Y-70244299D01*
X26603681Y-70510668D01*
X26603680Y-70510675D01*
X26593787Y-70781363D01*
X22860000Y-70781363D01*
X22860000Y-66164000D01*
X22879685Y-66096961D01*
X22932489Y-66051206D01*
X22984000Y-66040000D01*
X149178217Y-66040000D01*
X149245256Y-66059685D01*
G37*
G04 #@! TD.AperFunction*
M02*
