M48
; DRILL file {KiCad 7.0.9} date Monday, April 22, 2024 at 09:03:52 PM
; FORMAT={-:-/ absolute / metric / decimal}
; #@! TF.CreationDate,2024-04-22T21:03:52-07:00
; #@! TF.GenerationSoftware,Kicad,Pcbnew,7.0.9
; #@! TF.FileFunction,Plated,1,4,PTH
FMAT,2
METRIC
; #@! TA.AperFunction,Plated,PTH,ComponentDrill
T1C1.000
; #@! TA.AperFunction,Plated,PTH,ComponentDrill
T2C1.020
; #@! TA.AperFunction,Plated,PTH,ComponentDrill
T3C1.100
; #@! TA.AperFunction,Plated,PTH,ViaDrill
T4C1.500
; #@! TA.AperFunction,Plated,PTH,ComponentDrill
T5C1.800
; #@! TA.AperFunction,Plated,PTH,ViaDrill
T6C2.000
; #@! TA.AperFunction,Plated,PTH,ComponentDrill
T7C3.454
%
G90
G05
T1
X36.735Y-114.22
X36.735Y-119.3
X106.599Y-73.766
X106.599Y-78.326
X113.31Y-71.12
X113.31Y-79.62
X117.275Y-108.06
X117.275Y-111.52
X117.275Y-114.98
X117.275Y-118.44
X147.373Y-103.861
X147.373Y-107.036
X147.373Y-110.211
X147.373Y-113.386
X147.373Y-116.561
X147.373Y-119.736
X148.31Y-71.12
X148.31Y-79.62
T2
X156.362Y-91.44
X156.487Y-71.095
X156.512Y-81.128
X159.362Y-91.44
X159.487Y-71.095
X159.512Y-81.128
T3
X29.464Y-96.723
X29.464Y-101.803
X29.464Y-106.883
X29.464Y-111.963
X270.65Y-88.138
X270.65Y-93.218
X270.65Y-98.297
X270.65Y-103.377
T4
X173.618Y-77.403
X175.87Y-95.047
X251.228Y-80.772
T5
X39.358Y-77.73
X39.358Y-81.93
X39.358Y-86.13
X43.558Y-77.73
X43.558Y-81.93
X43.558Y-86.13
T6
X109.22Y-88.9
X122.453Y-89.23
T7
X193.755Y-73.998
X249.0Y-90.0
T0
M30
