%TF.GenerationSoftware,KiCad,Pcbnew,7.0.9*%
%TF.CreationDate,2024-04-01T22:02:27-07:00*%
%TF.ProjectId,AVcarrierBoard,41566361-7272-4696-9572-426f6172642e,rev?*%
%TF.SameCoordinates,Original*%
%TF.FileFunction,Drillmap*%
%TF.FilePolarity,Positive*%
%FSLAX45Y45*%
G04 Gerber Fmt 4.5, Leading zero omitted, Abs format (unit mm)*
G04 Created by KiCad (PCBNEW 7.0.9) date 2024-04-01 22:02:27*
%MOMM*%
%LPD*%
G01*
G04 APERTURE LIST*
%ADD10C,0.200000*%
%ADD11C,0.100000*%
%ADD12C,0.110000*%
%ADD13C,0.150000*%
%ADD14C,0.180000*%
%ADD15C,0.345440*%
G04 APERTURE END LIST*
D10*
X2276500Y-6557000D02*
X27636500Y-6557000D01*
X27636500Y-12457000D01*
X2276500Y-12457000D01*
X2276500Y-6557000D01*
D11*
X10640889Y-7357503D02*
X10678989Y-7395603D01*
X10678989Y-7357503D02*
X10640889Y-7395603D01*
X10640889Y-7611503D02*
X10678989Y-7649603D01*
X10678989Y-7611503D02*
X10640889Y-7649603D01*
X11369100Y-7112000D02*
G75*
G03*
X11369100Y-7112000I-38100J0D01*
G01*
X11369100Y-7962000D02*
G75*
G03*
X11369100Y-7962000I-38100J0D01*
G01*
X14869100Y-7112000D02*
G75*
G03*
X14869100Y-7112000I-38100J0D01*
G01*
X14869100Y-7962000D02*
G75*
G03*
X14869100Y-7962000I-38100J0D01*
G01*
X3673500Y-10874000D02*
X3673500Y-10954000D01*
X3633500Y-10914000D02*
X3713500Y-10914000D01*
X3673500Y-11128000D02*
X3673500Y-11208000D01*
X3633500Y-11168000D02*
X3713500Y-11168000D01*
X11762856Y-10841356D02*
X11762856Y-10770644D01*
X11692144Y-10770644D01*
X11692144Y-10841356D01*
X11762856Y-10841356D01*
X11762856Y-11187356D02*
X11762856Y-11116644D01*
X11692144Y-11116644D01*
X11692144Y-11187356D01*
X11762856Y-11187356D01*
X11762856Y-11533356D02*
X11762856Y-11462644D01*
X11692144Y-11462644D01*
X11692144Y-11533356D01*
X11762856Y-11533356D01*
X11762856Y-11879356D02*
X11762856Y-11808644D01*
X11692144Y-11808644D01*
X11692144Y-11879356D01*
X11762856Y-11879356D01*
X14482376Y-8915196D02*
X14482376Y-8844484D01*
X14411664Y-8844484D01*
X14411664Y-8915196D01*
X14482376Y-8915196D01*
X14779376Y-8915196D02*
X14779376Y-8844484D01*
X14708664Y-8844484D01*
X14708664Y-8915196D01*
X14779376Y-8915196D01*
X14980716Y-10179616D02*
X14980716Y-10108904D01*
X14910004Y-10108904D01*
X14910004Y-10179616D01*
X14980716Y-10179616D01*
X14980716Y-10476616D02*
X14980716Y-10405904D01*
X14910004Y-10405904D01*
X14910004Y-10476616D01*
X14980716Y-10476616D01*
X15788436Y-9585756D02*
X15788436Y-9515044D01*
X15717724Y-9515044D01*
X15717724Y-9585756D01*
X15788436Y-9585756D01*
X16042436Y-9585756D02*
X16042436Y-9515044D01*
X15971724Y-9515044D01*
X15971724Y-9585756D01*
X16042436Y-9585756D01*
X20037856Y-11782856D02*
X20037856Y-11712144D01*
X19967144Y-11712144D01*
X19967144Y-11782856D01*
X20037856Y-11782856D01*
X20361856Y-11782856D02*
X20361856Y-11712144D01*
X20291144Y-11712144D01*
X20291144Y-11782856D01*
X20361856Y-11782856D01*
X20699856Y-11782856D02*
X20699856Y-11712144D01*
X20629144Y-11712144D01*
X20629144Y-11782856D01*
X20699856Y-11782856D01*
X21053856Y-11782856D02*
X21053856Y-11712144D01*
X20983144Y-11712144D01*
X20983144Y-11782856D01*
X21053856Y-11782856D01*
X21407856Y-11782856D02*
X21407856Y-11712144D01*
X21337144Y-11712144D01*
X21337144Y-11782856D01*
X21407856Y-11782856D01*
X21761856Y-11782856D02*
X21761856Y-11712144D01*
X21691144Y-11712144D01*
X21691144Y-11782856D01*
X21761856Y-11782856D01*
D12*
X2946400Y-9727320D02*
X3001400Y-9672320D01*
X2946400Y-9617320D01*
X2891400Y-9672320D01*
X2946400Y-9727320D01*
X2946400Y-10235320D02*
X3001400Y-10180320D01*
X2946400Y-10125320D01*
X2891400Y-10180320D01*
X2946400Y-10235320D01*
X2946400Y-10743320D02*
X3001400Y-10688320D01*
X2946400Y-10633320D01*
X2891400Y-10688320D01*
X2946400Y-10743320D01*
X2946400Y-11251320D02*
X3001400Y-11196320D01*
X2946400Y-11141320D01*
X2891400Y-11196320D01*
X2946400Y-11251320D01*
X27065000Y-8868750D02*
X27120000Y-8813750D01*
X27065000Y-8758750D01*
X27010000Y-8813750D01*
X27065000Y-8868750D01*
X27065000Y-9376750D02*
X27120000Y-9321750D01*
X27065000Y-9266750D01*
X27010000Y-9321750D01*
X27065000Y-9376750D01*
X27065000Y-9884750D02*
X27120000Y-9829750D01*
X27065000Y-9774750D01*
X27010000Y-9829750D01*
X27065000Y-9884750D01*
X27065000Y-10392750D02*
X27120000Y-10337750D01*
X27065000Y-10282750D01*
X27010000Y-10337750D01*
X27065000Y-10392750D01*
D13*
X14580800Y-7402760D02*
X14730800Y-7552760D01*
X14730800Y-7402760D02*
X14580800Y-7552760D01*
X14730800Y-7477760D02*
G75*
G03*
X14730800Y-7477760I-75000J0D01*
G01*
X17085240Y-10069760D02*
X17235240Y-10219760D01*
X17235240Y-10069760D02*
X17085240Y-10219760D01*
X17235240Y-10144760D02*
G75*
G03*
X17235240Y-10144760I-75000J0D01*
G01*
X24253120Y-8002200D02*
X24403120Y-8152200D01*
X24403120Y-8002200D02*
X24253120Y-8152200D01*
X24403120Y-8077200D02*
G75*
G03*
X24403120Y-8077200I-75000J0D01*
G01*
D14*
X3845780Y-7683043D02*
X4025780Y-7863043D01*
X4025780Y-7683043D02*
X3845780Y-7863043D01*
X3935780Y-7683043D02*
X3935780Y-7863043D01*
X3845780Y-7773043D02*
X4025780Y-7773043D01*
X3845780Y-8103043D02*
X4025780Y-8283043D01*
X4025780Y-8103043D02*
X3845780Y-8283043D01*
X3935780Y-8103043D02*
X3935780Y-8283043D01*
X3845780Y-8193043D02*
X4025780Y-8193043D01*
X3845780Y-8523043D02*
X4025780Y-8703043D01*
X4025780Y-8523043D02*
X3845780Y-8703043D01*
X3935780Y-8523043D02*
X3935780Y-8703043D01*
X3845780Y-8613043D02*
X4025780Y-8613043D01*
X4265780Y-7683043D02*
X4445780Y-7863043D01*
X4445780Y-7683043D02*
X4265780Y-7863043D01*
X4355780Y-7683043D02*
X4355780Y-7863043D01*
X4265780Y-7773043D02*
X4445780Y-7773043D01*
X4265780Y-8103043D02*
X4445780Y-8283043D01*
X4445780Y-8103043D02*
X4265780Y-8283043D01*
X4355780Y-8103043D02*
X4355780Y-8283043D01*
X4265780Y-8193043D02*
X4445780Y-8193043D01*
X4265780Y-8523043D02*
X4445780Y-8703043D01*
X4445780Y-8523043D02*
X4265780Y-8703043D01*
X4355780Y-8523043D02*
X4355780Y-8703043D01*
X4265780Y-8613043D02*
X4445780Y-8613043D01*
D10*
X10822000Y-8790000D02*
X11022000Y-8990000D01*
X11022000Y-8790000D02*
X10822000Y-8990000D01*
X10992711Y-8960711D02*
X10992711Y-8819289D01*
X10851289Y-8819289D01*
X10851289Y-8960711D01*
X10992711Y-8960711D01*
X12620320Y-9171000D02*
X12820320Y-9371000D01*
X12820320Y-9171000D02*
X12620320Y-9371000D01*
X12791031Y-9341711D02*
X12791031Y-9200289D01*
X12649609Y-9200289D01*
X12649609Y-9341711D01*
X12791031Y-9341711D01*
D15*
X16527780Y-6964680D02*
X16873220Y-7310120D01*
X16873220Y-6964680D02*
X16527780Y-7310120D01*
X16700500Y-7310120D02*
X16873220Y-7137400D01*
X16700500Y-6964680D01*
X16527780Y-7137400D01*
X16700500Y-7310120D01*
X22052280Y-8564880D02*
X22397720Y-8910320D01*
X22397720Y-8564880D02*
X22052280Y-8910320D01*
X22225000Y-8910320D02*
X22397720Y-8737600D01*
X22225000Y-8564880D01*
X22052280Y-8737600D01*
X22225000Y-8910320D01*
D10*
X2527277Y-12778484D02*
X2527277Y-12578484D01*
X2527277Y-12578484D02*
X2574896Y-12578484D01*
X2574896Y-12578484D02*
X2603467Y-12588008D01*
X2603467Y-12588008D02*
X2622515Y-12607055D01*
X2622515Y-12607055D02*
X2632039Y-12626103D01*
X2632039Y-12626103D02*
X2641563Y-12664198D01*
X2641563Y-12664198D02*
X2641563Y-12692769D01*
X2641563Y-12692769D02*
X2632039Y-12730865D01*
X2632039Y-12730865D02*
X2622515Y-12749912D01*
X2622515Y-12749912D02*
X2603467Y-12768960D01*
X2603467Y-12768960D02*
X2574896Y-12778484D01*
X2574896Y-12778484D02*
X2527277Y-12778484D01*
X2727277Y-12778484D02*
X2727277Y-12645150D01*
X2727277Y-12683246D02*
X2736801Y-12664198D01*
X2736801Y-12664198D02*
X2746324Y-12654674D01*
X2746324Y-12654674D02*
X2765372Y-12645150D01*
X2765372Y-12645150D02*
X2784420Y-12645150D01*
X2851086Y-12778484D02*
X2851086Y-12645150D01*
X2851086Y-12578484D02*
X2841562Y-12588008D01*
X2841562Y-12588008D02*
X2851086Y-12597531D01*
X2851086Y-12597531D02*
X2860610Y-12588008D01*
X2860610Y-12588008D02*
X2851086Y-12578484D01*
X2851086Y-12578484D02*
X2851086Y-12597531D01*
X2974896Y-12778484D02*
X2955848Y-12768960D01*
X2955848Y-12768960D02*
X2946324Y-12749912D01*
X2946324Y-12749912D02*
X2946324Y-12578484D01*
X3079658Y-12778484D02*
X3060610Y-12768960D01*
X3060610Y-12768960D02*
X3051086Y-12749912D01*
X3051086Y-12749912D02*
X3051086Y-12578484D01*
X3308229Y-12778484D02*
X3308229Y-12578484D01*
X3308229Y-12578484D02*
X3374896Y-12721341D01*
X3374896Y-12721341D02*
X3441562Y-12578484D01*
X3441562Y-12578484D02*
X3441562Y-12778484D01*
X3622515Y-12778484D02*
X3622515Y-12673722D01*
X3622515Y-12673722D02*
X3612991Y-12654674D01*
X3612991Y-12654674D02*
X3593943Y-12645150D01*
X3593943Y-12645150D02*
X3555848Y-12645150D01*
X3555848Y-12645150D02*
X3536801Y-12654674D01*
X3622515Y-12768960D02*
X3603467Y-12778484D01*
X3603467Y-12778484D02*
X3555848Y-12778484D01*
X3555848Y-12778484D02*
X3536801Y-12768960D01*
X3536801Y-12768960D02*
X3527277Y-12749912D01*
X3527277Y-12749912D02*
X3527277Y-12730865D01*
X3527277Y-12730865D02*
X3536801Y-12711817D01*
X3536801Y-12711817D02*
X3555848Y-12702293D01*
X3555848Y-12702293D02*
X3603467Y-12702293D01*
X3603467Y-12702293D02*
X3622515Y-12692769D01*
X3717753Y-12645150D02*
X3717753Y-12845150D01*
X3717753Y-12654674D02*
X3736801Y-12645150D01*
X3736801Y-12645150D02*
X3774896Y-12645150D01*
X3774896Y-12645150D02*
X3793943Y-12654674D01*
X3793943Y-12654674D02*
X3803467Y-12664198D01*
X3803467Y-12664198D02*
X3812991Y-12683246D01*
X3812991Y-12683246D02*
X3812991Y-12740388D01*
X3812991Y-12740388D02*
X3803467Y-12759436D01*
X3803467Y-12759436D02*
X3793943Y-12768960D01*
X3793943Y-12768960D02*
X3774896Y-12778484D01*
X3774896Y-12778484D02*
X3736801Y-12778484D01*
X3736801Y-12778484D02*
X3717753Y-12768960D01*
X3898705Y-12759436D02*
X3908229Y-12768960D01*
X3908229Y-12768960D02*
X3898705Y-12778484D01*
X3898705Y-12778484D02*
X3889182Y-12768960D01*
X3889182Y-12768960D02*
X3898705Y-12759436D01*
X3898705Y-12759436D02*
X3898705Y-12778484D01*
X3898705Y-12654674D02*
X3908229Y-12664198D01*
X3908229Y-12664198D02*
X3898705Y-12673722D01*
X3898705Y-12673722D02*
X3889182Y-12664198D01*
X3889182Y-12664198D02*
X3898705Y-12654674D01*
X3898705Y-12654674D02*
X3898705Y-12673722D01*
D11*
X2228400Y-13087950D02*
X2266500Y-13126050D01*
X2266500Y-13087950D02*
X2228400Y-13126050D01*
D10*
X2565372Y-12998484D02*
X2584420Y-12998484D01*
X2584420Y-12998484D02*
X2603467Y-13008008D01*
X2603467Y-13008008D02*
X2612991Y-13017531D01*
X2612991Y-13017531D02*
X2622515Y-13036579D01*
X2622515Y-13036579D02*
X2632039Y-13074674D01*
X2632039Y-13074674D02*
X2632039Y-13122293D01*
X2632039Y-13122293D02*
X2622515Y-13160388D01*
X2622515Y-13160388D02*
X2612991Y-13179436D01*
X2612991Y-13179436D02*
X2603467Y-13188960D01*
X2603467Y-13188960D02*
X2584420Y-13198484D01*
X2584420Y-13198484D02*
X2565372Y-13198484D01*
X2565372Y-13198484D02*
X2546324Y-13188960D01*
X2546324Y-13188960D02*
X2536801Y-13179436D01*
X2536801Y-13179436D02*
X2527277Y-13160388D01*
X2527277Y-13160388D02*
X2517753Y-13122293D01*
X2517753Y-13122293D02*
X2517753Y-13074674D01*
X2517753Y-13074674D02*
X2527277Y-13036579D01*
X2527277Y-13036579D02*
X2536801Y-13017531D01*
X2536801Y-13017531D02*
X2546324Y-13008008D01*
X2546324Y-13008008D02*
X2565372Y-12998484D01*
X2717753Y-13179436D02*
X2727277Y-13188960D01*
X2727277Y-13188960D02*
X2717753Y-13198484D01*
X2717753Y-13198484D02*
X2708229Y-13188960D01*
X2708229Y-13188960D02*
X2717753Y-13179436D01*
X2717753Y-13179436D02*
X2717753Y-13198484D01*
X2793944Y-12998484D02*
X2917753Y-12998484D01*
X2917753Y-12998484D02*
X2851086Y-13074674D01*
X2851086Y-13074674D02*
X2879658Y-13074674D01*
X2879658Y-13074674D02*
X2898705Y-13084198D01*
X2898705Y-13084198D02*
X2908229Y-13093722D01*
X2908229Y-13093722D02*
X2917753Y-13112769D01*
X2917753Y-13112769D02*
X2917753Y-13160388D01*
X2917753Y-13160388D02*
X2908229Y-13179436D01*
X2908229Y-13179436D02*
X2898705Y-13188960D01*
X2898705Y-13188960D02*
X2879658Y-13198484D01*
X2879658Y-13198484D02*
X2822515Y-13198484D01*
X2822515Y-13198484D02*
X2803467Y-13188960D01*
X2803467Y-13188960D02*
X2793944Y-13179436D01*
X3032039Y-13084198D02*
X3012991Y-13074674D01*
X3012991Y-13074674D02*
X3003467Y-13065150D01*
X3003467Y-13065150D02*
X2993943Y-13046103D01*
X2993943Y-13046103D02*
X2993943Y-13036579D01*
X2993943Y-13036579D02*
X3003467Y-13017531D01*
X3003467Y-13017531D02*
X3012991Y-13008008D01*
X3012991Y-13008008D02*
X3032039Y-12998484D01*
X3032039Y-12998484D02*
X3070134Y-12998484D01*
X3070134Y-12998484D02*
X3089182Y-13008008D01*
X3089182Y-13008008D02*
X3098705Y-13017531D01*
X3098705Y-13017531D02*
X3108229Y-13036579D01*
X3108229Y-13036579D02*
X3108229Y-13046103D01*
X3108229Y-13046103D02*
X3098705Y-13065150D01*
X3098705Y-13065150D02*
X3089182Y-13074674D01*
X3089182Y-13074674D02*
X3070134Y-13084198D01*
X3070134Y-13084198D02*
X3032039Y-13084198D01*
X3032039Y-13084198D02*
X3012991Y-13093722D01*
X3012991Y-13093722D02*
X3003467Y-13103246D01*
X3003467Y-13103246D02*
X2993943Y-13122293D01*
X2993943Y-13122293D02*
X2993943Y-13160388D01*
X2993943Y-13160388D02*
X3003467Y-13179436D01*
X3003467Y-13179436D02*
X3012991Y-13188960D01*
X3012991Y-13188960D02*
X3032039Y-13198484D01*
X3032039Y-13198484D02*
X3070134Y-13198484D01*
X3070134Y-13198484D02*
X3089182Y-13188960D01*
X3089182Y-13188960D02*
X3098705Y-13179436D01*
X3098705Y-13179436D02*
X3108229Y-13160388D01*
X3108229Y-13160388D02*
X3108229Y-13122293D01*
X3108229Y-13122293D02*
X3098705Y-13103246D01*
X3098705Y-13103246D02*
X3089182Y-13093722D01*
X3089182Y-13093722D02*
X3070134Y-13084198D01*
X3298705Y-13198484D02*
X3184420Y-13198484D01*
X3241562Y-13198484D02*
X3241562Y-12998484D01*
X3241562Y-12998484D02*
X3222515Y-13027055D01*
X3222515Y-13027055D02*
X3203467Y-13046103D01*
X3203467Y-13046103D02*
X3184420Y-13055627D01*
X3384420Y-13198484D02*
X3384420Y-13065150D01*
X3384420Y-13084198D02*
X3393943Y-13074674D01*
X3393943Y-13074674D02*
X3412991Y-13065150D01*
X3412991Y-13065150D02*
X3441563Y-13065150D01*
X3441563Y-13065150D02*
X3460610Y-13074674D01*
X3460610Y-13074674D02*
X3470134Y-13093722D01*
X3470134Y-13093722D02*
X3470134Y-13198484D01*
X3470134Y-13093722D02*
X3479658Y-13074674D01*
X3479658Y-13074674D02*
X3498705Y-13065150D01*
X3498705Y-13065150D02*
X3527277Y-13065150D01*
X3527277Y-13065150D02*
X3546324Y-13074674D01*
X3546324Y-13074674D02*
X3555848Y-13093722D01*
X3555848Y-13093722D02*
X3555848Y-13198484D01*
X3651086Y-13198484D02*
X3651086Y-13065150D01*
X3651086Y-13084198D02*
X3660610Y-13074674D01*
X3660610Y-13074674D02*
X3679658Y-13065150D01*
X3679658Y-13065150D02*
X3708229Y-13065150D01*
X3708229Y-13065150D02*
X3727277Y-13074674D01*
X3727277Y-13074674D02*
X3736801Y-13093722D01*
X3736801Y-13093722D02*
X3736801Y-13198484D01*
X3736801Y-13093722D02*
X3746324Y-13074674D01*
X3746324Y-13074674D02*
X3765372Y-13065150D01*
X3765372Y-13065150D02*
X3793943Y-13065150D01*
X3793943Y-13065150D02*
X3812991Y-13074674D01*
X3812991Y-13074674D02*
X3822515Y-13093722D01*
X3822515Y-13093722D02*
X3822515Y-13198484D01*
X4212991Y-12988960D02*
X4041563Y-13246103D01*
X4470134Y-12998484D02*
X4489182Y-12998484D01*
X4489182Y-12998484D02*
X4508229Y-13008008D01*
X4508229Y-13008008D02*
X4517753Y-13017531D01*
X4517753Y-13017531D02*
X4527277Y-13036579D01*
X4527277Y-13036579D02*
X4536801Y-13074674D01*
X4536801Y-13074674D02*
X4536801Y-13122293D01*
X4536801Y-13122293D02*
X4527277Y-13160388D01*
X4527277Y-13160388D02*
X4517753Y-13179436D01*
X4517753Y-13179436D02*
X4508229Y-13188960D01*
X4508229Y-13188960D02*
X4489182Y-13198484D01*
X4489182Y-13198484D02*
X4470134Y-13198484D01*
X4470134Y-13198484D02*
X4451087Y-13188960D01*
X4451087Y-13188960D02*
X4441563Y-13179436D01*
X4441563Y-13179436D02*
X4432039Y-13160388D01*
X4432039Y-13160388D02*
X4422515Y-13122293D01*
X4422515Y-13122293D02*
X4422515Y-13074674D01*
X4422515Y-13074674D02*
X4432039Y-13036579D01*
X4432039Y-13036579D02*
X4441563Y-13017531D01*
X4441563Y-13017531D02*
X4451087Y-13008008D01*
X4451087Y-13008008D02*
X4470134Y-12998484D01*
X4622515Y-13179436D02*
X4632039Y-13188960D01*
X4632039Y-13188960D02*
X4622515Y-13198484D01*
X4622515Y-13198484D02*
X4612991Y-13188960D01*
X4612991Y-13188960D02*
X4622515Y-13179436D01*
X4622515Y-13179436D02*
X4622515Y-13198484D01*
X4755848Y-12998484D02*
X4774896Y-12998484D01*
X4774896Y-12998484D02*
X4793944Y-13008008D01*
X4793944Y-13008008D02*
X4803468Y-13017531D01*
X4803468Y-13017531D02*
X4812991Y-13036579D01*
X4812991Y-13036579D02*
X4822515Y-13074674D01*
X4822515Y-13074674D02*
X4822515Y-13122293D01*
X4822515Y-13122293D02*
X4812991Y-13160388D01*
X4812991Y-13160388D02*
X4803468Y-13179436D01*
X4803468Y-13179436D02*
X4793944Y-13188960D01*
X4793944Y-13188960D02*
X4774896Y-13198484D01*
X4774896Y-13198484D02*
X4755848Y-13198484D01*
X4755848Y-13198484D02*
X4736801Y-13188960D01*
X4736801Y-13188960D02*
X4727277Y-13179436D01*
X4727277Y-13179436D02*
X4717753Y-13160388D01*
X4717753Y-13160388D02*
X4708229Y-13122293D01*
X4708229Y-13122293D02*
X4708229Y-13074674D01*
X4708229Y-13074674D02*
X4717753Y-13036579D01*
X4717753Y-13036579D02*
X4727277Y-13017531D01*
X4727277Y-13017531D02*
X4736801Y-13008008D01*
X4736801Y-13008008D02*
X4755848Y-12998484D01*
X5012991Y-13198484D02*
X4898706Y-13198484D01*
X4955848Y-13198484D02*
X4955848Y-12998484D01*
X4955848Y-12998484D02*
X4936801Y-13027055D01*
X4936801Y-13027055D02*
X4917753Y-13046103D01*
X4917753Y-13046103D02*
X4898706Y-13055627D01*
X5193944Y-12998484D02*
X5098706Y-12998484D01*
X5098706Y-12998484D02*
X5089182Y-13093722D01*
X5089182Y-13093722D02*
X5098706Y-13084198D01*
X5098706Y-13084198D02*
X5117753Y-13074674D01*
X5117753Y-13074674D02*
X5165372Y-13074674D01*
X5165372Y-13074674D02*
X5184420Y-13084198D01*
X5184420Y-13084198D02*
X5193944Y-13093722D01*
X5193944Y-13093722D02*
X5203468Y-13112769D01*
X5203468Y-13112769D02*
X5203468Y-13160388D01*
X5203468Y-13160388D02*
X5193944Y-13179436D01*
X5193944Y-13179436D02*
X5184420Y-13188960D01*
X5184420Y-13188960D02*
X5165372Y-13198484D01*
X5165372Y-13198484D02*
X5117753Y-13198484D01*
X5117753Y-13198484D02*
X5098706Y-13188960D01*
X5098706Y-13188960D02*
X5089182Y-13179436D01*
X5327277Y-12998484D02*
X5346325Y-12998484D01*
X5346325Y-12998484D02*
X5365372Y-13008008D01*
X5365372Y-13008008D02*
X5374896Y-13017531D01*
X5374896Y-13017531D02*
X5384420Y-13036579D01*
X5384420Y-13036579D02*
X5393944Y-13074674D01*
X5393944Y-13074674D02*
X5393944Y-13122293D01*
X5393944Y-13122293D02*
X5384420Y-13160388D01*
X5384420Y-13160388D02*
X5374896Y-13179436D01*
X5374896Y-13179436D02*
X5365372Y-13188960D01*
X5365372Y-13188960D02*
X5346325Y-13198484D01*
X5346325Y-13198484D02*
X5327277Y-13198484D01*
X5327277Y-13198484D02*
X5308229Y-13188960D01*
X5308229Y-13188960D02*
X5298706Y-13179436D01*
X5298706Y-13179436D02*
X5289182Y-13160388D01*
X5289182Y-13160388D02*
X5279658Y-13122293D01*
X5279658Y-13122293D02*
X5279658Y-13074674D01*
X5279658Y-13074674D02*
X5289182Y-13036579D01*
X5289182Y-13036579D02*
X5298706Y-13017531D01*
X5298706Y-13017531D02*
X5308229Y-13008008D01*
X5308229Y-13008008D02*
X5327277Y-12998484D01*
X5470134Y-12998484D02*
X5470134Y-13036579D01*
X5546325Y-12998484D02*
X5546325Y-13036579D01*
X5841563Y-13274674D02*
X5832039Y-13265150D01*
X5832039Y-13265150D02*
X5812991Y-13236579D01*
X5812991Y-13236579D02*
X5803468Y-13217531D01*
X5803468Y-13217531D02*
X5793944Y-13188960D01*
X5793944Y-13188960D02*
X5784420Y-13141341D01*
X5784420Y-13141341D02*
X5784420Y-13103246D01*
X5784420Y-13103246D02*
X5793944Y-13055627D01*
X5793944Y-13055627D02*
X5803468Y-13027055D01*
X5803468Y-13027055D02*
X5812991Y-13008008D01*
X5812991Y-13008008D02*
X5832039Y-12979436D01*
X5832039Y-12979436D02*
X5841563Y-12969912D01*
X5908229Y-13017531D02*
X5917753Y-13008008D01*
X5917753Y-13008008D02*
X5936801Y-12998484D01*
X5936801Y-12998484D02*
X5984420Y-12998484D01*
X5984420Y-12998484D02*
X6003468Y-13008008D01*
X6003468Y-13008008D02*
X6012991Y-13017531D01*
X6012991Y-13017531D02*
X6022515Y-13036579D01*
X6022515Y-13036579D02*
X6022515Y-13055627D01*
X6022515Y-13055627D02*
X6012991Y-13084198D01*
X6012991Y-13084198D02*
X5898706Y-13198484D01*
X5898706Y-13198484D02*
X6022515Y-13198484D01*
X6260610Y-13198484D02*
X6260610Y-12998484D01*
X6346325Y-13198484D02*
X6346325Y-13093722D01*
X6346325Y-13093722D02*
X6336801Y-13074674D01*
X6336801Y-13074674D02*
X6317753Y-13065150D01*
X6317753Y-13065150D02*
X6289182Y-13065150D01*
X6289182Y-13065150D02*
X6270134Y-13074674D01*
X6270134Y-13074674D02*
X6260610Y-13084198D01*
X6470134Y-13198484D02*
X6451087Y-13188960D01*
X6451087Y-13188960D02*
X6441563Y-13179436D01*
X6441563Y-13179436D02*
X6432039Y-13160388D01*
X6432039Y-13160388D02*
X6432039Y-13103246D01*
X6432039Y-13103246D02*
X6441563Y-13084198D01*
X6441563Y-13084198D02*
X6451087Y-13074674D01*
X6451087Y-13074674D02*
X6470134Y-13065150D01*
X6470134Y-13065150D02*
X6498706Y-13065150D01*
X6498706Y-13065150D02*
X6517753Y-13074674D01*
X6517753Y-13074674D02*
X6527277Y-13084198D01*
X6527277Y-13084198D02*
X6536801Y-13103246D01*
X6536801Y-13103246D02*
X6536801Y-13160388D01*
X6536801Y-13160388D02*
X6527277Y-13179436D01*
X6527277Y-13179436D02*
X6517753Y-13188960D01*
X6517753Y-13188960D02*
X6498706Y-13198484D01*
X6498706Y-13198484D02*
X6470134Y-13198484D01*
X6651087Y-13198484D02*
X6632039Y-13188960D01*
X6632039Y-13188960D02*
X6622515Y-13169912D01*
X6622515Y-13169912D02*
X6622515Y-12998484D01*
X6803468Y-13188960D02*
X6784420Y-13198484D01*
X6784420Y-13198484D02*
X6746325Y-13198484D01*
X6746325Y-13198484D02*
X6727277Y-13188960D01*
X6727277Y-13188960D02*
X6717753Y-13169912D01*
X6717753Y-13169912D02*
X6717753Y-13093722D01*
X6717753Y-13093722D02*
X6727277Y-13074674D01*
X6727277Y-13074674D02*
X6746325Y-13065150D01*
X6746325Y-13065150D02*
X6784420Y-13065150D01*
X6784420Y-13065150D02*
X6803468Y-13074674D01*
X6803468Y-13074674D02*
X6812991Y-13093722D01*
X6812991Y-13093722D02*
X6812991Y-13112769D01*
X6812991Y-13112769D02*
X6717753Y-13131817D01*
X6889182Y-13188960D02*
X6908230Y-13198484D01*
X6908230Y-13198484D02*
X6946325Y-13198484D01*
X6946325Y-13198484D02*
X6965372Y-13188960D01*
X6965372Y-13188960D02*
X6974896Y-13169912D01*
X6974896Y-13169912D02*
X6974896Y-13160388D01*
X6974896Y-13160388D02*
X6965372Y-13141341D01*
X6965372Y-13141341D02*
X6946325Y-13131817D01*
X6946325Y-13131817D02*
X6917753Y-13131817D01*
X6917753Y-13131817D02*
X6898706Y-13122293D01*
X6898706Y-13122293D02*
X6889182Y-13103246D01*
X6889182Y-13103246D02*
X6889182Y-13093722D01*
X6889182Y-13093722D02*
X6898706Y-13074674D01*
X6898706Y-13074674D02*
X6917753Y-13065150D01*
X6917753Y-13065150D02*
X6946325Y-13065150D01*
X6946325Y-13065150D02*
X6965372Y-13074674D01*
X7041563Y-13274674D02*
X7051087Y-13265150D01*
X7051087Y-13265150D02*
X7070134Y-13236579D01*
X7070134Y-13236579D02*
X7079658Y-13217531D01*
X7079658Y-13217531D02*
X7089182Y-13188960D01*
X7089182Y-13188960D02*
X7098706Y-13141341D01*
X7098706Y-13141341D02*
X7098706Y-13103246D01*
X7098706Y-13103246D02*
X7089182Y-13055627D01*
X7089182Y-13055627D02*
X7079658Y-13027055D01*
X7079658Y-13027055D02*
X7070134Y-13008008D01*
X7070134Y-13008008D02*
X7051087Y-12979436D01*
X7051087Y-12979436D02*
X7041563Y-12969912D01*
D11*
X2266500Y-13371000D02*
G75*
G03*
X2266500Y-13371000I-38100J0D01*
G01*
D10*
X2565372Y-13262484D02*
X2584420Y-13262484D01*
X2584420Y-13262484D02*
X2603467Y-13272008D01*
X2603467Y-13272008D02*
X2612991Y-13281531D01*
X2612991Y-13281531D02*
X2622515Y-13300579D01*
X2622515Y-13300579D02*
X2632039Y-13338674D01*
X2632039Y-13338674D02*
X2632039Y-13386293D01*
X2632039Y-13386293D02*
X2622515Y-13424388D01*
X2622515Y-13424388D02*
X2612991Y-13443436D01*
X2612991Y-13443436D02*
X2603467Y-13452960D01*
X2603467Y-13452960D02*
X2584420Y-13462484D01*
X2584420Y-13462484D02*
X2565372Y-13462484D01*
X2565372Y-13462484D02*
X2546324Y-13452960D01*
X2546324Y-13452960D02*
X2536801Y-13443436D01*
X2536801Y-13443436D02*
X2527277Y-13424388D01*
X2527277Y-13424388D02*
X2517753Y-13386293D01*
X2517753Y-13386293D02*
X2517753Y-13338674D01*
X2517753Y-13338674D02*
X2527277Y-13300579D01*
X2527277Y-13300579D02*
X2536801Y-13281531D01*
X2536801Y-13281531D02*
X2546324Y-13272008D01*
X2546324Y-13272008D02*
X2565372Y-13262484D01*
X2717753Y-13443436D02*
X2727277Y-13452960D01*
X2727277Y-13452960D02*
X2717753Y-13462484D01*
X2717753Y-13462484D02*
X2708229Y-13452960D01*
X2708229Y-13452960D02*
X2717753Y-13443436D01*
X2717753Y-13443436D02*
X2717753Y-13462484D01*
X2793944Y-13262484D02*
X2927277Y-13262484D01*
X2927277Y-13262484D02*
X2841562Y-13462484D01*
X3089182Y-13262484D02*
X3051086Y-13262484D01*
X3051086Y-13262484D02*
X3032039Y-13272008D01*
X3032039Y-13272008D02*
X3022515Y-13281531D01*
X3022515Y-13281531D02*
X3003467Y-13310103D01*
X3003467Y-13310103D02*
X2993943Y-13348198D01*
X2993943Y-13348198D02*
X2993943Y-13424388D01*
X2993943Y-13424388D02*
X3003467Y-13443436D01*
X3003467Y-13443436D02*
X3012991Y-13452960D01*
X3012991Y-13452960D02*
X3032039Y-13462484D01*
X3032039Y-13462484D02*
X3070134Y-13462484D01*
X3070134Y-13462484D02*
X3089182Y-13452960D01*
X3089182Y-13452960D02*
X3098705Y-13443436D01*
X3098705Y-13443436D02*
X3108229Y-13424388D01*
X3108229Y-13424388D02*
X3108229Y-13376769D01*
X3108229Y-13376769D02*
X3098705Y-13357722D01*
X3098705Y-13357722D02*
X3089182Y-13348198D01*
X3089182Y-13348198D02*
X3070134Y-13338674D01*
X3070134Y-13338674D02*
X3032039Y-13338674D01*
X3032039Y-13338674D02*
X3012991Y-13348198D01*
X3012991Y-13348198D02*
X3003467Y-13357722D01*
X3003467Y-13357722D02*
X2993943Y-13376769D01*
X3184420Y-13281531D02*
X3193943Y-13272008D01*
X3193943Y-13272008D02*
X3212991Y-13262484D01*
X3212991Y-13262484D02*
X3260610Y-13262484D01*
X3260610Y-13262484D02*
X3279658Y-13272008D01*
X3279658Y-13272008D02*
X3289182Y-13281531D01*
X3289182Y-13281531D02*
X3298705Y-13300579D01*
X3298705Y-13300579D02*
X3298705Y-13319627D01*
X3298705Y-13319627D02*
X3289182Y-13348198D01*
X3289182Y-13348198D02*
X3174896Y-13462484D01*
X3174896Y-13462484D02*
X3298705Y-13462484D01*
X3384420Y-13462484D02*
X3384420Y-13329150D01*
X3384420Y-13348198D02*
X3393943Y-13338674D01*
X3393943Y-13338674D02*
X3412991Y-13329150D01*
X3412991Y-13329150D02*
X3441563Y-13329150D01*
X3441563Y-13329150D02*
X3460610Y-13338674D01*
X3460610Y-13338674D02*
X3470134Y-13357722D01*
X3470134Y-13357722D02*
X3470134Y-13462484D01*
X3470134Y-13357722D02*
X3479658Y-13338674D01*
X3479658Y-13338674D02*
X3498705Y-13329150D01*
X3498705Y-13329150D02*
X3527277Y-13329150D01*
X3527277Y-13329150D02*
X3546324Y-13338674D01*
X3546324Y-13338674D02*
X3555848Y-13357722D01*
X3555848Y-13357722D02*
X3555848Y-13462484D01*
X3651086Y-13462484D02*
X3651086Y-13329150D01*
X3651086Y-13348198D02*
X3660610Y-13338674D01*
X3660610Y-13338674D02*
X3679658Y-13329150D01*
X3679658Y-13329150D02*
X3708229Y-13329150D01*
X3708229Y-13329150D02*
X3727277Y-13338674D01*
X3727277Y-13338674D02*
X3736801Y-13357722D01*
X3736801Y-13357722D02*
X3736801Y-13462484D01*
X3736801Y-13357722D02*
X3746324Y-13338674D01*
X3746324Y-13338674D02*
X3765372Y-13329150D01*
X3765372Y-13329150D02*
X3793943Y-13329150D01*
X3793943Y-13329150D02*
X3812991Y-13338674D01*
X3812991Y-13338674D02*
X3822515Y-13357722D01*
X3822515Y-13357722D02*
X3822515Y-13462484D01*
X4212991Y-13252960D02*
X4041563Y-13510103D01*
X4470134Y-13262484D02*
X4489182Y-13262484D01*
X4489182Y-13262484D02*
X4508229Y-13272008D01*
X4508229Y-13272008D02*
X4517753Y-13281531D01*
X4517753Y-13281531D02*
X4527277Y-13300579D01*
X4527277Y-13300579D02*
X4536801Y-13338674D01*
X4536801Y-13338674D02*
X4536801Y-13386293D01*
X4536801Y-13386293D02*
X4527277Y-13424388D01*
X4527277Y-13424388D02*
X4517753Y-13443436D01*
X4517753Y-13443436D02*
X4508229Y-13452960D01*
X4508229Y-13452960D02*
X4489182Y-13462484D01*
X4489182Y-13462484D02*
X4470134Y-13462484D01*
X4470134Y-13462484D02*
X4451087Y-13452960D01*
X4451087Y-13452960D02*
X4441563Y-13443436D01*
X4441563Y-13443436D02*
X4432039Y-13424388D01*
X4432039Y-13424388D02*
X4422515Y-13386293D01*
X4422515Y-13386293D02*
X4422515Y-13338674D01*
X4422515Y-13338674D02*
X4432039Y-13300579D01*
X4432039Y-13300579D02*
X4441563Y-13281531D01*
X4441563Y-13281531D02*
X4451087Y-13272008D01*
X4451087Y-13272008D02*
X4470134Y-13262484D01*
X4622515Y-13443436D02*
X4632039Y-13452960D01*
X4632039Y-13452960D02*
X4622515Y-13462484D01*
X4622515Y-13462484D02*
X4612991Y-13452960D01*
X4612991Y-13452960D02*
X4622515Y-13443436D01*
X4622515Y-13443436D02*
X4622515Y-13462484D01*
X4755848Y-13262484D02*
X4774896Y-13262484D01*
X4774896Y-13262484D02*
X4793944Y-13272008D01*
X4793944Y-13272008D02*
X4803468Y-13281531D01*
X4803468Y-13281531D02*
X4812991Y-13300579D01*
X4812991Y-13300579D02*
X4822515Y-13338674D01*
X4822515Y-13338674D02*
X4822515Y-13386293D01*
X4822515Y-13386293D02*
X4812991Y-13424388D01*
X4812991Y-13424388D02*
X4803468Y-13443436D01*
X4803468Y-13443436D02*
X4793944Y-13452960D01*
X4793944Y-13452960D02*
X4774896Y-13462484D01*
X4774896Y-13462484D02*
X4755848Y-13462484D01*
X4755848Y-13462484D02*
X4736801Y-13452960D01*
X4736801Y-13452960D02*
X4727277Y-13443436D01*
X4727277Y-13443436D02*
X4717753Y-13424388D01*
X4717753Y-13424388D02*
X4708229Y-13386293D01*
X4708229Y-13386293D02*
X4708229Y-13338674D01*
X4708229Y-13338674D02*
X4717753Y-13300579D01*
X4717753Y-13300579D02*
X4727277Y-13281531D01*
X4727277Y-13281531D02*
X4736801Y-13272008D01*
X4736801Y-13272008D02*
X4755848Y-13262484D01*
X4889182Y-13262484D02*
X5012991Y-13262484D01*
X5012991Y-13262484D02*
X4946325Y-13338674D01*
X4946325Y-13338674D02*
X4974896Y-13338674D01*
X4974896Y-13338674D02*
X4993944Y-13348198D01*
X4993944Y-13348198D02*
X5003468Y-13357722D01*
X5003468Y-13357722D02*
X5012991Y-13376769D01*
X5012991Y-13376769D02*
X5012991Y-13424388D01*
X5012991Y-13424388D02*
X5003468Y-13443436D01*
X5003468Y-13443436D02*
X4993944Y-13452960D01*
X4993944Y-13452960D02*
X4974896Y-13462484D01*
X4974896Y-13462484D02*
X4917753Y-13462484D01*
X4917753Y-13462484D02*
X4898706Y-13452960D01*
X4898706Y-13452960D02*
X4889182Y-13443436D01*
X5136801Y-13262484D02*
X5155849Y-13262484D01*
X5155849Y-13262484D02*
X5174896Y-13272008D01*
X5174896Y-13272008D02*
X5184420Y-13281531D01*
X5184420Y-13281531D02*
X5193944Y-13300579D01*
X5193944Y-13300579D02*
X5203468Y-13338674D01*
X5203468Y-13338674D02*
X5203468Y-13386293D01*
X5203468Y-13386293D02*
X5193944Y-13424388D01*
X5193944Y-13424388D02*
X5184420Y-13443436D01*
X5184420Y-13443436D02*
X5174896Y-13452960D01*
X5174896Y-13452960D02*
X5155849Y-13462484D01*
X5155849Y-13462484D02*
X5136801Y-13462484D01*
X5136801Y-13462484D02*
X5117753Y-13452960D01*
X5117753Y-13452960D02*
X5108229Y-13443436D01*
X5108229Y-13443436D02*
X5098706Y-13424388D01*
X5098706Y-13424388D02*
X5089182Y-13386293D01*
X5089182Y-13386293D02*
X5089182Y-13338674D01*
X5089182Y-13338674D02*
X5098706Y-13300579D01*
X5098706Y-13300579D02*
X5108229Y-13281531D01*
X5108229Y-13281531D02*
X5117753Y-13272008D01*
X5117753Y-13272008D02*
X5136801Y-13262484D01*
X5327277Y-13262484D02*
X5346325Y-13262484D01*
X5346325Y-13262484D02*
X5365372Y-13272008D01*
X5365372Y-13272008D02*
X5374896Y-13281531D01*
X5374896Y-13281531D02*
X5384420Y-13300579D01*
X5384420Y-13300579D02*
X5393944Y-13338674D01*
X5393944Y-13338674D02*
X5393944Y-13386293D01*
X5393944Y-13386293D02*
X5384420Y-13424388D01*
X5384420Y-13424388D02*
X5374896Y-13443436D01*
X5374896Y-13443436D02*
X5365372Y-13452960D01*
X5365372Y-13452960D02*
X5346325Y-13462484D01*
X5346325Y-13462484D02*
X5327277Y-13462484D01*
X5327277Y-13462484D02*
X5308229Y-13452960D01*
X5308229Y-13452960D02*
X5298706Y-13443436D01*
X5298706Y-13443436D02*
X5289182Y-13424388D01*
X5289182Y-13424388D02*
X5279658Y-13386293D01*
X5279658Y-13386293D02*
X5279658Y-13338674D01*
X5279658Y-13338674D02*
X5289182Y-13300579D01*
X5289182Y-13300579D02*
X5298706Y-13281531D01*
X5298706Y-13281531D02*
X5308229Y-13272008D01*
X5308229Y-13272008D02*
X5327277Y-13262484D01*
X5470134Y-13262484D02*
X5470134Y-13300579D01*
X5546325Y-13262484D02*
X5546325Y-13300579D01*
X5841563Y-13538674D02*
X5832039Y-13529150D01*
X5832039Y-13529150D02*
X5812991Y-13500579D01*
X5812991Y-13500579D02*
X5803468Y-13481531D01*
X5803468Y-13481531D02*
X5793944Y-13452960D01*
X5793944Y-13452960D02*
X5784420Y-13405341D01*
X5784420Y-13405341D02*
X5784420Y-13367246D01*
X5784420Y-13367246D02*
X5793944Y-13319627D01*
X5793944Y-13319627D02*
X5803468Y-13291055D01*
X5803468Y-13291055D02*
X5812991Y-13272008D01*
X5812991Y-13272008D02*
X5832039Y-13243436D01*
X5832039Y-13243436D02*
X5841563Y-13233912D01*
X6003468Y-13329150D02*
X6003468Y-13462484D01*
X5955848Y-13252960D02*
X5908229Y-13395817D01*
X5908229Y-13395817D02*
X6032039Y-13395817D01*
X6260610Y-13462484D02*
X6260610Y-13262484D01*
X6346325Y-13462484D02*
X6346325Y-13357722D01*
X6346325Y-13357722D02*
X6336801Y-13338674D01*
X6336801Y-13338674D02*
X6317753Y-13329150D01*
X6317753Y-13329150D02*
X6289182Y-13329150D01*
X6289182Y-13329150D02*
X6270134Y-13338674D01*
X6270134Y-13338674D02*
X6260610Y-13348198D01*
X6470134Y-13462484D02*
X6451087Y-13452960D01*
X6451087Y-13452960D02*
X6441563Y-13443436D01*
X6441563Y-13443436D02*
X6432039Y-13424388D01*
X6432039Y-13424388D02*
X6432039Y-13367246D01*
X6432039Y-13367246D02*
X6441563Y-13348198D01*
X6441563Y-13348198D02*
X6451087Y-13338674D01*
X6451087Y-13338674D02*
X6470134Y-13329150D01*
X6470134Y-13329150D02*
X6498706Y-13329150D01*
X6498706Y-13329150D02*
X6517753Y-13338674D01*
X6517753Y-13338674D02*
X6527277Y-13348198D01*
X6527277Y-13348198D02*
X6536801Y-13367246D01*
X6536801Y-13367246D02*
X6536801Y-13424388D01*
X6536801Y-13424388D02*
X6527277Y-13443436D01*
X6527277Y-13443436D02*
X6517753Y-13452960D01*
X6517753Y-13452960D02*
X6498706Y-13462484D01*
X6498706Y-13462484D02*
X6470134Y-13462484D01*
X6651087Y-13462484D02*
X6632039Y-13452960D01*
X6632039Y-13452960D02*
X6622515Y-13433912D01*
X6622515Y-13433912D02*
X6622515Y-13262484D01*
X6803468Y-13452960D02*
X6784420Y-13462484D01*
X6784420Y-13462484D02*
X6746325Y-13462484D01*
X6746325Y-13462484D02*
X6727277Y-13452960D01*
X6727277Y-13452960D02*
X6717753Y-13433912D01*
X6717753Y-13433912D02*
X6717753Y-13357722D01*
X6717753Y-13357722D02*
X6727277Y-13338674D01*
X6727277Y-13338674D02*
X6746325Y-13329150D01*
X6746325Y-13329150D02*
X6784420Y-13329150D01*
X6784420Y-13329150D02*
X6803468Y-13338674D01*
X6803468Y-13338674D02*
X6812991Y-13357722D01*
X6812991Y-13357722D02*
X6812991Y-13376769D01*
X6812991Y-13376769D02*
X6717753Y-13395817D01*
X6889182Y-13452960D02*
X6908230Y-13462484D01*
X6908230Y-13462484D02*
X6946325Y-13462484D01*
X6946325Y-13462484D02*
X6965372Y-13452960D01*
X6965372Y-13452960D02*
X6974896Y-13433912D01*
X6974896Y-13433912D02*
X6974896Y-13424388D01*
X6974896Y-13424388D02*
X6965372Y-13405341D01*
X6965372Y-13405341D02*
X6946325Y-13395817D01*
X6946325Y-13395817D02*
X6917753Y-13395817D01*
X6917753Y-13395817D02*
X6898706Y-13386293D01*
X6898706Y-13386293D02*
X6889182Y-13367246D01*
X6889182Y-13367246D02*
X6889182Y-13357722D01*
X6889182Y-13357722D02*
X6898706Y-13338674D01*
X6898706Y-13338674D02*
X6917753Y-13329150D01*
X6917753Y-13329150D02*
X6946325Y-13329150D01*
X6946325Y-13329150D02*
X6965372Y-13338674D01*
X7041563Y-13538674D02*
X7051087Y-13529150D01*
X7051087Y-13529150D02*
X7070134Y-13500579D01*
X7070134Y-13500579D02*
X7079658Y-13481531D01*
X7079658Y-13481531D02*
X7089182Y-13452960D01*
X7089182Y-13452960D02*
X7098706Y-13405341D01*
X7098706Y-13405341D02*
X7098706Y-13367246D01*
X7098706Y-13367246D02*
X7089182Y-13319627D01*
X7089182Y-13319627D02*
X7079658Y-13291055D01*
X7079658Y-13291055D02*
X7070134Y-13272008D01*
X7070134Y-13272008D02*
X7051087Y-13243436D01*
X7051087Y-13243436D02*
X7041563Y-13233912D01*
D11*
X2226500Y-13595000D02*
X2226500Y-13675000D01*
X2186500Y-13635000D02*
X2266500Y-13635000D01*
D10*
X2565372Y-13526484D02*
X2584420Y-13526484D01*
X2584420Y-13526484D02*
X2603467Y-13536008D01*
X2603467Y-13536008D02*
X2612991Y-13545531D01*
X2612991Y-13545531D02*
X2622515Y-13564579D01*
X2622515Y-13564579D02*
X2632039Y-13602674D01*
X2632039Y-13602674D02*
X2632039Y-13650293D01*
X2632039Y-13650293D02*
X2622515Y-13688388D01*
X2622515Y-13688388D02*
X2612991Y-13707436D01*
X2612991Y-13707436D02*
X2603467Y-13716960D01*
X2603467Y-13716960D02*
X2584420Y-13726484D01*
X2584420Y-13726484D02*
X2565372Y-13726484D01*
X2565372Y-13726484D02*
X2546324Y-13716960D01*
X2546324Y-13716960D02*
X2536801Y-13707436D01*
X2536801Y-13707436D02*
X2527277Y-13688388D01*
X2527277Y-13688388D02*
X2517753Y-13650293D01*
X2517753Y-13650293D02*
X2517753Y-13602674D01*
X2517753Y-13602674D02*
X2527277Y-13564579D01*
X2527277Y-13564579D02*
X2536801Y-13545531D01*
X2536801Y-13545531D02*
X2546324Y-13536008D01*
X2546324Y-13536008D02*
X2565372Y-13526484D01*
X2717753Y-13707436D02*
X2727277Y-13716960D01*
X2727277Y-13716960D02*
X2717753Y-13726484D01*
X2717753Y-13726484D02*
X2708229Y-13716960D01*
X2708229Y-13716960D02*
X2717753Y-13707436D01*
X2717753Y-13707436D02*
X2717753Y-13726484D01*
X2841562Y-13612198D02*
X2822515Y-13602674D01*
X2822515Y-13602674D02*
X2812991Y-13593150D01*
X2812991Y-13593150D02*
X2803467Y-13574103D01*
X2803467Y-13574103D02*
X2803467Y-13564579D01*
X2803467Y-13564579D02*
X2812991Y-13545531D01*
X2812991Y-13545531D02*
X2822515Y-13536008D01*
X2822515Y-13536008D02*
X2841562Y-13526484D01*
X2841562Y-13526484D02*
X2879658Y-13526484D01*
X2879658Y-13526484D02*
X2898705Y-13536008D01*
X2898705Y-13536008D02*
X2908229Y-13545531D01*
X2908229Y-13545531D02*
X2917753Y-13564579D01*
X2917753Y-13564579D02*
X2917753Y-13574103D01*
X2917753Y-13574103D02*
X2908229Y-13593150D01*
X2908229Y-13593150D02*
X2898705Y-13602674D01*
X2898705Y-13602674D02*
X2879658Y-13612198D01*
X2879658Y-13612198D02*
X2841562Y-13612198D01*
X2841562Y-13612198D02*
X2822515Y-13621722D01*
X2822515Y-13621722D02*
X2812991Y-13631246D01*
X2812991Y-13631246D02*
X2803467Y-13650293D01*
X2803467Y-13650293D02*
X2803467Y-13688388D01*
X2803467Y-13688388D02*
X2812991Y-13707436D01*
X2812991Y-13707436D02*
X2822515Y-13716960D01*
X2822515Y-13716960D02*
X2841562Y-13726484D01*
X2841562Y-13726484D02*
X2879658Y-13726484D01*
X2879658Y-13726484D02*
X2898705Y-13716960D01*
X2898705Y-13716960D02*
X2908229Y-13707436D01*
X2908229Y-13707436D02*
X2917753Y-13688388D01*
X2917753Y-13688388D02*
X2917753Y-13650293D01*
X2917753Y-13650293D02*
X2908229Y-13631246D01*
X2908229Y-13631246D02*
X2898705Y-13621722D01*
X2898705Y-13621722D02*
X2879658Y-13612198D01*
X3041562Y-13526484D02*
X3060610Y-13526484D01*
X3060610Y-13526484D02*
X3079658Y-13536008D01*
X3079658Y-13536008D02*
X3089182Y-13545531D01*
X3089182Y-13545531D02*
X3098705Y-13564579D01*
X3098705Y-13564579D02*
X3108229Y-13602674D01*
X3108229Y-13602674D02*
X3108229Y-13650293D01*
X3108229Y-13650293D02*
X3098705Y-13688388D01*
X3098705Y-13688388D02*
X3089182Y-13707436D01*
X3089182Y-13707436D02*
X3079658Y-13716960D01*
X3079658Y-13716960D02*
X3060610Y-13726484D01*
X3060610Y-13726484D02*
X3041562Y-13726484D01*
X3041562Y-13726484D02*
X3022515Y-13716960D01*
X3022515Y-13716960D02*
X3012991Y-13707436D01*
X3012991Y-13707436D02*
X3003467Y-13688388D01*
X3003467Y-13688388D02*
X2993943Y-13650293D01*
X2993943Y-13650293D02*
X2993943Y-13602674D01*
X2993943Y-13602674D02*
X3003467Y-13564579D01*
X3003467Y-13564579D02*
X3012991Y-13545531D01*
X3012991Y-13545531D02*
X3022515Y-13536008D01*
X3022515Y-13536008D02*
X3041562Y-13526484D01*
X3232039Y-13526484D02*
X3251086Y-13526484D01*
X3251086Y-13526484D02*
X3270134Y-13536008D01*
X3270134Y-13536008D02*
X3279658Y-13545531D01*
X3279658Y-13545531D02*
X3289182Y-13564579D01*
X3289182Y-13564579D02*
X3298705Y-13602674D01*
X3298705Y-13602674D02*
X3298705Y-13650293D01*
X3298705Y-13650293D02*
X3289182Y-13688388D01*
X3289182Y-13688388D02*
X3279658Y-13707436D01*
X3279658Y-13707436D02*
X3270134Y-13716960D01*
X3270134Y-13716960D02*
X3251086Y-13726484D01*
X3251086Y-13726484D02*
X3232039Y-13726484D01*
X3232039Y-13726484D02*
X3212991Y-13716960D01*
X3212991Y-13716960D02*
X3203467Y-13707436D01*
X3203467Y-13707436D02*
X3193943Y-13688388D01*
X3193943Y-13688388D02*
X3184420Y-13650293D01*
X3184420Y-13650293D02*
X3184420Y-13602674D01*
X3184420Y-13602674D02*
X3193943Y-13564579D01*
X3193943Y-13564579D02*
X3203467Y-13545531D01*
X3203467Y-13545531D02*
X3212991Y-13536008D01*
X3212991Y-13536008D02*
X3232039Y-13526484D01*
X3384420Y-13726484D02*
X3384420Y-13593150D01*
X3384420Y-13612198D02*
X3393943Y-13602674D01*
X3393943Y-13602674D02*
X3412991Y-13593150D01*
X3412991Y-13593150D02*
X3441563Y-13593150D01*
X3441563Y-13593150D02*
X3460610Y-13602674D01*
X3460610Y-13602674D02*
X3470134Y-13621722D01*
X3470134Y-13621722D02*
X3470134Y-13726484D01*
X3470134Y-13621722D02*
X3479658Y-13602674D01*
X3479658Y-13602674D02*
X3498705Y-13593150D01*
X3498705Y-13593150D02*
X3527277Y-13593150D01*
X3527277Y-13593150D02*
X3546324Y-13602674D01*
X3546324Y-13602674D02*
X3555848Y-13621722D01*
X3555848Y-13621722D02*
X3555848Y-13726484D01*
X3651086Y-13726484D02*
X3651086Y-13593150D01*
X3651086Y-13612198D02*
X3660610Y-13602674D01*
X3660610Y-13602674D02*
X3679658Y-13593150D01*
X3679658Y-13593150D02*
X3708229Y-13593150D01*
X3708229Y-13593150D02*
X3727277Y-13602674D01*
X3727277Y-13602674D02*
X3736801Y-13621722D01*
X3736801Y-13621722D02*
X3736801Y-13726484D01*
X3736801Y-13621722D02*
X3746324Y-13602674D01*
X3746324Y-13602674D02*
X3765372Y-13593150D01*
X3765372Y-13593150D02*
X3793943Y-13593150D01*
X3793943Y-13593150D02*
X3812991Y-13602674D01*
X3812991Y-13602674D02*
X3822515Y-13621722D01*
X3822515Y-13621722D02*
X3822515Y-13726484D01*
X4212991Y-13516960D02*
X4041563Y-13774103D01*
X4470134Y-13526484D02*
X4489182Y-13526484D01*
X4489182Y-13526484D02*
X4508229Y-13536008D01*
X4508229Y-13536008D02*
X4517753Y-13545531D01*
X4517753Y-13545531D02*
X4527277Y-13564579D01*
X4527277Y-13564579D02*
X4536801Y-13602674D01*
X4536801Y-13602674D02*
X4536801Y-13650293D01*
X4536801Y-13650293D02*
X4527277Y-13688388D01*
X4527277Y-13688388D02*
X4517753Y-13707436D01*
X4517753Y-13707436D02*
X4508229Y-13716960D01*
X4508229Y-13716960D02*
X4489182Y-13726484D01*
X4489182Y-13726484D02*
X4470134Y-13726484D01*
X4470134Y-13726484D02*
X4451087Y-13716960D01*
X4451087Y-13716960D02*
X4441563Y-13707436D01*
X4441563Y-13707436D02*
X4432039Y-13688388D01*
X4432039Y-13688388D02*
X4422515Y-13650293D01*
X4422515Y-13650293D02*
X4422515Y-13602674D01*
X4422515Y-13602674D02*
X4432039Y-13564579D01*
X4432039Y-13564579D02*
X4441563Y-13545531D01*
X4441563Y-13545531D02*
X4451087Y-13536008D01*
X4451087Y-13536008D02*
X4470134Y-13526484D01*
X4622515Y-13707436D02*
X4632039Y-13716960D01*
X4632039Y-13716960D02*
X4622515Y-13726484D01*
X4622515Y-13726484D02*
X4612991Y-13716960D01*
X4612991Y-13716960D02*
X4622515Y-13707436D01*
X4622515Y-13707436D02*
X4622515Y-13726484D01*
X4755848Y-13526484D02*
X4774896Y-13526484D01*
X4774896Y-13526484D02*
X4793944Y-13536008D01*
X4793944Y-13536008D02*
X4803468Y-13545531D01*
X4803468Y-13545531D02*
X4812991Y-13564579D01*
X4812991Y-13564579D02*
X4822515Y-13602674D01*
X4822515Y-13602674D02*
X4822515Y-13650293D01*
X4822515Y-13650293D02*
X4812991Y-13688388D01*
X4812991Y-13688388D02*
X4803468Y-13707436D01*
X4803468Y-13707436D02*
X4793944Y-13716960D01*
X4793944Y-13716960D02*
X4774896Y-13726484D01*
X4774896Y-13726484D02*
X4755848Y-13726484D01*
X4755848Y-13726484D02*
X4736801Y-13716960D01*
X4736801Y-13716960D02*
X4727277Y-13707436D01*
X4727277Y-13707436D02*
X4717753Y-13688388D01*
X4717753Y-13688388D02*
X4708229Y-13650293D01*
X4708229Y-13650293D02*
X4708229Y-13602674D01*
X4708229Y-13602674D02*
X4717753Y-13564579D01*
X4717753Y-13564579D02*
X4727277Y-13545531D01*
X4727277Y-13545531D02*
X4736801Y-13536008D01*
X4736801Y-13536008D02*
X4755848Y-13526484D01*
X4889182Y-13526484D02*
X5012991Y-13526484D01*
X5012991Y-13526484D02*
X4946325Y-13602674D01*
X4946325Y-13602674D02*
X4974896Y-13602674D01*
X4974896Y-13602674D02*
X4993944Y-13612198D01*
X4993944Y-13612198D02*
X5003468Y-13621722D01*
X5003468Y-13621722D02*
X5012991Y-13640769D01*
X5012991Y-13640769D02*
X5012991Y-13688388D01*
X5012991Y-13688388D02*
X5003468Y-13707436D01*
X5003468Y-13707436D02*
X4993944Y-13716960D01*
X4993944Y-13716960D02*
X4974896Y-13726484D01*
X4974896Y-13726484D02*
X4917753Y-13726484D01*
X4917753Y-13726484D02*
X4898706Y-13716960D01*
X4898706Y-13716960D02*
X4889182Y-13707436D01*
X5203468Y-13726484D02*
X5089182Y-13726484D01*
X5146325Y-13726484D02*
X5146325Y-13526484D01*
X5146325Y-13526484D02*
X5127277Y-13555055D01*
X5127277Y-13555055D02*
X5108229Y-13574103D01*
X5108229Y-13574103D02*
X5089182Y-13583627D01*
X5384420Y-13526484D02*
X5289182Y-13526484D01*
X5289182Y-13526484D02*
X5279658Y-13621722D01*
X5279658Y-13621722D02*
X5289182Y-13612198D01*
X5289182Y-13612198D02*
X5308229Y-13602674D01*
X5308229Y-13602674D02*
X5355849Y-13602674D01*
X5355849Y-13602674D02*
X5374896Y-13612198D01*
X5374896Y-13612198D02*
X5384420Y-13621722D01*
X5384420Y-13621722D02*
X5393944Y-13640769D01*
X5393944Y-13640769D02*
X5393944Y-13688388D01*
X5393944Y-13688388D02*
X5384420Y-13707436D01*
X5384420Y-13707436D02*
X5374896Y-13716960D01*
X5374896Y-13716960D02*
X5355849Y-13726484D01*
X5355849Y-13726484D02*
X5308229Y-13726484D01*
X5308229Y-13726484D02*
X5289182Y-13716960D01*
X5289182Y-13716960D02*
X5279658Y-13707436D01*
X5470134Y-13526484D02*
X5470134Y-13564579D01*
X5546325Y-13526484D02*
X5546325Y-13564579D01*
X5841563Y-13802674D02*
X5832039Y-13793150D01*
X5832039Y-13793150D02*
X5812991Y-13764579D01*
X5812991Y-13764579D02*
X5803468Y-13745531D01*
X5803468Y-13745531D02*
X5793944Y-13716960D01*
X5793944Y-13716960D02*
X5784420Y-13669341D01*
X5784420Y-13669341D02*
X5784420Y-13631246D01*
X5784420Y-13631246D02*
X5793944Y-13583627D01*
X5793944Y-13583627D02*
X5803468Y-13555055D01*
X5803468Y-13555055D02*
X5812991Y-13536008D01*
X5812991Y-13536008D02*
X5832039Y-13507436D01*
X5832039Y-13507436D02*
X5841563Y-13497912D01*
X5908229Y-13545531D02*
X5917753Y-13536008D01*
X5917753Y-13536008D02*
X5936801Y-13526484D01*
X5936801Y-13526484D02*
X5984420Y-13526484D01*
X5984420Y-13526484D02*
X6003468Y-13536008D01*
X6003468Y-13536008D02*
X6012991Y-13545531D01*
X6012991Y-13545531D02*
X6022515Y-13564579D01*
X6022515Y-13564579D02*
X6022515Y-13583627D01*
X6022515Y-13583627D02*
X6012991Y-13612198D01*
X6012991Y-13612198D02*
X5898706Y-13726484D01*
X5898706Y-13726484D02*
X6022515Y-13726484D01*
X6260610Y-13726484D02*
X6260610Y-13526484D01*
X6346325Y-13726484D02*
X6346325Y-13621722D01*
X6346325Y-13621722D02*
X6336801Y-13602674D01*
X6336801Y-13602674D02*
X6317753Y-13593150D01*
X6317753Y-13593150D02*
X6289182Y-13593150D01*
X6289182Y-13593150D02*
X6270134Y-13602674D01*
X6270134Y-13602674D02*
X6260610Y-13612198D01*
X6470134Y-13726484D02*
X6451087Y-13716960D01*
X6451087Y-13716960D02*
X6441563Y-13707436D01*
X6441563Y-13707436D02*
X6432039Y-13688388D01*
X6432039Y-13688388D02*
X6432039Y-13631246D01*
X6432039Y-13631246D02*
X6441563Y-13612198D01*
X6441563Y-13612198D02*
X6451087Y-13602674D01*
X6451087Y-13602674D02*
X6470134Y-13593150D01*
X6470134Y-13593150D02*
X6498706Y-13593150D01*
X6498706Y-13593150D02*
X6517753Y-13602674D01*
X6517753Y-13602674D02*
X6527277Y-13612198D01*
X6527277Y-13612198D02*
X6536801Y-13631246D01*
X6536801Y-13631246D02*
X6536801Y-13688388D01*
X6536801Y-13688388D02*
X6527277Y-13707436D01*
X6527277Y-13707436D02*
X6517753Y-13716960D01*
X6517753Y-13716960D02*
X6498706Y-13726484D01*
X6498706Y-13726484D02*
X6470134Y-13726484D01*
X6651087Y-13726484D02*
X6632039Y-13716960D01*
X6632039Y-13716960D02*
X6622515Y-13697912D01*
X6622515Y-13697912D02*
X6622515Y-13526484D01*
X6803468Y-13716960D02*
X6784420Y-13726484D01*
X6784420Y-13726484D02*
X6746325Y-13726484D01*
X6746325Y-13726484D02*
X6727277Y-13716960D01*
X6727277Y-13716960D02*
X6717753Y-13697912D01*
X6717753Y-13697912D02*
X6717753Y-13621722D01*
X6717753Y-13621722D02*
X6727277Y-13602674D01*
X6727277Y-13602674D02*
X6746325Y-13593150D01*
X6746325Y-13593150D02*
X6784420Y-13593150D01*
X6784420Y-13593150D02*
X6803468Y-13602674D01*
X6803468Y-13602674D02*
X6812991Y-13621722D01*
X6812991Y-13621722D02*
X6812991Y-13640769D01*
X6812991Y-13640769D02*
X6717753Y-13659817D01*
X6889182Y-13716960D02*
X6908230Y-13726484D01*
X6908230Y-13726484D02*
X6946325Y-13726484D01*
X6946325Y-13726484D02*
X6965372Y-13716960D01*
X6965372Y-13716960D02*
X6974896Y-13697912D01*
X6974896Y-13697912D02*
X6974896Y-13688388D01*
X6974896Y-13688388D02*
X6965372Y-13669341D01*
X6965372Y-13669341D02*
X6946325Y-13659817D01*
X6946325Y-13659817D02*
X6917753Y-13659817D01*
X6917753Y-13659817D02*
X6898706Y-13650293D01*
X6898706Y-13650293D02*
X6889182Y-13631246D01*
X6889182Y-13631246D02*
X6889182Y-13621722D01*
X6889182Y-13621722D02*
X6898706Y-13602674D01*
X6898706Y-13602674D02*
X6917753Y-13593150D01*
X6917753Y-13593150D02*
X6946325Y-13593150D01*
X6946325Y-13593150D02*
X6965372Y-13602674D01*
X7041563Y-13802674D02*
X7051087Y-13793150D01*
X7051087Y-13793150D02*
X7070134Y-13764579D01*
X7070134Y-13764579D02*
X7079658Y-13745531D01*
X7079658Y-13745531D02*
X7089182Y-13716960D01*
X7089182Y-13716960D02*
X7098706Y-13669341D01*
X7098706Y-13669341D02*
X7098706Y-13631246D01*
X7098706Y-13631246D02*
X7089182Y-13583627D01*
X7089182Y-13583627D02*
X7079658Y-13555055D01*
X7079658Y-13555055D02*
X7070134Y-13536008D01*
X7070134Y-13536008D02*
X7051087Y-13507436D01*
X7051087Y-13507436D02*
X7041563Y-13497912D01*
D11*
X2251856Y-13934356D02*
X2251856Y-13863644D01*
X2181144Y-13863644D01*
X2181144Y-13934356D01*
X2251856Y-13934356D01*
D10*
X2632039Y-13990484D02*
X2517753Y-13990484D01*
X2574896Y-13990484D02*
X2574896Y-13790484D01*
X2574896Y-13790484D02*
X2555848Y-13819055D01*
X2555848Y-13819055D02*
X2536801Y-13838103D01*
X2536801Y-13838103D02*
X2517753Y-13847627D01*
X2717753Y-13971436D02*
X2727277Y-13980960D01*
X2727277Y-13980960D02*
X2717753Y-13990484D01*
X2717753Y-13990484D02*
X2708229Y-13980960D01*
X2708229Y-13980960D02*
X2717753Y-13971436D01*
X2717753Y-13971436D02*
X2717753Y-13990484D01*
X2851086Y-13790484D02*
X2870134Y-13790484D01*
X2870134Y-13790484D02*
X2889182Y-13800008D01*
X2889182Y-13800008D02*
X2898705Y-13809531D01*
X2898705Y-13809531D02*
X2908229Y-13828579D01*
X2908229Y-13828579D02*
X2917753Y-13866674D01*
X2917753Y-13866674D02*
X2917753Y-13914293D01*
X2917753Y-13914293D02*
X2908229Y-13952388D01*
X2908229Y-13952388D02*
X2898705Y-13971436D01*
X2898705Y-13971436D02*
X2889182Y-13980960D01*
X2889182Y-13980960D02*
X2870134Y-13990484D01*
X2870134Y-13990484D02*
X2851086Y-13990484D01*
X2851086Y-13990484D02*
X2832039Y-13980960D01*
X2832039Y-13980960D02*
X2822515Y-13971436D01*
X2822515Y-13971436D02*
X2812991Y-13952388D01*
X2812991Y-13952388D02*
X2803467Y-13914293D01*
X2803467Y-13914293D02*
X2803467Y-13866674D01*
X2803467Y-13866674D02*
X2812991Y-13828579D01*
X2812991Y-13828579D02*
X2822515Y-13809531D01*
X2822515Y-13809531D02*
X2832039Y-13800008D01*
X2832039Y-13800008D02*
X2851086Y-13790484D01*
X3041562Y-13790484D02*
X3060610Y-13790484D01*
X3060610Y-13790484D02*
X3079658Y-13800008D01*
X3079658Y-13800008D02*
X3089182Y-13809531D01*
X3089182Y-13809531D02*
X3098705Y-13828579D01*
X3098705Y-13828579D02*
X3108229Y-13866674D01*
X3108229Y-13866674D02*
X3108229Y-13914293D01*
X3108229Y-13914293D02*
X3098705Y-13952388D01*
X3098705Y-13952388D02*
X3089182Y-13971436D01*
X3089182Y-13971436D02*
X3079658Y-13980960D01*
X3079658Y-13980960D02*
X3060610Y-13990484D01*
X3060610Y-13990484D02*
X3041562Y-13990484D01*
X3041562Y-13990484D02*
X3022515Y-13980960D01*
X3022515Y-13980960D02*
X3012991Y-13971436D01*
X3012991Y-13971436D02*
X3003467Y-13952388D01*
X3003467Y-13952388D02*
X2993943Y-13914293D01*
X2993943Y-13914293D02*
X2993943Y-13866674D01*
X2993943Y-13866674D02*
X3003467Y-13828579D01*
X3003467Y-13828579D02*
X3012991Y-13809531D01*
X3012991Y-13809531D02*
X3022515Y-13800008D01*
X3022515Y-13800008D02*
X3041562Y-13790484D01*
X3232039Y-13790484D02*
X3251086Y-13790484D01*
X3251086Y-13790484D02*
X3270134Y-13800008D01*
X3270134Y-13800008D02*
X3279658Y-13809531D01*
X3279658Y-13809531D02*
X3289182Y-13828579D01*
X3289182Y-13828579D02*
X3298705Y-13866674D01*
X3298705Y-13866674D02*
X3298705Y-13914293D01*
X3298705Y-13914293D02*
X3289182Y-13952388D01*
X3289182Y-13952388D02*
X3279658Y-13971436D01*
X3279658Y-13971436D02*
X3270134Y-13980960D01*
X3270134Y-13980960D02*
X3251086Y-13990484D01*
X3251086Y-13990484D02*
X3232039Y-13990484D01*
X3232039Y-13990484D02*
X3212991Y-13980960D01*
X3212991Y-13980960D02*
X3203467Y-13971436D01*
X3203467Y-13971436D02*
X3193943Y-13952388D01*
X3193943Y-13952388D02*
X3184420Y-13914293D01*
X3184420Y-13914293D02*
X3184420Y-13866674D01*
X3184420Y-13866674D02*
X3193943Y-13828579D01*
X3193943Y-13828579D02*
X3203467Y-13809531D01*
X3203467Y-13809531D02*
X3212991Y-13800008D01*
X3212991Y-13800008D02*
X3232039Y-13790484D01*
X3384420Y-13990484D02*
X3384420Y-13857150D01*
X3384420Y-13876198D02*
X3393943Y-13866674D01*
X3393943Y-13866674D02*
X3412991Y-13857150D01*
X3412991Y-13857150D02*
X3441563Y-13857150D01*
X3441563Y-13857150D02*
X3460610Y-13866674D01*
X3460610Y-13866674D02*
X3470134Y-13885722D01*
X3470134Y-13885722D02*
X3470134Y-13990484D01*
X3470134Y-13885722D02*
X3479658Y-13866674D01*
X3479658Y-13866674D02*
X3498705Y-13857150D01*
X3498705Y-13857150D02*
X3527277Y-13857150D01*
X3527277Y-13857150D02*
X3546324Y-13866674D01*
X3546324Y-13866674D02*
X3555848Y-13885722D01*
X3555848Y-13885722D02*
X3555848Y-13990484D01*
X3651086Y-13990484D02*
X3651086Y-13857150D01*
X3651086Y-13876198D02*
X3660610Y-13866674D01*
X3660610Y-13866674D02*
X3679658Y-13857150D01*
X3679658Y-13857150D02*
X3708229Y-13857150D01*
X3708229Y-13857150D02*
X3727277Y-13866674D01*
X3727277Y-13866674D02*
X3736801Y-13885722D01*
X3736801Y-13885722D02*
X3736801Y-13990484D01*
X3736801Y-13885722D02*
X3746324Y-13866674D01*
X3746324Y-13866674D02*
X3765372Y-13857150D01*
X3765372Y-13857150D02*
X3793943Y-13857150D01*
X3793943Y-13857150D02*
X3812991Y-13866674D01*
X3812991Y-13866674D02*
X3822515Y-13885722D01*
X3822515Y-13885722D02*
X3822515Y-13990484D01*
X4212991Y-13780960D02*
X4041563Y-14038103D01*
X4470134Y-13790484D02*
X4489182Y-13790484D01*
X4489182Y-13790484D02*
X4508229Y-13800008D01*
X4508229Y-13800008D02*
X4517753Y-13809531D01*
X4517753Y-13809531D02*
X4527277Y-13828579D01*
X4527277Y-13828579D02*
X4536801Y-13866674D01*
X4536801Y-13866674D02*
X4536801Y-13914293D01*
X4536801Y-13914293D02*
X4527277Y-13952388D01*
X4527277Y-13952388D02*
X4517753Y-13971436D01*
X4517753Y-13971436D02*
X4508229Y-13980960D01*
X4508229Y-13980960D02*
X4489182Y-13990484D01*
X4489182Y-13990484D02*
X4470134Y-13990484D01*
X4470134Y-13990484D02*
X4451087Y-13980960D01*
X4451087Y-13980960D02*
X4441563Y-13971436D01*
X4441563Y-13971436D02*
X4432039Y-13952388D01*
X4432039Y-13952388D02*
X4422515Y-13914293D01*
X4422515Y-13914293D02*
X4422515Y-13866674D01*
X4422515Y-13866674D02*
X4432039Y-13828579D01*
X4432039Y-13828579D02*
X4441563Y-13809531D01*
X4441563Y-13809531D02*
X4451087Y-13800008D01*
X4451087Y-13800008D02*
X4470134Y-13790484D01*
X4622515Y-13971436D02*
X4632039Y-13980960D01*
X4632039Y-13980960D02*
X4622515Y-13990484D01*
X4622515Y-13990484D02*
X4612991Y-13980960D01*
X4612991Y-13980960D02*
X4622515Y-13971436D01*
X4622515Y-13971436D02*
X4622515Y-13990484D01*
X4755848Y-13790484D02*
X4774896Y-13790484D01*
X4774896Y-13790484D02*
X4793944Y-13800008D01*
X4793944Y-13800008D02*
X4803468Y-13809531D01*
X4803468Y-13809531D02*
X4812991Y-13828579D01*
X4812991Y-13828579D02*
X4822515Y-13866674D01*
X4822515Y-13866674D02*
X4822515Y-13914293D01*
X4822515Y-13914293D02*
X4812991Y-13952388D01*
X4812991Y-13952388D02*
X4803468Y-13971436D01*
X4803468Y-13971436D02*
X4793944Y-13980960D01*
X4793944Y-13980960D02*
X4774896Y-13990484D01*
X4774896Y-13990484D02*
X4755848Y-13990484D01*
X4755848Y-13990484D02*
X4736801Y-13980960D01*
X4736801Y-13980960D02*
X4727277Y-13971436D01*
X4727277Y-13971436D02*
X4717753Y-13952388D01*
X4717753Y-13952388D02*
X4708229Y-13914293D01*
X4708229Y-13914293D02*
X4708229Y-13866674D01*
X4708229Y-13866674D02*
X4717753Y-13828579D01*
X4717753Y-13828579D02*
X4727277Y-13809531D01*
X4727277Y-13809531D02*
X4736801Y-13800008D01*
X4736801Y-13800008D02*
X4755848Y-13790484D01*
X4889182Y-13790484D02*
X5012991Y-13790484D01*
X5012991Y-13790484D02*
X4946325Y-13866674D01*
X4946325Y-13866674D02*
X4974896Y-13866674D01*
X4974896Y-13866674D02*
X4993944Y-13876198D01*
X4993944Y-13876198D02*
X5003468Y-13885722D01*
X5003468Y-13885722D02*
X5012991Y-13904769D01*
X5012991Y-13904769D02*
X5012991Y-13952388D01*
X5012991Y-13952388D02*
X5003468Y-13971436D01*
X5003468Y-13971436D02*
X4993944Y-13980960D01*
X4993944Y-13980960D02*
X4974896Y-13990484D01*
X4974896Y-13990484D02*
X4917753Y-13990484D01*
X4917753Y-13990484D02*
X4898706Y-13980960D01*
X4898706Y-13980960D02*
X4889182Y-13971436D01*
X5108229Y-13990484D02*
X5146325Y-13990484D01*
X5146325Y-13990484D02*
X5165372Y-13980960D01*
X5165372Y-13980960D02*
X5174896Y-13971436D01*
X5174896Y-13971436D02*
X5193944Y-13942865D01*
X5193944Y-13942865D02*
X5203468Y-13904769D01*
X5203468Y-13904769D02*
X5203468Y-13828579D01*
X5203468Y-13828579D02*
X5193944Y-13809531D01*
X5193944Y-13809531D02*
X5184420Y-13800008D01*
X5184420Y-13800008D02*
X5165372Y-13790484D01*
X5165372Y-13790484D02*
X5127277Y-13790484D01*
X5127277Y-13790484D02*
X5108229Y-13800008D01*
X5108229Y-13800008D02*
X5098706Y-13809531D01*
X5098706Y-13809531D02*
X5089182Y-13828579D01*
X5089182Y-13828579D02*
X5089182Y-13876198D01*
X5089182Y-13876198D02*
X5098706Y-13895246D01*
X5098706Y-13895246D02*
X5108229Y-13904769D01*
X5108229Y-13904769D02*
X5127277Y-13914293D01*
X5127277Y-13914293D02*
X5165372Y-13914293D01*
X5165372Y-13914293D02*
X5184420Y-13904769D01*
X5184420Y-13904769D02*
X5193944Y-13895246D01*
X5193944Y-13895246D02*
X5203468Y-13876198D01*
X5374896Y-13857150D02*
X5374896Y-13990484D01*
X5327277Y-13780960D02*
X5279658Y-13923817D01*
X5279658Y-13923817D02*
X5403468Y-13923817D01*
X5470134Y-13790484D02*
X5470134Y-13828579D01*
X5546325Y-13790484D02*
X5546325Y-13828579D01*
X5841563Y-14066674D02*
X5832039Y-14057150D01*
X5832039Y-14057150D02*
X5812991Y-14028579D01*
X5812991Y-14028579D02*
X5803468Y-14009531D01*
X5803468Y-14009531D02*
X5793944Y-13980960D01*
X5793944Y-13980960D02*
X5784420Y-13933341D01*
X5784420Y-13933341D02*
X5784420Y-13895246D01*
X5784420Y-13895246D02*
X5793944Y-13847627D01*
X5793944Y-13847627D02*
X5803468Y-13819055D01*
X5803468Y-13819055D02*
X5812991Y-13800008D01*
X5812991Y-13800008D02*
X5832039Y-13771436D01*
X5832039Y-13771436D02*
X5841563Y-13761912D01*
X6022515Y-13990484D02*
X5908229Y-13990484D01*
X5965372Y-13990484D02*
X5965372Y-13790484D01*
X5965372Y-13790484D02*
X5946325Y-13819055D01*
X5946325Y-13819055D02*
X5927277Y-13838103D01*
X5927277Y-13838103D02*
X5908229Y-13847627D01*
X6193944Y-13790484D02*
X6155848Y-13790484D01*
X6155848Y-13790484D02*
X6136801Y-13800008D01*
X6136801Y-13800008D02*
X6127277Y-13809531D01*
X6127277Y-13809531D02*
X6108229Y-13838103D01*
X6108229Y-13838103D02*
X6098706Y-13876198D01*
X6098706Y-13876198D02*
X6098706Y-13952388D01*
X6098706Y-13952388D02*
X6108229Y-13971436D01*
X6108229Y-13971436D02*
X6117753Y-13980960D01*
X6117753Y-13980960D02*
X6136801Y-13990484D01*
X6136801Y-13990484D02*
X6174896Y-13990484D01*
X6174896Y-13990484D02*
X6193944Y-13980960D01*
X6193944Y-13980960D02*
X6203468Y-13971436D01*
X6203468Y-13971436D02*
X6212991Y-13952388D01*
X6212991Y-13952388D02*
X6212991Y-13904769D01*
X6212991Y-13904769D02*
X6203468Y-13885722D01*
X6203468Y-13885722D02*
X6193944Y-13876198D01*
X6193944Y-13876198D02*
X6174896Y-13866674D01*
X6174896Y-13866674D02*
X6136801Y-13866674D01*
X6136801Y-13866674D02*
X6117753Y-13876198D01*
X6117753Y-13876198D02*
X6108229Y-13885722D01*
X6108229Y-13885722D02*
X6098706Y-13904769D01*
X6451087Y-13990484D02*
X6451087Y-13790484D01*
X6536801Y-13990484D02*
X6536801Y-13885722D01*
X6536801Y-13885722D02*
X6527277Y-13866674D01*
X6527277Y-13866674D02*
X6508230Y-13857150D01*
X6508230Y-13857150D02*
X6479658Y-13857150D01*
X6479658Y-13857150D02*
X6460610Y-13866674D01*
X6460610Y-13866674D02*
X6451087Y-13876198D01*
X6660610Y-13990484D02*
X6641563Y-13980960D01*
X6641563Y-13980960D02*
X6632039Y-13971436D01*
X6632039Y-13971436D02*
X6622515Y-13952388D01*
X6622515Y-13952388D02*
X6622515Y-13895246D01*
X6622515Y-13895246D02*
X6632039Y-13876198D01*
X6632039Y-13876198D02*
X6641563Y-13866674D01*
X6641563Y-13866674D02*
X6660610Y-13857150D01*
X6660610Y-13857150D02*
X6689182Y-13857150D01*
X6689182Y-13857150D02*
X6708230Y-13866674D01*
X6708230Y-13866674D02*
X6717753Y-13876198D01*
X6717753Y-13876198D02*
X6727277Y-13895246D01*
X6727277Y-13895246D02*
X6727277Y-13952388D01*
X6727277Y-13952388D02*
X6717753Y-13971436D01*
X6717753Y-13971436D02*
X6708230Y-13980960D01*
X6708230Y-13980960D02*
X6689182Y-13990484D01*
X6689182Y-13990484D02*
X6660610Y-13990484D01*
X6841563Y-13990484D02*
X6822515Y-13980960D01*
X6822515Y-13980960D02*
X6812991Y-13961912D01*
X6812991Y-13961912D02*
X6812991Y-13790484D01*
X6993944Y-13980960D02*
X6974896Y-13990484D01*
X6974896Y-13990484D02*
X6936801Y-13990484D01*
X6936801Y-13990484D02*
X6917753Y-13980960D01*
X6917753Y-13980960D02*
X6908230Y-13961912D01*
X6908230Y-13961912D02*
X6908230Y-13885722D01*
X6908230Y-13885722D02*
X6917753Y-13866674D01*
X6917753Y-13866674D02*
X6936801Y-13857150D01*
X6936801Y-13857150D02*
X6974896Y-13857150D01*
X6974896Y-13857150D02*
X6993944Y-13866674D01*
X6993944Y-13866674D02*
X7003468Y-13885722D01*
X7003468Y-13885722D02*
X7003468Y-13904769D01*
X7003468Y-13904769D02*
X6908230Y-13923817D01*
X7079658Y-13980960D02*
X7098706Y-13990484D01*
X7098706Y-13990484D02*
X7136801Y-13990484D01*
X7136801Y-13990484D02*
X7155849Y-13980960D01*
X7155849Y-13980960D02*
X7165372Y-13961912D01*
X7165372Y-13961912D02*
X7165372Y-13952388D01*
X7165372Y-13952388D02*
X7155849Y-13933341D01*
X7155849Y-13933341D02*
X7136801Y-13923817D01*
X7136801Y-13923817D02*
X7108230Y-13923817D01*
X7108230Y-13923817D02*
X7089182Y-13914293D01*
X7089182Y-13914293D02*
X7079658Y-13895246D01*
X7079658Y-13895246D02*
X7079658Y-13885722D01*
X7079658Y-13885722D02*
X7089182Y-13866674D01*
X7089182Y-13866674D02*
X7108230Y-13857150D01*
X7108230Y-13857150D02*
X7136801Y-13857150D01*
X7136801Y-13857150D02*
X7155849Y-13866674D01*
X7232039Y-14066674D02*
X7241563Y-14057150D01*
X7241563Y-14057150D02*
X7260611Y-14028579D01*
X7260611Y-14028579D02*
X7270134Y-14009531D01*
X7270134Y-14009531D02*
X7279658Y-13980960D01*
X7279658Y-13980960D02*
X7289182Y-13933341D01*
X7289182Y-13933341D02*
X7289182Y-13895246D01*
X7289182Y-13895246D02*
X7279658Y-13847627D01*
X7279658Y-13847627D02*
X7270134Y-13819055D01*
X7270134Y-13819055D02*
X7260611Y-13800008D01*
X7260611Y-13800008D02*
X7241563Y-13771436D01*
X7241563Y-13771436D02*
X7232039Y-13761912D01*
D12*
X2211500Y-14218000D02*
X2266500Y-14163000D01*
X2211500Y-14108000D01*
X2156500Y-14163000D01*
X2211500Y-14218000D01*
D10*
X2632039Y-14254484D02*
X2517753Y-14254484D01*
X2574896Y-14254484D02*
X2574896Y-14054484D01*
X2574896Y-14054484D02*
X2555848Y-14083055D01*
X2555848Y-14083055D02*
X2536801Y-14102103D01*
X2536801Y-14102103D02*
X2517753Y-14111627D01*
X2717753Y-14235436D02*
X2727277Y-14244960D01*
X2727277Y-14244960D02*
X2717753Y-14254484D01*
X2717753Y-14254484D02*
X2708229Y-14244960D01*
X2708229Y-14244960D02*
X2717753Y-14235436D01*
X2717753Y-14235436D02*
X2717753Y-14254484D01*
X2917753Y-14254484D02*
X2803467Y-14254484D01*
X2860610Y-14254484D02*
X2860610Y-14054484D01*
X2860610Y-14054484D02*
X2841562Y-14083055D01*
X2841562Y-14083055D02*
X2822515Y-14102103D01*
X2822515Y-14102103D02*
X2803467Y-14111627D01*
X3041562Y-14054484D02*
X3060610Y-14054484D01*
X3060610Y-14054484D02*
X3079658Y-14064008D01*
X3079658Y-14064008D02*
X3089182Y-14073531D01*
X3089182Y-14073531D02*
X3098705Y-14092579D01*
X3098705Y-14092579D02*
X3108229Y-14130674D01*
X3108229Y-14130674D02*
X3108229Y-14178293D01*
X3108229Y-14178293D02*
X3098705Y-14216388D01*
X3098705Y-14216388D02*
X3089182Y-14235436D01*
X3089182Y-14235436D02*
X3079658Y-14244960D01*
X3079658Y-14244960D02*
X3060610Y-14254484D01*
X3060610Y-14254484D02*
X3041562Y-14254484D01*
X3041562Y-14254484D02*
X3022515Y-14244960D01*
X3022515Y-14244960D02*
X3012991Y-14235436D01*
X3012991Y-14235436D02*
X3003467Y-14216388D01*
X3003467Y-14216388D02*
X2993943Y-14178293D01*
X2993943Y-14178293D02*
X2993943Y-14130674D01*
X2993943Y-14130674D02*
X3003467Y-14092579D01*
X3003467Y-14092579D02*
X3012991Y-14073531D01*
X3012991Y-14073531D02*
X3022515Y-14064008D01*
X3022515Y-14064008D02*
X3041562Y-14054484D01*
X3232039Y-14054484D02*
X3251086Y-14054484D01*
X3251086Y-14054484D02*
X3270134Y-14064008D01*
X3270134Y-14064008D02*
X3279658Y-14073531D01*
X3279658Y-14073531D02*
X3289182Y-14092579D01*
X3289182Y-14092579D02*
X3298705Y-14130674D01*
X3298705Y-14130674D02*
X3298705Y-14178293D01*
X3298705Y-14178293D02*
X3289182Y-14216388D01*
X3289182Y-14216388D02*
X3279658Y-14235436D01*
X3279658Y-14235436D02*
X3270134Y-14244960D01*
X3270134Y-14244960D02*
X3251086Y-14254484D01*
X3251086Y-14254484D02*
X3232039Y-14254484D01*
X3232039Y-14254484D02*
X3212991Y-14244960D01*
X3212991Y-14244960D02*
X3203467Y-14235436D01*
X3203467Y-14235436D02*
X3193943Y-14216388D01*
X3193943Y-14216388D02*
X3184420Y-14178293D01*
X3184420Y-14178293D02*
X3184420Y-14130674D01*
X3184420Y-14130674D02*
X3193943Y-14092579D01*
X3193943Y-14092579D02*
X3203467Y-14073531D01*
X3203467Y-14073531D02*
X3212991Y-14064008D01*
X3212991Y-14064008D02*
X3232039Y-14054484D01*
X3384420Y-14254484D02*
X3384420Y-14121150D01*
X3384420Y-14140198D02*
X3393943Y-14130674D01*
X3393943Y-14130674D02*
X3412991Y-14121150D01*
X3412991Y-14121150D02*
X3441563Y-14121150D01*
X3441563Y-14121150D02*
X3460610Y-14130674D01*
X3460610Y-14130674D02*
X3470134Y-14149722D01*
X3470134Y-14149722D02*
X3470134Y-14254484D01*
X3470134Y-14149722D02*
X3479658Y-14130674D01*
X3479658Y-14130674D02*
X3498705Y-14121150D01*
X3498705Y-14121150D02*
X3527277Y-14121150D01*
X3527277Y-14121150D02*
X3546324Y-14130674D01*
X3546324Y-14130674D02*
X3555848Y-14149722D01*
X3555848Y-14149722D02*
X3555848Y-14254484D01*
X3651086Y-14254484D02*
X3651086Y-14121150D01*
X3651086Y-14140198D02*
X3660610Y-14130674D01*
X3660610Y-14130674D02*
X3679658Y-14121150D01*
X3679658Y-14121150D02*
X3708229Y-14121150D01*
X3708229Y-14121150D02*
X3727277Y-14130674D01*
X3727277Y-14130674D02*
X3736801Y-14149722D01*
X3736801Y-14149722D02*
X3736801Y-14254484D01*
X3736801Y-14149722D02*
X3746324Y-14130674D01*
X3746324Y-14130674D02*
X3765372Y-14121150D01*
X3765372Y-14121150D02*
X3793943Y-14121150D01*
X3793943Y-14121150D02*
X3812991Y-14130674D01*
X3812991Y-14130674D02*
X3822515Y-14149722D01*
X3822515Y-14149722D02*
X3822515Y-14254484D01*
X4212991Y-14044960D02*
X4041563Y-14302103D01*
X4470134Y-14054484D02*
X4489182Y-14054484D01*
X4489182Y-14054484D02*
X4508229Y-14064008D01*
X4508229Y-14064008D02*
X4517753Y-14073531D01*
X4517753Y-14073531D02*
X4527277Y-14092579D01*
X4527277Y-14092579D02*
X4536801Y-14130674D01*
X4536801Y-14130674D02*
X4536801Y-14178293D01*
X4536801Y-14178293D02*
X4527277Y-14216388D01*
X4527277Y-14216388D02*
X4517753Y-14235436D01*
X4517753Y-14235436D02*
X4508229Y-14244960D01*
X4508229Y-14244960D02*
X4489182Y-14254484D01*
X4489182Y-14254484D02*
X4470134Y-14254484D01*
X4470134Y-14254484D02*
X4451087Y-14244960D01*
X4451087Y-14244960D02*
X4441563Y-14235436D01*
X4441563Y-14235436D02*
X4432039Y-14216388D01*
X4432039Y-14216388D02*
X4422515Y-14178293D01*
X4422515Y-14178293D02*
X4422515Y-14130674D01*
X4422515Y-14130674D02*
X4432039Y-14092579D01*
X4432039Y-14092579D02*
X4441563Y-14073531D01*
X4441563Y-14073531D02*
X4451087Y-14064008D01*
X4451087Y-14064008D02*
X4470134Y-14054484D01*
X4622515Y-14235436D02*
X4632039Y-14244960D01*
X4632039Y-14244960D02*
X4622515Y-14254484D01*
X4622515Y-14254484D02*
X4612991Y-14244960D01*
X4612991Y-14244960D02*
X4622515Y-14235436D01*
X4622515Y-14235436D02*
X4622515Y-14254484D01*
X4755848Y-14054484D02*
X4774896Y-14054484D01*
X4774896Y-14054484D02*
X4793944Y-14064008D01*
X4793944Y-14064008D02*
X4803468Y-14073531D01*
X4803468Y-14073531D02*
X4812991Y-14092579D01*
X4812991Y-14092579D02*
X4822515Y-14130674D01*
X4822515Y-14130674D02*
X4822515Y-14178293D01*
X4822515Y-14178293D02*
X4812991Y-14216388D01*
X4812991Y-14216388D02*
X4803468Y-14235436D01*
X4803468Y-14235436D02*
X4793944Y-14244960D01*
X4793944Y-14244960D02*
X4774896Y-14254484D01*
X4774896Y-14254484D02*
X4755848Y-14254484D01*
X4755848Y-14254484D02*
X4736801Y-14244960D01*
X4736801Y-14244960D02*
X4727277Y-14235436D01*
X4727277Y-14235436D02*
X4717753Y-14216388D01*
X4717753Y-14216388D02*
X4708229Y-14178293D01*
X4708229Y-14178293D02*
X4708229Y-14130674D01*
X4708229Y-14130674D02*
X4717753Y-14092579D01*
X4717753Y-14092579D02*
X4727277Y-14073531D01*
X4727277Y-14073531D02*
X4736801Y-14064008D01*
X4736801Y-14064008D02*
X4755848Y-14054484D01*
X4993944Y-14121150D02*
X4993944Y-14254484D01*
X4946325Y-14044960D02*
X4898706Y-14187817D01*
X4898706Y-14187817D02*
X5022515Y-14187817D01*
X5079658Y-14054484D02*
X5203468Y-14054484D01*
X5203468Y-14054484D02*
X5136801Y-14130674D01*
X5136801Y-14130674D02*
X5165372Y-14130674D01*
X5165372Y-14130674D02*
X5184420Y-14140198D01*
X5184420Y-14140198D02*
X5193944Y-14149722D01*
X5193944Y-14149722D02*
X5203468Y-14168769D01*
X5203468Y-14168769D02*
X5203468Y-14216388D01*
X5203468Y-14216388D02*
X5193944Y-14235436D01*
X5193944Y-14235436D02*
X5184420Y-14244960D01*
X5184420Y-14244960D02*
X5165372Y-14254484D01*
X5165372Y-14254484D02*
X5108229Y-14254484D01*
X5108229Y-14254484D02*
X5089182Y-14244960D01*
X5089182Y-14244960D02*
X5079658Y-14235436D01*
X5270134Y-14054484D02*
X5393944Y-14054484D01*
X5393944Y-14054484D02*
X5327277Y-14130674D01*
X5327277Y-14130674D02*
X5355849Y-14130674D01*
X5355849Y-14130674D02*
X5374896Y-14140198D01*
X5374896Y-14140198D02*
X5384420Y-14149722D01*
X5384420Y-14149722D02*
X5393944Y-14168769D01*
X5393944Y-14168769D02*
X5393944Y-14216388D01*
X5393944Y-14216388D02*
X5384420Y-14235436D01*
X5384420Y-14235436D02*
X5374896Y-14244960D01*
X5374896Y-14244960D02*
X5355849Y-14254484D01*
X5355849Y-14254484D02*
X5298706Y-14254484D01*
X5298706Y-14254484D02*
X5279658Y-14244960D01*
X5279658Y-14244960D02*
X5270134Y-14235436D01*
X5470134Y-14054484D02*
X5470134Y-14092579D01*
X5546325Y-14054484D02*
X5546325Y-14092579D01*
X5841563Y-14330674D02*
X5832039Y-14321150D01*
X5832039Y-14321150D02*
X5812991Y-14292579D01*
X5812991Y-14292579D02*
X5803468Y-14273531D01*
X5803468Y-14273531D02*
X5793944Y-14244960D01*
X5793944Y-14244960D02*
X5784420Y-14197341D01*
X5784420Y-14197341D02*
X5784420Y-14159246D01*
X5784420Y-14159246D02*
X5793944Y-14111627D01*
X5793944Y-14111627D02*
X5803468Y-14083055D01*
X5803468Y-14083055D02*
X5812991Y-14064008D01*
X5812991Y-14064008D02*
X5832039Y-14035436D01*
X5832039Y-14035436D02*
X5841563Y-14025912D01*
X5946325Y-14140198D02*
X5927277Y-14130674D01*
X5927277Y-14130674D02*
X5917753Y-14121150D01*
X5917753Y-14121150D02*
X5908229Y-14102103D01*
X5908229Y-14102103D02*
X5908229Y-14092579D01*
X5908229Y-14092579D02*
X5917753Y-14073531D01*
X5917753Y-14073531D02*
X5927277Y-14064008D01*
X5927277Y-14064008D02*
X5946325Y-14054484D01*
X5946325Y-14054484D02*
X5984420Y-14054484D01*
X5984420Y-14054484D02*
X6003468Y-14064008D01*
X6003468Y-14064008D02*
X6012991Y-14073531D01*
X6012991Y-14073531D02*
X6022515Y-14092579D01*
X6022515Y-14092579D02*
X6022515Y-14102103D01*
X6022515Y-14102103D02*
X6012991Y-14121150D01*
X6012991Y-14121150D02*
X6003468Y-14130674D01*
X6003468Y-14130674D02*
X5984420Y-14140198D01*
X5984420Y-14140198D02*
X5946325Y-14140198D01*
X5946325Y-14140198D02*
X5927277Y-14149722D01*
X5927277Y-14149722D02*
X5917753Y-14159246D01*
X5917753Y-14159246D02*
X5908229Y-14178293D01*
X5908229Y-14178293D02*
X5908229Y-14216388D01*
X5908229Y-14216388D02*
X5917753Y-14235436D01*
X5917753Y-14235436D02*
X5927277Y-14244960D01*
X5927277Y-14244960D02*
X5946325Y-14254484D01*
X5946325Y-14254484D02*
X5984420Y-14254484D01*
X5984420Y-14254484D02*
X6003468Y-14244960D01*
X6003468Y-14244960D02*
X6012991Y-14235436D01*
X6012991Y-14235436D02*
X6022515Y-14216388D01*
X6022515Y-14216388D02*
X6022515Y-14178293D01*
X6022515Y-14178293D02*
X6012991Y-14159246D01*
X6012991Y-14159246D02*
X6003468Y-14149722D01*
X6003468Y-14149722D02*
X5984420Y-14140198D01*
X6260610Y-14254484D02*
X6260610Y-14054484D01*
X6346325Y-14254484D02*
X6346325Y-14149722D01*
X6346325Y-14149722D02*
X6336801Y-14130674D01*
X6336801Y-14130674D02*
X6317753Y-14121150D01*
X6317753Y-14121150D02*
X6289182Y-14121150D01*
X6289182Y-14121150D02*
X6270134Y-14130674D01*
X6270134Y-14130674D02*
X6260610Y-14140198D01*
X6470134Y-14254484D02*
X6451087Y-14244960D01*
X6451087Y-14244960D02*
X6441563Y-14235436D01*
X6441563Y-14235436D02*
X6432039Y-14216388D01*
X6432039Y-14216388D02*
X6432039Y-14159246D01*
X6432039Y-14159246D02*
X6441563Y-14140198D01*
X6441563Y-14140198D02*
X6451087Y-14130674D01*
X6451087Y-14130674D02*
X6470134Y-14121150D01*
X6470134Y-14121150D02*
X6498706Y-14121150D01*
X6498706Y-14121150D02*
X6517753Y-14130674D01*
X6517753Y-14130674D02*
X6527277Y-14140198D01*
X6527277Y-14140198D02*
X6536801Y-14159246D01*
X6536801Y-14159246D02*
X6536801Y-14216388D01*
X6536801Y-14216388D02*
X6527277Y-14235436D01*
X6527277Y-14235436D02*
X6517753Y-14244960D01*
X6517753Y-14244960D02*
X6498706Y-14254484D01*
X6498706Y-14254484D02*
X6470134Y-14254484D01*
X6651087Y-14254484D02*
X6632039Y-14244960D01*
X6632039Y-14244960D02*
X6622515Y-14225912D01*
X6622515Y-14225912D02*
X6622515Y-14054484D01*
X6803468Y-14244960D02*
X6784420Y-14254484D01*
X6784420Y-14254484D02*
X6746325Y-14254484D01*
X6746325Y-14254484D02*
X6727277Y-14244960D01*
X6727277Y-14244960D02*
X6717753Y-14225912D01*
X6717753Y-14225912D02*
X6717753Y-14149722D01*
X6717753Y-14149722D02*
X6727277Y-14130674D01*
X6727277Y-14130674D02*
X6746325Y-14121150D01*
X6746325Y-14121150D02*
X6784420Y-14121150D01*
X6784420Y-14121150D02*
X6803468Y-14130674D01*
X6803468Y-14130674D02*
X6812991Y-14149722D01*
X6812991Y-14149722D02*
X6812991Y-14168769D01*
X6812991Y-14168769D02*
X6717753Y-14187817D01*
X6889182Y-14244960D02*
X6908230Y-14254484D01*
X6908230Y-14254484D02*
X6946325Y-14254484D01*
X6946325Y-14254484D02*
X6965372Y-14244960D01*
X6965372Y-14244960D02*
X6974896Y-14225912D01*
X6974896Y-14225912D02*
X6974896Y-14216388D01*
X6974896Y-14216388D02*
X6965372Y-14197341D01*
X6965372Y-14197341D02*
X6946325Y-14187817D01*
X6946325Y-14187817D02*
X6917753Y-14187817D01*
X6917753Y-14187817D02*
X6898706Y-14178293D01*
X6898706Y-14178293D02*
X6889182Y-14159246D01*
X6889182Y-14159246D02*
X6889182Y-14149722D01*
X6889182Y-14149722D02*
X6898706Y-14130674D01*
X6898706Y-14130674D02*
X6917753Y-14121150D01*
X6917753Y-14121150D02*
X6946325Y-14121150D01*
X6946325Y-14121150D02*
X6965372Y-14130674D01*
X7041563Y-14330674D02*
X7051087Y-14321150D01*
X7051087Y-14321150D02*
X7070134Y-14292579D01*
X7070134Y-14292579D02*
X7079658Y-14273531D01*
X7079658Y-14273531D02*
X7089182Y-14244960D01*
X7089182Y-14244960D02*
X7098706Y-14197341D01*
X7098706Y-14197341D02*
X7098706Y-14159246D01*
X7098706Y-14159246D02*
X7089182Y-14111627D01*
X7089182Y-14111627D02*
X7079658Y-14083055D01*
X7079658Y-14083055D02*
X7070134Y-14064008D01*
X7070134Y-14064008D02*
X7051087Y-14035436D01*
X7051087Y-14035436D02*
X7041563Y-14025912D01*
D13*
X2116500Y-14352000D02*
X2266500Y-14502000D01*
X2266500Y-14352000D02*
X2116500Y-14502000D01*
X2266500Y-14427000D02*
G75*
G03*
X2266500Y-14427000I-75000J0D01*
G01*
D10*
X2632039Y-14518484D02*
X2517753Y-14518484D01*
X2574896Y-14518484D02*
X2574896Y-14318484D01*
X2574896Y-14318484D02*
X2555848Y-14347055D01*
X2555848Y-14347055D02*
X2536801Y-14366103D01*
X2536801Y-14366103D02*
X2517753Y-14375627D01*
X2717753Y-14499436D02*
X2727277Y-14508960D01*
X2727277Y-14508960D02*
X2717753Y-14518484D01*
X2717753Y-14518484D02*
X2708229Y-14508960D01*
X2708229Y-14508960D02*
X2717753Y-14499436D01*
X2717753Y-14499436D02*
X2717753Y-14518484D01*
X2908229Y-14318484D02*
X2812991Y-14318484D01*
X2812991Y-14318484D02*
X2803467Y-14413722D01*
X2803467Y-14413722D02*
X2812991Y-14404198D01*
X2812991Y-14404198D02*
X2832039Y-14394674D01*
X2832039Y-14394674D02*
X2879658Y-14394674D01*
X2879658Y-14394674D02*
X2898705Y-14404198D01*
X2898705Y-14404198D02*
X2908229Y-14413722D01*
X2908229Y-14413722D02*
X2917753Y-14432769D01*
X2917753Y-14432769D02*
X2917753Y-14480388D01*
X2917753Y-14480388D02*
X2908229Y-14499436D01*
X2908229Y-14499436D02*
X2898705Y-14508960D01*
X2898705Y-14508960D02*
X2879658Y-14518484D01*
X2879658Y-14518484D02*
X2832039Y-14518484D01*
X2832039Y-14518484D02*
X2812991Y-14508960D01*
X2812991Y-14508960D02*
X2803467Y-14499436D01*
X3041562Y-14318484D02*
X3060610Y-14318484D01*
X3060610Y-14318484D02*
X3079658Y-14328008D01*
X3079658Y-14328008D02*
X3089182Y-14337531D01*
X3089182Y-14337531D02*
X3098705Y-14356579D01*
X3098705Y-14356579D02*
X3108229Y-14394674D01*
X3108229Y-14394674D02*
X3108229Y-14442293D01*
X3108229Y-14442293D02*
X3098705Y-14480388D01*
X3098705Y-14480388D02*
X3089182Y-14499436D01*
X3089182Y-14499436D02*
X3079658Y-14508960D01*
X3079658Y-14508960D02*
X3060610Y-14518484D01*
X3060610Y-14518484D02*
X3041562Y-14518484D01*
X3041562Y-14518484D02*
X3022515Y-14508960D01*
X3022515Y-14508960D02*
X3012991Y-14499436D01*
X3012991Y-14499436D02*
X3003467Y-14480388D01*
X3003467Y-14480388D02*
X2993943Y-14442293D01*
X2993943Y-14442293D02*
X2993943Y-14394674D01*
X2993943Y-14394674D02*
X3003467Y-14356579D01*
X3003467Y-14356579D02*
X3012991Y-14337531D01*
X3012991Y-14337531D02*
X3022515Y-14328008D01*
X3022515Y-14328008D02*
X3041562Y-14318484D01*
X3232039Y-14318484D02*
X3251086Y-14318484D01*
X3251086Y-14318484D02*
X3270134Y-14328008D01*
X3270134Y-14328008D02*
X3279658Y-14337531D01*
X3279658Y-14337531D02*
X3289182Y-14356579D01*
X3289182Y-14356579D02*
X3298705Y-14394674D01*
X3298705Y-14394674D02*
X3298705Y-14442293D01*
X3298705Y-14442293D02*
X3289182Y-14480388D01*
X3289182Y-14480388D02*
X3279658Y-14499436D01*
X3279658Y-14499436D02*
X3270134Y-14508960D01*
X3270134Y-14508960D02*
X3251086Y-14518484D01*
X3251086Y-14518484D02*
X3232039Y-14518484D01*
X3232039Y-14518484D02*
X3212991Y-14508960D01*
X3212991Y-14508960D02*
X3203467Y-14499436D01*
X3203467Y-14499436D02*
X3193943Y-14480388D01*
X3193943Y-14480388D02*
X3184420Y-14442293D01*
X3184420Y-14442293D02*
X3184420Y-14394674D01*
X3184420Y-14394674D02*
X3193943Y-14356579D01*
X3193943Y-14356579D02*
X3203467Y-14337531D01*
X3203467Y-14337531D02*
X3212991Y-14328008D01*
X3212991Y-14328008D02*
X3232039Y-14318484D01*
X3384420Y-14518484D02*
X3384420Y-14385150D01*
X3384420Y-14404198D02*
X3393943Y-14394674D01*
X3393943Y-14394674D02*
X3412991Y-14385150D01*
X3412991Y-14385150D02*
X3441563Y-14385150D01*
X3441563Y-14385150D02*
X3460610Y-14394674D01*
X3460610Y-14394674D02*
X3470134Y-14413722D01*
X3470134Y-14413722D02*
X3470134Y-14518484D01*
X3470134Y-14413722D02*
X3479658Y-14394674D01*
X3479658Y-14394674D02*
X3498705Y-14385150D01*
X3498705Y-14385150D02*
X3527277Y-14385150D01*
X3527277Y-14385150D02*
X3546324Y-14394674D01*
X3546324Y-14394674D02*
X3555848Y-14413722D01*
X3555848Y-14413722D02*
X3555848Y-14518484D01*
X3651086Y-14518484D02*
X3651086Y-14385150D01*
X3651086Y-14404198D02*
X3660610Y-14394674D01*
X3660610Y-14394674D02*
X3679658Y-14385150D01*
X3679658Y-14385150D02*
X3708229Y-14385150D01*
X3708229Y-14385150D02*
X3727277Y-14394674D01*
X3727277Y-14394674D02*
X3736801Y-14413722D01*
X3736801Y-14413722D02*
X3736801Y-14518484D01*
X3736801Y-14413722D02*
X3746324Y-14394674D01*
X3746324Y-14394674D02*
X3765372Y-14385150D01*
X3765372Y-14385150D02*
X3793943Y-14385150D01*
X3793943Y-14385150D02*
X3812991Y-14394674D01*
X3812991Y-14394674D02*
X3822515Y-14413722D01*
X3822515Y-14413722D02*
X3822515Y-14518484D01*
X4212991Y-14308960D02*
X4041563Y-14566103D01*
X4470134Y-14318484D02*
X4489182Y-14318484D01*
X4489182Y-14318484D02*
X4508229Y-14328008D01*
X4508229Y-14328008D02*
X4517753Y-14337531D01*
X4517753Y-14337531D02*
X4527277Y-14356579D01*
X4527277Y-14356579D02*
X4536801Y-14394674D01*
X4536801Y-14394674D02*
X4536801Y-14442293D01*
X4536801Y-14442293D02*
X4527277Y-14480388D01*
X4527277Y-14480388D02*
X4517753Y-14499436D01*
X4517753Y-14499436D02*
X4508229Y-14508960D01*
X4508229Y-14508960D02*
X4489182Y-14518484D01*
X4489182Y-14518484D02*
X4470134Y-14518484D01*
X4470134Y-14518484D02*
X4451087Y-14508960D01*
X4451087Y-14508960D02*
X4441563Y-14499436D01*
X4441563Y-14499436D02*
X4432039Y-14480388D01*
X4432039Y-14480388D02*
X4422515Y-14442293D01*
X4422515Y-14442293D02*
X4422515Y-14394674D01*
X4422515Y-14394674D02*
X4432039Y-14356579D01*
X4432039Y-14356579D02*
X4441563Y-14337531D01*
X4441563Y-14337531D02*
X4451087Y-14328008D01*
X4451087Y-14328008D02*
X4470134Y-14318484D01*
X4622515Y-14499436D02*
X4632039Y-14508960D01*
X4632039Y-14508960D02*
X4622515Y-14518484D01*
X4622515Y-14518484D02*
X4612991Y-14508960D01*
X4612991Y-14508960D02*
X4622515Y-14499436D01*
X4622515Y-14499436D02*
X4622515Y-14518484D01*
X4755848Y-14318484D02*
X4774896Y-14318484D01*
X4774896Y-14318484D02*
X4793944Y-14328008D01*
X4793944Y-14328008D02*
X4803468Y-14337531D01*
X4803468Y-14337531D02*
X4812991Y-14356579D01*
X4812991Y-14356579D02*
X4822515Y-14394674D01*
X4822515Y-14394674D02*
X4822515Y-14442293D01*
X4822515Y-14442293D02*
X4812991Y-14480388D01*
X4812991Y-14480388D02*
X4803468Y-14499436D01*
X4803468Y-14499436D02*
X4793944Y-14508960D01*
X4793944Y-14508960D02*
X4774896Y-14518484D01*
X4774896Y-14518484D02*
X4755848Y-14518484D01*
X4755848Y-14518484D02*
X4736801Y-14508960D01*
X4736801Y-14508960D02*
X4727277Y-14499436D01*
X4727277Y-14499436D02*
X4717753Y-14480388D01*
X4717753Y-14480388D02*
X4708229Y-14442293D01*
X4708229Y-14442293D02*
X4708229Y-14394674D01*
X4708229Y-14394674D02*
X4717753Y-14356579D01*
X4717753Y-14356579D02*
X4727277Y-14337531D01*
X4727277Y-14337531D02*
X4736801Y-14328008D01*
X4736801Y-14328008D02*
X4755848Y-14318484D01*
X5003468Y-14318484D02*
X4908229Y-14318484D01*
X4908229Y-14318484D02*
X4898706Y-14413722D01*
X4898706Y-14413722D02*
X4908229Y-14404198D01*
X4908229Y-14404198D02*
X4927277Y-14394674D01*
X4927277Y-14394674D02*
X4974896Y-14394674D01*
X4974896Y-14394674D02*
X4993944Y-14404198D01*
X4993944Y-14404198D02*
X5003468Y-14413722D01*
X5003468Y-14413722D02*
X5012991Y-14432769D01*
X5012991Y-14432769D02*
X5012991Y-14480388D01*
X5012991Y-14480388D02*
X5003468Y-14499436D01*
X5003468Y-14499436D02*
X4993944Y-14508960D01*
X4993944Y-14508960D02*
X4974896Y-14518484D01*
X4974896Y-14518484D02*
X4927277Y-14518484D01*
X4927277Y-14518484D02*
X4908229Y-14508960D01*
X4908229Y-14508960D02*
X4898706Y-14499436D01*
X5108229Y-14518484D02*
X5146325Y-14518484D01*
X5146325Y-14518484D02*
X5165372Y-14508960D01*
X5165372Y-14508960D02*
X5174896Y-14499436D01*
X5174896Y-14499436D02*
X5193944Y-14470865D01*
X5193944Y-14470865D02*
X5203468Y-14432769D01*
X5203468Y-14432769D02*
X5203468Y-14356579D01*
X5203468Y-14356579D02*
X5193944Y-14337531D01*
X5193944Y-14337531D02*
X5184420Y-14328008D01*
X5184420Y-14328008D02*
X5165372Y-14318484D01*
X5165372Y-14318484D02*
X5127277Y-14318484D01*
X5127277Y-14318484D02*
X5108229Y-14328008D01*
X5108229Y-14328008D02*
X5098706Y-14337531D01*
X5098706Y-14337531D02*
X5089182Y-14356579D01*
X5089182Y-14356579D02*
X5089182Y-14404198D01*
X5089182Y-14404198D02*
X5098706Y-14423246D01*
X5098706Y-14423246D02*
X5108229Y-14432769D01*
X5108229Y-14432769D02*
X5127277Y-14442293D01*
X5127277Y-14442293D02*
X5165372Y-14442293D01*
X5165372Y-14442293D02*
X5184420Y-14432769D01*
X5184420Y-14432769D02*
X5193944Y-14423246D01*
X5193944Y-14423246D02*
X5203468Y-14404198D01*
X5393944Y-14518484D02*
X5279658Y-14518484D01*
X5336801Y-14518484D02*
X5336801Y-14318484D01*
X5336801Y-14318484D02*
X5317753Y-14347055D01*
X5317753Y-14347055D02*
X5298706Y-14366103D01*
X5298706Y-14366103D02*
X5279658Y-14375627D01*
X5470134Y-14318484D02*
X5470134Y-14356579D01*
X5546325Y-14318484D02*
X5546325Y-14356579D01*
X5841563Y-14594674D02*
X5832039Y-14585150D01*
X5832039Y-14585150D02*
X5812991Y-14556579D01*
X5812991Y-14556579D02*
X5803468Y-14537531D01*
X5803468Y-14537531D02*
X5793944Y-14508960D01*
X5793944Y-14508960D02*
X5784420Y-14461341D01*
X5784420Y-14461341D02*
X5784420Y-14423246D01*
X5784420Y-14423246D02*
X5793944Y-14375627D01*
X5793944Y-14375627D02*
X5803468Y-14347055D01*
X5803468Y-14347055D02*
X5812991Y-14328008D01*
X5812991Y-14328008D02*
X5832039Y-14299436D01*
X5832039Y-14299436D02*
X5841563Y-14289912D01*
X5898706Y-14318484D02*
X6022515Y-14318484D01*
X6022515Y-14318484D02*
X5955848Y-14394674D01*
X5955848Y-14394674D02*
X5984420Y-14394674D01*
X5984420Y-14394674D02*
X6003468Y-14404198D01*
X6003468Y-14404198D02*
X6012991Y-14413722D01*
X6012991Y-14413722D02*
X6022515Y-14432769D01*
X6022515Y-14432769D02*
X6022515Y-14480388D01*
X6022515Y-14480388D02*
X6012991Y-14499436D01*
X6012991Y-14499436D02*
X6003468Y-14508960D01*
X6003468Y-14508960D02*
X5984420Y-14518484D01*
X5984420Y-14518484D02*
X5927277Y-14518484D01*
X5927277Y-14518484D02*
X5908229Y-14508960D01*
X5908229Y-14508960D02*
X5898706Y-14499436D01*
X6260610Y-14518484D02*
X6260610Y-14318484D01*
X6346325Y-14518484D02*
X6346325Y-14413722D01*
X6346325Y-14413722D02*
X6336801Y-14394674D01*
X6336801Y-14394674D02*
X6317753Y-14385150D01*
X6317753Y-14385150D02*
X6289182Y-14385150D01*
X6289182Y-14385150D02*
X6270134Y-14394674D01*
X6270134Y-14394674D02*
X6260610Y-14404198D01*
X6470134Y-14518484D02*
X6451087Y-14508960D01*
X6451087Y-14508960D02*
X6441563Y-14499436D01*
X6441563Y-14499436D02*
X6432039Y-14480388D01*
X6432039Y-14480388D02*
X6432039Y-14423246D01*
X6432039Y-14423246D02*
X6441563Y-14404198D01*
X6441563Y-14404198D02*
X6451087Y-14394674D01*
X6451087Y-14394674D02*
X6470134Y-14385150D01*
X6470134Y-14385150D02*
X6498706Y-14385150D01*
X6498706Y-14385150D02*
X6517753Y-14394674D01*
X6517753Y-14394674D02*
X6527277Y-14404198D01*
X6527277Y-14404198D02*
X6536801Y-14423246D01*
X6536801Y-14423246D02*
X6536801Y-14480388D01*
X6536801Y-14480388D02*
X6527277Y-14499436D01*
X6527277Y-14499436D02*
X6517753Y-14508960D01*
X6517753Y-14508960D02*
X6498706Y-14518484D01*
X6498706Y-14518484D02*
X6470134Y-14518484D01*
X6651087Y-14518484D02*
X6632039Y-14508960D01*
X6632039Y-14508960D02*
X6622515Y-14489912D01*
X6622515Y-14489912D02*
X6622515Y-14318484D01*
X6803468Y-14508960D02*
X6784420Y-14518484D01*
X6784420Y-14518484D02*
X6746325Y-14518484D01*
X6746325Y-14518484D02*
X6727277Y-14508960D01*
X6727277Y-14508960D02*
X6717753Y-14489912D01*
X6717753Y-14489912D02*
X6717753Y-14413722D01*
X6717753Y-14413722D02*
X6727277Y-14394674D01*
X6727277Y-14394674D02*
X6746325Y-14385150D01*
X6746325Y-14385150D02*
X6784420Y-14385150D01*
X6784420Y-14385150D02*
X6803468Y-14394674D01*
X6803468Y-14394674D02*
X6812991Y-14413722D01*
X6812991Y-14413722D02*
X6812991Y-14432769D01*
X6812991Y-14432769D02*
X6717753Y-14451817D01*
X6889182Y-14508960D02*
X6908230Y-14518484D01*
X6908230Y-14518484D02*
X6946325Y-14518484D01*
X6946325Y-14518484D02*
X6965372Y-14508960D01*
X6965372Y-14508960D02*
X6974896Y-14489912D01*
X6974896Y-14489912D02*
X6974896Y-14480388D01*
X6974896Y-14480388D02*
X6965372Y-14461341D01*
X6965372Y-14461341D02*
X6946325Y-14451817D01*
X6946325Y-14451817D02*
X6917753Y-14451817D01*
X6917753Y-14451817D02*
X6898706Y-14442293D01*
X6898706Y-14442293D02*
X6889182Y-14423246D01*
X6889182Y-14423246D02*
X6889182Y-14413722D01*
X6889182Y-14413722D02*
X6898706Y-14394674D01*
X6898706Y-14394674D02*
X6917753Y-14385150D01*
X6917753Y-14385150D02*
X6946325Y-14385150D01*
X6946325Y-14385150D02*
X6965372Y-14394674D01*
X7041563Y-14594674D02*
X7051087Y-14585150D01*
X7051087Y-14585150D02*
X7070134Y-14556579D01*
X7070134Y-14556579D02*
X7079658Y-14537531D01*
X7079658Y-14537531D02*
X7089182Y-14508960D01*
X7089182Y-14508960D02*
X7098706Y-14461341D01*
X7098706Y-14461341D02*
X7098706Y-14423246D01*
X7098706Y-14423246D02*
X7089182Y-14375627D01*
X7089182Y-14375627D02*
X7079658Y-14347055D01*
X7079658Y-14347055D02*
X7070134Y-14328008D01*
X7070134Y-14328008D02*
X7051087Y-14299436D01*
X7051087Y-14299436D02*
X7041563Y-14289912D01*
D14*
X2086500Y-14607000D02*
X2266500Y-14787000D01*
X2266500Y-14607000D02*
X2086500Y-14787000D01*
X2176500Y-14607000D02*
X2176500Y-14787000D01*
X2086500Y-14697000D02*
X2266500Y-14697000D01*
D10*
X2632039Y-14788484D02*
X2517753Y-14788484D01*
X2574896Y-14788484D02*
X2574896Y-14588484D01*
X2574896Y-14588484D02*
X2555848Y-14617055D01*
X2555848Y-14617055D02*
X2536801Y-14636103D01*
X2536801Y-14636103D02*
X2517753Y-14645627D01*
X2717753Y-14769436D02*
X2727277Y-14778960D01*
X2727277Y-14778960D02*
X2717753Y-14788484D01*
X2717753Y-14788484D02*
X2708229Y-14778960D01*
X2708229Y-14778960D02*
X2717753Y-14769436D01*
X2717753Y-14769436D02*
X2717753Y-14788484D01*
X2841562Y-14674198D02*
X2822515Y-14664674D01*
X2822515Y-14664674D02*
X2812991Y-14655150D01*
X2812991Y-14655150D02*
X2803467Y-14636103D01*
X2803467Y-14636103D02*
X2803467Y-14626579D01*
X2803467Y-14626579D02*
X2812991Y-14607531D01*
X2812991Y-14607531D02*
X2822515Y-14598008D01*
X2822515Y-14598008D02*
X2841562Y-14588484D01*
X2841562Y-14588484D02*
X2879658Y-14588484D01*
X2879658Y-14588484D02*
X2898705Y-14598008D01*
X2898705Y-14598008D02*
X2908229Y-14607531D01*
X2908229Y-14607531D02*
X2917753Y-14626579D01*
X2917753Y-14626579D02*
X2917753Y-14636103D01*
X2917753Y-14636103D02*
X2908229Y-14655150D01*
X2908229Y-14655150D02*
X2898705Y-14664674D01*
X2898705Y-14664674D02*
X2879658Y-14674198D01*
X2879658Y-14674198D02*
X2841562Y-14674198D01*
X2841562Y-14674198D02*
X2822515Y-14683722D01*
X2822515Y-14683722D02*
X2812991Y-14693246D01*
X2812991Y-14693246D02*
X2803467Y-14712293D01*
X2803467Y-14712293D02*
X2803467Y-14750388D01*
X2803467Y-14750388D02*
X2812991Y-14769436D01*
X2812991Y-14769436D02*
X2822515Y-14778960D01*
X2822515Y-14778960D02*
X2841562Y-14788484D01*
X2841562Y-14788484D02*
X2879658Y-14788484D01*
X2879658Y-14788484D02*
X2898705Y-14778960D01*
X2898705Y-14778960D02*
X2908229Y-14769436D01*
X2908229Y-14769436D02*
X2917753Y-14750388D01*
X2917753Y-14750388D02*
X2917753Y-14712293D01*
X2917753Y-14712293D02*
X2908229Y-14693246D01*
X2908229Y-14693246D02*
X2898705Y-14683722D01*
X2898705Y-14683722D02*
X2879658Y-14674198D01*
X3041562Y-14588484D02*
X3060610Y-14588484D01*
X3060610Y-14588484D02*
X3079658Y-14598008D01*
X3079658Y-14598008D02*
X3089182Y-14607531D01*
X3089182Y-14607531D02*
X3098705Y-14626579D01*
X3098705Y-14626579D02*
X3108229Y-14664674D01*
X3108229Y-14664674D02*
X3108229Y-14712293D01*
X3108229Y-14712293D02*
X3098705Y-14750388D01*
X3098705Y-14750388D02*
X3089182Y-14769436D01*
X3089182Y-14769436D02*
X3079658Y-14778960D01*
X3079658Y-14778960D02*
X3060610Y-14788484D01*
X3060610Y-14788484D02*
X3041562Y-14788484D01*
X3041562Y-14788484D02*
X3022515Y-14778960D01*
X3022515Y-14778960D02*
X3012991Y-14769436D01*
X3012991Y-14769436D02*
X3003467Y-14750388D01*
X3003467Y-14750388D02*
X2993943Y-14712293D01*
X2993943Y-14712293D02*
X2993943Y-14664674D01*
X2993943Y-14664674D02*
X3003467Y-14626579D01*
X3003467Y-14626579D02*
X3012991Y-14607531D01*
X3012991Y-14607531D02*
X3022515Y-14598008D01*
X3022515Y-14598008D02*
X3041562Y-14588484D01*
X3232039Y-14588484D02*
X3251086Y-14588484D01*
X3251086Y-14588484D02*
X3270134Y-14598008D01*
X3270134Y-14598008D02*
X3279658Y-14607531D01*
X3279658Y-14607531D02*
X3289182Y-14626579D01*
X3289182Y-14626579D02*
X3298705Y-14664674D01*
X3298705Y-14664674D02*
X3298705Y-14712293D01*
X3298705Y-14712293D02*
X3289182Y-14750388D01*
X3289182Y-14750388D02*
X3279658Y-14769436D01*
X3279658Y-14769436D02*
X3270134Y-14778960D01*
X3270134Y-14778960D02*
X3251086Y-14788484D01*
X3251086Y-14788484D02*
X3232039Y-14788484D01*
X3232039Y-14788484D02*
X3212991Y-14778960D01*
X3212991Y-14778960D02*
X3203467Y-14769436D01*
X3203467Y-14769436D02*
X3193943Y-14750388D01*
X3193943Y-14750388D02*
X3184420Y-14712293D01*
X3184420Y-14712293D02*
X3184420Y-14664674D01*
X3184420Y-14664674D02*
X3193943Y-14626579D01*
X3193943Y-14626579D02*
X3203467Y-14607531D01*
X3203467Y-14607531D02*
X3212991Y-14598008D01*
X3212991Y-14598008D02*
X3232039Y-14588484D01*
X3384420Y-14788484D02*
X3384420Y-14655150D01*
X3384420Y-14674198D02*
X3393943Y-14664674D01*
X3393943Y-14664674D02*
X3412991Y-14655150D01*
X3412991Y-14655150D02*
X3441563Y-14655150D01*
X3441563Y-14655150D02*
X3460610Y-14664674D01*
X3460610Y-14664674D02*
X3470134Y-14683722D01*
X3470134Y-14683722D02*
X3470134Y-14788484D01*
X3470134Y-14683722D02*
X3479658Y-14664674D01*
X3479658Y-14664674D02*
X3498705Y-14655150D01*
X3498705Y-14655150D02*
X3527277Y-14655150D01*
X3527277Y-14655150D02*
X3546324Y-14664674D01*
X3546324Y-14664674D02*
X3555848Y-14683722D01*
X3555848Y-14683722D02*
X3555848Y-14788484D01*
X3651086Y-14788484D02*
X3651086Y-14655150D01*
X3651086Y-14674198D02*
X3660610Y-14664674D01*
X3660610Y-14664674D02*
X3679658Y-14655150D01*
X3679658Y-14655150D02*
X3708229Y-14655150D01*
X3708229Y-14655150D02*
X3727277Y-14664674D01*
X3727277Y-14664674D02*
X3736801Y-14683722D01*
X3736801Y-14683722D02*
X3736801Y-14788484D01*
X3736801Y-14683722D02*
X3746324Y-14664674D01*
X3746324Y-14664674D02*
X3765372Y-14655150D01*
X3765372Y-14655150D02*
X3793943Y-14655150D01*
X3793943Y-14655150D02*
X3812991Y-14664674D01*
X3812991Y-14664674D02*
X3822515Y-14683722D01*
X3822515Y-14683722D02*
X3822515Y-14788484D01*
X4212991Y-14578960D02*
X4041563Y-14836103D01*
X4470134Y-14588484D02*
X4489182Y-14588484D01*
X4489182Y-14588484D02*
X4508229Y-14598008D01*
X4508229Y-14598008D02*
X4517753Y-14607531D01*
X4517753Y-14607531D02*
X4527277Y-14626579D01*
X4527277Y-14626579D02*
X4536801Y-14664674D01*
X4536801Y-14664674D02*
X4536801Y-14712293D01*
X4536801Y-14712293D02*
X4527277Y-14750388D01*
X4527277Y-14750388D02*
X4517753Y-14769436D01*
X4517753Y-14769436D02*
X4508229Y-14778960D01*
X4508229Y-14778960D02*
X4489182Y-14788484D01*
X4489182Y-14788484D02*
X4470134Y-14788484D01*
X4470134Y-14788484D02*
X4451087Y-14778960D01*
X4451087Y-14778960D02*
X4441563Y-14769436D01*
X4441563Y-14769436D02*
X4432039Y-14750388D01*
X4432039Y-14750388D02*
X4422515Y-14712293D01*
X4422515Y-14712293D02*
X4422515Y-14664674D01*
X4422515Y-14664674D02*
X4432039Y-14626579D01*
X4432039Y-14626579D02*
X4441563Y-14607531D01*
X4441563Y-14607531D02*
X4451087Y-14598008D01*
X4451087Y-14598008D02*
X4470134Y-14588484D01*
X4622515Y-14769436D02*
X4632039Y-14778960D01*
X4632039Y-14778960D02*
X4622515Y-14788484D01*
X4622515Y-14788484D02*
X4612991Y-14778960D01*
X4612991Y-14778960D02*
X4622515Y-14769436D01*
X4622515Y-14769436D02*
X4622515Y-14788484D01*
X4755848Y-14588484D02*
X4774896Y-14588484D01*
X4774896Y-14588484D02*
X4793944Y-14598008D01*
X4793944Y-14598008D02*
X4803468Y-14607531D01*
X4803468Y-14607531D02*
X4812991Y-14626579D01*
X4812991Y-14626579D02*
X4822515Y-14664674D01*
X4822515Y-14664674D02*
X4822515Y-14712293D01*
X4822515Y-14712293D02*
X4812991Y-14750388D01*
X4812991Y-14750388D02*
X4803468Y-14769436D01*
X4803468Y-14769436D02*
X4793944Y-14778960D01*
X4793944Y-14778960D02*
X4774896Y-14788484D01*
X4774896Y-14788484D02*
X4755848Y-14788484D01*
X4755848Y-14788484D02*
X4736801Y-14778960D01*
X4736801Y-14778960D02*
X4727277Y-14769436D01*
X4727277Y-14769436D02*
X4717753Y-14750388D01*
X4717753Y-14750388D02*
X4708229Y-14712293D01*
X4708229Y-14712293D02*
X4708229Y-14664674D01*
X4708229Y-14664674D02*
X4717753Y-14626579D01*
X4717753Y-14626579D02*
X4727277Y-14607531D01*
X4727277Y-14607531D02*
X4736801Y-14598008D01*
X4736801Y-14598008D02*
X4755848Y-14588484D01*
X4889182Y-14588484D02*
X5022515Y-14588484D01*
X5022515Y-14588484D02*
X4936801Y-14788484D01*
X5136801Y-14588484D02*
X5155849Y-14588484D01*
X5155849Y-14588484D02*
X5174896Y-14598008D01*
X5174896Y-14598008D02*
X5184420Y-14607531D01*
X5184420Y-14607531D02*
X5193944Y-14626579D01*
X5193944Y-14626579D02*
X5203468Y-14664674D01*
X5203468Y-14664674D02*
X5203468Y-14712293D01*
X5203468Y-14712293D02*
X5193944Y-14750388D01*
X5193944Y-14750388D02*
X5184420Y-14769436D01*
X5184420Y-14769436D02*
X5174896Y-14778960D01*
X5174896Y-14778960D02*
X5155849Y-14788484D01*
X5155849Y-14788484D02*
X5136801Y-14788484D01*
X5136801Y-14788484D02*
X5117753Y-14778960D01*
X5117753Y-14778960D02*
X5108229Y-14769436D01*
X5108229Y-14769436D02*
X5098706Y-14750388D01*
X5098706Y-14750388D02*
X5089182Y-14712293D01*
X5089182Y-14712293D02*
X5089182Y-14664674D01*
X5089182Y-14664674D02*
X5098706Y-14626579D01*
X5098706Y-14626579D02*
X5108229Y-14607531D01*
X5108229Y-14607531D02*
X5117753Y-14598008D01*
X5117753Y-14598008D02*
X5136801Y-14588484D01*
X5298706Y-14788484D02*
X5336801Y-14788484D01*
X5336801Y-14788484D02*
X5355849Y-14778960D01*
X5355849Y-14778960D02*
X5365372Y-14769436D01*
X5365372Y-14769436D02*
X5384420Y-14740865D01*
X5384420Y-14740865D02*
X5393944Y-14702769D01*
X5393944Y-14702769D02*
X5393944Y-14626579D01*
X5393944Y-14626579D02*
X5384420Y-14607531D01*
X5384420Y-14607531D02*
X5374896Y-14598008D01*
X5374896Y-14598008D02*
X5355849Y-14588484D01*
X5355849Y-14588484D02*
X5317753Y-14588484D01*
X5317753Y-14588484D02*
X5298706Y-14598008D01*
X5298706Y-14598008D02*
X5289182Y-14607531D01*
X5289182Y-14607531D02*
X5279658Y-14626579D01*
X5279658Y-14626579D02*
X5279658Y-14674198D01*
X5279658Y-14674198D02*
X5289182Y-14693246D01*
X5289182Y-14693246D02*
X5298706Y-14702769D01*
X5298706Y-14702769D02*
X5317753Y-14712293D01*
X5317753Y-14712293D02*
X5355849Y-14712293D01*
X5355849Y-14712293D02*
X5374896Y-14702769D01*
X5374896Y-14702769D02*
X5384420Y-14693246D01*
X5384420Y-14693246D02*
X5393944Y-14674198D01*
X5470134Y-14588484D02*
X5470134Y-14626579D01*
X5546325Y-14588484D02*
X5546325Y-14626579D01*
X5841563Y-14864674D02*
X5832039Y-14855150D01*
X5832039Y-14855150D02*
X5812991Y-14826579D01*
X5812991Y-14826579D02*
X5803468Y-14807531D01*
X5803468Y-14807531D02*
X5793944Y-14778960D01*
X5793944Y-14778960D02*
X5784420Y-14731341D01*
X5784420Y-14731341D02*
X5784420Y-14693246D01*
X5784420Y-14693246D02*
X5793944Y-14645627D01*
X5793944Y-14645627D02*
X5803468Y-14617055D01*
X5803468Y-14617055D02*
X5812991Y-14598008D01*
X5812991Y-14598008D02*
X5832039Y-14569436D01*
X5832039Y-14569436D02*
X5841563Y-14559912D01*
X6003468Y-14588484D02*
X5965372Y-14588484D01*
X5965372Y-14588484D02*
X5946325Y-14598008D01*
X5946325Y-14598008D02*
X5936801Y-14607531D01*
X5936801Y-14607531D02*
X5917753Y-14636103D01*
X5917753Y-14636103D02*
X5908229Y-14674198D01*
X5908229Y-14674198D02*
X5908229Y-14750388D01*
X5908229Y-14750388D02*
X5917753Y-14769436D01*
X5917753Y-14769436D02*
X5927277Y-14778960D01*
X5927277Y-14778960D02*
X5946325Y-14788484D01*
X5946325Y-14788484D02*
X5984420Y-14788484D01*
X5984420Y-14788484D02*
X6003468Y-14778960D01*
X6003468Y-14778960D02*
X6012991Y-14769436D01*
X6012991Y-14769436D02*
X6022515Y-14750388D01*
X6022515Y-14750388D02*
X6022515Y-14702769D01*
X6022515Y-14702769D02*
X6012991Y-14683722D01*
X6012991Y-14683722D02*
X6003468Y-14674198D01*
X6003468Y-14674198D02*
X5984420Y-14664674D01*
X5984420Y-14664674D02*
X5946325Y-14664674D01*
X5946325Y-14664674D02*
X5927277Y-14674198D01*
X5927277Y-14674198D02*
X5917753Y-14683722D01*
X5917753Y-14683722D02*
X5908229Y-14702769D01*
X6260610Y-14788484D02*
X6260610Y-14588484D01*
X6346325Y-14788484D02*
X6346325Y-14683722D01*
X6346325Y-14683722D02*
X6336801Y-14664674D01*
X6336801Y-14664674D02*
X6317753Y-14655150D01*
X6317753Y-14655150D02*
X6289182Y-14655150D01*
X6289182Y-14655150D02*
X6270134Y-14664674D01*
X6270134Y-14664674D02*
X6260610Y-14674198D01*
X6470134Y-14788484D02*
X6451087Y-14778960D01*
X6451087Y-14778960D02*
X6441563Y-14769436D01*
X6441563Y-14769436D02*
X6432039Y-14750388D01*
X6432039Y-14750388D02*
X6432039Y-14693246D01*
X6432039Y-14693246D02*
X6441563Y-14674198D01*
X6441563Y-14674198D02*
X6451087Y-14664674D01*
X6451087Y-14664674D02*
X6470134Y-14655150D01*
X6470134Y-14655150D02*
X6498706Y-14655150D01*
X6498706Y-14655150D02*
X6517753Y-14664674D01*
X6517753Y-14664674D02*
X6527277Y-14674198D01*
X6527277Y-14674198D02*
X6536801Y-14693246D01*
X6536801Y-14693246D02*
X6536801Y-14750388D01*
X6536801Y-14750388D02*
X6527277Y-14769436D01*
X6527277Y-14769436D02*
X6517753Y-14778960D01*
X6517753Y-14778960D02*
X6498706Y-14788484D01*
X6498706Y-14788484D02*
X6470134Y-14788484D01*
X6651087Y-14788484D02*
X6632039Y-14778960D01*
X6632039Y-14778960D02*
X6622515Y-14759912D01*
X6622515Y-14759912D02*
X6622515Y-14588484D01*
X6803468Y-14778960D02*
X6784420Y-14788484D01*
X6784420Y-14788484D02*
X6746325Y-14788484D01*
X6746325Y-14788484D02*
X6727277Y-14778960D01*
X6727277Y-14778960D02*
X6717753Y-14759912D01*
X6717753Y-14759912D02*
X6717753Y-14683722D01*
X6717753Y-14683722D02*
X6727277Y-14664674D01*
X6727277Y-14664674D02*
X6746325Y-14655150D01*
X6746325Y-14655150D02*
X6784420Y-14655150D01*
X6784420Y-14655150D02*
X6803468Y-14664674D01*
X6803468Y-14664674D02*
X6812991Y-14683722D01*
X6812991Y-14683722D02*
X6812991Y-14702769D01*
X6812991Y-14702769D02*
X6717753Y-14721817D01*
X6889182Y-14778960D02*
X6908230Y-14788484D01*
X6908230Y-14788484D02*
X6946325Y-14788484D01*
X6946325Y-14788484D02*
X6965372Y-14778960D01*
X6965372Y-14778960D02*
X6974896Y-14759912D01*
X6974896Y-14759912D02*
X6974896Y-14750388D01*
X6974896Y-14750388D02*
X6965372Y-14731341D01*
X6965372Y-14731341D02*
X6946325Y-14721817D01*
X6946325Y-14721817D02*
X6917753Y-14721817D01*
X6917753Y-14721817D02*
X6898706Y-14712293D01*
X6898706Y-14712293D02*
X6889182Y-14693246D01*
X6889182Y-14693246D02*
X6889182Y-14683722D01*
X6889182Y-14683722D02*
X6898706Y-14664674D01*
X6898706Y-14664674D02*
X6917753Y-14655150D01*
X6917753Y-14655150D02*
X6946325Y-14655150D01*
X6946325Y-14655150D02*
X6965372Y-14664674D01*
X7041563Y-14864674D02*
X7051087Y-14855150D01*
X7051087Y-14855150D02*
X7070134Y-14826579D01*
X7070134Y-14826579D02*
X7079658Y-14807531D01*
X7079658Y-14807531D02*
X7089182Y-14778960D01*
X7089182Y-14778960D02*
X7098706Y-14731341D01*
X7098706Y-14731341D02*
X7098706Y-14693246D01*
X7098706Y-14693246D02*
X7089182Y-14645627D01*
X7089182Y-14645627D02*
X7079658Y-14617055D01*
X7079658Y-14617055D02*
X7070134Y-14598008D01*
X7070134Y-14598008D02*
X7051087Y-14569436D01*
X7051087Y-14569436D02*
X7041563Y-14559912D01*
X2066500Y-14897000D02*
X2266500Y-15097000D01*
X2266500Y-14897000D02*
X2066500Y-15097000D01*
X2237211Y-15067711D02*
X2237211Y-14926289D01*
X2095789Y-14926289D01*
X2095789Y-15067711D01*
X2237211Y-15067711D01*
X2517753Y-14907531D02*
X2527277Y-14898008D01*
X2527277Y-14898008D02*
X2546324Y-14888484D01*
X2546324Y-14888484D02*
X2593944Y-14888484D01*
X2593944Y-14888484D02*
X2612991Y-14898008D01*
X2612991Y-14898008D02*
X2622515Y-14907531D01*
X2622515Y-14907531D02*
X2632039Y-14926579D01*
X2632039Y-14926579D02*
X2632039Y-14945627D01*
X2632039Y-14945627D02*
X2622515Y-14974198D01*
X2622515Y-14974198D02*
X2508229Y-15088484D01*
X2508229Y-15088484D02*
X2632039Y-15088484D01*
X2717753Y-15069436D02*
X2727277Y-15078960D01*
X2727277Y-15078960D02*
X2717753Y-15088484D01*
X2717753Y-15088484D02*
X2708229Y-15078960D01*
X2708229Y-15078960D02*
X2717753Y-15069436D01*
X2717753Y-15069436D02*
X2717753Y-15088484D01*
X2851086Y-14888484D02*
X2870134Y-14888484D01*
X2870134Y-14888484D02*
X2889182Y-14898008D01*
X2889182Y-14898008D02*
X2898705Y-14907531D01*
X2898705Y-14907531D02*
X2908229Y-14926579D01*
X2908229Y-14926579D02*
X2917753Y-14964674D01*
X2917753Y-14964674D02*
X2917753Y-15012293D01*
X2917753Y-15012293D02*
X2908229Y-15050388D01*
X2908229Y-15050388D02*
X2898705Y-15069436D01*
X2898705Y-15069436D02*
X2889182Y-15078960D01*
X2889182Y-15078960D02*
X2870134Y-15088484D01*
X2870134Y-15088484D02*
X2851086Y-15088484D01*
X2851086Y-15088484D02*
X2832039Y-15078960D01*
X2832039Y-15078960D02*
X2822515Y-15069436D01*
X2822515Y-15069436D02*
X2812991Y-15050388D01*
X2812991Y-15050388D02*
X2803467Y-15012293D01*
X2803467Y-15012293D02*
X2803467Y-14964674D01*
X2803467Y-14964674D02*
X2812991Y-14926579D01*
X2812991Y-14926579D02*
X2822515Y-14907531D01*
X2822515Y-14907531D02*
X2832039Y-14898008D01*
X2832039Y-14898008D02*
X2851086Y-14888484D01*
X3041562Y-14888484D02*
X3060610Y-14888484D01*
X3060610Y-14888484D02*
X3079658Y-14898008D01*
X3079658Y-14898008D02*
X3089182Y-14907531D01*
X3089182Y-14907531D02*
X3098705Y-14926579D01*
X3098705Y-14926579D02*
X3108229Y-14964674D01*
X3108229Y-14964674D02*
X3108229Y-15012293D01*
X3108229Y-15012293D02*
X3098705Y-15050388D01*
X3098705Y-15050388D02*
X3089182Y-15069436D01*
X3089182Y-15069436D02*
X3079658Y-15078960D01*
X3079658Y-15078960D02*
X3060610Y-15088484D01*
X3060610Y-15088484D02*
X3041562Y-15088484D01*
X3041562Y-15088484D02*
X3022515Y-15078960D01*
X3022515Y-15078960D02*
X3012991Y-15069436D01*
X3012991Y-15069436D02*
X3003467Y-15050388D01*
X3003467Y-15050388D02*
X2993943Y-15012293D01*
X2993943Y-15012293D02*
X2993943Y-14964674D01*
X2993943Y-14964674D02*
X3003467Y-14926579D01*
X3003467Y-14926579D02*
X3012991Y-14907531D01*
X3012991Y-14907531D02*
X3022515Y-14898008D01*
X3022515Y-14898008D02*
X3041562Y-14888484D01*
X3232039Y-14888484D02*
X3251086Y-14888484D01*
X3251086Y-14888484D02*
X3270134Y-14898008D01*
X3270134Y-14898008D02*
X3279658Y-14907531D01*
X3279658Y-14907531D02*
X3289182Y-14926579D01*
X3289182Y-14926579D02*
X3298705Y-14964674D01*
X3298705Y-14964674D02*
X3298705Y-15012293D01*
X3298705Y-15012293D02*
X3289182Y-15050388D01*
X3289182Y-15050388D02*
X3279658Y-15069436D01*
X3279658Y-15069436D02*
X3270134Y-15078960D01*
X3270134Y-15078960D02*
X3251086Y-15088484D01*
X3251086Y-15088484D02*
X3232039Y-15088484D01*
X3232039Y-15088484D02*
X3212991Y-15078960D01*
X3212991Y-15078960D02*
X3203467Y-15069436D01*
X3203467Y-15069436D02*
X3193943Y-15050388D01*
X3193943Y-15050388D02*
X3184420Y-15012293D01*
X3184420Y-15012293D02*
X3184420Y-14964674D01*
X3184420Y-14964674D02*
X3193943Y-14926579D01*
X3193943Y-14926579D02*
X3203467Y-14907531D01*
X3203467Y-14907531D02*
X3212991Y-14898008D01*
X3212991Y-14898008D02*
X3232039Y-14888484D01*
X3384420Y-15088484D02*
X3384420Y-14955150D01*
X3384420Y-14974198D02*
X3393943Y-14964674D01*
X3393943Y-14964674D02*
X3412991Y-14955150D01*
X3412991Y-14955150D02*
X3441563Y-14955150D01*
X3441563Y-14955150D02*
X3460610Y-14964674D01*
X3460610Y-14964674D02*
X3470134Y-14983722D01*
X3470134Y-14983722D02*
X3470134Y-15088484D01*
X3470134Y-14983722D02*
X3479658Y-14964674D01*
X3479658Y-14964674D02*
X3498705Y-14955150D01*
X3498705Y-14955150D02*
X3527277Y-14955150D01*
X3527277Y-14955150D02*
X3546324Y-14964674D01*
X3546324Y-14964674D02*
X3555848Y-14983722D01*
X3555848Y-14983722D02*
X3555848Y-15088484D01*
X3651086Y-15088484D02*
X3651086Y-14955150D01*
X3651086Y-14974198D02*
X3660610Y-14964674D01*
X3660610Y-14964674D02*
X3679658Y-14955150D01*
X3679658Y-14955150D02*
X3708229Y-14955150D01*
X3708229Y-14955150D02*
X3727277Y-14964674D01*
X3727277Y-14964674D02*
X3736801Y-14983722D01*
X3736801Y-14983722D02*
X3736801Y-15088484D01*
X3736801Y-14983722D02*
X3746324Y-14964674D01*
X3746324Y-14964674D02*
X3765372Y-14955150D01*
X3765372Y-14955150D02*
X3793943Y-14955150D01*
X3793943Y-14955150D02*
X3812991Y-14964674D01*
X3812991Y-14964674D02*
X3822515Y-14983722D01*
X3822515Y-14983722D02*
X3822515Y-15088484D01*
X4212991Y-14878960D02*
X4041563Y-15136103D01*
X4470134Y-14888484D02*
X4489182Y-14888484D01*
X4489182Y-14888484D02*
X4508229Y-14898008D01*
X4508229Y-14898008D02*
X4517753Y-14907531D01*
X4517753Y-14907531D02*
X4527277Y-14926579D01*
X4527277Y-14926579D02*
X4536801Y-14964674D01*
X4536801Y-14964674D02*
X4536801Y-15012293D01*
X4536801Y-15012293D02*
X4527277Y-15050388D01*
X4527277Y-15050388D02*
X4517753Y-15069436D01*
X4517753Y-15069436D02*
X4508229Y-15078960D01*
X4508229Y-15078960D02*
X4489182Y-15088484D01*
X4489182Y-15088484D02*
X4470134Y-15088484D01*
X4470134Y-15088484D02*
X4451087Y-15078960D01*
X4451087Y-15078960D02*
X4441563Y-15069436D01*
X4441563Y-15069436D02*
X4432039Y-15050388D01*
X4432039Y-15050388D02*
X4422515Y-15012293D01*
X4422515Y-15012293D02*
X4422515Y-14964674D01*
X4422515Y-14964674D02*
X4432039Y-14926579D01*
X4432039Y-14926579D02*
X4441563Y-14907531D01*
X4441563Y-14907531D02*
X4451087Y-14898008D01*
X4451087Y-14898008D02*
X4470134Y-14888484D01*
X4622515Y-15069436D02*
X4632039Y-15078960D01*
X4632039Y-15078960D02*
X4622515Y-15088484D01*
X4622515Y-15088484D02*
X4612991Y-15078960D01*
X4612991Y-15078960D02*
X4622515Y-15069436D01*
X4622515Y-15069436D02*
X4622515Y-15088484D01*
X4755848Y-14888484D02*
X4774896Y-14888484D01*
X4774896Y-14888484D02*
X4793944Y-14898008D01*
X4793944Y-14898008D02*
X4803468Y-14907531D01*
X4803468Y-14907531D02*
X4812991Y-14926579D01*
X4812991Y-14926579D02*
X4822515Y-14964674D01*
X4822515Y-14964674D02*
X4822515Y-15012293D01*
X4822515Y-15012293D02*
X4812991Y-15050388D01*
X4812991Y-15050388D02*
X4803468Y-15069436D01*
X4803468Y-15069436D02*
X4793944Y-15078960D01*
X4793944Y-15078960D02*
X4774896Y-15088484D01*
X4774896Y-15088484D02*
X4755848Y-15088484D01*
X4755848Y-15088484D02*
X4736801Y-15078960D01*
X4736801Y-15078960D02*
X4727277Y-15069436D01*
X4727277Y-15069436D02*
X4717753Y-15050388D01*
X4717753Y-15050388D02*
X4708229Y-15012293D01*
X4708229Y-15012293D02*
X4708229Y-14964674D01*
X4708229Y-14964674D02*
X4717753Y-14926579D01*
X4717753Y-14926579D02*
X4727277Y-14907531D01*
X4727277Y-14907531D02*
X4736801Y-14898008D01*
X4736801Y-14898008D02*
X4755848Y-14888484D01*
X4889182Y-14888484D02*
X5022515Y-14888484D01*
X5022515Y-14888484D02*
X4936801Y-15088484D01*
X5127277Y-14974198D02*
X5108229Y-14964674D01*
X5108229Y-14964674D02*
X5098706Y-14955150D01*
X5098706Y-14955150D02*
X5089182Y-14936103D01*
X5089182Y-14936103D02*
X5089182Y-14926579D01*
X5089182Y-14926579D02*
X5098706Y-14907531D01*
X5098706Y-14907531D02*
X5108229Y-14898008D01*
X5108229Y-14898008D02*
X5127277Y-14888484D01*
X5127277Y-14888484D02*
X5165372Y-14888484D01*
X5165372Y-14888484D02*
X5184420Y-14898008D01*
X5184420Y-14898008D02*
X5193944Y-14907531D01*
X5193944Y-14907531D02*
X5203468Y-14926579D01*
X5203468Y-14926579D02*
X5203468Y-14936103D01*
X5203468Y-14936103D02*
X5193944Y-14955150D01*
X5193944Y-14955150D02*
X5184420Y-14964674D01*
X5184420Y-14964674D02*
X5165372Y-14974198D01*
X5165372Y-14974198D02*
X5127277Y-14974198D01*
X5127277Y-14974198D02*
X5108229Y-14983722D01*
X5108229Y-14983722D02*
X5098706Y-14993246D01*
X5098706Y-14993246D02*
X5089182Y-15012293D01*
X5089182Y-15012293D02*
X5089182Y-15050388D01*
X5089182Y-15050388D02*
X5098706Y-15069436D01*
X5098706Y-15069436D02*
X5108229Y-15078960D01*
X5108229Y-15078960D02*
X5127277Y-15088484D01*
X5127277Y-15088484D02*
X5165372Y-15088484D01*
X5165372Y-15088484D02*
X5184420Y-15078960D01*
X5184420Y-15078960D02*
X5193944Y-15069436D01*
X5193944Y-15069436D02*
X5203468Y-15050388D01*
X5203468Y-15050388D02*
X5203468Y-15012293D01*
X5203468Y-15012293D02*
X5193944Y-14993246D01*
X5193944Y-14993246D02*
X5184420Y-14983722D01*
X5184420Y-14983722D02*
X5165372Y-14974198D01*
X5270134Y-14888484D02*
X5403468Y-14888484D01*
X5403468Y-14888484D02*
X5317753Y-15088484D01*
X5470134Y-14888484D02*
X5470134Y-14926579D01*
X5546325Y-14888484D02*
X5546325Y-14926579D01*
X5841563Y-15164674D02*
X5832039Y-15155150D01*
X5832039Y-15155150D02*
X5812991Y-15126579D01*
X5812991Y-15126579D02*
X5803468Y-15107531D01*
X5803468Y-15107531D02*
X5793944Y-15078960D01*
X5793944Y-15078960D02*
X5784420Y-15031341D01*
X5784420Y-15031341D02*
X5784420Y-14993246D01*
X5784420Y-14993246D02*
X5793944Y-14945627D01*
X5793944Y-14945627D02*
X5803468Y-14917055D01*
X5803468Y-14917055D02*
X5812991Y-14898008D01*
X5812991Y-14898008D02*
X5832039Y-14869436D01*
X5832039Y-14869436D02*
X5841563Y-14859912D01*
X5908229Y-14907531D02*
X5917753Y-14898008D01*
X5917753Y-14898008D02*
X5936801Y-14888484D01*
X5936801Y-14888484D02*
X5984420Y-14888484D01*
X5984420Y-14888484D02*
X6003468Y-14898008D01*
X6003468Y-14898008D02*
X6012991Y-14907531D01*
X6012991Y-14907531D02*
X6022515Y-14926579D01*
X6022515Y-14926579D02*
X6022515Y-14945627D01*
X6022515Y-14945627D02*
X6012991Y-14974198D01*
X6012991Y-14974198D02*
X5898706Y-15088484D01*
X5898706Y-15088484D02*
X6022515Y-15088484D01*
X6260610Y-15088484D02*
X6260610Y-14888484D01*
X6346325Y-15088484D02*
X6346325Y-14983722D01*
X6346325Y-14983722D02*
X6336801Y-14964674D01*
X6336801Y-14964674D02*
X6317753Y-14955150D01*
X6317753Y-14955150D02*
X6289182Y-14955150D01*
X6289182Y-14955150D02*
X6270134Y-14964674D01*
X6270134Y-14964674D02*
X6260610Y-14974198D01*
X6470134Y-15088484D02*
X6451087Y-15078960D01*
X6451087Y-15078960D02*
X6441563Y-15069436D01*
X6441563Y-15069436D02*
X6432039Y-15050388D01*
X6432039Y-15050388D02*
X6432039Y-14993246D01*
X6432039Y-14993246D02*
X6441563Y-14974198D01*
X6441563Y-14974198D02*
X6451087Y-14964674D01*
X6451087Y-14964674D02*
X6470134Y-14955150D01*
X6470134Y-14955150D02*
X6498706Y-14955150D01*
X6498706Y-14955150D02*
X6517753Y-14964674D01*
X6517753Y-14964674D02*
X6527277Y-14974198D01*
X6527277Y-14974198D02*
X6536801Y-14993246D01*
X6536801Y-14993246D02*
X6536801Y-15050388D01*
X6536801Y-15050388D02*
X6527277Y-15069436D01*
X6527277Y-15069436D02*
X6517753Y-15078960D01*
X6517753Y-15078960D02*
X6498706Y-15088484D01*
X6498706Y-15088484D02*
X6470134Y-15088484D01*
X6651087Y-15088484D02*
X6632039Y-15078960D01*
X6632039Y-15078960D02*
X6622515Y-15059912D01*
X6622515Y-15059912D02*
X6622515Y-14888484D01*
X6803468Y-15078960D02*
X6784420Y-15088484D01*
X6784420Y-15088484D02*
X6746325Y-15088484D01*
X6746325Y-15088484D02*
X6727277Y-15078960D01*
X6727277Y-15078960D02*
X6717753Y-15059912D01*
X6717753Y-15059912D02*
X6717753Y-14983722D01*
X6717753Y-14983722D02*
X6727277Y-14964674D01*
X6727277Y-14964674D02*
X6746325Y-14955150D01*
X6746325Y-14955150D02*
X6784420Y-14955150D01*
X6784420Y-14955150D02*
X6803468Y-14964674D01*
X6803468Y-14964674D02*
X6812991Y-14983722D01*
X6812991Y-14983722D02*
X6812991Y-15002769D01*
X6812991Y-15002769D02*
X6717753Y-15021817D01*
X6889182Y-15078960D02*
X6908230Y-15088484D01*
X6908230Y-15088484D02*
X6946325Y-15088484D01*
X6946325Y-15088484D02*
X6965372Y-15078960D01*
X6965372Y-15078960D02*
X6974896Y-15059912D01*
X6974896Y-15059912D02*
X6974896Y-15050388D01*
X6974896Y-15050388D02*
X6965372Y-15031341D01*
X6965372Y-15031341D02*
X6946325Y-15021817D01*
X6946325Y-15021817D02*
X6917753Y-15021817D01*
X6917753Y-15021817D02*
X6898706Y-15012293D01*
X6898706Y-15012293D02*
X6889182Y-14993246D01*
X6889182Y-14993246D02*
X6889182Y-14983722D01*
X6889182Y-14983722D02*
X6898706Y-14964674D01*
X6898706Y-14964674D02*
X6917753Y-14955150D01*
X6917753Y-14955150D02*
X6946325Y-14955150D01*
X6946325Y-14955150D02*
X6965372Y-14964674D01*
X7041563Y-15164674D02*
X7051087Y-15155150D01*
X7051087Y-15155150D02*
X7070134Y-15126579D01*
X7070134Y-15126579D02*
X7079658Y-15107531D01*
X7079658Y-15107531D02*
X7089182Y-15078960D01*
X7089182Y-15078960D02*
X7098706Y-15031341D01*
X7098706Y-15031341D02*
X7098706Y-14993246D01*
X7098706Y-14993246D02*
X7089182Y-14945627D01*
X7089182Y-14945627D02*
X7079658Y-14917055D01*
X7079658Y-14917055D02*
X7070134Y-14898008D01*
X7070134Y-14898008D02*
X7051087Y-14869436D01*
X7051087Y-14869436D02*
X7041563Y-14859912D01*
X2066500Y-15217000D02*
X2266500Y-15417000D01*
X2266500Y-15217000D02*
X2066500Y-15417000D01*
X2166500Y-15417000D02*
X2266500Y-15317000D01*
X2166500Y-15217000D01*
X2066500Y-15317000D01*
X2166500Y-15417000D01*
X2508229Y-15208484D02*
X2632039Y-15208484D01*
X2632039Y-15208484D02*
X2565372Y-15284674D01*
X2565372Y-15284674D02*
X2593944Y-15284674D01*
X2593944Y-15284674D02*
X2612991Y-15294198D01*
X2612991Y-15294198D02*
X2622515Y-15303722D01*
X2622515Y-15303722D02*
X2632039Y-15322769D01*
X2632039Y-15322769D02*
X2632039Y-15370388D01*
X2632039Y-15370388D02*
X2622515Y-15389436D01*
X2622515Y-15389436D02*
X2612991Y-15398960D01*
X2612991Y-15398960D02*
X2593944Y-15408484D01*
X2593944Y-15408484D02*
X2536801Y-15408484D01*
X2536801Y-15408484D02*
X2517753Y-15398960D01*
X2517753Y-15398960D02*
X2508229Y-15389436D01*
X2717753Y-15389436D02*
X2727277Y-15398960D01*
X2727277Y-15398960D02*
X2717753Y-15408484D01*
X2717753Y-15408484D02*
X2708229Y-15398960D01*
X2708229Y-15398960D02*
X2717753Y-15389436D01*
X2717753Y-15389436D02*
X2717753Y-15408484D01*
X2898705Y-15275150D02*
X2898705Y-15408484D01*
X2851086Y-15198960D02*
X2803467Y-15341817D01*
X2803467Y-15341817D02*
X2927277Y-15341817D01*
X3098705Y-15208484D02*
X3003467Y-15208484D01*
X3003467Y-15208484D02*
X2993943Y-15303722D01*
X2993943Y-15303722D02*
X3003467Y-15294198D01*
X3003467Y-15294198D02*
X3022515Y-15284674D01*
X3022515Y-15284674D02*
X3070134Y-15284674D01*
X3070134Y-15284674D02*
X3089182Y-15294198D01*
X3089182Y-15294198D02*
X3098705Y-15303722D01*
X3098705Y-15303722D02*
X3108229Y-15322769D01*
X3108229Y-15322769D02*
X3108229Y-15370388D01*
X3108229Y-15370388D02*
X3098705Y-15389436D01*
X3098705Y-15389436D02*
X3089182Y-15398960D01*
X3089182Y-15398960D02*
X3070134Y-15408484D01*
X3070134Y-15408484D02*
X3022515Y-15408484D01*
X3022515Y-15408484D02*
X3003467Y-15398960D01*
X3003467Y-15398960D02*
X2993943Y-15389436D01*
X3279658Y-15275150D02*
X3279658Y-15408484D01*
X3232039Y-15198960D02*
X3184420Y-15341817D01*
X3184420Y-15341817D02*
X3308229Y-15341817D01*
X3384420Y-15408484D02*
X3384420Y-15275150D01*
X3384420Y-15294198D02*
X3393943Y-15284674D01*
X3393943Y-15284674D02*
X3412991Y-15275150D01*
X3412991Y-15275150D02*
X3441563Y-15275150D01*
X3441563Y-15275150D02*
X3460610Y-15284674D01*
X3460610Y-15284674D02*
X3470134Y-15303722D01*
X3470134Y-15303722D02*
X3470134Y-15408484D01*
X3470134Y-15303722D02*
X3479658Y-15284674D01*
X3479658Y-15284674D02*
X3498705Y-15275150D01*
X3498705Y-15275150D02*
X3527277Y-15275150D01*
X3527277Y-15275150D02*
X3546324Y-15284674D01*
X3546324Y-15284674D02*
X3555848Y-15303722D01*
X3555848Y-15303722D02*
X3555848Y-15408484D01*
X3651086Y-15408484D02*
X3651086Y-15275150D01*
X3651086Y-15294198D02*
X3660610Y-15284674D01*
X3660610Y-15284674D02*
X3679658Y-15275150D01*
X3679658Y-15275150D02*
X3708229Y-15275150D01*
X3708229Y-15275150D02*
X3727277Y-15284674D01*
X3727277Y-15284674D02*
X3736801Y-15303722D01*
X3736801Y-15303722D02*
X3736801Y-15408484D01*
X3736801Y-15303722D02*
X3746324Y-15284674D01*
X3746324Y-15284674D02*
X3765372Y-15275150D01*
X3765372Y-15275150D02*
X3793943Y-15275150D01*
X3793943Y-15275150D02*
X3812991Y-15284674D01*
X3812991Y-15284674D02*
X3822515Y-15303722D01*
X3822515Y-15303722D02*
X3822515Y-15408484D01*
X4212991Y-15198960D02*
X4041563Y-15456103D01*
X4470134Y-15208484D02*
X4489182Y-15208484D01*
X4489182Y-15208484D02*
X4508229Y-15218008D01*
X4508229Y-15218008D02*
X4517753Y-15227531D01*
X4517753Y-15227531D02*
X4527277Y-15246579D01*
X4527277Y-15246579D02*
X4536801Y-15284674D01*
X4536801Y-15284674D02*
X4536801Y-15332293D01*
X4536801Y-15332293D02*
X4527277Y-15370388D01*
X4527277Y-15370388D02*
X4517753Y-15389436D01*
X4517753Y-15389436D02*
X4508229Y-15398960D01*
X4508229Y-15398960D02*
X4489182Y-15408484D01*
X4489182Y-15408484D02*
X4470134Y-15408484D01*
X4470134Y-15408484D02*
X4451087Y-15398960D01*
X4451087Y-15398960D02*
X4441563Y-15389436D01*
X4441563Y-15389436D02*
X4432039Y-15370388D01*
X4432039Y-15370388D02*
X4422515Y-15332293D01*
X4422515Y-15332293D02*
X4422515Y-15284674D01*
X4422515Y-15284674D02*
X4432039Y-15246579D01*
X4432039Y-15246579D02*
X4441563Y-15227531D01*
X4441563Y-15227531D02*
X4451087Y-15218008D01*
X4451087Y-15218008D02*
X4470134Y-15208484D01*
X4622515Y-15389436D02*
X4632039Y-15398960D01*
X4632039Y-15398960D02*
X4622515Y-15408484D01*
X4622515Y-15408484D02*
X4612991Y-15398960D01*
X4612991Y-15398960D02*
X4622515Y-15389436D01*
X4622515Y-15389436D02*
X4622515Y-15408484D01*
X4822515Y-15408484D02*
X4708229Y-15408484D01*
X4765372Y-15408484D02*
X4765372Y-15208484D01*
X4765372Y-15208484D02*
X4746325Y-15237055D01*
X4746325Y-15237055D02*
X4727277Y-15256103D01*
X4727277Y-15256103D02*
X4708229Y-15265627D01*
X4889182Y-15208484D02*
X5012991Y-15208484D01*
X5012991Y-15208484D02*
X4946325Y-15284674D01*
X4946325Y-15284674D02*
X4974896Y-15284674D01*
X4974896Y-15284674D02*
X4993944Y-15294198D01*
X4993944Y-15294198D02*
X5003468Y-15303722D01*
X5003468Y-15303722D02*
X5012991Y-15322769D01*
X5012991Y-15322769D02*
X5012991Y-15370388D01*
X5012991Y-15370388D02*
X5003468Y-15389436D01*
X5003468Y-15389436D02*
X4993944Y-15398960D01*
X4993944Y-15398960D02*
X4974896Y-15408484D01*
X4974896Y-15408484D02*
X4917753Y-15408484D01*
X4917753Y-15408484D02*
X4898706Y-15398960D01*
X4898706Y-15398960D02*
X4889182Y-15389436D01*
X5184420Y-15208484D02*
X5146325Y-15208484D01*
X5146325Y-15208484D02*
X5127277Y-15218008D01*
X5127277Y-15218008D02*
X5117753Y-15227531D01*
X5117753Y-15227531D02*
X5098706Y-15256103D01*
X5098706Y-15256103D02*
X5089182Y-15294198D01*
X5089182Y-15294198D02*
X5089182Y-15370388D01*
X5089182Y-15370388D02*
X5098706Y-15389436D01*
X5098706Y-15389436D02*
X5108229Y-15398960D01*
X5108229Y-15398960D02*
X5127277Y-15408484D01*
X5127277Y-15408484D02*
X5165372Y-15408484D01*
X5165372Y-15408484D02*
X5184420Y-15398960D01*
X5184420Y-15398960D02*
X5193944Y-15389436D01*
X5193944Y-15389436D02*
X5203468Y-15370388D01*
X5203468Y-15370388D02*
X5203468Y-15322769D01*
X5203468Y-15322769D02*
X5193944Y-15303722D01*
X5193944Y-15303722D02*
X5184420Y-15294198D01*
X5184420Y-15294198D02*
X5165372Y-15284674D01*
X5165372Y-15284674D02*
X5127277Y-15284674D01*
X5127277Y-15284674D02*
X5108229Y-15294198D01*
X5108229Y-15294198D02*
X5098706Y-15303722D01*
X5098706Y-15303722D02*
X5089182Y-15322769D01*
X5327277Y-15208484D02*
X5346325Y-15208484D01*
X5346325Y-15208484D02*
X5365372Y-15218008D01*
X5365372Y-15218008D02*
X5374896Y-15227531D01*
X5374896Y-15227531D02*
X5384420Y-15246579D01*
X5384420Y-15246579D02*
X5393944Y-15284674D01*
X5393944Y-15284674D02*
X5393944Y-15332293D01*
X5393944Y-15332293D02*
X5384420Y-15370388D01*
X5384420Y-15370388D02*
X5374896Y-15389436D01*
X5374896Y-15389436D02*
X5365372Y-15398960D01*
X5365372Y-15398960D02*
X5346325Y-15408484D01*
X5346325Y-15408484D02*
X5327277Y-15408484D01*
X5327277Y-15408484D02*
X5308229Y-15398960D01*
X5308229Y-15398960D02*
X5298706Y-15389436D01*
X5298706Y-15389436D02*
X5289182Y-15370388D01*
X5289182Y-15370388D02*
X5279658Y-15332293D01*
X5279658Y-15332293D02*
X5279658Y-15284674D01*
X5279658Y-15284674D02*
X5289182Y-15246579D01*
X5289182Y-15246579D02*
X5298706Y-15227531D01*
X5298706Y-15227531D02*
X5308229Y-15218008D01*
X5308229Y-15218008D02*
X5327277Y-15208484D01*
X5470134Y-15208484D02*
X5470134Y-15246579D01*
X5546325Y-15208484D02*
X5546325Y-15246579D01*
X5841563Y-15484674D02*
X5832039Y-15475150D01*
X5832039Y-15475150D02*
X5812991Y-15446579D01*
X5812991Y-15446579D02*
X5803468Y-15427531D01*
X5803468Y-15427531D02*
X5793944Y-15398960D01*
X5793944Y-15398960D02*
X5784420Y-15351341D01*
X5784420Y-15351341D02*
X5784420Y-15313246D01*
X5784420Y-15313246D02*
X5793944Y-15265627D01*
X5793944Y-15265627D02*
X5803468Y-15237055D01*
X5803468Y-15237055D02*
X5812991Y-15218008D01*
X5812991Y-15218008D02*
X5832039Y-15189436D01*
X5832039Y-15189436D02*
X5841563Y-15179912D01*
X5908229Y-15227531D02*
X5917753Y-15218008D01*
X5917753Y-15218008D02*
X5936801Y-15208484D01*
X5936801Y-15208484D02*
X5984420Y-15208484D01*
X5984420Y-15208484D02*
X6003468Y-15218008D01*
X6003468Y-15218008D02*
X6012991Y-15227531D01*
X6012991Y-15227531D02*
X6022515Y-15246579D01*
X6022515Y-15246579D02*
X6022515Y-15265627D01*
X6022515Y-15265627D02*
X6012991Y-15294198D01*
X6012991Y-15294198D02*
X5898706Y-15408484D01*
X5898706Y-15408484D02*
X6022515Y-15408484D01*
X6260610Y-15408484D02*
X6260610Y-15208484D01*
X6346325Y-15408484D02*
X6346325Y-15303722D01*
X6346325Y-15303722D02*
X6336801Y-15284674D01*
X6336801Y-15284674D02*
X6317753Y-15275150D01*
X6317753Y-15275150D02*
X6289182Y-15275150D01*
X6289182Y-15275150D02*
X6270134Y-15284674D01*
X6270134Y-15284674D02*
X6260610Y-15294198D01*
X6470134Y-15408484D02*
X6451087Y-15398960D01*
X6451087Y-15398960D02*
X6441563Y-15389436D01*
X6441563Y-15389436D02*
X6432039Y-15370388D01*
X6432039Y-15370388D02*
X6432039Y-15313246D01*
X6432039Y-15313246D02*
X6441563Y-15294198D01*
X6441563Y-15294198D02*
X6451087Y-15284674D01*
X6451087Y-15284674D02*
X6470134Y-15275150D01*
X6470134Y-15275150D02*
X6498706Y-15275150D01*
X6498706Y-15275150D02*
X6517753Y-15284674D01*
X6517753Y-15284674D02*
X6527277Y-15294198D01*
X6527277Y-15294198D02*
X6536801Y-15313246D01*
X6536801Y-15313246D02*
X6536801Y-15370388D01*
X6536801Y-15370388D02*
X6527277Y-15389436D01*
X6527277Y-15389436D02*
X6517753Y-15398960D01*
X6517753Y-15398960D02*
X6498706Y-15408484D01*
X6498706Y-15408484D02*
X6470134Y-15408484D01*
X6651087Y-15408484D02*
X6632039Y-15398960D01*
X6632039Y-15398960D02*
X6622515Y-15379912D01*
X6622515Y-15379912D02*
X6622515Y-15208484D01*
X6803468Y-15398960D02*
X6784420Y-15408484D01*
X6784420Y-15408484D02*
X6746325Y-15408484D01*
X6746325Y-15408484D02*
X6727277Y-15398960D01*
X6727277Y-15398960D02*
X6717753Y-15379912D01*
X6717753Y-15379912D02*
X6717753Y-15303722D01*
X6717753Y-15303722D02*
X6727277Y-15284674D01*
X6727277Y-15284674D02*
X6746325Y-15275150D01*
X6746325Y-15275150D02*
X6784420Y-15275150D01*
X6784420Y-15275150D02*
X6803468Y-15284674D01*
X6803468Y-15284674D02*
X6812991Y-15303722D01*
X6812991Y-15303722D02*
X6812991Y-15322769D01*
X6812991Y-15322769D02*
X6717753Y-15341817D01*
X6889182Y-15398960D02*
X6908230Y-15408484D01*
X6908230Y-15408484D02*
X6946325Y-15408484D01*
X6946325Y-15408484D02*
X6965372Y-15398960D01*
X6965372Y-15398960D02*
X6974896Y-15379912D01*
X6974896Y-15379912D02*
X6974896Y-15370388D01*
X6974896Y-15370388D02*
X6965372Y-15351341D01*
X6965372Y-15351341D02*
X6946325Y-15341817D01*
X6946325Y-15341817D02*
X6917753Y-15341817D01*
X6917753Y-15341817D02*
X6898706Y-15332293D01*
X6898706Y-15332293D02*
X6889182Y-15313246D01*
X6889182Y-15313246D02*
X6889182Y-15303722D01*
X6889182Y-15303722D02*
X6898706Y-15284674D01*
X6898706Y-15284674D02*
X6917753Y-15275150D01*
X6917753Y-15275150D02*
X6946325Y-15275150D01*
X6946325Y-15275150D02*
X6965372Y-15284674D01*
X7041563Y-15484674D02*
X7051087Y-15475150D01*
X7051087Y-15475150D02*
X7070134Y-15446579D01*
X7070134Y-15446579D02*
X7079658Y-15427531D01*
X7079658Y-15427531D02*
X7089182Y-15398960D01*
X7089182Y-15398960D02*
X7098706Y-15351341D01*
X7098706Y-15351341D02*
X7098706Y-15313246D01*
X7098706Y-15313246D02*
X7089182Y-15265627D01*
X7089182Y-15265627D02*
X7079658Y-15237055D01*
X7079658Y-15237055D02*
X7070134Y-15218008D01*
X7070134Y-15218008D02*
X7051087Y-15189436D01*
X7051087Y-15189436D02*
X7041563Y-15179912D01*
M02*
