G04 #@! TF.GenerationSoftware,KiCad,Pcbnew,7.0.9*
G04 #@! TF.CreationDate,2024-04-01T22:01:11-07:00*
G04 #@! TF.ProjectId,AVcarrierBoard,41566361-7272-4696-9572-426f6172642e,rev?*
G04 #@! TF.SameCoordinates,Original*
G04 #@! TF.FileFunction,Copper,L2,Inr*
G04 #@! TF.FilePolarity,Positive*
%FSLAX46Y46*%
G04 Gerber Fmt 4.6, Leading zero omitted, Abs format (unit mm)*
G04 Created by KiCad (PCBNEW 7.0.9) date 2024-04-01 22:01:11*
%MOMM*%
%LPD*%
G01*
G04 APERTURE LIST*
G04 #@! TA.AperFunction,ComponentPad*
%ADD10R,2.300000X2.300000*%
G04 #@! TD*
G04 #@! TA.AperFunction,ComponentPad*
%ADD11C,2.300000*%
G04 #@! TD*
G04 #@! TA.AperFunction,ComponentPad*
%ADD12C,3.654400*%
G04 #@! TD*
G04 #@! TA.AperFunction,ComponentPad*
%ADD13R,1.700000X1.700000*%
G04 #@! TD*
G04 #@! TA.AperFunction,ComponentPad*
%ADD14O,1.700000X1.700000*%
G04 #@! TD*
G04 #@! TA.AperFunction,ComponentPad*
%ADD15R,1.650000X1.650000*%
G04 #@! TD*
G04 #@! TA.AperFunction,ComponentPad*
%ADD16C,1.650000*%
G04 #@! TD*
G04 #@! TA.AperFunction,ComponentPad*
%ADD17R,2.032000X2.032000*%
G04 #@! TD*
G04 #@! TA.AperFunction,ComponentPad*
%ADD18C,1.200000*%
G04 #@! TD*
G04 #@! TA.AperFunction,WasherPad*
%ADD19C,6.560820*%
G04 #@! TD*
G04 #@! TA.AperFunction,WasherPad*
%ADD20C,5.842000*%
G04 #@! TD*
G04 #@! TA.AperFunction,ComponentPad*
%ADD21C,0.762000*%
G04 #@! TD*
G04 #@! TA.AperFunction,WasherPad*
%ADD22C,6.000000*%
G04 #@! TD*
G04 #@! TA.AperFunction,ComponentPad*
%ADD23C,1.524000*%
G04 #@! TD*
G04 #@! TA.AperFunction,ViaPad*
%ADD24C,3.000000*%
G04 #@! TD*
G04 #@! TA.AperFunction,Conductor*
%ADD25C,2.500000*%
G04 #@! TD*
G04 APERTURE END LIST*
D10*
X43557799Y-77730434D03*
D11*
X43557799Y-81930433D03*
X43557799Y-86130432D03*
X39357800Y-77730434D03*
X39357800Y-81930433D03*
X39357800Y-86130432D03*
D12*
X222250000Y-87376000D03*
X167005000Y-71374000D03*
D13*
X144470200Y-88798400D03*
D14*
X147440200Y-88798400D03*
D15*
X29464000Y-96723200D03*
D16*
X29464000Y-101803200D03*
X29464000Y-106883200D03*
X29464000Y-111963200D03*
D17*
X117275000Y-108060000D03*
X117275000Y-111520000D03*
X117275000Y-114980000D03*
X117275000Y-118440000D03*
D18*
X36735000Y-109140000D03*
X36735000Y-111680000D03*
D15*
X270650000Y-88137500D03*
D16*
X270650000Y-93217500D03*
X270650000Y-98297500D03*
X270650000Y-103377500D03*
D13*
X160070800Y-95504000D03*
D14*
X157530800Y-95504000D03*
D19*
X155321000Y-103505000D03*
X184264300Y-116459000D03*
D17*
X217265000Y-117475000D03*
X213725000Y-117475000D03*
X210185000Y-117475000D03*
X206645000Y-117475000D03*
X203265000Y-117475000D03*
X200025000Y-117475000D03*
D20*
X62616800Y-89756000D03*
X88016800Y-77056000D03*
D21*
X106599387Y-76305535D03*
X106599387Y-73765535D03*
D22*
X131210000Y-78920000D03*
D23*
X148310000Y-71120000D03*
X148310000Y-79620000D03*
X113310000Y-71120000D03*
X113310000Y-79620000D03*
D13*
X149453600Y-101442600D03*
D14*
X149453600Y-104412600D03*
D24*
X243281200Y-80772000D03*
X171602400Y-101447600D03*
X109220000Y-88900000D03*
X146558000Y-74777600D03*
X127203200Y-92710000D03*
D25*
X149453600Y-106476800D02*
X149453600Y-104412600D01*
X243281200Y-80772000D02*
X214884000Y-109169200D01*
X155498800Y-112522000D02*
X149453600Y-106476800D01*
X173583600Y-112522000D02*
X155498800Y-112522000D01*
X176936400Y-109169200D02*
X173583600Y-112522000D01*
X214884000Y-109169200D02*
X176936400Y-109169200D01*
X148310000Y-71120000D02*
X155397200Y-78207200D01*
X155397200Y-90525600D02*
X149453600Y-96469200D01*
X155397200Y-78207200D02*
X155397200Y-90525600D01*
X149453600Y-96469200D02*
X149453600Y-101442600D01*
G04 #@! TA.AperFunction,Conductor*
G36*
X276307539Y-66059685D02*
G01*
X276353294Y-66112489D01*
X276364500Y-66164000D01*
X276364500Y-124336000D01*
X276344815Y-124403039D01*
X276292011Y-124448794D01*
X276240500Y-124460000D01*
X22984000Y-124460000D01*
X22916961Y-124440315D01*
X22871206Y-124387511D01*
X22860000Y-124336000D01*
X22860000Y-119498563D01*
X27152587Y-119498563D01*
X27182213Y-119767813D01*
X27182215Y-119767824D01*
X27250726Y-120029882D01*
X27250728Y-120029888D01*
X27356670Y-120279190D01*
X27428798Y-120397375D01*
X27497779Y-120510405D01*
X27497786Y-120510415D01*
X27671053Y-120718619D01*
X27671059Y-120718624D01*
X27872798Y-120899382D01*
X28098710Y-121048844D01*
X28343976Y-121163820D01*
X28343983Y-121163822D01*
X28343985Y-121163823D01*
X28603357Y-121241857D01*
X28603364Y-121241858D01*
X28603369Y-121241860D01*
X28871361Y-121281300D01*
X28871366Y-121281300D01*
X29074436Y-121281300D01*
X29125933Y-121277530D01*
X29276956Y-121266477D01*
X29389558Y-121241393D01*
X29541346Y-121207582D01*
X29541348Y-121207581D01*
X29541353Y-121207580D01*
X29794358Y-121110814D01*
X30030577Y-120978241D01*
X30244977Y-120812688D01*
X30432986Y-120617681D01*
X30590599Y-120397379D01*
X30691506Y-120201113D01*
X30714449Y-120156490D01*
X30714451Y-120156484D01*
X30714456Y-120156475D01*
X30801918Y-119900105D01*
X30851119Y-119633733D01*
X30861012Y-119363035D01*
X30831386Y-119093782D01*
X30778506Y-118891513D01*
X44564537Y-118891513D01*
X44594163Y-119160763D01*
X44594165Y-119160774D01*
X44641548Y-119342015D01*
X44662678Y-119422838D01*
X44768620Y-119672140D01*
X44907751Y-119900114D01*
X44909729Y-119903355D01*
X44909736Y-119903365D01*
X45083003Y-120111569D01*
X45083009Y-120111574D01*
X45133122Y-120156475D01*
X45284748Y-120292332D01*
X45510660Y-120441794D01*
X45755926Y-120556770D01*
X45755933Y-120556772D01*
X45755935Y-120556773D01*
X46015307Y-120634807D01*
X46015314Y-120634808D01*
X46015319Y-120634810D01*
X46283311Y-120674250D01*
X46283316Y-120674250D01*
X46486386Y-120674250D01*
X46537883Y-120670480D01*
X46688906Y-120659427D01*
X46801508Y-120634343D01*
X46953296Y-120600532D01*
X46953298Y-120600531D01*
X46953303Y-120600530D01*
X47206308Y-120503764D01*
X47442527Y-120371191D01*
X47656927Y-120205638D01*
X47844936Y-120010631D01*
X48002549Y-119790329D01*
X48083065Y-119633724D01*
X48126399Y-119549440D01*
X48126401Y-119549434D01*
X48126406Y-119549425D01*
X48213868Y-119293055D01*
X48263069Y-119026683D01*
X48268009Y-118891513D01*
X105842037Y-118891513D01*
X105871663Y-119160763D01*
X105871665Y-119160774D01*
X105919048Y-119342015D01*
X105940178Y-119422838D01*
X106046120Y-119672140D01*
X106185251Y-119900114D01*
X106187229Y-119903355D01*
X106187236Y-119903365D01*
X106360503Y-120111569D01*
X106360509Y-120111574D01*
X106410622Y-120156475D01*
X106562248Y-120292332D01*
X106788160Y-120441794D01*
X107033426Y-120556770D01*
X107033433Y-120556772D01*
X107033435Y-120556773D01*
X107292807Y-120634807D01*
X107292814Y-120634808D01*
X107292819Y-120634810D01*
X107560811Y-120674250D01*
X107560816Y-120674250D01*
X107763886Y-120674250D01*
X107815383Y-120670480D01*
X107966406Y-120659427D01*
X108079008Y-120634343D01*
X108230796Y-120600532D01*
X108230798Y-120600531D01*
X108230803Y-120600530D01*
X108483808Y-120503764D01*
X108720027Y-120371191D01*
X108934427Y-120205638D01*
X109122436Y-120010631D01*
X109280049Y-119790329D01*
X109360565Y-119633724D01*
X109403899Y-119549440D01*
X109403901Y-119549434D01*
X109403906Y-119549425D01*
X109419447Y-119503870D01*
X115758500Y-119503870D01*
X115758501Y-119503876D01*
X115764908Y-119563483D01*
X115815202Y-119698328D01*
X115815206Y-119698335D01*
X115901452Y-119813544D01*
X115901455Y-119813547D01*
X116016664Y-119899793D01*
X116016671Y-119899797D01*
X116151517Y-119950091D01*
X116151516Y-119950091D01*
X116158444Y-119950835D01*
X116211127Y-119956500D01*
X118338872Y-119956499D01*
X118398483Y-119950091D01*
X118533331Y-119899796D01*
X118648546Y-119813546D01*
X118734796Y-119698331D01*
X118785091Y-119563483D01*
X118791500Y-119503873D01*
X118791499Y-117376128D01*
X118785091Y-117316517D01*
X118777371Y-117295819D01*
X118734797Y-117181671D01*
X118734793Y-117181664D01*
X118648547Y-117066455D01*
X118648544Y-117066452D01*
X118533335Y-116980206D01*
X118533328Y-116980202D01*
X118398482Y-116929908D01*
X118398483Y-116929908D01*
X118338883Y-116923501D01*
X118338881Y-116923500D01*
X118338873Y-116923500D01*
X118338864Y-116923500D01*
X116211129Y-116923500D01*
X116211123Y-116923501D01*
X116151516Y-116929908D01*
X116016671Y-116980202D01*
X116016664Y-116980206D01*
X115901455Y-117066452D01*
X115901452Y-117066455D01*
X115815206Y-117181664D01*
X115815202Y-117181671D01*
X115764908Y-117316517D01*
X115760753Y-117355168D01*
X115758501Y-117376123D01*
X115758500Y-117376135D01*
X115758500Y-119503870D01*
X109419447Y-119503870D01*
X109491368Y-119293055D01*
X109540569Y-119026683D01*
X109550462Y-118755985D01*
X109520836Y-118486732D01*
X109452322Y-118224662D01*
X109346380Y-117975360D01*
X109205268Y-117744140D01*
X109130270Y-117654020D01*
X109031996Y-117535930D01*
X109031990Y-117535925D01*
X108830252Y-117355168D01*
X108604342Y-117205707D01*
X108555464Y-117182794D01*
X108359074Y-117090730D01*
X108359069Y-117090728D01*
X108359064Y-117090726D01*
X108099692Y-117012692D01*
X108099678Y-117012689D01*
X107984041Y-116995671D01*
X107831689Y-116973250D01*
X107628619Y-116973250D01*
X107628614Y-116973250D01*
X107426094Y-116988073D01*
X107426081Y-116988075D01*
X107161703Y-117046967D01*
X107161696Y-117046970D01*
X106908689Y-117143737D01*
X106672476Y-117276307D01*
X106672474Y-117276308D01*
X106672473Y-117276309D01*
X106610143Y-117324438D01*
X106458072Y-117441862D01*
X106270072Y-117636859D01*
X106270066Y-117636866D01*
X106112452Y-117857169D01*
X106112449Y-117857174D01*
X105988600Y-118098059D01*
X105988593Y-118098077D01*
X105901134Y-118354435D01*
X105901131Y-118354449D01*
X105880855Y-118464224D01*
X105855883Y-118599424D01*
X105851931Y-118620818D01*
X105851930Y-118620825D01*
X105842037Y-118891513D01*
X48268009Y-118891513D01*
X48272962Y-118755985D01*
X48243336Y-118486732D01*
X48174822Y-118224662D01*
X48068880Y-117975360D01*
X47927768Y-117744140D01*
X47852770Y-117654020D01*
X47754496Y-117535930D01*
X47754490Y-117535925D01*
X47552752Y-117355168D01*
X47326842Y-117205707D01*
X47277964Y-117182794D01*
X47081574Y-117090730D01*
X47081569Y-117090728D01*
X47081564Y-117090726D01*
X46822192Y-117012692D01*
X46822178Y-117012689D01*
X46706541Y-116995671D01*
X46554189Y-116973250D01*
X46351119Y-116973250D01*
X46351114Y-116973250D01*
X46148594Y-116988073D01*
X46148581Y-116988075D01*
X45884203Y-117046967D01*
X45884196Y-117046970D01*
X45631189Y-117143737D01*
X45394976Y-117276307D01*
X45394974Y-117276308D01*
X45394973Y-117276309D01*
X45332643Y-117324438D01*
X45180572Y-117441862D01*
X44992572Y-117636859D01*
X44992566Y-117636866D01*
X44834952Y-117857169D01*
X44834949Y-117857174D01*
X44711100Y-118098059D01*
X44711093Y-118098077D01*
X44623634Y-118354435D01*
X44623631Y-118354449D01*
X44603355Y-118464224D01*
X44578383Y-118599424D01*
X44574431Y-118620818D01*
X44574430Y-118620825D01*
X44564537Y-118891513D01*
X30778506Y-118891513D01*
X30762872Y-118831712D01*
X30656930Y-118582410D01*
X30515818Y-118351190D01*
X30470096Y-118296249D01*
X30342546Y-118142980D01*
X30342540Y-118142975D01*
X30140802Y-117962218D01*
X29914892Y-117812757D01*
X29900047Y-117805798D01*
X29669624Y-117697780D01*
X29669619Y-117697778D01*
X29669614Y-117697776D01*
X29410242Y-117619742D01*
X29410228Y-117619739D01*
X29294591Y-117602721D01*
X29142239Y-117580300D01*
X28939169Y-117580300D01*
X28939164Y-117580300D01*
X28736644Y-117595123D01*
X28736631Y-117595125D01*
X28472253Y-117654017D01*
X28472246Y-117654020D01*
X28219239Y-117750787D01*
X27983026Y-117883357D01*
X27768622Y-118048912D01*
X27580622Y-118243909D01*
X27580616Y-118243916D01*
X27423002Y-118464219D01*
X27422999Y-118464224D01*
X27299150Y-118705109D01*
X27299143Y-118705127D01*
X27211684Y-118961485D01*
X27211681Y-118961499D01*
X27162481Y-119227868D01*
X27162480Y-119227875D01*
X27152587Y-119498563D01*
X22860000Y-119498563D01*
X22860000Y-116043870D01*
X115758500Y-116043870D01*
X115758501Y-116043876D01*
X115764908Y-116103483D01*
X115815202Y-116238328D01*
X115815206Y-116238335D01*
X115901452Y-116353544D01*
X115901455Y-116353547D01*
X116016664Y-116439793D01*
X116016671Y-116439797D01*
X116151517Y-116490091D01*
X116151516Y-116490091D01*
X116158444Y-116490835D01*
X116211127Y-116496500D01*
X118338872Y-116496499D01*
X118398483Y-116490091D01*
X118481842Y-116459000D01*
X180478531Y-116459000D01*
X180497954Y-116842000D01*
X180550162Y-117182794D01*
X180556026Y-117221070D01*
X180613193Y-117441862D01*
X180652151Y-117592328D01*
X180785334Y-117951931D01*
X180785340Y-117951944D01*
X180954225Y-118296240D01*
X180954230Y-118296249D01*
X181157079Y-118621689D01*
X181365939Y-118891515D01*
X181391817Y-118924946D01*
X181615988Y-119160774D01*
X181656030Y-119202898D01*
X181947005Y-119452692D01*
X181947008Y-119452694D01*
X182261764Y-119671771D01*
X182517195Y-119813547D01*
X182597073Y-119857883D01*
X182649647Y-119880444D01*
X182949483Y-120009113D01*
X182949486Y-120009114D01*
X182949491Y-120009116D01*
X183315376Y-120123913D01*
X183315379Y-120123913D01*
X183315387Y-120123916D01*
X183691029Y-120201113D01*
X183996249Y-120232150D01*
X184072553Y-120239910D01*
X184072554Y-120239910D01*
X184456047Y-120239910D01*
X184519633Y-120233443D01*
X184837571Y-120201113D01*
X185213213Y-120123916D01*
X185295568Y-120098077D01*
X185579108Y-120009116D01*
X185579109Y-120009115D01*
X185579117Y-120009113D01*
X185931531Y-119857881D01*
X186266836Y-119671771D01*
X186581592Y-119452694D01*
X186872570Y-119202898D01*
X187136783Y-118924946D01*
X187371521Y-118621689D01*
X187423142Y-118538870D01*
X198508500Y-118538870D01*
X198508501Y-118538876D01*
X198514908Y-118598483D01*
X198565202Y-118733328D01*
X198565206Y-118733335D01*
X198651452Y-118848544D01*
X198651455Y-118848547D01*
X198766664Y-118934793D01*
X198766671Y-118934797D01*
X198901517Y-118985091D01*
X198901516Y-118985091D01*
X198908444Y-118985835D01*
X198961127Y-118991500D01*
X201088872Y-118991499D01*
X201148483Y-118985091D01*
X201283331Y-118934796D01*
X201398546Y-118848546D01*
X201484796Y-118733331D01*
X201528818Y-118615302D01*
X201570689Y-118559368D01*
X201636153Y-118534951D01*
X201704426Y-118549802D01*
X201753832Y-118599207D01*
X201761182Y-118615302D01*
X201805202Y-118733328D01*
X201805206Y-118733335D01*
X201891452Y-118848544D01*
X201891455Y-118848547D01*
X202006664Y-118934793D01*
X202006671Y-118934797D01*
X202141517Y-118985091D01*
X202141516Y-118985091D01*
X202148444Y-118985835D01*
X202201127Y-118991500D01*
X204328872Y-118991499D01*
X204388483Y-118985091D01*
X204523331Y-118934796D01*
X204638546Y-118848546D01*
X204724796Y-118733331D01*
X204775091Y-118598483D01*
X204781500Y-118538873D01*
X204781500Y-118538870D01*
X205128500Y-118538870D01*
X205128501Y-118538876D01*
X205134908Y-118598483D01*
X205185202Y-118733328D01*
X205185206Y-118733335D01*
X205271452Y-118848544D01*
X205271455Y-118848547D01*
X205386664Y-118934793D01*
X205386671Y-118934797D01*
X205521517Y-118985091D01*
X205521516Y-118985091D01*
X205528444Y-118985835D01*
X205581127Y-118991500D01*
X207708872Y-118991499D01*
X207768483Y-118985091D01*
X207903331Y-118934796D01*
X208018546Y-118848546D01*
X208104796Y-118733331D01*
X208155091Y-118598483D01*
X208161500Y-118538873D01*
X208161500Y-118538870D01*
X208668500Y-118538870D01*
X208668501Y-118538876D01*
X208674908Y-118598483D01*
X208725202Y-118733328D01*
X208725206Y-118733335D01*
X208811452Y-118848544D01*
X208811455Y-118848547D01*
X208926664Y-118934793D01*
X208926671Y-118934797D01*
X209061517Y-118985091D01*
X209061516Y-118985091D01*
X209068444Y-118985835D01*
X209121127Y-118991500D01*
X211248872Y-118991499D01*
X211308483Y-118985091D01*
X211443331Y-118934796D01*
X211558546Y-118848546D01*
X211644796Y-118733331D01*
X211695091Y-118598483D01*
X211701500Y-118538873D01*
X211701500Y-118538870D01*
X212208500Y-118538870D01*
X212208501Y-118538876D01*
X212214908Y-118598483D01*
X212265202Y-118733328D01*
X212265206Y-118733335D01*
X212351452Y-118848544D01*
X212351455Y-118848547D01*
X212466664Y-118934793D01*
X212466671Y-118934797D01*
X212601517Y-118985091D01*
X212601516Y-118985091D01*
X212608444Y-118985835D01*
X212661127Y-118991500D01*
X214788872Y-118991499D01*
X214848483Y-118985091D01*
X214983331Y-118934796D01*
X215098546Y-118848546D01*
X215184796Y-118733331D01*
X215235091Y-118598483D01*
X215241500Y-118538873D01*
X215241500Y-118538844D01*
X215749000Y-118538844D01*
X215755401Y-118598372D01*
X215755403Y-118598379D01*
X215805645Y-118733086D01*
X215805649Y-118733093D01*
X215891809Y-118848187D01*
X215891812Y-118848190D01*
X216006906Y-118934350D01*
X216006913Y-118934354D01*
X216141620Y-118984596D01*
X216141627Y-118984598D01*
X216201155Y-118990999D01*
X216201172Y-118991000D01*
X217015000Y-118991000D01*
X217015000Y-117910501D01*
X217122685Y-117959680D01*
X217229237Y-117975000D01*
X217300763Y-117975000D01*
X217407315Y-117959680D01*
X217515000Y-117910501D01*
X217515000Y-118991000D01*
X218328828Y-118991000D01*
X218328844Y-118990999D01*
X218388372Y-118984598D01*
X218388379Y-118984596D01*
X218523086Y-118934354D01*
X218523093Y-118934350D01*
X218638187Y-118848190D01*
X218638190Y-118848187D01*
X218724350Y-118733093D01*
X218724354Y-118733086D01*
X218774596Y-118598379D01*
X218774598Y-118598372D01*
X218780999Y-118538844D01*
X218781000Y-118538827D01*
X218781000Y-118330163D01*
X267741387Y-118330163D01*
X267771013Y-118599413D01*
X267771015Y-118599424D01*
X267839526Y-118861482D01*
X267839528Y-118861488D01*
X267945470Y-119110790D01*
X268017598Y-119228975D01*
X268086579Y-119342005D01*
X268086586Y-119342015D01*
X268259853Y-119550219D01*
X268259859Y-119550224D01*
X268461598Y-119730982D01*
X268687510Y-119880444D01*
X268932776Y-119995420D01*
X268932783Y-119995422D01*
X268932785Y-119995423D01*
X269192157Y-120073457D01*
X269192164Y-120073458D01*
X269192169Y-120073460D01*
X269460161Y-120112900D01*
X269460166Y-120112900D01*
X269663236Y-120112900D01*
X269714733Y-120109130D01*
X269865756Y-120098077D01*
X269978358Y-120072993D01*
X270130146Y-120039182D01*
X270130148Y-120039181D01*
X270130153Y-120039180D01*
X270383158Y-119942414D01*
X270619377Y-119809841D01*
X270833777Y-119644288D01*
X271021786Y-119449281D01*
X271179399Y-119228979D01*
X271253387Y-119085069D01*
X271303249Y-118988090D01*
X271303251Y-118988084D01*
X271303256Y-118988075D01*
X271390164Y-118733328D01*
X271390715Y-118731714D01*
X271390715Y-118731713D01*
X271390718Y-118731705D01*
X271439919Y-118465333D01*
X271449812Y-118194635D01*
X271420186Y-117925382D01*
X271351672Y-117663312D01*
X271245730Y-117414010D01*
X271104618Y-117182790D01*
X271072117Y-117143736D01*
X270931346Y-116974580D01*
X270931340Y-116974575D01*
X270729602Y-116793818D01*
X270503692Y-116644357D01*
X270503690Y-116644356D01*
X270258424Y-116529380D01*
X270258419Y-116529378D01*
X270258414Y-116529376D01*
X269999042Y-116451342D01*
X269999028Y-116451339D01*
X269883391Y-116434321D01*
X269731039Y-116411900D01*
X269527969Y-116411900D01*
X269527964Y-116411900D01*
X269325444Y-116426723D01*
X269325431Y-116426725D01*
X269061053Y-116485617D01*
X269061046Y-116485620D01*
X268808039Y-116582387D01*
X268571826Y-116714957D01*
X268357422Y-116880512D01*
X268169422Y-117075509D01*
X268169416Y-117075516D01*
X268011802Y-117295819D01*
X268011799Y-117295824D01*
X267887950Y-117536709D01*
X267887943Y-117536727D01*
X267800484Y-117793085D01*
X267800481Y-117793099D01*
X267751281Y-118059468D01*
X267751280Y-118059475D01*
X267741387Y-118330163D01*
X218781000Y-118330163D01*
X218781000Y-117725000D01*
X217698686Y-117725000D01*
X217724493Y-117684844D01*
X217765000Y-117546889D01*
X217765000Y-117403111D01*
X217724493Y-117265156D01*
X217698686Y-117225000D01*
X218781000Y-117225000D01*
X218781000Y-116411172D01*
X218780999Y-116411155D01*
X218774598Y-116351627D01*
X218774596Y-116351620D01*
X218724354Y-116216913D01*
X218724350Y-116216906D01*
X218638190Y-116101812D01*
X218638187Y-116101809D01*
X218523093Y-116015649D01*
X218523086Y-116015645D01*
X218388379Y-115965403D01*
X218388372Y-115965401D01*
X218328844Y-115959000D01*
X217515000Y-115959000D01*
X217515000Y-117039498D01*
X217407315Y-116990320D01*
X217300763Y-116975000D01*
X217229237Y-116975000D01*
X217122685Y-116990320D01*
X217015000Y-117039498D01*
X217015000Y-115959000D01*
X216201155Y-115959000D01*
X216141627Y-115965401D01*
X216141620Y-115965403D01*
X216006913Y-116015645D01*
X216006906Y-116015649D01*
X215891812Y-116101809D01*
X215891809Y-116101812D01*
X215805649Y-116216906D01*
X215805645Y-116216913D01*
X215755403Y-116351620D01*
X215755401Y-116351627D01*
X215749000Y-116411155D01*
X215749000Y-117225000D01*
X216831314Y-117225000D01*
X216805507Y-117265156D01*
X216765000Y-117403111D01*
X216765000Y-117546889D01*
X216805507Y-117684844D01*
X216831314Y-117725000D01*
X215749000Y-117725000D01*
X215749000Y-118538844D01*
X215241500Y-118538844D01*
X215241499Y-116411128D01*
X215235091Y-116351517D01*
X215234820Y-116350791D01*
X215184797Y-116216671D01*
X215184793Y-116216664D01*
X215098547Y-116101455D01*
X215098544Y-116101452D01*
X214983335Y-116015206D01*
X214983328Y-116015202D01*
X214848482Y-115964908D01*
X214848483Y-115964908D01*
X214788883Y-115958501D01*
X214788881Y-115958500D01*
X214788873Y-115958500D01*
X214788864Y-115958500D01*
X212661129Y-115958500D01*
X212661123Y-115958501D01*
X212601516Y-115964908D01*
X212466671Y-116015202D01*
X212466664Y-116015206D01*
X212351455Y-116101452D01*
X212351452Y-116101455D01*
X212265206Y-116216664D01*
X212265202Y-116216671D01*
X212214908Y-116351517D01*
X212209675Y-116400196D01*
X212208501Y-116411123D01*
X212208500Y-116411135D01*
X212208500Y-118538870D01*
X211701500Y-118538870D01*
X211701499Y-116411128D01*
X211695091Y-116351517D01*
X211694820Y-116350791D01*
X211644797Y-116216671D01*
X211644793Y-116216664D01*
X211558547Y-116101455D01*
X211558544Y-116101452D01*
X211443335Y-116015206D01*
X211443328Y-116015202D01*
X211308482Y-115964908D01*
X211308483Y-115964908D01*
X211248883Y-115958501D01*
X211248881Y-115958500D01*
X211248873Y-115958500D01*
X211248864Y-115958500D01*
X209121129Y-115958500D01*
X209121123Y-115958501D01*
X209061516Y-115964908D01*
X208926671Y-116015202D01*
X208926664Y-116015206D01*
X208811455Y-116101452D01*
X208811452Y-116101455D01*
X208725206Y-116216664D01*
X208725202Y-116216671D01*
X208674908Y-116351517D01*
X208669675Y-116400196D01*
X208668501Y-116411123D01*
X208668500Y-116411135D01*
X208668500Y-118538870D01*
X208161500Y-118538870D01*
X208161499Y-116411128D01*
X208155091Y-116351517D01*
X208154820Y-116350791D01*
X208104797Y-116216671D01*
X208104793Y-116216664D01*
X208018547Y-116101455D01*
X208018544Y-116101452D01*
X207903335Y-116015206D01*
X207903328Y-116015202D01*
X207768482Y-115964908D01*
X207768483Y-115964908D01*
X207708883Y-115958501D01*
X207708881Y-115958500D01*
X207708873Y-115958500D01*
X207708864Y-115958500D01*
X205581129Y-115958500D01*
X205581123Y-115958501D01*
X205521516Y-115964908D01*
X205386671Y-116015202D01*
X205386664Y-116015206D01*
X205271455Y-116101452D01*
X205271452Y-116101455D01*
X205185206Y-116216664D01*
X205185202Y-116216671D01*
X205134908Y-116351517D01*
X205129675Y-116400196D01*
X205128501Y-116411123D01*
X205128500Y-116411135D01*
X205128500Y-118538870D01*
X204781500Y-118538870D01*
X204781499Y-116411128D01*
X204775091Y-116351517D01*
X204774820Y-116350791D01*
X204724797Y-116216671D01*
X204724793Y-116216664D01*
X204638547Y-116101455D01*
X204638544Y-116101452D01*
X204523335Y-116015206D01*
X204523328Y-116015202D01*
X204388482Y-115964908D01*
X204388483Y-115964908D01*
X204328883Y-115958501D01*
X204328881Y-115958500D01*
X204328873Y-115958500D01*
X204328864Y-115958500D01*
X202201129Y-115958500D01*
X202201123Y-115958501D01*
X202141516Y-115964908D01*
X202006671Y-116015202D01*
X202006664Y-116015206D01*
X201891455Y-116101452D01*
X201891452Y-116101455D01*
X201805206Y-116216664D01*
X201805202Y-116216671D01*
X201761182Y-116334697D01*
X201719311Y-116390631D01*
X201653847Y-116415048D01*
X201585574Y-116400196D01*
X201536168Y-116350791D01*
X201528818Y-116334697D01*
X201484797Y-116216671D01*
X201484793Y-116216664D01*
X201398547Y-116101455D01*
X201398544Y-116101452D01*
X201283335Y-116015206D01*
X201283328Y-116015202D01*
X201148482Y-115964908D01*
X201148483Y-115964908D01*
X201088883Y-115958501D01*
X201088881Y-115958500D01*
X201088873Y-115958500D01*
X201088864Y-115958500D01*
X198961129Y-115958500D01*
X198961123Y-115958501D01*
X198901516Y-115964908D01*
X198766671Y-116015202D01*
X198766664Y-116015206D01*
X198651455Y-116101452D01*
X198651452Y-116101455D01*
X198565206Y-116216664D01*
X198565202Y-116216671D01*
X198514908Y-116351517D01*
X198509675Y-116400196D01*
X198508501Y-116411123D01*
X198508500Y-116411135D01*
X198508500Y-118538870D01*
X187423142Y-118538870D01*
X187574374Y-118296241D01*
X187743262Y-117951940D01*
X187876451Y-117592320D01*
X187972574Y-117221070D01*
X188030645Y-116842000D01*
X188050069Y-116459000D01*
X188030645Y-116076000D01*
X187972574Y-115696930D01*
X187876451Y-115325680D01*
X187743262Y-114966060D01*
X187574374Y-114621759D01*
X187574369Y-114621750D01*
X187371520Y-114296310D01*
X187341713Y-114257803D01*
X187136783Y-113993054D01*
X186872570Y-113715102D01*
X186872569Y-113715101D01*
X186581594Y-113465307D01*
X186404302Y-113341909D01*
X186266836Y-113246229D01*
X185931531Y-113060119D01*
X185931532Y-113060119D01*
X185931526Y-113060116D01*
X185579108Y-112908883D01*
X185213223Y-112794086D01*
X185213217Y-112794085D01*
X185213214Y-112794084D01*
X185213213Y-112794084D01*
X184837571Y-112716887D01*
X184837570Y-112716886D01*
X184837566Y-112716886D01*
X184456047Y-112678090D01*
X184456046Y-112678090D01*
X184072554Y-112678090D01*
X184072553Y-112678090D01*
X183691033Y-112716886D01*
X183315382Y-112794085D01*
X183315376Y-112794086D01*
X182949491Y-112908883D01*
X182597073Y-113060116D01*
X182261762Y-113246230D01*
X181947005Y-113465307D01*
X181656030Y-113715101D01*
X181391812Y-113993059D01*
X181157079Y-114296310D01*
X180954230Y-114621750D01*
X180954225Y-114621759D01*
X180785340Y-114966055D01*
X180785334Y-114966068D01*
X180652151Y-115325671D01*
X180556025Y-115696934D01*
X180497954Y-116075999D01*
X180478531Y-116459000D01*
X118481842Y-116459000D01*
X118533331Y-116439796D01*
X118648546Y-116353546D01*
X118734796Y-116238331D01*
X118785091Y-116103483D01*
X118791500Y-116043873D01*
X118791499Y-113916128D01*
X118785091Y-113856517D01*
X118767299Y-113808815D01*
X118734797Y-113721671D01*
X118734793Y-113721664D01*
X118648547Y-113606455D01*
X118648544Y-113606452D01*
X118533335Y-113520206D01*
X118533328Y-113520202D01*
X118398482Y-113469908D01*
X118398483Y-113469908D01*
X118338883Y-113463501D01*
X118338881Y-113463500D01*
X118338873Y-113463500D01*
X118338864Y-113463500D01*
X116211129Y-113463500D01*
X116211123Y-113463501D01*
X116151516Y-113469908D01*
X116016671Y-113520202D01*
X116016664Y-113520206D01*
X115901455Y-113606452D01*
X115901452Y-113606455D01*
X115815206Y-113721664D01*
X115815202Y-113721671D01*
X115764908Y-113856517D01*
X115758501Y-113916116D01*
X115758501Y-113916123D01*
X115758500Y-113916135D01*
X115758500Y-116043870D01*
X22860000Y-116043870D01*
X22860000Y-111963200D01*
X28133939Y-111963200D01*
X28154145Y-112194158D01*
X28154147Y-112194168D01*
X28214148Y-112418100D01*
X28214152Y-112418109D01*
X28312132Y-112628229D01*
X28312133Y-112628231D01*
X28367023Y-112706622D01*
X28367024Y-112706623D01*
X28938070Y-112135576D01*
X28940884Y-112149115D01*
X29010442Y-112283356D01*
X29113638Y-112393852D01*
X29242819Y-112472409D01*
X29294002Y-112486749D01*
X28720575Y-113060175D01*
X28798973Y-113115068D01*
X29009090Y-113213047D01*
X29009099Y-113213051D01*
X29233031Y-113273052D01*
X29233041Y-113273054D01*
X29463999Y-113293261D01*
X29464001Y-113293261D01*
X29694958Y-113273054D01*
X29694968Y-113273052D01*
X29918900Y-113213051D01*
X29918909Y-113213047D01*
X30129030Y-113115067D01*
X30207423Y-113060175D01*
X29635568Y-112488321D01*
X29752458Y-112437549D01*
X29869739Y-112342134D01*
X29956928Y-112218615D01*
X29987354Y-112133002D01*
X30560975Y-112706623D01*
X30615867Y-112628230D01*
X30713847Y-112418109D01*
X30713851Y-112418100D01*
X30773852Y-112194168D01*
X30773854Y-112194158D01*
X30794061Y-111963200D01*
X30794061Y-111963199D01*
X30773854Y-111732241D01*
X30773852Y-111732231D01*
X30759857Y-111680000D01*
X35629785Y-111680000D01*
X35648602Y-111883082D01*
X35704417Y-112079247D01*
X35704422Y-112079260D01*
X35795327Y-112261821D01*
X35918237Y-112424581D01*
X36068958Y-112561980D01*
X36068960Y-112561982D01*
X36104332Y-112583883D01*
X36242363Y-112669348D01*
X36432544Y-112743024D01*
X36633024Y-112780500D01*
X36633026Y-112780500D01*
X36836974Y-112780500D01*
X36836976Y-112780500D01*
X37037456Y-112743024D01*
X37227637Y-112669348D01*
X37365689Y-112583870D01*
X115758500Y-112583870D01*
X115758501Y-112583876D01*
X115764908Y-112643483D01*
X115815202Y-112778328D01*
X115815206Y-112778335D01*
X115901452Y-112893544D01*
X115901455Y-112893547D01*
X116016664Y-112979793D01*
X116016671Y-112979797D01*
X116151517Y-113030091D01*
X116151516Y-113030091D01*
X116158444Y-113030835D01*
X116211127Y-113036500D01*
X118338872Y-113036499D01*
X118398483Y-113030091D01*
X118533331Y-112979796D01*
X118648546Y-112893546D01*
X118734796Y-112778331D01*
X118785091Y-112643483D01*
X118791500Y-112583873D01*
X118791499Y-110456128D01*
X118785091Y-110396517D01*
X118734796Y-110261669D01*
X118734795Y-110261668D01*
X118734793Y-110261664D01*
X118648547Y-110146455D01*
X118648544Y-110146452D01*
X118533335Y-110060206D01*
X118533328Y-110060202D01*
X118398482Y-110009908D01*
X118398483Y-110009908D01*
X118338883Y-110003501D01*
X118338881Y-110003500D01*
X118338873Y-110003500D01*
X118338864Y-110003500D01*
X116211129Y-110003500D01*
X116211123Y-110003501D01*
X116151516Y-110009908D01*
X116016671Y-110060202D01*
X116016664Y-110060206D01*
X115901455Y-110146452D01*
X115901452Y-110146455D01*
X115815206Y-110261664D01*
X115815202Y-110261671D01*
X115764908Y-110396517D01*
X115758514Y-110455997D01*
X115758501Y-110456123D01*
X115758500Y-110456135D01*
X115758500Y-112583870D01*
X37365689Y-112583870D01*
X37401041Y-112561981D01*
X37551764Y-112424579D01*
X37674673Y-112261821D01*
X37765582Y-112079250D01*
X37821397Y-111883083D01*
X37840215Y-111680000D01*
X37821397Y-111476917D01*
X37765582Y-111280750D01*
X37674673Y-111098179D01*
X37551764Y-110935421D01*
X37551762Y-110935418D01*
X37401041Y-110798019D01*
X37401039Y-110798017D01*
X37227642Y-110690655D01*
X37227635Y-110690651D01*
X37131336Y-110653345D01*
X37037456Y-110616976D01*
X36836976Y-110579500D01*
X36633024Y-110579500D01*
X36432544Y-110616976D01*
X36432541Y-110616976D01*
X36432541Y-110616977D01*
X36242364Y-110690651D01*
X36242357Y-110690655D01*
X36068960Y-110798017D01*
X36068958Y-110798019D01*
X35918237Y-110935418D01*
X35795327Y-111098178D01*
X35704422Y-111280739D01*
X35704417Y-111280752D01*
X35648602Y-111476917D01*
X35629785Y-111679999D01*
X35629785Y-111680000D01*
X30759857Y-111680000D01*
X30713851Y-111508299D01*
X30713847Y-111508290D01*
X30615868Y-111298172D01*
X30560974Y-111219776D01*
X29989929Y-111790822D01*
X29987116Y-111777285D01*
X29917558Y-111643044D01*
X29814362Y-111532548D01*
X29685181Y-111453991D01*
X29633997Y-111439650D01*
X30207423Y-110866224D01*
X30207422Y-110866223D01*
X30129031Y-110811333D01*
X30129029Y-110811332D01*
X29918909Y-110713352D01*
X29918900Y-110713348D01*
X29694968Y-110653347D01*
X29694958Y-110653345D01*
X29464001Y-110633139D01*
X29463999Y-110633139D01*
X29233041Y-110653345D01*
X29233031Y-110653347D01*
X29009099Y-110713348D01*
X29009090Y-110713352D01*
X28798971Y-110811332D01*
X28798969Y-110811333D01*
X28720577Y-110866224D01*
X28720576Y-110866224D01*
X29292431Y-111438078D01*
X29175542Y-111488851D01*
X29058261Y-111584266D01*
X28971072Y-111707785D01*
X28940645Y-111793397D01*
X28367024Y-111219776D01*
X28367024Y-111219777D01*
X28312133Y-111298169D01*
X28312132Y-111298171D01*
X28214152Y-111508290D01*
X28214148Y-111508299D01*
X28154147Y-111732231D01*
X28154145Y-111732241D01*
X28133939Y-111963199D01*
X28133939Y-111963200D01*
X22860000Y-111963200D01*
X22860000Y-109140000D01*
X35629785Y-109140000D01*
X35648602Y-109343082D01*
X35704417Y-109539247D01*
X35704422Y-109539260D01*
X35795327Y-109721821D01*
X35918237Y-109884581D01*
X36068958Y-110021980D01*
X36068960Y-110021982D01*
X36168141Y-110083392D01*
X36242363Y-110129348D01*
X36432544Y-110203024D01*
X36633024Y-110240500D01*
X36633026Y-110240500D01*
X36836974Y-110240500D01*
X36836976Y-110240500D01*
X37037456Y-110203024D01*
X37227637Y-110129348D01*
X37401041Y-110021981D01*
X37551764Y-109884579D01*
X37674673Y-109721821D01*
X37765582Y-109539250D01*
X37821397Y-109343083D01*
X37840215Y-109140000D01*
X37838720Y-109123870D01*
X115758500Y-109123870D01*
X115758501Y-109123876D01*
X115764908Y-109183483D01*
X115815202Y-109318328D01*
X115815206Y-109318335D01*
X115901452Y-109433544D01*
X115901455Y-109433547D01*
X116016664Y-109519793D01*
X116016671Y-109519797D01*
X116151517Y-109570091D01*
X116151516Y-109570091D01*
X116158444Y-109570835D01*
X116211127Y-109576500D01*
X118338872Y-109576499D01*
X118398483Y-109570091D01*
X118533331Y-109519796D01*
X118648546Y-109433546D01*
X118734796Y-109318331D01*
X118785091Y-109183483D01*
X118791500Y-109123873D01*
X118791499Y-106996128D01*
X118786299Y-106947757D01*
X118785091Y-106936516D01*
X118734797Y-106801671D01*
X118734793Y-106801664D01*
X118648547Y-106686455D01*
X118648544Y-106686452D01*
X118533335Y-106600206D01*
X118533328Y-106600202D01*
X118398482Y-106549908D01*
X118398483Y-106549908D01*
X118338883Y-106543501D01*
X118338881Y-106543500D01*
X118338873Y-106543500D01*
X118338864Y-106543500D01*
X116211129Y-106543500D01*
X116211123Y-106543501D01*
X116151516Y-106549908D01*
X116016671Y-106600202D01*
X116016664Y-106600206D01*
X115901455Y-106686452D01*
X115901452Y-106686455D01*
X115815206Y-106801664D01*
X115815202Y-106801671D01*
X115764908Y-106936517D01*
X115758705Y-106994216D01*
X115758501Y-106996123D01*
X115758500Y-106996135D01*
X115758500Y-109123870D01*
X37838720Y-109123870D01*
X37821397Y-108936917D01*
X37765582Y-108740750D01*
X37674673Y-108558179D01*
X37551764Y-108395421D01*
X37551762Y-108395418D01*
X37401041Y-108258019D01*
X37401039Y-108258017D01*
X37227642Y-108150655D01*
X37227635Y-108150651D01*
X37132546Y-108113814D01*
X37037456Y-108076976D01*
X36836976Y-108039500D01*
X36633024Y-108039500D01*
X36432544Y-108076976D01*
X36432541Y-108076976D01*
X36432541Y-108076977D01*
X36242364Y-108150651D01*
X36242357Y-108150655D01*
X36068960Y-108258017D01*
X36068958Y-108258019D01*
X35918237Y-108395418D01*
X35795327Y-108558178D01*
X35704422Y-108740739D01*
X35704417Y-108740752D01*
X35648602Y-108936917D01*
X35629785Y-109139999D01*
X35629785Y-109140000D01*
X22860000Y-109140000D01*
X22860000Y-106883201D01*
X28133437Y-106883201D01*
X28153650Y-107114244D01*
X28153651Y-107114251D01*
X28213678Y-107338274D01*
X28213679Y-107338276D01*
X28213680Y-107338279D01*
X28311699Y-107548482D01*
X28444730Y-107738469D01*
X28608731Y-107902470D01*
X28798718Y-108035501D01*
X29008921Y-108133520D01*
X29232950Y-108193549D01*
X29397985Y-108207987D01*
X29463998Y-108213763D01*
X29464000Y-108213763D01*
X29464002Y-108213763D01*
X29521762Y-108208709D01*
X29695050Y-108193549D01*
X29919079Y-108133520D01*
X30129282Y-108035501D01*
X30319269Y-107902470D01*
X30483270Y-107738469D01*
X30616301Y-107548482D01*
X30714320Y-107338279D01*
X30774349Y-107114250D01*
X30791675Y-106916207D01*
X30794563Y-106883201D01*
X30794563Y-106883198D01*
X30787560Y-106803150D01*
X30774349Y-106652150D01*
X30714320Y-106428121D01*
X30616301Y-106217919D01*
X30616299Y-106217916D01*
X30616298Y-106217914D01*
X30483273Y-106027935D01*
X30483268Y-106027929D01*
X30319269Y-105863930D01*
X30319263Y-105863926D01*
X30129282Y-105730899D01*
X29919079Y-105632880D01*
X29919076Y-105632879D01*
X29919074Y-105632878D01*
X29695051Y-105572851D01*
X29695044Y-105572850D01*
X29464002Y-105552637D01*
X29463998Y-105552637D01*
X29232955Y-105572850D01*
X29232948Y-105572851D01*
X29008917Y-105632881D01*
X28798718Y-105730899D01*
X28798714Y-105730901D01*
X28608735Y-105863926D01*
X28608729Y-105863931D01*
X28444731Y-106027929D01*
X28444726Y-106027935D01*
X28311701Y-106217914D01*
X28311699Y-106217918D01*
X28213681Y-106428117D01*
X28153651Y-106652148D01*
X28153650Y-106652155D01*
X28133437Y-106883198D01*
X28133437Y-106883201D01*
X22860000Y-106883201D01*
X22860000Y-101803201D01*
X28133437Y-101803201D01*
X28153650Y-102034244D01*
X28153651Y-102034251D01*
X28213678Y-102258274D01*
X28213679Y-102258276D01*
X28213680Y-102258279D01*
X28311699Y-102468482D01*
X28444730Y-102658469D01*
X28608731Y-102822470D01*
X28798718Y-102955501D01*
X29008921Y-103053520D01*
X29232950Y-103113549D01*
X29397985Y-103127987D01*
X29463998Y-103133763D01*
X29464000Y-103133763D01*
X29464002Y-103133763D01*
X29521762Y-103128709D01*
X29695050Y-103113549D01*
X29919079Y-103053520D01*
X30129282Y-102955501D01*
X30319269Y-102822470D01*
X30483270Y-102658469D01*
X30616301Y-102468482D01*
X30714320Y-102258279D01*
X30774349Y-102034250D01*
X30794563Y-101803200D01*
X30774349Y-101572150D01*
X30714320Y-101348121D01*
X30616301Y-101137919D01*
X30616299Y-101137916D01*
X30616298Y-101137914D01*
X30483273Y-100947935D01*
X30483268Y-100947929D01*
X30319269Y-100783930D01*
X30286666Y-100761101D01*
X30129282Y-100650899D01*
X29919079Y-100552880D01*
X29919076Y-100552879D01*
X29919074Y-100552878D01*
X29695051Y-100492851D01*
X29695044Y-100492850D01*
X29464002Y-100472637D01*
X29463998Y-100472637D01*
X29232955Y-100492850D01*
X29232948Y-100492851D01*
X29008917Y-100552881D01*
X28798718Y-100650899D01*
X28798714Y-100650901D01*
X28608735Y-100783926D01*
X28608729Y-100783931D01*
X28444731Y-100947929D01*
X28444726Y-100947935D01*
X28311701Y-101137914D01*
X28311699Y-101137918D01*
X28213681Y-101348117D01*
X28153651Y-101572148D01*
X28153650Y-101572155D01*
X28133437Y-101803198D01*
X28133437Y-101803201D01*
X22860000Y-101803201D01*
X22860000Y-98571513D01*
X44564537Y-98571513D01*
X44594163Y-98840763D01*
X44594165Y-98840774D01*
X44662676Y-99102832D01*
X44662678Y-99102838D01*
X44768620Y-99352140D01*
X44840748Y-99470325D01*
X44909729Y-99583355D01*
X44909736Y-99583365D01*
X45083003Y-99791569D01*
X45083009Y-99791574D01*
X45284748Y-99972332D01*
X45510660Y-100121794D01*
X45755926Y-100236770D01*
X45755933Y-100236772D01*
X45755935Y-100236773D01*
X46015307Y-100314807D01*
X46015314Y-100314808D01*
X46015319Y-100314810D01*
X46283311Y-100354250D01*
X46283316Y-100354250D01*
X46486386Y-100354250D01*
X46537883Y-100350480D01*
X46688906Y-100339427D01*
X46801508Y-100314343D01*
X46953296Y-100280532D01*
X46953298Y-100280531D01*
X46953303Y-100280530D01*
X47206308Y-100183764D01*
X47442527Y-100051191D01*
X47656927Y-99885638D01*
X47844936Y-99690631D01*
X48002549Y-99470329D01*
X48081499Y-99316770D01*
X48126399Y-99229440D01*
X48126401Y-99229434D01*
X48126406Y-99229425D01*
X48213868Y-98973055D01*
X48263069Y-98706683D01*
X48268009Y-98571513D01*
X105842037Y-98571513D01*
X105871663Y-98840763D01*
X105871665Y-98840774D01*
X105940176Y-99102832D01*
X105940178Y-99102838D01*
X106046120Y-99352140D01*
X106118248Y-99470325D01*
X106187229Y-99583355D01*
X106187236Y-99583365D01*
X106360503Y-99791569D01*
X106360509Y-99791574D01*
X106562248Y-99972332D01*
X106788160Y-100121794D01*
X107033426Y-100236770D01*
X107033433Y-100236772D01*
X107033435Y-100236773D01*
X107292807Y-100314807D01*
X107292814Y-100314808D01*
X107292819Y-100314810D01*
X107560811Y-100354250D01*
X107560816Y-100354250D01*
X107763886Y-100354250D01*
X107815383Y-100350480D01*
X107966406Y-100339427D01*
X108079008Y-100314343D01*
X108230796Y-100280532D01*
X108230798Y-100280531D01*
X108230803Y-100280530D01*
X108483808Y-100183764D01*
X108720027Y-100051191D01*
X108934427Y-99885638D01*
X109122436Y-99690631D01*
X109280049Y-99470329D01*
X109358999Y-99316770D01*
X109403899Y-99229440D01*
X109403901Y-99229434D01*
X109403906Y-99229425D01*
X109491368Y-98973055D01*
X109540569Y-98706683D01*
X109550462Y-98435985D01*
X109520836Y-98166732D01*
X109452322Y-97904662D01*
X109346380Y-97655360D01*
X109205268Y-97424140D01*
X109115997Y-97316869D01*
X109031996Y-97215930D01*
X109031990Y-97215925D01*
X108830252Y-97035168D01*
X108604342Y-96885707D01*
X108604340Y-96885706D01*
X108359074Y-96770730D01*
X108359069Y-96770728D01*
X108359064Y-96770726D01*
X108099692Y-96692692D01*
X108099678Y-96692689D01*
X107984041Y-96675671D01*
X107831689Y-96653250D01*
X107628619Y-96653250D01*
X107628614Y-96653250D01*
X107426094Y-96668073D01*
X107426081Y-96668075D01*
X107161703Y-96726967D01*
X107161696Y-96726970D01*
X106908689Y-96823737D01*
X106672476Y-96956307D01*
X106458072Y-97121862D01*
X106270072Y-97316859D01*
X106270066Y-97316866D01*
X106112452Y-97537169D01*
X106112449Y-97537174D01*
X105988600Y-97778059D01*
X105988593Y-97778077D01*
X105901134Y-98034435D01*
X105901131Y-98034449D01*
X105876699Y-98166725D01*
X105852544Y-98297501D01*
X105851931Y-98300818D01*
X105851930Y-98300825D01*
X105842037Y-98571513D01*
X48268009Y-98571513D01*
X48272962Y-98435985D01*
X48243336Y-98166732D01*
X48174822Y-97904662D01*
X48068880Y-97655360D01*
X47927768Y-97424140D01*
X47838497Y-97316869D01*
X47754496Y-97215930D01*
X47754490Y-97215925D01*
X47552752Y-97035168D01*
X47326842Y-96885707D01*
X47326840Y-96885706D01*
X47081574Y-96770730D01*
X47081569Y-96770728D01*
X47081564Y-96770726D01*
X46822192Y-96692692D01*
X46822178Y-96692689D01*
X46706541Y-96675671D01*
X46554189Y-96653250D01*
X46351119Y-96653250D01*
X46351114Y-96653250D01*
X46148594Y-96668073D01*
X46148581Y-96668075D01*
X45884203Y-96726967D01*
X45884196Y-96726970D01*
X45631189Y-96823737D01*
X45394976Y-96956307D01*
X45180572Y-97121862D01*
X44992572Y-97316859D01*
X44992566Y-97316866D01*
X44834952Y-97537169D01*
X44834949Y-97537174D01*
X44711100Y-97778059D01*
X44711093Y-97778077D01*
X44623634Y-98034435D01*
X44623631Y-98034449D01*
X44599199Y-98166725D01*
X44575044Y-98297501D01*
X44574431Y-98300818D01*
X44574430Y-98300825D01*
X44564537Y-98571513D01*
X22860000Y-98571513D01*
X22860000Y-97596070D01*
X28138500Y-97596070D01*
X28138501Y-97596076D01*
X28144908Y-97655683D01*
X28195202Y-97790528D01*
X28195206Y-97790535D01*
X28281452Y-97905744D01*
X28281455Y-97905747D01*
X28396664Y-97991993D01*
X28396671Y-97991997D01*
X28531517Y-98042291D01*
X28531516Y-98042291D01*
X28538444Y-98043035D01*
X28591127Y-98048700D01*
X30336872Y-98048699D01*
X30396483Y-98042291D01*
X30531331Y-97991996D01*
X30646546Y-97905746D01*
X30732796Y-97790531D01*
X30783091Y-97655683D01*
X30789500Y-97596073D01*
X30789499Y-95850328D01*
X30783091Y-95790717D01*
X30752075Y-95707560D01*
X30732797Y-95655871D01*
X30732793Y-95655864D01*
X30646547Y-95540655D01*
X30646544Y-95540652D01*
X30531335Y-95454406D01*
X30531328Y-95454402D01*
X30396482Y-95404108D01*
X30396483Y-95404108D01*
X30336883Y-95397701D01*
X30336881Y-95397700D01*
X30336873Y-95397700D01*
X30336864Y-95397700D01*
X28591129Y-95397700D01*
X28591123Y-95397701D01*
X28531516Y-95404108D01*
X28396671Y-95454402D01*
X28396664Y-95454406D01*
X28281455Y-95540652D01*
X28281452Y-95540655D01*
X28195206Y-95655864D01*
X28195202Y-95655871D01*
X28144908Y-95790717D01*
X28138501Y-95850316D01*
X28138501Y-95850323D01*
X28138500Y-95850335D01*
X28138500Y-97596070D01*
X22860000Y-97596070D01*
X22860000Y-90961587D01*
X37416300Y-90961587D01*
X37433693Y-91076977D01*
X37455404Y-91221015D01*
X37455405Y-91221017D01*
X37455406Y-91221023D01*
X37532738Y-91471726D01*
X37646567Y-91708096D01*
X37646568Y-91708097D01*
X37646570Y-91708100D01*
X37646572Y-91708104D01*
X37729443Y-91829653D01*
X37794367Y-91924879D01*
X37972814Y-92117201D01*
X37972818Y-92117204D01*
X37972819Y-92117205D01*
X38177943Y-92280786D01*
X38405157Y-92411968D01*
X38649384Y-92507820D01*
X38905170Y-92566202D01*
X38905176Y-92566202D01*
X38905179Y-92566203D01*
X39101300Y-92580900D01*
X39101306Y-92580900D01*
X39232300Y-92580900D01*
X39428420Y-92566203D01*
X39428422Y-92566202D01*
X39428430Y-92566202D01*
X39684216Y-92507820D01*
X39928443Y-92411968D01*
X40155657Y-92280786D01*
X40360781Y-92117205D01*
X40539233Y-91924879D01*
X40687028Y-91708104D01*
X40800863Y-91471723D01*
X40878196Y-91221015D01*
X40917300Y-90961582D01*
X40917300Y-90699218D01*
X40878196Y-90439785D01*
X40800863Y-90189077D01*
X40744627Y-90072301D01*
X40687032Y-89952703D01*
X40687031Y-89952702D01*
X40687030Y-89952701D01*
X40687028Y-89952696D01*
X40552923Y-89756000D01*
X59190275Y-89756000D01*
X59208502Y-90092193D01*
X59210361Y-90126470D01*
X59210362Y-90126487D01*
X59270382Y-90492589D01*
X59270387Y-90492610D01*
X59369640Y-90850089D01*
X59369641Y-90850091D01*
X59506965Y-91194751D01*
X59506974Y-91194769D01*
X59680760Y-91522563D01*
X59680761Y-91522566D01*
X59888965Y-91829643D01*
X59888973Y-91829653D01*
X60129157Y-92112418D01*
X60398514Y-92367566D01*
X60398526Y-92367576D01*
X60693875Y-92592095D01*
X60693892Y-92592107D01*
X60976959Y-92762421D01*
X61011787Y-92783376D01*
X61011791Y-92783377D01*
X61011795Y-92783380D01*
X61348501Y-92939157D01*
X61348512Y-92939162D01*
X61700107Y-93057628D01*
X62062450Y-93137386D01*
X62431292Y-93177500D01*
X62431298Y-93177500D01*
X62802302Y-93177500D01*
X62802308Y-93177500D01*
X63171150Y-93137386D01*
X63533493Y-93057628D01*
X63885088Y-92939162D01*
X64221813Y-92783376D01*
X64343764Y-92710001D01*
X125197590Y-92710001D01*
X125218004Y-92995433D01*
X125278828Y-93275037D01*
X125378835Y-93543166D01*
X125515970Y-93794309D01*
X125515975Y-93794317D01*
X125687454Y-94023387D01*
X125687470Y-94023405D01*
X125889794Y-94225729D01*
X125889812Y-94225745D01*
X126118882Y-94397224D01*
X126118890Y-94397229D01*
X126370033Y-94534364D01*
X126370032Y-94534364D01*
X126370036Y-94534365D01*
X126370039Y-94534367D01*
X126638154Y-94634369D01*
X126638160Y-94634370D01*
X126638162Y-94634371D01*
X126917766Y-94695195D01*
X126917768Y-94695195D01*
X126917772Y-94695196D01*
X127171420Y-94713337D01*
X127203199Y-94715610D01*
X127203200Y-94715610D01*
X127203201Y-94715610D01*
X127231795Y-94713564D01*
X127488628Y-94695196D01*
X127768246Y-94634369D01*
X128036361Y-94534367D01*
X128287515Y-94397226D01*
X128516595Y-94225739D01*
X128718939Y-94023395D01*
X128890426Y-93794315D01*
X129027567Y-93543161D01*
X129127569Y-93275046D01*
X129188396Y-92995428D01*
X129208810Y-92710000D01*
X129188396Y-92424572D01*
X129175997Y-92367576D01*
X129127571Y-92144962D01*
X129127570Y-92144960D01*
X129127569Y-92144954D01*
X129027567Y-91876839D01*
X129001801Y-91829653D01*
X128890429Y-91625690D01*
X128890424Y-91625682D01*
X128718945Y-91396612D01*
X128718929Y-91396594D01*
X128516605Y-91194270D01*
X128516587Y-91194254D01*
X128287517Y-91022775D01*
X128287509Y-91022770D01*
X128036366Y-90885635D01*
X128036367Y-90885635D01*
X127929115Y-90845632D01*
X127768246Y-90785631D01*
X127768243Y-90785630D01*
X127768237Y-90785628D01*
X127488633Y-90724804D01*
X127203201Y-90704390D01*
X127203199Y-90704390D01*
X126917766Y-90724804D01*
X126638162Y-90785628D01*
X126370033Y-90885635D01*
X126118890Y-91022770D01*
X126118882Y-91022775D01*
X125889812Y-91194254D01*
X125889794Y-91194270D01*
X125687470Y-91396594D01*
X125687454Y-91396612D01*
X125515975Y-91625682D01*
X125515970Y-91625690D01*
X125378835Y-91876833D01*
X125278828Y-92144962D01*
X125218004Y-92424566D01*
X125197590Y-92709998D01*
X125197590Y-92710001D01*
X64343764Y-92710001D01*
X64343769Y-92709998D01*
X64539707Y-92592107D01*
X64539716Y-92592100D01*
X64539722Y-92592097D01*
X64835085Y-92367567D01*
X65104442Y-92112419D01*
X65344633Y-91829645D01*
X65538910Y-91543108D01*
X65552838Y-91522566D01*
X65552838Y-91522564D01*
X65552843Y-91522558D01*
X65726630Y-91194761D01*
X65863957Y-90850095D01*
X65871100Y-90824371D01*
X65935829Y-90591236D01*
X65963215Y-90492602D01*
X66012976Y-90189073D01*
X66023237Y-90126487D01*
X66023237Y-90126484D01*
X66023239Y-90126473D01*
X66043325Y-89756000D01*
X66023239Y-89385527D01*
X66022335Y-89380014D01*
X65963217Y-89019410D01*
X65963216Y-89019409D01*
X65963215Y-89019398D01*
X65930064Y-88900001D01*
X107214390Y-88900001D01*
X107234804Y-89185433D01*
X107295628Y-89465037D01*
X107295630Y-89465043D01*
X107295631Y-89465046D01*
X107381876Y-89696276D01*
X107395635Y-89733166D01*
X107532770Y-89984309D01*
X107532775Y-89984317D01*
X107704254Y-90213387D01*
X107704270Y-90213405D01*
X107906594Y-90415729D01*
X107906612Y-90415745D01*
X108135682Y-90587224D01*
X108135690Y-90587229D01*
X108386833Y-90724364D01*
X108386832Y-90724364D01*
X108386836Y-90724365D01*
X108386839Y-90724367D01*
X108654954Y-90824369D01*
X108654960Y-90824370D01*
X108654962Y-90824371D01*
X108934566Y-90885195D01*
X108934568Y-90885195D01*
X108934572Y-90885196D01*
X109188220Y-90903337D01*
X109219999Y-90905610D01*
X109220000Y-90905610D01*
X109220001Y-90905610D01*
X109248595Y-90903564D01*
X109505428Y-90885196D01*
X109658240Y-90851954D01*
X109785037Y-90824371D01*
X109785037Y-90824370D01*
X109785046Y-90824369D01*
X110053161Y-90724367D01*
X110304315Y-90587226D01*
X110533395Y-90415739D01*
X110735739Y-90213395D01*
X110907226Y-89984315D01*
X111044367Y-89733161D01*
X111058127Y-89696270D01*
X143119700Y-89696270D01*
X143119701Y-89696276D01*
X143126108Y-89755883D01*
X143176402Y-89890728D01*
X143176406Y-89890735D01*
X143262652Y-90005944D01*
X143262655Y-90005947D01*
X143377864Y-90092193D01*
X143377871Y-90092197D01*
X143512717Y-90142491D01*
X143512716Y-90142491D01*
X143519644Y-90143235D01*
X143572327Y-90148900D01*
X145368072Y-90148899D01*
X145427683Y-90142491D01*
X145562531Y-90092196D01*
X145677746Y-90005946D01*
X145763996Y-89890731D01*
X145814291Y-89755883D01*
X145820700Y-89696273D01*
X145820699Y-88798400D01*
X146084541Y-88798400D01*
X146105136Y-89033803D01*
X146105138Y-89033813D01*
X146166294Y-89262055D01*
X146166296Y-89262059D01*
X146166297Y-89262063D01*
X146254304Y-89450794D01*
X146266165Y-89476230D01*
X146266167Y-89476234D01*
X146373280Y-89629206D01*
X146401705Y-89669801D01*
X146568799Y-89836895D01*
X146665584Y-89904665D01*
X146762365Y-89972432D01*
X146762367Y-89972433D01*
X146762370Y-89972435D01*
X146976537Y-90072303D01*
X147204792Y-90133463D01*
X147381234Y-90148900D01*
X147440199Y-90154059D01*
X147440200Y-90154059D01*
X147440201Y-90154059D01*
X147499166Y-90148900D01*
X147675608Y-90133463D01*
X147903863Y-90072303D01*
X148118030Y-89972435D01*
X148311601Y-89836895D01*
X148478695Y-89669801D01*
X148614235Y-89476230D01*
X148714103Y-89262063D01*
X148775263Y-89033808D01*
X148795859Y-88798400D01*
X148775263Y-88562992D01*
X148714103Y-88334737D01*
X148614235Y-88120571D01*
X148596688Y-88095510D01*
X148478694Y-87926997D01*
X148311602Y-87759906D01*
X148311595Y-87759901D01*
X148310075Y-87758837D01*
X148234718Y-87706071D01*
X148118034Y-87624367D01*
X148118030Y-87624365D01*
X148118028Y-87624364D01*
X147903863Y-87524497D01*
X147903859Y-87524496D01*
X147903855Y-87524494D01*
X147675613Y-87463338D01*
X147675603Y-87463336D01*
X147440201Y-87442741D01*
X147440199Y-87442741D01*
X147204796Y-87463336D01*
X147204786Y-87463338D01*
X146976544Y-87524494D01*
X146976535Y-87524498D01*
X146762371Y-87624364D01*
X146762369Y-87624365D01*
X146568797Y-87759905D01*
X146401705Y-87926997D01*
X146266165Y-88120569D01*
X146266164Y-88120571D01*
X146166298Y-88334735D01*
X146166294Y-88334744D01*
X146105138Y-88562986D01*
X146105136Y-88562996D01*
X146084541Y-88798399D01*
X146084541Y-88798400D01*
X145820699Y-88798400D01*
X145820699Y-87900528D01*
X145814291Y-87840917D01*
X145810696Y-87831279D01*
X145763997Y-87706071D01*
X145763993Y-87706064D01*
X145677747Y-87590855D01*
X145677744Y-87590852D01*
X145562535Y-87504606D01*
X145562528Y-87504602D01*
X145427682Y-87454308D01*
X145427683Y-87454308D01*
X145368083Y-87447901D01*
X145368081Y-87447900D01*
X145368073Y-87447900D01*
X145368064Y-87447900D01*
X143572329Y-87447900D01*
X143572323Y-87447901D01*
X143512716Y-87454308D01*
X143377871Y-87504602D01*
X143377864Y-87504606D01*
X143262655Y-87590852D01*
X143262652Y-87590855D01*
X143176406Y-87706064D01*
X143176402Y-87706071D01*
X143126108Y-87840917D01*
X143119701Y-87900516D01*
X143119701Y-87900523D01*
X143119700Y-87900535D01*
X143119700Y-89696270D01*
X111058127Y-89696270D01*
X111144369Y-89465046D01*
X111175912Y-89320044D01*
X111205195Y-89185433D01*
X111205195Y-89185432D01*
X111205196Y-89185428D01*
X111225610Y-88900000D01*
X111205196Y-88614572D01*
X111199577Y-88588744D01*
X111144371Y-88334962D01*
X111144370Y-88334960D01*
X111144369Y-88334954D01*
X111044367Y-88066839D01*
X110996814Y-87979753D01*
X110907229Y-87815690D01*
X110907224Y-87815682D01*
X110735745Y-87586612D01*
X110735729Y-87586594D01*
X110533405Y-87384270D01*
X110533387Y-87384254D01*
X110304317Y-87212775D01*
X110304309Y-87212770D01*
X110053166Y-87075635D01*
X110053167Y-87075635D01*
X109931973Y-87030432D01*
X109785046Y-86975631D01*
X109785043Y-86975630D01*
X109785037Y-86975628D01*
X109505433Y-86914804D01*
X109220001Y-86894390D01*
X109219999Y-86894390D01*
X108934566Y-86914804D01*
X108654962Y-86975628D01*
X108386833Y-87075635D01*
X108135690Y-87212770D01*
X108135682Y-87212775D01*
X107906612Y-87384254D01*
X107906594Y-87384270D01*
X107704270Y-87586594D01*
X107704254Y-87586612D01*
X107532775Y-87815682D01*
X107532770Y-87815690D01*
X107395635Y-88066833D01*
X107295628Y-88334962D01*
X107234804Y-88614566D01*
X107214390Y-88899998D01*
X107214390Y-88900001D01*
X65930064Y-88900001D01*
X65918517Y-88858412D01*
X65863959Y-88661910D01*
X65863958Y-88661908D01*
X65859443Y-88650577D01*
X65788096Y-88471507D01*
X65726634Y-88317248D01*
X65726625Y-88317230D01*
X65552843Y-87989442D01*
X65552839Y-87989436D01*
X65552838Y-87989433D01*
X65344634Y-87682356D01*
X65344626Y-87682346D01*
X65104442Y-87399581D01*
X64835085Y-87144433D01*
X64835073Y-87144423D01*
X64539724Y-86919904D01*
X64539707Y-86919892D01*
X64221817Y-86728626D01*
X64221804Y-86728619D01*
X63885098Y-86572842D01*
X63885093Y-86572840D01*
X63885088Y-86572838D01*
X63713704Y-86515092D01*
X63533492Y-86454371D01*
X63171148Y-86374613D01*
X62802309Y-86334500D01*
X62802308Y-86334500D01*
X62431292Y-86334500D01*
X62431290Y-86334500D01*
X62062451Y-86374613D01*
X61700107Y-86454371D01*
X61428318Y-86545948D01*
X61348512Y-86572838D01*
X61348509Y-86572839D01*
X61348501Y-86572842D01*
X61011795Y-86728619D01*
X61011782Y-86728626D01*
X60693892Y-86919892D01*
X60693875Y-86919904D01*
X60398526Y-87144423D01*
X60398514Y-87144433D01*
X60129157Y-87399581D01*
X59888973Y-87682346D01*
X59888965Y-87682356D01*
X59680761Y-87989433D01*
X59680760Y-87989436D01*
X59506974Y-88317230D01*
X59506965Y-88317248D01*
X59369641Y-88661908D01*
X59369640Y-88661910D01*
X59270387Y-89019389D01*
X59270382Y-89019410D01*
X59210362Y-89385512D01*
X59210361Y-89385529D01*
X59191364Y-89735921D01*
X59190275Y-89756000D01*
X40552923Y-89756000D01*
X40539233Y-89735921D01*
X40513970Y-89708694D01*
X40360785Y-89543598D01*
X40262853Y-89465500D01*
X40155657Y-89380014D01*
X39928443Y-89248832D01*
X39684216Y-89152980D01*
X39684211Y-89152978D01*
X39684202Y-89152976D01*
X39466618Y-89103314D01*
X39428430Y-89094598D01*
X39428429Y-89094597D01*
X39428425Y-89094597D01*
X39428420Y-89094596D01*
X39232300Y-89079900D01*
X39232294Y-89079900D01*
X39101306Y-89079900D01*
X39101300Y-89079900D01*
X38905179Y-89094596D01*
X38905174Y-89094597D01*
X38649397Y-89152976D01*
X38649378Y-89152982D01*
X38405156Y-89248832D01*
X38177943Y-89380014D01*
X37972814Y-89543598D01*
X37794367Y-89735920D01*
X37646568Y-89952702D01*
X37646567Y-89952703D01*
X37532738Y-90189073D01*
X37455406Y-90439776D01*
X37455405Y-90439781D01*
X37455404Y-90439785D01*
X37447445Y-90492589D01*
X37416300Y-90699212D01*
X37416300Y-90961587D01*
X22860000Y-90961587D01*
X22860000Y-86130432D01*
X37702698Y-86130432D01*
X37723074Y-86389344D01*
X37783701Y-86641877D01*
X37783706Y-86641894D01*
X37883090Y-86881829D01*
X37883092Y-86881832D01*
X38018792Y-87103274D01*
X38018793Y-87103275D01*
X38024601Y-87110076D01*
X38567209Y-86567468D01*
X38574084Y-86582910D01*
X38685286Y-86735966D01*
X38825880Y-86862558D01*
X38923097Y-86918686D01*
X38378154Y-87463629D01*
X38384957Y-87469439D01*
X38606399Y-87605139D01*
X38606402Y-87605141D01*
X38846337Y-87704525D01*
X38846354Y-87704530D01*
X39098888Y-87765157D01*
X39098887Y-87765157D01*
X39357800Y-87785533D01*
X39616712Y-87765157D01*
X39869245Y-87704530D01*
X39869262Y-87704525D01*
X40109197Y-87605141D01*
X40109200Y-87605139D01*
X40330644Y-87469437D01*
X40337444Y-87463629D01*
X39792501Y-86918686D01*
X39889720Y-86862558D01*
X40030314Y-86735966D01*
X40141516Y-86582911D01*
X40148390Y-86567469D01*
X40690997Y-87110076D01*
X40696805Y-87103276D01*
X40832507Y-86881832D01*
X40832509Y-86881829D01*
X40931893Y-86641894D01*
X40931898Y-86641877D01*
X40992525Y-86389344D01*
X41012901Y-86130432D01*
X41902195Y-86130432D01*
X41922577Y-86389422D01*
X41983226Y-86642042D01*
X42082642Y-86882055D01*
X42082644Y-86882059D01*
X42082645Y-86882060D01*
X42218387Y-87103572D01*
X42387110Y-87301121D01*
X42584659Y-87469844D01*
X42806171Y-87605586D01*
X42806173Y-87605586D01*
X42806175Y-87605588D01*
X42851505Y-87624364D01*
X43046189Y-87705005D01*
X43298805Y-87765653D01*
X43557799Y-87786036D01*
X43816793Y-87765653D01*
X44069409Y-87705005D01*
X44309427Y-87605586D01*
X44530939Y-87469844D01*
X44728488Y-87301121D01*
X44897211Y-87103572D01*
X45032953Y-86882060D01*
X45132372Y-86642042D01*
X45193020Y-86389426D01*
X45213403Y-86130432D01*
X45193020Y-85871438D01*
X45132372Y-85618822D01*
X45041031Y-85398306D01*
X45032955Y-85378808D01*
X44936172Y-85220872D01*
X44897211Y-85157292D01*
X44728488Y-84959743D01*
X44530939Y-84791020D01*
X44309427Y-84655278D01*
X44309426Y-84655277D01*
X44309422Y-84655275D01*
X44143426Y-84586518D01*
X44069409Y-84555859D01*
X44069410Y-84555859D01*
X43931720Y-84522802D01*
X43816793Y-84495211D01*
X43816791Y-84495210D01*
X43816790Y-84495210D01*
X43557799Y-84474828D01*
X43298808Y-84495210D01*
X43046188Y-84555859D01*
X42806175Y-84655275D01*
X42584658Y-84791020D01*
X42387110Y-84959743D01*
X42218387Y-85157291D01*
X42082642Y-85378808D01*
X41983226Y-85618821D01*
X41922577Y-85871441D01*
X41902195Y-86130432D01*
X41012901Y-86130432D01*
X40992525Y-85871519D01*
X40931898Y-85618986D01*
X40931893Y-85618969D01*
X40832509Y-85379034D01*
X40832507Y-85379031D01*
X40696807Y-85157589D01*
X40690997Y-85150786D01*
X40148390Y-85693393D01*
X40141516Y-85677954D01*
X40030314Y-85524898D01*
X39889720Y-85398306D01*
X39792501Y-85342177D01*
X40337445Y-84797233D01*
X40330643Y-84791425D01*
X40330642Y-84791424D01*
X40109200Y-84655724D01*
X40109197Y-84655722D01*
X39869262Y-84556338D01*
X39869245Y-84556333D01*
X39616711Y-84495706D01*
X39616712Y-84495706D01*
X39357800Y-84475330D01*
X39098887Y-84495706D01*
X38846354Y-84556333D01*
X38846337Y-84556338D01*
X38606402Y-84655722D01*
X38606399Y-84655724D01*
X38384955Y-84791425D01*
X38378153Y-84797232D01*
X38923098Y-85342177D01*
X38825880Y-85398306D01*
X38685286Y-85524898D01*
X38574084Y-85677953D01*
X38567209Y-85693394D01*
X38024600Y-85150785D01*
X38018793Y-85157587D01*
X37883092Y-85379031D01*
X37883090Y-85379034D01*
X37783706Y-85618969D01*
X37783701Y-85618986D01*
X37723074Y-85871519D01*
X37702698Y-86130432D01*
X22860000Y-86130432D01*
X22860000Y-81930433D01*
X37702196Y-81930433D01*
X37722578Y-82189423D01*
X37783227Y-82442043D01*
X37882643Y-82682056D01*
X37882645Y-82682060D01*
X37882646Y-82682061D01*
X38018388Y-82903573D01*
X38187111Y-83101122D01*
X38384660Y-83269845D01*
X38606172Y-83405587D01*
X38606174Y-83405587D01*
X38606176Y-83405589D01*
X38667493Y-83430987D01*
X38846190Y-83505006D01*
X39098806Y-83565654D01*
X39357800Y-83586037D01*
X39616794Y-83565654D01*
X39869410Y-83505006D01*
X40109428Y-83405587D01*
X40330940Y-83269845D01*
X40528489Y-83101122D01*
X40697212Y-82903573D01*
X40832954Y-82682061D01*
X40932373Y-82442043D01*
X40993021Y-82189427D01*
X41013404Y-81930433D01*
X41902697Y-81930433D01*
X41923073Y-82189345D01*
X41983700Y-82441878D01*
X41983705Y-82441895D01*
X42083089Y-82681830D01*
X42083091Y-82681833D01*
X42218791Y-82903275D01*
X42218792Y-82903276D01*
X42224600Y-82910077D01*
X42767208Y-82367469D01*
X42774083Y-82382911D01*
X42885285Y-82535967D01*
X43025879Y-82662559D01*
X43123096Y-82718687D01*
X42578153Y-83263630D01*
X42584956Y-83269440D01*
X42806398Y-83405140D01*
X42806401Y-83405142D01*
X43046336Y-83504526D01*
X43046353Y-83504531D01*
X43298887Y-83565158D01*
X43298886Y-83565158D01*
X43557799Y-83585534D01*
X43816711Y-83565158D01*
X44069244Y-83504531D01*
X44069261Y-83504526D01*
X44309196Y-83405142D01*
X44309199Y-83405140D01*
X44530643Y-83269438D01*
X44537443Y-83263630D01*
X43992500Y-82718687D01*
X44089719Y-82662559D01*
X44230313Y-82535967D01*
X44341515Y-82382912D01*
X44348389Y-82367470D01*
X44890996Y-82910077D01*
X44896804Y-82903277D01*
X45032506Y-82681833D01*
X45032508Y-82681830D01*
X45131892Y-82441895D01*
X45131897Y-82441878D01*
X45192524Y-82189345D01*
X45212900Y-81930433D01*
X45192524Y-81671520D01*
X45131897Y-81418987D01*
X45131892Y-81418970D01*
X45032508Y-81179035D01*
X45032506Y-81179032D01*
X44896806Y-80957590D01*
X44890996Y-80950787D01*
X44348389Y-81493394D01*
X44341515Y-81477955D01*
X44230313Y-81324899D01*
X44089719Y-81198307D01*
X43992500Y-81142178D01*
X44537444Y-80597234D01*
X44530642Y-80591426D01*
X44530641Y-80591425D01*
X44309199Y-80455725D01*
X44309196Y-80455723D01*
X44069261Y-80356339D01*
X44069244Y-80356334D01*
X43816710Y-80295707D01*
X43816711Y-80295707D01*
X43557799Y-80275331D01*
X43298886Y-80295707D01*
X43046353Y-80356334D01*
X43046336Y-80356339D01*
X42806401Y-80455723D01*
X42806398Y-80455725D01*
X42584954Y-80591426D01*
X42578152Y-80597233D01*
X43123097Y-81142178D01*
X43025879Y-81198307D01*
X42885285Y-81324899D01*
X42774083Y-81477954D01*
X42767208Y-81493395D01*
X42224599Y-80950786D01*
X42218792Y-80957588D01*
X42083091Y-81179032D01*
X42083089Y-81179035D01*
X41983705Y-81418970D01*
X41983700Y-81418987D01*
X41923073Y-81671520D01*
X41902697Y-81930433D01*
X41013404Y-81930433D01*
X40993021Y-81671439D01*
X40932373Y-81418823D01*
X40841032Y-81198307D01*
X40832956Y-81178809D01*
X40758577Y-81057433D01*
X40697212Y-80957293D01*
X40528489Y-80759744D01*
X40330940Y-80591021D01*
X40109428Y-80455279D01*
X40109427Y-80455278D01*
X40109423Y-80455276D01*
X39943427Y-80386519D01*
X39869410Y-80355860D01*
X39869411Y-80355860D01*
X39731721Y-80322803D01*
X39616794Y-80295212D01*
X39616792Y-80295211D01*
X39616791Y-80295211D01*
X39357800Y-80274829D01*
X39098809Y-80295211D01*
X38846189Y-80355860D01*
X38606176Y-80455276D01*
X38384659Y-80591021D01*
X38187111Y-80759744D01*
X38018388Y-80957292D01*
X37882643Y-81178809D01*
X37783227Y-81418822D01*
X37722578Y-81671442D01*
X37702196Y-81930433D01*
X22860000Y-81930433D01*
X22860000Y-77730434D01*
X37702698Y-77730434D01*
X37723074Y-77989346D01*
X37783701Y-78241879D01*
X37783706Y-78241896D01*
X37883090Y-78481831D01*
X37883092Y-78481834D01*
X38018792Y-78703276D01*
X38018793Y-78703277D01*
X38024601Y-78710078D01*
X38567209Y-78167470D01*
X38574084Y-78182912D01*
X38685286Y-78335968D01*
X38825880Y-78462560D01*
X38923097Y-78518688D01*
X38378154Y-79063631D01*
X38384957Y-79069441D01*
X38606399Y-79205141D01*
X38606402Y-79205143D01*
X38846337Y-79304527D01*
X38846354Y-79304532D01*
X39098888Y-79365159D01*
X39098887Y-79365159D01*
X39357800Y-79385535D01*
X39616712Y-79365159D01*
X39869245Y-79304532D01*
X39869262Y-79304527D01*
X40109197Y-79205143D01*
X40109200Y-79205141D01*
X40330644Y-79069439D01*
X40337444Y-79063631D01*
X40202117Y-78928304D01*
X41907299Y-78928304D01*
X41907300Y-78928310D01*
X41913707Y-78987917D01*
X41964001Y-79122762D01*
X41964005Y-79122769D01*
X42050251Y-79237978D01*
X42050254Y-79237981D01*
X42165463Y-79324227D01*
X42165470Y-79324231D01*
X42300316Y-79374525D01*
X42300315Y-79374525D01*
X42307243Y-79375269D01*
X42359926Y-79380934D01*
X44755671Y-79380933D01*
X44815282Y-79374525D01*
X44950130Y-79324230D01*
X45065345Y-79237980D01*
X45151595Y-79122765D01*
X45201890Y-78987917D01*
X45208299Y-78928307D01*
X45208298Y-77056002D01*
X84590275Y-77056002D01*
X84595291Y-77148510D01*
X84608218Y-77386956D01*
X84610361Y-77426470D01*
X84610362Y-77426487D01*
X84670382Y-77792589D01*
X84670387Y-77792610D01*
X84769640Y-78150089D01*
X84769641Y-78150091D01*
X84906965Y-78494751D01*
X84906970Y-78494761D01*
X85071650Y-78805381D01*
X85080760Y-78822563D01*
X85080761Y-78822566D01*
X85288965Y-79129643D01*
X85288973Y-79129653D01*
X85529157Y-79412418D01*
X85529158Y-79412419D01*
X85577924Y-79458612D01*
X85798514Y-79667566D01*
X85798526Y-79667576D01*
X86093875Y-79892095D01*
X86093892Y-79892107D01*
X86362041Y-80053445D01*
X86411787Y-80083376D01*
X86411791Y-80083377D01*
X86411795Y-80083380D01*
X86678913Y-80206962D01*
X86748512Y-80239162D01*
X87100107Y-80357628D01*
X87462450Y-80437386D01*
X87831292Y-80477500D01*
X87831298Y-80477500D01*
X88202302Y-80477500D01*
X88202308Y-80477500D01*
X88571150Y-80437386D01*
X88933493Y-80357628D01*
X89285088Y-80239162D01*
X89621813Y-80083376D01*
X89755069Y-80003199D01*
X89939707Y-79892107D01*
X89939716Y-79892100D01*
X89939722Y-79892097D01*
X90235085Y-79667567D01*
X90285299Y-79620002D01*
X112042677Y-79620002D01*
X112061929Y-79840062D01*
X112061930Y-79840070D01*
X112119104Y-80053445D01*
X112119105Y-80053447D01*
X112119106Y-80053450D01*
X112133061Y-80083376D01*
X112212466Y-80253662D01*
X112212468Y-80253666D01*
X112339170Y-80434615D01*
X112339175Y-80434621D01*
X112495378Y-80590824D01*
X112495384Y-80590829D01*
X112676333Y-80717531D01*
X112676335Y-80717532D01*
X112676338Y-80717534D01*
X112876550Y-80810894D01*
X113089932Y-80868070D01*
X113247123Y-80881822D01*
X113309998Y-80887323D01*
X113310000Y-80887323D01*
X113310002Y-80887323D01*
X113365017Y-80882509D01*
X113530068Y-80868070D01*
X113743450Y-80810894D01*
X113943662Y-80717534D01*
X114124620Y-80590826D01*
X114280826Y-80434620D01*
X114407534Y-80253662D01*
X114500894Y-80053450D01*
X114558070Y-79840068D01*
X114574804Y-79648790D01*
X114577323Y-79620002D01*
X114577323Y-79619997D01*
X114570103Y-79537474D01*
X114558070Y-79399932D01*
X114500894Y-79186550D01*
X114407534Y-78986339D01*
X114361083Y-78920000D01*
X127704696Y-78920000D01*
X127723898Y-79286405D01*
X127781294Y-79648788D01*
X127781294Y-79648790D01*
X127876260Y-80003206D01*
X128007746Y-80345739D01*
X128174320Y-80672656D01*
X128374147Y-80980364D01*
X128474034Y-81103714D01*
X128605051Y-81265506D01*
X128864494Y-81524949D01*
X128963554Y-81605166D01*
X129149635Y-81755852D01*
X129457343Y-81955679D01*
X129457348Y-81955682D01*
X129784264Y-82122255D01*
X130126801Y-82253742D01*
X130481206Y-82348705D01*
X130843596Y-82406102D01*
X131189734Y-82424241D01*
X131209999Y-82425304D01*
X131210000Y-82425304D01*
X131210001Y-82425304D01*
X131229203Y-82424297D01*
X131576404Y-82406102D01*
X131938794Y-82348705D01*
X132293199Y-82253742D01*
X132635736Y-82122255D01*
X132962652Y-81955682D01*
X133270366Y-81755851D01*
X133555506Y-81524949D01*
X133814949Y-81265506D01*
X134045851Y-80980366D01*
X134245682Y-80672652D01*
X134412255Y-80345736D01*
X134543742Y-80003199D01*
X134638705Y-79648794D01*
X134643265Y-79620002D01*
X147042677Y-79620002D01*
X147061929Y-79840062D01*
X147061930Y-79840070D01*
X147119104Y-80053445D01*
X147119105Y-80053447D01*
X147119106Y-80053450D01*
X147133061Y-80083376D01*
X147212466Y-80253662D01*
X147212468Y-80253666D01*
X147339170Y-80434615D01*
X147339175Y-80434621D01*
X147495378Y-80590824D01*
X147495384Y-80590829D01*
X147676333Y-80717531D01*
X147676335Y-80717532D01*
X147676338Y-80717534D01*
X147876550Y-80810894D01*
X148089932Y-80868070D01*
X148247123Y-80881822D01*
X148309998Y-80887323D01*
X148310000Y-80887323D01*
X148310002Y-80887323D01*
X148365017Y-80882509D01*
X148530068Y-80868070D01*
X148743450Y-80810894D01*
X148943662Y-80717534D01*
X149124620Y-80590826D01*
X149280826Y-80434620D01*
X149407534Y-80253662D01*
X149500894Y-80053450D01*
X149558070Y-79840068D01*
X149574804Y-79648790D01*
X149577323Y-79620002D01*
X149577323Y-79619997D01*
X149570103Y-79537474D01*
X149558070Y-79399932D01*
X149500894Y-79186550D01*
X149407534Y-78986339D01*
X149280826Y-78805380D01*
X149124620Y-78649174D01*
X149124616Y-78649171D01*
X149124615Y-78649170D01*
X148943666Y-78522468D01*
X148943662Y-78522466D01*
X148884248Y-78494761D01*
X148743450Y-78429106D01*
X148743447Y-78429105D01*
X148743445Y-78429104D01*
X148530070Y-78371930D01*
X148530062Y-78371929D01*
X148310002Y-78352677D01*
X148309998Y-78352677D01*
X148089937Y-78371929D01*
X148089929Y-78371930D01*
X147876554Y-78429104D01*
X147876548Y-78429107D01*
X147676340Y-78522465D01*
X147676338Y-78522466D01*
X147495377Y-78649175D01*
X147339175Y-78805377D01*
X147212466Y-78986338D01*
X147212465Y-78986340D01*
X147119107Y-79186548D01*
X147119104Y-79186554D01*
X147061930Y-79399929D01*
X147061929Y-79399937D01*
X147042677Y-79619997D01*
X147042677Y-79620002D01*
X134643265Y-79620002D01*
X134696102Y-79286404D01*
X134715304Y-78920000D01*
X134696102Y-78553596D01*
X134638705Y-78191206D01*
X134543742Y-77836801D01*
X134412255Y-77494264D01*
X134245682Y-77167348D01*
X134245679Y-77167343D01*
X134045852Y-76859635D01*
X133814952Y-76574498D01*
X133814949Y-76574494D01*
X133555506Y-76315051D01*
X133482243Y-76255724D01*
X133270364Y-76084147D01*
X132962656Y-75884320D01*
X132635739Y-75717746D01*
X132293206Y-75586260D01*
X132293199Y-75586258D01*
X131938794Y-75491295D01*
X131938790Y-75491294D01*
X131938789Y-75491294D01*
X131576405Y-75433898D01*
X131210001Y-75414696D01*
X131209999Y-75414696D01*
X130843594Y-75433898D01*
X130481211Y-75491294D01*
X130481209Y-75491294D01*
X130126793Y-75586260D01*
X129784260Y-75717746D01*
X129457343Y-75884320D01*
X129149635Y-76084147D01*
X128864498Y-76315047D01*
X128864490Y-76315054D01*
X128605054Y-76574490D01*
X128605047Y-76574498D01*
X128374147Y-76859635D01*
X128174320Y-77167343D01*
X128007746Y-77494260D01*
X127876260Y-77836793D01*
X127781294Y-78191209D01*
X127781294Y-78191211D01*
X127723898Y-78553594D01*
X127704696Y-78919999D01*
X127704696Y-78920000D01*
X114361083Y-78920000D01*
X114280826Y-78805380D01*
X114124620Y-78649174D01*
X114124616Y-78649171D01*
X114124615Y-78649170D01*
X113943666Y-78522468D01*
X113943662Y-78522466D01*
X113884248Y-78494761D01*
X113743450Y-78429106D01*
X113743447Y-78429105D01*
X113743445Y-78429104D01*
X113530070Y-78371930D01*
X113530062Y-78371929D01*
X113310002Y-78352677D01*
X113309998Y-78352677D01*
X113089937Y-78371929D01*
X113089929Y-78371930D01*
X112876554Y-78429104D01*
X112876548Y-78429107D01*
X112676340Y-78522465D01*
X112676338Y-78522466D01*
X112495377Y-78649175D01*
X112339175Y-78805377D01*
X112212466Y-78986338D01*
X112212465Y-78986340D01*
X112119107Y-79186548D01*
X112119104Y-79186554D01*
X112061930Y-79399929D01*
X112061929Y-79399937D01*
X112042677Y-79619997D01*
X112042677Y-79620002D01*
X90285299Y-79620002D01*
X90504442Y-79412419D01*
X90744633Y-79129645D01*
X90881137Y-78928317D01*
X90952838Y-78822566D01*
X90952838Y-78822564D01*
X90952843Y-78822558D01*
X91126630Y-78494761D01*
X91263957Y-78150095D01*
X91363215Y-77792602D01*
X91381689Y-77679910D01*
X91423237Y-77426487D01*
X91423237Y-77426484D01*
X91423239Y-77426473D01*
X91443325Y-77056000D01*
X91423239Y-76685527D01*
X91409539Y-76601964D01*
X91363217Y-76319410D01*
X91363216Y-76319409D01*
X91363215Y-76319398D01*
X91359366Y-76305535D01*
X105713031Y-76305535D01*
X105732400Y-76489821D01*
X105732401Y-76489823D01*
X105789661Y-76666049D01*
X105810401Y-76701971D01*
X105882310Y-76826522D01*
X105899175Y-76845252D01*
X106006293Y-76964221D01*
X106006296Y-76964223D01*
X106006299Y-76964226D01*
X106073735Y-77013221D01*
X106156209Y-77073142D01*
X106325482Y-77148508D01*
X106325485Y-77148508D01*
X106325488Y-77148510D01*
X106506738Y-77187035D01*
X106692036Y-77187035D01*
X106873286Y-77148510D01*
X106873289Y-77148508D01*
X106873291Y-77148508D01*
X106930309Y-77123121D01*
X107042565Y-77073142D01*
X107192475Y-76964226D01*
X107208655Y-76946257D01*
X107246959Y-76903715D01*
X107316464Y-76826522D01*
X107409113Y-76666048D01*
X107466374Y-76489819D01*
X107485743Y-76305535D01*
X107466374Y-76121251D01*
X107409113Y-75945022D01*
X107316464Y-75784548D01*
X107267901Y-75730613D01*
X107192480Y-75646848D01*
X107192477Y-75646846D01*
X107192476Y-75646845D01*
X107192475Y-75646844D01*
X107042565Y-75537928D01*
X107042564Y-75537927D01*
X106873291Y-75462561D01*
X106873283Y-75462559D01*
X106692036Y-75424035D01*
X106506738Y-75424035D01*
X106325490Y-75462559D01*
X106325482Y-75462561D01*
X106156209Y-75537927D01*
X106006296Y-75646846D01*
X106006293Y-75646848D01*
X105882309Y-75784549D01*
X105789661Y-75945020D01*
X105732401Y-76121246D01*
X105732400Y-76121248D01*
X105713031Y-76305535D01*
X91359366Y-76305535D01*
X91312471Y-76136636D01*
X91263959Y-75961910D01*
X91263958Y-75961908D01*
X91126634Y-75617248D01*
X91126625Y-75617230D01*
X91123198Y-75610766D01*
X90952843Y-75289442D01*
X90952839Y-75289436D01*
X90952838Y-75289433D01*
X90744634Y-74982356D01*
X90744626Y-74982346D01*
X90570713Y-74777601D01*
X144552390Y-74777601D01*
X144572804Y-75063033D01*
X144633628Y-75342637D01*
X144633630Y-75342643D01*
X144633631Y-75342646D01*
X144706467Y-75537927D01*
X144733635Y-75610766D01*
X144870770Y-75861909D01*
X144870775Y-75861917D01*
X145042254Y-76090987D01*
X145042270Y-76091005D01*
X145244594Y-76293329D01*
X145244612Y-76293345D01*
X145473682Y-76464824D01*
X145473690Y-76464829D01*
X145724833Y-76601964D01*
X145724832Y-76601964D01*
X145724836Y-76601965D01*
X145724839Y-76601967D01*
X145992954Y-76701969D01*
X145992960Y-76701970D01*
X145992962Y-76701971D01*
X146272566Y-76762795D01*
X146272568Y-76762795D01*
X146272572Y-76762796D01*
X146526220Y-76780937D01*
X146557999Y-76783210D01*
X146558000Y-76783210D01*
X146558001Y-76783210D01*
X146586595Y-76781164D01*
X146843428Y-76762796D01*
X146867365Y-76757589D01*
X147123037Y-76701971D01*
X147123037Y-76701970D01*
X147123046Y-76701969D01*
X147391161Y-76601967D01*
X147642315Y-76464826D01*
X147871395Y-76293339D01*
X148073739Y-76090995D01*
X148245226Y-75861915D01*
X148382367Y-75610761D01*
X148482369Y-75342646D01*
X148543196Y-75063028D01*
X148563610Y-74777600D01*
X148562797Y-74766239D01*
X148551766Y-74612003D01*
X148543196Y-74492172D01*
X148528415Y-74424226D01*
X148482371Y-74212562D01*
X148482370Y-74212560D01*
X148482369Y-74212554D01*
X148417096Y-74037552D01*
X148412113Y-73967864D01*
X148445598Y-73906541D01*
X148506921Y-73873056D01*
X148576612Y-73878040D01*
X148620960Y-73906541D01*
X153610381Y-78895961D01*
X153643866Y-78957284D01*
X153646700Y-78983642D01*
X153646700Y-89749156D01*
X153627015Y-89816195D01*
X153610381Y-89836837D01*
X148238948Y-95208270D01*
X148166797Y-95275216D01*
X148166794Y-95275219D01*
X148105421Y-95352179D01*
X148041200Y-95426804D01*
X148025561Y-95451693D01*
X148021537Y-95457364D01*
X148003217Y-95480337D01*
X147953991Y-95565598D01*
X147901622Y-95648942D01*
X147901616Y-95648954D01*
X147889864Y-95675889D01*
X147886731Y-95682095D01*
X147872030Y-95707560D01*
X147836064Y-95799200D01*
X147796700Y-95889423D01*
X147796698Y-95889428D01*
X147789093Y-95917812D01*
X147786920Y-95924415D01*
X147776180Y-95951784D01*
X147754271Y-96047769D01*
X147728794Y-96142849D01*
X147728794Y-96142851D01*
X147725503Y-96172049D01*
X147724339Y-96178903D01*
X147717797Y-96207572D01*
X147717796Y-96207575D01*
X147710441Y-96305739D01*
X147699418Y-96403564D01*
X147703100Y-96501931D01*
X147703100Y-101508100D01*
X147717796Y-101704220D01*
X147717797Y-101704225D01*
X147776176Y-101960002D01*
X147776178Y-101960011D01*
X147776180Y-101960016D01*
X147872032Y-102204243D01*
X148003214Y-102431457D01*
X148135336Y-102597133D01*
X148166798Y-102636585D01*
X148359123Y-102815035D01*
X148373956Y-102825148D01*
X148418257Y-102879178D01*
X148426314Y-102948582D01*
X148395570Y-103011324D01*
X148373956Y-103030052D01*
X148359123Y-103040164D01*
X148166798Y-103218614D01*
X148003214Y-103423743D01*
X147872032Y-103650956D01*
X147776182Y-103895178D01*
X147776176Y-103895197D01*
X147717797Y-104150974D01*
X147717796Y-104150979D01*
X147703100Y-104347100D01*
X147703100Y-106444068D01*
X147699418Y-106542435D01*
X147710441Y-106640260D01*
X147717796Y-106738424D01*
X147717797Y-106738429D01*
X147724338Y-106767085D01*
X147725504Y-106773944D01*
X147728794Y-106803149D01*
X147750243Y-106883198D01*
X147754271Y-106898230D01*
X147763021Y-106936567D01*
X147776181Y-106994220D01*
X147786917Y-107021577D01*
X147789091Y-107028182D01*
X147796698Y-107056568D01*
X147796700Y-107056576D01*
X147836064Y-107146799D01*
X147872031Y-107238441D01*
X147872032Y-107238445D01*
X147886726Y-107263894D01*
X147889861Y-107270104D01*
X147901614Y-107297041D01*
X147901619Y-107297051D01*
X147953992Y-107380402D01*
X148003213Y-107465656D01*
X148021536Y-107488632D01*
X148025561Y-107494306D01*
X148041202Y-107519197D01*
X148105421Y-107593820D01*
X148166800Y-107670787D01*
X148166802Y-107670788D01*
X148191009Y-107693248D01*
X148238948Y-107737729D01*
X151251987Y-110750768D01*
X154237870Y-113736651D01*
X154304817Y-113808804D01*
X154381779Y-113870178D01*
X154456400Y-113934396D01*
X154456402Y-113934397D01*
X154456403Y-113934398D01*
X154481297Y-113950040D01*
X154486967Y-113954064D01*
X154509944Y-113972387D01*
X154545741Y-113993054D01*
X154595185Y-114021600D01*
X154678553Y-114073984D01*
X154705504Y-114085742D01*
X154711707Y-114088874D01*
X154737157Y-114103568D01*
X154828784Y-114139528D01*
X154919026Y-114178901D01*
X154947420Y-114186508D01*
X154954018Y-114188679D01*
X154981384Y-114199420D01*
X154981390Y-114199421D01*
X154981392Y-114199422D01*
X155077362Y-114221326D01*
X155172450Y-114246805D01*
X155201656Y-114250095D01*
X155208501Y-114251258D01*
X155237170Y-114257802D01*
X155237175Y-114257802D01*
X155237178Y-114257803D01*
X155335339Y-114265158D01*
X155433164Y-114276181D01*
X155531531Y-114272500D01*
X173550869Y-114272500D01*
X173649235Y-114276181D01*
X173649235Y-114276180D01*
X173649236Y-114276181D01*
X173747060Y-114265158D01*
X173845230Y-114257802D01*
X173861267Y-114254141D01*
X173873887Y-114251261D01*
X173880747Y-114250095D01*
X173883642Y-114249768D01*
X173909950Y-114246805D01*
X173973336Y-114229820D01*
X174005031Y-114221328D01*
X174101008Y-114199422D01*
X174101009Y-114199421D01*
X174101016Y-114199420D01*
X174128390Y-114188675D01*
X174134972Y-114186509D01*
X174163375Y-114178900D01*
X174253599Y-114139535D01*
X174345243Y-114103568D01*
X174370719Y-114088857D01*
X174376887Y-114085744D01*
X174403847Y-114073983D01*
X174487202Y-114021607D01*
X174572457Y-113972386D01*
X174595445Y-113954052D01*
X174601092Y-113950045D01*
X174625997Y-113934398D01*
X174700620Y-113870178D01*
X174717752Y-113856516D01*
X174777569Y-113808815D01*
X174777571Y-113808812D01*
X174777581Y-113808805D01*
X174844529Y-113736651D01*
X177625162Y-110956019D01*
X177686485Y-110922534D01*
X177712843Y-110919700D01*
X214851269Y-110919700D01*
X214949635Y-110923381D01*
X214949635Y-110923380D01*
X214949636Y-110923381D01*
X215047460Y-110912358D01*
X215145630Y-110905002D01*
X215161667Y-110901341D01*
X215174287Y-110898461D01*
X215181147Y-110897295D01*
X215184042Y-110896968D01*
X215210350Y-110894005D01*
X215273736Y-110877020D01*
X215305431Y-110868528D01*
X215401408Y-110846622D01*
X215401409Y-110846621D01*
X215401416Y-110846620D01*
X215428790Y-110835875D01*
X215435372Y-110833709D01*
X215463775Y-110826100D01*
X215553999Y-110786735D01*
X215645643Y-110750768D01*
X215671119Y-110736057D01*
X215677287Y-110732944D01*
X215704247Y-110721183D01*
X215787602Y-110668807D01*
X215872857Y-110619586D01*
X215895845Y-110601252D01*
X215901492Y-110597245D01*
X215926397Y-110581598D01*
X216001020Y-110517378D01*
X216077969Y-110456015D01*
X216077971Y-110456012D01*
X216077981Y-110456005D01*
X216144929Y-110383851D01*
X221274004Y-105254776D01*
X255694500Y-105254776D01*
X255733930Y-105491067D01*
X255811711Y-105717637D01*
X255811713Y-105717642D01*
X255925730Y-105928325D01*
X255925734Y-105928331D01*
X256049918Y-106087882D01*
X256072866Y-106117366D01*
X256249113Y-106279612D01*
X256449660Y-106410636D01*
X256669038Y-106506864D01*
X256901263Y-106565672D01*
X257080213Y-106580500D01*
X257080215Y-106580500D01*
X257199785Y-106580500D01*
X257199787Y-106580500D01*
X257378737Y-106565672D01*
X257610962Y-106506864D01*
X257830340Y-106410636D01*
X258030887Y-106279612D01*
X258207134Y-106117366D01*
X258354271Y-105928323D01*
X258468287Y-105717641D01*
X258546070Y-105491065D01*
X258585500Y-105254778D01*
X258585500Y-105015222D01*
X258546070Y-104778935D01*
X258468287Y-104552359D01*
X258354271Y-104341677D01*
X258354269Y-104341674D01*
X258354265Y-104341668D01*
X258207139Y-104152641D01*
X258207134Y-104152634D01*
X258030887Y-103990388D01*
X258030884Y-103990386D01*
X258030883Y-103990385D01*
X257885186Y-103895197D01*
X257830340Y-103859364D01*
X257830337Y-103859362D01*
X257830336Y-103859362D01*
X257610963Y-103763136D01*
X257378737Y-103704328D01*
X257378740Y-103704328D01*
X257271367Y-103695431D01*
X257199787Y-103689500D01*
X257080213Y-103689500D01*
X257008633Y-103695431D01*
X256901260Y-103704328D01*
X256669036Y-103763136D01*
X256449663Y-103859362D01*
X256249116Y-103990385D01*
X256072869Y-104152631D01*
X256072860Y-104152641D01*
X255925734Y-104341668D01*
X255925730Y-104341674D01*
X255811713Y-104552357D01*
X255811711Y-104552362D01*
X255733930Y-104778932D01*
X255721548Y-104853133D01*
X255697386Y-104997931D01*
X255694500Y-105015223D01*
X255694500Y-105254776D01*
X221274004Y-105254776D01*
X223151280Y-103377500D01*
X269319939Y-103377500D01*
X269340145Y-103608458D01*
X269340147Y-103608468D01*
X269400148Y-103832400D01*
X269400152Y-103832409D01*
X269498132Y-104042529D01*
X269498133Y-104042531D01*
X269553023Y-104120922D01*
X269553024Y-104120923D01*
X270124070Y-103549876D01*
X270126884Y-103563415D01*
X270196442Y-103697656D01*
X270299638Y-103808152D01*
X270428819Y-103886709D01*
X270480002Y-103901049D01*
X269906575Y-104474475D01*
X269984973Y-104529368D01*
X270195090Y-104627347D01*
X270195099Y-104627351D01*
X270419031Y-104687352D01*
X270419041Y-104687354D01*
X270649999Y-104707561D01*
X270650001Y-104707561D01*
X270880958Y-104687354D01*
X270880968Y-104687352D01*
X271104900Y-104627351D01*
X271104909Y-104627347D01*
X271315030Y-104529367D01*
X271393423Y-104474475D01*
X270821568Y-103902621D01*
X270938458Y-103851849D01*
X271055739Y-103756434D01*
X271142928Y-103632915D01*
X271173354Y-103547302D01*
X271746975Y-104120923D01*
X271801867Y-104042530D01*
X271899847Y-103832409D01*
X271899851Y-103832400D01*
X271959852Y-103608468D01*
X271959854Y-103608458D01*
X271980061Y-103377500D01*
X271980061Y-103377499D01*
X271959854Y-103146541D01*
X271959852Y-103146531D01*
X271899851Y-102922599D01*
X271899847Y-102922590D01*
X271801868Y-102712472D01*
X271746974Y-102634076D01*
X271175929Y-103205122D01*
X271173116Y-103191585D01*
X271103558Y-103057344D01*
X271000362Y-102946848D01*
X270871181Y-102868291D01*
X270819997Y-102853950D01*
X271393423Y-102280524D01*
X271393422Y-102280523D01*
X271315031Y-102225633D01*
X271315029Y-102225632D01*
X271104909Y-102127652D01*
X271104900Y-102127648D01*
X270880968Y-102067647D01*
X270880958Y-102067645D01*
X270650001Y-102047439D01*
X270649999Y-102047439D01*
X270419041Y-102067645D01*
X270419031Y-102067647D01*
X270195099Y-102127648D01*
X270195090Y-102127652D01*
X269984971Y-102225632D01*
X269984969Y-102225633D01*
X269906577Y-102280524D01*
X269906576Y-102280524D01*
X270478431Y-102852378D01*
X270361542Y-102903151D01*
X270244261Y-102998566D01*
X270157072Y-103122085D01*
X270126645Y-103207697D01*
X269553024Y-102634076D01*
X269553024Y-102634077D01*
X269498133Y-102712469D01*
X269498132Y-102712471D01*
X269400152Y-102922590D01*
X269400148Y-102922599D01*
X269340147Y-103146531D01*
X269340145Y-103146541D01*
X269319939Y-103377499D01*
X269319939Y-103377500D01*
X223151280Y-103377500D01*
X228231278Y-98297501D01*
X269319437Y-98297501D01*
X269339650Y-98528544D01*
X269339651Y-98528551D01*
X269399678Y-98752574D01*
X269399679Y-98752576D01*
X269399680Y-98752579D01*
X269497699Y-98962782D01*
X269630730Y-99152769D01*
X269794731Y-99316770D01*
X269984718Y-99449801D01*
X270194921Y-99547820D01*
X270418950Y-99607849D01*
X270583985Y-99622287D01*
X270649998Y-99628063D01*
X270650000Y-99628063D01*
X270650002Y-99628063D01*
X270707762Y-99623009D01*
X270881050Y-99607849D01*
X271105079Y-99547820D01*
X271315282Y-99449801D01*
X271505269Y-99316770D01*
X271669270Y-99152769D01*
X271802301Y-98962782D01*
X271900320Y-98752579D01*
X271960349Y-98528550D01*
X271980563Y-98297500D01*
X271960349Y-98066450D01*
X271900320Y-97842421D01*
X271802301Y-97632219D01*
X271802299Y-97632216D01*
X271802298Y-97632214D01*
X271669273Y-97442235D01*
X271669268Y-97442229D01*
X271505269Y-97278230D01*
X271458729Y-97245642D01*
X271315282Y-97145199D01*
X271105079Y-97047180D01*
X271105076Y-97047179D01*
X271105074Y-97047178D01*
X270881051Y-96987151D01*
X270881044Y-96987150D01*
X270650002Y-96966937D01*
X270649998Y-96966937D01*
X270418955Y-96987150D01*
X270418948Y-96987151D01*
X270194917Y-97047181D01*
X269984718Y-97145199D01*
X269984714Y-97145201D01*
X269794735Y-97278226D01*
X269794729Y-97278231D01*
X269630731Y-97442229D01*
X269630726Y-97442235D01*
X269497701Y-97632214D01*
X269497699Y-97632218D01*
X269399681Y-97842417D01*
X269339651Y-98066448D01*
X269339650Y-98066455D01*
X269319437Y-98297498D01*
X269319437Y-98297501D01*
X228231278Y-98297501D01*
X233311278Y-93217501D01*
X269319437Y-93217501D01*
X269339650Y-93448544D01*
X269339651Y-93448551D01*
X269399678Y-93672574D01*
X269399679Y-93672576D01*
X269399680Y-93672579D01*
X269497699Y-93882782D01*
X269630730Y-94072769D01*
X269794731Y-94236770D01*
X269984718Y-94369801D01*
X270194921Y-94467820D01*
X270418950Y-94527849D01*
X270583985Y-94542287D01*
X270649998Y-94548063D01*
X270650000Y-94548063D01*
X270650002Y-94548063D01*
X270707762Y-94543009D01*
X270881050Y-94527849D01*
X271105079Y-94467820D01*
X271315282Y-94369801D01*
X271505269Y-94236770D01*
X271669270Y-94072769D01*
X271802301Y-93882782D01*
X271900320Y-93672579D01*
X271960349Y-93448550D01*
X271980563Y-93217500D01*
X271977063Y-93177500D01*
X271966576Y-93057628D01*
X271960349Y-92986450D01*
X271900320Y-92762421D01*
X271802301Y-92552219D01*
X271802299Y-92552216D01*
X271802298Y-92552214D01*
X271669273Y-92362235D01*
X271669268Y-92362229D01*
X271505269Y-92198230D01*
X271505263Y-92198226D01*
X271315282Y-92065199D01*
X271105079Y-91967180D01*
X271105076Y-91967179D01*
X271105074Y-91967178D01*
X270881051Y-91907151D01*
X270881044Y-91907150D01*
X270650002Y-91886937D01*
X270649998Y-91886937D01*
X270418955Y-91907150D01*
X270418948Y-91907151D01*
X270194917Y-91967181D01*
X269984718Y-92065199D01*
X269984714Y-92065201D01*
X269794735Y-92198226D01*
X269794729Y-92198231D01*
X269630731Y-92362229D01*
X269630726Y-92362235D01*
X269497701Y-92552214D01*
X269497699Y-92552218D01*
X269399681Y-92762417D01*
X269339651Y-92986448D01*
X269339650Y-92986455D01*
X269319437Y-93217498D01*
X269319437Y-93217501D01*
X233311278Y-93217501D01*
X238831565Y-87697213D01*
X247080817Y-87697213D01*
X247110203Y-87964281D01*
X247110205Y-87964289D01*
X247178161Y-88224228D01*
X247234815Y-88357547D01*
X247283246Y-88471513D01*
X247339077Y-88562996D01*
X247423210Y-88700855D01*
X247423217Y-88700864D01*
X247595080Y-88907379D01*
X247595086Y-88907385D01*
X247710039Y-89010383D01*
X247795190Y-89086678D01*
X248019270Y-89234928D01*
X248019273Y-89234929D01*
X248019274Y-89234930D01*
X248262542Y-89348970D01*
X248262557Y-89348976D01*
X248519827Y-89426377D01*
X248519834Y-89426378D01*
X248519839Y-89426380D01*
X248785659Y-89465500D01*
X248785664Y-89465500D01*
X248987089Y-89465500D01*
X249038169Y-89461760D01*
X249187966Y-89450797D01*
X249450220Y-89392378D01*
X249701174Y-89296396D01*
X249935479Y-89164898D01*
X250135599Y-89010370D01*
X269324500Y-89010370D01*
X269324501Y-89010376D01*
X269330908Y-89069983D01*
X269381202Y-89204828D01*
X269381206Y-89204835D01*
X269467452Y-89320044D01*
X269467455Y-89320047D01*
X269582664Y-89406293D01*
X269582671Y-89406297D01*
X269717517Y-89456591D01*
X269717516Y-89456591D01*
X269724444Y-89457335D01*
X269777127Y-89463000D01*
X271522872Y-89462999D01*
X271582483Y-89456591D01*
X271717331Y-89406296D01*
X271832546Y-89320046D01*
X271918796Y-89204831D01*
X271969091Y-89069983D01*
X271975500Y-89010373D01*
X271975499Y-87264628D01*
X271969091Y-87205017D01*
X271953980Y-87164503D01*
X271918797Y-87070171D01*
X271918793Y-87070164D01*
X271832547Y-86954955D01*
X271832544Y-86954952D01*
X271717335Y-86868706D01*
X271717328Y-86868702D01*
X271582482Y-86818408D01*
X271582483Y-86818408D01*
X271522883Y-86812001D01*
X271522881Y-86812000D01*
X271522873Y-86812000D01*
X271522864Y-86812000D01*
X269777129Y-86812000D01*
X269777123Y-86812001D01*
X269717516Y-86818408D01*
X269582671Y-86868702D01*
X269582664Y-86868706D01*
X269467455Y-86954952D01*
X269467452Y-86954955D01*
X269381206Y-87070164D01*
X269381202Y-87070171D01*
X269330908Y-87205017D01*
X269325393Y-87256322D01*
X269324501Y-87264623D01*
X269324500Y-87264635D01*
X269324500Y-89010370D01*
X250135599Y-89010370D01*
X250148140Y-89000686D01*
X250334626Y-88807261D01*
X250490961Y-88588744D01*
X250564349Y-88446001D01*
X250613807Y-88349808D01*
X250613809Y-88349802D01*
X250613814Y-88349793D01*
X250700567Y-88095501D01*
X250749369Y-87831288D01*
X250759182Y-87562785D01*
X250729796Y-87295714D01*
X250671184Y-87071522D01*
X250661838Y-87035771D01*
X250636281Y-86975631D01*
X250556754Y-86788487D01*
X250416787Y-86559141D01*
X250275481Y-86389344D01*
X250244919Y-86352620D01*
X250244913Y-86352614D01*
X250044810Y-86173322D01*
X249979980Y-86130431D01*
X249820730Y-86025072D01*
X249820728Y-86025071D01*
X249820725Y-86025069D01*
X249577457Y-85911029D01*
X249577442Y-85911023D01*
X249320172Y-85833622D01*
X249320158Y-85833619D01*
X249205457Y-85816739D01*
X249054341Y-85794500D01*
X248852916Y-85794500D01*
X248852911Y-85794500D01*
X248652034Y-85809203D01*
X248652020Y-85809205D01*
X248389786Y-85867620D01*
X248389779Y-85867622D01*
X248138823Y-85963605D01*
X247904522Y-86095101D01*
X247904517Y-86095104D01*
X247691861Y-86259312D01*
X247691851Y-86259321D01*
X247505377Y-86452735D01*
X247505375Y-86452737D01*
X247349040Y-86671254D01*
X247349037Y-86671259D01*
X247226192Y-86910191D01*
X247226185Y-86910209D01*
X247139435Y-87164489D01*
X247139432Y-87164503D01*
X247090632Y-87428700D01*
X247090630Y-87428720D01*
X247080817Y-87697213D01*
X238831565Y-87697213D01*
X243805107Y-82723671D01*
X243849449Y-82695174D01*
X244114361Y-82596367D01*
X244365515Y-82459226D01*
X244594595Y-82287739D01*
X244796939Y-82085395D01*
X244968426Y-81856315D01*
X245105567Y-81605161D01*
X245205569Y-81337046D01*
X245266396Y-81057428D01*
X245286810Y-80772000D01*
X245285933Y-80759744D01*
X245279705Y-80672656D01*
X245266396Y-80486572D01*
X245264422Y-80477499D01*
X245205571Y-80206962D01*
X245205570Y-80206960D01*
X245205569Y-80206954D01*
X245105567Y-79938839D01*
X245080049Y-79892107D01*
X244968429Y-79687690D01*
X244968424Y-79687682D01*
X244796945Y-79458612D01*
X244796929Y-79458594D01*
X244594605Y-79256270D01*
X244594587Y-79256254D01*
X244365517Y-79084775D01*
X244365509Y-79084770D01*
X244114366Y-78947635D01*
X244114367Y-78947635D01*
X243975823Y-78895961D01*
X243846246Y-78847631D01*
X243846243Y-78847630D01*
X243846237Y-78847628D01*
X243566633Y-78786804D01*
X243281201Y-78766390D01*
X243281199Y-78766390D01*
X242995766Y-78786804D01*
X242716162Y-78847628D01*
X242448033Y-78947635D01*
X242196890Y-79084770D01*
X242196882Y-79084775D01*
X241967812Y-79256254D01*
X241967794Y-79256270D01*
X241765470Y-79458594D01*
X241765454Y-79458612D01*
X241593975Y-79687682D01*
X241593970Y-79687690D01*
X241456835Y-79938833D01*
X241358028Y-80203744D01*
X241329527Y-80248091D01*
X214195238Y-107382381D01*
X214133915Y-107415866D01*
X214107557Y-107418700D01*
X176969114Y-107418700D01*
X176870762Y-107415019D01*
X176870761Y-107415019D01*
X176772954Y-107426040D01*
X176674780Y-107433396D01*
X176674770Y-107433398D01*
X176646104Y-107439939D01*
X176639249Y-107441104D01*
X176610050Y-107444394D01*
X176610049Y-107444394D01*
X176530696Y-107465657D01*
X176514969Y-107469871D01*
X176418984Y-107491780D01*
X176418980Y-107491781D01*
X176418978Y-107491782D01*
X176404807Y-107497343D01*
X176391615Y-107502520D01*
X176385012Y-107504693D01*
X176356628Y-107512298D01*
X176356623Y-107512300D01*
X176266400Y-107551664D01*
X176174760Y-107587630D01*
X176149295Y-107602331D01*
X176143089Y-107605464D01*
X176116154Y-107617216D01*
X176116142Y-107617222D01*
X176032798Y-107669591D01*
X175947537Y-107718817D01*
X175924564Y-107737137D01*
X175918893Y-107741161D01*
X175894004Y-107756800D01*
X175819379Y-107821021D01*
X175742419Y-107882394D01*
X175742416Y-107882397D01*
X175675470Y-107954548D01*
X172894838Y-110735181D01*
X172833515Y-110768666D01*
X172807157Y-110771500D01*
X156275243Y-110771500D01*
X156208204Y-110751815D01*
X156187562Y-110735181D01*
X151240419Y-105788038D01*
X151206934Y-105726715D01*
X151204100Y-105700357D01*
X151204100Y-104347100D01*
X151189403Y-104150979D01*
X151189402Y-104150974D01*
X151189402Y-104150970D01*
X151131020Y-103895184D01*
X151035168Y-103650957D01*
X150950900Y-103505000D01*
X151535231Y-103505000D01*
X151554654Y-103888000D01*
X151612725Y-104267065D01*
X151708851Y-104638328D01*
X151842034Y-104997931D01*
X151842040Y-104997944D01*
X152010925Y-105342240D01*
X152010930Y-105342249D01*
X152213779Y-105667689D01*
X152438305Y-105957754D01*
X152448517Y-105970946D01*
X152671722Y-106205758D01*
X152712730Y-106248898D01*
X153003705Y-106498692D01*
X153003708Y-106498694D01*
X153318464Y-106717771D01*
X153616511Y-106883201D01*
X153653773Y-106903883D01*
X153729939Y-106936568D01*
X154006183Y-107055113D01*
X154006186Y-107055114D01*
X154006191Y-107055116D01*
X154372076Y-107169913D01*
X154372079Y-107169913D01*
X154372087Y-107169916D01*
X154747729Y-107247113D01*
X155052949Y-107278150D01*
X155129253Y-107285910D01*
X155129254Y-107285910D01*
X155512747Y-107285910D01*
X155576333Y-107279443D01*
X155894271Y-107247113D01*
X156269913Y-107169916D01*
X156269923Y-107169913D01*
X156635808Y-107055116D01*
X156635809Y-107055115D01*
X156635817Y-107055113D01*
X156988231Y-106903881D01*
X157323536Y-106717771D01*
X157638292Y-106498694D01*
X157929270Y-106248898D01*
X158193483Y-105970946D01*
X158428221Y-105667689D01*
X158631074Y-105342241D01*
X158732730Y-105135001D01*
X191739454Y-105135001D01*
X191759613Y-105416866D01*
X191806605Y-105632880D01*
X191819680Y-105692984D01*
X191841587Y-105751719D01*
X191918432Y-105957750D01*
X191918434Y-105957754D01*
X192053855Y-106205758D01*
X192053860Y-106205766D01*
X192223196Y-106431974D01*
X192223212Y-106431992D01*
X192423007Y-106631787D01*
X192423025Y-106631803D01*
X192649233Y-106801139D01*
X192649241Y-106801144D01*
X192897245Y-106936565D01*
X192897249Y-106936567D01*
X192897251Y-106936568D01*
X193162016Y-107035320D01*
X193259728Y-107056576D01*
X193438133Y-107095386D01*
X193438135Y-107095386D01*
X193438139Y-107095387D01*
X193649447Y-107110500D01*
X193790553Y-107110500D01*
X194001861Y-107095387D01*
X194277984Y-107035320D01*
X194542749Y-106936568D01*
X194790764Y-106801141D01*
X195016982Y-106631797D01*
X195216797Y-106431982D01*
X195386141Y-106205764D01*
X195521568Y-105957749D01*
X195620320Y-105692984D01*
X195680387Y-105416861D01*
X195700546Y-105135000D01*
X195680387Y-104853139D01*
X195620320Y-104577016D01*
X195521568Y-104312251D01*
X195496894Y-104267065D01*
X195386144Y-104064241D01*
X195386139Y-104064233D01*
X195216803Y-103838025D01*
X195216787Y-103838007D01*
X195016992Y-103638212D01*
X195016974Y-103638196D01*
X194790766Y-103468860D01*
X194790758Y-103468855D01*
X194542754Y-103333434D01*
X194542750Y-103333432D01*
X194442372Y-103295993D01*
X194277984Y-103234680D01*
X194277980Y-103234679D01*
X194277977Y-103234678D01*
X194001866Y-103174613D01*
X193790553Y-103159500D01*
X193649447Y-103159500D01*
X193438133Y-103174613D01*
X193162022Y-103234678D01*
X193162017Y-103234679D01*
X193162016Y-103234680D01*
X193098003Y-103258555D01*
X192897249Y-103333432D01*
X192897245Y-103333434D01*
X192649241Y-103468855D01*
X192649233Y-103468860D01*
X192423025Y-103638196D01*
X192423007Y-103638212D01*
X192223212Y-103838007D01*
X192223196Y-103838025D01*
X192053860Y-104064233D01*
X192053855Y-104064241D01*
X191918434Y-104312245D01*
X191918432Y-104312249D01*
X191857926Y-104474475D01*
X191828876Y-104552362D01*
X191819678Y-104577022D01*
X191759613Y-104853133D01*
X191739454Y-105134998D01*
X191739454Y-105135001D01*
X158732730Y-105135001D01*
X158799962Y-104997940D01*
X158933151Y-104638320D01*
X159029274Y-104267070D01*
X159087345Y-103888000D01*
X159106769Y-103505000D01*
X159087345Y-103122000D01*
X159029274Y-102742930D01*
X158933151Y-102371680D01*
X158899390Y-102280524D01*
X158799965Y-102012068D01*
X158799964Y-102012067D01*
X158799962Y-102012060D01*
X158631074Y-101667759D01*
X158631069Y-101667750D01*
X158493849Y-101447601D01*
X169596790Y-101447601D01*
X169617204Y-101733033D01*
X169678028Y-102012637D01*
X169678030Y-102012643D01*
X169678031Y-102012646D01*
X169720925Y-102127648D01*
X169778035Y-102280766D01*
X169915170Y-102531909D01*
X169915175Y-102531917D01*
X170086654Y-102760987D01*
X170086670Y-102761005D01*
X170288994Y-102963329D01*
X170289012Y-102963345D01*
X170518082Y-103134824D01*
X170518090Y-103134829D01*
X170769233Y-103271964D01*
X170769232Y-103271964D01*
X170769236Y-103271965D01*
X170769239Y-103271967D01*
X171037354Y-103371969D01*
X171037360Y-103371970D01*
X171037362Y-103371971D01*
X171316966Y-103432795D01*
X171316968Y-103432795D01*
X171316972Y-103432796D01*
X171570620Y-103450937D01*
X171602399Y-103453210D01*
X171602400Y-103453210D01*
X171602401Y-103453210D01*
X171630995Y-103451164D01*
X171887828Y-103432796D01*
X172142021Y-103377500D01*
X172167437Y-103371971D01*
X172167437Y-103371970D01*
X172167446Y-103371969D01*
X172435561Y-103271967D01*
X172686715Y-103134826D01*
X172915795Y-102963339D01*
X173118139Y-102760995D01*
X173289626Y-102531915D01*
X173426767Y-102280761D01*
X173526769Y-102012646D01*
X173526895Y-102012068D01*
X173587595Y-101733033D01*
X173587595Y-101733032D01*
X173587596Y-101733028D01*
X173608010Y-101447600D01*
X173587596Y-101162172D01*
X173560814Y-101039059D01*
X173526771Y-100882562D01*
X173526770Y-100882560D01*
X173526769Y-100882554D01*
X173426767Y-100614439D01*
X173370452Y-100511307D01*
X173289629Y-100363290D01*
X173289624Y-100363282D01*
X173118145Y-100134212D01*
X173118129Y-100134194D01*
X172915805Y-99931870D01*
X172915787Y-99931854D01*
X172686717Y-99760375D01*
X172686709Y-99760370D01*
X172435566Y-99623235D01*
X172435567Y-99623235D01*
X172233366Y-99547818D01*
X172167446Y-99523231D01*
X172167443Y-99523230D01*
X172167437Y-99523228D01*
X171887833Y-99462404D01*
X171602401Y-99441990D01*
X171602399Y-99441990D01*
X171316966Y-99462404D01*
X171037362Y-99523228D01*
X170769233Y-99623235D01*
X170518090Y-99760370D01*
X170518082Y-99760375D01*
X170289012Y-99931854D01*
X170288994Y-99931870D01*
X170086670Y-100134194D01*
X170086654Y-100134212D01*
X169915175Y-100363282D01*
X169915170Y-100363290D01*
X169778035Y-100614433D01*
X169678028Y-100882562D01*
X169617204Y-101162166D01*
X169596790Y-101447598D01*
X169596790Y-101447601D01*
X158493849Y-101447601D01*
X158428220Y-101342310D01*
X158193487Y-101039059D01*
X158193486Y-101039058D01*
X158193483Y-101039054D01*
X157929270Y-100761102D01*
X157758421Y-100614433D01*
X157638294Y-100511307D01*
X157391347Y-100339427D01*
X157323536Y-100292229D01*
X157038832Y-100134205D01*
X156988226Y-100106116D01*
X156635808Y-99954883D01*
X156269923Y-99840086D01*
X156269917Y-99840085D01*
X156269914Y-99840084D01*
X156269913Y-99840084D01*
X155894271Y-99762887D01*
X155894270Y-99762886D01*
X155894266Y-99762886D01*
X155512747Y-99724090D01*
X155512746Y-99724090D01*
X155129254Y-99724090D01*
X155129253Y-99724090D01*
X154747733Y-99762886D01*
X154372082Y-99840085D01*
X154372076Y-99840086D01*
X154006191Y-99954883D01*
X153653773Y-100106116D01*
X153318462Y-100292230D01*
X153003705Y-100511307D01*
X152712730Y-100761101D01*
X152448512Y-101039059D01*
X152213779Y-101342310D01*
X152010930Y-101667750D01*
X152010925Y-101667759D01*
X151842040Y-102012055D01*
X151842034Y-102012068D01*
X151708851Y-102371671D01*
X151612725Y-102742934D01*
X151554654Y-103121999D01*
X151535231Y-103505000D01*
X150950900Y-103505000D01*
X150903986Y-103423743D01*
X150740405Y-103218619D01*
X150740404Y-103218618D01*
X150740401Y-103218614D01*
X150562470Y-103053520D01*
X150548079Y-103040167D01*
X150533246Y-103030054D01*
X150488944Y-102976027D01*
X150480883Y-102906624D01*
X150511624Y-102843881D01*
X150533247Y-102825145D01*
X150548079Y-102815033D01*
X150740405Y-102636581D01*
X150903986Y-102431457D01*
X151035168Y-102204243D01*
X151131020Y-101960016D01*
X151189402Y-101704230D01*
X151192136Y-101667750D01*
X151204100Y-101508100D01*
X151204100Y-97245642D01*
X151223785Y-97178603D01*
X151240414Y-97157966D01*
X152894380Y-95504000D01*
X156175141Y-95504000D01*
X156195736Y-95739403D01*
X156195738Y-95739413D01*
X156256894Y-95967655D01*
X156256896Y-95967659D01*
X156256897Y-95967663D01*
X156294251Y-96047769D01*
X156356765Y-96181830D01*
X156356767Y-96181834D01*
X156443527Y-96305739D01*
X156492305Y-96375401D01*
X156659399Y-96542495D01*
X156756184Y-96610265D01*
X156852965Y-96678032D01*
X156852967Y-96678033D01*
X156852970Y-96678035D01*
X157067137Y-96777903D01*
X157295392Y-96839063D01*
X157471834Y-96854500D01*
X157530799Y-96859659D01*
X157530800Y-96859659D01*
X157530801Y-96859659D01*
X157589766Y-96854500D01*
X157766208Y-96839063D01*
X157994463Y-96777903D01*
X158208630Y-96678035D01*
X158402201Y-96542495D01*
X158524129Y-96420566D01*
X158585448Y-96387084D01*
X158655140Y-96392068D01*
X158711074Y-96433939D01*
X158727989Y-96464917D01*
X158777002Y-96596328D01*
X158777006Y-96596335D01*
X158863252Y-96711544D01*
X158863255Y-96711547D01*
X158978464Y-96797793D01*
X158978471Y-96797797D01*
X159113317Y-96848091D01*
X159113316Y-96848091D01*
X159120244Y-96848835D01*
X159172927Y-96854500D01*
X160968672Y-96854499D01*
X161028283Y-96848091D01*
X161163131Y-96797796D01*
X161278346Y-96711546D01*
X161364596Y-96596331D01*
X161414891Y-96461483D01*
X161421300Y-96401873D01*
X161421299Y-94606128D01*
X161414891Y-94546517D01*
X161413610Y-94543083D01*
X161364597Y-94411671D01*
X161364593Y-94411664D01*
X161278347Y-94296455D01*
X161278344Y-94296452D01*
X161163135Y-94210206D01*
X161163128Y-94210202D01*
X161028282Y-94159908D01*
X161028283Y-94159908D01*
X160968683Y-94153501D01*
X160968681Y-94153500D01*
X160968673Y-94153500D01*
X160968664Y-94153500D01*
X159172929Y-94153500D01*
X159172923Y-94153501D01*
X159113316Y-94159908D01*
X158978471Y-94210202D01*
X158978464Y-94210206D01*
X158863255Y-94296452D01*
X158863252Y-94296455D01*
X158777006Y-94411664D01*
X158777003Y-94411669D01*
X158727989Y-94543083D01*
X158686117Y-94599016D01*
X158620653Y-94623433D01*
X158552380Y-94608581D01*
X158524126Y-94587430D01*
X158402202Y-94465506D01*
X158402195Y-94465501D01*
X158208634Y-94329967D01*
X158208630Y-94329965D01*
X158208628Y-94329964D01*
X157994463Y-94230097D01*
X157994459Y-94230096D01*
X157994455Y-94230094D01*
X157766213Y-94168938D01*
X157766203Y-94168936D01*
X157530801Y-94148341D01*
X157530799Y-94148341D01*
X157295396Y-94168936D01*
X157295386Y-94168938D01*
X157067144Y-94230094D01*
X157067135Y-94230098D01*
X156852971Y-94329964D01*
X156852969Y-94329965D01*
X156659397Y-94465505D01*
X156492305Y-94632597D01*
X156356765Y-94826169D01*
X156356764Y-94826171D01*
X156256898Y-95040335D01*
X156256894Y-95040344D01*
X156195738Y-95268586D01*
X156195736Y-95268596D01*
X156175141Y-95503999D01*
X156175141Y-95504000D01*
X152894380Y-95504000D01*
X156611851Y-91786529D01*
X156684005Y-91719581D01*
X156693158Y-91708104D01*
X156745378Y-91642620D01*
X156759952Y-91625685D01*
X156809598Y-91567997D01*
X156825245Y-91543093D01*
X156829258Y-91537437D01*
X156847586Y-91514457D01*
X156896800Y-91429214D01*
X156949184Y-91345847D01*
X156960948Y-91318880D01*
X156964069Y-91312699D01*
X156978768Y-91287243D01*
X157014728Y-91195615D01*
X157054101Y-91105374D01*
X157061710Y-91076973D01*
X157063881Y-91070374D01*
X157074620Y-91043016D01*
X157096526Y-90947037D01*
X157112979Y-90885635D01*
X157122004Y-90851954D01*
X157122005Y-90851950D01*
X157125295Y-90822747D01*
X157126461Y-90815887D01*
X157133002Y-90787228D01*
X157133003Y-90787217D01*
X157140358Y-90689060D01*
X157151381Y-90591235D01*
X157147700Y-90492868D01*
X157147700Y-87825876D01*
X157167385Y-87758837D01*
X157220189Y-87713082D01*
X157289347Y-87703138D01*
X157352903Y-87732163D01*
X157388981Y-87785613D01*
X157448214Y-87958152D01*
X157448219Y-87958163D01*
X157562132Y-88168659D01*
X157562138Y-88168668D01*
X157709146Y-88357543D01*
X157709149Y-88357547D01*
X157885254Y-88519664D01*
X158030514Y-88614566D01*
X158085633Y-88650577D01*
X158304829Y-88746726D01*
X158536861Y-88805484D01*
X158715663Y-88820300D01*
X158715665Y-88820300D01*
X158835135Y-88820300D01*
X158835137Y-88820300D01*
X159013939Y-88805484D01*
X159245971Y-88746726D01*
X159465167Y-88650577D01*
X159665548Y-88519662D01*
X159841648Y-88357550D01*
X159988664Y-88168665D01*
X160102584Y-87958157D01*
X160180303Y-87731770D01*
X160186070Y-87697213D01*
X191880817Y-87697213D01*
X191910203Y-87964281D01*
X191910205Y-87964289D01*
X191978161Y-88224228D01*
X192034815Y-88357547D01*
X192083246Y-88471513D01*
X192139077Y-88562996D01*
X192223210Y-88700855D01*
X192223217Y-88700864D01*
X192395080Y-88907379D01*
X192395086Y-88907385D01*
X192510039Y-89010383D01*
X192595190Y-89086678D01*
X192819270Y-89234928D01*
X192819273Y-89234929D01*
X192819274Y-89234930D01*
X193062542Y-89348970D01*
X193062557Y-89348976D01*
X193319827Y-89426377D01*
X193319834Y-89426378D01*
X193319839Y-89426380D01*
X193585659Y-89465500D01*
X193585664Y-89465500D01*
X193787089Y-89465500D01*
X193838169Y-89461760D01*
X193987966Y-89450797D01*
X194250220Y-89392378D01*
X194501174Y-89296396D01*
X194735479Y-89164898D01*
X194948140Y-89000686D01*
X195134626Y-88807261D01*
X195290961Y-88588744D01*
X195364349Y-88446001D01*
X195413807Y-88349808D01*
X195413809Y-88349802D01*
X195413814Y-88349793D01*
X195500567Y-88095501D01*
X195549369Y-87831288D01*
X195559182Y-87562785D01*
X195538631Y-87376007D01*
X219917306Y-87376007D01*
X219937261Y-87680461D01*
X219937262Y-87680471D01*
X219937263Y-87680478D01*
X219937265Y-87680488D01*
X219996789Y-87979738D01*
X219996793Y-87979753D01*
X220094870Y-88268678D01*
X220094879Y-88268699D01*
X220229828Y-88542348D01*
X220399350Y-88796055D01*
X220600535Y-89025464D01*
X220759527Y-89164895D01*
X220829946Y-89226651D01*
X220998316Y-89339151D01*
X221083651Y-89396171D01*
X221357300Y-89531120D01*
X221357305Y-89531122D01*
X221357317Y-89531128D01*
X221646254Y-89629209D01*
X221945522Y-89688737D01*
X221974763Y-89690653D01*
X222249993Y-89708694D01*
X222250000Y-89708694D01*
X222250007Y-89708694D01*
X222493756Y-89692716D01*
X222554478Y-89688737D01*
X222853746Y-89629209D01*
X223142683Y-89531128D01*
X223416347Y-89396172D01*
X223670054Y-89226651D01*
X223899464Y-89025464D01*
X224100651Y-88796054D01*
X224270172Y-88542347D01*
X224405128Y-88268683D01*
X224503209Y-87979746D01*
X224562737Y-87680478D01*
X224568612Y-87590852D01*
X224582694Y-87376007D01*
X224582694Y-87375992D01*
X224562738Y-87071538D01*
X224562737Y-87071522D01*
X224503209Y-86772254D01*
X224405128Y-86483317D01*
X224390853Y-86454371D01*
X224270171Y-86209651D01*
X224146839Y-86025072D01*
X224100651Y-85955946D01*
X224023191Y-85867620D01*
X223899464Y-85726535D01*
X223670055Y-85525350D01*
X223416348Y-85355828D01*
X223142699Y-85220879D01*
X223142678Y-85220870D01*
X222853753Y-85122793D01*
X222853747Y-85122791D01*
X222853746Y-85122791D01*
X222853744Y-85122790D01*
X222853738Y-85122789D01*
X222554488Y-85063265D01*
X222554478Y-85063263D01*
X222554471Y-85063262D01*
X222554461Y-85063261D01*
X222250007Y-85043306D01*
X222249993Y-85043306D01*
X221945538Y-85063261D01*
X221945526Y-85063262D01*
X221945522Y-85063263D01*
X221945514Y-85063264D01*
X221945511Y-85063265D01*
X221646261Y-85122789D01*
X221646246Y-85122793D01*
X221357321Y-85220870D01*
X221357300Y-85220879D01*
X221083651Y-85355828D01*
X220829944Y-85525350D01*
X220600535Y-85726535D01*
X220399350Y-85955944D01*
X220229828Y-86209651D01*
X220094879Y-86483300D01*
X220094870Y-86483321D01*
X219996793Y-86772246D01*
X219996789Y-86772261D01*
X219937265Y-87071511D01*
X219937261Y-87071538D01*
X219917306Y-87375992D01*
X219917306Y-87376007D01*
X195538631Y-87376007D01*
X195529796Y-87295714D01*
X195471184Y-87071522D01*
X195461838Y-87035771D01*
X195436281Y-86975631D01*
X195356754Y-86788487D01*
X195216787Y-86559141D01*
X195075481Y-86389344D01*
X195044919Y-86352620D01*
X195044913Y-86352614D01*
X194844810Y-86173322D01*
X194779980Y-86130431D01*
X194620730Y-86025072D01*
X194620728Y-86025071D01*
X194620725Y-86025069D01*
X194377457Y-85911029D01*
X194377442Y-85911023D01*
X194120172Y-85833622D01*
X194120158Y-85833619D01*
X194005457Y-85816739D01*
X193854341Y-85794500D01*
X193652916Y-85794500D01*
X193652911Y-85794500D01*
X193452034Y-85809203D01*
X193452020Y-85809205D01*
X193189786Y-85867620D01*
X193189779Y-85867622D01*
X192938823Y-85963605D01*
X192704522Y-86095101D01*
X192704517Y-86095104D01*
X192491861Y-86259312D01*
X192491851Y-86259321D01*
X192305377Y-86452735D01*
X192305375Y-86452737D01*
X192149040Y-86671254D01*
X192149037Y-86671259D01*
X192026192Y-86910191D01*
X192026185Y-86910209D01*
X191939435Y-87164489D01*
X191939432Y-87164503D01*
X191890632Y-87428700D01*
X191890630Y-87428720D01*
X191880817Y-87697213D01*
X160186070Y-87697213D01*
X160219700Y-87495678D01*
X160219700Y-87256322D01*
X160180303Y-87020230D01*
X160102584Y-86793843D01*
X159988664Y-86583335D01*
X159969828Y-86559135D01*
X159841653Y-86394456D01*
X159841650Y-86394452D01*
X159665545Y-86232335D01*
X159465166Y-86101422D01*
X159245971Y-86005274D01*
X159081419Y-85963604D01*
X159013939Y-85946516D01*
X159013938Y-85946515D01*
X159013935Y-85946515D01*
X158870652Y-85934642D01*
X158835137Y-85931700D01*
X158715663Y-85931700D01*
X158683355Y-85934377D01*
X158536864Y-85946515D01*
X158304828Y-86005274D01*
X158085633Y-86101422D01*
X157885254Y-86232335D01*
X157709149Y-86394452D01*
X157709146Y-86394456D01*
X157562138Y-86583331D01*
X157562132Y-86583340D01*
X157448219Y-86793836D01*
X157448214Y-86793847D01*
X157388981Y-86966386D01*
X157348595Y-87023402D01*
X157283796Y-87049532D01*
X157215156Y-87036480D01*
X157164468Y-86988391D01*
X157147700Y-86926123D01*
X157147700Y-78239913D01*
X157151380Y-78141563D01*
X157140359Y-78043753D01*
X157133003Y-77945577D01*
X157133002Y-77945573D01*
X157133002Y-77945570D01*
X157126461Y-77916913D01*
X157125295Y-77910052D01*
X157122005Y-77880851D01*
X157122005Y-77880849D01*
X157096527Y-77785765D01*
X157074620Y-77689784D01*
X157063880Y-77662419D01*
X157061708Y-77655820D01*
X157054100Y-77627425D01*
X157014735Y-77537200D01*
X156997884Y-77494264D01*
X156978771Y-77445563D01*
X156978770Y-77445561D01*
X156978768Y-77445557D01*
X156964070Y-77420100D01*
X156960937Y-77413895D01*
X156949184Y-77386956D01*
X156949183Y-77386953D01*
X156896811Y-77303604D01*
X156847586Y-77218343D01*
X156829256Y-77195358D01*
X156825229Y-77189682D01*
X156809596Y-77164802D01*
X156745391Y-77090194D01*
X156731792Y-77073142D01*
X156684005Y-77013219D01*
X156611837Y-76946257D01*
X151039588Y-71374007D01*
X164672306Y-71374007D01*
X164692261Y-71678461D01*
X164692262Y-71678471D01*
X164692263Y-71678478D01*
X164692265Y-71678488D01*
X164751789Y-71977738D01*
X164751793Y-71977753D01*
X164849870Y-72266678D01*
X164849879Y-72266699D01*
X164984828Y-72540348D01*
X165000699Y-72564100D01*
X165142260Y-72775962D01*
X165154350Y-72794055D01*
X165355535Y-73023464D01*
X165513076Y-73161623D01*
X165584946Y-73224651D01*
X165731958Y-73322881D01*
X165838651Y-73394171D01*
X166112300Y-73529120D01*
X166112305Y-73529122D01*
X166112317Y-73529128D01*
X166401254Y-73627209D01*
X166700522Y-73686737D01*
X166729763Y-73688653D01*
X167004993Y-73706694D01*
X167005000Y-73706694D01*
X167005007Y-73706694D01*
X167248756Y-73690716D01*
X167309478Y-73686737D01*
X167608746Y-73627209D01*
X167897683Y-73529128D01*
X168171347Y-73394172D01*
X168425054Y-73224651D01*
X168654464Y-73023464D01*
X168855651Y-72794054D01*
X169025172Y-72540347D01*
X169160128Y-72266683D01*
X169181486Y-72203763D01*
X267995387Y-72203763D01*
X268025013Y-72473013D01*
X268025015Y-72473024D01*
X268093526Y-72735082D01*
X268093528Y-72735088D01*
X268199470Y-72984390D01*
X268307631Y-73161618D01*
X268340579Y-73215605D01*
X268340586Y-73215615D01*
X268513853Y-73423819D01*
X268513859Y-73423824D01*
X268715598Y-73604582D01*
X268941510Y-73754044D01*
X269186776Y-73869020D01*
X269186783Y-73869022D01*
X269186785Y-73869023D01*
X269446157Y-73947057D01*
X269446164Y-73947058D01*
X269446169Y-73947060D01*
X269714161Y-73986500D01*
X269714166Y-73986500D01*
X269917236Y-73986500D01*
X269968733Y-73982730D01*
X270119756Y-73971677D01*
X270242058Y-73944433D01*
X270384146Y-73912782D01*
X270384148Y-73912781D01*
X270384153Y-73912780D01*
X270637158Y-73816014D01*
X270873377Y-73683441D01*
X271087777Y-73517888D01*
X271275786Y-73322881D01*
X271433399Y-73102579D01*
X271524182Y-72926004D01*
X271557249Y-72861690D01*
X271557251Y-72861684D01*
X271557256Y-72861675D01*
X271644718Y-72605305D01*
X271693919Y-72338933D01*
X271703812Y-72068235D01*
X271674186Y-71798982D01*
X271605672Y-71536912D01*
X271499730Y-71287610D01*
X271358618Y-71056390D01*
X271353810Y-71050613D01*
X271185346Y-70848180D01*
X271185340Y-70848175D01*
X270983602Y-70667418D01*
X270757692Y-70517957D01*
X270690780Y-70486590D01*
X270512424Y-70402980D01*
X270512419Y-70402978D01*
X270512414Y-70402976D01*
X270253042Y-70324942D01*
X270253028Y-70324939D01*
X270137391Y-70307921D01*
X269985039Y-70285500D01*
X269781969Y-70285500D01*
X269781964Y-70285500D01*
X269579444Y-70300323D01*
X269579431Y-70300325D01*
X269315053Y-70359217D01*
X269315046Y-70359220D01*
X269062039Y-70455987D01*
X268825826Y-70588557D01*
X268611422Y-70754112D01*
X268423422Y-70949109D01*
X268423416Y-70949116D01*
X268265802Y-71169419D01*
X268265799Y-71169424D01*
X268141950Y-71410309D01*
X268141943Y-71410327D01*
X268054484Y-71666685D01*
X268054481Y-71666699D01*
X268038465Y-71753408D01*
X268006482Y-71926568D01*
X268005281Y-71933068D01*
X268005280Y-71933075D01*
X267995387Y-72203763D01*
X169181486Y-72203763D01*
X169258209Y-71977746D01*
X169317737Y-71678478D01*
X169321716Y-71617756D01*
X169337694Y-71374007D01*
X169337694Y-71373992D01*
X169317738Y-71069538D01*
X169317737Y-71069522D01*
X169258209Y-70770254D01*
X169160128Y-70481317D01*
X169130783Y-70421812D01*
X169025171Y-70207651D01*
X168969946Y-70125001D01*
X246939454Y-70125001D01*
X246959613Y-70406866D01*
X247019678Y-70682977D01*
X247019680Y-70682984D01*
X247080993Y-70847372D01*
X247118432Y-70947750D01*
X247118434Y-70947754D01*
X247253855Y-71195758D01*
X247253860Y-71195766D01*
X247423196Y-71421974D01*
X247423212Y-71421992D01*
X247623007Y-71621787D01*
X247623025Y-71621803D01*
X247849233Y-71791139D01*
X247849241Y-71791144D01*
X248097245Y-71926565D01*
X248097249Y-71926567D01*
X248097251Y-71926568D01*
X248362016Y-72025320D01*
X248500077Y-72055353D01*
X248638133Y-72085386D01*
X248638135Y-72085386D01*
X248638139Y-72085387D01*
X248849447Y-72100500D01*
X248990553Y-72100500D01*
X249201861Y-72085387D01*
X249477984Y-72025320D01*
X249742749Y-71926568D01*
X249990764Y-71791141D01*
X250216982Y-71621797D01*
X250416797Y-71421982D01*
X250586141Y-71195764D01*
X250721568Y-70947749D01*
X250820320Y-70682984D01*
X250880387Y-70406861D01*
X250900546Y-70125000D01*
X250880387Y-69843139D01*
X250859478Y-69747024D01*
X250820538Y-69568018D01*
X250820320Y-69567016D01*
X250721568Y-69302251D01*
X250690316Y-69245018D01*
X250586144Y-69054241D01*
X250586139Y-69054233D01*
X250416803Y-68828025D01*
X250416787Y-68828007D01*
X250216992Y-68628212D01*
X250216974Y-68628196D01*
X249990766Y-68458860D01*
X249990758Y-68458855D01*
X249742754Y-68323434D01*
X249742750Y-68323432D01*
X249642372Y-68285993D01*
X249477984Y-68224680D01*
X249477980Y-68224679D01*
X249477977Y-68224678D01*
X249201866Y-68164613D01*
X248990553Y-68149500D01*
X248849447Y-68149500D01*
X248638133Y-68164613D01*
X248362022Y-68224678D01*
X248362017Y-68224679D01*
X248362016Y-68224680D01*
X248298003Y-68248555D01*
X248097249Y-68323432D01*
X248097245Y-68323434D01*
X247849241Y-68458855D01*
X247849233Y-68458860D01*
X247623025Y-68628196D01*
X247623007Y-68628212D01*
X247423212Y-68828007D01*
X247423196Y-68828025D01*
X247253860Y-69054233D01*
X247253855Y-69054241D01*
X247118434Y-69302245D01*
X247118432Y-69302249D01*
X247019678Y-69567022D01*
X246959613Y-69843133D01*
X246939454Y-70124998D01*
X246939454Y-70125001D01*
X168969946Y-70125001D01*
X168962937Y-70114512D01*
X168855651Y-69953946D01*
X168752119Y-69835890D01*
X168654464Y-69724535D01*
X168425055Y-69523350D01*
X168406660Y-69511059D01*
X168334883Y-69463099D01*
X168171348Y-69353828D01*
X167897699Y-69218879D01*
X167897678Y-69218870D01*
X167608753Y-69120793D01*
X167608747Y-69120791D01*
X167608746Y-69120791D01*
X167608744Y-69120790D01*
X167608738Y-69120789D01*
X167309488Y-69061265D01*
X167309478Y-69061263D01*
X167309471Y-69061262D01*
X167309461Y-69061261D01*
X167005007Y-69041306D01*
X167004993Y-69041306D01*
X166700538Y-69061261D01*
X166700526Y-69061262D01*
X166700522Y-69061263D01*
X166700514Y-69061264D01*
X166700511Y-69061265D01*
X166401261Y-69120789D01*
X166401246Y-69120793D01*
X166112321Y-69218870D01*
X166112300Y-69218879D01*
X165838651Y-69353828D01*
X165584944Y-69523350D01*
X165355535Y-69724535D01*
X165154350Y-69953944D01*
X164984828Y-70207651D01*
X164849879Y-70481300D01*
X164849870Y-70481321D01*
X164751793Y-70770246D01*
X164751789Y-70770261D01*
X164692265Y-71069511D01*
X164692261Y-71069538D01*
X164672306Y-71373992D01*
X164672306Y-71374007D01*
X151039588Y-71374007D01*
X149501479Y-69835898D01*
X149501470Y-69835890D01*
X149501471Y-69835890D01*
X149352403Y-69707607D01*
X149352400Y-69707605D01*
X149352397Y-69707602D01*
X149130247Y-69568017D01*
X148889775Y-69463100D01*
X148889773Y-69463099D01*
X148636347Y-69395194D01*
X148375635Y-69365818D01*
X148113457Y-69375629D01*
X147855677Y-69424403D01*
X147855672Y-69424404D01*
X147851740Y-69425780D01*
X147608027Y-69511059D01*
X147376067Y-69633654D01*
X147293294Y-69694742D01*
X147164968Y-69789450D01*
X146979450Y-69974968D01*
X146944073Y-70022903D01*
X146823654Y-70186067D01*
X146701059Y-70418027D01*
X146677069Y-70486586D01*
X146614404Y-70665672D01*
X146614403Y-70665677D01*
X146565629Y-70923457D01*
X146555818Y-71185635D01*
X146585194Y-71446345D01*
X146585194Y-71446349D01*
X146653099Y-71699773D01*
X146653100Y-71699775D01*
X146758017Y-71940247D01*
X146897602Y-72162397D01*
X146897605Y-72162400D01*
X146897607Y-72162403D01*
X147025890Y-72311471D01*
X147025890Y-72311470D01*
X147025898Y-72311479D01*
X147239076Y-72524657D01*
X147429058Y-72714639D01*
X147462543Y-72775962D01*
X147457559Y-72845654D01*
X147415687Y-72901587D01*
X147350223Y-72926004D01*
X147298044Y-72918502D01*
X147205634Y-72884035D01*
X147123046Y-72853231D01*
X147123042Y-72853230D01*
X147123039Y-72853229D01*
X146843433Y-72792404D01*
X146558001Y-72771990D01*
X146557999Y-72771990D01*
X146272566Y-72792404D01*
X145992962Y-72853228D01*
X145724833Y-72953235D01*
X145473690Y-73090370D01*
X145473682Y-73090375D01*
X145244612Y-73261854D01*
X145244594Y-73261870D01*
X145042270Y-73464194D01*
X145042254Y-73464212D01*
X144870775Y-73693282D01*
X144870770Y-73693290D01*
X144733635Y-73944433D01*
X144633628Y-74212562D01*
X144572804Y-74492166D01*
X144552390Y-74777598D01*
X144552390Y-74777601D01*
X90570713Y-74777601D01*
X90504442Y-74699581D01*
X90235085Y-74444433D01*
X90235073Y-74444423D01*
X89939724Y-74219904D01*
X89939707Y-74219892D01*
X89621817Y-74028626D01*
X89621804Y-74028619D01*
X89285098Y-73872842D01*
X89285093Y-73872840D01*
X89285088Y-73872838D01*
X89113704Y-73815092D01*
X88966625Y-73765535D01*
X105713031Y-73765535D01*
X105732400Y-73949821D01*
X105732401Y-73949823D01*
X105789661Y-74126049D01*
X105839605Y-74212554D01*
X105882310Y-74286522D01*
X105925499Y-74334489D01*
X106006293Y-74424221D01*
X106006296Y-74424223D01*
X106006299Y-74424226D01*
X106099819Y-74492172D01*
X106156209Y-74533142D01*
X106325482Y-74608508D01*
X106325485Y-74608508D01*
X106325488Y-74608510D01*
X106506738Y-74647035D01*
X106692036Y-74647035D01*
X106873286Y-74608510D01*
X106873289Y-74608508D01*
X106873291Y-74608508D01*
X106930309Y-74583121D01*
X107042565Y-74533142D01*
X107192475Y-74424226D01*
X107316464Y-74286522D01*
X107409113Y-74126048D01*
X107466374Y-73949819D01*
X107485743Y-73765535D01*
X107466374Y-73581251D01*
X107409113Y-73405022D01*
X107316464Y-73244548D01*
X107267901Y-73190613D01*
X107192480Y-73106848D01*
X107192477Y-73106846D01*
X107192476Y-73106845D01*
X107192475Y-73106844D01*
X107042565Y-72997928D01*
X107042564Y-72997927D01*
X106873291Y-72922561D01*
X106873283Y-72922559D01*
X106692036Y-72884035D01*
X106506738Y-72884035D01*
X106325490Y-72922559D01*
X106325482Y-72922561D01*
X106156209Y-72997927D01*
X106006296Y-73106846D01*
X106006293Y-73106848D01*
X105882309Y-73244549D01*
X105789661Y-73405020D01*
X105732401Y-73581246D01*
X105732400Y-73581248D01*
X105713031Y-73765535D01*
X88966625Y-73765535D01*
X88933492Y-73754371D01*
X88571148Y-73674613D01*
X88202309Y-73634500D01*
X88202308Y-73634500D01*
X87831292Y-73634500D01*
X87831290Y-73634500D01*
X87462451Y-73674613D01*
X87100107Y-73754371D01*
X86828318Y-73845948D01*
X86748512Y-73872838D01*
X86748509Y-73872839D01*
X86748501Y-73872842D01*
X86411795Y-74028619D01*
X86411782Y-74028626D01*
X86093892Y-74219892D01*
X86093875Y-74219904D01*
X85798526Y-74444423D01*
X85798514Y-74444433D01*
X85529157Y-74699581D01*
X85288973Y-74982346D01*
X85288965Y-74982356D01*
X85080761Y-75289433D01*
X85080760Y-75289436D01*
X84906974Y-75617230D01*
X84906965Y-75617248D01*
X84769641Y-75961908D01*
X84769640Y-75961910D01*
X84670387Y-76319389D01*
X84670382Y-76319410D01*
X84610362Y-76685512D01*
X84610361Y-76685525D01*
X84610361Y-76685527D01*
X84606823Y-76750787D01*
X84590275Y-77055997D01*
X84590275Y-77056002D01*
X45208298Y-77056002D01*
X45208298Y-76532562D01*
X45201890Y-76472951D01*
X45173649Y-76397234D01*
X45151596Y-76338105D01*
X45151592Y-76338098D01*
X45065346Y-76222889D01*
X45065343Y-76222886D01*
X44950134Y-76136640D01*
X44950127Y-76136636D01*
X44815281Y-76086342D01*
X44815282Y-76086342D01*
X44755682Y-76079935D01*
X44755680Y-76079934D01*
X44755672Y-76079934D01*
X44755663Y-76079934D01*
X42359928Y-76079934D01*
X42359922Y-76079935D01*
X42300315Y-76086342D01*
X42165470Y-76136636D01*
X42165463Y-76136640D01*
X42050254Y-76222886D01*
X42050251Y-76222889D01*
X41964005Y-76338098D01*
X41964001Y-76338105D01*
X41913707Y-76472951D01*
X41907300Y-76532550D01*
X41907300Y-76532557D01*
X41907299Y-76532569D01*
X41907299Y-78928304D01*
X40202117Y-78928304D01*
X39792501Y-78518688D01*
X39889720Y-78462560D01*
X40030314Y-78335968D01*
X40141516Y-78182913D01*
X40148390Y-78167471D01*
X40690997Y-78710078D01*
X40696805Y-78703278D01*
X40832507Y-78481834D01*
X40832509Y-78481831D01*
X40931893Y-78241896D01*
X40931898Y-78241879D01*
X40992525Y-77989346D01*
X41012901Y-77730434D01*
X40992525Y-77471521D01*
X40931898Y-77218988D01*
X40931893Y-77218971D01*
X40832509Y-76979036D01*
X40832507Y-76979033D01*
X40696807Y-76757591D01*
X40690997Y-76750788D01*
X40148390Y-77293395D01*
X40141516Y-77277956D01*
X40030314Y-77124900D01*
X39889720Y-76998308D01*
X39792501Y-76942179D01*
X40337445Y-76397235D01*
X40330643Y-76391427D01*
X40330642Y-76391426D01*
X40109200Y-76255726D01*
X40109197Y-76255724D01*
X39869262Y-76156340D01*
X39869245Y-76156335D01*
X39616711Y-76095708D01*
X39616712Y-76095708D01*
X39357800Y-76075332D01*
X39098887Y-76095708D01*
X38846354Y-76156335D01*
X38846337Y-76156340D01*
X38606402Y-76255724D01*
X38606399Y-76255726D01*
X38384955Y-76391427D01*
X38378153Y-76397234D01*
X38923098Y-76942179D01*
X38825880Y-76998308D01*
X38685286Y-77124900D01*
X38574084Y-77277955D01*
X38567209Y-77293396D01*
X38024600Y-76750787D01*
X38018793Y-76757589D01*
X37883092Y-76979033D01*
X37883090Y-76979036D01*
X37783706Y-77218971D01*
X37783701Y-77218988D01*
X37723074Y-77471521D01*
X37702698Y-77730434D01*
X22860000Y-77730434D01*
X22860000Y-73161623D01*
X37416300Y-73161623D01*
X37428800Y-73244548D01*
X37455404Y-73421051D01*
X37455405Y-73421053D01*
X37455406Y-73421059D01*
X37532738Y-73671762D01*
X37646567Y-73908132D01*
X37646568Y-73908133D01*
X37646570Y-73908136D01*
X37646572Y-73908140D01*
X37728717Y-74028624D01*
X37794367Y-74124915D01*
X37972814Y-74317237D01*
X37972818Y-74317240D01*
X37972819Y-74317241D01*
X38177943Y-74480822D01*
X38405157Y-74612004D01*
X38649384Y-74707856D01*
X38905170Y-74766238D01*
X38905176Y-74766238D01*
X38905179Y-74766239D01*
X39101300Y-74780936D01*
X39101306Y-74780936D01*
X39232300Y-74780936D01*
X39428420Y-74766239D01*
X39428422Y-74766238D01*
X39428430Y-74766238D01*
X39684216Y-74707856D01*
X39928443Y-74612004D01*
X40155657Y-74480822D01*
X40360781Y-74317241D01*
X40539233Y-74124915D01*
X40687028Y-73908140D01*
X40800863Y-73671759D01*
X40878196Y-73421051D01*
X40917300Y-73161618D01*
X40917300Y-72899254D01*
X40878196Y-72639821D01*
X40800863Y-72389113D01*
X40776693Y-72338924D01*
X40687032Y-72152739D01*
X40687031Y-72152738D01*
X40687030Y-72152737D01*
X40687028Y-72152732D01*
X40539233Y-71935957D01*
X40429958Y-71818186D01*
X40360785Y-71743634D01*
X40281216Y-71680180D01*
X40155657Y-71580050D01*
X39928443Y-71448868D01*
X39684216Y-71353016D01*
X39684211Y-71353014D01*
X39684202Y-71353012D01*
X39466618Y-71303350D01*
X39428430Y-71294634D01*
X39428429Y-71294633D01*
X39428425Y-71294633D01*
X39428420Y-71294632D01*
X39232300Y-71279936D01*
X39232294Y-71279936D01*
X39101306Y-71279936D01*
X39101300Y-71279936D01*
X38905179Y-71294632D01*
X38905174Y-71294633D01*
X38649397Y-71353012D01*
X38649378Y-71353018D01*
X38405156Y-71448868D01*
X38177943Y-71580050D01*
X37972814Y-71743634D01*
X37794367Y-71935956D01*
X37646568Y-72152738D01*
X37646567Y-72152739D01*
X37532738Y-72389109D01*
X37455406Y-72639812D01*
X37455405Y-72639817D01*
X37455404Y-72639821D01*
X37444127Y-72714639D01*
X37416300Y-72899248D01*
X37416300Y-73161623D01*
X22860000Y-73161623D01*
X22860000Y-70781363D01*
X26593787Y-70781363D01*
X26623413Y-71050613D01*
X26623415Y-71050624D01*
X26687208Y-71294634D01*
X26691928Y-71312688D01*
X26797870Y-71561990D01*
X26937718Y-71791139D01*
X26938979Y-71793205D01*
X26938986Y-71793215D01*
X27112253Y-72001419D01*
X27112259Y-72001424D01*
X27313998Y-72182182D01*
X27539910Y-72331644D01*
X27785176Y-72446620D01*
X27785183Y-72446622D01*
X27785185Y-72446623D01*
X28044557Y-72524657D01*
X28044564Y-72524658D01*
X28044569Y-72524660D01*
X28312561Y-72564100D01*
X28312566Y-72564100D01*
X28515636Y-72564100D01*
X28567133Y-72560330D01*
X28718156Y-72549277D01*
X28830758Y-72524193D01*
X28982546Y-72490382D01*
X28982548Y-72490381D01*
X28982553Y-72490380D01*
X29235558Y-72393614D01*
X29471777Y-72261041D01*
X29686177Y-72095488D01*
X29874186Y-71900481D01*
X30031799Y-71680179D01*
X30138033Y-71473553D01*
X30155649Y-71439290D01*
X30155651Y-71439284D01*
X30155656Y-71439275D01*
X30243118Y-71182905D01*
X30254737Y-71120000D01*
X112043179Y-71120000D01*
X112062424Y-71339976D01*
X112062426Y-71339986D01*
X112119575Y-71553270D01*
X112119580Y-71553284D01*
X112212899Y-71753407D01*
X112212900Y-71753409D01*
X112258258Y-71818187D01*
X112925096Y-71151349D01*
X112925051Y-71151898D01*
X112956266Y-71275162D01*
X113025813Y-71381612D01*
X113126157Y-71459713D01*
X113246422Y-71501000D01*
X113282553Y-71501000D01*
X112611811Y-72171741D01*
X112676582Y-72217094D01*
X112676592Y-72217100D01*
X112876715Y-72310419D01*
X112876729Y-72310424D01*
X113090013Y-72367573D01*
X113090023Y-72367575D01*
X113309999Y-72386821D01*
X113310001Y-72386821D01*
X113529976Y-72367575D01*
X113529986Y-72367573D01*
X113743270Y-72310424D01*
X113743284Y-72310419D01*
X113943408Y-72217100D01*
X113943420Y-72217093D01*
X114008186Y-72171742D01*
X114008187Y-72171740D01*
X113337448Y-71501000D01*
X113341569Y-71501000D01*
X113435421Y-71485339D01*
X113547251Y-71424820D01*
X113633371Y-71331269D01*
X113684448Y-71214823D01*
X113690105Y-71146552D01*
X114361740Y-71818187D01*
X114361742Y-71818186D01*
X114407093Y-71753420D01*
X114407100Y-71753408D01*
X114500419Y-71553284D01*
X114500424Y-71553270D01*
X114557573Y-71339986D01*
X114557575Y-71339976D01*
X114576821Y-71120000D01*
X114576821Y-71119999D01*
X114557575Y-70900023D01*
X114557573Y-70900013D01*
X114500424Y-70686729D01*
X114500420Y-70686720D01*
X114407098Y-70486590D01*
X114361740Y-70421811D01*
X113694903Y-71088648D01*
X113694949Y-71088102D01*
X113663734Y-70964838D01*
X113594187Y-70858388D01*
X113493843Y-70780287D01*
X113373578Y-70739000D01*
X113337447Y-70739000D01*
X114008187Y-70068258D01*
X113943409Y-70022900D01*
X113943407Y-70022899D01*
X113743284Y-69929580D01*
X113743270Y-69929575D01*
X113529986Y-69872426D01*
X113529976Y-69872424D01*
X113310001Y-69853179D01*
X113309999Y-69853179D01*
X113090023Y-69872424D01*
X113090013Y-69872426D01*
X112876729Y-69929575D01*
X112876720Y-69929579D01*
X112676586Y-70022903D01*
X112611812Y-70068257D01*
X112611811Y-70068258D01*
X113282554Y-70739000D01*
X113278431Y-70739000D01*
X113184579Y-70754661D01*
X113072749Y-70815180D01*
X112986629Y-70908731D01*
X112935552Y-71025177D01*
X112929894Y-71093447D01*
X112258258Y-70421811D01*
X112258257Y-70421812D01*
X112212903Y-70486586D01*
X112119579Y-70686720D01*
X112119575Y-70686729D01*
X112062426Y-70900013D01*
X112062424Y-70900023D01*
X112043179Y-71119999D01*
X112043179Y-71120000D01*
X30254737Y-71120000D01*
X30292319Y-70916533D01*
X30302212Y-70645835D01*
X30272586Y-70376582D01*
X30204072Y-70114512D01*
X30098130Y-69865210D01*
X29957018Y-69633990D01*
X29867747Y-69526719D01*
X29783746Y-69425780D01*
X29783740Y-69425775D01*
X29582002Y-69245018D01*
X29356092Y-69095557D01*
X29356090Y-69095556D01*
X29110824Y-68980580D01*
X29110819Y-68980578D01*
X29110814Y-68980576D01*
X28851442Y-68902542D01*
X28851428Y-68902539D01*
X28735791Y-68885521D01*
X28583439Y-68863100D01*
X28380369Y-68863100D01*
X28380364Y-68863100D01*
X28177844Y-68877923D01*
X28177831Y-68877925D01*
X27913453Y-68936817D01*
X27913446Y-68936820D01*
X27660439Y-69033587D01*
X27424226Y-69166157D01*
X27209822Y-69331712D01*
X27021822Y-69526709D01*
X27021816Y-69526716D01*
X26864202Y-69747019D01*
X26864199Y-69747024D01*
X26740350Y-69987909D01*
X26740343Y-69987927D01*
X26652884Y-70244285D01*
X26652882Y-70244295D01*
X26609102Y-70481321D01*
X26603681Y-70510668D01*
X26603680Y-70510675D01*
X26593787Y-70781363D01*
X22860000Y-70781363D01*
X22860000Y-66164000D01*
X22879685Y-66096961D01*
X22932489Y-66051206D01*
X22984000Y-66040000D01*
X276240500Y-66040000D01*
X276307539Y-66059685D01*
G37*
G04 #@! TD.AperFunction*
M02*
