G04 #@! TF.GenerationSoftware,KiCad,Pcbnew,7.0.9*
G04 #@! TF.CreationDate,2024-04-01T22:01:12-07:00*
G04 #@! TF.ProjectId,AVcarrierBoard,41566361-7272-4696-9572-426f6172642e,rev?*
G04 #@! TF.SameCoordinates,Original*
G04 #@! TF.FileFunction,Legend,Bot*
G04 #@! TF.FilePolarity,Positive*
%FSLAX46Y46*%
G04 Gerber Fmt 4.6, Leading zero omitted, Abs format (unit mm)*
G04 Created by KiCad (PCBNEW 7.0.9) date 2024-04-01 22:01:12*
%MOMM*%
%LPD*%
G01*
G04 APERTURE LIST*
G04 Aperture macros list*
%AMRoundRect*
0 Rectangle with rounded corners*
0 $1 Rounding radius*
0 $2 $3 $4 $5 $6 $7 $8 $9 X,Y pos of 4 corners*
0 Add a 4 corners polygon primitive as box body*
4,1,4,$2,$3,$4,$5,$6,$7,$8,$9,$2,$3,0*
0 Add four circle primitives for the rounded corners*
1,1,$1+$1,$2,$3*
1,1,$1+$1,$4,$5*
1,1,$1+$1,$6,$7*
1,1,$1+$1,$8,$9*
0 Add four rect primitives between the rounded corners*
20,1,$1+$1,$2,$3,$4,$5,0*
20,1,$1+$1,$4,$5,$6,$7,0*
20,1,$1+$1,$6,$7,$8,$9,0*
20,1,$1+$1,$8,$9,$2,$3,0*%
G04 Aperture macros list end*
%ADD10C,0.150000*%
%ADD11C,0.125000*%
%ADD12C,0.100000*%
%ADD13C,0.152400*%
%ADD14C,0.508000*%
%ADD15C,0.120000*%
%ADD16C,2.999999*%
%ADD17R,2.300000X2.300000*%
%ADD18C,2.300000*%
%ADD19C,3.170000*%
%ADD20C,3.450000*%
%ADD21C,2.390000*%
%ADD22C,3.654400*%
%ADD23C,2.387600*%
%ADD24R,7.467600X6.477000*%
%ADD25R,1.700000X1.700000*%
%ADD26O,1.700000X1.700000*%
%ADD27RoundRect,0.102000X-0.825000X0.825000X-0.825000X-0.825000X0.825000X-0.825000X0.825000X0.825000X0*%
%ADD28C,1.854000*%
%ADD29C,3.200000*%
%ADD30R,2.032000X2.032000*%
%ADD31C,1.200000*%
%ADD32C,6.560820*%
%ADD33C,5.842000*%
%ADD34C,0.762000*%
%ADD35C,6.000000*%
%ADD36C,1.524000*%
G04 APERTURE END LIST*
D10*
X264921830Y-119411457D02*
X264921830Y-116411457D01*
X264921830Y-116411457D02*
X263778973Y-116411457D01*
X263778973Y-116411457D02*
X263493258Y-116554314D01*
X263493258Y-116554314D02*
X263350401Y-116697171D01*
X263350401Y-116697171D02*
X263207544Y-116982885D01*
X263207544Y-116982885D02*
X263207544Y-117411457D01*
X263207544Y-117411457D02*
X263350401Y-117697171D01*
X263350401Y-117697171D02*
X263493258Y-117840028D01*
X263493258Y-117840028D02*
X263778973Y-117982885D01*
X263778973Y-117982885D02*
X264921830Y-117982885D01*
X261921830Y-119411457D02*
X261921830Y-116411457D01*
X260636116Y-119411457D02*
X260636116Y-117840028D01*
X260636116Y-117840028D02*
X260778973Y-117554314D01*
X260778973Y-117554314D02*
X261064687Y-117411457D01*
X261064687Y-117411457D02*
X261493258Y-117411457D01*
X261493258Y-117411457D02*
X261778973Y-117554314D01*
X261778973Y-117554314D02*
X261921830Y-117697171D01*
X258778972Y-119411457D02*
X259064687Y-119268600D01*
X259064687Y-119268600D02*
X259207544Y-119125742D01*
X259207544Y-119125742D02*
X259350401Y-118840028D01*
X259350401Y-118840028D02*
X259350401Y-117982885D01*
X259350401Y-117982885D02*
X259207544Y-117697171D01*
X259207544Y-117697171D02*
X259064687Y-117554314D01*
X259064687Y-117554314D02*
X258778972Y-117411457D01*
X258778972Y-117411457D02*
X258350401Y-117411457D01*
X258350401Y-117411457D02*
X258064687Y-117554314D01*
X258064687Y-117554314D02*
X257921830Y-117697171D01*
X257921830Y-117697171D02*
X257778972Y-117982885D01*
X257778972Y-117982885D02*
X257778972Y-118840028D01*
X257778972Y-118840028D02*
X257921830Y-119125742D01*
X257921830Y-119125742D02*
X258064687Y-119268600D01*
X258064687Y-119268600D02*
X258350401Y-119411457D01*
X258350401Y-119411457D02*
X258778972Y-119411457D01*
X255350401Y-119268600D02*
X255636115Y-119411457D01*
X255636115Y-119411457D02*
X256207544Y-119411457D01*
X256207544Y-119411457D02*
X256493258Y-119268600D01*
X256493258Y-119268600D02*
X256636115Y-118982885D01*
X256636115Y-118982885D02*
X256636115Y-117840028D01*
X256636115Y-117840028D02*
X256493258Y-117554314D01*
X256493258Y-117554314D02*
X256207544Y-117411457D01*
X256207544Y-117411457D02*
X255636115Y-117411457D01*
X255636115Y-117411457D02*
X255350401Y-117554314D01*
X255350401Y-117554314D02*
X255207544Y-117840028D01*
X255207544Y-117840028D02*
X255207544Y-118125742D01*
X255207544Y-118125742D02*
X256636115Y-118411457D01*
X253921829Y-117411457D02*
X253921829Y-119411457D01*
X253921829Y-117697171D02*
X253778972Y-117554314D01*
X253778972Y-117554314D02*
X253493257Y-117411457D01*
X253493257Y-117411457D02*
X253064686Y-117411457D01*
X253064686Y-117411457D02*
X252778972Y-117554314D01*
X252778972Y-117554314D02*
X252636115Y-117840028D01*
X252636115Y-117840028D02*
X252636115Y-119411457D01*
X251207543Y-119411457D02*
X251207543Y-117411457D01*
X251207543Y-116411457D02*
X251350400Y-116554314D01*
X251350400Y-116554314D02*
X251207543Y-116697171D01*
X251207543Y-116697171D02*
X251064686Y-116554314D01*
X251064686Y-116554314D02*
X251207543Y-116411457D01*
X251207543Y-116411457D02*
X251207543Y-116697171D01*
X250064686Y-119411457D02*
X248493258Y-117411457D01*
X250064686Y-117411457D02*
X248493258Y-119411457D01*
X243493258Y-119411457D02*
X245207544Y-119411457D01*
X244350401Y-119411457D02*
X244350401Y-116411457D01*
X244350401Y-116411457D02*
X244636115Y-116840028D01*
X244636115Y-116840028D02*
X244921830Y-117125742D01*
X244921830Y-117125742D02*
X245207544Y-117268600D01*
X242207544Y-119125742D02*
X242064687Y-119268600D01*
X242064687Y-119268600D02*
X242207544Y-119411457D01*
X242207544Y-119411457D02*
X242350401Y-119268600D01*
X242350401Y-119268600D02*
X242207544Y-119125742D01*
X242207544Y-119125742D02*
X242207544Y-119411457D01*
X240207544Y-116411457D02*
X239921830Y-116411457D01*
X239921830Y-116411457D02*
X239636116Y-116554314D01*
X239636116Y-116554314D02*
X239493259Y-116697171D01*
X239493259Y-116697171D02*
X239350401Y-116982885D01*
X239350401Y-116982885D02*
X239207544Y-117554314D01*
X239207544Y-117554314D02*
X239207544Y-118268600D01*
X239207544Y-118268600D02*
X239350401Y-118840028D01*
X239350401Y-118840028D02*
X239493259Y-119125742D01*
X239493259Y-119125742D02*
X239636116Y-119268600D01*
X239636116Y-119268600D02*
X239921830Y-119411457D01*
X239921830Y-119411457D02*
X240207544Y-119411457D01*
X240207544Y-119411457D02*
X240493259Y-119268600D01*
X240493259Y-119268600D02*
X240636116Y-119125742D01*
X240636116Y-119125742D02*
X240778973Y-118840028D01*
X240778973Y-118840028D02*
X240921830Y-118268600D01*
X240921830Y-118268600D02*
X240921830Y-117554314D01*
X240921830Y-117554314D02*
X240778973Y-116982885D01*
X240778973Y-116982885D02*
X240636116Y-116697171D01*
X240636116Y-116697171D02*
X240493259Y-116554314D01*
X240493259Y-116554314D02*
X240207544Y-116411457D01*
D11*
X265042983Y-121536223D02*
X264662030Y-121536223D01*
X265119173Y-121764795D02*
X264852506Y-120964795D01*
X264852506Y-120964795D02*
X264585840Y-121764795D01*
X264319173Y-121231461D02*
X264319173Y-121764795D01*
X264319173Y-121307652D02*
X264281078Y-121269557D01*
X264281078Y-121269557D02*
X264204888Y-121231461D01*
X264204888Y-121231461D02*
X264090602Y-121231461D01*
X264090602Y-121231461D02*
X264014411Y-121269557D01*
X264014411Y-121269557D02*
X263976316Y-121345747D01*
X263976316Y-121345747D02*
X263976316Y-121764795D01*
X263595363Y-121231461D02*
X263595363Y-121764795D01*
X263595363Y-121307652D02*
X263557268Y-121269557D01*
X263557268Y-121269557D02*
X263481078Y-121231461D01*
X263481078Y-121231461D02*
X263366792Y-121231461D01*
X263366792Y-121231461D02*
X263290601Y-121269557D01*
X263290601Y-121269557D02*
X263252506Y-121345747D01*
X263252506Y-121345747D02*
X263252506Y-121764795D01*
X262528696Y-121764795D02*
X262528696Y-121345747D01*
X262528696Y-121345747D02*
X262566791Y-121269557D01*
X262566791Y-121269557D02*
X262642982Y-121231461D01*
X262642982Y-121231461D02*
X262795363Y-121231461D01*
X262795363Y-121231461D02*
X262871553Y-121269557D01*
X262528696Y-121726700D02*
X262604887Y-121764795D01*
X262604887Y-121764795D02*
X262795363Y-121764795D01*
X262795363Y-121764795D02*
X262871553Y-121726700D01*
X262871553Y-121726700D02*
X262909649Y-121650509D01*
X262909649Y-121650509D02*
X262909649Y-121574319D01*
X262909649Y-121574319D02*
X262871553Y-121498128D01*
X262871553Y-121498128D02*
X262795363Y-121460033D01*
X262795363Y-121460033D02*
X262604887Y-121460033D01*
X262604887Y-121460033D02*
X262528696Y-121421938D01*
X262147743Y-121764795D02*
X262147743Y-120964795D01*
X262147743Y-121269557D02*
X262071553Y-121231461D01*
X262071553Y-121231461D02*
X261919172Y-121231461D01*
X261919172Y-121231461D02*
X261842981Y-121269557D01*
X261842981Y-121269557D02*
X261804886Y-121307652D01*
X261804886Y-121307652D02*
X261766791Y-121383842D01*
X261766791Y-121383842D02*
X261766791Y-121612414D01*
X261766791Y-121612414D02*
X261804886Y-121688604D01*
X261804886Y-121688604D02*
X261842981Y-121726700D01*
X261842981Y-121726700D02*
X261919172Y-121764795D01*
X261919172Y-121764795D02*
X262071553Y-121764795D01*
X262071553Y-121764795D02*
X262147743Y-121726700D01*
X261119171Y-121726700D02*
X261195362Y-121764795D01*
X261195362Y-121764795D02*
X261347743Y-121764795D01*
X261347743Y-121764795D02*
X261423933Y-121726700D01*
X261423933Y-121726700D02*
X261462029Y-121650509D01*
X261462029Y-121650509D02*
X261462029Y-121345747D01*
X261462029Y-121345747D02*
X261423933Y-121269557D01*
X261423933Y-121269557D02*
X261347743Y-121231461D01*
X261347743Y-121231461D02*
X261195362Y-121231461D01*
X261195362Y-121231461D02*
X261119171Y-121269557D01*
X261119171Y-121269557D02*
X261081076Y-121345747D01*
X261081076Y-121345747D02*
X261081076Y-121421938D01*
X261081076Y-121421938D02*
X261462029Y-121498128D01*
X260623934Y-121764795D02*
X260700124Y-121726700D01*
X260700124Y-121726700D02*
X260738219Y-121650509D01*
X260738219Y-121650509D02*
X260738219Y-120964795D01*
X260204886Y-121764795D02*
X260281076Y-121726700D01*
X260281076Y-121726700D02*
X260319171Y-121650509D01*
X260319171Y-121650509D02*
X260319171Y-120964795D01*
X259595361Y-121726700D02*
X259671552Y-121764795D01*
X259671552Y-121764795D02*
X259823933Y-121764795D01*
X259823933Y-121764795D02*
X259900123Y-121726700D01*
X259900123Y-121726700D02*
X259938219Y-121650509D01*
X259938219Y-121650509D02*
X259938219Y-121345747D01*
X259938219Y-121345747D02*
X259900123Y-121269557D01*
X259900123Y-121269557D02*
X259823933Y-121231461D01*
X259823933Y-121231461D02*
X259671552Y-121231461D01*
X259671552Y-121231461D02*
X259595361Y-121269557D01*
X259595361Y-121269557D02*
X259557266Y-121345747D01*
X259557266Y-121345747D02*
X259557266Y-121421938D01*
X259557266Y-121421938D02*
X259938219Y-121498128D01*
X258376314Y-120964795D02*
X258376314Y-121536223D01*
X258376314Y-121536223D02*
X258414409Y-121650509D01*
X258414409Y-121650509D02*
X258490600Y-121726700D01*
X258490600Y-121726700D02*
X258604885Y-121764795D01*
X258604885Y-121764795D02*
X258681076Y-121764795D01*
X257652504Y-121764795D02*
X257652504Y-121345747D01*
X257652504Y-121345747D02*
X257690599Y-121269557D01*
X257690599Y-121269557D02*
X257766790Y-121231461D01*
X257766790Y-121231461D02*
X257919171Y-121231461D01*
X257919171Y-121231461D02*
X257995361Y-121269557D01*
X257652504Y-121726700D02*
X257728695Y-121764795D01*
X257728695Y-121764795D02*
X257919171Y-121764795D01*
X257919171Y-121764795D02*
X257995361Y-121726700D01*
X257995361Y-121726700D02*
X258033457Y-121650509D01*
X258033457Y-121650509D02*
X258033457Y-121574319D01*
X258033457Y-121574319D02*
X257995361Y-121498128D01*
X257995361Y-121498128D02*
X257919171Y-121460033D01*
X257919171Y-121460033D02*
X257728695Y-121460033D01*
X257728695Y-121460033D02*
X257652504Y-121421938D01*
X257347742Y-121231461D02*
X257157266Y-121764795D01*
X256966789Y-121231461D02*
X257157266Y-121764795D01*
X257157266Y-121764795D02*
X257233456Y-121955271D01*
X257233456Y-121955271D02*
X257271551Y-121993366D01*
X257271551Y-121993366D02*
X257347742Y-122031461D01*
X256319170Y-121764795D02*
X256319170Y-121345747D01*
X256319170Y-121345747D02*
X256357265Y-121269557D01*
X256357265Y-121269557D02*
X256433456Y-121231461D01*
X256433456Y-121231461D02*
X256585837Y-121231461D01*
X256585837Y-121231461D02*
X256662027Y-121269557D01*
X256319170Y-121726700D02*
X256395361Y-121764795D01*
X256395361Y-121764795D02*
X256585837Y-121764795D01*
X256585837Y-121764795D02*
X256662027Y-121726700D01*
X256662027Y-121726700D02*
X256700123Y-121650509D01*
X256700123Y-121650509D02*
X256700123Y-121574319D01*
X256700123Y-121574319D02*
X256662027Y-121498128D01*
X256662027Y-121498128D02*
X256585837Y-121460033D01*
X256585837Y-121460033D02*
X256395361Y-121460033D01*
X256395361Y-121460033D02*
X256319170Y-121421938D01*
X255595360Y-121764795D02*
X255595360Y-120964795D01*
X255595360Y-121726700D02*
X255671551Y-121764795D01*
X255671551Y-121764795D02*
X255823932Y-121764795D01*
X255823932Y-121764795D02*
X255900122Y-121726700D01*
X255900122Y-121726700D02*
X255938217Y-121688604D01*
X255938217Y-121688604D02*
X255976313Y-121612414D01*
X255976313Y-121612414D02*
X255976313Y-121383842D01*
X255976313Y-121383842D02*
X255938217Y-121307652D01*
X255938217Y-121307652D02*
X255900122Y-121269557D01*
X255900122Y-121269557D02*
X255823932Y-121231461D01*
X255823932Y-121231461D02*
X255671551Y-121231461D01*
X255671551Y-121231461D02*
X255595360Y-121269557D01*
X255214407Y-121764795D02*
X255214407Y-121231461D01*
X255214407Y-120964795D02*
X255252503Y-121002890D01*
X255252503Y-121002890D02*
X255214407Y-121040985D01*
X255214407Y-121040985D02*
X255176312Y-121002890D01*
X255176312Y-121002890D02*
X255214407Y-120964795D01*
X255214407Y-120964795D02*
X255214407Y-121040985D01*
X254833455Y-121231461D02*
X254833455Y-121764795D01*
X254833455Y-121307652D02*
X254795360Y-121269557D01*
X254795360Y-121269557D02*
X254719170Y-121231461D01*
X254719170Y-121231461D02*
X254604884Y-121231461D01*
X254604884Y-121231461D02*
X254528693Y-121269557D01*
X254528693Y-121269557D02*
X254490598Y-121345747D01*
X254490598Y-121345747D02*
X254490598Y-121764795D01*
X253766788Y-121764795D02*
X253766788Y-121345747D01*
X253766788Y-121345747D02*
X253804883Y-121269557D01*
X253804883Y-121269557D02*
X253881074Y-121231461D01*
X253881074Y-121231461D02*
X254033455Y-121231461D01*
X254033455Y-121231461D02*
X254109645Y-121269557D01*
X253766788Y-121726700D02*
X253842979Y-121764795D01*
X253842979Y-121764795D02*
X254033455Y-121764795D01*
X254033455Y-121764795D02*
X254109645Y-121726700D01*
X254109645Y-121726700D02*
X254147741Y-121650509D01*
X254147741Y-121650509D02*
X254147741Y-121574319D01*
X254147741Y-121574319D02*
X254109645Y-121498128D01*
X254109645Y-121498128D02*
X254033455Y-121460033D01*
X254033455Y-121460033D02*
X253842979Y-121460033D01*
X253842979Y-121460033D02*
X253766788Y-121421938D01*
X253500121Y-121231461D02*
X253195359Y-121231461D01*
X253385835Y-120964795D02*
X253385835Y-121650509D01*
X253385835Y-121650509D02*
X253347740Y-121726700D01*
X253347740Y-121726700D02*
X253271550Y-121764795D01*
X253271550Y-121764795D02*
X253195359Y-121764795D01*
X252585835Y-121764795D02*
X252585835Y-121345747D01*
X252585835Y-121345747D02*
X252623930Y-121269557D01*
X252623930Y-121269557D02*
X252700121Y-121231461D01*
X252700121Y-121231461D02*
X252852502Y-121231461D01*
X252852502Y-121231461D02*
X252928692Y-121269557D01*
X252585835Y-121726700D02*
X252662026Y-121764795D01*
X252662026Y-121764795D02*
X252852502Y-121764795D01*
X252852502Y-121764795D02*
X252928692Y-121726700D01*
X252928692Y-121726700D02*
X252966788Y-121650509D01*
X252966788Y-121650509D02*
X252966788Y-121574319D01*
X252966788Y-121574319D02*
X252928692Y-121498128D01*
X252928692Y-121498128D02*
X252852502Y-121460033D01*
X252852502Y-121460033D02*
X252662026Y-121460033D01*
X252662026Y-121460033D02*
X252585835Y-121421938D01*
X252166787Y-121726700D02*
X252166787Y-121764795D01*
X252166787Y-121764795D02*
X252204882Y-121840985D01*
X252204882Y-121840985D02*
X252242978Y-121879080D01*
X251252502Y-121726700D02*
X251138216Y-121764795D01*
X251138216Y-121764795D02*
X250947740Y-121764795D01*
X250947740Y-121764795D02*
X250871549Y-121726700D01*
X250871549Y-121726700D02*
X250833454Y-121688604D01*
X250833454Y-121688604D02*
X250795359Y-121612414D01*
X250795359Y-121612414D02*
X250795359Y-121536223D01*
X250795359Y-121536223D02*
X250833454Y-121460033D01*
X250833454Y-121460033D02*
X250871549Y-121421938D01*
X250871549Y-121421938D02*
X250947740Y-121383842D01*
X250947740Y-121383842D02*
X251100121Y-121345747D01*
X251100121Y-121345747D02*
X251176311Y-121307652D01*
X251176311Y-121307652D02*
X251214406Y-121269557D01*
X251214406Y-121269557D02*
X251252502Y-121193366D01*
X251252502Y-121193366D02*
X251252502Y-121117176D01*
X251252502Y-121117176D02*
X251214406Y-121040985D01*
X251214406Y-121040985D02*
X251176311Y-121002890D01*
X251176311Y-121002890D02*
X251100121Y-120964795D01*
X251100121Y-120964795D02*
X250909644Y-120964795D01*
X250909644Y-120964795D02*
X250795359Y-121002890D01*
X250109644Y-121764795D02*
X250109644Y-121345747D01*
X250109644Y-121345747D02*
X250147739Y-121269557D01*
X250147739Y-121269557D02*
X250223930Y-121231461D01*
X250223930Y-121231461D02*
X250376311Y-121231461D01*
X250376311Y-121231461D02*
X250452501Y-121269557D01*
X250109644Y-121726700D02*
X250185835Y-121764795D01*
X250185835Y-121764795D02*
X250376311Y-121764795D01*
X250376311Y-121764795D02*
X250452501Y-121726700D01*
X250452501Y-121726700D02*
X250490597Y-121650509D01*
X250490597Y-121650509D02*
X250490597Y-121574319D01*
X250490597Y-121574319D02*
X250452501Y-121498128D01*
X250452501Y-121498128D02*
X250376311Y-121460033D01*
X250376311Y-121460033D02*
X250185835Y-121460033D01*
X250185835Y-121460033D02*
X250109644Y-121421938D01*
X249728691Y-121764795D02*
X249728691Y-121231461D01*
X249728691Y-121307652D02*
X249690596Y-121269557D01*
X249690596Y-121269557D02*
X249614406Y-121231461D01*
X249614406Y-121231461D02*
X249500120Y-121231461D01*
X249500120Y-121231461D02*
X249423929Y-121269557D01*
X249423929Y-121269557D02*
X249385834Y-121345747D01*
X249385834Y-121345747D02*
X249385834Y-121764795D01*
X249385834Y-121345747D02*
X249347739Y-121269557D01*
X249347739Y-121269557D02*
X249271548Y-121231461D01*
X249271548Y-121231461D02*
X249157263Y-121231461D01*
X249157263Y-121231461D02*
X249081072Y-121269557D01*
X249081072Y-121269557D02*
X249042977Y-121345747D01*
X249042977Y-121345747D02*
X249042977Y-121764795D01*
X247595357Y-121688604D02*
X247633453Y-121726700D01*
X247633453Y-121726700D02*
X247747738Y-121764795D01*
X247747738Y-121764795D02*
X247823929Y-121764795D01*
X247823929Y-121764795D02*
X247938215Y-121726700D01*
X247938215Y-121726700D02*
X248014405Y-121650509D01*
X248014405Y-121650509D02*
X248052500Y-121574319D01*
X248052500Y-121574319D02*
X248090596Y-121421938D01*
X248090596Y-121421938D02*
X248090596Y-121307652D01*
X248090596Y-121307652D02*
X248052500Y-121155271D01*
X248052500Y-121155271D02*
X248014405Y-121079080D01*
X248014405Y-121079080D02*
X247938215Y-121002890D01*
X247938215Y-121002890D02*
X247823929Y-120964795D01*
X247823929Y-120964795D02*
X247747738Y-120964795D01*
X247747738Y-120964795D02*
X247633453Y-121002890D01*
X247633453Y-121002890D02*
X247595357Y-121040985D01*
X247252500Y-121764795D02*
X247252500Y-120964795D01*
X246909643Y-121764795D02*
X246909643Y-121345747D01*
X246909643Y-121345747D02*
X246947738Y-121269557D01*
X246947738Y-121269557D02*
X247023929Y-121231461D01*
X247023929Y-121231461D02*
X247138215Y-121231461D01*
X247138215Y-121231461D02*
X247214405Y-121269557D01*
X247214405Y-121269557D02*
X247252500Y-121307652D01*
X246223928Y-121726700D02*
X246300119Y-121764795D01*
X246300119Y-121764795D02*
X246452500Y-121764795D01*
X246452500Y-121764795D02*
X246528690Y-121726700D01*
X246528690Y-121726700D02*
X246566786Y-121650509D01*
X246566786Y-121650509D02*
X246566786Y-121345747D01*
X246566786Y-121345747D02*
X246528690Y-121269557D01*
X246528690Y-121269557D02*
X246452500Y-121231461D01*
X246452500Y-121231461D02*
X246300119Y-121231461D01*
X246300119Y-121231461D02*
X246223928Y-121269557D01*
X246223928Y-121269557D02*
X246185833Y-121345747D01*
X246185833Y-121345747D02*
X246185833Y-121421938D01*
X246185833Y-121421938D02*
X246566786Y-121498128D01*
X245842976Y-121231461D02*
X245842976Y-121764795D01*
X245842976Y-121307652D02*
X245804881Y-121269557D01*
X245804881Y-121269557D02*
X245728691Y-121231461D01*
X245728691Y-121231461D02*
X245614405Y-121231461D01*
X245614405Y-121231461D02*
X245538214Y-121269557D01*
X245538214Y-121269557D02*
X245500119Y-121345747D01*
X245500119Y-121345747D02*
X245500119Y-121764795D01*
X245081071Y-121726700D02*
X245081071Y-121764795D01*
X245081071Y-121764795D02*
X245119166Y-121840985D01*
X245119166Y-121840985D02*
X245157262Y-121879080D01*
X244128690Y-121345747D02*
X243862024Y-121345747D01*
X243747738Y-121764795D02*
X244128690Y-121764795D01*
X244128690Y-121764795D02*
X244128690Y-120964795D01*
X244128690Y-120964795D02*
X243747738Y-120964795D01*
X243519166Y-121231461D02*
X243214404Y-121231461D01*
X243404880Y-120964795D02*
X243404880Y-121650509D01*
X243404880Y-121650509D02*
X243366785Y-121726700D01*
X243366785Y-121726700D02*
X243290595Y-121764795D01*
X243290595Y-121764795D02*
X243214404Y-121764795D01*
X242947737Y-121764795D02*
X242947737Y-120964795D01*
X242604880Y-121764795D02*
X242604880Y-121345747D01*
X242604880Y-121345747D02*
X242642975Y-121269557D01*
X242642975Y-121269557D02*
X242719166Y-121231461D01*
X242719166Y-121231461D02*
X242833452Y-121231461D01*
X242833452Y-121231461D02*
X242909642Y-121269557D01*
X242909642Y-121269557D02*
X242947737Y-121307652D01*
X241881070Y-121764795D02*
X241881070Y-121345747D01*
X241881070Y-121345747D02*
X241919165Y-121269557D01*
X241919165Y-121269557D02*
X241995356Y-121231461D01*
X241995356Y-121231461D02*
X242147737Y-121231461D01*
X242147737Y-121231461D02*
X242223927Y-121269557D01*
X241881070Y-121726700D02*
X241957261Y-121764795D01*
X241957261Y-121764795D02*
X242147737Y-121764795D01*
X242147737Y-121764795D02*
X242223927Y-121726700D01*
X242223927Y-121726700D02*
X242262023Y-121650509D01*
X242262023Y-121650509D02*
X242262023Y-121574319D01*
X242262023Y-121574319D02*
X242223927Y-121498128D01*
X242223927Y-121498128D02*
X242147737Y-121460033D01*
X242147737Y-121460033D02*
X241957261Y-121460033D01*
X241957261Y-121460033D02*
X241881070Y-121421938D01*
X241500117Y-121231461D02*
X241500117Y-121764795D01*
X241500117Y-121307652D02*
X241462022Y-121269557D01*
X241462022Y-121269557D02*
X241385832Y-121231461D01*
X241385832Y-121231461D02*
X241271546Y-121231461D01*
X241271546Y-121231461D02*
X241195355Y-121269557D01*
X241195355Y-121269557D02*
X241157260Y-121345747D01*
X241157260Y-121345747D02*
X241157260Y-121764795D01*
X239900117Y-121345747D02*
X239785831Y-121383842D01*
X239785831Y-121383842D02*
X239747736Y-121421938D01*
X239747736Y-121421938D02*
X239709640Y-121498128D01*
X239709640Y-121498128D02*
X239709640Y-121612414D01*
X239709640Y-121612414D02*
X239747736Y-121688604D01*
X239747736Y-121688604D02*
X239785831Y-121726700D01*
X239785831Y-121726700D02*
X239862021Y-121764795D01*
X239862021Y-121764795D02*
X240166783Y-121764795D01*
X240166783Y-121764795D02*
X240166783Y-120964795D01*
X240166783Y-120964795D02*
X239900117Y-120964795D01*
X239900117Y-120964795D02*
X239823926Y-121002890D01*
X239823926Y-121002890D02*
X239785831Y-121040985D01*
X239785831Y-121040985D02*
X239747736Y-121117176D01*
X239747736Y-121117176D02*
X239747736Y-121193366D01*
X239747736Y-121193366D02*
X239785831Y-121269557D01*
X239785831Y-121269557D02*
X239823926Y-121307652D01*
X239823926Y-121307652D02*
X239900117Y-121345747D01*
X239900117Y-121345747D02*
X240166783Y-121345747D01*
X239366783Y-121764795D02*
X239366783Y-121231461D01*
X239366783Y-121383842D02*
X239328688Y-121307652D01*
X239328688Y-121307652D02*
X239290593Y-121269557D01*
X239290593Y-121269557D02*
X239214402Y-121231461D01*
X239214402Y-121231461D02*
X239138212Y-121231461D01*
X238871545Y-121764795D02*
X238871545Y-121231461D01*
X238871545Y-120964795D02*
X238909641Y-121002890D01*
X238909641Y-121002890D02*
X238871545Y-121040985D01*
X238871545Y-121040985D02*
X238833450Y-121002890D01*
X238833450Y-121002890D02*
X238871545Y-120964795D01*
X238871545Y-120964795D02*
X238871545Y-121040985D01*
X238490593Y-121231461D02*
X238490593Y-121764795D01*
X238490593Y-121307652D02*
X238452498Y-121269557D01*
X238452498Y-121269557D02*
X238376308Y-121231461D01*
X238376308Y-121231461D02*
X238262022Y-121231461D01*
X238262022Y-121231461D02*
X238185831Y-121269557D01*
X238185831Y-121269557D02*
X238147736Y-121345747D01*
X238147736Y-121345747D02*
X238147736Y-121764795D01*
X237804879Y-121726700D02*
X237728688Y-121764795D01*
X237728688Y-121764795D02*
X237576307Y-121764795D01*
X237576307Y-121764795D02*
X237500117Y-121726700D01*
X237500117Y-121726700D02*
X237462021Y-121650509D01*
X237462021Y-121650509D02*
X237462021Y-121612414D01*
X237462021Y-121612414D02*
X237500117Y-121536223D01*
X237500117Y-121536223D02*
X237576307Y-121498128D01*
X237576307Y-121498128D02*
X237690593Y-121498128D01*
X237690593Y-121498128D02*
X237766783Y-121460033D01*
X237766783Y-121460033D02*
X237804879Y-121383842D01*
X237804879Y-121383842D02*
X237804879Y-121345747D01*
X237804879Y-121345747D02*
X237766783Y-121269557D01*
X237766783Y-121269557D02*
X237690593Y-121231461D01*
X237690593Y-121231461D02*
X237576307Y-121231461D01*
X237576307Y-121231461D02*
X237500117Y-121269557D01*
X236814402Y-121726700D02*
X236890593Y-121764795D01*
X236890593Y-121764795D02*
X237042974Y-121764795D01*
X237042974Y-121764795D02*
X237119164Y-121726700D01*
X237119164Y-121726700D02*
X237157260Y-121650509D01*
X237157260Y-121650509D02*
X237157260Y-121345747D01*
X237157260Y-121345747D02*
X237119164Y-121269557D01*
X237119164Y-121269557D02*
X237042974Y-121231461D01*
X237042974Y-121231461D02*
X236890593Y-121231461D01*
X236890593Y-121231461D02*
X236814402Y-121269557D01*
X236814402Y-121269557D02*
X236776307Y-121345747D01*
X236776307Y-121345747D02*
X236776307Y-121421938D01*
X236776307Y-121421938D02*
X237157260Y-121498128D01*
X236433450Y-121764795D02*
X236433450Y-121231461D01*
X236433450Y-121383842D02*
X236395355Y-121307652D01*
X236395355Y-121307652D02*
X236357260Y-121269557D01*
X236357260Y-121269557D02*
X236281069Y-121231461D01*
X236281069Y-121231461D02*
X236204879Y-121231461D01*
X235900117Y-121726700D02*
X235900117Y-121764795D01*
X235900117Y-121764795D02*
X235938212Y-121840985D01*
X235938212Y-121840985D02*
X235976308Y-121879080D01*
X235062022Y-120964795D02*
X234795355Y-121764795D01*
X234795355Y-121764795D02*
X234528689Y-120964795D01*
X234262022Y-121764795D02*
X234262022Y-121231461D01*
X234262022Y-120964795D02*
X234300118Y-121002890D01*
X234300118Y-121002890D02*
X234262022Y-121040985D01*
X234262022Y-121040985D02*
X234223927Y-121002890D01*
X234223927Y-121002890D02*
X234262022Y-120964795D01*
X234262022Y-120964795D02*
X234262022Y-121040985D01*
X233538213Y-121726700D02*
X233614404Y-121764795D01*
X233614404Y-121764795D02*
X233766785Y-121764795D01*
X233766785Y-121764795D02*
X233842975Y-121726700D01*
X233842975Y-121726700D02*
X233881070Y-121688604D01*
X233881070Y-121688604D02*
X233919166Y-121612414D01*
X233919166Y-121612414D02*
X233919166Y-121383842D01*
X233919166Y-121383842D02*
X233881070Y-121307652D01*
X233881070Y-121307652D02*
X233842975Y-121269557D01*
X233842975Y-121269557D02*
X233766785Y-121231461D01*
X233766785Y-121231461D02*
X233614404Y-121231461D01*
X233614404Y-121231461D02*
X233538213Y-121269557D01*
X233309642Y-121231461D02*
X233004880Y-121231461D01*
X233195356Y-120964795D02*
X233195356Y-121650509D01*
X233195356Y-121650509D02*
X233157261Y-121726700D01*
X233157261Y-121726700D02*
X233081071Y-121764795D01*
X233081071Y-121764795D02*
X233004880Y-121764795D01*
X232623928Y-121764795D02*
X232700118Y-121726700D01*
X232700118Y-121726700D02*
X232738213Y-121688604D01*
X232738213Y-121688604D02*
X232776309Y-121612414D01*
X232776309Y-121612414D02*
X232776309Y-121383842D01*
X232776309Y-121383842D02*
X232738213Y-121307652D01*
X232738213Y-121307652D02*
X232700118Y-121269557D01*
X232700118Y-121269557D02*
X232623928Y-121231461D01*
X232623928Y-121231461D02*
X232509642Y-121231461D01*
X232509642Y-121231461D02*
X232433451Y-121269557D01*
X232433451Y-121269557D02*
X232395356Y-121307652D01*
X232395356Y-121307652D02*
X232357261Y-121383842D01*
X232357261Y-121383842D02*
X232357261Y-121612414D01*
X232357261Y-121612414D02*
X232395356Y-121688604D01*
X232395356Y-121688604D02*
X232433451Y-121726700D01*
X232433451Y-121726700D02*
X232509642Y-121764795D01*
X232509642Y-121764795D02*
X232623928Y-121764795D01*
X232014403Y-121764795D02*
X232014403Y-121231461D01*
X232014403Y-121383842D02*
X231976308Y-121307652D01*
X231976308Y-121307652D02*
X231938213Y-121269557D01*
X231938213Y-121269557D02*
X231862022Y-121231461D01*
X231862022Y-121231461D02*
X231785832Y-121231461D01*
X230909641Y-121764795D02*
X230909641Y-120964795D01*
X230909641Y-121345747D02*
X230452498Y-121345747D01*
X230452498Y-121764795D02*
X230452498Y-120964795D01*
X229728689Y-121231461D02*
X229728689Y-121764795D01*
X230071546Y-121231461D02*
X230071546Y-121650509D01*
X230071546Y-121650509D02*
X230033451Y-121726700D01*
X230033451Y-121726700D02*
X229957261Y-121764795D01*
X229957261Y-121764795D02*
X229842975Y-121764795D01*
X229842975Y-121764795D02*
X229766784Y-121726700D01*
X229766784Y-121726700D02*
X229728689Y-121688604D01*
X229423927Y-121231461D02*
X229233451Y-121764795D01*
X229042974Y-121231461D02*
X229233451Y-121764795D01*
X229233451Y-121764795D02*
X229309641Y-121955271D01*
X229309641Y-121955271D02*
X229347736Y-121993366D01*
X229347736Y-121993366D02*
X229423927Y-122031461D01*
X228738212Y-121231461D02*
X228738212Y-121764795D01*
X228738212Y-121307652D02*
X228700117Y-121269557D01*
X228700117Y-121269557D02*
X228623927Y-121231461D01*
X228623927Y-121231461D02*
X228509641Y-121231461D01*
X228509641Y-121231461D02*
X228433450Y-121269557D01*
X228433450Y-121269557D02*
X228395355Y-121345747D01*
X228395355Y-121345747D02*
X228395355Y-121764795D01*
X228014402Y-121764795D02*
X228014402Y-120964795D01*
X227671545Y-121764795D02*
X227671545Y-121345747D01*
X227671545Y-121345747D02*
X227709640Y-121269557D01*
X227709640Y-121269557D02*
X227785831Y-121231461D01*
X227785831Y-121231461D02*
X227900117Y-121231461D01*
X227900117Y-121231461D02*
X227976307Y-121269557D01*
X227976307Y-121269557D02*
X228014402Y-121307652D01*
D10*
X195413214Y-79306009D02*
X195270357Y-79353628D01*
X195270357Y-79353628D02*
X195222738Y-79401247D01*
X195222738Y-79401247D02*
X195175119Y-79496485D01*
X195175119Y-79496485D02*
X195175119Y-79639342D01*
X195175119Y-79639342D02*
X195222738Y-79734580D01*
X195222738Y-79734580D02*
X195270357Y-79782200D01*
X195270357Y-79782200D02*
X195365595Y-79829819D01*
X195365595Y-79829819D02*
X195746547Y-79829819D01*
X195746547Y-79829819D02*
X195746547Y-78829819D01*
X195746547Y-78829819D02*
X195413214Y-78829819D01*
X195413214Y-78829819D02*
X195317976Y-78877438D01*
X195317976Y-78877438D02*
X195270357Y-78925057D01*
X195270357Y-78925057D02*
X195222738Y-79020295D01*
X195222738Y-79020295D02*
X195222738Y-79115533D01*
X195222738Y-79115533D02*
X195270357Y-79210771D01*
X195270357Y-79210771D02*
X195317976Y-79258390D01*
X195317976Y-79258390D02*
X195413214Y-79306009D01*
X195413214Y-79306009D02*
X195746547Y-79306009D01*
X194889404Y-78829819D02*
X194317976Y-78829819D01*
X194603690Y-79829819D02*
X194603690Y-78829819D01*
X194032261Y-78925057D02*
X193984642Y-78877438D01*
X193984642Y-78877438D02*
X193889404Y-78829819D01*
X193889404Y-78829819D02*
X193651309Y-78829819D01*
X193651309Y-78829819D02*
X193556071Y-78877438D01*
X193556071Y-78877438D02*
X193508452Y-78925057D01*
X193508452Y-78925057D02*
X193460833Y-79020295D01*
X193460833Y-79020295D02*
X193460833Y-79115533D01*
X193460833Y-79115533D02*
X193508452Y-79258390D01*
X193508452Y-79258390D02*
X194079880Y-79829819D01*
X194079880Y-79829819D02*
X193460833Y-79829819D01*
X203810180Y-113490237D02*
X203810180Y-112871190D01*
X203810180Y-112871190D02*
X203429228Y-113204523D01*
X203429228Y-113204523D02*
X203429228Y-113061666D01*
X203429228Y-113061666D02*
X203381609Y-112966428D01*
X203381609Y-112966428D02*
X203333990Y-112918809D01*
X203333990Y-112918809D02*
X203238752Y-112871190D01*
X203238752Y-112871190D02*
X203000657Y-112871190D01*
X203000657Y-112871190D02*
X202905419Y-112918809D01*
X202905419Y-112918809D02*
X202857800Y-112966428D01*
X202857800Y-112966428D02*
X202810180Y-113061666D01*
X202810180Y-113061666D02*
X202810180Y-113347380D01*
X202810180Y-113347380D02*
X202857800Y-113442618D01*
X202857800Y-113442618D02*
X202905419Y-113490237D01*
X202810180Y-112442618D02*
X203476847Y-112442618D01*
X203286371Y-112442618D02*
X203381609Y-112394999D01*
X203381609Y-112394999D02*
X203429228Y-112347380D01*
X203429228Y-112347380D02*
X203476847Y-112252142D01*
X203476847Y-112252142D02*
X203476847Y-112156904D01*
X202810180Y-111394999D02*
X203810180Y-111394999D01*
X202857800Y-111394999D02*
X202810180Y-111490237D01*
X202810180Y-111490237D02*
X202810180Y-111680713D01*
X202810180Y-111680713D02*
X202857800Y-111775951D01*
X202857800Y-111775951D02*
X202905419Y-111823570D01*
X202905419Y-111823570D02*
X203000657Y-111871189D01*
X203000657Y-111871189D02*
X203286371Y-111871189D01*
X203286371Y-111871189D02*
X203381609Y-111823570D01*
X203381609Y-111823570D02*
X203429228Y-111775951D01*
X203429228Y-111775951D02*
X203476847Y-111680713D01*
X203476847Y-111680713D02*
X203476847Y-111490237D01*
X203476847Y-111490237D02*
X203429228Y-111394999D01*
X210015895Y-113537856D02*
X210015895Y-113061666D01*
X209730180Y-113633094D02*
X210730180Y-113299761D01*
X210730180Y-113299761D02*
X209730180Y-112966428D01*
X210396847Y-112633094D02*
X209396847Y-112633094D01*
X210349228Y-112633094D02*
X210396847Y-112537856D01*
X210396847Y-112537856D02*
X210396847Y-112347380D01*
X210396847Y-112347380D02*
X210349228Y-112252142D01*
X210349228Y-112252142D02*
X210301609Y-112204523D01*
X210301609Y-112204523D02*
X210206371Y-112156904D01*
X210206371Y-112156904D02*
X209920657Y-112156904D01*
X209920657Y-112156904D02*
X209825419Y-112204523D01*
X209825419Y-112204523D02*
X209777800Y-112252142D01*
X209777800Y-112252142D02*
X209730180Y-112347380D01*
X209730180Y-112347380D02*
X209730180Y-112537856D01*
X209730180Y-112537856D02*
X209777800Y-112633094D01*
X209730180Y-111585475D02*
X209777800Y-111680713D01*
X209777800Y-111680713D02*
X209825419Y-111728332D01*
X209825419Y-111728332D02*
X209920657Y-111775951D01*
X209920657Y-111775951D02*
X210206371Y-111775951D01*
X210206371Y-111775951D02*
X210301609Y-111728332D01*
X210301609Y-111728332D02*
X210349228Y-111680713D01*
X210349228Y-111680713D02*
X210396847Y-111585475D01*
X210396847Y-111585475D02*
X210396847Y-111442618D01*
X210396847Y-111442618D02*
X210349228Y-111347380D01*
X210349228Y-111347380D02*
X210301609Y-111299761D01*
X210301609Y-111299761D02*
X210206371Y-111252142D01*
X210206371Y-111252142D02*
X209920657Y-111252142D01*
X209920657Y-111252142D02*
X209825419Y-111299761D01*
X209825419Y-111299761D02*
X209777800Y-111347380D01*
X209777800Y-111347380D02*
X209730180Y-111442618D01*
X209730180Y-111442618D02*
X209730180Y-111585475D01*
X200236847Y-112942619D02*
X199570180Y-112942619D01*
X200617800Y-113180714D02*
X199903514Y-113418809D01*
X199903514Y-113418809D02*
X199903514Y-112799762D01*
X200236847Y-112561666D02*
X200236847Y-112180714D01*
X200570180Y-112418809D02*
X199713038Y-112418809D01*
X199713038Y-112418809D02*
X199617800Y-112371190D01*
X199617800Y-112371190D02*
X199570180Y-112275952D01*
X199570180Y-112275952D02*
X199570180Y-112180714D01*
X199570180Y-111847380D02*
X200570180Y-111847380D01*
X199570180Y-111418809D02*
X200093990Y-111418809D01*
X200093990Y-111418809D02*
X200189228Y-111466428D01*
X200189228Y-111466428D02*
X200236847Y-111561666D01*
X200236847Y-111561666D02*
X200236847Y-111704523D01*
X200236847Y-111704523D02*
X200189228Y-111799761D01*
X200189228Y-111799761D02*
X200141609Y-111847380D01*
X206190180Y-113871189D02*
X207190180Y-113871189D01*
X207190180Y-113871189D02*
X206475895Y-113537856D01*
X206475895Y-113537856D02*
X207190180Y-113204523D01*
X207190180Y-113204523D02*
X206190180Y-113204523D01*
X206190180Y-112299761D02*
X206713990Y-112299761D01*
X206713990Y-112299761D02*
X206809228Y-112347380D01*
X206809228Y-112347380D02*
X206856847Y-112442618D01*
X206856847Y-112442618D02*
X206856847Y-112633094D01*
X206856847Y-112633094D02*
X206809228Y-112728332D01*
X206237800Y-112299761D02*
X206190180Y-112394999D01*
X206190180Y-112394999D02*
X206190180Y-112633094D01*
X206190180Y-112633094D02*
X206237800Y-112728332D01*
X206237800Y-112728332D02*
X206333038Y-112775951D01*
X206333038Y-112775951D02*
X206428276Y-112775951D01*
X206428276Y-112775951D02*
X206523514Y-112728332D01*
X206523514Y-112728332D02*
X206571133Y-112633094D01*
X206571133Y-112633094D02*
X206571133Y-112394999D01*
X206571133Y-112394999D02*
X206618752Y-112299761D01*
X206190180Y-111823570D02*
X206856847Y-111823570D01*
X207190180Y-111823570D02*
X207142561Y-111871189D01*
X207142561Y-111871189D02*
X207094942Y-111823570D01*
X207094942Y-111823570D02*
X207142561Y-111775951D01*
X207142561Y-111775951D02*
X207190180Y-111823570D01*
X207190180Y-111823570D02*
X207094942Y-111823570D01*
X206856847Y-111347380D02*
X206190180Y-111347380D01*
X206761609Y-111347380D02*
X206809228Y-111299761D01*
X206809228Y-111299761D02*
X206856847Y-111204523D01*
X206856847Y-111204523D02*
X206856847Y-111061666D01*
X206856847Y-111061666D02*
X206809228Y-110966428D01*
X206809228Y-110966428D02*
X206713990Y-110918809D01*
X206713990Y-110918809D02*
X206190180Y-110918809D01*
X214222561Y-113037857D02*
X214270180Y-113133095D01*
X214270180Y-113133095D02*
X214270180Y-113275952D01*
X214270180Y-113275952D02*
X214222561Y-113418809D01*
X214222561Y-113418809D02*
X214127323Y-113514047D01*
X214127323Y-113514047D02*
X214032085Y-113561666D01*
X214032085Y-113561666D02*
X213841609Y-113609285D01*
X213841609Y-113609285D02*
X213698752Y-113609285D01*
X213698752Y-113609285D02*
X213508276Y-113561666D01*
X213508276Y-113561666D02*
X213413038Y-113514047D01*
X213413038Y-113514047D02*
X213317800Y-113418809D01*
X213317800Y-113418809D02*
X213270180Y-113275952D01*
X213270180Y-113275952D02*
X213270180Y-113180714D01*
X213270180Y-113180714D02*
X213317800Y-113037857D01*
X213317800Y-113037857D02*
X213365419Y-112990238D01*
X213365419Y-112990238D02*
X213698752Y-112990238D01*
X213698752Y-112990238D02*
X213698752Y-113180714D01*
X213936847Y-112561666D02*
X213270180Y-112561666D01*
X213841609Y-112561666D02*
X213889228Y-112514047D01*
X213889228Y-112514047D02*
X213936847Y-112418809D01*
X213936847Y-112418809D02*
X213936847Y-112275952D01*
X213936847Y-112275952D02*
X213889228Y-112180714D01*
X213889228Y-112180714D02*
X213793990Y-112133095D01*
X213793990Y-112133095D02*
X213270180Y-112133095D01*
X213270180Y-111228333D02*
X214270180Y-111228333D01*
X213317800Y-111228333D02*
X213270180Y-111323571D01*
X213270180Y-111323571D02*
X213270180Y-111514047D01*
X213270180Y-111514047D02*
X213317800Y-111609285D01*
X213317800Y-111609285D02*
X213365419Y-111656904D01*
X213365419Y-111656904D02*
X213460657Y-111704523D01*
X213460657Y-111704523D02*
X213746371Y-111704523D01*
X213746371Y-111704523D02*
X213841609Y-111656904D01*
X213841609Y-111656904D02*
X213889228Y-111609285D01*
X213889228Y-111609285D02*
X213936847Y-111514047D01*
X213936847Y-111514047D02*
X213936847Y-111323571D01*
X213936847Y-111323571D02*
X213889228Y-111228333D01*
X217191133Y-112775951D02*
X217191133Y-112014047D01*
X216810180Y-112394999D02*
X217572085Y-112394999D01*
D12*
X102847235Y-76916570D02*
X103180568Y-75916570D01*
X103180568Y-75916570D02*
X103513901Y-76916570D01*
X103847235Y-75916570D02*
X103847235Y-76916570D01*
X103847235Y-76916570D02*
X104085330Y-76916570D01*
X104085330Y-76916570D02*
X104228187Y-76868951D01*
X104228187Y-76868951D02*
X104323425Y-76773713D01*
X104323425Y-76773713D02*
X104371044Y-76678475D01*
X104371044Y-76678475D02*
X104418663Y-76487999D01*
X104418663Y-76487999D02*
X104418663Y-76345142D01*
X104418663Y-76345142D02*
X104371044Y-76154666D01*
X104371044Y-76154666D02*
X104323425Y-76059428D01*
X104323425Y-76059428D02*
X104228187Y-75964190D01*
X104228187Y-75964190D02*
X104085330Y-75916570D01*
X104085330Y-75916570D02*
X103847235Y-75916570D01*
X104847235Y-75916570D02*
X104847235Y-76916570D01*
X104847235Y-76916570D02*
X105085330Y-76916570D01*
X105085330Y-76916570D02*
X105228187Y-76868951D01*
X105228187Y-76868951D02*
X105323425Y-76773713D01*
X105323425Y-76773713D02*
X105371044Y-76678475D01*
X105371044Y-76678475D02*
X105418663Y-76487999D01*
X105418663Y-76487999D02*
X105418663Y-76345142D01*
X105418663Y-76345142D02*
X105371044Y-76154666D01*
X105371044Y-76154666D02*
X105323425Y-76059428D01*
X105323425Y-76059428D02*
X105228187Y-75964190D01*
X105228187Y-75964190D02*
X105085330Y-75916570D01*
X105085330Y-75916570D02*
X104847235Y-75916570D01*
X103322493Y-74325961D02*
X103227255Y-74373580D01*
X103227255Y-74373580D02*
X103084398Y-74373580D01*
X103084398Y-74373580D02*
X102941541Y-74325961D01*
X102941541Y-74325961D02*
X102846303Y-74230723D01*
X102846303Y-74230723D02*
X102798684Y-74135485D01*
X102798684Y-74135485D02*
X102751065Y-73945009D01*
X102751065Y-73945009D02*
X102751065Y-73802152D01*
X102751065Y-73802152D02*
X102798684Y-73611676D01*
X102798684Y-73611676D02*
X102846303Y-73516438D01*
X102846303Y-73516438D02*
X102941541Y-73421200D01*
X102941541Y-73421200D02*
X103084398Y-73373580D01*
X103084398Y-73373580D02*
X103179636Y-73373580D01*
X103179636Y-73373580D02*
X103322493Y-73421200D01*
X103322493Y-73421200D02*
X103370112Y-73468819D01*
X103370112Y-73468819D02*
X103370112Y-73802152D01*
X103370112Y-73802152D02*
X103179636Y-73802152D01*
X103798684Y-73373580D02*
X103798684Y-74373580D01*
X103798684Y-74373580D02*
X104370112Y-73373580D01*
X104370112Y-73373580D02*
X104370112Y-74373580D01*
X104846303Y-73373580D02*
X104846303Y-74373580D01*
X104846303Y-74373580D02*
X105084398Y-74373580D01*
X105084398Y-74373580D02*
X105227255Y-74325961D01*
X105227255Y-74325961D02*
X105322493Y-74230723D01*
X105322493Y-74230723D02*
X105370112Y-74135485D01*
X105370112Y-74135485D02*
X105417731Y-73945009D01*
X105417731Y-73945009D02*
X105417731Y-73802152D01*
X105417731Y-73802152D02*
X105370112Y-73611676D01*
X105370112Y-73611676D02*
X105322493Y-73516438D01*
X105322493Y-73516438D02*
X105227255Y-73421200D01*
X105227255Y-73421200D02*
X105084398Y-73373580D01*
X105084398Y-73373580D02*
X104846303Y-73373580D01*
X120548095Y-70162580D02*
X120548095Y-69353057D01*
X120548095Y-69353057D02*
X120595714Y-69257819D01*
X120595714Y-69257819D02*
X120643333Y-69210200D01*
X120643333Y-69210200D02*
X120738571Y-69162580D01*
X120738571Y-69162580D02*
X120929047Y-69162580D01*
X120929047Y-69162580D02*
X121024285Y-69210200D01*
X121024285Y-69210200D02*
X121071904Y-69257819D01*
X121071904Y-69257819D02*
X121119523Y-69353057D01*
X121119523Y-69353057D02*
X121119523Y-70162580D01*
X121548095Y-70067342D02*
X121595714Y-70114961D01*
X121595714Y-70114961D02*
X121690952Y-70162580D01*
X121690952Y-70162580D02*
X121929047Y-70162580D01*
X121929047Y-70162580D02*
X122024285Y-70114961D01*
X122024285Y-70114961D02*
X122071904Y-70067342D01*
X122071904Y-70067342D02*
X122119523Y-69972104D01*
X122119523Y-69972104D02*
X122119523Y-69876866D01*
X122119523Y-69876866D02*
X122071904Y-69734009D01*
X122071904Y-69734009D02*
X121500476Y-69162580D01*
X121500476Y-69162580D02*
X122119523Y-69162580D01*
X115804360Y-75247580D02*
X115994836Y-75247580D01*
X115994836Y-75247580D02*
X116090074Y-75199961D01*
X116090074Y-75199961D02*
X116185312Y-75104723D01*
X116185312Y-75104723D02*
X116232931Y-74914247D01*
X116232931Y-74914247D02*
X116232931Y-74580914D01*
X116232931Y-74580914D02*
X116185312Y-74390438D01*
X116185312Y-74390438D02*
X116090074Y-74295200D01*
X116090074Y-74295200D02*
X115994836Y-74247580D01*
X115994836Y-74247580D02*
X115804360Y-74247580D01*
X115804360Y-74247580D02*
X115709122Y-74295200D01*
X115709122Y-74295200D02*
X115613884Y-74390438D01*
X115613884Y-74390438D02*
X115566265Y-74580914D01*
X115566265Y-74580914D02*
X115566265Y-74914247D01*
X115566265Y-74914247D02*
X115613884Y-75104723D01*
X115613884Y-75104723D02*
X115709122Y-75199961D01*
X115709122Y-75199961D02*
X115804360Y-75247580D01*
X116661503Y-75247580D02*
X116661503Y-74438057D01*
X116661503Y-74438057D02*
X116709122Y-74342819D01*
X116709122Y-74342819D02*
X116756741Y-74295200D01*
X116756741Y-74295200D02*
X116851979Y-74247580D01*
X116851979Y-74247580D02*
X117042455Y-74247580D01*
X117042455Y-74247580D02*
X117137693Y-74295200D01*
X117137693Y-74295200D02*
X117185312Y-74342819D01*
X117185312Y-74342819D02*
X117232931Y-74438057D01*
X117232931Y-74438057D02*
X117232931Y-75247580D01*
X117566265Y-75247580D02*
X118137693Y-75247580D01*
X117851979Y-74247580D02*
X117851979Y-75247580D01*
D10*
X143929048Y-71046133D02*
X144690953Y-71046133D01*
X144310000Y-70665180D02*
X144310000Y-71427085D01*
X116929048Y-71046133D02*
X117690953Y-71046133D01*
X117310000Y-70665180D02*
X117310000Y-71427085D01*
X143929048Y-79546133D02*
X144690953Y-79546133D01*
D12*
X141607217Y-75581390D02*
X141750074Y-75533771D01*
X141750074Y-75533771D02*
X141797693Y-75486152D01*
X141797693Y-75486152D02*
X141845312Y-75390914D01*
X141845312Y-75390914D02*
X141845312Y-75248057D01*
X141845312Y-75248057D02*
X141797693Y-75152819D01*
X141797693Y-75152819D02*
X141750074Y-75105200D01*
X141750074Y-75105200D02*
X141654836Y-75057580D01*
X141654836Y-75057580D02*
X141273884Y-75057580D01*
X141273884Y-75057580D02*
X141273884Y-76057580D01*
X141273884Y-76057580D02*
X141607217Y-76057580D01*
X141607217Y-76057580D02*
X141702455Y-76009961D01*
X141702455Y-76009961D02*
X141750074Y-75962342D01*
X141750074Y-75962342D02*
X141797693Y-75867104D01*
X141797693Y-75867104D02*
X141797693Y-75771866D01*
X141797693Y-75771866D02*
X141750074Y-75676628D01*
X141750074Y-75676628D02*
X141702455Y-75629009D01*
X141702455Y-75629009D02*
X141607217Y-75581390D01*
X141607217Y-75581390D02*
X141273884Y-75581390D01*
X142226265Y-75343295D02*
X142702455Y-75343295D01*
X142131027Y-75057580D02*
X142464360Y-76057580D01*
X142464360Y-76057580D02*
X142797693Y-75057580D01*
X142988170Y-76057580D02*
X143559598Y-76057580D01*
X143273884Y-75057580D02*
X143273884Y-76057580D01*
X143750075Y-76057580D02*
X144321503Y-76057580D01*
X144035789Y-75057580D02*
X144035789Y-76057580D01*
D10*
X116929048Y-79546133D02*
X117690953Y-79546133D01*
X149786933Y-98567419D02*
X149786933Y-99281704D01*
X149786933Y-99281704D02*
X149834552Y-99424561D01*
X149834552Y-99424561D02*
X149929790Y-99519800D01*
X149929790Y-99519800D02*
X150072647Y-99567419D01*
X150072647Y-99567419D02*
X150167885Y-99567419D01*
X149358361Y-98662657D02*
X149310742Y-98615038D01*
X149310742Y-98615038D02*
X149215504Y-98567419D01*
X149215504Y-98567419D02*
X148977409Y-98567419D01*
X148977409Y-98567419D02*
X148882171Y-98615038D01*
X148882171Y-98615038D02*
X148834552Y-98662657D01*
X148834552Y-98662657D02*
X148786933Y-98757895D01*
X148786933Y-98757895D02*
X148786933Y-98853133D01*
X148786933Y-98853133D02*
X148834552Y-98995990D01*
X148834552Y-98995990D02*
X149405980Y-99567419D01*
X149405980Y-99567419D02*
X148786933Y-99567419D01*
D13*
X237985300Y-89827100D02*
X151269700Y-89827100D01*
X237985300Y-82946240D02*
X237985300Y-89827100D01*
X237985300Y-68922900D02*
X237985300Y-75803760D01*
X151269700Y-89827100D02*
X151269700Y-82946240D01*
X151269700Y-75803760D02*
X151269700Y-68922900D01*
X151269700Y-68922900D02*
X237985300Y-68922900D01*
D14*
X240144300Y-79375000D02*
G75*
G03*
X240144300Y-79375000I-381000J0D01*
G01*
D15*
X151765000Y-120015000D02*
X196748400Y-120015000D01*
X196748400Y-120015000D02*
X196748400Y-100015040D01*
X196748400Y-100015040D02*
X151765000Y-100015040D01*
X151765000Y-100015040D02*
X151765000Y-120015000D01*
D12*
X59314800Y-93566000D02*
X59314800Y-88486000D01*
X59314800Y-93566000D02*
X101478800Y-93566000D01*
X61092800Y-73246000D02*
X101478800Y-73246000D01*
X61092800Y-85184000D02*
X59314800Y-88486000D01*
X61092800Y-85184000D02*
X61092800Y-73246000D01*
X101478800Y-93566000D02*
X101478800Y-73246000D01*
D15*
X150783600Y-105742600D02*
X148123600Y-105742600D01*
X150783600Y-103142600D02*
X150783600Y-105742600D01*
X150783600Y-103142600D02*
X148123600Y-103142600D01*
X150783600Y-101442600D02*
X150783600Y-100112600D01*
X150783600Y-100112600D02*
X149453600Y-100112600D01*
X148123600Y-103142600D02*
X148123600Y-105742600D01*
G36*
X222308014Y-118424837D02*
G01*
X222311039Y-118425509D01*
X222339144Y-118434071D01*
X222373319Y-118447445D01*
X222409653Y-118463876D01*
X222444234Y-118481610D01*
X222473149Y-118498894D01*
X222478309Y-118502395D01*
X222526688Y-118543410D01*
X222566752Y-118593398D01*
X222597989Y-118651598D01*
X222619888Y-118717248D01*
X222623593Y-118731255D01*
X222641094Y-118778828D01*
X222665130Y-118819638D01*
X222668412Y-118824638D01*
X222670285Y-118832289D01*
X222662958Y-118833219D01*
X222646011Y-118827385D01*
X222619025Y-118814742D01*
X222580555Y-118790445D01*
X222538904Y-118751494D01*
X222500290Y-118701162D01*
X222465148Y-118639943D01*
X222461393Y-118632484D01*
X222432330Y-118578547D01*
X222404238Y-118534154D01*
X222375338Y-118496986D01*
X222343856Y-118464728D01*
X222308014Y-118435063D01*
X222289259Y-118420909D01*
X222308014Y-118424837D01*
G37*
G36*
X223642969Y-118177340D02*
G01*
X223645300Y-118177791D01*
X223695090Y-118192609D01*
X223739440Y-118216696D01*
X223779263Y-118250828D01*
X223815474Y-118295782D01*
X223848987Y-118352335D01*
X223850470Y-118355183D01*
X223873571Y-118395919D01*
X223896588Y-118428742D01*
X223922287Y-118457627D01*
X223930673Y-118466146D01*
X223946499Y-118482529D01*
X223957453Y-118494307D01*
X223961546Y-118499367D01*
X223959838Y-118500930D01*
X223950605Y-118504314D01*
X223938435Y-118506807D01*
X223900116Y-118508448D01*
X223857416Y-118503048D01*
X223814189Y-118491275D01*
X223774291Y-118473795D01*
X223752221Y-118460134D01*
X223730841Y-118442201D01*
X223710595Y-118419081D01*
X223689613Y-118388610D01*
X223666025Y-118348627D01*
X223662290Y-118342042D01*
X223633183Y-118296066D01*
X223603710Y-118259936D01*
X223571801Y-118231426D01*
X223535385Y-118208315D01*
X223495806Y-118187044D01*
X223527064Y-118179642D01*
X223543602Y-118176170D01*
X223592378Y-118171944D01*
X223642969Y-118177340D01*
G37*
G36*
X222525755Y-116656033D02*
G01*
X222549366Y-116663933D01*
X222583136Y-116677370D01*
X222642461Y-116705084D01*
X222697723Y-116738142D01*
X222748570Y-116777207D01*
X222796786Y-116823827D01*
X222844154Y-116879553D01*
X222892459Y-116945934D01*
X222910183Y-116971314D01*
X222932742Y-117002189D01*
X222953683Y-117029381D01*
X222971258Y-117050632D01*
X222983719Y-117063687D01*
X223025307Y-117094060D01*
X223075558Y-117119668D01*
X223127609Y-117136396D01*
X223150850Y-117141647D01*
X223172331Y-117146632D01*
X223186355Y-117150037D01*
X223201984Y-117154068D01*
X223183229Y-117158566D01*
X223153657Y-117163485D01*
X223100041Y-117163479D01*
X223042243Y-117153806D01*
X222981605Y-117135160D01*
X222919472Y-117108238D01*
X222857187Y-117073736D01*
X222796096Y-117032350D01*
X222737541Y-116984776D01*
X222682866Y-116931709D01*
X222633416Y-116873846D01*
X222618997Y-116854635D01*
X222595696Y-116821551D01*
X222572797Y-116786863D01*
X222551461Y-116752522D01*
X222532847Y-116720481D01*
X222518115Y-116692691D01*
X222508425Y-116671103D01*
X222504937Y-116657669D01*
X222505285Y-116655902D01*
X222511372Y-116653434D01*
X222525755Y-116656033D01*
G37*
G36*
X222573245Y-117696493D02*
G01*
X222590625Y-117704002D01*
X222612560Y-117714567D01*
X222649599Y-117731356D01*
X222697877Y-117747016D01*
X222747219Y-117755228D01*
X222799986Y-117756159D01*
X222858539Y-117749979D01*
X222925239Y-117736855D01*
X222954854Y-117730383D01*
X223054061Y-117714632D01*
X223146848Y-117709528D01*
X223233344Y-117715087D01*
X223313678Y-117731321D01*
X223387976Y-117758246D01*
X223456366Y-117795876D01*
X223461811Y-117799573D01*
X223482939Y-117815583D01*
X223506276Y-117835236D01*
X223529833Y-117856616D01*
X223551619Y-117877808D01*
X223569645Y-117896896D01*
X223581920Y-117911963D01*
X223586453Y-117921096D01*
X223586400Y-117922550D01*
X223584841Y-117925880D01*
X223579722Y-117925917D01*
X223569170Y-117922024D01*
X223551312Y-117913560D01*
X223524275Y-117899887D01*
X223469916Y-117874929D01*
X223405248Y-117852355D01*
X223343191Y-117838298D01*
X223286249Y-117833457D01*
X223284679Y-117833477D01*
X223266162Y-117834875D01*
X223239177Y-117838166D01*
X223207100Y-117842898D01*
X223173307Y-117848617D01*
X223120122Y-117857761D01*
X223075947Y-117864121D01*
X223038478Y-117867805D01*
X223004997Y-117869003D01*
X222972785Y-117867899D01*
X222939122Y-117864680D01*
X222910329Y-117860661D01*
X222816954Y-117839531D01*
X222726739Y-117806696D01*
X222641391Y-117762740D01*
X222632451Y-117757196D01*
X222609935Y-117741709D01*
X222589514Y-117725748D01*
X222573281Y-117711139D01*
X222563331Y-117699708D01*
X222561757Y-117693283D01*
X222563145Y-117693182D01*
X222573245Y-117696493D01*
G37*
G36*
X222613614Y-116943745D02*
G01*
X222627449Y-116957851D01*
X222647498Y-116982799D01*
X222675622Y-117016634D01*
X222715092Y-117058148D01*
X222758714Y-117099192D01*
X222802881Y-117136399D01*
X222843988Y-117166398D01*
X222884838Y-117191701D01*
X222944199Y-117222617D01*
X223006353Y-117247814D01*
X223073167Y-117267822D01*
X223146507Y-117283172D01*
X223228237Y-117294397D01*
X223320223Y-117302028D01*
X223354015Y-117304381D01*
X223417779Y-117310936D01*
X223471826Y-117320150D01*
X223517976Y-117332712D01*
X223558049Y-117349306D01*
X223593867Y-117370621D01*
X223627251Y-117397343D01*
X223660021Y-117430159D01*
X223672125Y-117444079D01*
X223702909Y-117489420D01*
X223724035Y-117539672D01*
X223736714Y-117597478D01*
X223739767Y-117625803D01*
X223739882Y-117660268D01*
X223735193Y-117696067D01*
X223725302Y-117738121D01*
X223721591Y-117751066D01*
X223714884Y-117769371D01*
X223709720Y-117776067D01*
X223706383Y-117770934D01*
X223705158Y-117753750D01*
X223700705Y-117714864D01*
X223687494Y-117670863D01*
X223667278Y-117628648D01*
X223641821Y-117592708D01*
X223624459Y-117575839D01*
X223586943Y-117550732D01*
X223542108Y-117531418D01*
X223492810Y-117519012D01*
X223441903Y-117514629D01*
X223378225Y-117512561D01*
X223271587Y-117499489D01*
X223168432Y-117474530D01*
X223069281Y-117437856D01*
X222974651Y-117389639D01*
X222885062Y-117330051D01*
X222837716Y-117292152D01*
X222765162Y-117222618D01*
X222703720Y-117147534D01*
X222653470Y-117067003D01*
X222614491Y-116981128D01*
X222609288Y-116966476D01*
X222604544Y-116948058D01*
X222605982Y-116940481D01*
X222613614Y-116943745D01*
G37*
G36*
X223400681Y-117956439D02*
G01*
X223430617Y-117957521D01*
X223454796Y-117960169D01*
X223477345Y-117964910D01*
X223502391Y-117972267D01*
X223515209Y-117976517D01*
X223567315Y-117997169D01*
X223614101Y-118021113D01*
X223653786Y-118047214D01*
X223684590Y-118074335D01*
X223704734Y-118101342D01*
X223706889Y-118105591D01*
X223708598Y-118111658D01*
X223705167Y-118113562D01*
X223695043Y-118111031D01*
X223676674Y-118103798D01*
X223648507Y-118091593D01*
X223628747Y-118083232D01*
X223603157Y-118074265D01*
X223581160Y-118069761D01*
X223558321Y-118068591D01*
X223552908Y-118068629D01*
X223540671Y-118069039D01*
X223529351Y-118070455D01*
X223517239Y-118073568D01*
X223502627Y-118079072D01*
X223483804Y-118087660D01*
X223459062Y-118100024D01*
X223426690Y-118116858D01*
X223384981Y-118138854D01*
X223343333Y-118159949D01*
X223284209Y-118185979D01*
X223228908Y-118204965D01*
X223174423Y-118218040D01*
X223157841Y-118220632D01*
X223114755Y-118224005D01*
X223064858Y-118224405D01*
X223011770Y-118221958D01*
X222959110Y-118216785D01*
X222910496Y-118209012D01*
X222908056Y-118208524D01*
X222874249Y-118201214D01*
X222840338Y-118193011D01*
X222808792Y-118184604D01*
X222782080Y-118176683D01*
X222762671Y-118169936D01*
X222753033Y-118165053D01*
X222752765Y-118164639D01*
X222757652Y-118161681D01*
X222771928Y-118158529D01*
X222792938Y-118155798D01*
X222804864Y-118154486D01*
X222831423Y-118150335D01*
X222858122Y-118144075D01*
X222886756Y-118135039D01*
X222919119Y-118122559D01*
X222957005Y-118105968D01*
X223002210Y-118084599D01*
X223056527Y-118057785D01*
X223077496Y-118047340D01*
X223131154Y-118021252D01*
X223176452Y-118000548D01*
X223215255Y-117984636D01*
X223249424Y-117972927D01*
X223280823Y-117964831D01*
X223311314Y-117959759D01*
X223342761Y-117957120D01*
X223377027Y-117956326D01*
X223400681Y-117956439D01*
G37*
G36*
X221417736Y-117609729D02*
G01*
X221427131Y-117618166D01*
X221441552Y-117632987D01*
X221459137Y-117652334D01*
X221459526Y-117652774D01*
X221523271Y-117720961D01*
X221584555Y-117778140D01*
X221644666Y-117825222D01*
X221704893Y-117863118D01*
X221766527Y-117892739D01*
X221830857Y-117914996D01*
X221845219Y-117918700D01*
X221870793Y-117923548D01*
X221901759Y-117927337D01*
X221940485Y-117930333D01*
X221989343Y-117932803D01*
X222011330Y-117933754D01*
X222047173Y-117935577D01*
X222073978Y-117937557D01*
X222094055Y-117940020D01*
X222109713Y-117943289D01*
X222123259Y-117947688D01*
X222137004Y-117953543D01*
X222146567Y-117958358D01*
X222166928Y-117970636D01*
X222187580Y-117985105D01*
X222205757Y-117999632D01*
X222218692Y-118012084D01*
X222223618Y-118020326D01*
X222220525Y-118021478D01*
X222207321Y-118022486D01*
X222186123Y-118022744D01*
X222159540Y-118022176D01*
X222130482Y-118021366D01*
X222110608Y-118021657D01*
X222097667Y-118023464D01*
X222088861Y-118027180D01*
X222081396Y-118033201D01*
X222080424Y-118034151D01*
X222069480Y-118053332D01*
X222068371Y-118076348D01*
X222077339Y-118099236D01*
X222090003Y-118114370D01*
X222113402Y-118133669D01*
X222146370Y-118154580D01*
X222189546Y-118177463D01*
X222243568Y-118202682D01*
X222309074Y-118230597D01*
X222341340Y-118244633D01*
X222400544Y-118275814D01*
X222450807Y-118311068D01*
X222494483Y-118352178D01*
X222533924Y-118400924D01*
X222535076Y-118402546D01*
X222549240Y-118424869D01*
X222560187Y-118446266D01*
X222565631Y-118462309D01*
X222569229Y-118484482D01*
X222516107Y-118450213D01*
X222491011Y-118434217D01*
X222458548Y-118414475D01*
X222428396Y-118397783D01*
X222398729Y-118383486D01*
X222367718Y-118370929D01*
X222333536Y-118359457D01*
X222294355Y-118348415D01*
X222248347Y-118337148D01*
X222193685Y-118325001D01*
X222128541Y-118311319D01*
X222079128Y-118300574D01*
X222024225Y-118286799D01*
X221977225Y-118272442D01*
X221935549Y-118256696D01*
X221896615Y-118238755D01*
X221894527Y-118237700D01*
X221821631Y-118194516D01*
X221750502Y-118140455D01*
X221682436Y-118077094D01*
X221618730Y-118006007D01*
X221560679Y-117928770D01*
X221509581Y-117846958D01*
X221466731Y-117762145D01*
X221433425Y-117675907D01*
X221426585Y-117654220D01*
X221419935Y-117631416D01*
X221415903Y-117615349D01*
X221415181Y-117608573D01*
X221417736Y-117609729D01*
G37*
G36*
X222129979Y-116247429D02*
G01*
X222202042Y-116310816D01*
X222227201Y-116336987D01*
X222255781Y-116369746D01*
X222282624Y-116404517D01*
X222308424Y-116442537D01*
X222333870Y-116485045D01*
X222359656Y-116533277D01*
X222386472Y-116588472D01*
X222415010Y-116651866D01*
X222445962Y-116724698D01*
X222480019Y-116808205D01*
X222488741Y-116829871D01*
X222518808Y-116903510D01*
X222545599Y-116967094D01*
X222569798Y-117021993D01*
X222592094Y-117069579D01*
X222613171Y-117111224D01*
X222633716Y-117148298D01*
X222654415Y-117182174D01*
X222675955Y-117214221D01*
X222699023Y-117245813D01*
X222705627Y-117254419D01*
X222766986Y-117323563D01*
X222835927Y-117382998D01*
X222912981Y-117433127D01*
X222998676Y-117474354D01*
X223032927Y-117488371D01*
X223004928Y-117496811D01*
X222998076Y-117498524D01*
X222971857Y-117502159D01*
X222935159Y-117504369D01*
X222889407Y-117505053D01*
X222881111Y-117505024D01*
X222845752Y-117504527D01*
X222819181Y-117503182D01*
X222798304Y-117500639D01*
X222780025Y-117496548D01*
X222761250Y-117490558D01*
X222757021Y-117489049D01*
X222701735Y-117464677D01*
X222652724Y-117433308D01*
X222608439Y-117393565D01*
X222567327Y-117344072D01*
X222527838Y-117283452D01*
X222515645Y-117263355D01*
X222482920Y-117216283D01*
X222450344Y-117180273D01*
X222416752Y-117154356D01*
X222380980Y-117137564D01*
X222341862Y-117128931D01*
X222328644Y-117128105D01*
X222293146Y-117133656D01*
X222262025Y-117149988D01*
X222237002Y-117175953D01*
X222219795Y-117210403D01*
X222216054Y-117226070D01*
X222212788Y-117257768D01*
X222212347Y-117295905D01*
X222214613Y-117337048D01*
X222219467Y-117377759D01*
X222226794Y-117414604D01*
X222240054Y-117456849D01*
X222266230Y-117516556D01*
X222300324Y-117577041D01*
X222340510Y-117635455D01*
X222384961Y-117688946D01*
X222431852Y-117734666D01*
X222503107Y-117789367D01*
X222585069Y-117839841D01*
X222672944Y-117883049D01*
X222764164Y-117917876D01*
X222856164Y-117943209D01*
X222946378Y-117957934D01*
X222969961Y-117960788D01*
X222996977Y-117966043D01*
X223011528Y-117972220D01*
X223013616Y-117979322D01*
X223003244Y-117987348D01*
X222995585Y-117990855D01*
X222973286Y-117999437D01*
X222943379Y-118009739D01*
X222908819Y-118020851D01*
X222872560Y-118031861D01*
X222837556Y-118041861D01*
X222806762Y-118049938D01*
X222783131Y-118055183D01*
X222768824Y-118057456D01*
X222725909Y-118061408D01*
X222676278Y-118062893D01*
X222623745Y-118062024D01*
X222572126Y-118058915D01*
X222525235Y-118053679D01*
X222486886Y-118046427D01*
X222472516Y-118042575D01*
X222405645Y-118017253D01*
X222345567Y-117981441D01*
X222292273Y-117935131D01*
X222245754Y-117878317D01*
X222206004Y-117810991D01*
X222204997Y-117808941D01*
X222196987Y-117791348D01*
X222185319Y-117764344D01*
X222170776Y-117729806D01*
X222154143Y-117689609D01*
X222136204Y-117645632D01*
X222117744Y-117599751D01*
X222113478Y-117589084D01*
X222095496Y-117544408D01*
X222078541Y-117502710D01*
X222063327Y-117465720D01*
X222050570Y-117435166D01*
X222040985Y-117412779D01*
X222035286Y-117400288D01*
X222004525Y-117350285D01*
X221966901Y-117309582D01*
X221923293Y-117279755D01*
X221873853Y-117260935D01*
X221852019Y-117256515D01*
X221808077Y-117255035D01*
X221769008Y-117264032D01*
X221735922Y-117282969D01*
X221709935Y-117311309D01*
X221692158Y-117348516D01*
X221688725Y-117364705D01*
X221686350Y-117394630D01*
X221686332Y-117430964D01*
X221688471Y-117470388D01*
X221692566Y-117509584D01*
X221698415Y-117545234D01*
X221705819Y-117574019D01*
X221709452Y-117584479D01*
X221740204Y-117652158D01*
X221781226Y-117712822D01*
X221832661Y-117766653D01*
X221894652Y-117813831D01*
X221898117Y-117816102D01*
X221919313Y-117830775D01*
X221930284Y-117840454D01*
X221930698Y-117845364D01*
X221920220Y-117845732D01*
X221898518Y-117841782D01*
X221865259Y-117833740D01*
X221835997Y-117825528D01*
X221757556Y-117795393D01*
X221686727Y-117755375D01*
X221668242Y-117742652D01*
X221589553Y-117680237D01*
X221520910Y-117611401D01*
X221462692Y-117536677D01*
X221415273Y-117456601D01*
X221379030Y-117371709D01*
X221354340Y-117282536D01*
X221349555Y-117257831D01*
X221346006Y-117234349D01*
X221343873Y-117210742D01*
X221342976Y-117183921D01*
X221343133Y-117150797D01*
X221344166Y-117108279D01*
X221344639Y-117093090D01*
X221346264Y-117054893D01*
X221348671Y-117021313D01*
X221352297Y-116989989D01*
X221357577Y-116958562D01*
X221364947Y-116924673D01*
X221374843Y-116885962D01*
X221387702Y-116840069D01*
X221403958Y-116784635D01*
X221405063Y-116780909D01*
X221420812Y-116726885D01*
X221433095Y-116682089D01*
X221442331Y-116644026D01*
X221448943Y-116610206D01*
X221453352Y-116578135D01*
X221455980Y-116545322D01*
X221457247Y-116509273D01*
X221457576Y-116467496D01*
X221457538Y-116441962D01*
X221457189Y-116408671D01*
X221456222Y-116383582D01*
X221454342Y-116364028D01*
X221451250Y-116347340D01*
X221446651Y-116330849D01*
X221440245Y-116311887D01*
X221426818Y-116277516D01*
X221402085Y-116230582D01*
X221371755Y-116191809D01*
X221339970Y-116164554D01*
X221585961Y-116164554D01*
X221590201Y-116176917D01*
X221601700Y-116193991D01*
X221617630Y-116212223D01*
X221635161Y-116228385D01*
X221651461Y-116239247D01*
X221678005Y-116249026D01*
X221710033Y-116251253D01*
X221738716Y-116241477D01*
X221763868Y-116219732D01*
X221781341Y-116198966D01*
X221744604Y-116187902D01*
X221727343Y-116183166D01*
X221696320Y-116175994D01*
X221667231Y-116170582D01*
X221647169Y-116167463D01*
X221623431Y-116163701D01*
X221606279Y-116160902D01*
X221591465Y-116160178D01*
X221585961Y-116164554D01*
X221339970Y-116164554D01*
X221334125Y-116159542D01*
X221287493Y-116132129D01*
X221230156Y-116107918D01*
X221190054Y-116093235D01*
X221223905Y-116081682D01*
X221242397Y-116076002D01*
X221292909Y-116064834D01*
X221351825Y-116056591D01*
X221416495Y-116051382D01*
X221484270Y-116049315D01*
X221552501Y-116050498D01*
X221618539Y-116055040D01*
X221679734Y-116063049D01*
X221752446Y-116077415D01*
X221859583Y-116107086D01*
X221958430Y-116145412D01*
X222048669Y-116192244D01*
X222058573Y-116198966D01*
X222129979Y-116247429D01*
G37*
G36*
X223843956Y-115328206D02*
G01*
X223907469Y-115329565D01*
X223961546Y-115332115D01*
X224012570Y-115335750D01*
X224210777Y-115355895D01*
X224401953Y-115385374D01*
X224587532Y-115424563D01*
X224768944Y-115473843D01*
X224947621Y-115533589D01*
X225124996Y-115604180D01*
X225302501Y-115685994D01*
X225407199Y-115739410D01*
X225567345Y-115829475D01*
X225720069Y-115926366D01*
X225867425Y-116031496D01*
X226011466Y-116146278D01*
X226154245Y-116272126D01*
X226162888Y-116280133D01*
X226307194Y-116422770D01*
X226442803Y-116574023D01*
X226569380Y-116733230D01*
X226686586Y-116899729D01*
X226794084Y-117072860D01*
X226891538Y-117251959D01*
X226978609Y-117436366D01*
X227054961Y-117625418D01*
X227120256Y-117818455D01*
X227174156Y-118014813D01*
X227216326Y-118213832D01*
X227246427Y-118414850D01*
X227248392Y-118431830D01*
X227262709Y-118598626D01*
X227268934Y-118770844D01*
X227267161Y-118945417D01*
X227257484Y-119119279D01*
X227239996Y-119289364D01*
X227214789Y-119452606D01*
X227213025Y-119462163D01*
X227194507Y-119553750D01*
X227172641Y-119648677D01*
X227148085Y-119744691D01*
X227121494Y-119839538D01*
X227093528Y-119930962D01*
X227064842Y-120016709D01*
X227036094Y-120094525D01*
X227007941Y-120162155D01*
X227002373Y-120174377D01*
X226987689Y-120205525D01*
X226968940Y-120244341D01*
X226947180Y-120288722D01*
X226923464Y-120336565D01*
X226898846Y-120385766D01*
X226874382Y-120434221D01*
X226851127Y-120479828D01*
X226830134Y-120520481D01*
X226812460Y-120554078D01*
X226799159Y-120578516D01*
X226772070Y-120625491D01*
X226691871Y-120753041D01*
X226601744Y-120881698D01*
X226503200Y-121009712D01*
X226397747Y-121135332D01*
X226286894Y-121256806D01*
X226172151Y-121372384D01*
X226055028Y-121480314D01*
X225937032Y-121578846D01*
X225854407Y-121642213D01*
X225685550Y-121760345D01*
X225510307Y-121868474D01*
X225329456Y-121966246D01*
X225143779Y-122053311D01*
X224954054Y-122129315D01*
X224761060Y-122193908D01*
X224565577Y-122246736D01*
X224368385Y-122287448D01*
X224364670Y-122288090D01*
X224327860Y-122293963D01*
X224283142Y-122300422D01*
X224233049Y-122307162D01*
X224180117Y-122313877D01*
X224126878Y-122320264D01*
X224075867Y-122326016D01*
X224029619Y-122330830D01*
X223990667Y-122334399D01*
X223961546Y-122336418D01*
X223920705Y-122337974D01*
X223852799Y-122339120D01*
X223778405Y-122338966D01*
X223700236Y-122337603D01*
X223621000Y-122335122D01*
X223543409Y-122331614D01*
X223470173Y-122327169D01*
X223404001Y-122321878D01*
X223347605Y-122315834D01*
X223260478Y-122303768D01*
X223052002Y-122266137D01*
X222846970Y-122216658D01*
X222645842Y-122155478D01*
X222449078Y-122082746D01*
X222257137Y-121998611D01*
X222070479Y-121903222D01*
X221952183Y-121834950D01*
X221784162Y-121726204D01*
X221621613Y-121606939D01*
X221465283Y-121477898D01*
X221315918Y-121339822D01*
X221174266Y-121193455D01*
X221041072Y-121039538D01*
X220917084Y-120878815D01*
X220803047Y-120712028D01*
X220699708Y-120539918D01*
X220650756Y-120449255D01*
X220564152Y-120270382D01*
X220487452Y-120086034D01*
X220421054Y-119897506D01*
X220365354Y-119706096D01*
X220320751Y-119513098D01*
X220287643Y-119319809D01*
X220266426Y-119127526D01*
X220264369Y-119094938D01*
X220262509Y-119050436D01*
X220261054Y-118998552D01*
X220260003Y-118941273D01*
X220259359Y-118880587D01*
X220259120Y-118818482D01*
X220259288Y-118756946D01*
X220259863Y-118697967D01*
X220260846Y-118643533D01*
X220262238Y-118595632D01*
X220264039Y-118556251D01*
X220266249Y-118527378D01*
X220290951Y-118331832D01*
X220323472Y-118143512D01*
X220364090Y-117962558D01*
X220413250Y-117787542D01*
X220471396Y-117617034D01*
X220538971Y-117449605D01*
X220616421Y-117283827D01*
X220704188Y-117118272D01*
X220723654Y-117084073D01*
X220821074Y-116925733D01*
X220928489Y-116770353D01*
X221043841Y-116620781D01*
X221165074Y-116479866D01*
X221195198Y-116447232D01*
X221218871Y-116422796D01*
X221236802Y-116406055D01*
X221250120Y-116396041D01*
X221259956Y-116391789D01*
X221267442Y-116392330D01*
X221269628Y-116393492D01*
X221280198Y-116403737D01*
X221291668Y-116419492D01*
X221300871Y-116435984D01*
X221304642Y-116448438D01*
X221303102Y-116452101D01*
X221294568Y-116464391D01*
X221279819Y-116482945D01*
X221260296Y-116505981D01*
X221237438Y-116531715D01*
X221132212Y-116653008D01*
X221004828Y-116816325D01*
X220888211Y-116985731D01*
X220782515Y-117160902D01*
X220687895Y-117341514D01*
X220604506Y-117527242D01*
X220532503Y-117717761D01*
X220472039Y-117912748D01*
X220423271Y-118111878D01*
X220386353Y-118314826D01*
X220380566Y-118354857D01*
X220359890Y-118545919D01*
X220350049Y-118739694D01*
X220350924Y-118934724D01*
X220362399Y-119129552D01*
X220384356Y-119322722D01*
X220416679Y-119512776D01*
X220459250Y-119698258D01*
X220511952Y-119877710D01*
X220513451Y-119882262D01*
X220529232Y-119928749D01*
X220546828Y-119978397D01*
X220565113Y-120028191D01*
X220582965Y-120075117D01*
X220599258Y-120116162D01*
X220612869Y-120148311D01*
X220628984Y-120184480D01*
X220758949Y-120054272D01*
X220781548Y-120031787D01*
X220841776Y-119973757D01*
X220898040Y-119922843D01*
X220952964Y-119876913D01*
X221009169Y-119833835D01*
X221069277Y-119791475D01*
X221135911Y-119747702D01*
X221251606Y-119677218D01*
X221399218Y-119595625D01*
X221557819Y-119516215D01*
X221726645Y-119439288D01*
X221904935Y-119365145D01*
X222091926Y-119294088D01*
X222286853Y-119226417D01*
X222488956Y-119162434D01*
X222697470Y-119102440D01*
X222911633Y-119046737D01*
X222951699Y-119036935D01*
X223011197Y-119022645D01*
X223071026Y-119008560D01*
X223129800Y-118994986D01*
X223186131Y-118982229D01*
X223238634Y-118970595D01*
X223285922Y-118960390D01*
X223326608Y-118951921D01*
X223359305Y-118945492D01*
X223382629Y-118941412D01*
X223395191Y-118939985D01*
X223395448Y-118939985D01*
X223404804Y-118941221D01*
X223414185Y-118945913D01*
X223425478Y-118955686D01*
X223440567Y-118972163D01*
X223461339Y-118996969D01*
X223472256Y-119010279D01*
X223493497Y-119036427D01*
X223508106Y-119055044D01*
X223517070Y-119067586D01*
X223521377Y-119075508D01*
X223522015Y-119080264D01*
X223519973Y-119083309D01*
X223518401Y-119084152D01*
X223506723Y-119088041D01*
X223486044Y-119093785D01*
X223458703Y-119100755D01*
X223427039Y-119108319D01*
X223267252Y-119146364D01*
X223066218Y-119197537D01*
X222876192Y-119249924D01*
X222696338Y-119303803D01*
X222525815Y-119359450D01*
X222363786Y-119417142D01*
X222209413Y-119477156D01*
X222061856Y-119539767D01*
X221920277Y-119605253D01*
X221865054Y-119632443D01*
X221729051Y-119704420D01*
X221602398Y-119778909D01*
X221485444Y-119855607D01*
X221378540Y-119934212D01*
X221282037Y-120014421D01*
X221196283Y-120095932D01*
X221121631Y-120178440D01*
X221058429Y-120261644D01*
X221007028Y-120345240D01*
X220967777Y-120428926D01*
X220966169Y-120433017D01*
X220945248Y-120491881D01*
X220931227Y-120545059D01*
X220923282Y-120596405D01*
X220920591Y-120649775D01*
X220920172Y-120718542D01*
X220965148Y-120784183D01*
X220972111Y-120794266D01*
X220995631Y-120827340D01*
X221020193Y-120860607D01*
X221044610Y-120892587D01*
X221067697Y-120921798D01*
X221088267Y-120946758D01*
X221105133Y-120965985D01*
X221117109Y-120977999D01*
X221123009Y-120981316D01*
X221123625Y-120980673D01*
X221126857Y-120971012D01*
X221130139Y-120952856D01*
X221132847Y-120929490D01*
X221133383Y-120923716D01*
X221148564Y-120829349D01*
X221175730Y-120736625D01*
X221214928Y-120645490D01*
X221266206Y-120555889D01*
X221329609Y-120467769D01*
X221405186Y-120381076D01*
X221492982Y-120295754D01*
X221593045Y-120211751D01*
X221705422Y-120129011D01*
X221830160Y-120047482D01*
X221967305Y-119967109D01*
X222016050Y-119940482D01*
X222172850Y-119861057D01*
X222341529Y-119784484D01*
X222521844Y-119710850D01*
X222713554Y-119640239D01*
X222916418Y-119572739D01*
X223130193Y-119508435D01*
X223354639Y-119447414D01*
X223589512Y-119389761D01*
X223632151Y-119379877D01*
X223670764Y-119371134D01*
X223699975Y-119364892D01*
X223721251Y-119360915D01*
X223736058Y-119358968D01*
X223745863Y-119358814D01*
X223752133Y-119360218D01*
X223756335Y-119362945D01*
X223758703Y-119365305D01*
X223769472Y-119377727D01*
X223784587Y-119396459D01*
X223801866Y-119418667D01*
X223819126Y-119441520D01*
X223834186Y-119462185D01*
X223844863Y-119477832D01*
X223854947Y-119493680D01*
X223809785Y-119505251D01*
X223754959Y-119519347D01*
X223635938Y-119550373D01*
X223527253Y-119579386D01*
X223427578Y-119606795D01*
X223335589Y-119633007D01*
X223249963Y-119658428D01*
X223169374Y-119683468D01*
X223092498Y-119708532D01*
X223018010Y-119734028D01*
X222944587Y-119760364D01*
X222870903Y-119787947D01*
X222795634Y-119817184D01*
X222761808Y-119830682D01*
X222603872Y-119897820D01*
X222456015Y-119967695D01*
X222318478Y-120040131D01*
X222191497Y-120114949D01*
X222075312Y-120191975D01*
X221970162Y-120271029D01*
X221876284Y-120351937D01*
X221793917Y-120434519D01*
X221723300Y-120518601D01*
X221664672Y-120604003D01*
X221618271Y-120690551D01*
X221605766Y-120719603D01*
X221579044Y-120802142D01*
X221562944Y-120888446D01*
X221557655Y-120976276D01*
X221563363Y-121063388D01*
X221580254Y-121147541D01*
X221595167Y-121192883D01*
X221621272Y-121253636D01*
X221654007Y-121315878D01*
X221691550Y-121376207D01*
X221732080Y-121431218D01*
X221742247Y-121443481D01*
X221769049Y-121473782D01*
X221800136Y-121506735D01*
X221834330Y-121541282D01*
X221870449Y-121576366D01*
X221907313Y-121610928D01*
X221943742Y-121643912D01*
X221978557Y-121674259D01*
X222010576Y-121700912D01*
X222038620Y-121722812D01*
X222061508Y-121738902D01*
X222078061Y-121748124D01*
X222087097Y-121749420D01*
X222087696Y-121749055D01*
X222089752Y-121747405D01*
X222090019Y-121744671D01*
X222087535Y-121739374D01*
X222081336Y-121730037D01*
X222070461Y-121715179D01*
X222053946Y-121693323D01*
X222030829Y-121662991D01*
X221993820Y-121610768D01*
X221946278Y-121528277D01*
X221910707Y-121444189D01*
X221887210Y-121358924D01*
X221875893Y-121272900D01*
X221876860Y-121186536D01*
X221890215Y-121100250D01*
X221907759Y-121037182D01*
X221942839Y-120949394D01*
X221989941Y-120862358D01*
X222048790Y-120776254D01*
X222119109Y-120691259D01*
X222200623Y-120607551D01*
X222293056Y-120525309D01*
X222396132Y-120444711D01*
X222509575Y-120365935D01*
X222633110Y-120289159D01*
X222766461Y-120214562D01*
X222909352Y-120142322D01*
X223061506Y-120072616D01*
X223222650Y-120005624D01*
X223392505Y-119941523D01*
X223570797Y-119880491D01*
X223757250Y-119822707D01*
X223951588Y-119768349D01*
X223961958Y-119765602D01*
X223992973Y-119757542D01*
X224014623Y-119752444D01*
X224029026Y-119750055D01*
X224038303Y-119750121D01*
X224044573Y-119752390D01*
X224049956Y-119756610D01*
X224051194Y-119757764D01*
X224062820Y-119770860D01*
X224075963Y-119788536D01*
X224088793Y-119807895D01*
X224099480Y-119826040D01*
X224106196Y-119840074D01*
X224107109Y-119847101D01*
X224106654Y-119847403D01*
X224097523Y-119850949D01*
X224078240Y-119857394D01*
X224050366Y-119866248D01*
X224015464Y-119877022D01*
X223975098Y-119889226D01*
X223930829Y-119902370D01*
X223874781Y-119919109D01*
X223681060Y-119981033D01*
X223498635Y-120046010D01*
X223326787Y-120114336D01*
X223164798Y-120186309D01*
X223011951Y-120262226D01*
X222867526Y-120342385D01*
X222853773Y-120350509D01*
X222743901Y-120419858D01*
X222642422Y-120492015D01*
X222549781Y-120566481D01*
X222466422Y-120642757D01*
X222392787Y-120720340D01*
X222329322Y-120798732D01*
X222276469Y-120877433D01*
X222234673Y-120955942D01*
X222204377Y-121033759D01*
X222186025Y-121110383D01*
X222185315Y-121115112D01*
X222182239Y-121147983D01*
X222180827Y-121187978D01*
X222180971Y-121231831D01*
X222182563Y-121276278D01*
X222185496Y-121318057D01*
X222189661Y-121353902D01*
X222194951Y-121380549D01*
X222195557Y-121382708D01*
X222210074Y-121425688D01*
X222229806Y-121472963D01*
X222252388Y-121519276D01*
X222275455Y-121559374D01*
X222320137Y-121623402D01*
X222378478Y-121693295D01*
X222445227Y-121760235D01*
X222520971Y-121824643D01*
X222606294Y-121886944D01*
X222701781Y-121947561D01*
X222808016Y-122006917D01*
X222925585Y-122065435D01*
X223055073Y-122123538D01*
X223062475Y-122126702D01*
X223107955Y-122145935D01*
X223144667Y-122160916D01*
X223174904Y-122172432D01*
X223200962Y-122181269D01*
X223225135Y-122188211D01*
X223249717Y-122194046D01*
X223277002Y-122199559D01*
X223347407Y-122210895D01*
X223434983Y-122220613D01*
X223531146Y-122227396D01*
X223634020Y-122231232D01*
X223741732Y-122232107D01*
X223852408Y-122230009D01*
X223964173Y-122224925D01*
X224075154Y-122216842D01*
X224183475Y-122205748D01*
X224197498Y-122204035D01*
X224264222Y-122194653D01*
X224334887Y-122182913D01*
X224408008Y-122169190D01*
X224482102Y-122153854D01*
X224555685Y-122137278D01*
X224627274Y-122119836D01*
X224695384Y-122101899D01*
X224758531Y-122083840D01*
X224815233Y-122066032D01*
X224864005Y-122048848D01*
X224903363Y-122032660D01*
X224931823Y-122017840D01*
X224933124Y-122017017D01*
X224960995Y-121993265D01*
X224987755Y-121959543D01*
X225011978Y-121918265D01*
X225032236Y-121871845D01*
X225047104Y-121822699D01*
X225051699Y-121794655D01*
X225054888Y-121755867D01*
X225056458Y-121709912D01*
X225056414Y-121659456D01*
X225054759Y-121607165D01*
X225051497Y-121555705D01*
X225046632Y-121507744D01*
X225040821Y-121465020D01*
X225021459Y-121351965D01*
X224995993Y-121233531D01*
X224965194Y-121112271D01*
X224929833Y-120990736D01*
X224890680Y-120871477D01*
X224848507Y-120757047D01*
X224804084Y-120649996D01*
X224758182Y-120552877D01*
X224734978Y-120508516D01*
X224697233Y-120440808D01*
X224654153Y-120368284D01*
X224605456Y-120290545D01*
X224550860Y-120207189D01*
X224490082Y-120117816D01*
X224422839Y-120022025D01*
X224348850Y-119919416D01*
X224267831Y-119809587D01*
X224179500Y-119692139D01*
X224083575Y-119566669D01*
X223979773Y-119432779D01*
X223867811Y-119290066D01*
X223861722Y-119282346D01*
X223802256Y-119207014D01*
X223743503Y-119132695D01*
X223686003Y-119060068D01*
X223630296Y-118989809D01*
X223576923Y-118922596D01*
X223526425Y-118859107D01*
X223479341Y-118800019D01*
X223436213Y-118746009D01*
X223397579Y-118697756D01*
X223363981Y-118655936D01*
X223335960Y-118621227D01*
X223314054Y-118594308D01*
X223298806Y-118575854D01*
X223290755Y-118566544D01*
X223285239Y-118560505D01*
X223276520Y-118549574D01*
X223274304Y-118544350D01*
X223274421Y-118544261D01*
X223280638Y-118539117D01*
X223294319Y-118527632D01*
X223313544Y-118511422D01*
X223336392Y-118492103D01*
X223342898Y-118486603D01*
X223376272Y-118458638D01*
X223410064Y-118430681D01*
X223442845Y-118403879D01*
X223473187Y-118379379D01*
X223499663Y-118358327D01*
X223520844Y-118341870D01*
X223535302Y-118331155D01*
X223541609Y-118327329D01*
X223542278Y-118327583D01*
X223549106Y-118334196D01*
X223560695Y-118347950D01*
X223574959Y-118366401D01*
X223575875Y-118367625D01*
X223593930Y-118390624D01*
X223619606Y-118421829D01*
X223652088Y-118460327D01*
X223690566Y-118505205D01*
X223734225Y-118555548D01*
X223782254Y-118610443D01*
X223833840Y-118668977D01*
X223888171Y-118730235D01*
X223944433Y-118793303D01*
X224001815Y-118857270D01*
X224059503Y-118921219D01*
X224116685Y-118984239D01*
X224172548Y-119045415D01*
X224226281Y-119103833D01*
X224277070Y-119158580D01*
X224324102Y-119208742D01*
X224471209Y-119361744D01*
X224616777Y-119507006D01*
X224759101Y-119642546D01*
X224899142Y-119769208D01*
X225037859Y-119887838D01*
X225176211Y-119999279D01*
X225315160Y-120104376D01*
X225455663Y-120203972D01*
X225544853Y-120263859D01*
X225653524Y-120332791D01*
X225756138Y-120392868D01*
X225853756Y-120444542D01*
X225947437Y-120488264D01*
X226038243Y-120524486D01*
X226127235Y-120553659D01*
X226215474Y-120576236D01*
X226304020Y-120592668D01*
X226393934Y-120603406D01*
X226414541Y-120605124D01*
X226480258Y-120608789D01*
X226535546Y-120608489D01*
X226581604Y-120603966D01*
X226619625Y-120594966D01*
X226650807Y-120581233D01*
X226676346Y-120562511D01*
X226697438Y-120538544D01*
X226707103Y-120524478D01*
X226730469Y-120486239D01*
X226756768Y-120438424D01*
X226785325Y-120382603D01*
X226815462Y-120320344D01*
X226846505Y-120253215D01*
X226877778Y-120182785D01*
X226908604Y-120110621D01*
X226938307Y-120038293D01*
X226966212Y-119967368D01*
X226991642Y-119899415D01*
X227013921Y-119836003D01*
X227032375Y-119778699D01*
X227046325Y-119729072D01*
X227053799Y-119698870D01*
X227059265Y-119673664D01*
X227061403Y-119656897D01*
X227060251Y-119646647D01*
X227055851Y-119640992D01*
X227048243Y-119638008D01*
X227036846Y-119635926D01*
X227012855Y-119632834D01*
X226979734Y-119629333D01*
X226939344Y-119625579D01*
X226893544Y-119621727D01*
X226844196Y-119617931D01*
X226793161Y-119614348D01*
X226742298Y-119611131D01*
X226693468Y-119608436D01*
X226654980Y-119606796D01*
X226595951Y-119605037D01*
X226527830Y-119603666D01*
X226452532Y-119602682D01*
X226371969Y-119602084D01*
X226288056Y-119601872D01*
X226202706Y-119602046D01*
X226117833Y-119602604D01*
X226035350Y-119603547D01*
X225957171Y-119604874D01*
X225885209Y-119606584D01*
X225821378Y-119608676D01*
X225810685Y-119609104D01*
X225756536Y-119611642D01*
X225696512Y-119614981D01*
X225632143Y-119618994D01*
X225564960Y-119623557D01*
X225496492Y-119628545D01*
X225428269Y-119633833D01*
X225361821Y-119639297D01*
X225298677Y-119644810D01*
X225240367Y-119650248D01*
X225188422Y-119655486D01*
X225144371Y-119660399D01*
X225109744Y-119664862D01*
X225086070Y-119668751D01*
X225085403Y-119668884D01*
X225079862Y-119669636D01*
X225074135Y-119668952D01*
X225066861Y-119665910D01*
X225056682Y-119659587D01*
X225042240Y-119649062D01*
X225022174Y-119633413D01*
X224995127Y-119611718D01*
X224959740Y-119583055D01*
X224956173Y-119580108D01*
X224951798Y-119574811D01*
X224956393Y-119571773D01*
X224971663Y-119568983D01*
X224992106Y-119565924D01*
X225037896Y-119559792D01*
X225093101Y-119553094D01*
X225155749Y-119546027D01*
X225223867Y-119538789D01*
X225295481Y-119531574D01*
X225368620Y-119524581D01*
X225441310Y-119518004D01*
X225511578Y-119512041D01*
X225577452Y-119506887D01*
X225636958Y-119502740D01*
X225905024Y-119489375D01*
X226242967Y-119483315D01*
X226583652Y-119489068D01*
X226926334Y-119506630D01*
X226941541Y-119507651D01*
X226992581Y-119510760D01*
X227033971Y-119512739D01*
X227065013Y-119513566D01*
X227085007Y-119513220D01*
X227093256Y-119511681D01*
X227093331Y-119511602D01*
X227096930Y-119502650D01*
X227101665Y-119483753D01*
X227107137Y-119457308D01*
X227112943Y-119425713D01*
X227118682Y-119391368D01*
X227123953Y-119356669D01*
X227128356Y-119324015D01*
X227131488Y-119295805D01*
X227132948Y-119274437D01*
X227134201Y-119230676D01*
X227068560Y-119226754D01*
X227054908Y-119226092D01*
X227022681Y-119225096D01*
X226980154Y-119224252D01*
X226928708Y-119223558D01*
X226869728Y-119223013D01*
X226804596Y-119222617D01*
X226734695Y-119222367D01*
X226661409Y-119222262D01*
X226586120Y-119222301D01*
X226510212Y-119222484D01*
X226435068Y-119222808D01*
X226362070Y-119223272D01*
X226292602Y-119223875D01*
X226228048Y-119224617D01*
X226169789Y-119225495D01*
X226119209Y-119226508D01*
X226077691Y-119227655D01*
X225959365Y-119231948D01*
X225832675Y-119237504D01*
X225711551Y-119243977D01*
X225593440Y-119251560D01*
X225475793Y-119260449D01*
X225356057Y-119270837D01*
X225231680Y-119282920D01*
X225100113Y-119296891D01*
X224958803Y-119312945D01*
X224926531Y-119316708D01*
X224870794Y-119323158D01*
X224825608Y-119328260D01*
X224789732Y-119332099D01*
X224761924Y-119334755D01*
X224740941Y-119336313D01*
X224725542Y-119336855D01*
X224714485Y-119336463D01*
X224706527Y-119335220D01*
X224700426Y-119333209D01*
X224694941Y-119330513D01*
X224683382Y-119322715D01*
X224666366Y-119308517D01*
X224647076Y-119290574D01*
X224627446Y-119270899D01*
X224609407Y-119251505D01*
X224594892Y-119234405D01*
X224585834Y-119221612D01*
X224584166Y-119215138D01*
X224589010Y-119212768D01*
X224606083Y-119208432D01*
X224634020Y-119203300D01*
X224671854Y-119197478D01*
X224718619Y-119191073D01*
X224773351Y-119184190D01*
X224835082Y-119176936D01*
X224902848Y-119169417D01*
X224975683Y-119161739D01*
X225052620Y-119154009D01*
X225132693Y-119146332D01*
X225214938Y-119138815D01*
X225298388Y-119131564D01*
X225382078Y-119124685D01*
X225465041Y-119118284D01*
X225472273Y-119117746D01*
X225537405Y-119112924D01*
X225596327Y-119108649D01*
X225650210Y-119104884D01*
X225700221Y-119101595D01*
X225747531Y-119098746D01*
X225793310Y-119096301D01*
X225838726Y-119094225D01*
X225884951Y-119092482D01*
X225933152Y-119091037D01*
X225984500Y-119089854D01*
X226040164Y-119088898D01*
X226101314Y-119088133D01*
X226169119Y-119087524D01*
X226244749Y-119087035D01*
X226329373Y-119086630D01*
X226424162Y-119086275D01*
X226530284Y-119085933D01*
X226580829Y-119085764D01*
X226665961Y-119085423D01*
X226747053Y-119085026D01*
X226823258Y-119084582D01*
X226893731Y-119084099D01*
X226957625Y-119083583D01*
X227014094Y-119083043D01*
X227062291Y-119082486D01*
X227101370Y-119081921D01*
X227130485Y-119081354D01*
X227148790Y-119080794D01*
X227155437Y-119080247D01*
X227155676Y-119079759D01*
X227156797Y-119070362D01*
X227157767Y-119050789D01*
X227158530Y-119022980D01*
X227159029Y-118988872D01*
X227159208Y-118950405D01*
X227159208Y-118824326D01*
X227059183Y-118819376D01*
X227029151Y-118818284D01*
X226987523Y-118817380D01*
X226935707Y-118816671D01*
X226874838Y-118816148D01*
X226806049Y-118815806D01*
X226730477Y-118815634D01*
X226649254Y-118815626D01*
X226563516Y-118815774D01*
X226474397Y-118816070D01*
X226383033Y-118816507D01*
X226290556Y-118817076D01*
X226198103Y-118817770D01*
X226106807Y-118818582D01*
X226017803Y-118819502D01*
X225932225Y-118820524D01*
X225851209Y-118821640D01*
X225775888Y-118822842D01*
X225707398Y-118824123D01*
X225646873Y-118825474D01*
X225595446Y-118826888D01*
X225554254Y-118828356D01*
X225524430Y-118829873D01*
X225494498Y-118831823D01*
X225364152Y-118840706D01*
X225242581Y-118849715D01*
X225126772Y-118859130D01*
X225013709Y-118869229D01*
X224900377Y-118880292D01*
X224783761Y-118892598D01*
X224660847Y-118906425D01*
X224528619Y-118922054D01*
X224311123Y-118948272D01*
X224285610Y-118923808D01*
X224279805Y-118918083D01*
X224261720Y-118899217D01*
X224240519Y-118876091D01*
X224219670Y-118852458D01*
X224179242Y-118805572D01*
X224228245Y-118797960D01*
X224236410Y-118796717D01*
X224276560Y-118791074D01*
X224327071Y-118784549D01*
X224386265Y-118777322D01*
X224452466Y-118769572D01*
X224523996Y-118761480D01*
X224599177Y-118753224D01*
X224676334Y-118744985D01*
X224753788Y-118736943D01*
X224829863Y-118729276D01*
X224902881Y-118722165D01*
X224971165Y-118715790D01*
X225033038Y-118710330D01*
X225086823Y-118705965D01*
X225180403Y-118699170D01*
X225327513Y-118689773D01*
X225480356Y-118681430D01*
X225637280Y-118674177D01*
X225796637Y-118668051D01*
X225956776Y-118663090D01*
X226116046Y-118659330D01*
X226272799Y-118656809D01*
X226425385Y-118655562D01*
X226572152Y-118655627D01*
X226711452Y-118657041D01*
X226841634Y-118659841D01*
X226961049Y-118664064D01*
X226985093Y-118665081D01*
X227031516Y-118666864D01*
X227073116Y-118668222D01*
X227108359Y-118669122D01*
X227135714Y-118669526D01*
X227153646Y-118669399D01*
X227160623Y-118668707D01*
X227160916Y-118668129D01*
X227161534Y-118658344D01*
X227160900Y-118638387D01*
X227159181Y-118610128D01*
X227156545Y-118575432D01*
X227153159Y-118536169D01*
X227149191Y-118494206D01*
X227144808Y-118451411D01*
X227140178Y-118409650D01*
X227135468Y-118370793D01*
X227130846Y-118336706D01*
X227103574Y-118176105D01*
X227058220Y-117975309D01*
X227000961Y-117778124D01*
X226931938Y-117584939D01*
X226851293Y-117396141D01*
X226759168Y-117212119D01*
X226655703Y-117033261D01*
X226620463Y-116977635D01*
X226506296Y-116812700D01*
X226381744Y-116654041D01*
X226247503Y-116502373D01*
X226104270Y-116358407D01*
X225952741Y-116222858D01*
X225793612Y-116096440D01*
X225627581Y-115979866D01*
X225523392Y-115913980D01*
X225349109Y-115815075D01*
X225169662Y-115726703D01*
X224985869Y-115649142D01*
X224798546Y-115582674D01*
X224608511Y-115527577D01*
X224416582Y-115484131D01*
X224223577Y-115452617D01*
X224030313Y-115433313D01*
X223880529Y-115425479D01*
X223710201Y-115422927D01*
X223546406Y-115427878D01*
X223387139Y-115440500D01*
X223230392Y-115460960D01*
X223074162Y-115489424D01*
X222916442Y-115526060D01*
X222873424Y-115537370D01*
X222673158Y-115597774D01*
X222477751Y-115669693D01*
X222287253Y-115753107D01*
X222101713Y-115847997D01*
X222072496Y-115863743D01*
X222041153Y-115879918D01*
X222014163Y-115893091D01*
X221993699Y-115902207D01*
X221981936Y-115906209D01*
X221975629Y-115907026D01*
X221964842Y-115905777D01*
X221955197Y-115898457D01*
X221942864Y-115882766D01*
X221935627Y-115872438D01*
X221926935Y-115858771D01*
X221923544Y-115851494D01*
X221924407Y-115849838D01*
X221933861Y-115842138D01*
X221952635Y-115830000D01*
X221979349Y-115814162D01*
X222012624Y-115795362D01*
X222051081Y-115774339D01*
X222093341Y-115751830D01*
X222138025Y-115728574D01*
X222183752Y-115705309D01*
X222229144Y-115682773D01*
X222272821Y-115661704D01*
X222313405Y-115642841D01*
X222448782Y-115584487D01*
X222640711Y-115512443D01*
X222834113Y-115452436D01*
X223030002Y-115404191D01*
X223229390Y-115367438D01*
X223433291Y-115341904D01*
X223490042Y-115337316D01*
X223555655Y-115333559D01*
X223626857Y-115330714D01*
X223700645Y-115328836D01*
X223774013Y-115327982D01*
X223843956Y-115328206D01*
G37*
%LPC*%
D16*
X39166800Y-90830400D03*
X39166800Y-73030436D03*
D17*
X43557799Y-77730434D03*
D18*
X43557799Y-81930433D03*
X43557799Y-86130432D03*
X39357800Y-77730434D03*
X39357800Y-81930433D03*
X39357800Y-86130432D03*
D19*
X193720000Y-87630000D03*
D20*
X193720000Y-105135000D03*
X248920000Y-70125000D03*
D19*
X248920000Y-87630000D03*
D21*
X257140000Y-105135000D03*
D22*
X222250000Y-87376000D03*
X167005000Y-71374000D03*
D23*
X158775400Y-87376000D03*
D24*
X234315000Y-79375000D03*
X154940000Y-79375000D03*
D25*
X144470200Y-88798400D03*
D26*
X147440200Y-88798400D03*
D27*
X29464000Y-96723200D03*
D28*
X29464000Y-101803200D03*
X29464000Y-106883200D03*
X29464000Y-111963200D03*
D29*
X46418750Y-98503750D03*
X46418750Y-118823750D03*
X107696250Y-98503750D03*
X107696250Y-118823750D03*
D30*
X117275000Y-108060000D03*
X117275000Y-111520000D03*
X117275000Y-114980000D03*
X117275000Y-118440000D03*
D31*
X36735000Y-109140000D03*
X36735000Y-111680000D03*
D29*
X28448000Y-70713600D03*
X29006800Y-119430800D03*
D27*
X270650000Y-88137500D03*
D28*
X270650000Y-93217500D03*
X270650000Y-98297500D03*
X270650000Y-103377500D03*
D29*
X269595600Y-118262400D03*
D25*
X160070800Y-95504000D03*
D26*
X157530800Y-95504000D03*
D29*
X269849600Y-72136000D03*
D32*
X155321000Y-103505000D03*
X184264300Y-116459000D03*
D30*
X217265000Y-117475000D03*
X213725000Y-117475000D03*
X210185000Y-117475000D03*
X206645000Y-117475000D03*
X203265000Y-117475000D03*
X200025000Y-117475000D03*
D33*
X62616800Y-89756000D03*
X88016800Y-77056000D03*
D34*
X106599387Y-76305535D03*
X106599387Y-73765535D03*
D35*
X131210000Y-78920000D03*
D36*
X148310000Y-71120000D03*
X148310000Y-79620000D03*
X113310000Y-71120000D03*
X113310000Y-79620000D03*
D25*
X149453600Y-101442600D03*
D26*
X149453600Y-104412600D03*
%LPD*%
M02*
