M48
; DRILL file {KiCad 7.0.9} date Monday, April 01, 2024 at 10:02:16 PM
; FORMAT={-:-/ absolute / metric / decimal}
; #@! TF.CreationDate,2024-04-01T22:02:16-07:00
; #@! TF.GenerationSoftware,Kicad,Pcbnew,7.0.9
; #@! TF.FileFunction,Plated,1,4,PTH
FMAT,2
METRIC
; #@! TA.AperFunction,Plated,PTH,ComponentDrill
T1C0.381
; #@! TA.AperFunction,Plated,PTH,ComponentDrill
T2C0.762
; #@! TA.AperFunction,Plated,PTH,ComponentDrill
T3C0.800
; #@! TA.AperFunction,Plated,PTH,ComponentDrill
T4C1.000
; #@! TA.AperFunction,Plated,PTH,ComponentDrill
T5C1.100
; #@! TA.AperFunction,Plated,PTH,ViaDrill
T6C1.500
; #@! TA.AperFunction,Plated,PTH,ComponentDrill
T7C1.800
; #@! TA.AperFunction,Plated,PTH,ViaDrill
T8C2.000
; #@! TA.AperFunction,Plated,PTH,ComponentDrill
T9C3.454
%
G90
G05
T1
X106.599Y-73.766
X106.599Y-76.306
T2
X113.31Y-71.12
X113.31Y-79.62
X148.31Y-71.12
X148.31Y-79.62
T3
X36.735Y-109.14
X36.735Y-111.68
T4
X117.275Y-108.06
X117.275Y-111.52
X117.275Y-114.98
X117.275Y-118.44
X144.47Y-88.798
X147.44Y-88.798
X149.454Y-101.443
X149.454Y-104.413
X157.531Y-95.504
X160.071Y-95.504
X200.025Y-117.475
X203.265Y-117.475
X206.645Y-117.475
X210.185Y-117.475
X213.725Y-117.475
X217.265Y-117.475
T5
X29.464Y-96.723
X29.464Y-101.803
X29.464Y-106.883
X29.464Y-111.963
X270.65Y-88.138
X270.65Y-93.218
X270.65Y-98.297
X270.65Y-103.377
T6
X146.558Y-74.778
X171.602Y-101.448
X243.281Y-80.772
T7
X39.358Y-77.73
X39.358Y-81.93
X39.358Y-86.13
X43.558Y-77.73
X43.558Y-81.93
X43.558Y-86.13
T8
X109.22Y-88.9
X127.203Y-92.71
T9
X167.005Y-71.374
X222.25Y-87.376
T0
M30
