G04 #@! TF.GenerationSoftware,KiCad,Pcbnew,7.0.9*
G04 #@! TF.CreationDate,2024-04-15T23:38:29-07:00*
G04 #@! TF.ProjectId,AVcarrierBoard,41566361-7272-4696-9572-426f6172642e,rev?*
G04 #@! TF.SameCoordinates,Original*
G04 #@! TF.FileFunction,Copper,L1,Top*
G04 #@! TF.FilePolarity,Positive*
%FSLAX46Y46*%
G04 Gerber Fmt 4.6, Leading zero omitted, Abs format (unit mm)*
G04 Created by KiCad (PCBNEW 7.0.9) date 2024-04-15 23:38:29*
%MOMM*%
%LPD*%
G01*
G04 APERTURE LIST*
G04 #@! TA.AperFunction,ComponentPad*
%ADD10R,1.700000X1.700000*%
G04 #@! TD*
G04 #@! TA.AperFunction,ComponentPad*
%ADD11O,1.700000X1.700000*%
G04 #@! TD*
G04 #@! TA.AperFunction,ComponentPad*
%ADD12R,1.650000X1.650000*%
G04 #@! TD*
G04 #@! TA.AperFunction,ComponentPad*
%ADD13C,1.650000*%
G04 #@! TD*
G04 #@! TA.AperFunction,ComponentPad*
%ADD14R,2.032000X2.032000*%
G04 #@! TD*
G04 #@! TA.AperFunction,ComponentPad*
%ADD15C,2.032000*%
G04 #@! TD*
G04 #@! TA.AperFunction,ComponentPad*
%ADD16R,2.800000X2.800000*%
G04 #@! TD*
G04 #@! TA.AperFunction,ComponentPad*
%ADD17C,2.800000*%
G04 #@! TD*
G04 #@! TA.AperFunction,SMDPad,CuDef*
%ADD18R,7.340000X6.350000*%
G04 #@! TD*
G04 #@! TA.AperFunction,WasherPad*
%ADD19C,6.560820*%
G04 #@! TD*
G04 #@! TA.AperFunction,ComponentPad*
%ADD20C,3.654400*%
G04 #@! TD*
G04 #@! TA.AperFunction,WasherPad*
%ADD21C,5.842000*%
G04 #@! TD*
G04 #@! TA.AperFunction,WasherPad*
%ADD22C,6.000000*%
G04 #@! TD*
G04 #@! TA.AperFunction,ViaPad*
%ADD23C,3.000000*%
G04 #@! TD*
G04 #@! TA.AperFunction,Conductor*
%ADD24C,2.500000*%
G04 #@! TD*
G04 #@! TA.AperFunction,Conductor*
%ADD25C,0.250000*%
G04 #@! TD*
G04 APERTURE END LIST*
D10*
X144470200Y-88798400D03*
D11*
X147440200Y-88798400D03*
D12*
X29464000Y-96723200D03*
D13*
X29464000Y-101803200D03*
X29464000Y-106883200D03*
X29464000Y-111963200D03*
D14*
X117275000Y-108060000D03*
X117275000Y-111520000D03*
X117275000Y-114980000D03*
X117275000Y-118440000D03*
D15*
X36735000Y-114220000D03*
X36735000Y-119300000D03*
D16*
X43557799Y-77730434D03*
D17*
X43557799Y-81930433D03*
X43557799Y-86130432D03*
X39357800Y-77730434D03*
X39357800Y-81930433D03*
X39357800Y-86130432D03*
D18*
X181990000Y-81885000D03*
X260650000Y-81885000D03*
X181990000Y-100995000D03*
X260650000Y-100995000D03*
D12*
X270650000Y-88137500D03*
D13*
X270650000Y-93217500D03*
X270650000Y-98297500D03*
X270650000Y-103377500D03*
D10*
X160070800Y-95504000D03*
D11*
X157530800Y-95504000D03*
D19*
X155321000Y-103505000D03*
X184264300Y-116459000D03*
D14*
X217265000Y-117475000D03*
X213725000Y-117475000D03*
X210185000Y-117475000D03*
X206645000Y-117475000D03*
X203265000Y-117475000D03*
X200025000Y-117475000D03*
D20*
X249000000Y-90000000D03*
X193755000Y-73998000D03*
D21*
X62616800Y-89756000D03*
X88016800Y-77056000D03*
D15*
X106599387Y-78326000D03*
X106599387Y-73765535D03*
D22*
X131210000Y-78920000D03*
D15*
X148310000Y-71120000D03*
X148310000Y-79620000D03*
X113310000Y-71120000D03*
X113310000Y-79620000D03*
D10*
X149453600Y-101442600D03*
D11*
X149453600Y-104412600D03*
D23*
X251228000Y-80772000D03*
X171602400Y-104140000D03*
X109220000Y-88900000D03*
X173618000Y-77402600D03*
X127203200Y-92710000D03*
D24*
X127203200Y-92710000D02*
X129997200Y-95504000D01*
X129997200Y-95504000D02*
X157100800Y-95504000D01*
X174747400Y-100995000D02*
X181990000Y-100995000D01*
X172207400Y-103535000D02*
X174747400Y-100995000D01*
D25*
X172207400Y-103535000D02*
X171602400Y-104140000D01*
D24*
X109965000Y-108060000D02*
X117275000Y-108060000D01*
X99695000Y-97790000D02*
X109965000Y-108060000D01*
X41706800Y-96723200D02*
X43230800Y-95199200D01*
X52019200Y-95199200D02*
X54610000Y-97790000D01*
X43230800Y-95199200D02*
X52019200Y-95199200D01*
X54610000Y-97790000D02*
X99695000Y-97790000D01*
X29464000Y-96723200D02*
X41706800Y-96723200D01*
X29464000Y-101803200D02*
X39573200Y-101803200D01*
X39573200Y-101803200D02*
X43180000Y-105410000D01*
X109030800Y-111520000D02*
X117275000Y-111520000D01*
X102920800Y-105410000D02*
X109030800Y-111520000D01*
X43180000Y-105410000D02*
X102920800Y-105410000D01*
X191970110Y-117475000D02*
X200025000Y-117475000D01*
X136788000Y-108848000D02*
X116840000Y-88900000D01*
X136788000Y-108848000D02*
X183343110Y-108848000D01*
X183343110Y-108848000D02*
X191970110Y-117475000D01*
X116840000Y-88900000D02*
X109220000Y-88900000D01*
X48768000Y-114300000D02*
X45669200Y-114300000D01*
X56591200Y-122123200D02*
X48768000Y-114300000D01*
X38354000Y-106984800D02*
X29565600Y-106984800D01*
X206645000Y-117475000D02*
X206645000Y-121167400D01*
X45669200Y-114300000D02*
X38354000Y-106984800D01*
X205689200Y-122123200D02*
X56591200Y-122123200D01*
X29565600Y-106984800D02*
X29464000Y-106883200D01*
X206645000Y-121167400D02*
X205689200Y-122123200D01*
X147440200Y-88798400D02*
X152400000Y-83838600D01*
X152400000Y-83820000D02*
X154335000Y-81885000D01*
X152400000Y-83838600D02*
X152400000Y-83820000D01*
X154335000Y-81885000D02*
X181990000Y-81885000D01*
X173000000Y-98000000D02*
X162566800Y-98000000D01*
X160230800Y-95504000D02*
X160230800Y-95554800D01*
X203265000Y-117475000D02*
X203265000Y-111121614D01*
X203265000Y-111121614D02*
X185143386Y-93000000D01*
X162566800Y-98000000D02*
X160070800Y-95504000D01*
X178000000Y-93000000D02*
X173000000Y-98000000D01*
X185143386Y-93000000D02*
X178000000Y-93000000D01*
X267462500Y-108457500D02*
X261620000Y-114300000D01*
X261620000Y-114300000D02*
X210968000Y-114300000D01*
X210968000Y-114300000D02*
X210345000Y-114923000D01*
X210345000Y-114923000D02*
X210345000Y-117315000D01*
X267462500Y-98297500D02*
X267462500Y-108457500D01*
X270650000Y-98297500D02*
X267462500Y-98297500D01*
X260650000Y-85030000D02*
X260650000Y-104140000D01*
G04 #@! TA.AperFunction,Conductor*
G36*
X276307539Y-66059685D02*
G01*
X276353294Y-66112489D01*
X276364500Y-66164000D01*
X276364500Y-124336000D01*
X276344815Y-124403039D01*
X276292011Y-124448794D01*
X276240500Y-124460000D01*
X22984000Y-124460000D01*
X22916961Y-124440315D01*
X22871206Y-124387511D01*
X22860000Y-124336000D01*
X22860000Y-119498563D01*
X27152587Y-119498563D01*
X27182213Y-119767813D01*
X27182215Y-119767824D01*
X27250726Y-120029882D01*
X27250728Y-120029888D01*
X27356670Y-120279190D01*
X27413137Y-120371714D01*
X27497779Y-120510405D01*
X27497786Y-120510415D01*
X27671053Y-120718619D01*
X27671059Y-120718624D01*
X27764627Y-120802461D01*
X27872798Y-120899382D01*
X28098710Y-121048844D01*
X28343976Y-121163820D01*
X28343983Y-121163822D01*
X28343985Y-121163823D01*
X28603357Y-121241857D01*
X28603364Y-121241858D01*
X28603369Y-121241860D01*
X28871361Y-121281300D01*
X28871366Y-121281300D01*
X29074436Y-121281300D01*
X29125933Y-121277530D01*
X29276956Y-121266477D01*
X29427073Y-121233037D01*
X29541346Y-121207582D01*
X29541348Y-121207581D01*
X29541353Y-121207580D01*
X29794358Y-121110814D01*
X30030577Y-120978241D01*
X30244977Y-120812688D01*
X30432986Y-120617681D01*
X30590599Y-120397379D01*
X30681308Y-120220949D01*
X30714449Y-120156490D01*
X30714451Y-120156484D01*
X30714456Y-120156475D01*
X30801918Y-119900105D01*
X30851119Y-119633733D01*
X30861012Y-119363035D01*
X30854076Y-119300000D01*
X35213811Y-119300000D01*
X35232538Y-119537963D01*
X35288261Y-119770068D01*
X35379608Y-119990600D01*
X35379610Y-119990604D01*
X35379611Y-119990605D01*
X35504332Y-120194132D01*
X35659357Y-120375643D01*
X35840868Y-120530668D01*
X36044395Y-120655389D01*
X36044397Y-120655389D01*
X36044399Y-120655391D01*
X36089929Y-120674250D01*
X36264927Y-120746737D01*
X36497034Y-120802461D01*
X36735000Y-120821189D01*
X36972966Y-120802461D01*
X37205073Y-120746737D01*
X37425605Y-120655389D01*
X37629132Y-120530668D01*
X37810643Y-120375643D01*
X37965668Y-120194132D01*
X38090389Y-119990605D01*
X38181737Y-119770073D01*
X38237461Y-119537966D01*
X38256189Y-119300000D01*
X38237461Y-119062034D01*
X38181737Y-118829927D01*
X38121735Y-118685071D01*
X38090391Y-118609399D01*
X38084145Y-118599207D01*
X37965668Y-118405868D01*
X37810643Y-118224357D01*
X37629132Y-118069332D01*
X37425605Y-117944611D01*
X37425604Y-117944610D01*
X37425600Y-117944608D01*
X37205068Y-117853261D01*
X36972962Y-117797538D01*
X36972963Y-117797538D01*
X36735000Y-117778811D01*
X36497036Y-117797538D01*
X36264931Y-117853261D01*
X36044399Y-117944608D01*
X35840867Y-118069332D01*
X35659357Y-118224357D01*
X35504332Y-118405867D01*
X35379608Y-118609399D01*
X35288261Y-118829931D01*
X35232538Y-119062036D01*
X35213811Y-119300000D01*
X30854076Y-119300000D01*
X30831386Y-119093782D01*
X30762872Y-118831712D01*
X30656930Y-118582410D01*
X30515818Y-118351190D01*
X30476434Y-118303865D01*
X30342546Y-118142980D01*
X30342540Y-118142975D01*
X30140802Y-117962218D01*
X29914892Y-117812757D01*
X29882427Y-117797538D01*
X29669624Y-117697780D01*
X29669619Y-117697778D01*
X29669614Y-117697776D01*
X29410242Y-117619742D01*
X29410228Y-117619739D01*
X29294591Y-117602721D01*
X29142239Y-117580300D01*
X28939169Y-117580300D01*
X28939164Y-117580300D01*
X28736644Y-117595123D01*
X28736631Y-117595125D01*
X28472253Y-117654017D01*
X28472246Y-117654020D01*
X28219239Y-117750787D01*
X27983026Y-117883357D01*
X27768622Y-118048912D01*
X27580622Y-118243909D01*
X27580616Y-118243916D01*
X27423002Y-118464219D01*
X27422999Y-118464224D01*
X27299150Y-118705109D01*
X27299143Y-118705127D01*
X27211684Y-118961485D01*
X27211681Y-118961499D01*
X27199641Y-119026683D01*
X27162919Y-119225499D01*
X27162481Y-119227868D01*
X27162480Y-119227875D01*
X27152587Y-119498563D01*
X22860000Y-119498563D01*
X22860000Y-114220000D01*
X35214312Y-114220000D01*
X35233033Y-114457883D01*
X35288742Y-114689925D01*
X35380056Y-114910378D01*
X35498229Y-115103216D01*
X36251922Y-114349523D01*
X36275507Y-114429844D01*
X36353239Y-114550798D01*
X36461900Y-114644952D01*
X36592685Y-114704680D01*
X36602466Y-114706086D01*
X35851782Y-115456769D01*
X35851782Y-115456770D01*
X36044621Y-115574943D01*
X36265075Y-115666257D01*
X36265072Y-115666257D01*
X36497116Y-115721966D01*
X36735000Y-115740687D01*
X36972883Y-115721966D01*
X37204925Y-115666257D01*
X37425374Y-115574944D01*
X37618216Y-115456769D01*
X36867534Y-114706086D01*
X36877315Y-114704680D01*
X37008100Y-114644952D01*
X37116761Y-114550798D01*
X37194493Y-114429844D01*
X37218076Y-114349523D01*
X37971769Y-115103216D01*
X38089944Y-114910374D01*
X38181257Y-114689925D01*
X38236966Y-114457883D01*
X38255687Y-114220000D01*
X38236966Y-113982116D01*
X38181257Y-113750074D01*
X38089943Y-113529621D01*
X37971769Y-113336782D01*
X37218076Y-114090475D01*
X37194493Y-114010156D01*
X37116761Y-113889202D01*
X37008100Y-113795048D01*
X36877315Y-113735320D01*
X36867533Y-113733913D01*
X37618216Y-112983229D01*
X37425378Y-112865056D01*
X37204924Y-112773742D01*
X37204927Y-112773742D01*
X36972883Y-112718033D01*
X36735000Y-112699312D01*
X36497116Y-112718033D01*
X36265074Y-112773742D01*
X36044621Y-112865056D01*
X35851782Y-112983229D01*
X36602467Y-113733913D01*
X36592685Y-113735320D01*
X36461900Y-113795048D01*
X36353239Y-113889202D01*
X36275507Y-114010156D01*
X36251923Y-114090476D01*
X35498229Y-113336782D01*
X35380056Y-113529621D01*
X35288742Y-113750074D01*
X35233033Y-113982116D01*
X35214312Y-114220000D01*
X22860000Y-114220000D01*
X22860000Y-111963201D01*
X28133437Y-111963201D01*
X28153650Y-112194244D01*
X28153651Y-112194251D01*
X28213678Y-112418274D01*
X28213679Y-112418276D01*
X28213680Y-112418279D01*
X28311699Y-112628482D01*
X28444730Y-112818469D01*
X28608731Y-112982470D01*
X28798718Y-113115501D01*
X29008921Y-113213520D01*
X29232950Y-113273549D01*
X29397985Y-113287987D01*
X29463998Y-113293763D01*
X29464000Y-113293763D01*
X29464002Y-113293763D01*
X29521762Y-113288709D01*
X29695050Y-113273549D01*
X29919079Y-113213520D01*
X30129282Y-113115501D01*
X30319269Y-112982470D01*
X30483270Y-112818469D01*
X30616301Y-112628482D01*
X30714320Y-112418279D01*
X30774349Y-112194250D01*
X30794563Y-111963200D01*
X30789962Y-111910615D01*
X30784370Y-111846694D01*
X30774349Y-111732150D01*
X30714320Y-111508121D01*
X30616301Y-111297919D01*
X30616299Y-111297916D01*
X30616298Y-111297914D01*
X30483273Y-111107935D01*
X30483268Y-111107929D01*
X30319269Y-110943930D01*
X30319263Y-110943926D01*
X30129282Y-110810899D01*
X29919079Y-110712880D01*
X29919076Y-110712879D01*
X29919074Y-110712878D01*
X29695051Y-110652851D01*
X29695044Y-110652850D01*
X29464002Y-110632637D01*
X29463998Y-110632637D01*
X29232955Y-110652850D01*
X29232948Y-110652851D01*
X29008917Y-110712881D01*
X28798718Y-110810899D01*
X28798714Y-110810901D01*
X28608735Y-110943926D01*
X28608729Y-110943931D01*
X28444731Y-111107929D01*
X28444726Y-111107935D01*
X28311701Y-111297914D01*
X28311699Y-111297918D01*
X28213681Y-111508117D01*
X28153651Y-111732148D01*
X28153650Y-111732155D01*
X28133437Y-111963198D01*
X28133437Y-111963201D01*
X22860000Y-111963201D01*
X22860000Y-106948835D01*
X27709818Y-106948835D01*
X27739194Y-107209545D01*
X27739194Y-107209549D01*
X27803144Y-107448212D01*
X27807100Y-107462975D01*
X27912017Y-107703447D01*
X28051602Y-107925597D01*
X28051605Y-107925600D01*
X28051607Y-107925603D01*
X28179890Y-108074671D01*
X28179890Y-108074670D01*
X28179898Y-108074679D01*
X28256887Y-108151668D01*
X28304670Y-108199451D01*
X28371617Y-108271604D01*
X28448579Y-108332978D01*
X28523203Y-108397198D01*
X28548087Y-108412833D01*
X28553763Y-108416860D01*
X28576743Y-108435186D01*
X28661997Y-108484407D01*
X28721176Y-108521591D01*
X28745351Y-108536782D01*
X28772295Y-108548537D01*
X28778500Y-108551670D01*
X28803957Y-108566368D01*
X28803958Y-108566368D01*
X28803961Y-108566370D01*
X28803963Y-108566371D01*
X28861449Y-108588932D01*
X28895600Y-108602335D01*
X28985825Y-108641700D01*
X29014220Y-108649308D01*
X29020819Y-108651480D01*
X29037749Y-108658124D01*
X29048184Y-108662220D01*
X29048189Y-108662221D01*
X29048192Y-108662222D01*
X29052210Y-108663139D01*
X29144169Y-108684128D01*
X29239250Y-108709605D01*
X29268456Y-108712895D01*
X29275301Y-108714058D01*
X29303970Y-108720602D01*
X29303975Y-108720602D01*
X29303978Y-108720603D01*
X29402137Y-108727958D01*
X29499963Y-108738981D01*
X29598331Y-108735300D01*
X37577557Y-108735300D01*
X37644596Y-108754985D01*
X37665238Y-108771619D01*
X44408270Y-115514651D01*
X44475217Y-115586804D01*
X44552179Y-115648178D01*
X44626803Y-115712398D01*
X44642031Y-115721966D01*
X44651687Y-115728033D01*
X44657363Y-115732060D01*
X44666314Y-115739198D01*
X44680343Y-115750386D01*
X44765597Y-115799607D01*
X44848953Y-115851983D01*
X44875883Y-115863732D01*
X44875895Y-115863737D01*
X44882100Y-115866870D01*
X44907557Y-115881568D01*
X44907558Y-115881568D01*
X44907561Y-115881570D01*
X44907563Y-115881571D01*
X44999200Y-115917535D01*
X45089425Y-115956900D01*
X45117820Y-115964508D01*
X45124419Y-115966680D01*
X45124422Y-115966681D01*
X45151784Y-115977420D01*
X45151789Y-115977421D01*
X45151792Y-115977422D01*
X45247769Y-115999328D01*
X45342850Y-116024805D01*
X45372056Y-116028095D01*
X45378901Y-116029258D01*
X45407570Y-116035802D01*
X45407575Y-116035802D01*
X45407578Y-116035803D01*
X45505737Y-116043158D01*
X45603563Y-116054181D01*
X45701931Y-116050500D01*
X47991557Y-116050500D01*
X48058596Y-116070185D01*
X48079238Y-116086819D01*
X48903096Y-116910677D01*
X48936581Y-116972000D01*
X48931597Y-117041692D01*
X48889725Y-117097625D01*
X48824261Y-117122042D01*
X48762783Y-117110634D01*
X48720320Y-117090728D01*
X48720313Y-117090726D01*
X48460942Y-117012692D01*
X48460928Y-117012689D01*
X48345291Y-116995671D01*
X48192939Y-116973250D01*
X47989869Y-116973250D01*
X47989864Y-116973250D01*
X47787344Y-116988073D01*
X47787331Y-116988075D01*
X47522953Y-117046967D01*
X47522946Y-117046970D01*
X47269939Y-117143737D01*
X47033726Y-117276307D01*
X47033724Y-117276308D01*
X47033723Y-117276309D01*
X46971393Y-117324438D01*
X46819322Y-117441862D01*
X46631322Y-117636859D01*
X46631316Y-117636866D01*
X46473702Y-117857169D01*
X46473699Y-117857174D01*
X46349850Y-118098059D01*
X46349843Y-118098077D01*
X46262384Y-118354435D01*
X46262381Y-118354449D01*
X46242105Y-118464224D01*
X46217307Y-118598482D01*
X46213181Y-118620818D01*
X46213180Y-118620825D01*
X46203287Y-118891513D01*
X46232913Y-119160763D01*
X46232915Y-119160774D01*
X46285793Y-119363035D01*
X46301428Y-119422838D01*
X46407370Y-119672140D01*
X46546501Y-119900114D01*
X46548479Y-119903355D01*
X46548486Y-119903365D01*
X46721753Y-120111569D01*
X46721759Y-120111574D01*
X46855106Y-120231053D01*
X46923498Y-120292332D01*
X47149410Y-120441794D01*
X47394676Y-120556770D01*
X47394683Y-120556772D01*
X47394685Y-120556773D01*
X47654057Y-120634807D01*
X47654064Y-120634808D01*
X47654069Y-120634810D01*
X47922061Y-120674250D01*
X47922066Y-120674250D01*
X48125136Y-120674250D01*
X48176633Y-120670480D01*
X48327656Y-120659427D01*
X48440258Y-120634343D01*
X48592046Y-120600532D01*
X48592048Y-120600531D01*
X48592053Y-120600530D01*
X48845058Y-120503764D01*
X49081277Y-120371191D01*
X49295677Y-120205638D01*
X49483686Y-120010631D01*
X49641299Y-119790329D01*
X49721815Y-119633724D01*
X49765149Y-119549440D01*
X49765151Y-119549434D01*
X49765156Y-119549425D01*
X49852618Y-119293055D01*
X49901819Y-119026683D01*
X49911712Y-118755985D01*
X49882086Y-118486732D01*
X49813572Y-118224662D01*
X49765146Y-118110708D01*
X49757044Y-118041312D01*
X49787747Y-117978550D01*
X49847508Y-117942350D01*
X49917353Y-117944206D01*
X49966951Y-117974532D01*
X55330270Y-123337851D01*
X55397217Y-123410004D01*
X55474179Y-123471378D01*
X55548800Y-123535596D01*
X55548807Y-123535601D01*
X55573693Y-123551237D01*
X55579370Y-123555265D01*
X55602343Y-123573586D01*
X55687593Y-123622805D01*
X55770954Y-123675184D01*
X55797897Y-123686939D01*
X55804098Y-123690069D01*
X55829557Y-123704768D01*
X55921187Y-123740730D01*
X56011426Y-123780101D01*
X56011427Y-123780101D01*
X56011429Y-123780102D01*
X56039822Y-123787709D01*
X56046430Y-123789883D01*
X56058629Y-123794671D01*
X56073770Y-123800615D01*
X56073774Y-123800616D01*
X56073784Y-123800620D01*
X56169746Y-123822523D01*
X56264850Y-123848006D01*
X56294067Y-123851297D01*
X56300907Y-123852459D01*
X56329570Y-123859002D01*
X56329576Y-123859002D01*
X56329579Y-123859003D01*
X56427729Y-123866357D01*
X56525564Y-123877381D01*
X56623941Y-123873700D01*
X205656469Y-123873700D01*
X205754835Y-123877381D01*
X205754835Y-123877380D01*
X205754836Y-123877381D01*
X205852660Y-123866358D01*
X205950830Y-123859002D01*
X205966867Y-123855341D01*
X205979487Y-123852461D01*
X205986347Y-123851295D01*
X205989242Y-123850968D01*
X206015550Y-123848005D01*
X206078936Y-123831020D01*
X206110631Y-123822528D01*
X206206608Y-123800622D01*
X206206609Y-123800621D01*
X206206616Y-123800620D01*
X206233990Y-123789875D01*
X206240572Y-123787709D01*
X206268975Y-123780100D01*
X206359199Y-123740735D01*
X206450843Y-123704768D01*
X206476319Y-123690057D01*
X206482487Y-123686944D01*
X206509447Y-123675183D01*
X206592802Y-123622807D01*
X206678057Y-123573586D01*
X206701045Y-123555252D01*
X206706692Y-123551245D01*
X206731597Y-123535598D01*
X206806220Y-123471378D01*
X206883169Y-123410015D01*
X206883172Y-123410011D01*
X206883181Y-123410005D01*
X206950130Y-123337850D01*
X207859638Y-122428341D01*
X207931805Y-122361381D01*
X207993191Y-122284405D01*
X208057397Y-122209797D01*
X208073043Y-122184893D01*
X208077049Y-122179248D01*
X208095386Y-122156257D01*
X208144611Y-122070995D01*
X208196983Y-121987647D01*
X208208744Y-121960687D01*
X208211857Y-121954519D01*
X208226568Y-121929043D01*
X208262535Y-121837399D01*
X208301900Y-121747175D01*
X208309509Y-121718772D01*
X208311675Y-121712190D01*
X208322420Y-121684816D01*
X208344327Y-121588834D01*
X208369805Y-121493751D01*
X208373095Y-121464541D01*
X208374257Y-121457700D01*
X208380802Y-121429030D01*
X208388159Y-121330846D01*
X208399180Y-121233037D01*
X208398227Y-121207580D01*
X208395500Y-121134686D01*
X208395500Y-119498563D01*
X267741387Y-119498563D01*
X267771013Y-119767813D01*
X267771015Y-119767824D01*
X267839526Y-120029882D01*
X267839528Y-120029888D01*
X267945470Y-120279190D01*
X268001937Y-120371714D01*
X268086579Y-120510405D01*
X268086586Y-120510415D01*
X268259853Y-120718619D01*
X268259859Y-120718624D01*
X268353427Y-120802461D01*
X268461598Y-120899382D01*
X268687510Y-121048844D01*
X268932776Y-121163820D01*
X268932783Y-121163822D01*
X268932785Y-121163823D01*
X269192157Y-121241857D01*
X269192164Y-121241858D01*
X269192169Y-121241860D01*
X269460161Y-121281300D01*
X269460166Y-121281300D01*
X269663236Y-121281300D01*
X269714733Y-121277530D01*
X269865756Y-121266477D01*
X270015873Y-121233037D01*
X270130146Y-121207582D01*
X270130148Y-121207581D01*
X270130153Y-121207580D01*
X270383158Y-121110814D01*
X270619377Y-120978241D01*
X270833777Y-120812688D01*
X271021786Y-120617681D01*
X271179399Y-120397379D01*
X271270108Y-120220949D01*
X271303249Y-120156490D01*
X271303251Y-120156484D01*
X271303256Y-120156475D01*
X271390718Y-119900105D01*
X271439919Y-119633733D01*
X271449812Y-119363035D01*
X271420186Y-119093782D01*
X271351672Y-118831712D01*
X271245730Y-118582410D01*
X271104618Y-118351190D01*
X271065234Y-118303865D01*
X270931346Y-118142980D01*
X270931340Y-118142975D01*
X270729602Y-117962218D01*
X270503692Y-117812757D01*
X270471227Y-117797538D01*
X270258424Y-117697780D01*
X270258419Y-117697778D01*
X270258414Y-117697776D01*
X269999042Y-117619742D01*
X269999028Y-117619739D01*
X269883391Y-117602721D01*
X269731039Y-117580300D01*
X269527969Y-117580300D01*
X269527964Y-117580300D01*
X269325444Y-117595123D01*
X269325431Y-117595125D01*
X269061053Y-117654017D01*
X269061046Y-117654020D01*
X268808039Y-117750787D01*
X268571826Y-117883357D01*
X268357422Y-118048912D01*
X268169422Y-118243909D01*
X268169416Y-118243916D01*
X268011802Y-118464219D01*
X268011799Y-118464224D01*
X267887950Y-118705109D01*
X267887943Y-118705127D01*
X267800484Y-118961485D01*
X267800481Y-118961499D01*
X267788441Y-119026683D01*
X267751719Y-119225499D01*
X267751281Y-119227868D01*
X267751280Y-119227875D01*
X267741387Y-119498563D01*
X208395500Y-119498563D01*
X208395500Y-117740884D01*
X208415185Y-117673845D01*
X208467989Y-117628090D01*
X208537147Y-117618146D01*
X208600703Y-117647171D01*
X208638477Y-117705949D01*
X208640385Y-117713268D01*
X208665391Y-117822827D01*
X208668500Y-117850416D01*
X208668500Y-118538870D01*
X208668501Y-118538876D01*
X208674908Y-118598483D01*
X208725202Y-118733328D01*
X208725206Y-118733335D01*
X208811452Y-118848544D01*
X208811455Y-118848547D01*
X208926664Y-118934793D01*
X208926671Y-118934797D01*
X208971618Y-118951561D01*
X209061517Y-118985091D01*
X209121127Y-118991500D01*
X209822562Y-118991499D01*
X209859112Y-118997008D01*
X209881063Y-119003779D01*
X209954385Y-119026396D01*
X210213818Y-119065500D01*
X210476182Y-119065500D01*
X210735615Y-119026396D01*
X210814007Y-119002214D01*
X210830888Y-118997008D01*
X210867438Y-118991499D01*
X211248871Y-118991499D01*
X211248872Y-118991499D01*
X211308483Y-118985091D01*
X211443331Y-118934796D01*
X211558546Y-118848546D01*
X211644796Y-118733331D01*
X211695091Y-118598483D01*
X211696819Y-118582410D01*
X211701499Y-118538886D01*
X211701499Y-118538882D01*
X211701500Y-118538873D01*
X211701499Y-118464975D01*
X211721183Y-118397937D01*
X211728547Y-118387669D01*
X211795386Y-118303857D01*
X211926568Y-118076643D01*
X211969074Y-117968338D01*
X212011887Y-117913129D01*
X212077757Y-117889827D01*
X212145767Y-117905837D01*
X212194326Y-117956075D01*
X212208500Y-118013644D01*
X212208500Y-118538870D01*
X212208501Y-118538876D01*
X212214908Y-118598483D01*
X212265202Y-118733328D01*
X212265206Y-118733335D01*
X212351452Y-118848544D01*
X212351455Y-118848547D01*
X212466664Y-118934793D01*
X212466671Y-118934797D01*
X212601517Y-118985091D01*
X212601516Y-118985091D01*
X212608444Y-118985835D01*
X212661127Y-118991500D01*
X214788872Y-118991499D01*
X214848483Y-118985091D01*
X214983331Y-118934796D01*
X215098546Y-118848546D01*
X215184796Y-118733331D01*
X215235091Y-118598483D01*
X215241500Y-118538873D01*
X215241499Y-116411128D01*
X215235091Y-116351517D01*
X215214500Y-116296309D01*
X215185231Y-116217833D01*
X215180247Y-116148141D01*
X215213733Y-116086818D01*
X215275056Y-116053334D01*
X215301413Y-116050500D01*
X215688587Y-116050500D01*
X215755626Y-116070185D01*
X215801381Y-116122989D01*
X215811325Y-116192147D01*
X215804769Y-116217833D01*
X215754908Y-116351517D01*
X215748501Y-116411116D01*
X215748501Y-116411123D01*
X215748500Y-116411135D01*
X215748500Y-118538870D01*
X215748501Y-118538876D01*
X215754908Y-118598483D01*
X215805202Y-118733328D01*
X215805206Y-118733335D01*
X215891452Y-118848544D01*
X215891455Y-118848547D01*
X216006664Y-118934793D01*
X216006671Y-118934797D01*
X216141517Y-118985091D01*
X216141516Y-118985091D01*
X216148444Y-118985835D01*
X216201127Y-118991500D01*
X218328872Y-118991499D01*
X218388483Y-118985091D01*
X218523331Y-118934796D01*
X218638546Y-118848546D01*
X218724796Y-118733331D01*
X218775091Y-118598483D01*
X218781500Y-118538873D01*
X218781499Y-116411128D01*
X218775091Y-116351517D01*
X218754500Y-116296309D01*
X218725231Y-116217833D01*
X218720247Y-116148141D01*
X218753733Y-116086818D01*
X218815056Y-116053334D01*
X218841413Y-116050500D01*
X261587269Y-116050500D01*
X261685635Y-116054181D01*
X261685635Y-116054180D01*
X261685636Y-116054181D01*
X261783460Y-116043158D01*
X261881630Y-116035802D01*
X261897667Y-116032141D01*
X261910287Y-116029261D01*
X261917147Y-116028095D01*
X261920042Y-116027768D01*
X261946350Y-116024805D01*
X262010660Y-116007573D01*
X262041431Y-115999328D01*
X262137408Y-115977422D01*
X262137409Y-115977421D01*
X262137416Y-115977420D01*
X262164790Y-115966675D01*
X262171372Y-115964509D01*
X262199775Y-115956900D01*
X262289999Y-115917535D01*
X262381643Y-115881568D01*
X262407119Y-115866857D01*
X262413287Y-115863744D01*
X262440247Y-115851983D01*
X262523602Y-115799607D01*
X262608857Y-115750386D01*
X262631845Y-115732052D01*
X262637492Y-115728045D01*
X262662397Y-115712398D01*
X262737020Y-115648178D01*
X262813969Y-115586815D01*
X262813971Y-115586812D01*
X262813981Y-115586805D01*
X262880929Y-115514651D01*
X268677151Y-109718429D01*
X268749305Y-109651481D01*
X268757211Y-109641568D01*
X268810678Y-109574520D01*
X268874898Y-109499897D01*
X268890545Y-109474993D01*
X268894558Y-109469337D01*
X268912886Y-109446357D01*
X268962100Y-109361114D01*
X269014484Y-109277747D01*
X269026248Y-109250780D01*
X269029369Y-109244599D01*
X269044068Y-109219143D01*
X269080028Y-109127515D01*
X269119401Y-109037274D01*
X269127010Y-109008873D01*
X269129181Y-109002274D01*
X269139920Y-108974916D01*
X269140187Y-108973749D01*
X269161826Y-108878937D01*
X269187304Y-108783854D01*
X269187305Y-108783850D01*
X269190595Y-108754647D01*
X269191761Y-108747787D01*
X269196287Y-108727958D01*
X269198302Y-108719130D01*
X269205658Y-108620960D01*
X269216681Y-108523136D01*
X269213000Y-108424768D01*
X269213000Y-103991570D01*
X269232685Y-103924531D01*
X269285489Y-103878776D01*
X269354647Y-103868832D01*
X269418203Y-103897857D01*
X269449381Y-103939164D01*
X269497699Y-104042782D01*
X269630730Y-104232769D01*
X269794731Y-104396770D01*
X269984718Y-104529801D01*
X270194921Y-104627820D01*
X270418950Y-104687849D01*
X270583985Y-104702287D01*
X270649998Y-104708063D01*
X270650000Y-104708063D01*
X270650002Y-104708063D01*
X270707762Y-104703009D01*
X270881050Y-104687849D01*
X271105079Y-104627820D01*
X271315282Y-104529801D01*
X271505269Y-104396770D01*
X271669270Y-104232769D01*
X271802301Y-104042782D01*
X271900320Y-103832579D01*
X271960349Y-103608550D01*
X271980563Y-103377500D01*
X271960349Y-103146450D01*
X271900320Y-102922421D01*
X271802301Y-102712219D01*
X271802299Y-102712216D01*
X271802298Y-102712214D01*
X271669273Y-102522235D01*
X271669268Y-102522229D01*
X271505269Y-102358230D01*
X271479914Y-102340476D01*
X271315282Y-102225199D01*
X271105079Y-102127180D01*
X271105076Y-102127179D01*
X271105074Y-102127178D01*
X270881051Y-102067151D01*
X270881044Y-102067150D01*
X270650002Y-102046937D01*
X270649998Y-102046937D01*
X270418955Y-102067150D01*
X270418948Y-102067151D01*
X270194917Y-102127181D01*
X269984718Y-102225199D01*
X269984714Y-102225201D01*
X269794735Y-102358226D01*
X269794729Y-102358231D01*
X269630731Y-102522229D01*
X269630726Y-102522235D01*
X269497701Y-102712214D01*
X269497699Y-102712218D01*
X269449382Y-102815835D01*
X269403210Y-102868274D01*
X269336016Y-102887426D01*
X269269135Y-102867210D01*
X269223800Y-102814045D01*
X269213000Y-102763430D01*
X269213000Y-100172000D01*
X269232685Y-100104961D01*
X269285489Y-100059206D01*
X269337000Y-100048000D01*
X270715500Y-100048000D01*
X270911620Y-100033303D01*
X270911622Y-100033302D01*
X270911630Y-100033302D01*
X271167416Y-99974920D01*
X271411643Y-99879068D01*
X271638857Y-99747886D01*
X271843981Y-99584305D01*
X271844863Y-99583355D01*
X271949735Y-99470329D01*
X272022433Y-99391979D01*
X272170228Y-99175204D01*
X272284063Y-98938823D01*
X272361396Y-98688115D01*
X272400500Y-98428682D01*
X272400500Y-98166318D01*
X272361396Y-97906885D01*
X272284063Y-97656177D01*
X272256567Y-97599081D01*
X272170232Y-97419803D01*
X272170231Y-97419802D01*
X272170230Y-97419801D01*
X272170228Y-97419796D01*
X272022433Y-97203021D01*
X272002389Y-97181419D01*
X271843985Y-97010698D01*
X271775783Y-96956309D01*
X271638857Y-96847114D01*
X271411643Y-96715932D01*
X271167416Y-96620080D01*
X271167411Y-96620078D01*
X271167402Y-96620076D01*
X270949818Y-96570414D01*
X270911630Y-96561698D01*
X270911629Y-96561697D01*
X270911625Y-96561697D01*
X270911620Y-96561696D01*
X270715500Y-96547000D01*
X270715494Y-96547000D01*
X267593682Y-96547000D01*
X267331318Y-96547000D01*
X267331308Y-96547000D01*
X267268663Y-96556443D01*
X267264056Y-96556962D01*
X267225413Y-96559858D01*
X267200870Y-96561698D01*
X267184468Y-96565441D01*
X267139092Y-96575797D01*
X267134538Y-96576659D01*
X267094027Y-96582766D01*
X267071885Y-96586104D01*
X267071880Y-96586105D01*
X267071876Y-96586106D01*
X267011343Y-96604778D01*
X267006864Y-96605978D01*
X266945093Y-96620077D01*
X266945079Y-96620081D01*
X266886093Y-96643231D01*
X266881717Y-96644762D01*
X266821183Y-96663434D01*
X266821160Y-96663443D01*
X266764081Y-96690931D01*
X266759832Y-96692785D01*
X266700858Y-96715931D01*
X266645984Y-96747611D01*
X266641886Y-96749777D01*
X266584795Y-96777272D01*
X266584790Y-96777274D01*
X266532445Y-96812963D01*
X266528519Y-96815430D01*
X266473649Y-96847109D01*
X266424100Y-96886622D01*
X266420370Y-96889374D01*
X266368022Y-96925066D01*
X266368014Y-96925072D01*
X266321571Y-96968164D01*
X266318058Y-96971188D01*
X266268520Y-97010693D01*
X266225420Y-97057142D01*
X266222142Y-97060420D01*
X266175693Y-97103520D01*
X266136188Y-97153058D01*
X266133164Y-97156571D01*
X266090072Y-97203014D01*
X266090066Y-97203022D01*
X266054374Y-97255370D01*
X266051622Y-97259100D01*
X266012109Y-97308649D01*
X265980430Y-97363519D01*
X265977963Y-97367445D01*
X265942274Y-97419790D01*
X265942272Y-97419795D01*
X265914777Y-97476886D01*
X265912611Y-97480984D01*
X265880931Y-97535858D01*
X265857785Y-97594832D01*
X265855931Y-97599081D01*
X265828443Y-97656160D01*
X265828434Y-97656183D01*
X265809762Y-97716717D01*
X265808231Y-97721093D01*
X265785081Y-97780079D01*
X265785077Y-97780093D01*
X265770978Y-97841864D01*
X265769778Y-97846343D01*
X265751106Y-97906876D01*
X265751105Y-97906880D01*
X265751104Y-97906885D01*
X265747766Y-97929027D01*
X265741659Y-97969538D01*
X265740797Y-97974092D01*
X265732603Y-98009997D01*
X265727023Y-98034449D01*
X265726698Y-98035872D01*
X265726698Y-98035873D01*
X265721962Y-98099056D01*
X265721443Y-98103663D01*
X265712000Y-98166308D01*
X265712000Y-107681057D01*
X265692315Y-107748096D01*
X265675681Y-107768738D01*
X260931238Y-112513181D01*
X260869915Y-112546666D01*
X260843557Y-112549500D01*
X211000731Y-112549500D01*
X210902362Y-112545818D01*
X210902361Y-112545818D01*
X210804537Y-112556841D01*
X210706375Y-112564196D01*
X210706372Y-112564197D01*
X210677703Y-112570739D01*
X210670849Y-112571903D01*
X210641651Y-112575194D01*
X210641649Y-112575194D01*
X210558687Y-112597424D01*
X210546569Y-112600671D01*
X210450584Y-112622580D01*
X210450580Y-112622581D01*
X210450578Y-112622582D01*
X210436407Y-112628143D01*
X210423215Y-112633320D01*
X210416612Y-112635493D01*
X210388228Y-112643098D01*
X210388223Y-112643100D01*
X210298000Y-112682464D01*
X210206360Y-112718430D01*
X210180895Y-112733131D01*
X210174689Y-112736264D01*
X210147754Y-112748016D01*
X210147742Y-112748022D01*
X210064398Y-112800391D01*
X209979137Y-112849617D01*
X209956164Y-112867937D01*
X209950493Y-112871961D01*
X209925604Y-112887600D01*
X209850979Y-112951821D01*
X209774019Y-113013194D01*
X209774016Y-113013197D01*
X209707070Y-113085348D01*
X209130348Y-113662070D01*
X209058197Y-113729016D01*
X209058194Y-113729019D01*
X208996821Y-113805979D01*
X208932600Y-113880604D01*
X208916961Y-113905493D01*
X208912937Y-113911164D01*
X208894617Y-113934137D01*
X208845391Y-114019398D01*
X208793022Y-114102742D01*
X208793016Y-114102754D01*
X208781264Y-114129689D01*
X208778131Y-114135895D01*
X208763430Y-114161360D01*
X208727464Y-114253000D01*
X208688100Y-114343223D01*
X208688098Y-114343228D01*
X208680493Y-114371612D01*
X208678320Y-114378215D01*
X208667580Y-114405584D01*
X208662043Y-114429844D01*
X208645671Y-114501569D01*
X208620194Y-114596649D01*
X208620194Y-114596651D01*
X208616903Y-114625849D01*
X208615739Y-114632703D01*
X208609197Y-114661372D01*
X208609196Y-114661375D01*
X208601841Y-114759539D01*
X208590818Y-114857364D01*
X208594500Y-114955731D01*
X208594500Y-117049113D01*
X208574815Y-117116152D01*
X208522011Y-117161907D01*
X208452853Y-117171851D01*
X208389297Y-117142826D01*
X208351523Y-117084048D01*
X208349609Y-117076705D01*
X208322423Y-116957597D01*
X208322422Y-116957596D01*
X208322420Y-116957584D01*
X208226568Y-116713357D01*
X208178112Y-116629428D01*
X208161499Y-116567428D01*
X208161499Y-116411129D01*
X208161498Y-116411123D01*
X208161497Y-116411116D01*
X208155091Y-116351517D01*
X208112875Y-116238331D01*
X208104797Y-116216671D01*
X208104793Y-116216664D01*
X208018547Y-116101455D01*
X208018544Y-116101452D01*
X207903335Y-116015206D01*
X207903328Y-116015202D01*
X207768482Y-115964908D01*
X207768483Y-115964908D01*
X207708883Y-115958501D01*
X207708881Y-115958500D01*
X207708873Y-115958500D01*
X207708865Y-115958500D01*
X207558747Y-115958500D01*
X207504946Y-115946220D01*
X207286325Y-115840938D01*
X207286327Y-115840938D01*
X207035623Y-115763606D01*
X207035619Y-115763605D01*
X207035615Y-115763604D01*
X206910823Y-115744794D01*
X206776187Y-115724500D01*
X206776182Y-115724500D01*
X206513818Y-115724500D01*
X206513812Y-115724500D01*
X206352247Y-115748853D01*
X206254385Y-115763604D01*
X206254382Y-115763605D01*
X206254376Y-115763606D01*
X206003673Y-115840938D01*
X205785053Y-115946220D01*
X205731253Y-115958500D01*
X205581130Y-115958500D01*
X205581123Y-115958501D01*
X205521516Y-115964908D01*
X205386671Y-116015202D01*
X205386664Y-116015206D01*
X205271455Y-116101452D01*
X205238766Y-116145119D01*
X205182832Y-116186989D01*
X205113140Y-116191973D01*
X205051817Y-116158487D01*
X205018333Y-116097163D01*
X205015500Y-116070807D01*
X205015500Y-111154327D01*
X205019180Y-111055977D01*
X205008159Y-110958168D01*
X205000803Y-110859993D01*
X205000802Y-110859986D01*
X204997454Y-110845320D01*
X204994257Y-110831312D01*
X204993094Y-110824459D01*
X204989805Y-110795264D01*
X204964328Y-110700183D01*
X204948911Y-110632637D01*
X204942422Y-110604206D01*
X204942419Y-110604196D01*
X204931680Y-110576833D01*
X204929508Y-110570234D01*
X204921900Y-110541839D01*
X204882535Y-110451614D01*
X204846571Y-110359977D01*
X204846570Y-110359975D01*
X204839429Y-110347607D01*
X204831870Y-110334514D01*
X204828737Y-110328309D01*
X204823743Y-110316863D01*
X204816983Y-110301367D01*
X204764607Y-110218011D01*
X204715386Y-110132757D01*
X204697060Y-110109777D01*
X204693033Y-110104101D01*
X204677398Y-110079217D01*
X204663141Y-110062651D01*
X204613184Y-110004601D01*
X204599058Y-109986887D01*
X204551805Y-109927633D01*
X204551803Y-109927631D01*
X204551804Y-109927631D01*
X204479637Y-109860671D01*
X203683744Y-109064778D01*
X255694500Y-109064778D01*
X255704969Y-109127515D01*
X255733930Y-109301067D01*
X255811711Y-109527637D01*
X255811713Y-109527642D01*
X255925730Y-109738325D01*
X255925734Y-109738331D01*
X256022466Y-109862612D01*
X256072866Y-109927366D01*
X256249113Y-110089612D01*
X256449660Y-110220636D01*
X256669038Y-110316864D01*
X256901263Y-110375672D01*
X257080213Y-110390500D01*
X257080215Y-110390500D01*
X257199785Y-110390500D01*
X257199787Y-110390500D01*
X257378737Y-110375672D01*
X257610962Y-110316864D01*
X257830340Y-110220636D01*
X258030887Y-110089612D01*
X258207134Y-109927366D01*
X258354271Y-109738323D01*
X258468287Y-109527641D01*
X258546070Y-109301065D01*
X258585500Y-109064778D01*
X258585500Y-108825222D01*
X258546070Y-108588935D01*
X258538323Y-108566370D01*
X258468288Y-108362362D01*
X258468286Y-108362357D01*
X258419173Y-108271605D01*
X258354271Y-108151677D01*
X258354269Y-108151674D01*
X258354265Y-108151668D01*
X258207139Y-107962641D01*
X258207134Y-107962634D01*
X258030887Y-107800388D01*
X258030884Y-107800386D01*
X258030883Y-107800385D01*
X257926853Y-107732419D01*
X257830340Y-107669364D01*
X257830337Y-107669362D01*
X257830336Y-107669362D01*
X257610963Y-107573136D01*
X257378737Y-107514328D01*
X257378740Y-107514328D01*
X257271367Y-107505431D01*
X257199787Y-107499500D01*
X257080213Y-107499500D01*
X257008633Y-107505431D01*
X256901260Y-107514328D01*
X256669036Y-107573136D01*
X256449663Y-107669362D01*
X256249116Y-107800385D01*
X256072869Y-107962631D01*
X256072860Y-107962641D01*
X255925734Y-108151668D01*
X255925730Y-108151674D01*
X255811713Y-108362357D01*
X255811711Y-108362362D01*
X255733930Y-108588932D01*
X255708891Y-108738980D01*
X255694500Y-108825222D01*
X255694500Y-109064778D01*
X203683744Y-109064778D01*
X198836836Y-104217870D01*
X256479500Y-104217870D01*
X256479501Y-104217876D01*
X256485908Y-104277483D01*
X256536202Y-104412328D01*
X256536206Y-104412335D01*
X256622452Y-104527544D01*
X256622455Y-104527547D01*
X256737664Y-104613793D01*
X256737671Y-104613797D01*
X256872517Y-104664091D01*
X256872516Y-104664091D01*
X256879444Y-104664835D01*
X256932127Y-104670500D01*
X258893172Y-104670499D01*
X258960211Y-104690184D01*
X259005966Y-104742987D01*
X259008600Y-104749196D01*
X259058468Y-104876255D01*
X259068432Y-104901643D01*
X259199614Y-105128857D01*
X259323337Y-105284001D01*
X259363198Y-105333985D01*
X259526162Y-105485192D01*
X259555521Y-105512433D01*
X259772296Y-105660228D01*
X259772301Y-105660230D01*
X259772302Y-105660231D01*
X259772303Y-105660232D01*
X259897843Y-105720688D01*
X260008673Y-105774061D01*
X260008674Y-105774061D01*
X260008677Y-105774063D01*
X260259385Y-105851396D01*
X260518818Y-105890500D01*
X260781182Y-105890500D01*
X261040615Y-105851396D01*
X261291323Y-105774063D01*
X261527704Y-105660228D01*
X261744479Y-105512433D01*
X261936805Y-105333981D01*
X262100386Y-105128857D01*
X262231568Y-104901643D01*
X262291399Y-104749193D01*
X262334213Y-104693983D01*
X262400083Y-104670682D01*
X262406826Y-104670499D01*
X264367871Y-104670499D01*
X264367872Y-104670499D01*
X264427483Y-104664091D01*
X264562331Y-104613796D01*
X264677546Y-104527546D01*
X264763796Y-104412331D01*
X264814091Y-104277483D01*
X264820500Y-104217873D01*
X264820499Y-97772128D01*
X264814781Y-97718940D01*
X264814091Y-97712516D01*
X264763797Y-97577671D01*
X264763793Y-97577664D01*
X264677547Y-97462455D01*
X264677544Y-97462452D01*
X264562335Y-97376206D01*
X264562328Y-97376202D01*
X264427482Y-97325908D01*
X264427483Y-97325908D01*
X264367883Y-97319501D01*
X264367881Y-97319500D01*
X264367873Y-97319500D01*
X264367865Y-97319500D01*
X262524500Y-97319500D01*
X262457461Y-97299815D01*
X262411706Y-97247011D01*
X262400500Y-97195500D01*
X262400500Y-93217501D01*
X269319437Y-93217501D01*
X269339650Y-93448544D01*
X269339651Y-93448551D01*
X269399678Y-93672574D01*
X269399679Y-93672576D01*
X269399680Y-93672579D01*
X269497699Y-93882782D01*
X269630730Y-94072769D01*
X269794731Y-94236770D01*
X269984718Y-94369801D01*
X270194921Y-94467820D01*
X270418950Y-94527849D01*
X270583985Y-94542287D01*
X270649998Y-94548063D01*
X270650000Y-94548063D01*
X270650002Y-94548063D01*
X270707762Y-94543009D01*
X270881050Y-94527849D01*
X271105079Y-94467820D01*
X271315282Y-94369801D01*
X271505269Y-94236770D01*
X271669270Y-94072769D01*
X271802301Y-93882782D01*
X271900320Y-93672579D01*
X271960349Y-93448550D01*
X271980563Y-93217500D01*
X271979288Y-93202931D01*
X271966576Y-93057628D01*
X271960349Y-92986450D01*
X271900320Y-92762421D01*
X271802301Y-92552219D01*
X271802299Y-92552216D01*
X271802298Y-92552214D01*
X271669273Y-92362235D01*
X271669268Y-92362229D01*
X271505269Y-92198230D01*
X271454433Y-92162634D01*
X271315282Y-92065199D01*
X271105079Y-91967180D01*
X271105076Y-91967179D01*
X271105074Y-91967178D01*
X270881051Y-91907151D01*
X270881044Y-91907150D01*
X270650002Y-91886937D01*
X270649998Y-91886937D01*
X270418955Y-91907150D01*
X270418948Y-91907151D01*
X270194917Y-91967181D01*
X269984718Y-92065199D01*
X269984714Y-92065201D01*
X269794735Y-92198226D01*
X269794729Y-92198231D01*
X269630731Y-92362229D01*
X269630726Y-92362235D01*
X269497701Y-92552214D01*
X269497699Y-92552218D01*
X269399681Y-92762417D01*
X269339651Y-92986448D01*
X269339650Y-92986455D01*
X269319437Y-93217498D01*
X269319437Y-93217501D01*
X262400500Y-93217501D01*
X262400500Y-89010370D01*
X269324500Y-89010370D01*
X269324501Y-89010376D01*
X269330908Y-89069983D01*
X269381202Y-89204828D01*
X269381206Y-89204835D01*
X269467452Y-89320044D01*
X269467455Y-89320047D01*
X269582664Y-89406293D01*
X269582671Y-89406297D01*
X269717517Y-89456591D01*
X269717516Y-89456591D01*
X269724444Y-89457335D01*
X269777127Y-89463000D01*
X271522872Y-89462999D01*
X271582483Y-89456591D01*
X271717331Y-89406296D01*
X271832546Y-89320046D01*
X271918796Y-89204831D01*
X271969091Y-89069983D01*
X271975500Y-89010373D01*
X271975499Y-87264628D01*
X271969091Y-87205017D01*
X271956595Y-87171514D01*
X271918797Y-87070171D01*
X271918793Y-87070164D01*
X271832547Y-86954955D01*
X271832544Y-86954952D01*
X271717335Y-86868706D01*
X271717328Y-86868702D01*
X271582482Y-86818408D01*
X271582483Y-86818408D01*
X271522883Y-86812001D01*
X271522881Y-86812000D01*
X271522873Y-86812000D01*
X271522864Y-86812000D01*
X269777129Y-86812000D01*
X269777123Y-86812001D01*
X269717516Y-86818408D01*
X269582671Y-86868702D01*
X269582664Y-86868706D01*
X269467455Y-86954952D01*
X269467452Y-86954955D01*
X269381206Y-87070164D01*
X269381202Y-87070171D01*
X269330908Y-87205017D01*
X269326814Y-87243100D01*
X269324501Y-87264623D01*
X269324500Y-87264635D01*
X269324500Y-89010370D01*
X262400500Y-89010370D01*
X262400500Y-85684499D01*
X262420185Y-85617460D01*
X262472989Y-85571705D01*
X262524500Y-85560499D01*
X264367871Y-85560499D01*
X264367872Y-85560499D01*
X264427483Y-85554091D01*
X264562331Y-85503796D01*
X264677546Y-85417546D01*
X264763796Y-85302331D01*
X264814091Y-85167483D01*
X264820500Y-85107873D01*
X264820499Y-79742763D01*
X268997787Y-79742763D01*
X269027413Y-80012013D01*
X269027415Y-80012024D01*
X269086797Y-80239162D01*
X269095928Y-80274088D01*
X269201870Y-80523390D01*
X269299091Y-80682692D01*
X269342979Y-80754605D01*
X269342986Y-80754615D01*
X269516253Y-80962819D01*
X269516259Y-80962824D01*
X269632235Y-81066738D01*
X269717998Y-81143582D01*
X269943910Y-81293044D01*
X270189176Y-81408020D01*
X270189183Y-81408022D01*
X270189185Y-81408023D01*
X270448557Y-81486057D01*
X270448564Y-81486058D01*
X270448569Y-81486060D01*
X270716561Y-81525500D01*
X270716566Y-81525500D01*
X270919636Y-81525500D01*
X270971133Y-81521730D01*
X271122156Y-81510677D01*
X271234758Y-81485593D01*
X271386546Y-81451782D01*
X271386548Y-81451781D01*
X271386553Y-81451780D01*
X271639558Y-81355014D01*
X271875777Y-81222441D01*
X272090177Y-81056888D01*
X272278186Y-80861881D01*
X272435799Y-80641579D01*
X272515493Y-80486572D01*
X272559649Y-80400690D01*
X272559651Y-80400684D01*
X272559656Y-80400675D01*
X272647118Y-80144305D01*
X272696319Y-79877933D01*
X272706212Y-79607235D01*
X272676586Y-79337982D01*
X272608072Y-79075912D01*
X272502130Y-78826610D01*
X272361018Y-78595390D01*
X272277281Y-78494769D01*
X272187746Y-78387180D01*
X272187740Y-78387175D01*
X271986002Y-78206418D01*
X271760092Y-78056957D01*
X271760090Y-78056956D01*
X271514824Y-77941980D01*
X271514819Y-77941978D01*
X271514814Y-77941976D01*
X271255442Y-77863942D01*
X271255428Y-77863939D01*
X271139791Y-77846921D01*
X270987439Y-77824500D01*
X270784369Y-77824500D01*
X270784364Y-77824500D01*
X270581844Y-77839323D01*
X270581831Y-77839325D01*
X270317453Y-77898217D01*
X270317446Y-77898220D01*
X270064439Y-77994987D01*
X269828226Y-78127557D01*
X269828224Y-78127558D01*
X269828223Y-78127559D01*
X269799043Y-78150091D01*
X269613822Y-78293112D01*
X269425822Y-78488109D01*
X269425816Y-78488116D01*
X269268202Y-78708419D01*
X269268199Y-78708424D01*
X269144350Y-78949309D01*
X269144343Y-78949327D01*
X269056884Y-79205685D01*
X269056881Y-79205699D01*
X269050930Y-79237917D01*
X269009245Y-79463603D01*
X269007681Y-79472068D01*
X269007680Y-79472075D01*
X268997787Y-79742763D01*
X264820499Y-79742763D01*
X264820499Y-78662128D01*
X264814091Y-78602517D01*
X264811434Y-78595394D01*
X264763797Y-78467671D01*
X264763793Y-78467664D01*
X264677547Y-78352455D01*
X264677544Y-78352452D01*
X264562335Y-78266206D01*
X264562328Y-78266202D01*
X264427482Y-78215908D01*
X264427483Y-78215908D01*
X264367883Y-78209501D01*
X264367881Y-78209500D01*
X264367873Y-78209500D01*
X264367864Y-78209500D01*
X256932129Y-78209500D01*
X256932123Y-78209501D01*
X256872516Y-78215908D01*
X256737671Y-78266202D01*
X256737664Y-78266206D01*
X256622455Y-78352452D01*
X256622452Y-78352455D01*
X256536206Y-78467664D01*
X256536202Y-78467671D01*
X256485908Y-78602517D01*
X256480073Y-78656798D01*
X256479501Y-78662123D01*
X256479500Y-78662135D01*
X256479500Y-85107870D01*
X256479501Y-85107876D01*
X256485908Y-85167483D01*
X256536202Y-85302328D01*
X256536206Y-85302335D01*
X256622452Y-85417544D01*
X256622455Y-85417547D01*
X256737664Y-85503793D01*
X256737671Y-85503797D01*
X256872517Y-85554091D01*
X256872516Y-85554091D01*
X256879444Y-85554835D01*
X256932127Y-85560500D01*
X258775500Y-85560499D01*
X258842539Y-85580184D01*
X258888294Y-85632987D01*
X258899500Y-85684499D01*
X258899500Y-97195500D01*
X258879815Y-97262539D01*
X258827011Y-97308294D01*
X258775500Y-97319500D01*
X256932129Y-97319500D01*
X256932123Y-97319501D01*
X256872516Y-97325908D01*
X256737671Y-97376202D01*
X256737664Y-97376206D01*
X256622455Y-97462452D01*
X256622452Y-97462455D01*
X256536206Y-97577664D01*
X256536202Y-97577671D01*
X256485908Y-97712517D01*
X256479501Y-97772116D01*
X256479501Y-97772123D01*
X256479500Y-97772135D01*
X256479500Y-104217870D01*
X198836836Y-104217870D01*
X195544462Y-100925496D01*
X186404315Y-91785348D01*
X186359834Y-91737409D01*
X186337374Y-91713202D01*
X186337373Y-91713200D01*
X186337365Y-91713194D01*
X186260406Y-91651821D01*
X186185783Y-91587602D01*
X186185781Y-91587601D01*
X186160892Y-91571961D01*
X186155218Y-91567936D01*
X186132242Y-91549613D01*
X186109539Y-91536506D01*
X186061323Y-91485939D01*
X186048100Y-91417332D01*
X186074069Y-91352467D01*
X186121729Y-91315563D01*
X186215167Y-91274577D01*
X186415548Y-91143662D01*
X186591648Y-90981550D01*
X186738664Y-90792665D01*
X186852584Y-90582157D01*
X186930303Y-90355770D01*
X186969700Y-90119678D01*
X186969700Y-90000007D01*
X246667306Y-90000007D01*
X246687261Y-90304461D01*
X246687262Y-90304471D01*
X246687263Y-90304478D01*
X246687265Y-90304488D01*
X246746789Y-90603738D01*
X246746793Y-90603753D01*
X246844870Y-90892678D01*
X246844879Y-90892699D01*
X246979828Y-91166348D01*
X247084219Y-91322580D01*
X247148265Y-91418432D01*
X247149350Y-91420055D01*
X247350535Y-91649464D01*
X247423215Y-91713202D01*
X247579946Y-91850651D01*
X247748316Y-91963151D01*
X247833651Y-92020171D01*
X248107300Y-92155120D01*
X248107305Y-92155122D01*
X248107317Y-92155128D01*
X248396254Y-92253209D01*
X248695522Y-92312737D01*
X248724763Y-92314653D01*
X248999993Y-92332694D01*
X249000000Y-92332694D01*
X249000007Y-92332694D01*
X249243756Y-92316716D01*
X249304478Y-92312737D01*
X249603746Y-92253209D01*
X249892683Y-92155128D01*
X250166347Y-92020172D01*
X250420054Y-91850651D01*
X250649464Y-91649464D01*
X250850651Y-91420054D01*
X251020172Y-91166347D01*
X251155128Y-90892683D01*
X251253209Y-90603746D01*
X251312737Y-90304478D01*
X251324242Y-90128949D01*
X251332694Y-90000007D01*
X251332694Y-89999992D01*
X251312738Y-89695538D01*
X251312737Y-89695522D01*
X251253209Y-89396254D01*
X251155128Y-89107317D01*
X251148855Y-89094597D01*
X251020171Y-88833651D01*
X250905414Y-88661905D01*
X250850651Y-88579946D01*
X250752128Y-88467602D01*
X250649464Y-88350535D01*
X250420055Y-88149350D01*
X250166348Y-87979828D01*
X249892699Y-87844879D01*
X249892678Y-87844870D01*
X249603753Y-87746793D01*
X249603747Y-87746791D01*
X249603746Y-87746791D01*
X249603744Y-87746790D01*
X249603738Y-87746789D01*
X249304488Y-87687265D01*
X249304478Y-87687263D01*
X249304471Y-87687262D01*
X249304461Y-87687261D01*
X249000007Y-87667306D01*
X248999993Y-87667306D01*
X248695538Y-87687261D01*
X248695526Y-87687262D01*
X248695522Y-87687263D01*
X248695514Y-87687264D01*
X248695511Y-87687265D01*
X248396261Y-87746789D01*
X248396246Y-87746793D01*
X248107321Y-87844870D01*
X248107300Y-87844879D01*
X247833651Y-87979828D01*
X247579944Y-88149350D01*
X247350535Y-88350535D01*
X247149350Y-88579944D01*
X246979828Y-88833651D01*
X246844879Y-89107300D01*
X246844870Y-89107321D01*
X246746793Y-89396246D01*
X246746789Y-89396261D01*
X246687265Y-89695511D01*
X246687261Y-89695538D01*
X246667306Y-89999992D01*
X246667306Y-90000007D01*
X186969700Y-90000007D01*
X186969700Y-89880322D01*
X186930303Y-89644230D01*
X186852584Y-89417843D01*
X186799660Y-89320047D01*
X186738667Y-89207340D01*
X186738661Y-89207331D01*
X186591653Y-89018456D01*
X186591650Y-89018452D01*
X186415545Y-88856335D01*
X186215166Y-88725422D01*
X185995971Y-88629274D01*
X185835178Y-88588556D01*
X185763939Y-88570516D01*
X185763938Y-88570515D01*
X185763935Y-88570515D01*
X185620652Y-88558642D01*
X185585137Y-88555700D01*
X185465663Y-88555700D01*
X185433355Y-88558377D01*
X185286864Y-88570515D01*
X185054828Y-88629274D01*
X184835633Y-88725422D01*
X184635254Y-88856335D01*
X184459149Y-89018452D01*
X184459146Y-89018456D01*
X184312138Y-89207331D01*
X184312132Y-89207340D01*
X184198219Y-89417836D01*
X184198214Y-89417847D01*
X184120497Y-89644227D01*
X184099057Y-89772711D01*
X184081100Y-89880322D01*
X184081100Y-90119678D01*
X184084825Y-90141998D01*
X184120497Y-90355772D01*
X184198214Y-90582152D01*
X184198219Y-90582163D01*
X184312132Y-90792659D01*
X184312138Y-90792668D01*
X184459146Y-90981543D01*
X184459148Y-90981545D01*
X184459152Y-90981550D01*
X184516423Y-91034272D01*
X184552412Y-91094157D01*
X184550312Y-91163995D01*
X184510788Y-91221611D01*
X184446389Y-91248713D01*
X184432439Y-91249500D01*
X178032731Y-91249500D01*
X177934363Y-91245818D01*
X177836539Y-91256841D01*
X177738375Y-91264196D01*
X177738372Y-91264197D01*
X177709703Y-91270739D01*
X177702849Y-91271903D01*
X177673651Y-91275194D01*
X177673649Y-91275194D01*
X177578562Y-91300673D01*
X177482586Y-91322579D01*
X177455225Y-91333317D01*
X177448617Y-91335491D01*
X177420229Y-91343097D01*
X177420224Y-91343099D01*
X177329984Y-91382471D01*
X177238359Y-91418431D01*
X177238358Y-91418431D01*
X177212902Y-91433127D01*
X177206696Y-91436260D01*
X177179760Y-91448012D01*
X177179755Y-91448015D01*
X177179753Y-91448016D01*
X177119398Y-91485939D01*
X177096385Y-91500399D01*
X177011142Y-91549614D01*
X177011141Y-91549615D01*
X176988167Y-91567935D01*
X176982498Y-91571958D01*
X176957603Y-91587601D01*
X176957598Y-91587605D01*
X176882979Y-91651821D01*
X176806019Y-91713194D01*
X176806016Y-91713197D01*
X176739070Y-91785348D01*
X172311238Y-96213181D01*
X172249915Y-96246666D01*
X172223557Y-96249500D01*
X163343243Y-96249500D01*
X163276204Y-96229815D01*
X163255562Y-96213181D01*
X161848512Y-94806131D01*
X161820765Y-94763752D01*
X161815564Y-94750500D01*
X161812368Y-94742357D01*
X161681186Y-94515143D01*
X161517605Y-94310019D01*
X161517604Y-94310018D01*
X161517601Y-94310014D01*
X161325279Y-94131567D01*
X161108504Y-93983772D01*
X161108500Y-93983770D01*
X161108497Y-93983768D01*
X161108496Y-93983767D01*
X160872125Y-93869938D01*
X160872127Y-93869938D01*
X160621423Y-93792606D01*
X160621419Y-93792605D01*
X160621415Y-93792604D01*
X160496623Y-93773794D01*
X160361987Y-93753500D01*
X160361982Y-93753500D01*
X160172587Y-93753500D01*
X160165648Y-93753110D01*
X160151245Y-93751487D01*
X160136432Y-93749818D01*
X159874257Y-93759629D01*
X159616477Y-93808403D01*
X159616472Y-93808404D01*
X159564523Y-93826582D01*
X159368827Y-93895059D01*
X159136867Y-94017654D01*
X159062188Y-94072769D01*
X158925768Y-94173450D01*
X158740246Y-94358972D01*
X158687314Y-94430694D01*
X158631667Y-94472945D01*
X158562011Y-94478404D01*
X158500461Y-94445337D01*
X158485093Y-94426917D01*
X158473233Y-94409521D01*
X158461823Y-94397224D01*
X158294785Y-94217198D01*
X158255333Y-94185736D01*
X158089657Y-94053614D01*
X157862443Y-93922432D01*
X157618216Y-93826580D01*
X157618211Y-93826578D01*
X157618202Y-93826576D01*
X157375429Y-93771165D01*
X157362430Y-93768198D01*
X157362429Y-93768197D01*
X157362425Y-93768197D01*
X157362420Y-93768196D01*
X157166300Y-93753500D01*
X157166294Y-93753500D01*
X130773643Y-93753500D01*
X130706604Y-93733815D01*
X130685962Y-93717181D01*
X130036544Y-93067763D01*
X169145787Y-93067763D01*
X169175413Y-93337013D01*
X169175415Y-93337024D01*
X169243926Y-93599082D01*
X169243928Y-93599088D01*
X169349870Y-93848390D01*
X169475117Y-94053614D01*
X169490979Y-94079605D01*
X169490986Y-94079615D01*
X169664253Y-94287819D01*
X169664259Y-94287824D01*
X169769240Y-94381887D01*
X169865998Y-94468582D01*
X170091910Y-94618044D01*
X170337176Y-94733020D01*
X170337183Y-94733022D01*
X170337185Y-94733023D01*
X170596557Y-94811057D01*
X170596564Y-94811058D01*
X170596569Y-94811060D01*
X170864561Y-94850500D01*
X170864566Y-94850500D01*
X171067636Y-94850500D01*
X171119133Y-94846730D01*
X171270156Y-94835677D01*
X171402792Y-94806131D01*
X171534546Y-94776782D01*
X171534548Y-94776781D01*
X171534553Y-94776780D01*
X171787558Y-94680014D01*
X172023777Y-94547441D01*
X172238177Y-94381888D01*
X172426186Y-94186881D01*
X172583799Y-93966579D01*
X172672369Y-93794309D01*
X172707649Y-93725690D01*
X172707651Y-93725684D01*
X172707656Y-93725675D01*
X172795118Y-93469305D01*
X172844319Y-93202933D01*
X172854212Y-92932235D01*
X172824586Y-92662982D01*
X172756072Y-92400912D01*
X172650130Y-92151610D01*
X172509018Y-91920390D01*
X172507845Y-91918981D01*
X172335746Y-91712180D01*
X172335740Y-91712175D01*
X172134002Y-91531418D01*
X171908092Y-91381957D01*
X171845184Y-91352467D01*
X171662824Y-91266980D01*
X171662819Y-91266978D01*
X171662814Y-91266976D01*
X171403442Y-91188942D01*
X171403428Y-91188939D01*
X171287791Y-91171921D01*
X171135439Y-91149500D01*
X170932369Y-91149500D01*
X170932364Y-91149500D01*
X170729844Y-91164323D01*
X170729831Y-91164325D01*
X170465453Y-91223217D01*
X170465446Y-91223220D01*
X170212439Y-91319987D01*
X169976226Y-91452557D01*
X169761822Y-91618112D01*
X169573822Y-91813109D01*
X169573816Y-91813116D01*
X169416202Y-92033419D01*
X169416199Y-92033424D01*
X169292350Y-92274309D01*
X169292343Y-92274327D01*
X169204884Y-92530685D01*
X169204881Y-92530699D01*
X169193539Y-92592107D01*
X169158211Y-92783373D01*
X169155681Y-92797068D01*
X169155680Y-92797075D01*
X169145787Y-93067763D01*
X130036544Y-93067763D01*
X129154871Y-92186090D01*
X129126372Y-92141745D01*
X129027567Y-91876839D01*
X129001801Y-91829653D01*
X128890429Y-91625690D01*
X128890424Y-91625682D01*
X128718945Y-91396612D01*
X128718929Y-91396594D01*
X128516605Y-91194270D01*
X128516587Y-91194254D01*
X128287517Y-91022775D01*
X128287509Y-91022770D01*
X128036366Y-90885635D01*
X128036367Y-90885635D01*
X127929115Y-90845632D01*
X127768246Y-90785631D01*
X127768243Y-90785630D01*
X127768237Y-90785628D01*
X127488633Y-90724804D01*
X127203201Y-90704390D01*
X127203199Y-90704390D01*
X126917766Y-90724804D01*
X126638162Y-90785628D01*
X126370033Y-90885635D01*
X126118890Y-91022770D01*
X126118882Y-91022775D01*
X125889812Y-91194254D01*
X125889794Y-91194270D01*
X125687470Y-91396594D01*
X125687454Y-91396612D01*
X125515975Y-91625682D01*
X125515970Y-91625690D01*
X125378835Y-91876833D01*
X125278828Y-92144962D01*
X125218004Y-92424566D01*
X125197590Y-92709998D01*
X125197590Y-92710001D01*
X125218004Y-92995433D01*
X125278828Y-93275037D01*
X125278830Y-93275043D01*
X125278831Y-93275046D01*
X125351522Y-93469938D01*
X125378835Y-93543166D01*
X125515970Y-93794309D01*
X125515975Y-93794317D01*
X125687454Y-94023387D01*
X125687470Y-94023405D01*
X125889794Y-94225729D01*
X125889812Y-94225745D01*
X126118882Y-94397224D01*
X126118890Y-94397229D01*
X126370033Y-94534364D01*
X126370037Y-94534366D01*
X126370039Y-94534367D01*
X126634945Y-94633172D01*
X126679290Y-94661671D01*
X128736270Y-96718651D01*
X128803217Y-96790804D01*
X128880179Y-96852178D01*
X128954800Y-96916396D01*
X128954807Y-96916401D01*
X128979693Y-96932037D01*
X128985373Y-96936067D01*
X129008343Y-96954386D01*
X129093593Y-97003605D01*
X129104873Y-97010693D01*
X129176954Y-97055984D01*
X129203897Y-97067739D01*
X129210098Y-97070869D01*
X129235557Y-97085568D01*
X129327187Y-97121530D01*
X129417426Y-97160901D01*
X129445820Y-97168508D01*
X129452418Y-97170679D01*
X129479784Y-97181420D01*
X129479790Y-97181421D01*
X129479792Y-97181422D01*
X129574395Y-97203014D01*
X129575762Y-97203326D01*
X129670850Y-97228805D01*
X129700056Y-97232095D01*
X129706901Y-97233258D01*
X129735570Y-97239802D01*
X129735575Y-97239802D01*
X129735578Y-97239803D01*
X129831777Y-97247011D01*
X129833739Y-97247158D01*
X129931564Y-97258181D01*
X130029931Y-97254500D01*
X157166294Y-97254500D01*
X157166300Y-97254500D01*
X157362420Y-97239803D01*
X157362422Y-97239802D01*
X157362430Y-97239802D01*
X157618216Y-97181420D01*
X157862443Y-97085568D01*
X158089657Y-96954386D01*
X158294781Y-96790805D01*
X158473233Y-96598479D01*
X158483865Y-96582883D01*
X158537892Y-96538582D01*
X158607296Y-96530522D01*
X158670039Y-96561264D01*
X158680307Y-96571851D01*
X158683703Y-96575797D01*
X158786690Y-96695471D01*
X158786690Y-96695470D01*
X158786698Y-96695479D01*
X160060757Y-97969538D01*
X161305870Y-99214651D01*
X161372817Y-99286804D01*
X161411410Y-99317580D01*
X161449779Y-99348178D01*
X161524403Y-99412398D01*
X161549287Y-99428033D01*
X161554963Y-99432060D01*
X161577943Y-99450386D01*
X161663197Y-99499607D01*
X161704886Y-99525802D01*
X161746551Y-99551982D01*
X161773495Y-99563737D01*
X161779700Y-99566870D01*
X161805157Y-99581568D01*
X161805158Y-99581568D01*
X161805161Y-99581570D01*
X161805163Y-99581571D01*
X161896800Y-99617535D01*
X161987025Y-99656900D01*
X162015420Y-99664508D01*
X162022019Y-99666680D01*
X162038949Y-99673324D01*
X162049384Y-99677420D01*
X162049389Y-99677421D01*
X162049392Y-99677422D01*
X162107265Y-99690631D01*
X162145369Y-99699328D01*
X162240450Y-99724805D01*
X162269656Y-99728095D01*
X162276501Y-99729258D01*
X162305170Y-99735802D01*
X162305175Y-99735802D01*
X162305178Y-99735803D01*
X162403337Y-99743158D01*
X162501163Y-99754181D01*
X162599531Y-99750500D01*
X172967269Y-99750500D01*
X173065635Y-99754181D01*
X173065635Y-99754180D01*
X173065636Y-99754181D01*
X173163460Y-99743158D01*
X173219584Y-99738953D01*
X173287907Y-99753573D01*
X173337479Y-99802810D01*
X173352562Y-99871033D01*
X173328368Y-99936579D01*
X173316530Y-99950287D01*
X171078490Y-102188327D01*
X171034143Y-102216828D01*
X170769233Y-102315635D01*
X170518090Y-102452770D01*
X170518082Y-102452775D01*
X170289012Y-102624254D01*
X170288994Y-102624270D01*
X170086670Y-102826594D01*
X170086654Y-102826612D01*
X169915175Y-103055682D01*
X169915170Y-103055690D01*
X169778035Y-103306833D01*
X169678028Y-103574962D01*
X169617204Y-103854566D01*
X169596790Y-104139998D01*
X169596790Y-104140001D01*
X169617204Y-104425433D01*
X169678028Y-104705037D01*
X169678030Y-104705043D01*
X169678031Y-104705046D01*
X169778033Y-104973161D01*
X169778035Y-104973166D01*
X169915170Y-105224309D01*
X169915175Y-105224317D01*
X170086654Y-105453387D01*
X170086670Y-105453405D01*
X170288994Y-105655729D01*
X170289012Y-105655745D01*
X170518082Y-105827224D01*
X170518090Y-105827229D01*
X170769233Y-105964364D01*
X170769232Y-105964364D01*
X170769236Y-105964365D01*
X170769239Y-105964367D01*
X171037354Y-106064369D01*
X171037360Y-106064370D01*
X171037362Y-106064371D01*
X171316966Y-106125195D01*
X171316968Y-106125195D01*
X171316972Y-106125196D01*
X171570620Y-106143337D01*
X171602399Y-106145610D01*
X171602400Y-106145610D01*
X171602401Y-106145610D01*
X171630995Y-106143564D01*
X171887828Y-106125196D01*
X172167446Y-106064369D01*
X172435561Y-105964367D01*
X172686715Y-105827226D01*
X172915795Y-105655739D01*
X173118139Y-105453395D01*
X173289626Y-105224315D01*
X173426767Y-104973161D01*
X173525574Y-104708249D01*
X173554071Y-104663908D01*
X175436161Y-102781819D01*
X175497484Y-102748334D01*
X175523842Y-102745500D01*
X177695501Y-102745500D01*
X177762540Y-102765185D01*
X177808295Y-102817989D01*
X177819501Y-102869500D01*
X177819501Y-104217876D01*
X177825908Y-104277483D01*
X177876202Y-104412328D01*
X177876206Y-104412335D01*
X177962452Y-104527544D01*
X177962455Y-104527547D01*
X178077664Y-104613793D01*
X178077671Y-104613797D01*
X178212517Y-104664091D01*
X178212516Y-104664091D01*
X178219444Y-104664835D01*
X178272127Y-104670500D01*
X185707872Y-104670499D01*
X185767483Y-104664091D01*
X185902331Y-104613796D01*
X186017546Y-104527546D01*
X186103796Y-104412331D01*
X186154091Y-104277483D01*
X186160500Y-104217873D01*
X186160499Y-97772128D01*
X186154781Y-97718940D01*
X186154091Y-97712516D01*
X186103797Y-97577671D01*
X186103793Y-97577664D01*
X186017547Y-97462455D01*
X186017544Y-97462452D01*
X185902335Y-97376206D01*
X185902328Y-97376202D01*
X185767482Y-97325908D01*
X185767483Y-97325908D01*
X185707883Y-97319501D01*
X185707881Y-97319500D01*
X185707873Y-97319500D01*
X185707864Y-97319500D01*
X178272129Y-97319500D01*
X178272123Y-97319501D01*
X178212516Y-97325908D01*
X178077671Y-97376202D01*
X178077664Y-97376206D01*
X177962455Y-97462452D01*
X177962452Y-97462455D01*
X177876206Y-97577664D01*
X177876202Y-97577671D01*
X177825908Y-97712517D01*
X177819501Y-97772116D01*
X177819501Y-97772123D01*
X177819500Y-97772135D01*
X177819500Y-99120500D01*
X177799815Y-99187539D01*
X177747011Y-99233294D01*
X177695500Y-99244500D01*
X174780114Y-99244500D01*
X174681762Y-99240819D01*
X174681761Y-99240819D01*
X174583952Y-99251840D01*
X174527813Y-99256046D01*
X174459490Y-99241426D01*
X174409918Y-99192188D01*
X174394835Y-99123966D01*
X174419030Y-99058419D01*
X174430860Y-99044719D01*
X178688762Y-94786819D01*
X178750085Y-94753334D01*
X178776443Y-94750500D01*
X184366943Y-94750500D01*
X184433982Y-94770185D01*
X184454624Y-94786819D01*
X201478181Y-111810375D01*
X201511666Y-111871698D01*
X201514500Y-111898056D01*
X201514500Y-115940534D01*
X201494815Y-116007573D01*
X201442011Y-116053328D01*
X201372853Y-116063272D01*
X201316190Y-116039801D01*
X201283335Y-116015206D01*
X201283328Y-116015202D01*
X201148482Y-115964908D01*
X201148483Y-115964908D01*
X201088883Y-115958501D01*
X201088881Y-115958500D01*
X201088873Y-115958500D01*
X201088865Y-115958500D01*
X200932570Y-115958500D01*
X200870570Y-115941887D01*
X200786643Y-115893432D01*
X200542421Y-115797582D01*
X200542416Y-115797580D01*
X200542411Y-115797578D01*
X200542402Y-115797576D01*
X200324818Y-115747914D01*
X200286630Y-115739198D01*
X200286629Y-115739197D01*
X200286625Y-115739197D01*
X200286620Y-115739196D01*
X200090500Y-115724500D01*
X200090494Y-115724500D01*
X192746552Y-115724500D01*
X192679513Y-115704815D01*
X192658871Y-115688181D01*
X188702838Y-111732148D01*
X185915692Y-108945001D01*
X191739454Y-108945001D01*
X191759613Y-109226866D01*
X191819678Y-109502977D01*
X191819680Y-109502984D01*
X191847100Y-109576499D01*
X191918432Y-109767750D01*
X191918434Y-109767754D01*
X192053855Y-110015758D01*
X192053860Y-110015766D01*
X192223196Y-110241974D01*
X192223212Y-110241992D01*
X192423007Y-110441787D01*
X192423025Y-110441803D01*
X192649233Y-110611139D01*
X192649241Y-110611144D01*
X192897245Y-110746565D01*
X192897249Y-110746567D01*
X192897251Y-110746568D01*
X193162016Y-110845320D01*
X193229467Y-110859993D01*
X193438133Y-110905386D01*
X193438135Y-110905386D01*
X193438139Y-110905387D01*
X193649447Y-110920500D01*
X193790553Y-110920500D01*
X194001861Y-110905387D01*
X194277984Y-110845320D01*
X194542749Y-110746568D01*
X194790764Y-110611141D01*
X195016982Y-110441797D01*
X195216797Y-110241982D01*
X195386141Y-110015764D01*
X195521568Y-109767749D01*
X195620320Y-109502984D01*
X195680387Y-109226861D01*
X195700546Y-108945000D01*
X195680387Y-108663139D01*
X195677377Y-108649304D01*
X195634157Y-108450623D01*
X195620320Y-108387016D01*
X195521568Y-108122251D01*
X195495587Y-108074671D01*
X195386144Y-107874241D01*
X195386139Y-107874233D01*
X195216803Y-107648025D01*
X195216787Y-107648007D01*
X195016992Y-107448212D01*
X195016974Y-107448196D01*
X194790766Y-107278860D01*
X194790758Y-107278855D01*
X194542754Y-107143434D01*
X194542750Y-107143432D01*
X194392580Y-107087422D01*
X194277984Y-107044680D01*
X194277980Y-107044679D01*
X194277977Y-107044678D01*
X194001866Y-106984613D01*
X193790553Y-106969500D01*
X193649447Y-106969500D01*
X193438133Y-106984613D01*
X193162022Y-107044678D01*
X193162017Y-107044679D01*
X193162016Y-107044680D01*
X193151788Y-107048495D01*
X192897249Y-107143432D01*
X192897245Y-107143434D01*
X192649241Y-107278855D01*
X192649233Y-107278860D01*
X192423025Y-107448196D01*
X192423007Y-107448212D01*
X192223212Y-107648007D01*
X192223196Y-107648025D01*
X192053860Y-107874233D01*
X192053855Y-107874241D01*
X191918434Y-108122245D01*
X191918432Y-108122249D01*
X191862726Y-108271604D01*
X191828876Y-108362362D01*
X191819678Y-108387022D01*
X191759613Y-108663133D01*
X191739454Y-108944998D01*
X191739454Y-108945001D01*
X185915692Y-108945001D01*
X184604039Y-107633348D01*
X184548171Y-107573136D01*
X184537098Y-107561202D01*
X184537097Y-107561200D01*
X184460130Y-107499821D01*
X184385507Y-107435602D01*
X184360616Y-107419961D01*
X184354942Y-107415936D01*
X184331966Y-107397613D01*
X184246712Y-107348392D01*
X184163361Y-107296019D01*
X184163351Y-107296014D01*
X184136414Y-107284261D01*
X184130204Y-107281126D01*
X184104755Y-107266432D01*
X184104751Y-107266431D01*
X184013109Y-107230464D01*
X183922886Y-107191100D01*
X183922878Y-107191098D01*
X183894492Y-107183491D01*
X183887887Y-107181317D01*
X183860530Y-107170581D01*
X183764540Y-107148671D01*
X183669459Y-107123194D01*
X183645784Y-107120527D01*
X183640250Y-107119903D01*
X183633395Y-107118738D01*
X183604739Y-107112197D01*
X183604734Y-107112196D01*
X183506570Y-107104841D01*
X183408745Y-107093818D01*
X183310379Y-107097500D01*
X157118313Y-107097500D01*
X157051274Y-107077815D01*
X157005519Y-107025011D01*
X156995575Y-106955853D01*
X157024600Y-106892297D01*
X157058135Y-106865081D01*
X157099618Y-106842056D01*
X157323536Y-106717771D01*
X157638292Y-106498694D01*
X157929270Y-106248898D01*
X158193483Y-105970946D01*
X158428221Y-105667689D01*
X158631074Y-105342241D01*
X158799962Y-104997940D01*
X158933151Y-104638320D01*
X159029274Y-104267070D01*
X159087345Y-103888000D01*
X159106769Y-103505000D01*
X159087345Y-103122000D01*
X159029274Y-102742930D01*
X158933151Y-102371680D01*
X158921594Y-102340476D01*
X158799965Y-102012068D01*
X158799964Y-102012067D01*
X158799962Y-102012060D01*
X158631074Y-101667759D01*
X158631069Y-101667750D01*
X158428220Y-101342310D01*
X158193487Y-101039059D01*
X158193486Y-101039058D01*
X158193483Y-101039054D01*
X157929270Y-100761102D01*
X157929269Y-100761101D01*
X157638294Y-100511307D01*
X157391347Y-100339427D01*
X157323536Y-100292229D01*
X157065138Y-100148806D01*
X156988226Y-100106116D01*
X156635808Y-99954883D01*
X156269923Y-99840086D01*
X156269917Y-99840085D01*
X156269914Y-99840084D01*
X156269913Y-99840084D01*
X155894271Y-99762887D01*
X155894270Y-99762886D01*
X155894266Y-99762886D01*
X155512747Y-99724090D01*
X155512746Y-99724090D01*
X155129254Y-99724090D01*
X155129253Y-99724090D01*
X154747733Y-99762886D01*
X154372082Y-99840085D01*
X154372076Y-99840086D01*
X154006191Y-99954883D01*
X153653773Y-100106116D01*
X153318462Y-100292230D01*
X153003705Y-100511307D01*
X152712730Y-100761101D01*
X152448512Y-101039059D01*
X152213779Y-101342310D01*
X152010930Y-101667750D01*
X152010925Y-101667759D01*
X151842040Y-102012055D01*
X151842034Y-102012068D01*
X151708851Y-102371671D01*
X151612725Y-102742934D01*
X151554654Y-103121999D01*
X151535231Y-103505000D01*
X151554654Y-103888000D01*
X151612725Y-104267065D01*
X151708851Y-104638328D01*
X151842034Y-104997931D01*
X151842040Y-104997944D01*
X152010925Y-105342240D01*
X152010930Y-105342249D01*
X152213779Y-105667689D01*
X152431737Y-105949269D01*
X152448517Y-105970946D01*
X152648402Y-106181225D01*
X152712730Y-106248898D01*
X153003705Y-106498692D01*
X153003708Y-106498694D01*
X153318464Y-106717771D01*
X153542382Y-106842056D01*
X153583865Y-106865081D01*
X153632927Y-106914827D01*
X153647307Y-106983201D01*
X153622438Y-107048495D01*
X153566217Y-107089978D01*
X153523687Y-107097500D01*
X137564443Y-107097500D01*
X137497404Y-107077815D01*
X137476762Y-107061181D01*
X134828181Y-104412600D01*
X148097941Y-104412600D01*
X148118536Y-104648003D01*
X148118538Y-104648013D01*
X148179694Y-104876255D01*
X148179696Y-104876259D01*
X148179697Y-104876263D01*
X148224884Y-104973166D01*
X148279565Y-105090430D01*
X148279567Y-105090434D01*
X148347606Y-105187603D01*
X148415105Y-105284001D01*
X148582199Y-105451095D01*
X148630895Y-105485192D01*
X148775765Y-105586632D01*
X148775767Y-105586633D01*
X148775770Y-105586635D01*
X148989937Y-105686503D01*
X149218192Y-105747663D01*
X149406518Y-105764139D01*
X149453599Y-105768259D01*
X149453600Y-105768259D01*
X149453601Y-105768259D01*
X149492834Y-105764826D01*
X149689008Y-105747663D01*
X149917263Y-105686503D01*
X150131430Y-105586635D01*
X150325001Y-105451095D01*
X150492095Y-105284001D01*
X150627635Y-105090430D01*
X150727503Y-104876263D01*
X150788663Y-104648008D01*
X150809259Y-104412600D01*
X150809235Y-104412331D01*
X150805139Y-104365518D01*
X150788663Y-104177192D01*
X150727503Y-103948937D01*
X150627635Y-103734771D01*
X150580071Y-103666841D01*
X150492094Y-103541197D01*
X150325002Y-103374106D01*
X150324995Y-103374101D01*
X150131434Y-103238567D01*
X150131430Y-103238565D01*
X150131428Y-103238564D01*
X149917263Y-103138697D01*
X149917259Y-103138696D01*
X149917255Y-103138694D01*
X149689013Y-103077538D01*
X149689003Y-103077536D01*
X149453601Y-103056941D01*
X149453599Y-103056941D01*
X149218196Y-103077536D01*
X149218186Y-103077538D01*
X148989944Y-103138694D01*
X148989935Y-103138698D01*
X148775771Y-103238564D01*
X148775769Y-103238565D01*
X148582197Y-103374105D01*
X148415105Y-103541197D01*
X148279565Y-103734769D01*
X148279564Y-103734771D01*
X148179698Y-103948935D01*
X148179694Y-103948944D01*
X148118538Y-104177186D01*
X148118536Y-104177196D01*
X148097941Y-104412599D01*
X148097941Y-104412600D01*
X134828181Y-104412600D01*
X132756051Y-102340470D01*
X148103100Y-102340470D01*
X148103101Y-102340476D01*
X148109508Y-102400083D01*
X148159802Y-102534928D01*
X148159806Y-102534935D01*
X148246052Y-102650144D01*
X148246055Y-102650147D01*
X148361264Y-102736393D01*
X148361271Y-102736397D01*
X148496117Y-102786691D01*
X148496116Y-102786691D01*
X148503044Y-102787435D01*
X148555727Y-102793100D01*
X150351472Y-102793099D01*
X150411083Y-102786691D01*
X150545931Y-102736396D01*
X150661146Y-102650146D01*
X150747396Y-102534931D01*
X150797691Y-102400083D01*
X150804100Y-102340473D01*
X150804099Y-100544728D01*
X150797691Y-100485117D01*
X150755989Y-100373309D01*
X150747397Y-100350271D01*
X150747393Y-100350264D01*
X150661147Y-100235055D01*
X150661144Y-100235052D01*
X150545935Y-100148806D01*
X150545928Y-100148802D01*
X150411082Y-100098508D01*
X150411083Y-100098508D01*
X150351483Y-100092101D01*
X150351481Y-100092100D01*
X150351473Y-100092100D01*
X150351464Y-100092100D01*
X148555729Y-100092100D01*
X148555723Y-100092101D01*
X148496116Y-100098508D01*
X148361271Y-100148802D01*
X148361264Y-100148806D01*
X148246055Y-100235052D01*
X148246052Y-100235055D01*
X148159806Y-100350264D01*
X148159802Y-100350271D01*
X148109508Y-100485117D01*
X148106145Y-100516402D01*
X148103101Y-100544723D01*
X148103100Y-100544735D01*
X148103100Y-102340470D01*
X132756051Y-102340470D01*
X127791783Y-97376202D01*
X120111825Y-89696244D01*
X143120200Y-89696244D01*
X143126601Y-89755772D01*
X143126603Y-89755779D01*
X143176845Y-89890486D01*
X143176849Y-89890493D01*
X143263009Y-90005587D01*
X143263012Y-90005590D01*
X143378106Y-90091750D01*
X143378113Y-90091754D01*
X143512820Y-90141996D01*
X143512827Y-90141998D01*
X143572355Y-90148399D01*
X143572372Y-90148400D01*
X144220200Y-90148400D01*
X144220200Y-89233901D01*
X144327885Y-89283080D01*
X144434437Y-89298400D01*
X144505963Y-89298400D01*
X144612515Y-89283080D01*
X144720200Y-89233901D01*
X144720200Y-90148400D01*
X145368028Y-90148400D01*
X145368044Y-90148399D01*
X145427572Y-90141998D01*
X145427579Y-90141996D01*
X145562286Y-90091754D01*
X145562293Y-90091750D01*
X145677387Y-90005590D01*
X145677390Y-90005587D01*
X145763550Y-89890493D01*
X145763553Y-89890488D01*
X145786618Y-89828646D01*
X145828489Y-89772711D01*
X145893953Y-89748293D01*
X145962226Y-89763144D01*
X146002571Y-89798344D01*
X146109646Y-89943427D01*
X146109650Y-89943431D01*
X146295169Y-90128950D01*
X146506267Y-90284746D01*
X146738227Y-90407341D01*
X146985867Y-90493994D01*
X146985871Y-90493994D01*
X146985872Y-90493995D01*
X146985877Y-90493996D01*
X147140252Y-90523205D01*
X147243657Y-90542770D01*
X147505836Y-90552581D01*
X147766550Y-90523205D01*
X148019975Y-90455300D01*
X148260447Y-90350383D01*
X148482597Y-90210798D01*
X148546489Y-90155814D01*
X148631671Y-90082510D01*
X148631670Y-90082510D01*
X148631679Y-90082502D01*
X153614637Y-85099542D01*
X153686805Y-85032581D01*
X153748191Y-84955605D01*
X153797398Y-84898424D01*
X153800528Y-84895051D01*
X155023762Y-83671819D01*
X155085085Y-83638334D01*
X155111443Y-83635500D01*
X177695501Y-83635500D01*
X177762540Y-83655185D01*
X177808295Y-83707989D01*
X177819501Y-83759500D01*
X177819501Y-85107876D01*
X177825908Y-85167483D01*
X177876202Y-85302328D01*
X177876206Y-85302335D01*
X177962452Y-85417544D01*
X177962455Y-85417547D01*
X178077664Y-85503793D01*
X178077671Y-85503797D01*
X178212517Y-85554091D01*
X178212516Y-85554091D01*
X178219444Y-85554835D01*
X178272127Y-85560500D01*
X185707872Y-85560499D01*
X185767483Y-85554091D01*
X185902331Y-85503796D01*
X186017546Y-85417546D01*
X186103796Y-85302331D01*
X186154091Y-85167483D01*
X186160500Y-85107873D01*
X186160499Y-80772001D01*
X249222390Y-80772001D01*
X249242804Y-81057433D01*
X249303628Y-81337037D01*
X249303630Y-81337043D01*
X249303631Y-81337046D01*
X249373717Y-81524952D01*
X249403635Y-81605166D01*
X249540770Y-81856309D01*
X249540775Y-81856317D01*
X249712254Y-82085387D01*
X249712270Y-82085405D01*
X249914594Y-82287729D01*
X249914612Y-82287745D01*
X250143682Y-82459224D01*
X250143690Y-82459229D01*
X250394833Y-82596364D01*
X250394832Y-82596364D01*
X250394836Y-82596365D01*
X250394839Y-82596367D01*
X250662954Y-82696369D01*
X250662960Y-82696370D01*
X250662962Y-82696371D01*
X250942566Y-82757195D01*
X250942568Y-82757195D01*
X250942572Y-82757196D01*
X251196220Y-82775337D01*
X251227999Y-82777610D01*
X251228000Y-82777610D01*
X251228001Y-82777610D01*
X251256595Y-82775564D01*
X251513428Y-82757196D01*
X251793046Y-82696369D01*
X252061161Y-82596367D01*
X252312315Y-82459226D01*
X252541395Y-82287739D01*
X252743739Y-82085395D01*
X252915226Y-81856315D01*
X253052367Y-81605161D01*
X253152369Y-81337046D01*
X253161941Y-81293044D01*
X253213195Y-81057433D01*
X253213195Y-81057432D01*
X253213196Y-81057428D01*
X253233610Y-80772000D01*
X253213196Y-80486572D01*
X253211222Y-80477499D01*
X253152371Y-80206962D01*
X253152370Y-80206960D01*
X253152369Y-80206954D01*
X253052367Y-79938839D01*
X253026849Y-79892107D01*
X252915229Y-79687690D01*
X252915224Y-79687682D01*
X252743745Y-79458612D01*
X252743729Y-79458594D01*
X252541405Y-79256270D01*
X252541387Y-79256254D01*
X252312317Y-79084775D01*
X252312309Y-79084770D01*
X252061166Y-78947635D01*
X252061167Y-78947635D01*
X251953915Y-78907632D01*
X251793046Y-78847631D01*
X251793043Y-78847630D01*
X251793037Y-78847628D01*
X251513433Y-78786804D01*
X251228001Y-78766390D01*
X251227999Y-78766390D01*
X250942566Y-78786804D01*
X250662962Y-78847628D01*
X250394833Y-78947635D01*
X250143690Y-79084770D01*
X250143682Y-79084775D01*
X249914612Y-79256254D01*
X249914594Y-79256270D01*
X249712270Y-79458594D01*
X249712254Y-79458612D01*
X249540775Y-79687682D01*
X249540770Y-79687690D01*
X249403635Y-79938833D01*
X249303628Y-80206962D01*
X249242804Y-80486566D01*
X249222390Y-80771998D01*
X249222390Y-80772001D01*
X186160499Y-80772001D01*
X186160499Y-78662128D01*
X186154091Y-78602517D01*
X186151434Y-78595394D01*
X186103797Y-78467671D01*
X186103793Y-78467664D01*
X186017547Y-78352455D01*
X186017544Y-78352452D01*
X185902335Y-78266206D01*
X185902328Y-78266202D01*
X185767482Y-78215908D01*
X185767483Y-78215908D01*
X185707883Y-78209501D01*
X185707881Y-78209500D01*
X185707873Y-78209500D01*
X185707864Y-78209500D01*
X178272129Y-78209500D01*
X178272123Y-78209501D01*
X178212516Y-78215908D01*
X178077671Y-78266202D01*
X178077664Y-78266206D01*
X177962455Y-78352452D01*
X177962452Y-78352455D01*
X177876206Y-78467664D01*
X177876202Y-78467671D01*
X177825908Y-78602517D01*
X177820073Y-78656798D01*
X177819501Y-78662123D01*
X177819500Y-78662135D01*
X177819500Y-80010500D01*
X177799815Y-80077539D01*
X177747011Y-80123294D01*
X177695500Y-80134500D01*
X154367714Y-80134500D01*
X154269362Y-80130819D01*
X154269361Y-80130819D01*
X154171554Y-80141840D01*
X154073380Y-80149196D01*
X154073370Y-80149198D01*
X154044704Y-80155739D01*
X154037849Y-80156904D01*
X154008650Y-80160194D01*
X154008649Y-80160194D01*
X153913569Y-80185671D01*
X153817584Y-80207580D01*
X153817580Y-80207581D01*
X153817578Y-80207582D01*
X153803407Y-80213143D01*
X153790215Y-80218320D01*
X153783612Y-80220493D01*
X153755228Y-80228098D01*
X153755223Y-80228100D01*
X153665000Y-80267464D01*
X153573360Y-80303430D01*
X153547895Y-80318131D01*
X153541689Y-80321264D01*
X153514754Y-80333016D01*
X153514742Y-80333022D01*
X153431398Y-80385391D01*
X153346137Y-80434617D01*
X153323164Y-80452937D01*
X153317493Y-80456961D01*
X153292604Y-80472600D01*
X153217979Y-80536821D01*
X153141019Y-80598194D01*
X153141016Y-80598197D01*
X153074070Y-80670348D01*
X151185348Y-82559070D01*
X151113197Y-82626016D01*
X151113194Y-82626020D01*
X151051820Y-82702980D01*
X151002599Y-82760175D01*
X150999445Y-82763574D01*
X146156098Y-87606921D01*
X146156090Y-87606930D01*
X146156090Y-87606929D01*
X146027807Y-87755996D01*
X146027802Y-87756002D01*
X146007104Y-87788944D01*
X145954770Y-87835234D01*
X145885716Y-87845882D01*
X145821868Y-87817507D01*
X145785929Y-87766304D01*
X145763554Y-87706313D01*
X145763550Y-87706306D01*
X145677390Y-87591212D01*
X145677387Y-87591209D01*
X145562293Y-87505049D01*
X145562286Y-87505045D01*
X145427579Y-87454803D01*
X145427572Y-87454801D01*
X145368044Y-87448400D01*
X144720200Y-87448400D01*
X144720200Y-88362898D01*
X144612515Y-88313720D01*
X144505963Y-88298400D01*
X144434437Y-88298400D01*
X144327885Y-88313720D01*
X144220200Y-88362898D01*
X144220200Y-87448400D01*
X143572355Y-87448400D01*
X143512827Y-87454801D01*
X143512820Y-87454803D01*
X143378113Y-87505045D01*
X143378106Y-87505049D01*
X143263012Y-87591209D01*
X143263009Y-87591212D01*
X143176849Y-87706306D01*
X143176845Y-87706313D01*
X143126603Y-87841020D01*
X143126601Y-87841027D01*
X143120200Y-87900555D01*
X143120200Y-88548400D01*
X144036514Y-88548400D01*
X144010707Y-88588556D01*
X143970200Y-88726511D01*
X143970200Y-88870289D01*
X144010707Y-89008244D01*
X144036514Y-89048400D01*
X143120200Y-89048400D01*
X143120200Y-89696244D01*
X120111825Y-89696244D01*
X118100929Y-87685348D01*
X118056448Y-87637409D01*
X118033988Y-87613202D01*
X118033987Y-87613200D01*
X118026123Y-87606929D01*
X117957020Y-87551821D01*
X117882397Y-87487602D01*
X117857506Y-87471961D01*
X117851832Y-87467936D01*
X117828856Y-87449613D01*
X117743602Y-87400392D01*
X117660251Y-87348019D01*
X117660241Y-87348014D01*
X117633304Y-87336261D01*
X117627094Y-87333126D01*
X117601645Y-87318432D01*
X117601641Y-87318431D01*
X117509999Y-87282464D01*
X117419776Y-87243100D01*
X117419768Y-87243098D01*
X117391382Y-87235491D01*
X117384777Y-87233317D01*
X117357420Y-87222581D01*
X117261430Y-87200671D01*
X117166349Y-87175194D01*
X117142674Y-87172527D01*
X117137140Y-87171903D01*
X117130285Y-87170738D01*
X117101629Y-87164197D01*
X117101624Y-87164196D01*
X117003460Y-87156841D01*
X116905635Y-87145818D01*
X116807269Y-87149500D01*
X110220087Y-87149500D01*
X110160660Y-87134332D01*
X110053166Y-87075635D01*
X110053167Y-87075635D01*
X109945915Y-87035632D01*
X109785046Y-86975631D01*
X109785043Y-86975630D01*
X109785037Y-86975628D01*
X109505433Y-86914804D01*
X109220001Y-86894390D01*
X109219999Y-86894390D01*
X108934566Y-86914804D01*
X108654962Y-86975628D01*
X108386833Y-87075635D01*
X108135690Y-87212770D01*
X108135682Y-87212775D01*
X107906612Y-87384254D01*
X107906594Y-87384270D01*
X107704270Y-87586594D01*
X107704254Y-87586612D01*
X107532775Y-87815682D01*
X107532770Y-87815690D01*
X107395635Y-88066833D01*
X107295628Y-88334962D01*
X107234804Y-88614566D01*
X107214390Y-88899998D01*
X107214390Y-88900001D01*
X107234804Y-89185433D01*
X107295628Y-89465037D01*
X107295630Y-89465043D01*
X107295631Y-89465046D01*
X107381600Y-89695538D01*
X107395635Y-89733166D01*
X107532770Y-89984309D01*
X107532775Y-89984317D01*
X107704254Y-90213387D01*
X107704270Y-90213405D01*
X107906594Y-90415729D01*
X107906612Y-90415745D01*
X108135682Y-90587224D01*
X108135690Y-90587229D01*
X108386833Y-90724364D01*
X108386832Y-90724364D01*
X108386836Y-90724365D01*
X108386839Y-90724367D01*
X108654954Y-90824369D01*
X108654960Y-90824370D01*
X108654962Y-90824371D01*
X108934566Y-90885195D01*
X108934568Y-90885195D01*
X108934572Y-90885196D01*
X109188220Y-90903337D01*
X109219999Y-90905610D01*
X109220000Y-90905610D01*
X109220001Y-90905610D01*
X109248595Y-90903564D01*
X109505428Y-90885196D01*
X109785046Y-90824369D01*
X110053161Y-90724367D01*
X110160660Y-90665668D01*
X110220087Y-90650500D01*
X116063557Y-90650500D01*
X116130596Y-90670185D01*
X116151238Y-90686819D01*
X135527070Y-110062651D01*
X135594017Y-110134804D01*
X135670979Y-110196178D01*
X135745603Y-110260398D01*
X135770487Y-110276033D01*
X135776163Y-110280060D01*
X135799143Y-110298386D01*
X135884397Y-110347607D01*
X135904081Y-110359975D01*
X135967751Y-110399982D01*
X135994695Y-110411737D01*
X136000900Y-110414870D01*
X136026357Y-110429568D01*
X136026358Y-110429568D01*
X136026361Y-110429570D01*
X136026363Y-110429571D01*
X136118000Y-110465535D01*
X136208225Y-110504900D01*
X136236620Y-110512508D01*
X136243219Y-110514680D01*
X136260149Y-110521324D01*
X136270584Y-110525420D01*
X136270589Y-110525421D01*
X136270592Y-110525422D01*
X136342507Y-110541836D01*
X136366569Y-110547328D01*
X136461650Y-110572805D01*
X136490856Y-110576095D01*
X136497701Y-110577258D01*
X136526370Y-110583802D01*
X136526375Y-110583802D01*
X136526378Y-110583803D01*
X136624537Y-110591158D01*
X136722363Y-110602181D01*
X136820731Y-110598500D01*
X182566667Y-110598500D01*
X182633706Y-110618185D01*
X182654348Y-110634819D01*
X184485938Y-112466409D01*
X184519423Y-112527732D01*
X184514439Y-112597424D01*
X184472567Y-112653357D01*
X184407103Y-112677774D01*
X184398257Y-112678090D01*
X184072553Y-112678090D01*
X183691033Y-112716886D01*
X183315382Y-112794085D01*
X183315376Y-112794086D01*
X182949491Y-112908883D01*
X182597073Y-113060116D01*
X182261762Y-113246230D01*
X181947005Y-113465307D01*
X181656030Y-113715101D01*
X181391812Y-113993059D01*
X181157079Y-114296310D01*
X180954230Y-114621750D01*
X180954225Y-114621759D01*
X180785340Y-114966055D01*
X180785334Y-114966068D01*
X180652151Y-115325671D01*
X180556025Y-115696934D01*
X180497954Y-116075999D01*
X180478531Y-116459000D01*
X180497954Y-116842000D01*
X180548486Y-117171851D01*
X180556026Y-117221070D01*
X180596175Y-117376135D01*
X180652151Y-117592328D01*
X180785334Y-117951931D01*
X180785340Y-117951944D01*
X180954225Y-118296240D01*
X180954230Y-118296249D01*
X181157079Y-118621689D01*
X181365939Y-118891515D01*
X181391817Y-118924946D01*
X181615988Y-119160774D01*
X181656030Y-119202898D01*
X181947005Y-119452692D01*
X181947008Y-119452694D01*
X182261764Y-119671771D01*
X182517195Y-119813547D01*
X182597073Y-119857883D01*
X182694736Y-119899793D01*
X182949483Y-120009113D01*
X182949486Y-120009114D01*
X182949491Y-120009116D01*
X183315376Y-120123913D01*
X183315379Y-120123913D01*
X183315387Y-120123916D01*
X183331555Y-120127238D01*
X183393259Y-120160015D01*
X183427448Y-120220949D01*
X183423266Y-120290693D01*
X183382041Y-120347105D01*
X183316862Y-120372274D01*
X183306593Y-120372700D01*
X107426405Y-120372700D01*
X107359366Y-120353015D01*
X107313611Y-120300211D01*
X107303667Y-120231053D01*
X107332692Y-120167497D01*
X107337137Y-120162635D01*
X107483677Y-120010640D01*
X107483686Y-120010631D01*
X107641299Y-119790329D01*
X107721815Y-119633724D01*
X107765149Y-119549440D01*
X107765151Y-119549434D01*
X107765156Y-119549425D01*
X107780697Y-119503870D01*
X115758500Y-119503870D01*
X115758501Y-119503876D01*
X115764908Y-119563483D01*
X115815202Y-119698328D01*
X115815206Y-119698335D01*
X115901452Y-119813544D01*
X115901455Y-119813547D01*
X116016664Y-119899793D01*
X116016671Y-119899797D01*
X116151517Y-119950091D01*
X116151516Y-119950091D01*
X116158444Y-119950835D01*
X116211127Y-119956500D01*
X118338872Y-119956499D01*
X118398483Y-119950091D01*
X118533331Y-119899796D01*
X118648546Y-119813546D01*
X118734796Y-119698331D01*
X118785091Y-119563483D01*
X118791500Y-119503873D01*
X118791499Y-117376128D01*
X118785091Y-117316517D01*
X118770094Y-117276309D01*
X118734797Y-117181671D01*
X118734793Y-117181664D01*
X118648547Y-117066455D01*
X118648544Y-117066452D01*
X118533335Y-116980206D01*
X118533328Y-116980202D01*
X118398482Y-116929908D01*
X118398483Y-116929908D01*
X118338883Y-116923501D01*
X118338881Y-116923500D01*
X118338873Y-116923500D01*
X118338864Y-116923500D01*
X116211129Y-116923500D01*
X116211123Y-116923501D01*
X116151516Y-116929908D01*
X116016671Y-116980202D01*
X116016664Y-116980206D01*
X115901455Y-117066452D01*
X115901452Y-117066455D01*
X115815206Y-117181664D01*
X115815202Y-117181671D01*
X115764908Y-117316517D01*
X115760753Y-117355168D01*
X115758501Y-117376123D01*
X115758500Y-117376135D01*
X115758500Y-119503870D01*
X107780697Y-119503870D01*
X107852618Y-119293055D01*
X107901819Y-119026683D01*
X107911712Y-118755985D01*
X107882086Y-118486732D01*
X107813572Y-118224662D01*
X107707630Y-117975360D01*
X107566518Y-117744140D01*
X107563808Y-117740884D01*
X107393246Y-117535930D01*
X107393240Y-117535925D01*
X107191502Y-117355168D01*
X106965592Y-117205707D01*
X106965590Y-117205706D01*
X106720324Y-117090730D01*
X106720319Y-117090728D01*
X106720314Y-117090726D01*
X106460942Y-117012692D01*
X106460928Y-117012689D01*
X106345291Y-116995671D01*
X106192939Y-116973250D01*
X105989869Y-116973250D01*
X105989864Y-116973250D01*
X105787344Y-116988073D01*
X105787331Y-116988075D01*
X105522953Y-117046967D01*
X105522946Y-117046970D01*
X105269939Y-117143737D01*
X105033726Y-117276307D01*
X105033724Y-117276308D01*
X105033723Y-117276309D01*
X104971393Y-117324438D01*
X104819322Y-117441862D01*
X104631322Y-117636859D01*
X104631316Y-117636866D01*
X104473702Y-117857169D01*
X104473699Y-117857174D01*
X104349850Y-118098059D01*
X104349843Y-118098077D01*
X104262384Y-118354435D01*
X104262381Y-118354449D01*
X104242105Y-118464224D01*
X104217307Y-118598482D01*
X104213181Y-118620818D01*
X104213180Y-118620825D01*
X104203287Y-118891513D01*
X104232913Y-119160763D01*
X104232915Y-119160774D01*
X104285793Y-119363035D01*
X104301428Y-119422838D01*
X104407370Y-119672140D01*
X104546501Y-119900114D01*
X104548479Y-119903355D01*
X104548486Y-119903365D01*
X104721753Y-120111569D01*
X104721759Y-120111574D01*
X104771730Y-120156348D01*
X104808524Y-120215745D01*
X104807364Y-120285605D01*
X104768619Y-120343748D01*
X104704591Y-120371714D01*
X104688983Y-120372700D01*
X57367643Y-120372700D01*
X57300604Y-120353015D01*
X57279962Y-120336381D01*
X53656937Y-116713356D01*
X50028929Y-113085348D01*
X49967924Y-113019600D01*
X49961988Y-113013202D01*
X49961987Y-113013200D01*
X49961979Y-113013194D01*
X49885020Y-112951821D01*
X49810397Y-112887602D01*
X49810394Y-112887600D01*
X49785506Y-112871961D01*
X49779832Y-112867936D01*
X49756856Y-112849613D01*
X49671602Y-112800392D01*
X49588251Y-112748019D01*
X49588241Y-112748014D01*
X49561304Y-112736261D01*
X49555094Y-112733126D01*
X49529645Y-112718432D01*
X49529641Y-112718431D01*
X49437999Y-112682464D01*
X49347776Y-112643100D01*
X49347768Y-112643098D01*
X49319382Y-112635491D01*
X49312777Y-112633317D01*
X49285420Y-112622581D01*
X49189430Y-112600671D01*
X49094349Y-112575194D01*
X49070674Y-112572527D01*
X49065140Y-112571903D01*
X49058285Y-112570738D01*
X49029629Y-112564197D01*
X49029624Y-112564196D01*
X48931460Y-112556841D01*
X48833635Y-112545818D01*
X48735269Y-112549500D01*
X46445643Y-112549500D01*
X46378604Y-112529815D01*
X46357962Y-112513181D01*
X43028264Y-109183483D01*
X39614929Y-105770148D01*
X39570448Y-105722209D01*
X39547988Y-105698002D01*
X39547987Y-105698000D01*
X39471020Y-105636621D01*
X39396397Y-105572402D01*
X39371506Y-105556761D01*
X39365832Y-105552736D01*
X39342856Y-105534413D01*
X39257602Y-105485192D01*
X39174251Y-105432819D01*
X39174241Y-105432814D01*
X39147304Y-105421061D01*
X39141094Y-105417926D01*
X39115645Y-105403232D01*
X39115641Y-105403231D01*
X39023999Y-105367264D01*
X38933776Y-105327900D01*
X38933768Y-105327898D01*
X38905382Y-105320291D01*
X38898777Y-105318117D01*
X38871420Y-105307381D01*
X38775430Y-105285471D01*
X38680349Y-105259994D01*
X38656674Y-105257327D01*
X38651140Y-105256703D01*
X38644285Y-105255538D01*
X38615629Y-105248997D01*
X38615624Y-105248996D01*
X38517460Y-105241641D01*
X38419635Y-105230618D01*
X38321269Y-105234300D01*
X30087706Y-105234300D01*
X30046751Y-105227341D01*
X30043783Y-105226302D01*
X29790347Y-105158394D01*
X29529635Y-105129018D01*
X29267457Y-105138829D01*
X29009677Y-105187603D01*
X29009672Y-105187604D01*
X28904776Y-105224309D01*
X28762027Y-105274259D01*
X28530067Y-105396854D01*
X28481336Y-105432819D01*
X28318968Y-105552650D01*
X28133450Y-105738168D01*
X28067721Y-105827229D01*
X28021027Y-105890499D01*
X27977653Y-105949269D01*
X27855060Y-106181225D01*
X27768404Y-106428872D01*
X27768403Y-106428877D01*
X27719629Y-106686657D01*
X27709818Y-106948835D01*
X22860000Y-106948835D01*
X22860000Y-101934387D01*
X27713500Y-101934387D01*
X27730465Y-102046937D01*
X27752604Y-102193815D01*
X27752605Y-102193817D01*
X27752606Y-102193823D01*
X27829938Y-102444526D01*
X27943767Y-102680896D01*
X27943768Y-102680897D01*
X27943770Y-102680900D01*
X27943772Y-102680904D01*
X28043114Y-102826612D01*
X28091567Y-102897679D01*
X28270014Y-103090001D01*
X28270018Y-103090004D01*
X28270019Y-103090005D01*
X28475143Y-103253586D01*
X28702357Y-103384768D01*
X28946584Y-103480620D01*
X29202370Y-103539002D01*
X29202376Y-103539002D01*
X29202379Y-103539003D01*
X29398500Y-103553700D01*
X29398506Y-103553700D01*
X38796757Y-103553700D01*
X38863796Y-103573385D01*
X38884438Y-103590019D01*
X41919070Y-106624651D01*
X41986017Y-106696804D01*
X42062988Y-106758185D01*
X42137602Y-106822397D01*
X42162482Y-106838029D01*
X42168158Y-106842056D01*
X42191143Y-106860386D01*
X42276404Y-106909611D01*
X42359753Y-106961983D01*
X42376983Y-106969500D01*
X42386695Y-106973737D01*
X42392900Y-106976870D01*
X42418357Y-106991568D01*
X42418358Y-106991568D01*
X42418361Y-106991570D01*
X42418363Y-106991571D01*
X42503569Y-107025011D01*
X42510000Y-107027535D01*
X42600225Y-107066900D01*
X42628620Y-107074508D01*
X42635219Y-107076680D01*
X42652149Y-107083324D01*
X42662584Y-107087420D01*
X42662589Y-107087421D01*
X42662592Y-107087422D01*
X42758565Y-107109327D01*
X42853649Y-107134805D01*
X42879956Y-107137768D01*
X42882852Y-107138095D01*
X42889713Y-107139261D01*
X42893389Y-107140100D01*
X42918370Y-107145802D01*
X42918376Y-107145802D01*
X42918379Y-107145803D01*
X42918374Y-107145803D01*
X43016553Y-107153159D01*
X43114363Y-107164180D01*
X43212714Y-107160500D01*
X102144357Y-107160500D01*
X102211396Y-107180185D01*
X102232038Y-107196819D01*
X107769870Y-112734651D01*
X107836817Y-112806804D01*
X107913779Y-112868178D01*
X107988400Y-112932396D01*
X107988402Y-112932397D01*
X107988403Y-112932398D01*
X108013297Y-112948040D01*
X108018967Y-112952064D01*
X108041944Y-112970387D01*
X108116100Y-113013200D01*
X108127185Y-113019600D01*
X108210553Y-113071984D01*
X108237509Y-113083744D01*
X108243700Y-113086870D01*
X108269157Y-113101568D01*
X108360798Y-113137534D01*
X108451026Y-113176900D01*
X108479425Y-113184508D01*
X108486006Y-113186674D01*
X108507676Y-113195179D01*
X108513381Y-113197419D01*
X108513387Y-113197421D01*
X108583915Y-113213518D01*
X108609371Y-113219328D01*
X108704450Y-113244805D01*
X108733656Y-113248095D01*
X108740501Y-113249258D01*
X108769170Y-113255802D01*
X108769175Y-113255802D01*
X108769178Y-113255803D01*
X108867339Y-113263158D01*
X108965164Y-113274181D01*
X109063531Y-113270500D01*
X115998865Y-113270500D01*
X116065904Y-113290185D01*
X116111659Y-113342989D01*
X116121603Y-113412147D01*
X116092578Y-113475703D01*
X116042198Y-113510682D01*
X116016671Y-113520202D01*
X116016664Y-113520206D01*
X115901455Y-113606452D01*
X115901452Y-113606455D01*
X115815206Y-113721664D01*
X115815202Y-113721671D01*
X115764908Y-113856517D01*
X115758501Y-113916116D01*
X115758501Y-113916123D01*
X115758500Y-113916135D01*
X115758500Y-116043870D01*
X115758501Y-116043876D01*
X115764908Y-116103483D01*
X115815202Y-116238328D01*
X115815206Y-116238335D01*
X115901452Y-116353544D01*
X115901455Y-116353547D01*
X116016664Y-116439793D01*
X116016671Y-116439797D01*
X116151517Y-116490091D01*
X116151516Y-116490091D01*
X116158444Y-116490835D01*
X116211127Y-116496500D01*
X118338872Y-116496499D01*
X118398483Y-116490091D01*
X118533331Y-116439796D01*
X118648546Y-116353546D01*
X118734796Y-116238331D01*
X118785091Y-116103483D01*
X118791500Y-116043873D01*
X118791499Y-113916128D01*
X118785091Y-113856517D01*
X118745390Y-113750074D01*
X118734797Y-113721671D01*
X118734793Y-113721664D01*
X118648547Y-113606455D01*
X118648544Y-113606452D01*
X118533335Y-113520206D01*
X118533328Y-113520202D01*
X118398482Y-113469908D01*
X118398483Y-113469908D01*
X118338883Y-113463501D01*
X118338881Y-113463500D01*
X118338873Y-113463500D01*
X118338865Y-113463500D01*
X117727173Y-113463500D01*
X117660134Y-113443815D01*
X117614379Y-113391011D01*
X117604435Y-113321853D01*
X117633460Y-113258297D01*
X117692238Y-113220523D01*
X117699575Y-113218610D01*
X117792416Y-113197420D01*
X118036643Y-113101568D01*
X118108434Y-113060119D01*
X118120571Y-113053112D01*
X118182571Y-113036499D01*
X118338871Y-113036499D01*
X118338872Y-113036499D01*
X118398483Y-113030091D01*
X118533331Y-112979796D01*
X118648546Y-112893546D01*
X118734796Y-112778331D01*
X118785091Y-112643483D01*
X118791500Y-112583873D01*
X118791499Y-112433748D01*
X118803778Y-112379949D01*
X118909063Y-112161323D01*
X118986396Y-111910615D01*
X119025500Y-111651182D01*
X119025500Y-111388818D01*
X118986396Y-111129385D01*
X118909063Y-110878677D01*
X118876423Y-110810899D01*
X118803779Y-110660051D01*
X118791499Y-110606250D01*
X118791499Y-110456129D01*
X118791498Y-110456123D01*
X118791013Y-110451614D01*
X118785464Y-110399983D01*
X118785091Y-110396516D01*
X118734797Y-110261671D01*
X118734793Y-110261664D01*
X118648547Y-110146455D01*
X118648544Y-110146452D01*
X118533335Y-110060206D01*
X118533328Y-110060202D01*
X118398482Y-110009908D01*
X118398483Y-110009908D01*
X118338883Y-110003501D01*
X118338881Y-110003500D01*
X118338873Y-110003500D01*
X118338865Y-110003500D01*
X118182570Y-110003500D01*
X118120570Y-109986887D01*
X118036643Y-109938432D01*
X118036644Y-109938432D01*
X117952550Y-109905428D01*
X117897336Y-109862612D01*
X117874035Y-109796742D01*
X117890046Y-109728732D01*
X117940284Y-109680173D01*
X117952550Y-109674572D01*
X118036643Y-109641568D01*
X118120571Y-109593112D01*
X118182571Y-109576499D01*
X118338871Y-109576499D01*
X118338872Y-109576499D01*
X118398483Y-109570091D01*
X118533331Y-109519796D01*
X118648546Y-109433546D01*
X118734796Y-109318331D01*
X118785091Y-109183483D01*
X118791500Y-109123873D01*
X118791499Y-108973748D01*
X118803778Y-108919949D01*
X118909063Y-108701323D01*
X118986396Y-108450615D01*
X119025500Y-108191182D01*
X119025500Y-107928818D01*
X118986396Y-107669385D01*
X118909063Y-107418677D01*
X118844332Y-107284261D01*
X118803779Y-107200051D01*
X118791499Y-107146250D01*
X118791499Y-106996129D01*
X118791498Y-106996123D01*
X118791008Y-106991568D01*
X118785091Y-106936517D01*
X118777001Y-106914827D01*
X118734797Y-106801671D01*
X118734793Y-106801664D01*
X118648547Y-106686455D01*
X118648544Y-106686452D01*
X118533335Y-106600206D01*
X118533328Y-106600202D01*
X118398482Y-106549908D01*
X118398483Y-106549908D01*
X118338883Y-106543501D01*
X118338881Y-106543500D01*
X118338873Y-106543500D01*
X118338865Y-106543500D01*
X118182570Y-106543500D01*
X118120570Y-106526887D01*
X118036643Y-106478432D01*
X117792421Y-106382582D01*
X117792416Y-106382580D01*
X117792411Y-106382578D01*
X117792402Y-106382576D01*
X117574818Y-106332914D01*
X117536630Y-106324198D01*
X117536629Y-106324197D01*
X117536625Y-106324197D01*
X117536620Y-106324196D01*
X117340500Y-106309500D01*
X117340494Y-106309500D01*
X110741442Y-106309500D01*
X110674403Y-106289815D01*
X110653761Y-106273181D01*
X106048330Y-101667750D01*
X102952094Y-98571513D01*
X104203287Y-98571513D01*
X104232913Y-98840763D01*
X104232915Y-98840774D01*
X104294622Y-99076805D01*
X104301428Y-99102838D01*
X104407370Y-99352140D01*
X104536506Y-99563737D01*
X104548479Y-99583355D01*
X104548486Y-99583365D01*
X104721753Y-99791569D01*
X104721759Y-99791574D01*
X104775900Y-99840084D01*
X104923498Y-99972332D01*
X105149410Y-100121794D01*
X105394676Y-100236770D01*
X105394683Y-100236772D01*
X105394685Y-100236773D01*
X105654057Y-100314807D01*
X105654064Y-100314808D01*
X105654069Y-100314810D01*
X105922061Y-100354250D01*
X105922066Y-100354250D01*
X106125136Y-100354250D01*
X106176633Y-100350480D01*
X106327656Y-100339427D01*
X106440258Y-100314343D01*
X106592046Y-100280532D01*
X106592048Y-100280531D01*
X106592053Y-100280530D01*
X106845058Y-100183764D01*
X107081277Y-100051191D01*
X107295677Y-99885638D01*
X107483686Y-99690631D01*
X107641299Y-99470329D01*
X107715287Y-99326419D01*
X107765149Y-99229440D01*
X107765151Y-99229434D01*
X107765156Y-99229425D01*
X107852618Y-98973055D01*
X107901819Y-98706683D01*
X107911712Y-98435985D01*
X107882086Y-98166732D01*
X107813572Y-97904662D01*
X107707630Y-97655360D01*
X107566518Y-97424140D01*
X107526624Y-97376202D01*
X107393246Y-97215930D01*
X107393240Y-97215925D01*
X107191502Y-97035168D01*
X106965592Y-96885707D01*
X106965590Y-96885706D01*
X106720324Y-96770730D01*
X106720319Y-96770728D01*
X106720314Y-96770726D01*
X106460942Y-96692692D01*
X106460928Y-96692689D01*
X106345291Y-96675671D01*
X106192939Y-96653250D01*
X105989869Y-96653250D01*
X105989864Y-96653250D01*
X105787344Y-96668073D01*
X105787331Y-96668075D01*
X105522953Y-96726967D01*
X105522946Y-96726970D01*
X105269939Y-96823737D01*
X105033726Y-96956307D01*
X104819322Y-97121862D01*
X104631322Y-97316859D01*
X104631316Y-97316866D01*
X104473702Y-97537169D01*
X104473699Y-97537174D01*
X104349850Y-97778059D01*
X104349843Y-97778077D01*
X104262384Y-98034435D01*
X104262381Y-98034449D01*
X104213181Y-98300818D01*
X104213180Y-98300825D01*
X104203287Y-98571513D01*
X102952094Y-98571513D01*
X100955929Y-96575348D01*
X100911448Y-96527409D01*
X100888988Y-96503202D01*
X100888987Y-96503200D01*
X100812020Y-96441821D01*
X100737397Y-96377602D01*
X100712506Y-96361961D01*
X100706832Y-96357936D01*
X100683856Y-96339613D01*
X100598602Y-96290392D01*
X100515251Y-96238019D01*
X100515241Y-96238014D01*
X100488304Y-96226261D01*
X100482094Y-96223126D01*
X100456645Y-96208432D01*
X100456641Y-96208431D01*
X100364999Y-96172464D01*
X100274776Y-96133100D01*
X100274768Y-96133098D01*
X100246382Y-96125491D01*
X100239777Y-96123317D01*
X100212420Y-96112581D01*
X100116430Y-96090671D01*
X100021349Y-96065194D01*
X99997674Y-96062527D01*
X99992140Y-96061903D01*
X99985285Y-96060738D01*
X99956629Y-96054197D01*
X99956624Y-96054196D01*
X99858460Y-96046841D01*
X99760635Y-96035818D01*
X99662269Y-96039500D01*
X55386443Y-96039500D01*
X55319404Y-96019815D01*
X55298762Y-96003181D01*
X54341357Y-95045776D01*
X53280129Y-93984548D01*
X53222494Y-93922432D01*
X53213188Y-93912402D01*
X53213187Y-93912400D01*
X53213179Y-93912394D01*
X53136220Y-93851021D01*
X53061597Y-93786802D01*
X53036706Y-93771161D01*
X53031032Y-93767136D01*
X53008056Y-93748813D01*
X52922802Y-93699592D01*
X52839451Y-93647219D01*
X52839441Y-93647214D01*
X52812504Y-93635461D01*
X52806294Y-93632326D01*
X52780845Y-93617632D01*
X52780841Y-93617631D01*
X52689199Y-93581664D01*
X52598976Y-93542300D01*
X52598968Y-93542298D01*
X52570582Y-93534691D01*
X52563977Y-93532517D01*
X52536620Y-93521781D01*
X52440630Y-93499871D01*
X52345549Y-93474394D01*
X52321874Y-93471727D01*
X52316340Y-93471103D01*
X52309485Y-93469938D01*
X52280829Y-93463397D01*
X52280824Y-93463396D01*
X52182660Y-93456041D01*
X52084835Y-93445018D01*
X51986469Y-93448700D01*
X43263514Y-93448700D01*
X43165162Y-93445019D01*
X43165161Y-93445019D01*
X43067353Y-93456040D01*
X42969175Y-93463396D01*
X42969172Y-93463397D01*
X42940503Y-93469939D01*
X42933649Y-93471103D01*
X42904449Y-93474394D01*
X42809369Y-93499871D01*
X42809365Y-93499872D01*
X42713384Y-93521780D01*
X42713380Y-93521781D01*
X42713378Y-93521782D01*
X42699207Y-93527343D01*
X42686015Y-93532520D01*
X42679412Y-93534693D01*
X42651028Y-93542298D01*
X42651023Y-93542300D01*
X42560800Y-93581664D01*
X42469160Y-93617630D01*
X42443695Y-93632331D01*
X42437489Y-93635464D01*
X42410558Y-93647214D01*
X42327204Y-93699588D01*
X42241937Y-93748817D01*
X42218959Y-93767141D01*
X42213288Y-93771165D01*
X42188403Y-93786803D01*
X42113788Y-93851014D01*
X42036819Y-93912394D01*
X42036816Y-93912397D01*
X41986543Y-93966579D01*
X41969870Y-93984548D01*
X41476015Y-94478404D01*
X41018038Y-94936381D01*
X40956715Y-94969866D01*
X40930357Y-94972700D01*
X29398500Y-94972700D01*
X29202379Y-94987396D01*
X29202374Y-94987397D01*
X28946597Y-95045776D01*
X28946578Y-95045782D01*
X28702356Y-95141632D01*
X28475143Y-95272814D01*
X28270014Y-95436398D01*
X28091567Y-95628720D01*
X27943768Y-95845502D01*
X27943767Y-95845503D01*
X27829938Y-96081873D01*
X27752606Y-96332576D01*
X27752605Y-96332581D01*
X27752604Y-96332585D01*
X27745819Y-96377602D01*
X27713500Y-96592012D01*
X27713500Y-96854387D01*
X27722848Y-96916401D01*
X27752604Y-97113815D01*
X27752605Y-97113817D01*
X27752606Y-97113823D01*
X27829938Y-97364526D01*
X27943767Y-97600896D01*
X27943768Y-97600897D01*
X27943770Y-97600900D01*
X27943772Y-97600904D01*
X28064567Y-97778077D01*
X28091567Y-97817679D01*
X28270014Y-98010001D01*
X28270018Y-98010004D01*
X28270019Y-98010005D01*
X28475143Y-98173586D01*
X28702357Y-98304768D01*
X28946584Y-98400620D01*
X29202370Y-98459002D01*
X29202376Y-98459002D01*
X29202379Y-98459003D01*
X29398500Y-98473700D01*
X29398506Y-98473700D01*
X41674069Y-98473700D01*
X41772435Y-98477381D01*
X41772435Y-98477380D01*
X41772436Y-98477381D01*
X41870260Y-98466358D01*
X41968430Y-98459002D01*
X41984467Y-98455341D01*
X41997087Y-98452461D01*
X42003947Y-98451295D01*
X42006842Y-98450968D01*
X42033150Y-98448005D01*
X42105245Y-98428687D01*
X42128231Y-98422528D01*
X42224208Y-98400622D01*
X42224209Y-98400621D01*
X42224216Y-98400620D01*
X42251590Y-98389875D01*
X42258172Y-98387709D01*
X42286575Y-98380100D01*
X42376799Y-98340735D01*
X42468443Y-98304768D01*
X42493919Y-98290057D01*
X42500087Y-98286944D01*
X42527047Y-98275183D01*
X42610402Y-98222807D01*
X42695657Y-98173586D01*
X42718645Y-98155252D01*
X42724292Y-98151245D01*
X42749197Y-98135598D01*
X42823820Y-98071378D01*
X42870146Y-98034435D01*
X42900769Y-98010015D01*
X42900771Y-98010012D01*
X42900781Y-98010005D01*
X42967729Y-97937851D01*
X43919562Y-96986019D01*
X43980885Y-96952534D01*
X44007243Y-96949700D01*
X46693512Y-96949700D01*
X46760551Y-96969385D01*
X46806306Y-97022189D01*
X46816250Y-97091347D01*
X46787225Y-97154903D01*
X46782780Y-97159765D01*
X46631322Y-97316859D01*
X46631316Y-97316866D01*
X46473702Y-97537169D01*
X46473699Y-97537174D01*
X46349850Y-97778059D01*
X46349843Y-97778077D01*
X46262384Y-98034435D01*
X46262381Y-98034449D01*
X46213181Y-98300818D01*
X46213180Y-98300825D01*
X46203287Y-98571513D01*
X46232913Y-98840763D01*
X46232915Y-98840774D01*
X46294622Y-99076805D01*
X46301428Y-99102838D01*
X46407370Y-99352140D01*
X46536506Y-99563737D01*
X46548479Y-99583355D01*
X46548486Y-99583365D01*
X46721753Y-99791569D01*
X46721759Y-99791574D01*
X46775900Y-99840084D01*
X46923498Y-99972332D01*
X47149410Y-100121794D01*
X47394676Y-100236770D01*
X47394683Y-100236772D01*
X47394685Y-100236773D01*
X47654057Y-100314807D01*
X47654064Y-100314808D01*
X47654069Y-100314810D01*
X47922061Y-100354250D01*
X47922066Y-100354250D01*
X48125136Y-100354250D01*
X48176633Y-100350480D01*
X48327656Y-100339427D01*
X48440258Y-100314343D01*
X48592046Y-100280532D01*
X48592048Y-100280531D01*
X48592053Y-100280530D01*
X48845058Y-100183764D01*
X49081277Y-100051191D01*
X49295677Y-99885638D01*
X49483686Y-99690631D01*
X49641299Y-99470329D01*
X49715287Y-99326419D01*
X49765149Y-99229440D01*
X49765151Y-99229434D01*
X49765156Y-99229425D01*
X49852618Y-98973055D01*
X49901819Y-98706683D01*
X49911712Y-98435985D01*
X49882086Y-98166732D01*
X49813572Y-97904662D01*
X49707630Y-97655360D01*
X49566518Y-97424140D01*
X49526624Y-97376202D01*
X49393246Y-97215930D01*
X49393240Y-97215925D01*
X49337578Y-97166052D01*
X49300784Y-97106655D01*
X49301944Y-97036795D01*
X49340689Y-96978652D01*
X49404717Y-96950686D01*
X49420325Y-96949700D01*
X51242757Y-96949700D01*
X51309796Y-96969385D01*
X51330438Y-96986019D01*
X53349070Y-99004651D01*
X53416017Y-99076804D01*
X53492988Y-99138185D01*
X53567602Y-99202397D01*
X53584847Y-99213231D01*
X53587105Y-99214651D01*
X53592482Y-99218029D01*
X53598158Y-99222056D01*
X53621143Y-99240386D01*
X53706404Y-99289611D01*
X53789753Y-99341983D01*
X53816695Y-99353737D01*
X53822900Y-99356870D01*
X53848357Y-99371568D01*
X53848358Y-99371568D01*
X53848361Y-99371570D01*
X53848363Y-99371571D01*
X53940000Y-99407535D01*
X54030225Y-99446900D01*
X54058620Y-99454508D01*
X54065219Y-99456680D01*
X54082149Y-99463324D01*
X54092584Y-99467420D01*
X54092589Y-99467421D01*
X54092592Y-99467422D01*
X54188565Y-99489327D01*
X54283649Y-99514805D01*
X54309956Y-99517768D01*
X54312852Y-99518095D01*
X54319713Y-99519261D01*
X54323389Y-99520100D01*
X54348370Y-99525802D01*
X54348376Y-99525802D01*
X54348379Y-99525803D01*
X54348374Y-99525803D01*
X54446553Y-99533159D01*
X54544363Y-99544180D01*
X54642714Y-99540500D01*
X98918557Y-99540500D01*
X98985596Y-99560185D01*
X99006238Y-99576819D01*
X102877238Y-103447819D01*
X102910723Y-103509142D01*
X102905739Y-103578834D01*
X102863867Y-103634767D01*
X102798403Y-103659184D01*
X102789557Y-103659500D01*
X43956443Y-103659500D01*
X43889404Y-103639815D01*
X43868762Y-103623181D01*
X42372759Y-102127178D01*
X40834129Y-100588548D01*
X40789648Y-100540609D01*
X40767188Y-100516402D01*
X40767187Y-100516400D01*
X40760799Y-100511306D01*
X40690220Y-100455021D01*
X40615597Y-100390802D01*
X40590706Y-100375161D01*
X40585032Y-100371136D01*
X40562056Y-100352813D01*
X40476802Y-100303592D01*
X40393451Y-100251219D01*
X40393441Y-100251214D01*
X40366504Y-100239461D01*
X40360294Y-100236326D01*
X40334845Y-100221632D01*
X40334841Y-100221631D01*
X40243199Y-100185664D01*
X40152976Y-100146300D01*
X40152968Y-100146298D01*
X40124582Y-100138691D01*
X40117977Y-100136517D01*
X40090620Y-100125781D01*
X39994630Y-100103871D01*
X39899549Y-100078394D01*
X39875874Y-100075727D01*
X39870340Y-100075103D01*
X39863485Y-100073938D01*
X39834829Y-100067397D01*
X39834824Y-100067396D01*
X39736660Y-100060041D01*
X39638835Y-100049018D01*
X39540469Y-100052700D01*
X29398500Y-100052700D01*
X29202379Y-100067396D01*
X29202374Y-100067397D01*
X28946597Y-100125776D01*
X28946578Y-100125782D01*
X28702356Y-100221632D01*
X28475143Y-100352814D01*
X28270014Y-100516398D01*
X28091567Y-100708720D01*
X27943768Y-100925502D01*
X27943767Y-100925503D01*
X27829938Y-101161873D01*
X27752606Y-101412576D01*
X27752605Y-101412581D01*
X27752604Y-101412585D01*
X27737853Y-101510447D01*
X27713500Y-101672012D01*
X27713500Y-101934387D01*
X22860000Y-101934387D01*
X22860000Y-90961587D01*
X37416300Y-90961587D01*
X37427256Y-91034270D01*
X37455404Y-91221015D01*
X37455405Y-91221017D01*
X37455406Y-91221023D01*
X37532738Y-91471726D01*
X37646567Y-91708096D01*
X37646568Y-91708097D01*
X37646570Y-91708100D01*
X37646572Y-91708104D01*
X37761614Y-91876839D01*
X37794367Y-91924879D01*
X37972814Y-92117201D01*
X37972818Y-92117204D01*
X37972819Y-92117205D01*
X38177943Y-92280786D01*
X38405157Y-92411968D01*
X38649384Y-92507820D01*
X38905170Y-92566202D01*
X38905176Y-92566202D01*
X38905179Y-92566203D01*
X39101300Y-92580900D01*
X39101306Y-92580900D01*
X39232300Y-92580900D01*
X39428420Y-92566203D01*
X39428422Y-92566202D01*
X39428430Y-92566202D01*
X39684216Y-92507820D01*
X39928443Y-92411968D01*
X40155657Y-92280786D01*
X40360781Y-92117205D01*
X40539233Y-91924879D01*
X40687028Y-91708104D01*
X40800863Y-91471723D01*
X40878196Y-91221015D01*
X40917300Y-90961582D01*
X40917300Y-90699218D01*
X40878196Y-90439785D01*
X40800863Y-90189077D01*
X40749539Y-90082502D01*
X40687032Y-89952703D01*
X40687031Y-89952702D01*
X40687030Y-89952701D01*
X40687028Y-89952696D01*
X40552923Y-89756000D01*
X59190275Y-89756000D01*
X59209992Y-90119676D01*
X59210361Y-90126470D01*
X59210362Y-90126487D01*
X59270382Y-90492589D01*
X59270387Y-90492610D01*
X59369640Y-90850089D01*
X59369641Y-90850091D01*
X59506965Y-91194751D01*
X59506974Y-91194769D01*
X59535991Y-91249500D01*
X59669005Y-91500392D01*
X59680760Y-91522563D01*
X59680761Y-91522566D01*
X59888965Y-91829643D01*
X59888973Y-91829653D01*
X60129157Y-92112418D01*
X60129158Y-92112419D01*
X60277789Y-92253209D01*
X60398514Y-92367566D01*
X60398526Y-92367576D01*
X60693875Y-92592095D01*
X60693892Y-92592107D01*
X60976959Y-92762421D01*
X61011787Y-92783376D01*
X61011791Y-92783377D01*
X61011795Y-92783380D01*
X61348501Y-92939157D01*
X61348512Y-92939162D01*
X61700107Y-93057628D01*
X62062450Y-93137386D01*
X62431292Y-93177500D01*
X62431298Y-93177500D01*
X62802302Y-93177500D01*
X62802308Y-93177500D01*
X63171150Y-93137386D01*
X63533493Y-93057628D01*
X63885088Y-92939162D01*
X64221813Y-92783376D01*
X64343769Y-92709998D01*
X64539707Y-92592107D01*
X64539716Y-92592100D01*
X64539722Y-92592097D01*
X64835085Y-92367567D01*
X65104442Y-92112419D01*
X65344633Y-91829645D01*
X65520603Y-91570109D01*
X65552838Y-91522566D01*
X65552838Y-91522564D01*
X65552843Y-91522558D01*
X65726630Y-91194761D01*
X65863957Y-90850095D01*
X65871100Y-90824371D01*
X65905850Y-90699212D01*
X65963215Y-90492602D01*
X65994055Y-90304488D01*
X66023237Y-90126487D01*
X66023237Y-90126484D01*
X66023239Y-90126473D01*
X66043325Y-89756000D01*
X66023239Y-89385527D01*
X66022335Y-89380014D01*
X65963217Y-89019410D01*
X65963216Y-89019409D01*
X65963215Y-89019398D01*
X65881593Y-88725422D01*
X65863959Y-88661910D01*
X65863958Y-88661908D01*
X65726634Y-88317248D01*
X65726625Y-88317230D01*
X65674348Y-88218625D01*
X65552843Y-87989442D01*
X65552839Y-87989436D01*
X65552838Y-87989433D01*
X65344634Y-87682356D01*
X65344626Y-87682346D01*
X65104442Y-87399581D01*
X64835085Y-87144433D01*
X64835073Y-87144423D01*
X64539724Y-86919904D01*
X64539707Y-86919892D01*
X64221817Y-86728626D01*
X64221804Y-86728619D01*
X63885098Y-86572842D01*
X63885093Y-86572840D01*
X63885088Y-86572838D01*
X63713704Y-86515092D01*
X63533492Y-86454371D01*
X63171148Y-86374613D01*
X62802309Y-86334500D01*
X62802308Y-86334500D01*
X62431292Y-86334500D01*
X62431290Y-86334500D01*
X62062451Y-86374613D01*
X61700107Y-86454371D01*
X61428318Y-86545948D01*
X61348512Y-86572838D01*
X61348509Y-86572839D01*
X61348501Y-86572842D01*
X61011795Y-86728619D01*
X61011782Y-86728626D01*
X60693892Y-86919892D01*
X60693875Y-86919904D01*
X60398526Y-87144423D01*
X60398514Y-87144433D01*
X60129157Y-87399581D01*
X59888973Y-87682346D01*
X59888965Y-87682356D01*
X59680761Y-87989433D01*
X59680760Y-87989436D01*
X59506974Y-88317230D01*
X59506965Y-88317248D01*
X59369641Y-88661908D01*
X59369640Y-88661910D01*
X59270387Y-89019389D01*
X59270382Y-89019410D01*
X59210362Y-89385512D01*
X59210361Y-89385525D01*
X59210361Y-89385527D01*
X59209779Y-89396261D01*
X59191364Y-89735921D01*
X59190275Y-89756000D01*
X40552923Y-89756000D01*
X40539233Y-89735921D01*
X40501738Y-89695511D01*
X40360785Y-89543598D01*
X40306582Y-89500373D01*
X40155657Y-89380014D01*
X39928443Y-89248832D01*
X39684216Y-89152980D01*
X39684211Y-89152978D01*
X39684202Y-89152976D01*
X39466618Y-89103314D01*
X39428430Y-89094598D01*
X39428429Y-89094597D01*
X39428425Y-89094597D01*
X39428420Y-89094596D01*
X39232300Y-89079900D01*
X39232294Y-89079900D01*
X39101306Y-89079900D01*
X39101300Y-89079900D01*
X38905179Y-89094596D01*
X38905174Y-89094597D01*
X38649397Y-89152976D01*
X38649378Y-89152982D01*
X38405156Y-89248832D01*
X38177943Y-89380014D01*
X37972814Y-89543598D01*
X37794367Y-89735920D01*
X37646568Y-89952702D01*
X37646567Y-89952703D01*
X37532738Y-90189073D01*
X37455406Y-90439776D01*
X37455405Y-90439781D01*
X37455404Y-90439785D01*
X37447445Y-90492589D01*
X37416300Y-90699212D01*
X37416300Y-90961587D01*
X22860000Y-90961587D01*
X22860000Y-86130433D01*
X37452445Y-86130433D01*
X37471839Y-86401592D01*
X37471840Y-86401599D01*
X37529623Y-86667225D01*
X37529625Y-86667233D01*
X37583621Y-86812001D01*
X37624630Y-86921951D01*
X37754909Y-87160539D01*
X37754910Y-87160540D01*
X37754913Y-87160545D01*
X37917829Y-87378174D01*
X37917833Y-87378178D01*
X37917838Y-87378184D01*
X38110047Y-87570393D01*
X38110053Y-87570398D01*
X38110058Y-87570403D01*
X38327687Y-87733319D01*
X38327691Y-87733321D01*
X38327692Y-87733322D01*
X38566281Y-87863601D01*
X38566280Y-87863601D01*
X38566284Y-87863602D01*
X38566287Y-87863604D01*
X38820999Y-87958607D01*
X39086640Y-88016393D01*
X39338405Y-88034399D01*
X39357799Y-88035787D01*
X39357800Y-88035787D01*
X39357801Y-88035787D01*
X39375900Y-88034492D01*
X39628960Y-88016393D01*
X39894601Y-87958607D01*
X40149313Y-87863604D01*
X40149317Y-87863601D01*
X40149319Y-87863601D01*
X40363237Y-87746793D01*
X40387913Y-87733319D01*
X40605542Y-87570403D01*
X40797771Y-87378174D01*
X40960687Y-87160545D01*
X41090972Y-86921945D01*
X41185975Y-86667233D01*
X41243761Y-86401592D01*
X41263155Y-86130433D01*
X41652444Y-86130433D01*
X41671838Y-86401592D01*
X41671839Y-86401599D01*
X41729622Y-86667225D01*
X41729624Y-86667233D01*
X41783620Y-86812001D01*
X41824629Y-86921951D01*
X41954908Y-87160539D01*
X41954909Y-87160540D01*
X41954912Y-87160545D01*
X42117828Y-87378174D01*
X42117832Y-87378178D01*
X42117837Y-87378184D01*
X42310046Y-87570393D01*
X42310052Y-87570398D01*
X42310057Y-87570403D01*
X42527686Y-87733319D01*
X42527690Y-87733321D01*
X42527691Y-87733322D01*
X42766280Y-87863601D01*
X42766279Y-87863601D01*
X42766283Y-87863602D01*
X42766286Y-87863604D01*
X43020998Y-87958607D01*
X43286639Y-88016393D01*
X43538404Y-88034399D01*
X43557798Y-88035787D01*
X43557799Y-88035787D01*
X43557800Y-88035787D01*
X43575899Y-88034492D01*
X43828959Y-88016393D01*
X44094600Y-87958607D01*
X44349312Y-87863604D01*
X44349316Y-87863601D01*
X44349318Y-87863601D01*
X44563236Y-87746793D01*
X44587912Y-87733319D01*
X44805541Y-87570403D01*
X44997770Y-87378174D01*
X45160686Y-87160545D01*
X45290971Y-86921945D01*
X45385974Y-86667233D01*
X45443760Y-86401592D01*
X45463154Y-86130432D01*
X45443760Y-85859272D01*
X45385974Y-85593631D01*
X45290971Y-85338919D01*
X45290969Y-85338916D01*
X45290968Y-85338912D01*
X45160689Y-85100324D01*
X45160688Y-85100323D01*
X45160686Y-85100319D01*
X44997770Y-84882690D01*
X44997765Y-84882685D01*
X44997760Y-84882679D01*
X44805551Y-84690470D01*
X44805545Y-84690465D01*
X44805541Y-84690461D01*
X44587912Y-84527545D01*
X44587907Y-84527542D01*
X44587906Y-84527541D01*
X44349317Y-84397262D01*
X44349318Y-84397262D01*
X44299719Y-84378762D01*
X44094600Y-84302257D01*
X44094593Y-84302255D01*
X44094592Y-84302255D01*
X43828966Y-84244472D01*
X43828959Y-84244471D01*
X43557800Y-84225077D01*
X43557798Y-84225077D01*
X43286638Y-84244471D01*
X43286631Y-84244472D01*
X43021005Y-84302255D01*
X43021001Y-84302256D01*
X43020998Y-84302257D01*
X42893642Y-84349758D01*
X42766279Y-84397262D01*
X42527691Y-84527541D01*
X42527690Y-84527542D01*
X42310058Y-84690460D01*
X42310046Y-84690470D01*
X42117837Y-84882679D01*
X42117827Y-84882691D01*
X41954909Y-85100323D01*
X41954908Y-85100324D01*
X41824629Y-85338912D01*
X41795300Y-85417547D01*
X41729624Y-85593631D01*
X41729623Y-85593634D01*
X41729622Y-85593638D01*
X41671839Y-85859264D01*
X41671838Y-85859271D01*
X41652444Y-86130430D01*
X41652444Y-86130433D01*
X41263155Y-86130433D01*
X41263155Y-86130432D01*
X41243761Y-85859272D01*
X41185975Y-85593631D01*
X41090972Y-85338919D01*
X41090970Y-85338916D01*
X41090969Y-85338912D01*
X40960690Y-85100324D01*
X40960689Y-85100323D01*
X40960687Y-85100319D01*
X40797771Y-84882690D01*
X40797766Y-84882685D01*
X40797761Y-84882679D01*
X40605552Y-84690470D01*
X40605546Y-84690465D01*
X40605542Y-84690461D01*
X40387913Y-84527545D01*
X40387908Y-84527542D01*
X40387907Y-84527541D01*
X40149318Y-84397262D01*
X40149319Y-84397262D01*
X40099720Y-84378762D01*
X39894601Y-84302257D01*
X39894594Y-84302255D01*
X39894593Y-84302255D01*
X39628967Y-84244472D01*
X39628960Y-84244471D01*
X39357801Y-84225077D01*
X39357799Y-84225077D01*
X39086639Y-84244471D01*
X39086632Y-84244472D01*
X38821006Y-84302255D01*
X38821002Y-84302256D01*
X38820999Y-84302257D01*
X38693643Y-84349758D01*
X38566280Y-84397262D01*
X38327692Y-84527541D01*
X38327691Y-84527542D01*
X38110059Y-84690460D01*
X38110047Y-84690470D01*
X37917838Y-84882679D01*
X37917828Y-84882691D01*
X37754910Y-85100323D01*
X37754909Y-85100324D01*
X37624630Y-85338912D01*
X37595301Y-85417547D01*
X37529625Y-85593631D01*
X37529624Y-85593634D01*
X37529623Y-85593638D01*
X37471840Y-85859264D01*
X37471839Y-85859271D01*
X37452445Y-86130430D01*
X37452445Y-86130433D01*
X22860000Y-86130433D01*
X22860000Y-81930434D01*
X37452445Y-81930434D01*
X37471839Y-82201593D01*
X37471840Y-82201600D01*
X37529623Y-82467226D01*
X37529625Y-82467234D01*
X37606130Y-82672353D01*
X37624630Y-82721952D01*
X37754909Y-82960540D01*
X37754910Y-82960541D01*
X37754913Y-82960546D01*
X37917829Y-83178175D01*
X37917833Y-83178179D01*
X37917838Y-83178185D01*
X38110047Y-83370394D01*
X38110053Y-83370399D01*
X38110058Y-83370404D01*
X38327687Y-83533320D01*
X38327691Y-83533322D01*
X38327692Y-83533323D01*
X38566281Y-83663602D01*
X38566280Y-83663602D01*
X38566284Y-83663603D01*
X38566287Y-83663605D01*
X38820999Y-83758608D01*
X39086640Y-83816394D01*
X39338405Y-83834400D01*
X39357799Y-83835788D01*
X39357800Y-83835788D01*
X39357801Y-83835788D01*
X39375900Y-83834493D01*
X39628960Y-83816394D01*
X39894601Y-83758608D01*
X40149313Y-83663605D01*
X40149317Y-83663602D01*
X40149319Y-83663602D01*
X40268613Y-83598462D01*
X40387913Y-83533320D01*
X40605542Y-83370404D01*
X40797771Y-83178175D01*
X40960687Y-82960546D01*
X41060577Y-82777610D01*
X41090969Y-82721952D01*
X41090969Y-82721950D01*
X41090972Y-82721946D01*
X41185975Y-82467234D01*
X41243761Y-82201593D01*
X41263155Y-81930434D01*
X41652444Y-81930434D01*
X41671838Y-82201593D01*
X41671839Y-82201600D01*
X41729622Y-82467226D01*
X41729624Y-82467234D01*
X41806129Y-82672353D01*
X41824629Y-82721952D01*
X41954908Y-82960540D01*
X41954909Y-82960541D01*
X41954912Y-82960546D01*
X42117828Y-83178175D01*
X42117832Y-83178179D01*
X42117837Y-83178185D01*
X42310046Y-83370394D01*
X42310052Y-83370399D01*
X42310057Y-83370404D01*
X42527686Y-83533320D01*
X42527690Y-83533322D01*
X42527691Y-83533323D01*
X42766280Y-83663602D01*
X42766279Y-83663602D01*
X42766283Y-83663603D01*
X42766286Y-83663605D01*
X43020998Y-83758608D01*
X43286639Y-83816394D01*
X43538404Y-83834400D01*
X43557798Y-83835788D01*
X43557799Y-83835788D01*
X43557800Y-83835788D01*
X43575899Y-83834493D01*
X43828959Y-83816394D01*
X44094600Y-83758608D01*
X44349312Y-83663605D01*
X44349316Y-83663602D01*
X44349318Y-83663602D01*
X44468612Y-83598462D01*
X44587912Y-83533320D01*
X44805541Y-83370404D01*
X44997770Y-83178175D01*
X45160686Y-82960546D01*
X45260576Y-82777610D01*
X45290968Y-82721952D01*
X45290968Y-82721950D01*
X45290971Y-82721946D01*
X45385974Y-82467234D01*
X45443760Y-82201593D01*
X45463154Y-81930433D01*
X45443760Y-81659273D01*
X45385974Y-81393632D01*
X45290971Y-81138920D01*
X45290969Y-81138917D01*
X45290968Y-81138913D01*
X45160689Y-80900325D01*
X45160688Y-80900324D01*
X45160686Y-80900320D01*
X44997770Y-80682691D01*
X44997765Y-80682686D01*
X44997760Y-80682680D01*
X44805551Y-80490471D01*
X44805545Y-80490466D01*
X44805541Y-80490462D01*
X44587912Y-80327546D01*
X44587907Y-80327543D01*
X44587906Y-80327542D01*
X44349317Y-80197263D01*
X44349318Y-80197263D01*
X44299719Y-80178763D01*
X44094600Y-80102258D01*
X44094593Y-80102256D01*
X44094592Y-80102256D01*
X43828966Y-80044473D01*
X43828959Y-80044472D01*
X43557800Y-80025078D01*
X43557798Y-80025078D01*
X43286638Y-80044472D01*
X43286631Y-80044473D01*
X43021005Y-80102256D01*
X43021001Y-80102257D01*
X43020998Y-80102258D01*
X42908266Y-80144305D01*
X42766279Y-80197263D01*
X42527691Y-80327542D01*
X42527690Y-80327543D01*
X42310058Y-80490461D01*
X42310046Y-80490471D01*
X42117837Y-80682680D01*
X42117827Y-80682692D01*
X41954909Y-80900324D01*
X41954908Y-80900325D01*
X41824629Y-81138913D01*
X41822888Y-81143582D01*
X41729624Y-81393632D01*
X41729623Y-81393635D01*
X41729622Y-81393639D01*
X41671839Y-81659265D01*
X41671838Y-81659272D01*
X41652444Y-81930431D01*
X41652444Y-81930434D01*
X41263155Y-81930434D01*
X41263155Y-81930433D01*
X41243761Y-81659273D01*
X41185975Y-81393632D01*
X41090972Y-81138920D01*
X41090970Y-81138917D01*
X41090969Y-81138913D01*
X40960690Y-80900325D01*
X40960689Y-80900324D01*
X40960687Y-80900320D01*
X40797771Y-80682691D01*
X40797766Y-80682686D01*
X40797761Y-80682680D01*
X40605552Y-80490471D01*
X40605546Y-80490466D01*
X40605542Y-80490462D01*
X40387913Y-80327546D01*
X40387908Y-80327543D01*
X40387907Y-80327542D01*
X40149318Y-80197263D01*
X40149319Y-80197263D01*
X40099720Y-80178763D01*
X39894601Y-80102258D01*
X39894594Y-80102256D01*
X39894593Y-80102256D01*
X39628967Y-80044473D01*
X39628960Y-80044472D01*
X39357801Y-80025078D01*
X39357799Y-80025078D01*
X39086639Y-80044472D01*
X39086632Y-80044473D01*
X38821006Y-80102256D01*
X38821002Y-80102257D01*
X38820999Y-80102258D01*
X38708267Y-80144305D01*
X38566280Y-80197263D01*
X38327692Y-80327542D01*
X38327691Y-80327543D01*
X38110059Y-80490461D01*
X38110047Y-80490471D01*
X37917838Y-80682680D01*
X37917828Y-80682692D01*
X37754910Y-80900324D01*
X37754909Y-80900325D01*
X37624630Y-81138913D01*
X37622889Y-81143582D01*
X37529625Y-81393632D01*
X37529624Y-81393635D01*
X37529623Y-81393639D01*
X37471840Y-81659265D01*
X37471839Y-81659272D01*
X37452445Y-81930431D01*
X37452445Y-81930434D01*
X22860000Y-81930434D01*
X22860000Y-77730435D01*
X37452445Y-77730435D01*
X37471839Y-78001594D01*
X37471840Y-78001601D01*
X37529401Y-78266206D01*
X37529625Y-78267235D01*
X37575165Y-78389332D01*
X37624630Y-78521953D01*
X37754909Y-78760541D01*
X37754910Y-78760542D01*
X37754913Y-78760547D01*
X37917829Y-78978176D01*
X37917833Y-78978180D01*
X37917838Y-78978186D01*
X38110047Y-79170395D01*
X38110053Y-79170400D01*
X38110058Y-79170405D01*
X38327687Y-79333321D01*
X38327691Y-79333323D01*
X38327692Y-79333324D01*
X38566281Y-79463603D01*
X38566280Y-79463603D01*
X38566284Y-79463604D01*
X38566287Y-79463606D01*
X38820999Y-79558609D01*
X39086640Y-79616395D01*
X39338405Y-79634401D01*
X39357799Y-79635789D01*
X39357800Y-79635789D01*
X39357801Y-79635789D01*
X39375900Y-79634494D01*
X39628960Y-79616395D01*
X39894601Y-79558609D01*
X40149313Y-79463606D01*
X40149317Y-79463603D01*
X40149319Y-79463603D01*
X40315682Y-79372762D01*
X40387913Y-79333321D01*
X40594990Y-79178304D01*
X41657299Y-79178304D01*
X41657300Y-79178310D01*
X41663707Y-79237917D01*
X41714001Y-79372762D01*
X41714005Y-79372769D01*
X41800251Y-79487978D01*
X41800254Y-79487981D01*
X41915463Y-79574227D01*
X41915470Y-79574231D01*
X42050316Y-79624525D01*
X42050315Y-79624525D01*
X42057243Y-79625269D01*
X42109926Y-79630934D01*
X45005671Y-79630933D01*
X45065282Y-79624525D01*
X45200130Y-79574230D01*
X45315345Y-79487980D01*
X45401595Y-79372765D01*
X45451890Y-79237917D01*
X45458299Y-79178307D01*
X45458298Y-77056002D01*
X84590275Y-77056002D01*
X84610361Y-77426470D01*
X84610362Y-77426487D01*
X84670382Y-77792589D01*
X84670387Y-77792610D01*
X84769640Y-78150089D01*
X84769641Y-78150091D01*
X84906965Y-78494751D01*
X84906970Y-78494761D01*
X85061801Y-78786804D01*
X85080760Y-78822563D01*
X85080761Y-78822566D01*
X85288965Y-79129643D01*
X85288973Y-79129653D01*
X85503350Y-79382036D01*
X85529158Y-79412419D01*
X85577924Y-79458612D01*
X85798514Y-79667566D01*
X85798526Y-79667576D01*
X86093875Y-79892095D01*
X86093892Y-79892107D01*
X86402086Y-80077539D01*
X86411787Y-80083376D01*
X86411791Y-80083377D01*
X86411795Y-80083380D01*
X86724602Y-80228100D01*
X86748512Y-80239162D01*
X87100107Y-80357628D01*
X87462450Y-80437386D01*
X87831292Y-80477500D01*
X87831298Y-80477500D01*
X88202302Y-80477500D01*
X88202308Y-80477500D01*
X88571150Y-80437386D01*
X88933493Y-80357628D01*
X89285088Y-80239162D01*
X89621813Y-80083376D01*
X89755069Y-80003199D01*
X89939707Y-79892107D01*
X89939716Y-79892100D01*
X89939722Y-79892097D01*
X90235085Y-79667567D01*
X90504442Y-79412419D01*
X90744633Y-79129645D01*
X90886776Y-78920000D01*
X90952838Y-78822566D01*
X90952838Y-78822564D01*
X90952843Y-78822558D01*
X91126630Y-78494761D01*
X91193870Y-78326000D01*
X105078699Y-78326000D01*
X105097420Y-78563883D01*
X105153129Y-78795925D01*
X105244443Y-79016378D01*
X105362616Y-79209216D01*
X106116309Y-78455523D01*
X106139894Y-78535844D01*
X106217626Y-78656798D01*
X106326287Y-78750952D01*
X106457072Y-78810680D01*
X106466853Y-78812086D01*
X105716169Y-79562769D01*
X105716169Y-79562770D01*
X105909008Y-79680943D01*
X106129462Y-79772257D01*
X106129459Y-79772257D01*
X106361503Y-79827966D01*
X106599387Y-79846687D01*
X106837270Y-79827966D01*
X107069312Y-79772257D01*
X107289761Y-79680944D01*
X107389212Y-79620000D01*
X111788811Y-79620000D01*
X111807538Y-79857963D01*
X111863261Y-80090068D01*
X111954608Y-80310600D01*
X111954610Y-80310604D01*
X111954611Y-80310605D01*
X112079332Y-80514132D01*
X112234357Y-80695643D01*
X112415868Y-80850668D01*
X112619395Y-80975389D01*
X112619397Y-80975389D01*
X112619399Y-80975391D01*
X112631410Y-80980366D01*
X112839927Y-81066737D01*
X113072034Y-81122461D01*
X113310000Y-81141189D01*
X113547966Y-81122461D01*
X113780073Y-81066737D01*
X114000605Y-80975389D01*
X114204132Y-80850668D01*
X114385643Y-80695643D01*
X114540668Y-80514132D01*
X114665389Y-80310605D01*
X114756737Y-80090073D01*
X114812461Y-79857966D01*
X114831189Y-79620000D01*
X114812461Y-79382034D01*
X114756737Y-79149927D01*
X114673645Y-78949327D01*
X114665391Y-78929399D01*
X114659631Y-78920000D01*
X127704696Y-78920000D01*
X127723898Y-79286405D01*
X127781294Y-79648788D01*
X127781294Y-79648790D01*
X127876260Y-80003206D01*
X128007746Y-80345739D01*
X128174320Y-80672656D01*
X128374147Y-80980364D01*
X128504380Y-81141188D01*
X128605051Y-81265506D01*
X128864494Y-81524949D01*
X128963554Y-81605166D01*
X129149635Y-81755852D01*
X129418469Y-81930434D01*
X129457348Y-81955682D01*
X129784264Y-82122255D01*
X130126801Y-82253742D01*
X130481206Y-82348705D01*
X130843596Y-82406102D01*
X131189734Y-82424241D01*
X131209999Y-82425304D01*
X131210000Y-82425304D01*
X131210001Y-82425304D01*
X131229203Y-82424297D01*
X131576404Y-82406102D01*
X131938794Y-82348705D01*
X132293199Y-82253742D01*
X132635736Y-82122255D01*
X132962652Y-81955682D01*
X133270366Y-81755851D01*
X133555506Y-81524949D01*
X133814949Y-81265506D01*
X134045851Y-80980366D01*
X134245682Y-80672652D01*
X134412255Y-80345736D01*
X134543742Y-80003199D01*
X134638705Y-79648794D01*
X134643266Y-79620000D01*
X146788811Y-79620000D01*
X146807538Y-79857963D01*
X146863261Y-80090068D01*
X146954608Y-80310600D01*
X146954610Y-80310604D01*
X146954611Y-80310605D01*
X147079332Y-80514132D01*
X147234357Y-80695643D01*
X147415868Y-80850668D01*
X147619395Y-80975389D01*
X147619397Y-80975389D01*
X147619399Y-80975391D01*
X147631410Y-80980366D01*
X147839927Y-81066737D01*
X148072034Y-81122461D01*
X148310000Y-81141189D01*
X148547966Y-81122461D01*
X148780073Y-81066737D01*
X149000605Y-80975389D01*
X149204132Y-80850668D01*
X149385643Y-80695643D01*
X149540668Y-80514132D01*
X149665389Y-80310605D01*
X149756737Y-80090073D01*
X149812461Y-79857966D01*
X149831189Y-79620000D01*
X149812461Y-79382034D01*
X149756737Y-79149927D01*
X149673645Y-78949327D01*
X149665391Y-78929399D01*
X149659631Y-78920000D01*
X149540668Y-78725868D01*
X149385643Y-78544357D01*
X149204132Y-78389332D01*
X149000605Y-78264611D01*
X149000604Y-78264610D01*
X149000600Y-78264608D01*
X148780068Y-78173261D01*
X148547962Y-78117538D01*
X148547963Y-78117538D01*
X148310000Y-78098811D01*
X148072036Y-78117538D01*
X147839931Y-78173261D01*
X147619399Y-78264608D01*
X147415867Y-78389332D01*
X147234357Y-78544357D01*
X147079332Y-78725867D01*
X146954608Y-78929399D01*
X146863261Y-79149931D01*
X146807538Y-79382036D01*
X146788811Y-79620000D01*
X134643266Y-79620000D01*
X134696102Y-79286404D01*
X134715304Y-78920000D01*
X134696102Y-78553596D01*
X134638705Y-78191206D01*
X134543742Y-77836801D01*
X134412255Y-77494264D01*
X134365550Y-77402601D01*
X171612390Y-77402601D01*
X171632804Y-77688033D01*
X171693628Y-77967637D01*
X171693630Y-77967643D01*
X171693631Y-77967646D01*
X171786228Y-78215908D01*
X171793635Y-78235766D01*
X171930770Y-78486909D01*
X171930775Y-78486917D01*
X172102254Y-78715987D01*
X172102270Y-78716005D01*
X172304594Y-78918329D01*
X172304612Y-78918345D01*
X172533682Y-79089824D01*
X172533690Y-79089829D01*
X172784833Y-79226964D01*
X172784832Y-79226964D01*
X172784836Y-79226965D01*
X172784839Y-79226967D01*
X173052954Y-79326969D01*
X173052960Y-79326970D01*
X173052962Y-79326971D01*
X173332566Y-79387795D01*
X173332568Y-79387795D01*
X173332572Y-79387796D01*
X173586220Y-79405937D01*
X173617999Y-79408210D01*
X173618000Y-79408210D01*
X173618001Y-79408210D01*
X173646595Y-79406164D01*
X173903428Y-79387796D01*
X173929907Y-79382036D01*
X174183037Y-79326971D01*
X174183037Y-79326970D01*
X174183046Y-79326969D01*
X174451161Y-79226967D01*
X174702315Y-79089826D01*
X174929176Y-78920000D01*
X174931387Y-78918345D01*
X174931387Y-78918344D01*
X174931395Y-78918339D01*
X175133739Y-78715995D01*
X175305226Y-78486915D01*
X175442367Y-78235761D01*
X175542369Y-77967646D01*
X175547953Y-77941976D01*
X175603195Y-77688033D01*
X175603195Y-77688032D01*
X175603196Y-77688028D01*
X175623610Y-77402600D01*
X175603196Y-77117172D01*
X175597117Y-77089229D01*
X175542371Y-76837562D01*
X175542370Y-76837560D01*
X175542369Y-76837554D01*
X175442367Y-76569439D01*
X175394999Y-76482692D01*
X175305229Y-76318290D01*
X175305224Y-76318282D01*
X175133745Y-76089212D01*
X175133729Y-76089194D01*
X174931405Y-75886870D01*
X174931387Y-75886854D01*
X174702317Y-75715375D01*
X174702309Y-75715370D01*
X174451166Y-75578235D01*
X174451167Y-75578235D01*
X174343915Y-75538232D01*
X174183046Y-75478231D01*
X174183043Y-75478230D01*
X174183037Y-75478228D01*
X173903433Y-75417404D01*
X173618001Y-75396990D01*
X173617999Y-75396990D01*
X173332566Y-75417404D01*
X173052962Y-75478228D01*
X172784833Y-75578235D01*
X172533690Y-75715370D01*
X172533682Y-75715375D01*
X172304612Y-75886854D01*
X172304594Y-75886870D01*
X172102270Y-76089194D01*
X172102254Y-76089212D01*
X171930775Y-76318282D01*
X171930770Y-76318290D01*
X171793635Y-76569433D01*
X171693628Y-76837562D01*
X171632804Y-77117166D01*
X171612390Y-77402598D01*
X171612390Y-77402601D01*
X134365550Y-77402601D01*
X134245682Y-77167348D01*
X134245679Y-77167343D01*
X134045852Y-76859635D01*
X133814952Y-76574498D01*
X133814949Y-76574494D01*
X133555506Y-76315051D01*
X133323958Y-76127547D01*
X133270364Y-76084147D01*
X132962656Y-75884320D01*
X132635739Y-75717746D01*
X132293206Y-75586260D01*
X132293199Y-75586258D01*
X131938794Y-75491295D01*
X131938790Y-75491294D01*
X131938789Y-75491294D01*
X131576405Y-75433898D01*
X131210001Y-75414696D01*
X131209999Y-75414696D01*
X130843594Y-75433898D01*
X130481211Y-75491294D01*
X130481209Y-75491294D01*
X130126793Y-75586260D01*
X129784260Y-75717746D01*
X129457343Y-75884320D01*
X129149635Y-76084147D01*
X128864498Y-76315047D01*
X128864490Y-76315054D01*
X128605054Y-76574490D01*
X128605047Y-76574498D01*
X128374147Y-76859635D01*
X128174320Y-77167343D01*
X128007746Y-77494260D01*
X127876260Y-77836793D01*
X127781294Y-78191209D01*
X127781294Y-78191211D01*
X127723898Y-78553594D01*
X127704696Y-78919999D01*
X127704696Y-78920000D01*
X114659631Y-78920000D01*
X114540668Y-78725868D01*
X114385643Y-78544357D01*
X114204132Y-78389332D01*
X114000605Y-78264611D01*
X114000604Y-78264610D01*
X114000600Y-78264608D01*
X113780068Y-78173261D01*
X113547962Y-78117538D01*
X113547963Y-78117538D01*
X113310000Y-78098811D01*
X113072036Y-78117538D01*
X112839931Y-78173261D01*
X112619399Y-78264608D01*
X112415867Y-78389332D01*
X112234357Y-78544357D01*
X112079332Y-78725867D01*
X111954608Y-78929399D01*
X111863261Y-79149931D01*
X111807538Y-79382036D01*
X111788811Y-79620000D01*
X107389212Y-79620000D01*
X107482603Y-79562769D01*
X106731921Y-78812086D01*
X106741702Y-78810680D01*
X106872487Y-78750952D01*
X106981148Y-78656798D01*
X107058880Y-78535844D01*
X107082463Y-78455523D01*
X107836156Y-79209216D01*
X107954331Y-79016374D01*
X108045644Y-78795925D01*
X108101353Y-78563883D01*
X108120074Y-78326000D01*
X108101353Y-78088116D01*
X108045644Y-77856074D01*
X107954330Y-77635621D01*
X107836156Y-77442782D01*
X107082463Y-78196475D01*
X107058880Y-78116156D01*
X106981148Y-77995202D01*
X106872487Y-77901048D01*
X106741702Y-77841320D01*
X106731920Y-77839913D01*
X107482603Y-77089229D01*
X107289765Y-76971056D01*
X107069311Y-76879742D01*
X107069314Y-76879742D01*
X106837270Y-76824033D01*
X106599387Y-76805312D01*
X106361503Y-76824033D01*
X106129461Y-76879742D01*
X105909008Y-76971056D01*
X105716169Y-77089229D01*
X106466854Y-77839913D01*
X106457072Y-77841320D01*
X106326287Y-77901048D01*
X106217626Y-77995202D01*
X106139894Y-78116156D01*
X106116310Y-78196476D01*
X105362616Y-77442782D01*
X105244443Y-77635621D01*
X105153129Y-77856074D01*
X105097420Y-78088116D01*
X105078699Y-78326000D01*
X91193870Y-78326000D01*
X91263957Y-78150095D01*
X91272997Y-78117538D01*
X91343407Y-77863942D01*
X91363215Y-77792602D01*
X91417863Y-77459266D01*
X91423237Y-77426487D01*
X91423237Y-77426484D01*
X91423239Y-77426473D01*
X91443325Y-77056000D01*
X91423239Y-76685527D01*
X91405035Y-76574490D01*
X91363217Y-76319410D01*
X91363216Y-76319409D01*
X91363215Y-76319398D01*
X91309947Y-76127544D01*
X91263959Y-75961910D01*
X91263958Y-75961908D01*
X91237453Y-75895386D01*
X91174175Y-75736568D01*
X91126634Y-75617248D01*
X91126625Y-75617230D01*
X91105950Y-75578233D01*
X90952843Y-75289442D01*
X90952839Y-75289436D01*
X90952838Y-75289433D01*
X90744634Y-74982356D01*
X90744626Y-74982346D01*
X90504442Y-74699581D01*
X90235085Y-74444433D01*
X90235073Y-74444423D01*
X89939724Y-74219904D01*
X89939707Y-74219892D01*
X89621817Y-74028626D01*
X89621804Y-74028619D01*
X89285098Y-73872842D01*
X89285093Y-73872840D01*
X89285088Y-73872838D01*
X89113704Y-73815092D01*
X88966625Y-73765535D01*
X105078198Y-73765535D01*
X105096925Y-74003498D01*
X105152648Y-74235603D01*
X105243995Y-74456135D01*
X105243997Y-74456139D01*
X105243998Y-74456140D01*
X105368719Y-74659667D01*
X105523744Y-74841178D01*
X105705255Y-74996203D01*
X105908782Y-75120924D01*
X105908784Y-75120924D01*
X105908786Y-75120926D01*
X105984458Y-75152270D01*
X106129314Y-75212272D01*
X106361421Y-75267996D01*
X106599387Y-75286724D01*
X106837353Y-75267996D01*
X107069460Y-75212272D01*
X107289992Y-75120924D01*
X107493519Y-74996203D01*
X107675030Y-74841178D01*
X107830055Y-74659667D01*
X107954776Y-74456140D01*
X108046124Y-74235608D01*
X108101848Y-74003501D01*
X108102280Y-73998007D01*
X191422306Y-73998007D01*
X191442261Y-74302461D01*
X191442262Y-74302471D01*
X191442263Y-74302478D01*
X191442265Y-74302488D01*
X191501789Y-74601738D01*
X191501793Y-74601753D01*
X191599870Y-74890678D01*
X191599879Y-74890699D01*
X191734828Y-75164348D01*
X191848098Y-75333869D01*
X191902105Y-75414696D01*
X191904350Y-75418055D01*
X192105535Y-75647464D01*
X192284681Y-75804570D01*
X192334946Y-75848651D01*
X192427510Y-75910500D01*
X192588651Y-76018171D01*
X192862300Y-76153120D01*
X192862305Y-76153122D01*
X192862317Y-76153128D01*
X193151254Y-76251209D01*
X193450522Y-76310737D01*
X193479763Y-76312653D01*
X193754993Y-76330694D01*
X193755000Y-76330694D01*
X193755007Y-76330694D01*
X193998756Y-76314716D01*
X194059478Y-76310737D01*
X194358746Y-76251209D01*
X194647683Y-76153128D01*
X194921347Y-76018172D01*
X195175054Y-75848651D01*
X195404464Y-75647464D01*
X195605651Y-75418054D01*
X195775172Y-75164347D01*
X195910128Y-74890683D01*
X196008209Y-74601746D01*
X196067737Y-74302478D01*
X196073349Y-74216861D01*
X196087694Y-73998007D01*
X196087694Y-73997992D01*
X196083565Y-73935001D01*
X246939454Y-73935001D01*
X246959613Y-74216866D01*
X247011665Y-74456140D01*
X247019680Y-74492984D01*
X247060243Y-74601738D01*
X247118432Y-74757750D01*
X247118434Y-74757754D01*
X247253855Y-75005758D01*
X247253860Y-75005766D01*
X247423196Y-75231974D01*
X247423212Y-75231992D01*
X247623007Y-75431787D01*
X247623025Y-75431803D01*
X247849233Y-75601139D01*
X247849241Y-75601144D01*
X248097245Y-75736565D01*
X248097249Y-75736567D01*
X248097251Y-75736568D01*
X248362016Y-75835320D01*
X248500077Y-75865353D01*
X248638133Y-75895386D01*
X248638135Y-75895386D01*
X248638139Y-75895387D01*
X248849447Y-75910500D01*
X248990553Y-75910500D01*
X249201861Y-75895387D01*
X249477984Y-75835320D01*
X249742749Y-75736568D01*
X249990764Y-75601141D01*
X250216982Y-75431797D01*
X250416797Y-75231982D01*
X250586141Y-75005764D01*
X250721568Y-74757749D01*
X250820320Y-74492984D01*
X250880387Y-74216861D01*
X250900546Y-73935000D01*
X250898624Y-73908133D01*
X250896100Y-73872838D01*
X250880387Y-73653139D01*
X250876332Y-73634500D01*
X250829901Y-73421059D01*
X250820320Y-73377016D01*
X250721568Y-73112251D01*
X250717772Y-73105300D01*
X250586144Y-72864241D01*
X250586139Y-72864233D01*
X250416803Y-72638025D01*
X250416787Y-72638007D01*
X250216992Y-72438212D01*
X250216974Y-72438196D01*
X249990766Y-72268860D01*
X249990758Y-72268855D01*
X249742754Y-72133434D01*
X249742750Y-72133432D01*
X249641014Y-72095487D01*
X249477984Y-72034680D01*
X249477980Y-72034679D01*
X249477977Y-72034678D01*
X249201866Y-71974613D01*
X248990553Y-71959500D01*
X248849447Y-71959500D01*
X248638133Y-71974613D01*
X248362022Y-72034678D01*
X248362017Y-72034679D01*
X248362016Y-72034680D01*
X248298003Y-72058555D01*
X248097249Y-72133432D01*
X248097245Y-72133434D01*
X247849241Y-72268855D01*
X247849233Y-72268860D01*
X247623025Y-72438196D01*
X247623007Y-72438212D01*
X247423212Y-72638007D01*
X247423196Y-72638025D01*
X247253860Y-72864233D01*
X247253855Y-72864241D01*
X247118434Y-73112245D01*
X247118432Y-73112249D01*
X247019678Y-73377022D01*
X246959613Y-73653133D01*
X246939454Y-73934998D01*
X246939454Y-73935001D01*
X196083565Y-73935001D01*
X196067738Y-73693538D01*
X196067737Y-73693522D01*
X196008209Y-73394254D01*
X195910128Y-73105317D01*
X195775172Y-72831653D01*
X195605651Y-72577946D01*
X195558918Y-72524657D01*
X195404464Y-72348535D01*
X195175055Y-72147350D01*
X195154228Y-72133434D01*
X195090869Y-72091098D01*
X194921348Y-71977828D01*
X194647699Y-71842879D01*
X194647678Y-71842870D01*
X194358753Y-71744793D01*
X194358747Y-71744791D01*
X194358746Y-71744791D01*
X194358744Y-71744790D01*
X194358738Y-71744789D01*
X194059488Y-71685265D01*
X194059478Y-71685263D01*
X194059471Y-71685262D01*
X194059461Y-71685261D01*
X193755007Y-71665306D01*
X193754993Y-71665306D01*
X193450538Y-71685261D01*
X193450526Y-71685262D01*
X193450522Y-71685263D01*
X193450514Y-71685264D01*
X193450511Y-71685265D01*
X193151261Y-71744789D01*
X193151246Y-71744793D01*
X192862321Y-71842870D01*
X192862300Y-71842879D01*
X192588651Y-71977828D01*
X192334944Y-72147350D01*
X192105535Y-72348535D01*
X191904350Y-72577944D01*
X191734828Y-72831651D01*
X191599879Y-73105300D01*
X191599870Y-73105321D01*
X191501793Y-73394246D01*
X191501789Y-73394261D01*
X191442265Y-73693511D01*
X191442261Y-73693538D01*
X191422306Y-73997992D01*
X191422306Y-73998007D01*
X108102280Y-73998007D01*
X108120576Y-73765535D01*
X108101848Y-73527569D01*
X108046124Y-73295462D01*
X107970234Y-73112249D01*
X107954778Y-73074934D01*
X107830054Y-72871402D01*
X107796105Y-72831653D01*
X107675030Y-72689892D01*
X107493519Y-72534867D01*
X107289992Y-72410146D01*
X107289991Y-72410145D01*
X107289987Y-72410143D01*
X107069455Y-72318796D01*
X106837349Y-72263073D01*
X106837350Y-72263073D01*
X106599387Y-72244346D01*
X106361423Y-72263073D01*
X106129318Y-72318796D01*
X105908786Y-72410143D01*
X105705254Y-72534867D01*
X105523744Y-72689892D01*
X105368719Y-72871402D01*
X105243995Y-73074934D01*
X105152648Y-73295466D01*
X105096925Y-73527571D01*
X105078198Y-73765535D01*
X88966625Y-73765535D01*
X88933492Y-73754371D01*
X88571148Y-73674613D01*
X88202309Y-73634500D01*
X88202308Y-73634500D01*
X87831292Y-73634500D01*
X87831290Y-73634500D01*
X87462451Y-73674613D01*
X87100107Y-73754371D01*
X86828318Y-73845948D01*
X86748512Y-73872838D01*
X86748509Y-73872839D01*
X86748501Y-73872842D01*
X86411795Y-74028619D01*
X86411782Y-74028626D01*
X86093892Y-74219892D01*
X86093875Y-74219904D01*
X85798526Y-74444423D01*
X85798514Y-74444433D01*
X85529157Y-74699581D01*
X85288973Y-74982346D01*
X85288965Y-74982356D01*
X85080761Y-75289433D01*
X85080760Y-75289436D01*
X84906974Y-75617230D01*
X84906965Y-75617248D01*
X84769641Y-75961908D01*
X84769640Y-75961910D01*
X84670387Y-76319389D01*
X84670382Y-76319410D01*
X84610362Y-76685512D01*
X84610361Y-76685529D01*
X84590275Y-77055997D01*
X84590275Y-77056002D01*
X45458298Y-77056002D01*
X45458298Y-76282562D01*
X45451890Y-76222951D01*
X45401595Y-76088103D01*
X45401594Y-76088102D01*
X45401592Y-76088098D01*
X45315346Y-75972889D01*
X45315343Y-75972886D01*
X45200134Y-75886640D01*
X45200127Y-75886636D01*
X45065281Y-75836342D01*
X45065282Y-75836342D01*
X45005682Y-75829935D01*
X45005680Y-75829934D01*
X45005672Y-75829934D01*
X45005663Y-75829934D01*
X42109928Y-75829934D01*
X42109922Y-75829935D01*
X42050315Y-75836342D01*
X41915470Y-75886636D01*
X41915463Y-75886640D01*
X41800254Y-75972886D01*
X41800251Y-75972889D01*
X41714005Y-76088098D01*
X41714001Y-76088105D01*
X41663707Y-76222951D01*
X41657300Y-76282550D01*
X41657300Y-76282557D01*
X41657299Y-76282569D01*
X41657299Y-79178304D01*
X40594990Y-79178304D01*
X40605542Y-79170405D01*
X40797771Y-78978176D01*
X40960687Y-78760547D01*
X41068073Y-78563883D01*
X41090969Y-78521953D01*
X41090969Y-78521951D01*
X41090972Y-78521947D01*
X41185975Y-78267235D01*
X41243761Y-78001594D01*
X41263155Y-77730434D01*
X41243761Y-77459274D01*
X41185975Y-77193633D01*
X41090972Y-76938921D01*
X41090970Y-76938918D01*
X41090969Y-76938914D01*
X40960690Y-76700326D01*
X40960689Y-76700325D01*
X40960687Y-76700321D01*
X40797771Y-76482692D01*
X40797766Y-76482687D01*
X40797761Y-76482681D01*
X40605552Y-76290472D01*
X40605546Y-76290467D01*
X40605542Y-76290463D01*
X40387913Y-76127547D01*
X40387908Y-76127544D01*
X40387907Y-76127543D01*
X40149318Y-75997264D01*
X40149319Y-75997264D01*
X40099720Y-75978764D01*
X39894601Y-75902259D01*
X39894594Y-75902257D01*
X39894593Y-75902257D01*
X39628967Y-75844474D01*
X39628960Y-75844473D01*
X39357801Y-75825079D01*
X39357799Y-75825079D01*
X39086639Y-75844473D01*
X39086632Y-75844474D01*
X38821006Y-75902257D01*
X38821002Y-75902258D01*
X38820999Y-75902259D01*
X38693643Y-75949760D01*
X38566280Y-75997264D01*
X38327692Y-76127543D01*
X38327691Y-76127544D01*
X38110059Y-76290462D01*
X38110047Y-76290472D01*
X37917838Y-76482681D01*
X37917828Y-76482693D01*
X37754910Y-76700325D01*
X37754909Y-76700326D01*
X37624630Y-76938914D01*
X37612642Y-76971056D01*
X37529625Y-77193633D01*
X37529624Y-77193636D01*
X37529623Y-77193640D01*
X37471840Y-77459266D01*
X37471839Y-77459273D01*
X37452445Y-77730432D01*
X37452445Y-77730435D01*
X22860000Y-77730435D01*
X22860000Y-73161623D01*
X37416300Y-73161623D01*
X37436474Y-73295462D01*
X37455404Y-73421051D01*
X37455405Y-73421053D01*
X37455406Y-73421059D01*
X37532738Y-73671762D01*
X37646567Y-73908132D01*
X37646568Y-73908133D01*
X37646570Y-73908136D01*
X37646572Y-73908140D01*
X37728717Y-74028624D01*
X37794367Y-74124915D01*
X37972814Y-74317237D01*
X37972818Y-74317240D01*
X37972819Y-74317241D01*
X38177943Y-74480822D01*
X38405157Y-74612004D01*
X38649384Y-74707856D01*
X38905170Y-74766238D01*
X38905176Y-74766238D01*
X38905179Y-74766239D01*
X39101300Y-74780936D01*
X39101306Y-74780936D01*
X39232300Y-74780936D01*
X39428420Y-74766239D01*
X39428422Y-74766238D01*
X39428430Y-74766238D01*
X39684216Y-74707856D01*
X39928443Y-74612004D01*
X40155657Y-74480822D01*
X40360781Y-74317241D01*
X40539233Y-74124915D01*
X40687028Y-73908140D01*
X40800863Y-73671759D01*
X40878196Y-73421051D01*
X40917300Y-73161618D01*
X40917300Y-72899254D01*
X40878196Y-72639821D01*
X40800863Y-72389113D01*
X40781322Y-72348535D01*
X40687032Y-72152739D01*
X40687031Y-72152738D01*
X40687030Y-72152737D01*
X40687028Y-72152732D01*
X40539233Y-71935957D01*
X40506316Y-71900481D01*
X40360785Y-71743634D01*
X40281216Y-71680180D01*
X40155657Y-71580050D01*
X39928443Y-71448868D01*
X39684216Y-71353016D01*
X39684211Y-71353014D01*
X39684202Y-71353012D01*
X39466618Y-71303350D01*
X39428430Y-71294634D01*
X39428429Y-71294633D01*
X39428425Y-71294633D01*
X39428420Y-71294632D01*
X39232300Y-71279936D01*
X39232294Y-71279936D01*
X39101306Y-71279936D01*
X39101300Y-71279936D01*
X38905179Y-71294632D01*
X38905174Y-71294633D01*
X38649397Y-71353012D01*
X38649378Y-71353018D01*
X38405156Y-71448868D01*
X38177943Y-71580050D01*
X37972814Y-71743634D01*
X37794367Y-71935956D01*
X37646568Y-72152738D01*
X37646567Y-72152739D01*
X37532738Y-72389109D01*
X37455406Y-72639812D01*
X37455405Y-72639817D01*
X37455404Y-72639821D01*
X37455198Y-72641188D01*
X37416300Y-72899248D01*
X37416300Y-73161623D01*
X22860000Y-73161623D01*
X22860000Y-70781363D01*
X26593787Y-70781363D01*
X26623413Y-71050613D01*
X26623415Y-71050624D01*
X26687208Y-71294634D01*
X26691928Y-71312688D01*
X26797870Y-71561990D01*
X26938979Y-71793205D01*
X26938986Y-71793215D01*
X27112253Y-72001419D01*
X27112259Y-72001424D01*
X27313998Y-72182182D01*
X27539910Y-72331644D01*
X27785176Y-72446620D01*
X27785183Y-72446622D01*
X27785185Y-72446623D01*
X28044557Y-72524657D01*
X28044564Y-72524658D01*
X28044569Y-72524660D01*
X28312561Y-72564100D01*
X28312566Y-72564100D01*
X28515636Y-72564100D01*
X28567133Y-72560330D01*
X28718156Y-72549277D01*
X28830758Y-72524193D01*
X28982546Y-72490382D01*
X28982548Y-72490381D01*
X28982553Y-72490380D01*
X29235558Y-72393614D01*
X29471777Y-72261041D01*
X29686177Y-72095488D01*
X29874186Y-71900481D01*
X30031799Y-71680179D01*
X30105787Y-71536269D01*
X30155649Y-71439290D01*
X30155651Y-71439284D01*
X30155656Y-71439275D01*
X30243118Y-71182905D01*
X30254737Y-71120000D01*
X111788811Y-71120000D01*
X111807538Y-71357963D01*
X111863261Y-71590068D01*
X111954608Y-71810600D01*
X111954610Y-71810604D01*
X111954611Y-71810605D01*
X112079332Y-72014132D01*
X112234357Y-72195643D01*
X112415868Y-72350668D01*
X112619395Y-72475389D01*
X112619397Y-72475389D01*
X112619399Y-72475391D01*
X112655586Y-72490380D01*
X112839927Y-72566737D01*
X113072034Y-72622461D01*
X113310000Y-72641189D01*
X113547966Y-72622461D01*
X113780073Y-72566737D01*
X114000605Y-72475389D01*
X114204132Y-72350668D01*
X114385643Y-72195643D01*
X114540668Y-72014132D01*
X114665389Y-71810605D01*
X114756737Y-71590073D01*
X114812461Y-71357966D01*
X114831189Y-71120000D01*
X146788811Y-71120000D01*
X146807538Y-71357963D01*
X146863261Y-71590068D01*
X146954608Y-71810600D01*
X146954610Y-71810604D01*
X146954611Y-71810605D01*
X147079332Y-72014132D01*
X147234357Y-72195643D01*
X147415868Y-72350668D01*
X147619395Y-72475389D01*
X147619397Y-72475389D01*
X147619399Y-72475391D01*
X147655586Y-72490380D01*
X147839927Y-72566737D01*
X148072034Y-72622461D01*
X148310000Y-72641189D01*
X148547966Y-72622461D01*
X148780073Y-72566737D01*
X149000605Y-72475389D01*
X149204132Y-72350668D01*
X149385643Y-72195643D01*
X149540668Y-72014132D01*
X149665389Y-71810605D01*
X149756737Y-71590073D01*
X149812461Y-71357966D01*
X149831189Y-71120000D01*
X149812461Y-70882034D01*
X149788292Y-70781363D01*
X267995387Y-70781363D01*
X268025013Y-71050613D01*
X268025015Y-71050624D01*
X268088808Y-71294634D01*
X268093528Y-71312688D01*
X268199470Y-71561990D01*
X268340579Y-71793205D01*
X268340586Y-71793215D01*
X268513853Y-72001419D01*
X268513859Y-72001424D01*
X268715598Y-72182182D01*
X268941510Y-72331644D01*
X269186776Y-72446620D01*
X269186783Y-72446622D01*
X269186785Y-72446623D01*
X269446157Y-72524657D01*
X269446164Y-72524658D01*
X269446169Y-72524660D01*
X269714161Y-72564100D01*
X269714166Y-72564100D01*
X269917236Y-72564100D01*
X269968733Y-72560330D01*
X270119756Y-72549277D01*
X270232358Y-72524193D01*
X270384146Y-72490382D01*
X270384148Y-72490381D01*
X270384153Y-72490380D01*
X270637158Y-72393614D01*
X270873377Y-72261041D01*
X271087777Y-72095488D01*
X271275786Y-71900481D01*
X271433399Y-71680179D01*
X271507387Y-71536269D01*
X271557249Y-71439290D01*
X271557251Y-71439284D01*
X271557256Y-71439275D01*
X271644718Y-71182905D01*
X271693919Y-70916533D01*
X271703812Y-70645835D01*
X271674186Y-70376582D01*
X271605672Y-70114512D01*
X271499730Y-69865210D01*
X271358618Y-69633990D01*
X271357445Y-69632581D01*
X271185346Y-69425780D01*
X271185340Y-69425775D01*
X270983602Y-69245018D01*
X270757692Y-69095557D01*
X270757690Y-69095556D01*
X270512424Y-68980580D01*
X270512419Y-68980578D01*
X270512414Y-68980576D01*
X270253042Y-68902542D01*
X270253028Y-68902539D01*
X270137391Y-68885521D01*
X269985039Y-68863100D01*
X269781969Y-68863100D01*
X269781964Y-68863100D01*
X269579444Y-68877923D01*
X269579431Y-68877925D01*
X269315053Y-68936817D01*
X269315046Y-68936820D01*
X269062039Y-69033587D01*
X268825826Y-69166157D01*
X268611422Y-69331712D01*
X268423422Y-69526709D01*
X268423416Y-69526716D01*
X268265802Y-69747019D01*
X268265799Y-69747024D01*
X268141950Y-69987909D01*
X268141943Y-69987927D01*
X268054484Y-70244285D01*
X268054481Y-70244299D01*
X268005281Y-70510668D01*
X268005280Y-70510675D01*
X267995387Y-70781363D01*
X149788292Y-70781363D01*
X149756737Y-70649927D01*
X149665389Y-70429395D01*
X149540668Y-70225868D01*
X149385643Y-70044357D01*
X149204132Y-69889332D01*
X149000605Y-69764611D01*
X149000604Y-69764610D01*
X149000600Y-69764608D01*
X148780068Y-69673261D01*
X148547962Y-69617538D01*
X148547963Y-69617538D01*
X148310000Y-69598811D01*
X148072036Y-69617538D01*
X147839931Y-69673261D01*
X147619399Y-69764608D01*
X147415867Y-69889332D01*
X147234357Y-70044357D01*
X147079332Y-70225867D01*
X146954608Y-70429399D01*
X146863261Y-70649931D01*
X146807538Y-70882036D01*
X146788811Y-71120000D01*
X114831189Y-71120000D01*
X114812461Y-70882034D01*
X114756737Y-70649927D01*
X114665389Y-70429395D01*
X114540668Y-70225868D01*
X114385643Y-70044357D01*
X114204132Y-69889332D01*
X114000605Y-69764611D01*
X114000604Y-69764610D01*
X114000600Y-69764608D01*
X113780068Y-69673261D01*
X113547962Y-69617538D01*
X113547963Y-69617538D01*
X113310000Y-69598811D01*
X113072036Y-69617538D01*
X112839931Y-69673261D01*
X112619399Y-69764608D01*
X112415867Y-69889332D01*
X112234357Y-70044357D01*
X112079332Y-70225867D01*
X111954608Y-70429399D01*
X111863261Y-70649931D01*
X111807538Y-70882036D01*
X111788811Y-71120000D01*
X30254737Y-71120000D01*
X30292319Y-70916533D01*
X30302212Y-70645835D01*
X30272586Y-70376582D01*
X30204072Y-70114512D01*
X30098130Y-69865210D01*
X29957018Y-69633990D01*
X29955845Y-69632581D01*
X29783746Y-69425780D01*
X29783740Y-69425775D01*
X29582002Y-69245018D01*
X29356092Y-69095557D01*
X29356090Y-69095556D01*
X29110824Y-68980580D01*
X29110819Y-68980578D01*
X29110814Y-68980576D01*
X28851442Y-68902542D01*
X28851428Y-68902539D01*
X28735791Y-68885521D01*
X28583439Y-68863100D01*
X28380369Y-68863100D01*
X28380364Y-68863100D01*
X28177844Y-68877923D01*
X28177831Y-68877925D01*
X27913453Y-68936817D01*
X27913446Y-68936820D01*
X27660439Y-69033587D01*
X27424226Y-69166157D01*
X27209822Y-69331712D01*
X27021822Y-69526709D01*
X27021816Y-69526716D01*
X26864202Y-69747019D01*
X26864199Y-69747024D01*
X26740350Y-69987909D01*
X26740343Y-69987927D01*
X26652884Y-70244285D01*
X26652881Y-70244299D01*
X26603681Y-70510668D01*
X26603680Y-70510675D01*
X26593787Y-70781363D01*
X22860000Y-70781363D01*
X22860000Y-66164000D01*
X22879685Y-66096961D01*
X22932489Y-66051206D01*
X22984000Y-66040000D01*
X276240500Y-66040000D01*
X276307539Y-66059685D01*
G37*
G04 #@! TD.AperFunction*
M02*
