M48
; DRILL file {KiCad 7.0.9} date Monday, April 15, 2024 at 11:39:37 PM
; FORMAT={-:-/ absolute / metric / decimal}
; #@! TF.CreationDate,2024-04-15T23:39:37-07:00
; #@! TF.GenerationSoftware,Kicad,Pcbnew,7.0.9
; #@! TF.FileFunction,Plated,1,4,PTH
FMAT,2
METRIC
; #@! TA.AperFunction,Plated,PTH,ComponentDrill
T1C1.000
; #@! TA.AperFunction,Plated,PTH,ComponentDrill
T2C1.100
; #@! TA.AperFunction,Plated,PTH,ViaDrill
T3C1.500
; #@! TA.AperFunction,Plated,PTH,ComponentDrill
T4C1.800
; #@! TA.AperFunction,Plated,PTH,ViaDrill
T5C2.000
; #@! TA.AperFunction,Plated,PTH,ComponentDrill
T6C3.454
%
G90
G05
T1
X36.735Y-114.22
X36.735Y-119.3
X106.599Y-73.766
X106.599Y-78.326
X113.31Y-71.12
X113.31Y-79.62
X117.275Y-108.06
X117.275Y-111.52
X117.275Y-114.98
X117.275Y-118.44
X144.47Y-88.798
X147.44Y-88.798
X148.31Y-71.12
X148.31Y-79.62
X149.454Y-101.443
X149.454Y-104.413
X157.531Y-95.504
X160.071Y-95.504
X200.025Y-117.475
X203.265Y-117.475
X206.645Y-117.475
X210.185Y-117.475
X213.725Y-117.475
X217.265Y-117.475
T2
X29.464Y-96.723
X29.464Y-101.803
X29.464Y-106.883
X29.464Y-111.963
X270.65Y-88.138
X270.65Y-93.218
X270.65Y-98.297
X270.65Y-103.377
T3
X171.602Y-104.14
X173.618Y-77.403
X251.228Y-80.772
T4
X39.358Y-77.73
X39.358Y-81.93
X39.358Y-86.13
X43.558Y-77.73
X43.558Y-81.93
X43.558Y-86.13
T5
X109.22Y-88.9
X127.203Y-92.71
T6
X193.755Y-73.998
X249.0Y-90.0
T0
M30
