G04 #@! TF.GenerationSoftware,KiCad,Pcbnew,7.0.9*
G04 #@! TF.CreationDate,2024-04-15T23:38:29-07:00*
G04 #@! TF.ProjectId,AVcarrierBoard,41566361-7272-4696-9572-426f6172642e,rev?*
G04 #@! TF.SameCoordinates,Original*
G04 #@! TF.FileFunction,Soldermask,Bot*
G04 #@! TF.FilePolarity,Negative*
%FSLAX46Y46*%
G04 Gerber Fmt 4.6, Leading zero omitted, Abs format (unit mm)*
G04 Created by KiCad (PCBNEW 7.0.9) date 2024-04-15 23:38:29*
%MOMM*%
%LPD*%
G01*
G04 APERTURE LIST*
G04 Aperture macros list*
%AMRoundRect*
0 Rectangle with rounded corners*
0 $1 Rounding radius*
0 $2 $3 $4 $5 $6 $7 $8 $9 X,Y pos of 4 corners*
0 Add a 4 corners polygon primitive as box body*
4,1,4,$2,$3,$4,$5,$6,$7,$8,$9,$2,$3,0*
0 Add four circle primitives for the rounded corners*
1,1,$1+$1,$2,$3*
1,1,$1+$1,$4,$5*
1,1,$1+$1,$6,$7*
1,1,$1+$1,$8,$9*
0 Add four rect primitives between the rounded corners*
20,1,$1+$1,$2,$3,$4,$5,0*
20,1,$1+$1,$4,$5,$6,$7,0*
20,1,$1+$1,$6,$7,$8,$9,0*
20,1,$1+$1,$8,$9,$2,$3,0*%
G04 Aperture macros list end*
%ADD10C,3.200000*%
%ADD11R,1.700000X1.700000*%
%ADD12O,1.700000X1.700000*%
%ADD13RoundRect,0.102000X-0.825000X0.825000X-0.825000X-0.825000X0.825000X-0.825000X0.825000X0.825000X0*%
%ADD14C,1.854000*%
%ADD15R,2.032000X2.032000*%
%ADD16C,2.032000*%
%ADD17C,2.999999*%
%ADD18R,2.800000X2.800000*%
%ADD19C,2.800000*%
%ADD20C,3.450000*%
%ADD21C,2.390000*%
%ADD22C,6.560820*%
%ADD23C,3.654400*%
%ADD24C,2.387600*%
%ADD25R,7.467600X6.477000*%
%ADD26C,5.842000*%
%ADD27C,6.000000*%
G04 APERTURE END LIST*
D10*
X171000000Y-93000000D03*
D11*
X144470200Y-88798400D03*
D12*
X147440200Y-88798400D03*
D13*
X29464000Y-96723200D03*
D14*
X29464000Y-101803200D03*
X29464000Y-106883200D03*
X29464000Y-111963200D03*
D10*
X48057500Y-98503750D03*
X48057500Y-118823750D03*
X106057500Y-98503750D03*
X106057500Y-118823750D03*
D15*
X117275000Y-108060000D03*
X117275000Y-111520000D03*
X117275000Y-114980000D03*
X117275000Y-118440000D03*
D16*
X36735000Y-114220000D03*
X36735000Y-119300000D03*
D10*
X28448000Y-70713600D03*
X29006800Y-119430800D03*
D17*
X39166800Y-90830400D03*
X39166800Y-73030436D03*
D18*
X43557799Y-77730434D03*
D19*
X43557799Y-81930433D03*
X43557799Y-86130432D03*
X39357800Y-77730434D03*
X39357800Y-81930433D03*
X39357800Y-86130432D03*
D20*
X193720000Y-108945000D03*
X248920000Y-73935000D03*
D21*
X257140000Y-108945000D03*
D13*
X270650000Y-88137500D03*
D14*
X270650000Y-93217500D03*
X270650000Y-98297500D03*
X270650000Y-103377500D03*
D10*
X269595600Y-119430800D03*
D11*
X160070800Y-95504000D03*
D12*
X157530800Y-95504000D03*
D10*
X270852000Y-79675000D03*
X269849600Y-70713600D03*
D22*
X155321000Y-103505000D03*
X184264300Y-116459000D03*
D15*
X217265000Y-117475000D03*
X213725000Y-117475000D03*
X210185000Y-117475000D03*
X206645000Y-117475000D03*
X203265000Y-117475000D03*
X200025000Y-117475000D03*
D23*
X249000000Y-90000000D03*
X193755000Y-73998000D03*
D24*
X185525400Y-90000000D03*
D25*
X261065000Y-81999000D03*
X181690000Y-81999000D03*
D26*
X62616800Y-89756000D03*
X88016800Y-77056000D03*
D16*
X106599387Y-78326000D03*
X106599387Y-73765535D03*
D27*
X131210000Y-78920000D03*
D16*
X148310000Y-71120000D03*
X148310000Y-79620000D03*
X113310000Y-71120000D03*
X113310000Y-79620000D03*
D11*
X149453600Y-101442600D03*
D12*
X149453600Y-104412600D03*
M02*
